<svg xmlns="http://www.w3.org/2000/svg" width="85" height="85" viewBox="0 0 85 85"><g transform="translate(-284.615 -3962)"><circle cx="42.5" cy="42.5" r="42.5" transform="translate(284.615 3962)" fill="#fff"/><path d="M42.5,5A37.511,37.511,0,0,0,27.9,77.055,37.511,37.511,0,0,0,57.1,7.945,37.261,37.261,0,0,0,42.5,5m0-5A42.5,42.5,0,1,1,0,42.5,42.5,42.5,0,0,1,42.5,0Z" transform="translate(284.615 3962)" fill="#a3314f"/><g transform="translate(294.615 3972)"><path d="M62.232,46.77a2.672,2.672,0,0,0-1.87-.77H57V36A24.969,24.969,0,0,0,38.17,11.78,3.988,3.988,0,0,0,34.18,8H29.82a3.988,3.988,0,0,0-3.99,3.78A24.982,24.982,0,0,0,7,36V46H3.642a2.638,2.638,0,0,0-.292,5.26l2.82.31a21.721,21.721,0,0,1,7.27,2.15A21.566,21.566,0,0,0,23.092,56h17.82a21.565,21.565,0,0,0,9.649-2.28,21.721,21.721,0,0,1,7.271-2.15l2.82-.31A2.64,2.64,0,0,0,63,48.64a2.672,2.672,0,0,0-.768-1.87Z" fill="#fbb03b"/><path d="M61,42v4H57V40h2A2.006,2.006,0,0,1,61,42Z" fill="#f8e883"/><rect width="7" height="7" rx="1" transform="translate(44.002 40)" fill="#f8e883"/><rect width="7" height="7" rx="1" transform="translate(13.002 40)" fill="#f8e883"/><path d="M7,40v6H3V42a2.006,2.006,0,0,1,2-2Z" fill="#f8e883"/><path d="M41,53.573H31.069a24.037,24.037,0,0,1-10.756-2.541,24.231,24.231,0,0,0-8.1-2.4L9.066,48.29A2.942,2.942,0,0,1,6.522,46H3.642a2.638,2.638,0,0,0-.292,5.26l2.82.31a21.721,21.721,0,0,1,7.27,2.15A21.566,21.566,0,0,0,23.092,56h17.82a21.565,21.565,0,0,0,9.649-2.28c.109-.054.222-.1.33-.147Z" fill="#e89931"/><path d="M12.83,46H7V36A24.982,24.982,0,0,1,25.83,11.78C13.511,19.83,13,31.255,12.83,46Z" fill="#e89931"/><path d="M62.93,46.055a3.713,3.713,0,0,0-.93-.648V42a3,3,0,0,0-3-3H58V36A25.929,25.929,0,0,0,39.061,11a4.98,4.98,0,0,0-4.883-4H29.822a4.98,4.98,0,0,0-4.884,4A25.918,25.918,0,0,0,6,36v3H5a3,3,0,0,0-3,3v3.409a3.767,3.767,0,0,0-.945.661A3.643,3.643,0,0,0,3.24,52.254l2.816.309a20.652,20.652,0,0,1,6.937,2.051A22.692,22.692,0,0,0,23.09,57H40.91a22.687,22.687,0,0,0,10.1-2.387,20.643,20.643,0,0,1,6.931-2.049l2.822-.31a3.643,3.643,0,0,0,2.169-6.2ZM59,41a1,1,0,0,1,1,1v3H58V41ZM4,42a1,1,0,0,1,1-1H6v4H4Zm56.541,8.266-2.825.311a22.659,22.659,0,0,0-7.6,2.248A20.676,20.676,0,0,1,40.91,55H23.09a20.681,20.681,0,0,1-9.2-2.174,22.668,22.668,0,0,0-7.61-2.25l-2.819-.31A1.638,1.638,0,0,1,3.64,47h8.638A1.993,1.993,0,0,0,14,48h5a2,2,0,0,0,2-2V41a2,2,0,0,0-2-2H14a2,2,0,0,0-2,2v4H8V36A23.923,23.923,0,0,1,24.765,13.14L24,29.955a1,1,0,0,0,2,.09l.826-18.181a3,3,0,0,1,3-2.864h4.356a3,3,0,0,1,3,2.863L38,30.045a1,1,0,1,0,2-.09l-.765-16.829A23.954,23.954,0,0,1,56,36v9H52V41a2,2,0,0,0-2-2H45a2,2,0,0,0-2,2v5a2,2,0,0,0,2,2h5a1.993,1.993,0,0,0,1.722-1H60.36A1.657,1.657,0,0,1,62,48.64a1.638,1.638,0,0,1-1.459,1.626ZM14,46V41h5v5Zm36,0H45V41h5v4.99Z"/><path d="M40,45H24a1,1,0,0,0,0,2H40a1,1,0,0,0,0-2Z"/></g></g></svg>