<svg xmlns="http://www.w3.org/2000/svg" width="85" height="85" viewBox="0 0 85 85"><g transform="translate(-809.615 -3962)"><circle cx="42.5" cy="42.5" r="42.5" transform="translate(809.615 3962)" fill="#fff"/><path d="M42.5,5A37.511,37.511,0,0,0,27.9,77.055,37.511,37.511,0,0,0,57.1,7.945,37.261,37.261,0,0,0,42.5,5m0-5A42.5,42.5,0,1,1,0,42.5,42.5,42.5,0,0,1,42.5,0Z" transform="translate(809.615 3962)" fill="#a3314f"/><g transform="translate(820.047 3871.716)"><path d="M74.492,252.018l-1.739-3.061H53.628l-1.739,3.061H42.174l-1.739-3.061H21.31l-1.739,3.061H17.5v7.628a2.165,2.165,0,0,0,1.737,2.123l22.212,4.479a1.738,1.738,0,0,0,2.031-1.286l1.6-6.464a2.01,2.01,0,0,1,3.9,0l1.6,6.464a1.738,1.738,0,0,0,2.031,1.286l22.212-4.479a2.165,2.165,0,0,0,1.737-2.123v-7.628Z" transform="translate(-15.333 -116.829)" fill="#ecf4ff"/><path d="M305.624,252.019l-1.739-3.061h-3.546l.332.585h2.072v7.628a2.165,2.165,0,0,1-1.737,2.123L281.3,263.268l.42,1.7a1.738,1.738,0,0,0,2.031,1.286l22.212-4.479a2.165,2.165,0,0,0,1.737-2.123v-7.628Z" transform="translate(-246.465 -116.83)" fill="#ddeafb"/><path d="M39.545,123.117H33.934a6.772,6.772,0,0,0-3.386.907L11.93,134.984h7.9l13.047-7.533a1.521,1.521,0,0,1,.76-.2h3.848a3.1,3.1,0,0,0,3.1-3.1,1.033,1.033,0,0,0-1.033-1.034Z" transform="translate(-10.453 -6.571)" fill="#475959"/><path d="M275.649,127.248a1.521,1.521,0,0,1,.76.2l13.047,7.533h7.9l-18.618-10.96a6.772,6.772,0,0,0-3.386-.907h-5.611a1.033,1.033,0,0,0-1.033,1.033,3.1,3.1,0,0,0,3.1,3.1h3.848Z" transform="translate(-235.432 -6.571)" fill="#475959"/><path d="M7.5,218.957v6.776h3.31l1.739-3.061H31.674l1.739,3.061h9.716l1.739-3.061H63.992l1.739,3.061h3.31v-6.776Z" transform="translate(-6.571 -90.544)" fill="#617881"/><path d="M21.31,248.957l-1.739,3.061H17.5v7.628a2.161,2.161,0,0,0,.439,1.308h0l6.633-4.223a.835.835,0,0,0,.387-.7v-7.069H21.31Z" transform="translate(-15.333 -116.829)" fill="#bed8fb"/><path d="M437.91,248.957l1.739,3.061h2.072v7.628a2.161,2.161,0,0,1-.439,1.308h0l-6.633-4.223a.835.835,0,0,1-.387-.7v-7.069Z" transform="translate(-380.49 -116.829)" fill="#bed8fb"/><path d="M439.5,250.488l-.869-1.531h-3.546l.332.585h2.072v7.628a2.16,2.16,0,0,1-.157.81L442,260.953h0a2.158,2.158,0,0,0,.439-1.308v-7.628h-2.072Z" transform="translate(-381.212 -116.829)" fill="#9dc6fb"/><path d="M62.469,127.484h-.3L43.767,116.649a7.712,7.712,0,0,0-3.851-1.032H34.305a1.964,1.964,0,0,0-1.962,1.962,4.03,4.03,0,0,0,4.026,4.026h3.848a.593.593,0,0,1,.3.079l10.046,5.8H48.031a.929.929,0,1,0,0,1.857H61.54v4.919H59.7l-1.472-2.591a.929.929,0,0,0-.807-.47H38.3a.929.929,0,0,0-.807.47l-1.472,2.591H27.381l-1.472-2.591a.929.929,0,0,0-.807-.47H5.977a.929.929,0,0,0-.807.47L3.7,134.26H1.857v-4.919H43.7a.929.929,0,1,0,0-1.857H12.839l10.046-5.8a.593.593,0,0,1,.3-.08h3.848a4.03,4.03,0,0,0,4.026-4.026,1.964,1.964,0,0,0-1.962-1.962H23.481a7.719,7.719,0,0,0-3.857,1.036l-10.515,6.19a.929.929,0,1,0,.942,1.6l10.509-6.186a5.852,5.852,0,0,1,2.922-.783h5.611a.1.1,0,0,1,.1.1,2.171,2.171,0,0,1-2.169,2.168H23.181a2.455,2.455,0,0,0-1.225.328L9.124,127.484H4.885l1.4-.822a.929.929,0,0,0-.942-1.6l-4.115,2.423h-.3a.929.929,0,0,0-.929.929v6.776a.929.929,0,0,0,.929.929h.31v6.7a3.1,3.1,0,0,0,2.482,3.033l22.212,4.479a2.661,2.661,0,0,0,3.116-1.973l1.6-6.464a1.082,1.082,0,0,1,2.1,0l1.6,6.464a2.661,2.661,0,0,0,3.116,1.973l15.878-3.2a.929.929,0,1,0-.367-1.821l-15.878,3.2a.809.809,0,0,1-.946-.6l-1.6-6.464a2.939,2.939,0,0,0-5.705,0l-1.6,6.464a.808.808,0,0,1-.946.6L4.389,144.09l5.349-3.405a1.756,1.756,0,0,0,.817-1.488v-6.14H24.562l1.472,2.591a.929.929,0,0,0,.807.47h9.716a.929.929,0,0,0,.807-.47l1.472-2.591H52.843v6.14a1.756,1.756,0,0,0,.817,1.488l5.349,3.405-1.787.36a.929.929,0,1,0,.367,1.821l2.089-.421a3.1,3.1,0,0,0,2.482-3.033v-6.7h.31a.929.929,0,0,0,.929-.929v-6.776A.929.929,0,0,0,62.469,127.484ZM8.7,139.145l-5.6,3.566v-6.594H4.239a.929.929,0,0,0,.807-.47l1.472-2.591H8.7Zm45.576-11.661-12.832-7.408a2.454,2.454,0,0,0-1.225-.328H36.369a2.171,2.171,0,0,1-2.169-2.168.1.1,0,0,1,.1-.1h5.611a5.846,5.846,0,0,1,2.915.779l15.681,9.231ZM60.3,142.712l-5.6-3.566v-6.089H56.88l1.472,2.591a.929.929,0,0,0,.807.47H60.3Z"/><path d="M226.156,241.457a.929.929,0,1,0,0,1.857h5.764a.929.929,0,1,0,0-1.857Z" transform="translate(-197.339 -110.258)"/></g></g></svg>