<svg xmlns="http://www.w3.org/2000/svg" width="85" height="85" viewBox="0 0 85 85"><g transform="translate(-809.615 -4128)"><circle cx="42.5" cy="42.5" r="42.5" transform="translate(809.615 4128)" fill="#fff"/><path d="M42.5,5A37.511,37.511,0,0,0,27.9,77.055,37.511,37.511,0,0,0,57.1,7.945,37.261,37.261,0,0,0,42.5,5m0-5A42.5,42.5,0,1,1,0,42.5,42.5,42.5,0,0,1,42.5,0Z" transform="translate(809.615 4128)" fill="#a3314f"/><g transform="translate(826.615 4128.061)"><path d="M42.084,142.6c1.117.745,1.812,1.353,3.117,1.353H69.8l-.36-4.489A10.985,10.985,0,0,0,58.5,129.4H54.259a8.149,8.149,0,0,1-8.149-8.149v-6.891H24.348v27.622H40.03A3.7,3.7,0,0,1,42.084,142.6Z" transform="translate(-21.934 -85.958)" fill="#a86d38"/><g transform="translate(2.414 28.401)"><rect width="1.983" height="27.622" fill="#995f30"/><path d="M316.166,266.033h-3.155a9.6,9.6,0,0,0-2.632,6.615v7.941h17.092l-.36-4.489A10.985,10.985,0,0,0,316.166,266.033Z" transform="translate(-282.017 -250.993)" fill="#995f30"/></g><path d="M315,266.033h-1.983a9.6,9.6,0,0,0-2.632,6.615v7.941h1.983v-7.941A9.6,9.6,0,0,1,315,266.033Z" transform="translate(-279.603 -222.592)" fill="#8e552b"/><path d="M26.768,301.844h-2.42v9.031H33.18v-2.618A6.413,6.413,0,0,0,26.768,301.844Z" transform="translate(-21.934 -254.852)" fill="#995f30"/><rect width="1.983" height="9.03" transform="translate(2.414 46.993)" fill="#8e552b"/><path d="M31.221,26.372H9.459A1.644,1.644,0,0,0,7.82,28.011v5.645A1.644,1.644,0,0,0,9.459,35.3H31.221a1.644,1.644,0,0,0,1.639-1.639V28.011A1.644,1.644,0,0,0,31.221,26.372Z" transform="translate(-7.045 -6.696)" fill="#a86d38"/><path d="M9.8,33.656V28.011a1.644,1.644,0,0,1,1.639-1.639H9.459A1.644,1.644,0,0,0,7.82,28.011v5.645A1.644,1.644,0,0,0,9.459,35.3h1.983A1.644,1.644,0,0,1,9.8,33.656Z" transform="translate(-7.045 -6.696)" fill="#995f30"/><path d="M7.82,81.466v1.821a1.644,1.644,0,0,0,1.639,1.639H31.221a1.644,1.644,0,0,0,1.639-1.639V81.466Z" transform="translate(-7.045 -56.327)" fill="#b78046"/><path d="M9.8,83.287V81.466H7.82v1.821a1.644,1.644,0,0,0,1.639,1.639h1.983A1.644,1.644,0,0,1,9.8,83.287Z" transform="translate(-7.045 -56.327)" fill="#a86d38"/><path d="M7.82,440.335v3.675a.8.8,0,0,0,.8.8H22.377a.74.74,0,0,0,.74-.74v-.666c0-.527.617-.76,1.181-.384l1.751,1.168a3.7,3.7,0,0,0,2.053.622H55.521a1.582,1.582,0,0,0,1.582-1.582v-2.9H7.82Z" transform="translate(-7.045 -379.61)" fill="#4d5370"/><path d="M9.8,444.011v-3.675H7.82v3.675a.8.8,0,0,0,.8.8h1.983A.8.8,0,0,1,9.8,444.011Z" transform="translate(-7.045 -379.611)" fill="#444a63"/><path d="M57.1,396.013v-.936a2.188,2.188,0,0,0-2.188-2.188h-24.6c-2.288,0-2.833-1.974-5.17-1.974H8.678a.859.859,0,0,0-.859.859v4.24Z" transform="translate(-7.044 -335.089)" fill="#616584"/><path d="M9.8,391.772a.859.859,0,0,1,.859-.859H8.68a.859.859,0,0,0-.859.859v4.24H9.8Z" transform="translate(-7.045 -335.089)" fill="#4d5370"/><path d="M48.53,57.145c-.343-4.094-.31-3.708-.329-3.892a11.729,11.729,0,0,0-9.489-10.346c-1.359-.256-1.843-.2-6.418-.2a7.364,7.364,0,0,1-2.862-.576.742.742,0,0,0-1.12-.591A7.451,7.451,0,0,1,27,40.468a.744.744,0,0,0-.882-1.162l-.034.017a7.379,7.379,0,0,1-.779-1.586.744.744,0,0,0-.118-1.482l-.23.017a15.118,15.118,0,0,1-.066-2.232h.222a.744.744,0,0,0,0-1.487h-.222V29.23a2.386,2.386,0,0,0,1.639-2.263V21.322a2.385,2.385,0,0,0-2.383-2.383H14a.744.744,0,1,0,0,1.487H24.145a.9.9,0,0,1,.9.9V24.4H1.488v-3.08a.9.9,0,0,1,.9-.9h8.149a.744.744,0,1,0,0-1.487H2.383A2.385,2.385,0,0,0,0,21.322v5.645A2.386,2.386,0,0,0,1.639,29.23V55.087H1.6A1.6,1.6,0,0,0,0,56.69v7.717a1.548,1.548,0,0,0,1.546,1.546H15.3a1.485,1.485,0,0,0,1.484-1.484v-.446c1.158.646,2.251,1.929,4.242,1.929H48.445a2.328,2.328,0,0,0,2.326-2.326V59.994A2.937,2.937,0,0,0,48.53,57.145ZM25.64,41.192a8.964,8.964,0,0,0,1.77,1.535L25.58,45.39a.744.744,0,1,0,1.226.842l1.917-2.79a8.832,8.832,0,0,0,3.112.737,10.361,10.361,0,0,0-1.824,5.471.744.744,0,1,0,1.486.058,8.882,8.882,0,0,1,2.209-5.517h2.826a10.3,10.3,0,0,1,10.205,9.386l.292,3.484H31.49V53.151a.744.744,0,0,0-1.487,0v3.911H23.235c-1.982,0-2.55-1.974-5.17-1.974H11.959V53.412A7.165,7.165,0,0,0,4.8,46.255H3.126V29.35H23.4v3.2H20.457a.744.744,0,1,0,0,1.487H23.4a17.4,17.4,0,0,0,.066,2.344l-2.923.221a.744.744,0,1,0,.112,1.483l3.119-.236a8.848,8.848,0,0,0,.96,2.126l-2.743,1.335a.744.744,0,1,0,.651,1.337ZM10.471,53.412v1.676H3.126V47.743H4.8A5.675,5.675,0,0,1,10.471,53.412ZM1.488,26.967V25.89H25.04v1.077a.9.9,0,0,1-.9.9H2.383A.9.9,0,0,1,1.488,26.967Zm47.8,36.661a.839.839,0,0,1-.838.838H21.026c-1.1,0-1.547-.434-3.392-1.665a1.414,1.414,0,0,0-2.337,1l0,.662H1.546a.059.059,0,0,1-.059-.059V61.674h47.8Zm0-3.441H1.488v-3.5a.116.116,0,0,1,.116-.116H18.065c2.042,0,2.566,1.974,5.17,1.974h24.6a1.446,1.446,0,0,1,1.444,1.444v.193Z"/></g></g></svg>