<svg xmlns="http://www.w3.org/2000/svg" width="85" height="85" viewBox="0 0 85 85"><g transform="translate(-809.615 -4595)"><circle cx="42.5" cy="42.5" r="42.5" transform="translate(809.615 4595)" fill="#fff"/><path d="M42.5,5A37.511,37.511,0,0,0,27.9,77.055,37.511,37.511,0,0,0,57.1,7.945,37.261,37.261,0,0,0,42.5,5m0-5A42.5,42.5,0,1,1,0,42.5,42.5,42.5,0,0,1,42.5,0Z" transform="translate(809.615 4595)" fill="#a3314f"/><g transform="translate(796.667 4612)"><g transform="translate(34.686 0.738)"><path d="M83.7,300.772v-5.3a7.121,7.121,0,0,0-4.891-6.763L69.5,285.639l-1.848-.122a2.374,2.374,0,0,1-1.63-2.254V278.8h-6.9v4.468a2.374,2.374,0,0,1-1.63,2.254l-1.848.122-9.307,3.068a7.121,7.121,0,0,0-4.891,6.763v5.3a.985.985,0,0,0,.985.985h40.28A.985.985,0,0,0,83.7,300.772Z" transform="translate(-41.447 -252.084)" fill="#8fd8fa"/><g transform="translate(23.096 26.712)"><path d="M290.284,288.708l-9.307-3.068-1.848-.122a2.373,2.373,0,0,1-1.63-2.254V278.8l-1.477,1.477v4.468a2.374,2.374,0,0,0,1.63,2.254l.371.122,9.307,3.068a7.121,7.121,0,0,1,4.891,6.763v4.809h1.969a.985.985,0,0,0,.985-.985v-5.3A7.121,7.121,0,0,0,290.284,288.708Z" transform="translate(-276.022 -278.795)" fill="#6bcdfe"/></g><path d="M148.25,146.134a1.475,1.475,0,0,1-1.1,1.536,47.8,47.8,0,0,1-24.214,0,1.478,1.478,0,0,1-1.1-1.538l1.388-18.952h23.635Z" transform="translate(-113.92 -115.398)" fill="#eaf6ff"/><path d="M346.343,148.338c1.053-.206,2.03-.434,2.926-.669a1.475,1.475,0,0,0,1.1-1.536l-1.388-18.952h-2.954l1.388,18.952a1.477,1.477,0,0,1-.627,1.32,1,1,0,0,0-.441.86Z" transform="translate(-316.034 -115.398)" fill="#d8ecfe"/><path d="M185.649,285.64a9.347,9.347,0,0,0,13.853,0l-1.848-.122a2.373,2.373,0,0,1-1.63-2.254V278.8h-6.9v4.468a2.374,2.374,0,0,1-1.63,2.254Z" transform="translate(-171.451 -252.084)" fill="#ffcebf"/><path d="M276.021,280.274v4.468a2.374,2.374,0,0,0,1.63,2.254l.371.122.823.271a9.381,9.381,0,0,0,2.131-1.748l-.371-.122a2.373,2.373,0,0,1-1.63-2.254V278.8Z" transform="translate(-252.925 -252.085)" fill="#ffb09e"/><path d="M201.876,283.264V278.8h-9.85v4.468a2.372,2.372,0,0,1-1.524,2.214,47.744,47.744,0,0,0,12.9,0A2.372,2.372,0,0,1,201.876,283.264Z" transform="translate(-175.826 -252.084)" fill="#ffe8e3"/><path d="M276.021,284.741a2.366,2.366,0,0,0,.283,1.12c1.481-.07,2.883-.2,4.2-.383a2.449,2.449,0,0,1-1.524-2.215V278.8l-2.954,1.477Z" transform="translate(-252.925 -252.084)" fill="#f4d9d4"/><g transform="translate(11.763)"><path d="M179.62,18.08h-18.7V13.02a5.52,5.52,0,0,1,5.52-5.52H174.1a5.52,5.52,0,0,1,5.52,5.52v5.06Z" transform="translate(-160.917 -7.5)" fill="#e19974"/><path d="M267.768,7.5h-2.954a5.52,5.52,0,0,1,5.52,5.52v5.06h2.954V13.02A5.52,5.52,0,0,0,267.768,7.5Z" transform="translate(-254.584 -7.5)" fill="#dc8758"/><path d="M179.62,102.026v9.2c0,5.177-4.225,7.893-9.422,7.854-5.156-.038-9.281-2.826-9.281-7.972v-9.079a17.168,17.168,0,0,0,7.495-.578,16.988,16.988,0,0,0,4.343-2.056.686.686,0,0,1,.856.08,9.047,9.047,0,0,0,6.01,2.554Z" transform="translate(-160.917 -90.242)" fill="#ffe8e3"/><path d="M175.744,191.789l-3.956,2.288a3.036,3.036,0,0,1-3.04,0l-3.956-2.288a7.755,7.755,0,0,1-3.876-6.712v-.967a18.173,18.173,0,0,1,9.431-3.606,17.634,17.634,0,0,1,9.272,3.606v.967A7.755,7.755,0,0,1,175.744,191.789Z" transform="translate(-160.917 -163.47)" fill="#f5fbff"/></g><path d="M142.091,100.136H117.476a1.477,1.477,0,0,1,0-2.954h24.615a1.477,1.477,0,1,1,0,2.954Z" transform="translate(-108.659 -88.352)" fill="#8fd8fa"/><path d="M353.953,97.182H351a1.477,1.477,0,1,1,0,2.954h2.954a1.477,1.477,0,1,0,0-2.954Z" transform="translate(-320.521 -88.352)" fill="#6bcdfe"/></g><path d="M42.071,45.076a.738.738,0,0,0-.738.738v3.858a.738.738,0,1,0,1.477,0V45.815A.738.738,0,0,0,42.071,45.076Zm35.6.735V44.125a7.846,7.846,0,0,0-5.4-7.465l-6.96-2.294q1.4-.28,2.793-.643a2.213,2.213,0,0,0,1.645-2.3L68.421,13.24a2.215,2.215,0,0,0-.3-4.409H65.891V6.258A6.266,6.266,0,0,0,59.632,0H51.969a6.265,6.265,0,0,0-6.258,6.258V8.83H43.5a2.215,2.215,0,0,0-.3,4.409l-.617,8.425a.738.738,0,0,0,1.473.108l.624-8.512h1.031c-.117.69,0,8.411,0,9.084a8.538,8.538,0,0,0,4.437,7.463v2.11a1.633,1.633,0,0,1-.888,1.455A47.179,47.179,0,0,1,43.894,32.3a.74.74,0,0,1-.552-.769l.463-6.317a.738.738,0,0,0-1.473-.108l-.463,6.317a2.217,2.217,0,0,0,1.651,2.306q1.384.362,2.787.641l-6.96,2.294a7.846,7.846,0,0,0-5.4,7.464v5.547a.738.738,0,0,0,1.477,0V44.125a6.372,6.372,0,0,1,4.384-6.062l8.863-2.922a10.084,10.084,0,0,0,14.277,0l8.863,2.922A6.372,6.372,0,0,1,76.2,44.125v5.547a.738.738,0,0,0,.738.738h0a.738.738,0,0,0,.738-.738V45.815s0,0,0,0ZM43.5,11.784a.738.738,0,1,1,0-1.477H58.765a.738.738,0,0,0,0-1.477H47.188V6.258a4.787,4.787,0,0,1,4.781-4.781h7.663a4.787,4.787,0,0,1,4.782,4.781V8.83h-2.2a.738.738,0,1,0,0,1.477h5.908a.738.738,0,1,1,0,1.477Zm20.91,1.477v6.691A18.357,18.357,0,0,0,61.2,18.279a13.461,13.461,0,0,0-5.377-1.243,18.9,18.9,0,0,0-8.631,2.928v-6.7Zm-8.6,23.366a8.623,8.623,0,0,1-4.958-1.574,48.521,48.521,0,0,0,4.959.256,48.5,48.5,0,0,0,4.957-.255A8.622,8.622,0,0,1,55.811,36.627ZM60.49,33.6q-2.331.233-4.678.233T51.133,33.6a3.1,3.1,0,0,0,.492-1.679V30.662l2.287,1.323a3.783,3.783,0,0,0,3.779,0L60,30.65v1.267A3.1,3.1,0,0,0,60.49,33.6Zm-3.539-2.892a2.3,2.3,0,0,1-2.3,0l-3.956-2.288a7.136,7.136,0,0,1-3.507-6.667,17.43,17.43,0,0,1,8.692-3.238,16.894,16.894,0,0,1,8.534,3.233,7.2,7.2,0,0,1-3.507,6.672h0Zm5.41,2.665a1.633,1.633,0,0,1-.886-1.454V29.8a8.545,8.545,0,0,0,4.416-7.451V13.261h1.051L68.28,31.528a.736.736,0,0,1-.546.767A47.1,47.1,0,0,1,62.36,33.371Zm7.191,11.7a.738.738,0,0,0-.738.738v3.858a.738.738,0,1,0,1.477,0V45.815A.738.738,0,0,0,69.551,45.076ZM50.642,17.164a.738.738,0,0,0,.738-.738V14.914a.738.738,0,1,0-1.477,0v1.512A.738.738,0,0,0,50.642,17.164Zm10.338,0a.738.738,0,0,0,.738-.738V14.914a.738.738,0,0,0-1.477,0v1.512A.738.738,0,0,0,60.98,17.164Z"/></g></g></svg>