<svg xmlns="http://www.w3.org/2000/svg" width="85" height="85" viewBox="0 0 85 85"><g transform="translate(-813.615 -4937)"><circle cx="42.5" cy="42.5" r="42.5" transform="translate(813.615 4937)" fill="#fff"/><path d="M42.5,5A37.511,37.511,0,0,0,27.9,77.055,37.511,37.511,0,0,0,57.1,7.945,37.261,37.261,0,0,0,42.5,5m0-5A42.5,42.5,0,1,1,0,42.5,42.5,42.5,0,0,1,42.5,0Z" transform="translate(813.615 4937)" fill="#a3314f"/><g transform="translate(823.915 4955)"><g transform="translate(9.51 0.775)"><path d="M225.838,425.641V429.6a1.619,1.619,0,0,1-1.619,1.619H207.466a.809.809,0,0,1-.809-.809v-5.576a.809.809,0,0,1,.809-.809H224.22A1.619,1.619,0,0,1,225.838,425.641Z" transform="translate(-188.596 -384.581)" fill="#2e7d32"/><path d="M223.41,425.641V429.6a1.624,1.624,0,0,1-1.619,1.619H207.466a.809.809,0,0,1-.809-.809v-5.576a.809.809,0,0,1,.809-.809h14.325A1.624,1.624,0,0,1,223.41,425.641Z" transform="translate(-188.596 -384.581)" fill="#4caf50"/><path d="M209.015,50.765V46.241l8.768-8.767a3.2,3.2,0,1,0-4.524-4.523l-2.879,2.88a.8.8,0,0,1-1.365-.567V17.2a2.4,2.4,0,0,0-2.573-2.392,2.49,2.49,0,0,0-2.226,2.527V14.1a2.4,2.4,0,1,0-4.8,0v3.1a2.4,2.4,0,1,0-4.8,0v5.594c0-.663-.272,2.545-.7,2.114a2.393,2.393,0,0,0-1.87-.7,2.49,2.49,0,0,0-2.219,2.527V38.452a12.8,12.8,0,0,0,.567,3.761l2.63,8.552h15.984Z" transform="translate(-173.368 -11.324)" fill="#8bc34a"/><path d="M198.654,286.9l-5.6,0-2.634-8.546a12.636,12.636,0,0,1-.561-3.762v-2.058a8.757,8.757,0,0,1,5.03,1.538C199.3,277.1,198.631,282.2,198.654,286.9Z" transform="translate(-173.395 -247.454)" fill="#802d40"/><path d="M155.4,377.1l-1.748.631-14,5.1a.809.809,0,0,1-1.036-.486l-1.9-5.236a.8.8,0,0,1,.235-.89.672.672,0,0,1,.243-.146l15.75-5.73a1.614,1.614,0,0,1,2.072.963l1.352,3.715A1.626,1.626,0,0,1,155.4,377.1Z" transform="translate(-125.245 -335.905)" fill="#2e7d32"/><path d="M153.657,385.46l-14,5.1a.809.809,0,0,1-1.036-.486l-1.9-5.236a.8.8,0,0,1,.235-.89l13.913-5.066a1.626,1.626,0,0,1,2.08.963l1.352,3.723A1.587,1.587,0,0,1,153.657,385.46Z" transform="translate(-125.245 -343.632)" fill="#4caf50"/><path d="M43.951,42.606,42.4,38.355l5.24-11.238a3.2,3.2,0,1,0-5.8-2.7L40.123,28.1a.8.8,0,0,1-1.475-.065L32.47,11.062a2.4,2.4,0,0,0-3.237-1.367,2.49,2.49,0,0,0-1.224,3.134l4.056,11.138L27.964,12.7,26.9,9.788a2.4,2.4,0,1,0-4.5,1.64l1.06,2.914,4.1,11.268-4.1-11.268a2.4,2.4,0,1,0-4.506,1.637l1.913,5.261L23.872,29.5,20.865,21.24a2.4,2.4,0,0,0-3.237-1.367A2.49,2.49,0,0,0,16.4,23.006l5.312,14.588a12.8,12.8,0,0,0,1.816,3.34l5.4,7.137Z" transform="translate(-16.235 -8.175)" fill="#8bc34a"/><path d="M79.8,303.2l-5.261,1.91-5.4-7.13a12.634,12.634,0,0,1-1.813-3.343l-.7-1.934a8.757,8.757,0,0,1,5.253-.275C77.057,293.771,78.174,298.8,79.8,303.2Z" transform="translate(-61.846 -265.216)" fill="#ffeb3a"/><g transform="translate(12.25 1.31)"><path d="M155.683,40.762l-.275.6a.8.8,0,0,1-1.473-.065l-6.183-16.98a2.374,2.374,0,0,0-1.238-1.352,2.316,2.316,0,0,0-1.125-.219,2.088,2.088,0,0,1,.753-.55,2.385,2.385,0,0,1,3.229,1.36l6.183,16.98A.689.689,0,0,0,155.683,40.762Z" transform="translate(-145.388 -21.982)" fill="#558b30"/><path d="M281.949,164.531l-5.237,11.242,1.546,4.249-1.675.607-1.489-4.1,5.236-11.234a3.215,3.215,0,0,0-1.546-4.257,3.146,3.146,0,0,0-1.829-.259,3.194,3.194,0,0,1,4.994,3.755Z" transform="translate(-262.792 -146.9)" fill="#558b30"/><path d="M360.348,65.326l-.526.526a.8.8,0,0,1-1.368-.567V47.221a2.4,2.4,0,0,0-1.441-2.2,1.992,1.992,0,0,1,.753-.194,2.4,2.4,0,0,1,2.574,2.4V65.286A.061.061,0,0,0,360.348,65.326Z" transform="translate(-336.942 -42.653)" fill="#558b30"/><path d="M383.793,229.483a3.22,3.22,0,0,1-.939,2.266l-8.765,8.765v4.524H372.2v-4.524l8.765-8.765a3.221,3.221,0,0,0,.939-2.266,3.188,3.188,0,0,0-.939-2.258,3.244,3.244,0,0,0-1.319-.8,3.208,3.208,0,0,1,4.144,3.059Z" transform="translate(-350.691 -206.907)" fill="#558b30"/></g></g><g transform="translate(8.701)"><path d="M14.229,30.472a13.6,13.6,0,0,0,1.929,3.552l4.755,6.286a1.619,1.619,0,0,0-.7,1.942l1.905,5.237a1.619,1.619,0,0,0,2.075.971l2.445-.89a1.619,1.619,0,0,0,1.495.99H45.174A2.428,2.428,0,0,0,47.6,46.133V42.07a2.415,2.415,0,0,0-1.659-2.285V36l8.7-8.466A4.057,4.057,0,0,0,48.906,21.8l-2.923,2.927V6.386A3.237,3.237,0,0,0,42.5,3.158a3.066,3.066,0,0,0-1.386.456V3.245a3.245,3.245,0,0,0-6.491,0V3.6a3.207,3.207,0,0,0-1.619-.449,3.245,3.245,0,0,0-3.246,3.237v5.95L26.505,3.385a3.211,3.211,0,0,0-4.327-1.828,3.035,3.035,0,0,0-1.122.881l-.119-.324A3.207,3.207,0,1,0,14.91,4.3l.116.308a3.165,3.165,0,0,0-1.641.134,3.211,3.211,0,0,0-1.92,4.112l.971,2.654a3.187,3.187,0,0,0-1.862.221A3.291,3.291,0,0,0,8.92,15.883Zm1.525-.554-.413-1.133a7.968,7.968,0,0,1,4-.016c4.142,1.075,5.428,4.754,6.79,8.65.1.287.2.567.3.856l-3.94,1.434-5.041-6.661A11.989,11.989,0,0,1,15.754,29.918Zm7.893,17.024-1.9-5.24.718-.261,15.025-5.469a.8.8,0,0,1,.276-.049.809.809,0,0,1,.762.533l1.349,3.717a.809.809,0,0,1-.486,1.038Zm22.338-.809a.809.809,0,0,1-.809.809h-16.8l6.693-2.436h7.677v.809a.809.809,0,1,0,1.619,0v-.809a1.624,1.624,0,0,0-1.627-1.619H39.516l.428-.155a2.41,2.41,0,0,0,1.444-1.471h3.786a.809.809,0,0,1,.809.809ZM42.624,4.775a1.619,1.619,0,0,1,1.74,1.611v18.34a1.619,1.619,0,0,0,2.766,1.146l2.919-2.927a2.439,2.439,0,0,1,3.454,3.44L44.567,35.08v0a.819.819,0,0,0-.184.286.8.8,0,0,0-.057.284v3.988H41.4a.034.034,0,0,0-.006-.023L40.042,35.9a2.428,2.428,0,0,0-2.28-1.586L36.554,31l5.1-10.937a3.945,3.945,0,0,0-.535-4.209V6.523A1.717,1.717,0,0,1,42.624,4.775Zm-6.378-1.53a1.627,1.627,0,0,1,3.254,0V14.657a3.974,3.974,0,0,0-3.254.138V3.246Zm-4.864,3.14a1.623,1.623,0,0,1,2.77-1.144,1.6,1.6,0,0,1,.475,1.144v9.882a3.748,3.748,0,0,0-.243.4l-1.7,3.692-1.3-3.58ZM11.236,13.211a1.593,1.593,0,0,1,2.144.9l3.007,8.263a.815.815,0,0,0,.154.251.765.765,0,0,0,.059.056.8.8,0,0,0,.168.122.811.811,0,0,0,.076.036.756.756,0,0,0,.216.054c.021,0,.04.009.062.01h.025a.809.809,0,0,0,.76-1.087L14.9,13.563,12.987,8.305a1.589,1.589,0,0,1,2.986-1.087l4.1,11.265a.8.8,0,0,0,.153.251c.019.022.041.039.062.059a.814.814,0,0,0,.162.117.678.678,0,0,0,.081.04.786.786,0,0,0,.2.051c.026,0,.049.011.075.011h.023a.786.786,0,0,0,.276-.049.809.809,0,0,0,.486-1.037L16.433,3.751a1.59,1.59,0,0,1,.949-2.035A1.569,1.569,0,0,1,18.6,1.77a1.6,1.6,0,0,1,.822.894l5.158,14.18a.809.809,0,0,0,1.569-.236.792.792,0,0,0-.049-.318l-.89-2.441-3.16-8.7a1.69,1.69,0,0,1,.793-2.118,1.593,1.593,0,0,1,2.145.9l6.179,16.977A1.6,1.6,0,0,0,32.6,21.973a1.569,1.569,0,0,0,1.528-.93l1.721-3.689a2.389,2.389,0,0,1,4.332,2.016L34.945,30.612a.649.649,0,0,0-.023.095.785.785,0,0,0-.051.21.81.81,0,0,0,.049.317l1.269,3.487-8.237,2.995c-.1-.278-.2-.555-.3-.835-1.376-3.934-2.932-8.392-7.911-9.683a9.615,9.615,0,0,0-4.962.053L10.441,15.33A1.691,1.691,0,0,1,11.236,13.211Z" transform="translate(-8.701)"/><path d="M183.623,403.526a1.613,1.613,0,0,0-2.061-.962l-1.443.525-.039.015-9.783,3.561a.809.809,0,1,0,.554,1.521l9.83-3.585a.663.663,0,0,0,.068-.025l1.356-.495.274.751a.809.809,0,0,0,1.521-.555Z" transform="translate(-154.475 -364.296)"/></g></g></g></svg>