<svg xmlns="http://www.w3.org/2000/svg" width="85" height="85" viewBox="0 0 85 85"><g transform="translate(-809.615 -5103)"><circle cx="42.5" cy="42.5" r="42.5" transform="translate(809.615 5103)" fill="#fff"/><path d="M42.5,5A37.511,37.511,0,0,0,27.9,77.055,37.511,37.511,0,0,0,57.1,7.945,37.261,37.261,0,0,0,42.5,5m0-5A42.5,42.5,0,1,1,0,42.5,42.5,42.5,0,0,1,42.5,0Z" transform="translate(809.615 5103)" fill="#a3314f"/><g transform="translate(825.615 5118.994)"><g transform="translate(12.102 2.882)"><path d="M145.414,19.179l12.9-3.409a1.188,1.188,0,0,0,.288-.04,1.046,1.046,0,0,0,.751-1V10.545a1.041,1.041,0,0,0-1.039-1.039H130.83a1.044,1.044,0,0,0-1.043,1.039v3.774Z" transform="translate(-129.787 -9.506)" fill="#f5a96c" fill-rule="evenodd"/></g><g transform="translate(0.876 7.695)"><path d="M8.539,56.986l13.746,4.388,13.746-4.388a1.019,1.019,0,0,0,.285-.04,1.046,1.046,0,0,0,.755-1V51.762a1.043,1.043,0,0,0-1.039-1.039H8.539A1.041,1.041,0,0,0,7.5,51.762v4.184a1.047,1.047,0,0,0,.986,1.039Z" transform="translate(-7.5 -50.723)" fill="#ffbc85" fill-rule="evenodd"/></g><g transform="translate(1.862 3.255)"><path d="M60.86,140.645c-.007-.079.016-.169-.023-.235-7.475-12.738-16.306-35.268-17.061-36.394a1,1,0,0,1-.285.04H15.947c.98,6.5,1.582,11.967,1.887,16.985a131.041,131.041,0,0,1,.066,14.632c4.11,6.44,6.813,7.635,11.007,9.55h32.01v-3.3C60.917,141.466,60.9,141.042,60.86,140.645Z" transform="translate(-15.947 -104.016)" fill="#fde588" fill-rule="evenodd"/></g><g transform="translate(3.107 44.462)"><path d="M26.606,459.933A2.243,2.243,0,0,0,28.8,462.21H40.165l2.45-1.844L45.1,462.21h5.392l1.85-1.844L54.2,462.21h1.854l1.854-1.844,1.854,1.844h6.18a2.243,2.243,0,0,0,2.191-2.278v-3.049H26.606Z" transform="translate(-26.606 -456.884)" fill="#7e707d" fill-rule="evenodd"/></g><g transform="translate(3.107 34.912)"><path d="M27.314,375.1c-.149,3.059-.391,6.187-.708,9.55H38.321C37.166,379.7,32.948,375.1,27.314,375.1Z" transform="translate(-26.606 -375.101)" fill="#ffbc85" fill-rule="evenodd"/></g><g transform="translate(38.484 39.884)"><path d="M381.759,418.956V423h2.2l1.854-1.844L387.671,423h6.18a2.243,2.243,0,0,0,2.191-2.278v-3.049H381.7C381.739,418.075,381.759,418.5,381.759,418.956Z" transform="translate(-381.703 -417.678)" fill="#7e707d" fill-rule="evenodd"/></g><g transform="translate(21.212 9.145)"><path d="M249.27,90.248c-.95-1.8-1.357-5.518-1.116-10.573a104.731,104.731,0,0,1,2.321-16.535,1.042,1.042,0,0,1-.288.04H236.945v3.77a1.046,1.046,0,0,1-.755,1,117.065,117.065,0,0,0-1.933,11.725c-.189,1.712-.314,3.317-.387,4.81-.242,5.055.165,8.776,1.116,10.573,3.876,7.332,15.015.013,16.065,9.249v0c.01.076.017.152.023.232h14.34v-3.535C265.414,89.5,253.338,97.944,249.27,90.248Z" transform="translate(-233.802 -63.139)" fill="#fde588" fill-rule="evenodd"/></g><path d="M350.266,462.21H351.8a2.243,2.243,0,0,0,2.191-2.278v-3.049h-3.727v5.326Z" transform="translate(-313.806 -412.422)" fill="#6a5c69" fill-rule="evenodd"/><path d="M466.459,417.679v5.326h2.251a2.243,2.243,0,0,0,2.191-2.278v-3.049Z" transform="translate(-418.078 -377.795)" fill="#6a5c69" fill-rule="evenodd"/><g transform="translate(19.869 19.807)"><path d="M201.952,245.752c-.242,5.058.165,10.884,1.116,12.685,3.876,7.339,16.27,2.923,16.065,9.107l.079,2.863h3.727v-3.3c0-.457-.02-.881-.056-1.278l-.023-.235c-1.049-9.243-12.188-1.92-16.065-9.259-.95-1.8-1.357-5.525-1.116-10.583Z" transform="translate(-201.884 -245.752)" fill="#fdd76f" fill-rule="evenodd"/></g><g transform="translate(20.964 10.948)"><path d="M204.778,104.055a118.146,118.146,0,0,0-1.923,11.7c-.189,1.712-.314,3.32-.387,4.813h3.727c.073-1.493.2-3.1.387-4.813a117.273,117.273,0,0,1,1.933-11.739,1,1,0,0,1-.285.04h-3.453Z" transform="translate(-202.467 -104.015)" fill="#fdd76f" fill-rule="evenodd"/></g><g transform="translate(32.938 9.145)"><path d="M320.971,63.178a104.825,104.825,0,0,0-2.307,16.472.057.057,0,0,0,0,.023H323.1a104.732,104.732,0,0,1,2.321-16.535.012.012,0,0,0-.01,0,1.106,1.106,0,0,1-.278.036h-4.164Z" transform="translate(-318.66 -63.138)" fill="#fdd76f" fill-rule="evenodd"/></g><g transform="translate(31.089 18.353)"><path d="M318.413,204.734c-.242,5.055.907,11.186,1.857,12.983,4.072,7.7,15.4-.01,15.4,11.5v.381h4.443v-3.539c0-11.507-12.076-3.059-16.144-10.755-.775-1.463-1.188-4.2-1.185-7.9q0-1.266.069-2.671h-4.442Z" transform="translate(-318.381 -204.734)" fill="#fdd76f" fill-rule="evenodd"/></g><path d="M260.72,55.492h.2C260.832,55.465,260.728,55.468,260.72,55.492Z" transform="translate(-233.386 -47.223)"/><path d="M46.035,32.543c-2.83-.171-5.5-.333-6.927-2.793-.876-1.512-1.447-5.81-.426-13.337a.735.735,0,0,0-.684-.8.775.775,0,0,0-.877.625c-.214,1.576-.365,3.064-.457,4.45H25.808c.33-2.511.835-5.328,1.55-8.419a1.541,1.541,0,0,0,.774-1.311V8.58H38.518c-.32,1.418-.608,2.838-.858,4.233a.729.729,0,0,0,.65.825.863.863,0,0,0,.128.009.77.77,0,0,0,.775-.6c.278-1.557.607-3.145.974-4.727a1.54,1.54,0,0,0,.77-1.308V3.577a1.652,1.652,0,0,0-1.72-1.571H14.549a1.654,1.654,0,0,0-1.723,1.571V5.954H1.72A1.653,1.653,0,0,0,0,7.525v3.432a1.567,1.567,0,0,0,.968,1.411c2.3,14.15,2.155,22.3,1.04,33.135v.007c0,.01,0,.02,0,.03s0,.025,0,.038v2.5a2.678,2.678,0,0,0,2.755,2.587H14.968a.837.837,0,0,0,.473-.144l1.73-1.19,1.761,1.193a.837.837,0,0,0,.469.141h4.843a.826.826,0,0,0,.555-.21l1.107-1.008,1.11,1.008a.826.826,0,0,0,.555.209h1.665a.826.826,0,0,0,.555-.209l1.11-1.008,1.11,1.008a.826.826,0,0,0,.555.209h5.551a2.678,2.678,0,0,0,2.755-2.587V46.909h1.193a.826.826,0,0,0,.555-.209l1.11-1.008L44.84,46.7a.826.826,0,0,0,.555.209h5.551A2.678,2.678,0,0,0,53.7,44.323v-5.4c0-5.912-4.072-6.159-7.664-6.376ZM14.4,3.577a.145.145,0,0,1,.15-.134H39.237a.143.143,0,0,1,.147.134V7.009a.142.142,0,0,1-.114.13l-.012,0-.02,0H28.078a1.7,1.7,0,0,0-1.667-1.189H14.4Zm-2.083,7.514H1.72a.143.143,0,0,1-.147-.134V7.525a.143.143,0,0,1,.147-.134H26.411a.145.145,0,0,1,.147.134v3.432a.145.145,0,0,1-.147.134H15.9a.721.721,0,1,0,0,1.437h9.786a80.411,80.411,0,0,0-1.845,12.107h-10.2a5.026,5.026,0,0,0-2.924.549c-.8.562-1.138,1.524-1.138,3.219,0,.33-.093.521-.18.558-.141.06-.568-.015-1.169-.471L4.125,25.382c-.264-3.816-.757-7.982-1.54-12.854h9.732a.721.721,0,1,0,0-1.437Zm-8.143,27.4a9.666,9.666,0,0,1,8.1,6.364H3.653c.219-2.2.4-4.3.52-6.364ZM39.3,48.078a1.167,1.167,0,0,1-1.182,1.15H32.89l-1.435-1.3a.84.84,0,0,0-1.109,0l-1.435,1.3H27.9l-1.435-1.3a.84.84,0,0,0-1.11,0l-1.432,1.3H19.661l-2.024-1.371a.847.847,0,0,0-.942,0L14.7,49.228H4.759a1.167,1.167,0,0,1-1.182-1.15V46.3H39.3v1.782Zm0-3.219H13.918a11.45,11.45,0,0,0-3.5-5.249,10.679,10.679,0,0,0-6.164-2.552c.15-3.18.163-6.33-.008-9.721L7.229,29.6a3.435,3.435,0,0,0,2.058.819,1.981,1.981,0,0,0,.783-.154A1.892,1.892,0,0,0,11.155,28.4c0-1.151.172-1.832.526-2.081a4.034,4.034,0,0,1,1.964-.25H23.772c-.14,3.811.225,6.755,1.118,8.3,1.834,3.171,5.224,3.376,8.215,3.557,3.6.217,6.194.375,6.194,4.943v1.989Zm12.829-.536a1.167,1.167,0,0,1-1.182,1.15H45.719l-1.435-1.3a.84.84,0,0,0-1.109,0l-1.435,1.3h-.869v-2.6c0-.112,0-.222,0-.33h11.26Zm0-3.219h-11.4c-.753-4.2-4.325-4.417-7.518-4.611-2.831-.171-5.5-.333-6.928-2.794-.908-1.568-1.3-5.594-.646-11.575H36.59c-.142,3.855.24,6.763,1.128,8.3,1.833,3.169,5.223,3.374,8.214,3.555,3.6.217,6.195.375,6.195,4.942Z"/></g></g></svg>