<svg xmlns="http://www.w3.org/2000/svg" width="85" height="85" viewBox="0 0 85 85"><g transform="translate(-284.615 -4128)"><circle cx="42.5" cy="42.5" r="42.5" transform="translate(284.615 4128)" fill="#fff"/><path d="M42.5,5A37.511,37.511,0,0,0,27.9,77.055,37.511,37.511,0,0,0,57.1,7.945,37.261,37.261,0,0,0,42.5,5m0-5A42.5,42.5,0,1,1,0,42.5,42.5,42.5,0,0,1,42.5,0Z" transform="translate(284.615 4128)" fill="#a3314f"/><g transform="translate(298.615 4142)"><g transform="translate(0.548 0.548)"><path d="M106.5,384h13.365v13.475H106.5Z" transform="translate(-95.381 -342.481)" fill="#f7c9ab"/><path d="M283.5,384h13.365v13.475H283.5Z" transform="translate(-252.991 -342.481)" fill="#f7c9ab"/><path d="M106.5,384h13.365v6.135H106.5Z" transform="translate(-95.381 -342.481)" fill="#f3ab7d"/><path d="M283.5,384h13.365v6.135H283.5Z" transform="translate(-252.991 -342.481)" fill="#f3ab7d"/><path d="M26.9,9.382a1.566,1.566,0,0,0-1.567,1.567v9L24.565,8.692a1.735,1.735,0,0,0-1.731-1.61h-.066a1.735,1.735,0,0,0-1.731,1.731V19.953L20.523,6.512A1.553,1.553,0,0,0,18.967,5h-.011A1.57,1.57,0,0,0,17.39,6.512l-.5,13.442V8.812a1.727,1.727,0,0,0-3.451-.11l-.822,13.683V27.03L8.155,21.936A1.8,1.8,0,1,0,5.526,24.4a6.768,6.768,0,0,1,1.391,2.016,41.812,41.812,0,0,0,1.972,3.812L12.011,35.5a8.5,8.5,0,0,0,1.457,1.84,8.6,8.6,0,0,1,2.651,6.19v6.277H29.484V34q0-11.618-1.03-23.192A1.562,1.562,0,0,0,26.9,9.382Z" transform="translate(-5 -5)" fill="#9cd3fc"/><path d="M103.385,387.286H89.143a1.643,1.643,0,1,1,0-3.286h14.241a1.643,1.643,0,1,1,0,3.286Z" transform="translate(-78.462 -342.481)" fill="#6abdfb"/><path d="M83.264,187.016l-.3-.613a9.374,9.374,0,0,0-8.468-5.335V178a8.571,8.571,0,0,1,8.446,7.121Z" transform="translate(-66.886 -159.048)" fill="#6abdfb"/><path d="M286.085,9.382a1.566,1.566,0,0,1,1.567,1.567v9l.767-11.262a1.725,1.725,0,0,1,1.72-1.61h.066a1.735,1.735,0,0,1,1.731,1.731V19.953l.515-13.442A1.57,1.57,0,0,1,294.017,5h.011a1.57,1.57,0,0,1,1.567,1.512l.5,13.442V8.812a1.727,1.727,0,0,1,3.451-.11l.822,13.683V27.03l4.459-5.094a1.8,1.8,0,1,1,2.629,2.465,6.767,6.767,0,0,0-1.391,2.016,41.809,41.809,0,0,1-1.972,3.812L300.973,35.5a8.5,8.5,0,0,1-1.457,1.84,8.6,8.6,0,0,0-2.651,6.19v6.277H283.5V34q0-11.618,1.03-23.192a1.562,1.562,0,0,1,1.556-1.424Z" transform="translate(-252.991 -5)" fill="#9cd3fc"/><g transform="translate(28.428 18.952)"><path d="M266.143,387.286h14.241a1.643,1.643,0,0,0,0-3.286H266.143a1.643,1.643,0,1,0,0,3.286Z" transform="translate(-264.5 -361.433)" fill="#6abdfb"/><path d="M357.5,187.016l.3-.613a9.374,9.374,0,0,1,8.468-5.335V178a8.571,8.571,0,0,0-8.446,7.121Z" transform="translate(-347.312 -178)" fill="#6abdfb"/></g></g><g transform="translate(0 0)"><g transform="translate(7.614)"><path d="M87.356,45.9H73.115a2.191,2.191,0,1,1,0-4.382H84.727v1.1H73.115a1.1,1.1,0,1,0,0,2.191H87.356a1.1,1.1,0,1,0,0-2.191h-.438a.542.542,0,0,1-.548-.548V29.545c0-7.69-.351-15.479-1.03-23.137A1.021,1.021,0,0,0,83.3,6.5v9a.545.545,0,0,1-.526.548.555.555,0,0,1-.57-.515L81.441,4.272a1.182,1.182,0,0,0-1.172-1.1H80.2A1.185,1.185,0,0,0,79.02,4.36V15.5a.548.548,0,0,1-1.1.022l-.5-13.442a1.025,1.025,0,0,0-2.049,0l-.5,13.442a.545.545,0,0,1-.548.526h-.011a.554.554,0,0,1-.537-.548V4.36a1.185,1.185,0,0,0-1.183-1.183,1.168,1.168,0,0,0-1.172,1.106L70.6,17.944v2.268H69.5V17.9l.822-13.683a2.282,2.282,0,0,1,3.933-1.424l.033-.756a2.116,2.116,0,0,1,4.229,0l.033.778a2.267,2.267,0,0,1,1.665-.734h.066a2.275,2.275,0,0,1,2.268,2.125l.077,1.052a2.121,2.121,0,0,1,1.709-.876,2.1,2.1,0,0,1,2.1,1.928c.69,7.69,1.03,15.512,1.03,23.235V41.519a2.192,2.192,0,0,1-.11,4.382Z" transform="translate(-69.5 0)" fill="#213762"/></g><g transform="translate(0 16.3)"><path d="M12.215,174.555h-1.1v-2.98a8.03,8.03,0,0,0-2.476-5.8,9.29,9.29,0,0,1-1.556-1.961l-3.111-5.291a39.135,39.135,0,0,1-2-3.867A6.37,6.37,0,0,0,.69,152.81a2.356,2.356,0,0,1,1.742-4.02,2.376,2.376,0,0,1,1.687.8l4.294,4.919a9.951,9.951,0,0,1,8.709,5.642l.3.613-.986.471-.3-.613A8.87,8.87,0,0,0,8.172,155.6H8.161a.566.566,0,0,1-.416-.186l-4.459-5.094a1.233,1.233,0,0,0-.9-.427,1.28,1.28,0,0,0-.931.362,1.243,1.243,0,0,0,0,1.775,7.113,7.113,0,0,1,1.5,2.18,40.676,40.676,0,0,0,1.95,3.758l3.111,5.291a8.011,8.011,0,0,0,1.369,1.731,9.184,9.184,0,0,1,2.815,6.595v2.969Z" transform="translate(0 -148.788)" fill="#213762"/></g><g transform="translate(11.119 44.806)"><path d="M115.413,420.284H102.048a.542.542,0,0,1-.548-.548V409.548a.542.542,0,0,1,.548-.548h13.365a.542.542,0,0,1,.548.548v10.188A.542.542,0,0,1,115.413,420.284Zm-12.817-1.1h12.269V410.1H102.6Z" transform="translate(-101.5 -409)" fill="#213762"/></g><g transform="translate(30.509)"><path d="M292.413,42.615H279.048a.542.542,0,0,1-.548-.548V29.545c0-7.723.351-15.545,1.03-23.235a2.109,2.109,0,0,1,3.812-1.052l.077-1.052a2.275,2.275,0,0,1,2.268-2.125h.066a2.267,2.267,0,0,1,1.665.734l.033-.778a2.121,2.121,0,0,1,4.24,0l.033.756a2.273,2.273,0,0,1,3.922,1.424l.822,13.683v3.221l3.506-4a2.346,2.346,0,0,1,3.429-.11,2.345,2.345,0,0,1,.69,1.665,2.318,2.318,0,0,1-.69,1.665,6.37,6.37,0,0,0-1.282,1.851,40.4,40.4,0,0,1-2,3.867l-3.122,5.269a9.291,9.291,0,0,1-1.556,1.961,8.03,8.03,0,0,0-2.476,5.8v2.98A.549.549,0,0,1,292.413,42.615Zm-12.817-1.1h12.269V39.087a9.2,9.2,0,0,1,2.815-6.595,8.012,8.012,0,0,0,1.369-1.731l3.111-5.291a40.674,40.674,0,0,0,1.95-3.758,7.665,7.665,0,0,1,1.5-2.18,1.243,1.243,0,0,0,0-1.775,1.2,1.2,0,0,0-.931-.362,1.233,1.233,0,0,0-.9.427l-4.459,5.094a.548.548,0,0,1-.6.153.534.534,0,0,1-.351-.515V17.933l-.822-13.65a1.179,1.179,0,0,0-2.355.077V15.5a.548.548,0,0,1-1.1.022l-.5-13.442a1.025,1.025,0,0,0-2.049,0l-.515,13.442a.545.545,0,0,1-.548.526h-.011a.554.554,0,0,1-.537-.548V4.36a1.185,1.185,0,0,0-1.183-1.183h-.066a1.174,1.174,0,0,0-1.172,1.1l-.767,11.262a.555.555,0,0,1-.57.515.545.545,0,0,1-.526-.548v-9a1.021,1.021,0,0,0-2.038-.088c-.679,7.657-1.03,15.446-1.03,23.137V41.519Z" transform="translate(-278.5 0)" fill="#213762"/></g><g transform="translate(28.428 41.519)"><path d="M275.932,383.382H261.691a2.191,2.191,0,1,1,0-4.382h14.241a2.191,2.191,0,1,1,0,4.382ZM261.691,380.1a1.1,1.1,0,0,0,0,2.191h14.241a1.1,1.1,0,1,0,0-2.191Z" transform="translate(-259.5 -379)" fill="#213762"/></g><g transform="translate(38.671 22.019)"><path d="M353.986,207.737l-.986-.471.3-.613A10,10,0,0,1,362.257,201v1.1a8.877,8.877,0,0,0-7.975,5.028Z" transform="translate(-353 -201)" fill="#213762"/></g><g transform="translate(30.509 45.353)"><path d="M292.413,424.736H279.048a.542.542,0,0,1-.548-.548V414h1.1v9.64h12.269v-7.449h1.1v8A.549.549,0,0,1,292.413,424.736Z" transform="translate(-278.5 -414)" fill="#213762"/></g></g></g></g></svg>