<svg xmlns="http://www.w3.org/2000/svg" width="85" height="85" viewBox="0 0 85 85"><g transform="translate(-284.615 -4282)"><circle cx="42.5" cy="42.5" r="42.5" transform="translate(284.615 4282)" fill="#fff"/><path d="M42.5,5A37.511,37.511,0,0,0,27.9,77.055,37.511,37.511,0,0,0,57.1,7.945,37.261,37.261,0,0,0,42.5,5m0-5A42.5,42.5,0,1,1,0,42.5,42.5,42.5,0,0,1,42.5,0Z" transform="translate(284.615 4282)" fill="#a3314f"/><g transform="translate(238.615 4200.917)"><path d="M208.756,167.111,233.066,166c8.279,16.232-4.693,37.8-26.848,23.32C210.027,184.46,211.251,172.66,208.756,167.111Z" transform="translate(-124.882 -54.591)" fill="#c9eeff"/><g transform="translate(60 102.083)"><path d="M230.752,145.927l.568-.051a.833.833,0,0,0-.151-1.658l-.568.051a.833.833,0,1,0,.151,1.658Z" transform="translate(-205.055 -138.065)" fill="#161616"/><path d="M209.226,303.1a.832.832,0,0,0,.543,1.048c6.409,2.037,19.2,7.414,25.131,3.96a.828.828,0,0,0,.3-1.139.843.843,0,0,0-1.149-.3c-5.221,3.039-17.934-2.256-23.768-4.11a.842.842,0,0,0-1.057.539Z" transform="translate(-187.417 -273.272)" fill="#161616"/><path d="M248.373,108.317c-5.164-5.63-18.62-10.455-19.3-.383q-1.182.09-2.367.186a.835.835,0,1,0,.131,1.665c5.975-.482,14.621-1.359,20.426-.186a16.933,16.933,0,0,1,3.726,11.3c-7.861-2.008-20.17.07-28.553.808a.832.832,0,1,0,.145,1.658c8.015-.705,21.023-2.856,28.314-.764a18.672,18.672,0,0,1-1.315,5.358,12.631,12.631,0,0,1-6.264,2.687,142.726,142.726,0,0,1-21.607-3.762.834.834,0,1,0-.4,1.619c6.108,1.488,15.889,3.814,21.979,3.814a12.022,12.022,0,0,0,6.028-2.328,5.1,5.1,0,0,1-.6,1.5.829.829,0,0,0,.345,1.126.844.844,0,0,0,1.136-.343,5.783,5.783,0,0,0,.876-3.544c2.718-6.361,2.058-15.149-2.707-20.419Zm-14.447-.709c.806-1.427,3.725-.6,4.919-.191-1.642.032-3.279.1-4.919.191Zm8.82-.158c-2.538-1.753-9.559-4.266-10.645.269q-.662.043-1.328.091c.712-7.259,11.2-3.148,14.709-.164-.857-.094-1.772-.157-2.736-.2Z" transform="translate(-197.226 -102.083)" fill="#161616"/><path d="M401.562,320.088a.845.845,0,0,0-1.142.329l-.312.564a.831.831,0,0,0,.333,1.133.845.845,0,0,0,1.142-.329l.312-.564A.831.831,0,0,0,401.562,320.088Z" transform="translate(-350.392 -288.189)" fill="#161616"/><path d="M108.972,173.209a.845.845,0,0,0-1.175.173,16.2,16.2,0,0,1-1.588,1.833c-8.168,2.834-17.511-.679-24.53-4.914a.845.845,0,0,0-1.155.278.83.83,0,0,0,.28,1.146c6.341,3.827,14.3,6.958,21.857,6.015-8.08,3.875-18.626-1.886-25.223-6.435,5.935-9.66,5.124-15.32,3.609-25.392.41-.033.838-.067,1.262-.1a.835.835,0,1,0-.125-1.665c-1.624.122-3.249.281-4.877.341a.837.837,0,0,0-.806.754,5.6,5.6,0,0,0-.029.73c-4.1-1.574-14.8-5.208-16.3,1.648-1.548,7.07,7.894,18.3,13.172,21.931a.829.829,0,0,0,.246,1.03c9.736,7.344,26.075,16.5,35.56,3.793a.829.829,0,0,0-.174-1.166Zm-33.755-7.525c-3.185-2.565-11.274-11.744-10.414-16.218.732-3.806,10.723.584,12.366,1.3C77.885,156.8,77.723,160.1,75.217,165.684ZM74.1,168.045c-4.6-3.233-13.64-13.874-12.283-20.073,1.2-5.488,12.1-1.235,14.981-.077q.067.488.129.953c-2.907-1.221-12.7-5.257-13.775.31-1.03,5.355,7.51,15.112,11.339,18.084q-.189.393-.392.8Zm1.063,1.629c5.19-10.259,4.31-12.959,3.01-23.557.414-.021.8-.046,1.192-.074,1.462,9.718,2.267,15.166-3.3,24.29Q75.6,170,75.161,169.674Z" transform="translate(-60 -137.537)" fill="#161616"/></g></g></g></svg>