<svg xmlns="http://www.w3.org/2000/svg" width="85" height="85" viewBox="0 0 85 85"><g transform="translate(-284.615 -4435)"><circle cx="42.5" cy="42.5" r="42.5" transform="translate(284.615 4435)" fill="#fff"/><path d="M42.5,5A37.511,37.511,0,0,0,27.9,77.055,37.511,37.511,0,0,0,57.1,7.945,37.261,37.261,0,0,0,42.5,5m0-5A42.5,42.5,0,1,1,0,42.5,42.5,42.5,0,0,1,42.5,0Z" transform="translate(284.615 4435)" fill="#a3314f"/><g transform="translate(297.615 4394.499)"><g transform="translate(0.859 61.36)"><g transform="translate(35.869 0)"><path d="M322.328,108.423a1.792,1.792,0,0,1-.422-3.532l9.369-2.28a8.831,8.831,0,0,0,6.759-8.6V74.017a2.434,2.434,0,0,0-4.813-.52l-1.724,7.88a1.791,1.791,0,0,1-3.5-.766l1.724-7.88a6.017,6.017,0,0,1,11.9,1.286V94.008a12.4,12.4,0,0,1-9.495,12.083l-9.369,2.28A1.786,1.786,0,0,1,322.328,108.423Z" transform="translate(-320.538 -68)" fill="#42c3fc"/></g><g transform="translate(0 0)"><path d="M26.789,108.423a1.792,1.792,0,0,0,.422-3.532l-9.369-2.28a8.831,8.831,0,0,1-6.759-8.6V74.017A2.434,2.434,0,0,1,15.9,73.5l1.724,7.88a1.791,1.791,0,0,0,3.5-.766L19.4,72.731A6.017,6.017,0,0,0,7.5,74.017V94.009a12.4,12.4,0,0,0,9.495,12.083l9.369,2.28A1.793,1.793,0,0,0,26.789,108.423Z" transform="translate(-7.5 -68)" fill="#42c3fc"/></g><g transform="translate(35.869 32.462)"><path d="M331.274,353.451l-9.369,2.28a1.791,1.791,0,1,0,.847,3.481l9.369-2.28c.085-.021.168-.045.253-.067a19.481,19.481,0,0,0,2.873-5.563A8.843,8.843,0,0,1,331.274,353.451Z" transform="translate(-320.537 -351.302)" fill="#1aa9e8"/></g><g transform="translate(6.369 32.462)"><path d="M75.579,359.214a1.791,1.791,0,1,0,.847-3.481l-9.369-2.28a8.845,8.845,0,0,1-3.973-2.149,19.483,19.483,0,0,0,2.873,5.563c.084.022.168.047.253.067Z" transform="translate(-63.085 -351.304)" fill="#1aa9e8"/></g><g transform="translate(43.286 8.512)"><path d="M386.682,148.519a1.791,1.791,0,0,0,2.133-1.367l.806-3.682c-.1-.039-.2-.077-.3-.111l-3.113-1.072-.9,4.1A1.791,1.791,0,0,0,386.682,148.519Z" transform="translate(-385.273 -142.287)" fill="#1aa9e8"/></g><g transform="translate(9.314 8.512)"><path d="M88.787,143.47l.806,3.682a1.791,1.791,0,0,0,3.5-.766l-.9-4.1-3.113,1.072C88.983,143.393,88.884,143.43,88.787,143.47Z" transform="translate(-88.787 -142.286)" fill="#1aa9e8"/></g><g transform="translate(8.278 5.092)"><path d="M79.741,133.774V122.816a3.359,3.359,0,0,1,2.265-3.176l4.075-1.4a14.267,14.267,0,0,0,3.268-1.619l2.673-1.782a14.269,14.269,0,0,1,15.83,0l2.673,1.782a14.269,14.269,0,0,0,3.268,1.619l4.075,1.4a3.359,3.359,0,0,1,2.265,3.176v10.958a16.657,16.657,0,0,1-16.657,16.657H96.4a16.657,16.657,0,0,1-16.657-16.657Z" transform="translate(-79.741 -112.439)" fill="#e9efff"/></g><g transform="translate(8.278 11.923)"><path d="M83.041,186.558v-14a3.351,3.351,0,0,1,.038-.5l-1.073.37a3.359,3.359,0,0,0-2.265,3.176v10.958A16.657,16.657,0,0,0,96.4,203.215h3.3A16.657,16.657,0,0,1,83.041,186.558Z" transform="translate(-79.741 -172.055)" fill="#d3dcfb"/></g><g transform="translate(17.749 22.695)"><path d="M182.085,266.067H164.17a1.767,1.767,0,1,0,0,3.535h17.915a1.767,1.767,0,1,0,0-3.535Z" transform="translate(-162.403 -266.067)" fill="#bac5e2"/></g><g transform="translate(17.749 15.623)"><path d="M182.085,204.344H164.17a1.767,1.767,0,1,0,0,3.535h17.915a1.767,1.767,0,1,0,0-3.535Z" transform="translate(-162.403 -204.344)" fill="#bac5e2"/></g><g transform="translate(17.749 29.768)"><path d="M182.085,327.791H164.17a1.767,1.767,0,1,0,0,3.535h17.915a1.767,1.767,0,1,0,0-3.535Z" transform="translate(-162.403 -327.791)" fill="#bac5e2"/></g></g><g transform="translate(0 60.501)"><path d="M57.807,80.3a.859.859,0,0,0,.859-.859V67.378a6.877,6.877,0,0,0-13.595-1.47l-1.237,5.655-.366-.126A13.423,13.423,0,0,1,40.4,69.916l-2.673-1.782a15.088,15.088,0,0,0-16.783,0l-2.673,1.782A13.413,13.413,0,0,1,15.2,71.437l-.366.126-1.237-5.655A6.877,6.877,0,0,0,0,67.378V87.369a13.262,13.262,0,0,0,10.151,12.918l4.661,1.134A17.432,17.432,0,0,0,25.794,105.3h7.078a17.432,17.432,0,0,0,10.982-3.881l4.661-1.134A13.262,13.262,0,0,0,58.667,87.369V83.117a.859.859,0,1,0-1.719,0v4.251a11.548,11.548,0,0,1-8.839,11.248l-1.848.45a17.6,17.6,0,0,0,1.661-2.329,9.686,9.686,0,0,0,7.161-9.369V67.378a3.294,3.294,0,0,0-6.512-.7l-.741,3.388a.859.859,0,1,0,1.679.367l.741-3.388a1.575,1.575,0,0,1,3.114.337V87.369a7.97,7.97,0,0,1-4.3,7.089,17.419,17.419,0,0,0,1.321-6.671V76.829a4.22,4.22,0,0,0-2.845-3.988l-2.073-.714,1.28-5.851a5.158,5.158,0,0,1,10.2,1.1v12.06a.859.859,0,0,0,.859.859ZM48.67,76.829V87.786a15.816,15.816,0,0,1-15.8,15.8H25.794A15.816,15.816,0,0,1,10,87.786v-4.38a.859.859,0,1,0-1.719,0v4.38A17.421,17.421,0,0,0,9.6,94.456a7.969,7.969,0,0,1-4.3-7.087V67.378a1.575,1.575,0,0,1,3.114-.337l.774,3.537a.859.859,0,1,0,1.679-.367l-.774-3.537a3.294,3.294,0,0,0-6.512.7V87.369a9.686,9.686,0,0,0,7.161,9.369A17.6,17.6,0,0,0,12.4,99.067l-1.847-.45A11.548,11.548,0,0,1,1.719,87.369V67.378a5.158,5.158,0,0,1,10.2-1.1l1.28,5.851-2.073.714a4.22,4.22,0,0,0-2.845,3.988v3.112a.859.859,0,1,0,1.719,0V76.829a2.5,2.5,0,0,1,1.686-2.363l4.075-1.4a15.128,15.128,0,0,0,3.465-1.716L21.9,69.564a13.375,13.375,0,0,1,14.877,0l2.673,1.782a15.131,15.131,0,0,0,3.465,1.716l4.075,1.4A2.5,2.5,0,0,1,48.67,76.829Z" transform="translate(0 -60.501)"/><path d="M175.443,258.567H157.529a2.627,2.627,0,1,0,0,5.254h17.915a2.627,2.627,0,0,0,0-5.254Zm0,3.535H157.529a.908.908,0,1,1,0-1.816h17.915a.908.908,0,0,1,0,1.816Z" transform="translate(-137.153 -235.872)"/><path d="M175.443,196.844H157.529a2.627,2.627,0,1,0,0,5.254h17.915a2.627,2.627,0,0,0,0-5.254Zm0,3.535H157.529a.908.908,0,1,1,0-1.816h17.915a.908.908,0,0,1,0,1.816Z" transform="translate(-137.153 -181.221)"/><path d="M175.443,320.291H157.529a2.627,2.627,0,1,0,0,5.254h17.915a2.627,2.627,0,0,0,0-5.254Zm0,3.535H157.529a.908.908,0,1,1,0-1.816h17.915a.908.908,0,0,1,0,1.816Z" transform="translate(-137.153 -290.523)"/></g></g></g></svg>