<svg xmlns="http://www.w3.org/2000/svg" width="85" height="85" viewBox="0 0 85 85"><g transform="translate(-284.615 -4595)"><circle cx="42.5" cy="42.5" r="42.5" transform="translate(284.615 4595)" fill="#fff"/><path d="M42.5,5A37.511,37.511,0,0,0,27.9,77.055,37.511,37.511,0,0,0,57.1,7.945,37.261,37.261,0,0,0,42.5,5m0-5A42.5,42.5,0,1,1,0,42.5,42.5,42.5,0,0,1,42.5,0Z" transform="translate(284.615 4595)" fill="#a3314f"/><g transform="translate(297.724 4607)"><path d="M11.93,12.06a10.358,10.358,0,0,0-3.78,4.52L2.81,13.16a1.993,1.993,0,0,1-.52-2.88l.7-.93A1.987,1.987,0,0,1,5.5,8.77Z" fill="#607d8b"/><path d="M19.43,54.8a1.771,1.771,0,0,1-.76,1.1l-4.84,2.89c1.71-1.03.88-5.58-1.86-10.16S5.61,41.17,3.9,42.2l4.84-2.9c.93-.56,2.4.03,4,1.4v.01a18.813,18.813,0,0,1,3.08,3.5v.01c.35.48.67.99.99,1.52,2.17,3.61,3.14,7.2,2.62,9.06Z" fill="#7f8e94"/><path d="M13.83,58.79c-1.72,1.03-5.34-1.85-8.08-6.43S2.18,43.22,3.9,42.2s5.33,1.85,8.07,6.43,3.57,9.13,1.86,10.16Z" fill="#37474f"/><path d="M45.26,40.7v.01a18.813,18.813,0,0,0-3.08,3.5c-.04-.07-.09-.13-.13-.2l-1.54-2.37c4.77-10.91,6.89-19.77,5.7-23.37l-.1-.26a6.419,6.419,0,0,0-2.36-2.69,19.5,19.5,0,0,0-5.35-2.51,30.99,30.99,0,0,0-18.8,0,19.5,19.5,0,0,0-5.35,2.51,6.49,6.49,0,0,0-2.36,2.69l-.12.33c-1.16,3.51.95,12.37,5.72,23.3v.01l-1.54,2.36c-.04.07-.09.13-.13.2a18.813,18.813,0,0,0-3.08-3.5V40.7C9.77,33.47,6.11,22.66,8,17l.15-.42a10.358,10.358,0,0,1,3.78-4.52c.39-.28.8-.54,1.23-.79A26.1,26.1,0,0,1,18.38,9,34.851,34.851,0,0,1,39.62,9a26.1,26.1,0,0,1,5.22,2.27c.43.25.84.51,1.23.79a10.358,10.358,0,0,1,3.78,4.52L50,17c1.89,5.66-1.77,16.47-4.74,23.7Z" fill="#ffdc00"/><path d="M50,17l-.15-.42a10.358,10.358,0,0,0-3.78-4.52c-.39-.28-.8-.54-1.23-.79A26.1,26.1,0,0,0,39.62,9,34.807,34.807,0,0,0,27.5,7.4,34.728,34.728,0,0,1,36.62,9a26.1,26.1,0,0,1,5.22,2.27c.43.25.84.51,1.23.79a10.358,10.358,0,0,1,3.78,4.52L47,17c1.89,5.66-1.77,16.47-4.74,23.7v.01a15.357,15.357,0,0,0-1.433,1.418L42.05,44.01c.04.07.09.13.13.2a18.813,18.813,0,0,1,3.08-3.5V40.7C48.23,33.47,51.89,22.66,50,17Z" fill="#fec108"/><path d="M42.18,44.21v.01c-.35.48-.67.99-.99,1.52-2.17,3.61-3.14,7.2-2.62,9.06A13.783,13.783,0,0,1,29,59a13.783,13.783,0,0,1-9.57-4.2c.52-1.86-.45-5.45-2.62-9.06-.32-.53-.64-1.04-.99-1.52v-.01c.04-.07.09-.13.13-.2l1.54-2.36v-.01l5.65-8.65a7,7,0,0,1,11.72,0l5.65,8.65,1.54,2.37c.04.07.09.13.13.2Z" fill="#607d8b"/><path d="M42.05,44.01l-1.54-2.37-5.65-8.65a6.97,6.97,0,0,0-7.36-3,6.91,6.91,0,0,1,4.36,3l5.65,8.65,1.54,2.37c.04.07.09.13.13.2v.01c-.35.48-.67.99-.99,1.52-2.17,3.61-3.14,7.2-2.62,9.06a14.249,14.249,0,0,1-8.07,4.106A12.24,12.24,0,0,0,29,59a13.783,13.783,0,0,0,9.57-4.2c-.52-1.86.45-5.45,2.62-9.06.32-.53.64-1.04.99-1.52v-.01C42.14,44.14,42.09,44.08,42.05,44.01Z" fill="#37474f"/><path d="M40.51,41.64l-5.65-8.65a7,7,0,0,0-11.72,0l-5.65,8.65c-4.77-10.93-6.88-19.79-5.72-23.3l.12-.33a6.49,6.49,0,0,1,2.36-2.69,19.5,19.5,0,0,1,5.35-2.51,30.99,30.99,0,0,1,18.8,0,19.5,19.5,0,0,1,5.35,2.51,6.419,6.419,0,0,1,2.36,2.69l.1.26c1.19,3.6-.93,12.46-5.7,23.37Z" fill="#00bcd4"/><path d="M20.14,32.99l-3.825,5.856c.374.917.76,1.844,1.175,2.794l5.65-8.65a6.91,6.91,0,0,1,4.36-3,6.97,6.97,0,0,0-7.36,3Z" fill="#00838f"/><path d="M46.21,18.27l-.1-.26a6.419,6.419,0,0,0-2.36-2.69,19.5,19.5,0,0,0-5.35-2.51A30.916,30.916,0,0,0,29,11.35c-.5,0-1,.033-1.5.058a30.811,30.811,0,0,1,7.9,1.4,19.5,19.5,0,0,1,5.35,2.51,6.419,6.419,0,0,1,2.36,2.69l.1.26c1.087,3.287-.594,10.965-4.523,20.578L40.51,41.64c4.77-10.91,6.89-19.77,5.7-23.37Z" fill="#00838f"/><path d="M55.19,13.16l-5.34,3.42a10.358,10.358,0,0,0-3.78-4.52L52.5,8.77a1.987,1.987,0,0,1,2.51.58l.7.93a1.993,1.993,0,0,1-.52,2.88Z" fill="#607d8b"/><path d="M45,11l-.16.27A26.1,26.1,0,0,0,39.62,9,34.851,34.851,0,0,0,18.38,9a26.1,26.1,0,0,0-5.22,2.27L13,11S18,1,29,1,45,11,45,11Z" fill="#fec108"/><path d="M54.1,42.2c-1.71-1.03-5.33,1.85-8.07,6.43s-3.57,9.13-1.86,10.16L39.33,55.9a1.771,1.771,0,0,1-.76-1.1c-.52-1.86.45-5.45,2.62-9.06.32-.53.64-1.04.99-1.52v-.01a18.813,18.813,0,0,1,3.08-3.5V40.7c1.6-1.37,3.07-1.96,4-1.4Z" fill="#7f8e94"/><path d="M52.25,52.36c-2.74,4.58-6.36,7.46-8.08,6.43s-.88-5.58,1.86-10.16,6.36-7.46,8.07-6.43S54.99,47.77,52.25,52.36Z" fill="#37474f"/><path d="M34,44a1,1,0,0,1-1-1V42a4,4,0,0,0-8,0v1a1,1,0,0,1-2,0V42a6,6,0,0,1,12,0v1A1,1,0,0,1,34,44Z" fill="#f5f5f5"/><path d="M16,26a1,1,0,0,1-.847-1.53l5-8a1,1,0,0,1,1.7,1.06l-5,8A1,1,0,0,1,16,26Z" fill="#f5f5f5"/><path d="M18,32a1,1,0,0,1-.847-1.53l10-16a1,1,0,1,1,1.7,1.06l-10,16A1,1,0,0,1,18,32Z" fill="#f5f5f5"/><path d="M47.035,17.629a7.389,7.389,0,0,0-2.7-3.124,20.418,20.418,0,0,0-5.625-2.647,32.139,32.139,0,0,0-19.408,0A20.441,20.441,0,0,0,13.671,14.5a7.45,7.45,0,0,0-2.721,3.164l-.13.357c-1.087,3.282.33,10.392,3.888,19.508a1,1,0,1,0,1.863-.726C12.638,26.725,12,20.819,12.709,18.682l.1-.292a5.6,5.6,0,0,1,2.016-2.255,18.471,18.471,0,0,1,5.07-2.373,30.127,30.127,0,0,1,18.194,0,18.474,18.474,0,0,1,5.077,2.375,5.461,5.461,0,0,1,2,2.229l.084.216c.928,2.813-.54,9.8-3.832,18.223a1,1,0,0,0,1.863.728c3.559-9.11,4.968-16.245,3.852-19.621Z"/><path d="M33.44,52.542a7.518,7.518,0,0,1-8.88,0A1,1,0,0,0,23.44,54.2a9.483,9.483,0,0,0,11.12,0,1,1,0,1,0-1.12-1.657Z"/><path d="M55.812,8.748a3,3,0,0,0-3.768-.87l-5.919,3.03c-.053-.035-.108-.069-.162-.1a.981.981,0,0,0-.068-.252C45.679,10.122,40.486,0,29,0S12.321,10.122,12.1,10.553a.974.974,0,0,0-.068.251l-.162.1L5.956,7.878a3,3,0,0,0-3.768.871l-.7.929A3,3,0,0,0,2.274,14l4.692,3.005c-1.53,5.222.945,13.965,3.749,21.294a2.9,2.9,0,0,0-2.492.138l-4.841,2.9c-.86.514-1.768,1.761-1.216,4.785A21.216,21.216,0,0,0,4.891,52.87c2.3,3.838,5.589,7.137,8.128,7.137a2.55,2.55,0,0,0,1.067-.25,1,1,0,0,0,.254-.107l4.841-2.9a2.444,2.444,0,0,0,.5-.4A14.223,14.223,0,0,0,29,60a14.223,14.223,0,0,0,9.324-3.647,2.444,2.444,0,0,0,.5.4l4.841,2.9a1.013,1.013,0,0,0,.255.108,2.56,2.56,0,0,0,1.066.249c2.539,0,5.831-3.3,8.128-7.137a21.216,21.216,0,0,0,2.725-6.747c.552-3.024-.356-4.271-1.216-4.785l-4.841-2.9a2.9,2.9,0,0,0-2.493-.136c2.8-7.321,5.273-16.056,3.749-21.3L55.726,14a3,3,0,0,0,.782-4.326ZM29,2c6.854,0,11.272,4.193,13.463,6.992-.8-.335-1.636-.656-2.537-.944a36.085,36.085,0,0,0-21.852,0c-.9.288-1.735.609-2.537.944C17.728,6.193,22.146,2,29,2ZM2.908,11.655a.994.994,0,0,1,.184-.778l.7-.928a1,1,0,0,1,1.256-.291L10.1,12.245a11.067,11.067,0,0,0-2.352,2.888L3.353,12.319a.987.987,0,0,1-.445-.664Zm3.7,40.187a19.177,19.177,0,0,1-2.474-6.079c-.289-1.584-.07-2.5.276-2.709s1.26.034,2.518,1.037a19.151,19.151,0,0,1,4.187,5.055,19.144,19.144,0,0,1,2.475,6.078c.289,1.585.069,2.5-.276,2.71-.761.455-3.825-1.276-6.707-6.092Zm11.546,3.2L15.711,56.5a9.318,9.318,0,0,0-.155-1.634,21.2,21.2,0,0,0-2.725-6.747,21.229,21.229,0,0,0-4.657-5.591,9.312,9.312,0,0,0-1.366-.909L9.25,40.158c.673-.4,3.146.91,5.7,4.55l.011.014c.33.471.66.975.989,1.524,2.886,4.817,2.968,8.334,2.2,8.792ZM29,58a12.512,12.512,0,0,1-8.487-3.575c.31-2.415-.937-6.02-2.841-9.2-.208-.348-.427-.689-.65-1.025l6.953-10.66a6,6,0,0,1,10.05,0L40.979,44.2c-.224.337-.443.678-.651,1.027-1.9,3.183-3.151,6.788-2.841,9.2A12.512,12.512,0,0,1,29,58ZM53.867,45.763a19.177,19.177,0,0,1-2.474,6.079c-2.882,4.817-5.94,6.547-6.7,6.092-.346-.207-.566-1.125-.277-2.71a19.144,19.144,0,0,1,2.475-6.078,19.151,19.151,0,0,1,4.187-5.055,4.206,4.206,0,0,1,2.219-1.1.576.576,0,0,1,.3.068C53.937,43.261,54.156,44.179,53.867,45.763ZM48.75,40.157l2.442,1.461a9.312,9.312,0,0,0-1.366.909,21.229,21.229,0,0,0-4.657,5.591,21.2,21.2,0,0,0-2.725,6.747,9.318,9.318,0,0,0-.155,1.634l-2.442-1.461c-.765-.458-.683-3.975,2.2-8.789.329-.55.66-1.054.99-1.525l.01-.013c2.553-3.644,5.028-4.954,5.7-4.554Zm-4.331-.045a18.951,18.951,0,0,0-2.183,2.352L35.7,32.444a8,8,0,0,0-13.4,0l-6.534,10.02a19.084,19.084,0,0,0-2.185-2.356C9.236,29.48,7.589,21.39,8.942,17.335l.137-.385a9.361,9.361,0,0,1,3.431-4.075,22.5,22.5,0,0,1,6.174-2.923,34.092,34.092,0,0,1,20.632,0,22.523,22.523,0,0,1,6.175,2.923,9.347,9.347,0,0,1,3.418,4.046l.143.4c1.359,4.069-.288,12.161-4.633,22.791ZM54.647,12.319l-4.39,2.812A11.089,11.089,0,0,0,47.9,12.245l5.052-2.587a1,1,0,0,1,1.256.29l.7.929a1,1,0,0,1-.261,1.442Z"/><path d="M27,47h4a1,1,0,0,0,0-2H27a1,1,0,0,0,0,2Z"/><path d="M27,51h4a1,1,0,0,0,0-2H27a1,1,0,0,0,0,2Z"/></g></g></svg>