<svg xmlns="http://www.w3.org/2000/svg" width="85" height="85" viewBox="0 0 85 85"><g transform="translate(-284.615 -5256)"><circle cx="42.5" cy="42.5" r="42.5" transform="translate(284.615 5256)" fill="#fff"/><path d="M42.5,5A37.511,37.511,0,0,0,27.9,77.055,37.511,37.511,0,0,0,57.1,7.945,37.261,37.261,0,0,0,42.5,5m0-5A42.5,42.5,0,1,1,0,42.5,42.5,42.5,0,0,1,42.5,0Z" transform="translate(284.615 5256)" fill="#a3314f"/><g transform="translate(290.97 5265.443)"><path d="M53.9,6.307h9.664V9.183H53.9Z" transform="translate(-22.559 -0.913)" fill="#e86d24"/><path d="M59.305,46.66a9.569,9.569,0,0,1-4.573-8.16V33.046H39.067V38.5A9.569,9.569,0,0,1,34.5,46.659L31.211,48.67V75.459H62.588V48.67Z" transform="translate(-10.726 -14.858)" fill="#fdca74"/><g transform="translate(26.635 5.394)"><path d="M77.1,19.1V9.183l-3-2.876V19.1Z" transform="translate(-59.728 -6.307)" fill="#fb8d4b"/><path d="M47.63,19.1V9.183l3-2.876V19.1Z" transform="translate(-45.923 -6.307)" fill="#fb8d4b"/><path d="M44.063,71.584H63.142V84.229a2.392,2.392,0,0,1-2.392,2.392H46.455a2.392,2.392,0,0,1-2.392-2.392V71.584Z" transform="translate(-44.063 -40.351)" fill="#fb8d4b"/></g><path d="M44.063,71.584H63.142v4.149H44.063Z" transform="translate(-17.428 -34.956)" fill="#e86d24"/><g transform="translate(10.645 4.557)"><path d="M95.876,92.44a.837.837,0,0,0-.837.837V95.43a.837.837,0,1,0,1.675,0V93.277A.837.837,0,0,0,95.876,92.44Z" transform="translate(-54.659 -50.39)"/><path d="M43.149,69.834a.837.837,0,0,0-.837.837V83.316a3.234,3.234,0,0,0,3.23,3.23H59.836a3.234,3.234,0,0,0,3.23-3.23V70.671a.837.837,0,0,0-.837-.837Zm18.242,1.675v2.475h-17.4V71.509ZM59.836,84.871H45.542a1.557,1.557,0,0,1-1.555-1.555V75.661h17.4v7.656A1.557,1.557,0,0,1,59.836,84.871Z" transform="translate(-27.16 -38.601)"/><path d="M61.562,56.134l-1.326-1.986a12.042,12.042,0,0,1-2.035-6.71v-9.8a4.67,4.67,0,0,0-4.665-4.665H52.1l-3.081-1.886a8.786,8.786,0,0,1-4.175-7.446V8.27a.836.836,0,0,0-.258-.6l-3-2.876s-.006,0-.009-.005a.831.831,0,0,0-.57-.227H31.341a.831.831,0,0,0-.57.227s-.006,0-.009.005l-3,2.876A.837.837,0,1,0,28.92,8.875L30.5,7.357v10H29.179v-4.6a.837.837,0,1,0-1.675,0v10.89a8.786,8.786,0,0,1-4.174,7.448l-3.081,1.886H18.814a4.67,4.67,0,0,0-4.665,4.665v9.8a12.042,12.042,0,0,1-2.036,6.708l-1.326,1.986a.837.837,0,1,0,1.393.93L13.5,55.077a13.711,13.711,0,0,0,2.317-7.638v-9.8a2.994,2.994,0,0,1,2.99-2.99h.835V60.6a.837.837,0,0,0,.837.837H51.863A.837.837,0,0,0,52.7,60.6V54.017a.837.837,0,1,0-1.675,0v5.749h-29.7V34.284L24.2,32.52a10.471,10.471,0,0,0,4.976-8.876V19.027H43.169v4.617a10.47,10.47,0,0,0,4.974,8.876l2.882,1.765v8.538a.837.837,0,0,0,1.675,0V34.651h.835a2.994,2.994,0,0,1,2.99,2.99v9.8a13.711,13.711,0,0,0,2.317,7.64l1.326,1.986a.837.837,0,1,0,1.393-.93ZM40.169,6.232v1.2h-7.99v-1.2Zm-7.99,2.876h7.99v8.246h-7.99Zm9.665,8.246v-10l1.326,1.271v8.725Z" transform="translate(-10.645 -4.557)"/></g></g></g></svg>