<svg xmlns="http://www.w3.org/2000/svg" width="129" height="129" viewBox="0 0 129 129"><g transform="translate(-388.615 -8930)"><circle cx="64.5" cy="64.5" r="64.5" transform="translate(388.615 8930)" fill="#a3314f"/><g transform="translate(417.615 8955.947)"><g transform="translate(20.696 4.102)"><path d="M172.32,10.554H159.612A11.665,11.665,0,0,0,147.964,22.2v1l2.393,1.778,3.062-1.778v-1a6.21,6.21,0,0,1,6.193-6.189H172.32a6.208,6.208,0,0,1,6.193,6.189v1l2.45.917,3-.917v-1A11.665,11.665,0,0,0,172.32,10.554Z" transform="translate(-147.964 -10.554)" fill="#ecdaec" fill-rule="evenodd"/></g><g transform="translate(17.659 16.745)"><path d="M134.74,100.944h-5.9a2.6,2.6,0,0,0-2.6,2.6v2.593l4.525,2.577,6.915-2.577v-2.593a2.6,2.6,0,0,0-2.593-2.6Z" transform="translate(-126.248 -100.944)" fill="#365e7d" fill-rule="evenodd"/></g><g transform="translate(48.297 16.745)"><path d="M356.734,103.54a2.6,2.6,0,0,0-2.6-2.6h-6.25a2.6,2.6,0,0,0-2.593,2.6v2.593l6.544,2.577,4.9-2.577Z" transform="translate(-345.294 -100.943)" fill="#365e7d" fill-rule="evenodd"/></g><g transform="translate(6.83 21.936)"><path d="M56.512,138.05a7.7,7.7,0,0,0-7.681,7.681v14.694c3.437,11.628,5.214,18.775,10.829,23.007h45.226a7.7,7.7,0,0,0,7.681-7.681v-30.02a7.7,7.7,0,0,0-7.681-7.681Z" transform="translate(-48.831 -138.05)" fill="#ffd772" fill-rule="evenodd"/></g><g transform="translate(4.384 44.311)"><path d="M41.89,300.077a2.065,2.065,0,0,0-2.055-2.059H33.4a2.065,2.065,0,0,0-2.055,2.059v3.808H41.89v-3.808Z" transform="translate(-31.343 -298.018)" fill="#365e7d" fill-rule="evenodd"/></g><g transform="translate(1.049 50.178)"><path d="M24.11,342.691a2.735,2.735,0,0,0-2.728-2.728H10.228A2.735,2.735,0,0,0,7.5,342.691v17.132a2.735,2.735,0,0,0,2.728,2.728H21.382a2.735,2.735,0,0,0,2.728-2.728V342.691Z" transform="translate(-7.5 -339.963)" fill="#90d8f9" fill-rule="evenodd"/></g><g transform="translate(24.557 30.485)"><path d="M203.848,213.318a14.141,14.141,0,1,0-14.139,14.139A14.142,14.142,0,0,0,203.848,213.318Z" transform="translate(-175.566 -199.174)" fill="#f9f6f6" fill-rule="evenodd"/></g><g transform="translate(36.503 30.485)"><path d="M277.306,213.318a14.142,14.142,0,0,0-14.139-14.144,14.446,14.446,0,0,0-2.2.167,14.146,14.146,0,0,1,0,27.949,14.446,14.446,0,0,0,2.2.167A14.141,14.141,0,0,0,277.306,213.318Z" transform="translate(-260.969 -199.174)" fill="#ecdaec" fill-rule="evenodd"/></g><g transform="translate(31.818 37.747)"><path d="M239.921,254.938h-2.532v-2.532a1.322,1.322,0,0,0-1.317-1.317h-3.429a1.322,1.322,0,0,0-1.317,1.317v2.532h-2.532a1.322,1.322,0,0,0-1.317,1.317v3.429A1.322,1.322,0,0,0,228.795,261h2.532v2.532a1.319,1.319,0,0,0,1.317,1.317h3.429a1.319,1.319,0,0,0,1.317-1.317V261h2.532a1.319,1.319,0,0,0,1.317-1.317v-3.429A1.319,1.319,0,0,0,239.921,254.938Z" transform="translate(-227.478 -251.089)" fill="#dd636e" fill-rule="evenodd"/></g><g transform="translate(55.351 21.936)"><path d="M410.935,145.731a7.7,7.7,0,0,0-7.681-7.681H395.72a7.811,7.811,0,0,1,1.35.122,7.7,7.7,0,0,1,6.327,7.559v30.02a7.7,7.7,0,0,1-7.677,7.681h7.534a7.7,7.7,0,0,0,7.681-7.681Z" transform="translate(-395.72 -138.05)" fill="#fdb440" fill-rule="evenodd"/></g><g transform="translate(22.115 16.745)"><path d="M165.091,103.54a2.6,2.6,0,0,0-2.593-2.6h-4.391a2.6,2.6,0,0,1,2.124,1.109,2.565,2.565,0,0,1,.473,1.488v2.593h4.387Z" transform="translate(-158.107 -100.943)" fill="#2b4d66" fill-rule="evenodd"/></g><g transform="translate(52.754 16.745)"><path d="M384.137,103.54a2.6,2.6,0,0,0-2.6-2.6h-4.387a2.6,2.6,0,0,1,2.6,2.6v2.593h4.387Z" transform="translate(-377.153 -100.943)" fill="#2b4d66" fill-rule="evenodd"/></g><g transform="translate(9.321 44.311)"><path d="M72.251,300.077a2.065,2.065,0,0,0-2.055-2.059H66.641a2.065,2.065,0,0,1,2.055,2.059v3.808h3.555v-3.808Z" transform="translate(-66.641 -298.018)" fill="#2b4d66" fill-rule="evenodd"/></g><g transform="translate(11.376 50.178)"><path d="M87.615,357.1V342.692a2.735,2.735,0,0,0-2.728-2.728H81.332a2.735,2.735,0,0,1,2.728,2.728v17.132a2.735,2.735,0,0,1-2.728,2.728h3.555a2.735,2.735,0,0,0,2.728-2.728V357.1Z" transform="translate(-81.332 -339.964)" fill="#75cef8" fill-rule="evenodd"/></g><g transform="translate(0 3.053)"><path d="M43.372,390.735H45.01v1.642a1.049,1.049,0,1,0,2.1,0v-1.642h1.642a1.049,1.049,0,0,0,0-2.1H47.108V387a1.049,1.049,0,0,0-2.1,0v1.638H43.372a1.049,1.049,0,0,0,0,2.1Z" transform="translate(-36.403 -332.393)"/><path d="M233.47,247.437h-1.483v-1.483a2.369,2.369,0,0,0-2.366-2.366h-3.429a2.369,2.369,0,0,0-2.366,2.366v1.483h-1.483a2.369,2.369,0,0,0-2.366,2.366v3.429a2.369,2.369,0,0,0,2.366,2.366h1.483v1.483a2.369,2.369,0,0,0,2.366,2.366h3.429a2.369,2.369,0,0,0,2.366-2.366V255.6h1.483a2.369,2.369,0,0,0,2.366-2.366V249.8A2.369,2.369,0,0,0,233.47,247.437Zm.268,5.795a.271.271,0,0,1-.268.268h-2.532a1.049,1.049,0,0,0-1.049,1.049v2.532a.271.271,0,0,1-.268.268h-3.429a.271.271,0,0,1-.268-.268v-2.532a1.049,1.049,0,0,0-1.049-1.049h-2.532a.271.271,0,0,1-.268-.268V249.8a.271.271,0,0,1,.268-.268h2.532a1.049,1.049,0,0,0,1.049-1.049v-2.532a.271.271,0,0,1,.268-.268h3.429a.271.271,0,0,1,.268.268v2.532a1.049,1.049,0,0,0,1.049,1.049h2.532a.271.271,0,0,1,.268.268Z" transform="translate(-189.209 -209.944)"/><path d="M198.446,206.868a15.19,15.19,0,1,0-15.188,15.188A15.208,15.208,0,0,0,198.446,206.868Zm-15.188,13.09a13.092,13.092,0,1,1,13.09-13.09A13.107,13.107,0,0,1,183.258,219.958Z" transform="translate(-144.558 -165.292)"/><path d="M62.885,20.886h-2.1V19.343a3.652,3.652,0,0,0-3.037-3.594v0a12.71,12.71,0,0,0-12.7-12.693H32.344a12.709,12.709,0,0,0-12.7,12.693v0a3.651,3.651,0,0,0-3.037,3.594v1.544h-2.1a8.74,8.74,0,0,0-8.73,8.73V43.333A3.112,3.112,0,0,0,3.335,46.37v2.786A3.781,3.781,0,0,0,0,52.905V70.037a3.781,3.781,0,0,0,3.777,3.777H14.931a3.781,3.781,0,0,0,3.777-3.777v-1.67H35.047a1.049,1.049,0,1,0,0-2.1H18.708V52.905a3.783,3.783,0,0,0-2.728-3.627V46.37a3.109,3.109,0,0,0-3.1-3.108h-5V29.617a6.64,6.64,0,0,1,6.632-6.632H35.047a1.049,1.049,0,1,0,0-2.1h-4.9V19.343A3.651,3.651,0,0,0,27.2,15.764v-.017a5.148,5.148,0,0,1,5.144-5.14H45.052a5.148,5.148,0,0,1,5.144,5.14v.017a3.651,3.651,0,0,0-2.948,3.579v1.547H40.294a1.049,1.049,0,0,0,0,2.1l22.591,0a6.64,6.64,0,0,1,6.632,6.632v30.02a6.64,6.64,0,0,1-6.632,6.632H40.294a1.049,1.049,0,0,0,0,2.1H62.885a8.74,8.74,0,0,0,8.73-8.73V29.617a8.74,8.74,0,0,0-8.73-8.73ZM16.61,52.905V70.037a1.68,1.68,0,0,1-1.678,1.678H3.777A1.68,1.68,0,0,1,2.1,70.037V52.905a1.68,1.68,0,0,1,1.678-1.678H14.931A1.68,1.68,0,0,1,16.61,52.905ZM12.877,45.36a1.009,1.009,0,0,1,1.006,1.01v2.759H5.433V46.37a1.009,1.009,0,0,1,1.006-1.01ZM28.05,19.343v1.544H18.708V19.343a1.55,1.55,0,0,1,1.548-1.548h6.25a1.548,1.548,0,0,1,1.544,1.548Zm17-10.834H32.344A7.248,7.248,0,0,0,25.1,15.7H21.747a10.608,10.608,0,0,1,10.6-10.545H45.052A10.608,10.608,0,0,1,55.65,15.7H52.293A7.248,7.248,0,0,0,45.052,8.508Zm4.294,10.834a1.548,1.548,0,0,1,1.544-1.548h6.25a1.55,1.55,0,0,1,1.548,1.548v1.544H49.347Z" transform="translate(0 -3.053)"/></g></g></g></svg>