<svg xmlns="http://www.w3.org/2000/svg" width="129" height="129" viewBox="0 0 129 129"><g transform="translate(-1069 2658)"><circle cx="64.5" cy="64.5" r="64.5" transform="translate(1069 -2658)" fill="#a3314f"/><g transform="translate(1099 -2628)"><g transform="translate(1.151 1.151)"><path d="M26.108,27.621a8.054,8.054,0,1,1-16.108,0,10.518,10.518,0,0,1,1.174-4.568,23.871,23.871,0,0,1,4.28-5.925c.771-.817,1.461-1.461,1.933-1.875a1.015,1.015,0,0,1,1.335,0c.472.414,1.162,1.059,1.933,1.875a21.776,21.776,0,0,1,4.878,7.364,9.282,9.282,0,0,1,.575,3.13Z" transform="translate(1.506 2.259)" fill="#f44335"/><path d="M24.7,24.492a21.776,21.776,0,0,0-4.878-7.364c-.771-.817-1.461-1.461-1.933-1.875a1.015,1.015,0,0,0-1.335,0c-.282.247-.649.587-1.059.987.275.269.565.56.874.888a21.776,21.776,0,0,1,4.878,7.364,9.282,9.282,0,0,1,.575,3.13,8.079,8.079,0,0,1-6.328,7.9,8.038,8.038,0,0,0,9.78-7.9,9.282,9.282,0,0,0-.575-3.13Z" transform="translate(2.334 2.259)" fill="#c81e1e"/><path d="M22.108,52.621A8.054,8.054,0,0,1,6,52.621c0-5.327,5.454-10.654,7.387-12.369a1.015,1.015,0,0,1,1.335,0C16.654,41.967,22.108,47.294,22.108,52.621Z" transform="translate(0.903 6.023)" fill="#f44335"/><path d="M13.893,40.253a1.015,1.015,0,0,0-1.335,0c-.284.252-.65.59-1.059.987,2.367,2.3,6.328,6.838,6.328,11.381a8.079,8.079,0,0,1-6.328,7.9,8.038,8.038,0,0,0,9.78-7.9c0-5.327-5.454-10.654-7.387-12.369Z" transform="translate(1.731 6.023)" fill="#c81e1e"/><path d="M27.9,41.614a3.452,3.452,0,1,1-6.9,0c0-2.37,2.336-4.74,3.164-5.5a.425.425,0,0,1,.575,0C25.568,36.874,27.9,39.244,27.9,41.614Z" transform="translate(3.162 5.421)" fill="#f44335"/><path d="M24.513,36.115a.425.425,0,0,0-.575,0A14.337,14.337,0,0,0,22.5,37.66a6.809,6.809,0,0,1,1.726,3.954A3.6,3.6,0,0,1,22.5,44.706a3.317,3.317,0,0,0,1.726.5,3.523,3.523,0,0,0,3.452-3.59C27.678,39.244,25.342,36.874,24.513,36.115Z" transform="translate(3.388 5.421)" fill="#c81e1e"/><path d="M29.712,14.958a25.788,25.788,0,0,1-8.606,2.773c-.771-.817-1.461-1.461-1.933-1.875a1.015,1.015,0,0,0-1.335,0c-.472.414-1.162,1.059-1.933,1.875A25.788,25.788,0,0,1,7.3,14.958a.575.575,0,0,1,0-1.012A24.852,24.852,0,0,1,18.506,11a24.852,24.852,0,0,1,11.206,2.945.575.575,0,0,1,0,1.012Z" transform="translate(1.054 1.656)" fill="#c81e1e"/><path d="M63.856,17.258h-2.3a2.876,2.876,0,0,1,0,5.753h-2.3a2.876,2.876,0,1,1,0,5.753H33.78a11.427,11.427,0,0,1-5.143-1.22l-1.6-.794a21.776,21.776,0,0,0-4.878-7.364,25.788,25.788,0,0,0,8.606-2.773.575.575,0,0,0,0-1.012A24.852,24.852,0,0,0,19.56,12.656,24.852,24.852,0,0,0,8.353,15.6a.575.575,0,0,0,0,1.012,25.788,25.788,0,0,0,8.606,2.773,23.871,23.871,0,0,0-4.28,5.925H2.3a2.308,2.308,0,0,1-2.3-2.3V9.2A2.308,2.308,0,0,1,2.3,6.9H20.825a8.054,8.054,0,0,0,5.7-2.359l2.186-2.186A8.054,8.054,0,0,1,34.4,0H41.42a4.6,4.6,0,0,1,4.6,4.6V5.753H62.706a2.876,2.876,0,1,1,0,5.753h1.151a2.876,2.876,0,1,1,0,5.753Z" transform="translate(0 0)" fill="#ffe0b2"/><g transform="translate(37.969)"><path d="M37.6,4.6V5.753h3.452V4.6a4.6,4.6,0,0,0-4.6-4.6H33A4.6,4.6,0,0,1,37.6,4.6Z" transform="translate(-33)" fill="#dfc49c"/><path d="M58.59,15.666a2.876,2.876,0,0,0-2.036-4.913H55.4A2.876,2.876,0,0,0,55.4,5H51.952a2.876,2.876,0,0,1,0,5.753H53.1a2.876,2.876,0,1,1,0,5.753H50.8a2.876,2.876,0,1,1,0,5.753H48.5a2.876,2.876,0,1,1,0,5.753h3.452a2.876,2.876,0,0,0,0-5.753h2.3a2.876,2.876,0,1,0,0-5.753h2.3a2.876,2.876,0,0,0,2.036-.84Z" transform="translate(-30.666 0.753)" fill="#dfc49c"/></g></g><g transform="translate(0)"><path d="M17.724,20.406C16.333,22.047,14,25.221,14,28.054a1.151,1.151,0,0,0,2.3,0c0-1.51,1.189-3.812,3.179-6.159a1.151,1.151,0,0,0-1.756-1.489Z" transform="translate(2.108 3.011)"/><circle cx="1.151" cy="1.151" r="1.151" transform="translate(18.409 33.366)"/><path d="M16.636,40.544a2.154,2.154,0,0,0-2.863,0C11.436,42.623,6,48.075,6,53.773a9.2,9.2,0,0,0,18.409,0c0-5.7-5.436-11.15-7.773-13.229ZM15.2,60.71a6.928,6.928,0,0,1-6.9-6.937c0-4.806,5.155-9.851,6.9-11.423,1.748,1.571,6.9,6.617,6.9,11.423A6.928,6.928,0,0,1,15.2,60.71Z" transform="translate(0.903 6.022)"/><path d="M25.6,47.505c3.843,0,7.518-5.13,1.068-11.087a1.579,1.579,0,0,0-2.134,0C18.12,42.344,21.727,47.505,25.6,47.505Zm0-8.916c1.186,1.218,2.3,2.829,2.3,4.171a2.3,2.3,0,0,1-4.6,0C23.3,41.42,24.411,39.809,25.6,38.589Z" transform="translate(3.165 5.421)"/><path d="M13.724,45.406C12.333,47.047,10,50.221,10,53.054a1.151,1.151,0,0,0,2.3,0c0-1.51,1.189-3.812,3.179-6.159a1.151,1.151,0,0,0-1.756-1.489Z" transform="translate(1.506 6.775)"/><circle cx="1.151" cy="1.151" r="1.151" transform="translate(13.807 62.13)"/><path d="M67.12,12.12a4.027,4.027,0,0,0-3.264-6.367H48.324A5.76,5.76,0,0,0,42.571,0H35.552a9.267,9.267,0,0,0-6.509,2.7L26.858,4.882A6.948,6.948,0,0,1,21.976,6.9H3.452A3.452,3.452,0,0,0,0,10.355V24.162a3.452,3.452,0,0,0,3.452,3.452h8.665a9.23,9.23,0,1,0,17.737,2.361,12.634,12.634,0,0,0,5.077,1.091H60.4a4.005,4.005,0,0,0,3.512-5.959,3.981,3.981,0,0,0,2.3-5.753,4,4,0,0,0,.9-7.234ZM20.71,37.969a6.928,6.928,0,0,1-6.9-6.937c0-4.806,5.155-9.851,6.9-11.423a23.53,23.53,0,0,1,6.4,8.686,6.994,6.994,0,0,1-6.4,9.674ZM22.141,17.8a2.154,2.154,0,0,0-2.863,0c-.438.39-.987.9-1.588,1.506a24.986,24.986,0,0,1-6.63-2.05,21.472,21.472,0,0,1,19.3,0,25,25,0,0,1-6.63,2.05c-.6-.606-1.149-1.116-1.588-1.506Zm42.865-.544H46.022a1.151,1.151,0,1,0,0,2.3H62.706a1.726,1.726,0,0,1,0,3.452H46.022a1.151,1.151,0,1,0,0,2.3H60.4a1.726,1.726,0,1,1,0,3.452H34.931a11.762,11.762,0,0,1-5.822-1.69,21.2,21.2,0,0,0-3.559-5.765,27.362,27.362,0,0,0,6.9-2.521,1.726,1.726,0,0,0,.016-3.05,24.058,24.058,0,0,0-23.488-.008,1.726,1.726,0,0,0-.016,3.05,27.465,27.465,0,0,0,6.91,2.531,23.768,23.768,0,0,0-2.743,4H3.452A1.151,1.151,0,0,1,2.3,24.162V10.355A1.151,1.151,0,0,1,3.452,9.2H21.976a9.267,9.267,0,0,0,6.509-2.7l2.186-2.186A6.948,6.948,0,0,1,35.552,2.3h7.018a3.452,3.452,0,0,1,3.452,3.452h-6.9a1.151,1.151,0,0,0,0,2.3H63.856a1.726,1.726,0,1,1,0,3.452H46.022a1.151,1.151,0,1,0,0,2.3H65.007a1.726,1.726,0,1,1,0,3.452Z" transform="translate(0)"/></g></g></g></svg>