<svg xmlns="http://www.w3.org/2000/svg" width="129" height="129" viewBox="0 0 129 129"><g transform="translate(-1089.615 -8930)"><circle cx="64.5" cy="64.5" r="64.5" transform="translate(1089.615 8930)" fill="#a3314f"/><g transform="translate(1078.615 8957)"><path d="M89.712,282s14.165,4.207,17.04,7.975c1.948,2.552,5.8,12.523,5.8,24.639H52.87c0-12.116,3.847-22.088,5.8-24.639,2.876-3.768,17.04-7.975,17.04-7.975Z" transform="translate(-6.714 -240.575)" fill="#348fd9"/><path d="M384.54,451.71l1.028,7.681H395.5a59.643,59.643,0,0,0-.5-7.681Z" transform="translate(-289.662 -385.354)" fill="#ffc89f"/><path d="M63.827,451.71,62.8,459.391H52.87a59.649,59.649,0,0,1,.5-7.681Z" transform="translate(-6.714 -385.354)" fill="#ffc89f"/><path d="M208.33,247.64v5.047a7,7,0,0,0,14.005,0V247.64Z" transform="translate(-139.337 -211.262)" fill="#f4b184"/><path d="M208.33,250.254a11.067,11.067,0,0,0,14.005,0V247.61H208.33Z" transform="translate(-139.337 -211.237)" fill="#eda370"/><path d="M138.033,119.69A4.735,4.735,0,1,0,139.241,129C138.4,124.552,138.033,119.69,138.033,119.69Z" transform="translate(-75.33 -102.108)" fill="#f4b184"/><path d="M339.478,119.69A4.735,4.735,0,1,1,338.27,129C339.112,124.552,339.478,119.69,339.478,119.69Z" transform="translate(-250.189 -102.108)" fill="#f4b184"/><path d="M173.378,19.8a1.469,1.469,0,0,0-2.007-.251c-2.947,2.173-11.017,7.462-16.647,4.855-4.43-2.057-.5-13.67,7.4-15.777,8.48-2.262,12.561,2.3,12.561,2.3a6.8,6.8,0,0,1,5.457,2.057c3.135,3.395,3.712,10.211,1.162,11.427-2.637,1.255-6.28-2.6-7.931-4.607Z" transform="translate(-92.026 -6.827)" fill="#848484"/><path d="M192.09,89.834c-2.637,1.257-6.28-2.6-7.933-4.6a1.469,1.469,0,0,0-2.007-.251c-2.945,2.173-11.017,7.46-16.641,4.858.021.276.782,10.105,2.593,14.474,1.838,4.43,7.673,6.809,10.7,6.809s8.861-2.378,10.7-6.809,2.59-14.43,2.593-14.48Z" transform="translate(-102.807 -72.251)" fill="#ffc89f"/><path d="M192.09,89.834c-2.637,1.257-6.28-2.6-7.933-4.6a1.469,1.469,0,0,0-2.007-.251c-2.945,2.173-11.017,7.46-16.641,4.858,0,.082.079,1.028.229,2.44a10.724,10.724,0,0,0,3.192.467c4.964,0,10.208-2.982,13.438-5.213a.735.735,0,0,1,.961.112,22.881,22.881,0,0,0,2.446,2.367,8.365,8.365,0,0,0,5.193,2.275,4.956,4.956,0,0,0,.9-.084c.147-1.419.22-2.35.22-2.369Z" transform="translate(-102.807 -72.251)" fill="#f4ba92"/><path d="M208.492,166.34c-3.329,0-10.894,7.89-6.884,11.931a13.658,13.658,0,0,0,7.014,2.5,13.3,13.3,0,0,0,6.259-2.014c.159-.156.319-.313.48-.476C219.4,174.245,211.824,166.34,208.492,166.34Z" transform="translate(-132.627 -141.905)" fill="#a4e6ff"/><path d="M208.492,166.34c-3.329,0-10.894,7.89-6.884,11.931a13.658,13.658,0,0,0,7.014,2.5,13.3,13.3,0,0,0,6.259-2.014c.159-.156.319-.313.48-.476C219.4,174.245,211.824,166.34,208.492,166.34Z" transform="translate(-132.627 -141.905)" fill="#f0f0f0"/><circle cx="2.543" cy="2.543" r="2.543" transform="translate(73.322 29.654)" fill="#348fd9"/><path d="M240.342,211.4a2.538,2.538,0,0,1-2.17-1.221,2.543,2.543,0,1,0,4.339,0A2.538,2.538,0,0,1,240.342,211.4Z" transform="translate(-164.477 -179.305)" fill="#2f86c1"/><path d="M100.969,48.753c-1.322-1.729-4.717-3.672-10.095-5.77-.564-.219-1.121-.429-1.661-.629v-.921a1.1,1.1,0,1,0-2.2,0v.14c-1.215-.419-2.231-.745-2.885-.95V36.935a11.008,11.008,0,0,0,3.62-4.461,25.784,25.784,0,0,0,1.246-4.347c.11.007.222.012.333.012A5.847,5.847,0,0,0,91.41,16.827a6,6,0,0,0,.46-1.443A12.675,12.675,0,0,0,88.964,5.345,7.862,7.862,0,0,0,83.106,2.91c-1.3-1.147-5.666-4.273-13.3-2.237C64.128,2.187,60.164,8.283,59.75,13.062a6.534,6.534,0,0,0,.679,3.831,5.848,5.848,0,0,0,2.249,11.245,3.148,3.148,0,0,0,.333-.012,25.825,25.825,0,0,0,1.246,4.347,10.988,10.988,0,0,0,3.62,4.461v3.683c-1.277.4-3.935,1.266-6.757,2.365-5.375,2.1-8.774,4.041-10.1,5.77C48.925,51.508,45,61.774,45,74.109a1.1,1.1,0,0,0,1.1,1.1h59.788a1.1,1.1,0,0,0,1.1-1.1c0-12.335-3.924-22.6-6.021-25.356ZM87,43.9V56.494a5.016,5.016,0,1,1-10.032,0v-7a8.137,8.137,0,0,0,7.014-6.61c.868.284,1.9.627,3.013,1.019ZM69.679,35.5c-.881-.959-.983-2.284-.294-3.941a12.2,12.2,0,0,1,3.189-4.241,6.18,6.18,0,0,1,3.3-1.8,6.2,6.2,0,0,1,3.3,1.808,12.2,12.2,0,0,1,3.188,4.248c.707,1.707.576,3.06-.388,4.025l-.354.351a13.76,13.76,0,0,1-4.646,1.733V35.67a3.652,3.652,0,1,0-2.2,0v1.968A14.126,14.126,0,0,1,69.679,35.5Zm5.089,4.379v7.333a5.92,5.92,0,0,1-4.676-5.78V38.321A15.056,15.056,0,0,0,74.76,39.88ZM63.937,19.123a9.919,9.919,0,0,0,2.162.232c5.381,0,11.264-3.831,13.914-5.783a.369.369,0,0,1,.5.065c3.317,4.019,5.805,5.218,7.574,5.26-.059.6-.138,1.362-.238,2.215l-6.2,5.529c-1.842-1.942-4.093-3.333-5.786-3.333s-3.943,1.393-5.786,3.335l-5.9-5.269c-.1-.853-.185-1.625-.247-2.25Zm17.97,19.2v3.111a5.921,5.921,0,0,1-4.939,5.83V39.918A14.934,14.934,0,0,0,81.907,38.321Zm-7.492-6.133a1.441,1.441,0,1,0,.006,0Zm10.555.751a7.849,7.849,0,0,0-.58-2.2,12.3,12.3,0,0,0-1.332-2.384l4.336-3.871a34.784,34.784,0,0,1-1.7,7.153,7.232,7.232,0,0,1-.72,1.306ZM92.946,22.29a3.643,3.643,0,0,1-3.556,3.637c.482-2.825.777-5.614.918-7.136a3.646,3.646,0,0,1,2.644,3.5Zm-31-9.037C62.3,9.2,65.77,4.034,70.377,2.806a16.619,16.619,0,0,1,4.285-.6c4.762,0,7.076,2.441,7.2,2.568a1.1,1.1,0,0,0,.955.37,5.687,5.687,0,0,1,4.519,1.71,10.555,10.555,0,0,1,2.359,8.125,2.167,2.167,0,0,1-.859,1.581c-1.353.645-3.89-1.011-6.621-4.32A2.578,2.578,0,0,0,78.7,11.8c-2.337,1.719-10.365,7.154-15.558,4.749-1.279-.592-1.257-2.5-1.188-3.292Zm-2.91,9.037a3.646,3.646,0,0,1,2.644-3.5c.147,1.522.441,4.311.918,7.136a3.643,3.643,0,0,1-3.564-3.637Zm8.3,8.42A8.09,8.09,0,0,0,66.8,32.6a7.069,7.069,0,0,1-.5-.972,33.678,33.678,0,0,1-1.656-6.881l4.031,3.6A12.422,12.422,0,0,0,67.34,30.71ZM55.08,73.009H47.214c.038-1.891.17-3.727.372-5.488h8.226ZM95.253,60.637a1.1,1.1,0,0,0-2.189.294L94.68,73.01H57.309l1.616-12.08a1.1,1.1,0,0,0-2.189-.294l-.626,4.676H47.884c1.153-7.581,3.514-13.406,4.9-15.22,1.974-2.585,10.724-5.772,15.226-7.205a8.14,8.14,0,0,0,6.757,6.569V56.49a7.224,7.224,0,1,0,14.448,0V44.707c4.146,1.576,8.645,3.623,9.989,5.385,1.385,1.814,3.746,7.631,4.9,15.216H95.882Zm1.658,12.372-.734-5.488H104.4c.2,1.763.333,3.6.372,5.488Z" transform="translate(0 0)"/><path d="M204.746,140.143a1.109,1.109,0,1,0-1.616-1.52,3.079,3.079,0,0,1-1.592.655,1.106,1.106,0,0,0,.157,2.2.974.974,0,0,0,.159-.012A5.123,5.123,0,0,0,204.746,140.143Z" transform="translate(-132.716 -117.961)"/><path d="M284.165,141.465a.975.975,0,0,0,.159.012,1.106,1.106,0,0,0,.157-2.2,3,3,0,0,1-1.592-.655,1.107,1.107,0,1,0-1.606,1.525A5.031,5.031,0,0,0,284.165,141.465Z" transform="translate(-201.313 -117.961)"/></g></g></svg>