<svg xmlns="http://www.w3.org/2000/svg" width="122" height="122" viewBox="0 0 122 122"><g transform="translate(-444 9859)"><circle cx="61" cy="61" r="61" transform="translate(444 -9859)" fill="#fff" opacity="0.5"/><g transform="translate(437.001 -9872.998)"><path d="M379.775,39.066a4.708,4.708,0,0,0,4.708-4.708V31.533A7.533,7.533,0,0,0,376.95,24H360V39.066Z" transform="translate(-263.018 -6.117)" fill="#f0bca1"/><path d="M152.032,133.232H88V31.533A7.533,7.533,0,0,1,95.533,24H167.1a7.533,7.533,0,0,0-7.533,7.533V125.7A7.533,7.533,0,0,1,152.032,133.232Z" transform="translate(-55.05 -6.117)" fill="#ffd9b5"/><path d="M308.708,424a4.708,4.708,0,0,1,4.708,4.708v2.825H304V424Z" transform="translate(-220.201 -311.951)" fill="#f5c9aa"/><path d="M89.916,434.358a4.708,4.708,0,0,0,4.708,4.708H28.708A4.708,4.708,0,0,1,24,434.358v-5.65A4.708,4.708,0,0,1,28.708,424H94.624a4.708,4.708,0,0,0-4.708,4.708Z" transform="translate(-6.117 -311.951)" fill="#ffe3cd"/><path d="M392,56h7.533v2.825a4.708,4.708,0,0,0,4.708,4.708H392Z" transform="translate(-287.485 -30.583)" fill="#f5c9aa"/><path d="M223.533,122.833H216L217.883,104h3.767Z" transform="translate(-152.917 -67.284)" fill="#ba8b5d"/><path d="M135.533,147.3A7.542,7.542,0,0,1,128,139.767v-1.883A1.883,1.883,0,0,1,129.883,136h11.3a1.883,1.883,0,0,1,1.883,1.883v1.883A7.542,7.542,0,0,1,135.533,147.3Z" transform="translate(-85.634 -91.75)" fill="#fab53f"/><path d="M279.533,147.3A7.542,7.542,0,0,1,272,139.767v-1.883A1.883,1.883,0,0,1,273.883,136h11.3a1.883,1.883,0,0,1,1.883,1.883v1.883A7.542,7.542,0,0,1,279.533,147.3Z" transform="translate(-195.734 -91.75)" fill="#fab53f"/><rect width="19" height="8" rx="4" transform="translate(56.999 55.999)" fill="#9f764a"/><path d="M181.2,65.632a3.767,3.767,0,0,0-3.767-3.767h-1.883a10.654,10.654,0,0,0-15.066,0h-3.767a10.654,10.654,0,0,0-15.066,0h-1.883a3.767,3.767,0,1,0,0,7.533h1.883a10.654,10.654,0,0,1,15.066,0h3.767a10.654,10.654,0,0,1,15.066,0h1.883A3.767,3.767,0,0,0,181.2,65.632Z" transform="translate(-91.75 -32.682)" fill="#9f764a"/><path d="M384.016,147.767l-2.924,5.848-1.686,3.371-17.99,35.981L352,202.382l1.321-9.252.563-3.931,17.99-35.983,1.686-3.369L376.483,144Z" transform="translate(-256.901 -97.867)" fill="#529ddf"/><path d="M365.706,339.767l-2.808,2.809-5.287-2.644.563-3.931Z" transform="translate(-261.191 -244.668)" fill="#4384c3"/><path d="M358.608,355.344,352,361.952l1.321-9.252Z" transform="translate(-256.901 -257.436)" fill="#68737f"/><path d="M378.741,139.964l-7.533-3.767a1.883,1.883,0,0,0-2.527.842l-2.924,5.849-1.829-.915a6.121,6.121,0,0,0-8.363,3.063l-3.88,9.052,3.462,1.484,3.88-9.053a2.354,2.354,0,0,1,3.216-1.178l1.829.915-17.991,35.982a1.887,1.887,0,0,0-.18.576L344.018,196a1.883,1.883,0,0,0,3.2,1.6l9.417-9.417a1.887,1.887,0,0,0,.353-.489l22.6-45.2a1.883,1.883,0,0,0-.842-2.527Zm-24.99,45.768-5.205,5.205,1.041-7.287,17.854-35.708,4.164,2.082Zm19.539-39.077-4.164-2.082,2.082-4.164,4.164,2.082Z" transform="translate(-250.784 -91.749)"/><path d="M83.767,25.417a5.656,5.656,0,0,1,5.65-5.65h64.037a9.369,9.369,0,0,0-1.888,5.65v22.6h3.767v-22.6a5.656,5.656,0,0,1,5.65-5.65h1.883a5.656,5.656,0,0,1,5.65,5.65v2.825a2.825,2.825,0,1,1-5.65,0V25.417a1.883,1.883,0,0,0-1.883-1.883h-3.767V27.3H159.1v.942a6.552,6.552,0,0,0,.637,2.825h-2.52v3.767h8.475a6.6,6.6,0,0,0,6.592-6.592V25.417A9.427,9.427,0,0,0,162.866,16H89.417A9.427,9.427,0,0,0,80,25.417V106.4h3.767Z" transform="translate(-48.934)"/><path d="M102.632,400.95a5.656,5.656,0,0,1-5.65,5.65H88.507a2.828,2.828,0,0,1-2.825-2.825v-5.65a2.825,2.825,0,1,1,5.65,0v.942H87.566v3.767h5.65A1.883,1.883,0,0,0,95.1,400.95v-2.825a6.6,6.6,0,0,0-6.592-6.592H22.592A6.6,6.6,0,0,0,16,398.125v5.65a6.6,6.6,0,0,0,6.592,6.592H96.982a9.427,9.427,0,0,0,9.417-9.417V384h-3.767Zm-20.08,5.65H22.592a2.828,2.828,0,0,1-2.825-2.825v-5.65a2.828,2.828,0,0,1,2.825-2.825H82.552a6.552,6.552,0,0,0-.637,2.825v5.65a6.551,6.551,0,0,0,.637,2.825Z" transform="translate(0 -281.368)"/><path d="M128,72.483a7.533,7.533,0,1,0,15.066,0V70.6a1.872,1.872,0,0,0-.27-.968h0l-4.83-8.05a8.771,8.771,0,0,1,10.664.357l-1.62,16.2h-.179a5.65,5.65,0,0,0,0,11.3h11.3a5.65,5.65,0,1,0,0-11.3h-.179l-1.62-16.2A8.771,8.771,0,0,1,167,61.581l-4.83,8.05h0a1.872,1.872,0,0,0-.27.968v1.883a7.533,7.533,0,1,0,15.066,0V70.6a1.872,1.872,0,0,0-.27-.968h0L172.66,62.9a5.65,5.65,0,0,0-1.345-11.137h-1.139a12.537,12.537,0,0,0-15.811-.6V48H150.6v3.162a12.537,12.537,0,0,0-15.811.6h-1.139A5.65,5.65,0,0,0,132.3,62.9l-4.036,6.727h0a1.872,1.872,0,0,0-.27.968Zm7.533,3.767a3.771,3.771,0,0,1-3.767-3.767H139.3A3.771,3.771,0,0,1,135.532,76.25Zm2.324-7.533h-4.647l2.324-3.873Zm22.159,15.066a1.885,1.885,0,0,1-1.883,1.883h-11.3a1.883,1.883,0,0,1,0-3.767h11.3A1.885,1.885,0,0,1,160.015,83.783Zm-9.219-5.65L152.3,63.066h.358l1.507,15.066Zm20.959-9.417h-4.647l2.324-3.873Zm-2.324,7.533a3.771,3.771,0,0,1-3.767-3.767H173.2A3.771,3.771,0,0,1,169.431,76.25ZM133.649,55.533h1.883a1.884,1.884,0,0,0,1.332-.552,8.77,8.77,0,0,1,12.4,0,1.884,1.884,0,0,0,1.332.552h3.767a1.883,1.883,0,0,0,1.332-.552,8.77,8.77,0,0,1,12.4,0,1.883,1.883,0,0,0,1.332.552h1.883a1.883,1.883,0,0,1,0,3.767h-1.139a12.54,12.54,0,0,0-16.555,0h-2.278a12.54,12.54,0,0,0-16.555,0h-1.139a1.883,1.883,0,1,1,0-3.767Z" transform="translate(-85.632 -24.467)"/><path d="M112,224h11.3v3.767H112Z" transform="translate(-73.4 -159.034)"/><path d="M112,256h15.066v3.767H112Z" transform="translate(-73.4 -183.501)"/><path d="M192,256h15.066v3.767H192Z" transform="translate(-134.567 -183.501)"/><path d="M272,256h22.6v3.767H272Z" transform="translate(-195.734 -183.501)"/><path d="M112,384h15.066v3.767H112Z" transform="translate(-73.4 -281.368)"/><path d="M192,384h22.6v3.767H192Z" transform="translate(-134.567 -281.368)"/><path d="M112,288h7.533v3.767H112Z" transform="translate(-73.4 -207.968)"/><path d="M160,288h18.833v3.767H160Z" transform="translate(-110.1 -207.968)"/><path d="M256,288h22.6v3.767H256Z" transform="translate(-183.501 -207.968)"/><path d="M112,352h7.533v3.767H112Z" transform="translate(-73.4 -256.901)"/><path d="M160,352h18.833v3.767H160Z" transform="translate(-110.1 -256.901)"/><path d="M256,352h16.95v3.767H256Z" transform="translate(-183.501 -256.901)"/><path d="M112,320h32.016v3.767H112Z" transform="translate(-73.4 -232.434)"/></g></g></svg>