<svg xmlns="http://www.w3.org/2000/svg" xmlns:xlink="http://www.w3.org/1999/xlink" width="313" height="320.014" viewBox="0 0 313 320.014"><defs><filter id="a" x="0" y="23.137" width="313" height="296.877" filterUnits="userSpaceOnUse"><feOffset dy="3" input="SourceAlpha"/><feGaussianBlur stdDeviation="3" result="b"/><feFlood flood-opacity="0.161"/><feComposite operator="in" in2="b"/><feComposite in="SourceGraphic"/></filter><clipPath id="c"><rect width="296.803" height="314.667" fill="none"/></clipPath><clipPath id="e"><rect width="84.124" height="45.262" fill="none"/></clipPath><clipPath id="f"><rect width="25.734" height="54.323" fill="none"/></clipPath><clipPath id="g"><rect width="25.735" height="54.322" fill="none"/></clipPath><clipPath id="h"><rect width="123.641" height="55.647" fill="none"/></clipPath><clipPath id="i"><rect width="175.999" height="59.087" fill="none"/></clipPath><clipPath id="j"><rect width="79.238" height="35.097" fill="none"/></clipPath><clipPath id="k"><rect width="147.024" height="90.902" fill="none"/></clipPath></defs><g transform="translate(-171 -3396)"><g transform="matrix(1, 0, 0, 1, 171, 3396)" filter="url(#a)"><rect width="295" height="278.877" rx="20" transform="translate(9 29.14)" fill="#ced371"/></g><g transform="translate(178 3396)"><g clip-path="url(#c)"><path d="M170.564,224.116H76.713l9.556-73.179h74.683Z" transform="translate(27.308 53.73)" fill="#febe81"/><g clip-path="url(#c)"><g transform="translate(109.271 204.666)" style="mix-blend-mode:multiply;isolation:isolate"><g clip-path="url(#e)"><path d="M158.291,150.937H84.871l-4.286,26.68C91.28,188.066,101.18,196.2,105.5,196.2h32.39c4.491,0,15.884-8.962,26.821-19.984Z" transform="translate(-80.585 -150.937)" fill="#e8e8e8"/></g></g><path d="M166.74,118.832h3.13c3.173,0,5.412-5.507,6.351-8.248a70.058,70.058,0,0,0,3.306-13.674c.4-3.387-.652-9.221-5-9.221-4.99,0-7.791,5.081-7.791,5.081Z" transform="translate(59.355 31.215)" fill="#febe81"/><path d="M58.527,118.832H55.4c-3.174,0-5.416-5.507-6.345-8.248A69.453,69.453,0,0,1,45.751,96.91c-.4-3.387.645-9.221,4.994-9.221,4.993,0,7.782,5.081,7.782,5.081Z" transform="translate(16.258 31.215)" fill="#febe81"/><path d="M179.738,28.946c-18.935-14.388-59.754-23.1-94.422.224C56.424,48.6,52.829,83.706,52.829,83.706v85.34c0,5.6,51.08,63.209,62.58,63.209h32.382c11.507,0,61.4-57.609,61.4-63.209V80.493s-2.415-31.006-29.454-51.546" transform="translate(18.806 5.247)" fill="#febe81"/><path d="M62.544,50.6V105.9c0,24.459-9.714,33.994-9.714,33.994V96.6c0-17.412,3.637-33.4,9.714-46.006" transform="translate(18.806 18.012)" fill="#3d1412"/><path d="M160.906,40.274v69.305c0,24.458,9.813,33.994,9.813,33.994V86.267c0-17.415-3.679-33.4-9.813-45.993" transform="translate(57.279 14.337)" fill="#3d1412"/><path d="M67.754,35.663S52.83,41.849,52.83,61.2v52.563s19.315-4.445,22.284-29.85c3-25.4,5.444-36.632,17.4-35.27,0,0-9.082-16.432-24.763-12.977" transform="translate(18.806 12.525)" fill="#3d1412"/><path d="M163.573,35.662s14.916,6.186,14.916,25.534v52.563s-19.309-4.445-22.3-29.85-5.145-36.377-17.1-35.011c0,0,8.793-16.691,24.489-13.236" transform="translate(49.511 12.527)" fill="#3d1412"/><g transform="translate(200.37 59.641)" opacity="0.25"><g clip-path="url(#f)"><path d="M147.768,46.971s.32-.161.9-.393,1.412-.565,2.441-.861,2.233-.641,3.545-.918,2.731-.487,4.156-.631a34.984,34.984,0,0,1,4.2-.174,17.716,17.716,0,0,1,1.934.1c.614.049,1.193.094,1.725.176a20.249,20.249,0,0,1,2.548.472c.607.141.951.237.951.237s-.359,0-.98-.023l-1.116-.053c-.433,0-.919.011-1.445-.009-1.055-.028-2.288.018-3.6.081s-2.713.149-4.109.3c-1.4.117-2.788.319-4.1.488-1.3.2-2.529.354-3.566.561-2.088.358-3.486.648-3.486.648" transform="translate(-147.768 -43.984)" fill="#f1eff0"/><path d="M150.1,51.383s.292-.16.824-.391,1.295-.56,2.244-.856,2.058-.641,3.272-.918a37.239,37.239,0,0,1,3.85-.637,30.466,30.466,0,0,1,3.9-.18,15.024,15.024,0,0,1,1.8.095c.569.05,1.106.092,1.6.175a17.4,17.4,0,0,1,2.359.473c.561.144.877.24.877.24s-.335,0-.91-.026l-1.033-.053c-.4,0-.853.009-1.341-.011-.976-.024-2.117.016-3.333.085-.607.016-1.234.073-1.871.122s-1.284.108-1.928.184c-1.294.119-2.579.32-3.787.492-1.2.2-2.34.354-3.3.561-1.931.357-3.225.643-3.225.643" transform="translate(-146.936 -42.415)" fill="#f1eff0"/><path d="M151.222,55.46s1.2-.443,3.055-.919a51.081,51.081,0,0,1,6.9-1.212c1.272-.114,2.545-.21,3.744-.222s2.319.023,3.275.1a22.6,22.6,0,0,1,3.161.483s-.321.024-.877.043c-.555-.007-1.346.073-2.29.111-1.889.119-4.393.327-6.9.591l-6.9.734c-1.892.184-3.165.293-3.165.293" transform="translate(-146.538 -40.739)" fill="#f1eff0"/><path d="M152.239,60.1s1.188-.385,3.008-.793A52.757,52.757,0,0,1,162,58.3a37.051,37.051,0,0,1,6.846.019,17.585,17.585,0,0,1,3.063.6s-.315.008-.856,0c-.268-.011-.6-.018-.972,0l-1.258.038c-1.841.068-4.285.244-6.734.45l-6.753.53c-1.851.118-3.1.164-3.1.164" transform="translate(-146.176 -38.94)" fill="#f1eff0"/><path d="M152.586,65.249s1.153-.4,2.922-.841a50.016,50.016,0,0,1,6.582-1.1,35.9,35.9,0,0,1,6.692-.077,19.146,19.146,0,0,1,3,.523s-.308.019-.837.027c-.526-.019-1.284.058-2.18.088-.9.058-1.944.13-3.066.218-1.119.106-2.313.2-3.507.325l-6.587.622c-1.806.146-3.024.214-3.024.214" transform="translate(-146.053 -37.176)" fill="#f1eff0"/><path d="M154.032,71.063a26.546,26.546,0,0,1,2.514-.946A35.927,35.927,0,0,1,162.3,68.8a28.51,28.51,0,0,1,3.153-.273,17.5,17.5,0,0,1,2.773.114,7.434,7.434,0,0,1,1.1.191,5.45,5.45,0,0,1,.828.216c.452.149.7.25.7.25s-.275-.005-.736-.037a5.407,5.407,0,0,0-.834-.018c-.324.012-.682,0-1.078.035-1.573.075-3.658.32-5.745.621-1.045.132-2.088.309-3.071.445l-2.692.391c-1.584.212-2.655.328-2.655.328" transform="translate(-145.538 -35.251)" fill="#f1eff0"/><path d="M155.237,74.944a21.045,21.045,0,0,1,2.336-.7,32.663,32.663,0,0,1,5.287-.777c.97-.054,1.943-.087,2.856-.057a23.719,23.719,0,0,1,2.49.172,18.645,18.645,0,0,1,2.4.427s-.244.035-.669.071l-1.748.14-5.26.355c-1.909.117-3.823.236-5.268.3s-2.426.069-2.426.069" transform="translate(-145.109 -33.512)" fill="#f1eff0"/><path d="M156.73,79.776s.812-.262,2.05-.522a35.191,35.191,0,0,1,4.579-.59,31.521,31.521,0,0,1,4.621.046,18.823,18.823,0,0,1,2.1.316s-.21.047-.575.1-.887.148-1.509.218c-1.246.161-2.9.319-4.564.424s-3.33.141-4.589.114-2.109-.111-2.109-.111" transform="translate(-144.578 -31.661)" fill="#f1eff0"/><path d="M158.779,84.262a12.154,12.154,0,0,1,1.459-.517,18.568,18.568,0,0,1,3.3-.586,16.826,16.826,0,0,1,3.361.043,10.221,10.221,0,0,1,1.521.312s-.152.049-.415.106-.64.151-1.09.221c-.9.163-2.088.32-3.284.424a31.762,31.762,0,0,1-3.319.11c-.915-.034-1.538-.114-1.538-.114" transform="translate(-143.848 -30.061)" fill="#f1eff0"/></g></g><g transform="translate(73.06 58.796)" opacity="0.25"><g clip-path="url(#g)"><path d="M78.744,46.349s-1.4-.29-3.489-.648c-1.039-.207-2.267-.358-3.569-.561-1.309-.168-2.7-.372-4.1-.488-1.4-.152-2.8-.245-4.111-.3s-2.548-.111-3.6-.083c-.527.02-1.014.012-1.447.009l-1.116.052c-.622.024-.982.023-.982.023s.343-.1.952-.237a20.024,20.024,0,0,1,2.549-.471c.532-.083,1.112-.127,1.726-.175a17.391,17.391,0,0,1,1.935-.1,35.3,35.3,0,0,1,4.2.175c1.426.144,2.843.366,4.159.632s2.519.612,3.547.917,1.859.641,2.442.861.9.393.9.393" transform="translate(-53.009 -43.361)" fill="#f1eff0"/><path d="M75.958,50.762s-1.294-.286-3.225-.643c-.96-.207-2.095-.359-3.3-.561-1.21-.172-2.494-.373-3.787-.492-.645-.076-1.291-.148-1.928-.184s-1.264-.107-1.873-.123c-1.216-.068-2.357-.11-3.334-.084-.487.02-.938.014-1.34.009l-1.033.053c-.576.026-.911.026-.911.026s.316-.1.879-.239a16.9,16.9,0,0,1,2.359-.473c.492-.084,1.031-.125,1.6-.175a14.747,14.747,0,0,1,1.8-.095,30.466,30.466,0,0,1,3.9.18,36.819,36.819,0,0,1,3.85.637c1.215.277,2.328.613,3.273.918s1.71.639,2.244.856.824.391.824.391" transform="translate(-53.4 -41.791)" fill="#f1eff0"/><path d="M74.684,54.835s-1.273-.107-3.165-.293l-6.9-.736c-2.5-.266-5.006-.475-6.9-.6-.942-.039-1.736-.121-2.289-.115-.556-.019-.877-.045-.877-.045a22.692,22.692,0,0,1,3.161-.477c.956-.075,2.076-.119,3.273-.1s2.472.111,3.744.225a51.534,51.534,0,0,1,6.9,1.215c1.852.476,3.054.919,3.054.919" transform="translate(-53.64 -40.119)" fill="#f1eff0"/><path d="M73.539,59.472s-1.246-.046-3.1-.163-4.3-.332-6.749-.527-4.891-.384-6.73-.45l-1.257-.039c-.377-.019-.7-.014-.972,0-.541.011-.856,0-.856,0a17.585,17.585,0,0,1,3.062-.6,37.007,37.007,0,0,1,6.842-.019,52.778,52.778,0,0,1,6.749,1.006c1.818.408,3.006.792,3.006.792" transform="translate(-53.88 -38.319)" fill="#f1eff0"/><path d="M73.075,64.623s-1.216-.069-3.022-.216l-6.586-.622c-1.192-.13-2.387-.22-3.505-.325-1.12-.088-2.165-.161-3.065-.218-.9-.028-1.653-.107-2.18-.088-.529-.007-.837-.026-.837-.026a19.032,19.032,0,0,1,3-.525,35.982,35.982,0,0,1,6.689.076,49.976,49.976,0,0,1,6.581,1.1c1.77.437,2.921.842,2.921.842" transform="translate(-53.88 -36.555)" fill="#f1eff0"/><path d="M71,70.448s-1.071-.117-2.654-.328l-2.692-.393c-.983-.137-2.024-.315-3.07-.446-2.085-.3-4.17-.552-5.744-.628-.4-.033-.753-.024-1.077-.037a5.427,5.427,0,0,0-.834.016c-.462.031-.738.035-.738.035s.248-.1.7-.248a5.614,5.614,0,0,1,.829-.216,7.82,7.82,0,0,1,1.1-.19,17.694,17.694,0,0,1,2.772-.108,28.17,28.17,0,0,1,3.153.275A35.9,35.9,0,0,1,68.492,69.5,26.6,26.6,0,0,1,71,70.448" transform="translate(-53.767 -34.628)" fill="#f1eff0"/><path d="M69.419,74.324s-.979-.016-2.424-.069-3.359-.184-5.268-.3L56.468,73.6l-1.748-.14c-.423-.035-.668-.071-.668-.071a18.826,18.826,0,0,1,2.4-.428,24.122,24.122,0,0,1,2.49-.172c.913-.03,1.885,0,2.856.057a32.283,32.283,0,0,1,5.284.78,20.576,20.576,0,0,1,2.336.7" transform="translate(-53.819 -32.889)" fill="#f1eff0"/><path d="M67.389,79.151s-.849.079-2.107.111-2.925-.016-4.586-.114-3.317-.263-4.562-.424c-.622-.071-1.143-.176-1.508-.218s-.575-.1-.575-.1a18.828,18.828,0,0,1,2.094-.316,31.484,31.484,0,0,1,4.618-.046,34.924,34.924,0,0,1,4.576.591c1.237.259,2.049.521,2.049.521" transform="translate(-53.819 -31.038)" fill="#f1eff0"/><path d="M64.363,83.643s-.622.079-1.536.111a32.12,32.12,0,0,1-3.311-.115c-1.195-.106-2.382-.263-3.277-.427-.447-.069-.823-.178-1.086-.22s-.416-.1-.416-.1a9.9,9.9,0,0,1,1.517-.313,16.694,16.694,0,0,1,3.357-.042,18.478,18.478,0,0,1,3.3.591,12.053,12.053,0,0,1,1.456.519" transform="translate(-53.575 -29.439)" fill="#f1eff0"/></g></g><path d="M63.837,53.434s-1.591-33.8,51.439-41.459,80.632,18.68,88.1,46.326c0,0-18.645-6.974-32.58.114s-17.431,16.329-39.586,16.329c-20.672,0-27.148-4.519-40.828-12.783C74.545,52.4,63.837,53.434,63.837,53.434" transform="translate(22.723 3.783)" fill="#521a1a"/><g transform="translate(91.477 18.557)" opacity="0.25"><g clip-path="url(#h)"><path d="M97.806,62.628a33.163,33.163,0,0,1,1.949-3.542,54.715,54.715,0,0,1,6.45-8.5,63.071,63.071,0,0,1,5.165-4.941,55.284,55.284,0,0,1,6.469-4.686,53.766,53.766,0,0,1,7.6-3.915,58.907,58.907,0,0,1,8.369-2.815c1.447-.305,2.892-.637,4.346-.875,1.463-.179,2.907-.475,4.362-.553a67.678,67.678,0,0,1,8.535-.25c1.382.087,2.747.08,4.071.241L159,33.24c2.495.446,4.872.772,7.013,1.33l3.086.721,2.74.816c1.722.5,3.215.961,4.419,1.421l3.808,1.356s-1.4-.441-3.856-1.208c-1.218-.412-2.724-.816-4.46-1.247l-2.758-.706-3.088-.644c-2.14-.51-4.51-.781-6.993-1.17l-3.852-.358c-1.313-.122-2.662-.125-4.03-.2a67.163,67.163,0,0,0-8.429.306c-1.436.087-2.857.391-4.3.576-1.431.243-2.85.584-4.275.89a57.95,57.95,0,0,0-8.257,2.712,53.162,53.162,0,0,0-7.512,3.8,63.251,63.251,0,0,0-6.46,4.521,62.618,62.618,0,0,0-5.216,4.781c-1.506,1.592-2.858,3.089-3.959,4.5s-2.029,2.659-2.736,3.73a33.024,33.024,0,0,0-2.079,3.458" transform="translate(-56.66 -6.982)" fill="#f1eff0"/><path d="M76.2,47.425a36.747,36.747,0,0,1,3.214-3.551,65.218,65.218,0,0,1,9.84-7.934,76.582,76.582,0,0,1,7.311-4.263,74.076,74.076,0,0,1,8.644-3.818,92.558,92.558,0,0,1,9.65-3A101.883,101.883,0,0,1,125.109,22.9c1.736-.225,3.469-.449,5.21-.556l2.6-.206,2.589-.1,2.568-.088,2.544.023c1.687.005,3.351.028,4.986.146,3.276.114,6.421.5,9.405.82,2.966.456,5.781.8,8.343,1.345l3.686.708q1.739.419,3.292.793c2.069.485,3.865.933,5.325,1.375l4.609,1.307-4.647-1.158c-1.473-.393-3.281-.781-5.36-1.2l-3.307-.683-3.688-.632c-2.563-.494-5.375-.788-8.334-1.186-2.974-.266-6.106-.579-9.36-.69-1.624-.106-3.279-.119-4.955-.115l-2.523-.008-2.549.1-2.57.111-2.575.22c-1.725.117-3.443.353-5.161.582a100.723,100.723,0,0,0-10.171,1.881,91.742,91.742,0,0,0-9.58,2.917,84.4,84.4,0,0,0-8.62,3.668,76.235,76.235,0,0,0-7.33,4.1,69.833,69.833,0,0,0-10.014,7.61,36.963,36.963,0,0,0-3.322,3.44" transform="translate(-64.353 -10.743)" fill="#f1eff0"/><path d="M67.462,47.325A26.133,26.133,0,0,1,69.272,43,44.245,44.245,0,0,1,76.4,32.884a36.032,36.032,0,0,1,2.856-2.816,35.872,35.872,0,0,1,3.291-2.758,36.711,36.711,0,0,1,3.706-2.617A36.9,36.9,0,0,1,90.345,22.3a65.1,65.1,0,0,1,9.095-3.945l4.871-1.52,5.013-1.128c1.669-.416,3.389-.59,5.056-.861s3.366-.458,5.05-.613l2.51-.25,2.49-.133c1.649-.095,3.279-.176,4.886-.157,1.6-.009,3.182-.039,4.726.062,1.544.066,3.054.123,4.518.275,1.464.123,2.891.243,4.26.439,1.374.167,2.7.34,3.961.57,1.268.2,2.479.411,3.62.667,1.146.229,2.225.481,3.234.742,2.024.491,3.764,1.014,5.188,1.469a46.149,46.149,0,0,1,4.407,1.615,46.356,46.356,0,0,0-4.453-1.466c-1.433-.407-3.185-.871-5.218-1.292-1.013-.225-2.095-.442-3.243-.632-1.143-.217-2.35-.416-3.614-.588-1.261-.2-2.582-.353-3.95-.494-1.365-.171-2.784-.262-4.243-.357-1.456-.125-2.957-.153-4.491-.19-1.534-.062-3.1-.045-4.693-.019-1.595-.009-3.212.081-4.849.186l-2.469.148-2.479.262c-1.661.163-3.333.346-5.013.64s-3.367.465-5.01.883L104.538,17.7l-4.82,1.471a64.54,64.54,0,0,0-9,3.839,40.963,40.963,0,0,0-4.061,2.319,35.817,35.817,0,0,0-3.7,2.515,35.053,35.053,0,0,0-3.3,2.663,35.648,35.648,0,0,0-2.875,2.732,48.618,48.618,0,0,0-4.483,5.3,42.8,42.8,0,0,0-2.884,4.524,26.134,26.134,0,0,0-1.947,4.256" transform="translate(-67.462 -13.685)" fill="#f1eff0"/><path d="M83.439,52.161a42.778,42.778,0,0,1,3.012-3.178A75.294,75.294,0,0,1,95.332,41.6c1.953-1.387,4.133-2.8,6.5-4.194a80.675,80.675,0,0,1,7.675-3.959,87.013,87.013,0,0,1,8.605-3.361c1.505-.462,3.006-.98,4.555-1.359l2.315-.616,2.343-.511a88.76,88.76,0,0,1,9.431-1.439c1.565-.167,3.128-.221,4.666-.335,1.54-.072,3.064-.062,4.563-.095,3,.031,5.89.169,8.62.465,1.37.1,2.69.286,3.968.476s2.518.315,3.69.564c2.349.458,4.51.837,6.383,1.36,1.882.485,3.532.858,4.857,1.3l4.187,1.276-4.228-1.125c-1.336-.393-3-.708-4.89-1.124-1.885-.452-4.052-.75-6.395-1.172-1.169-.225-2.41-.316-3.68-.49s-2.59-.323-3.951-.393c-2.717-.239-5.591-.306-8.56-.335-1.485.043-3,.042-4.522.123-1.523.123-3.071.187-4.62.363a88.954,88.954,0,0,0-9.328,1.483l-2.323.49-2.294.6c-1.535.365-3.024.868-4.518,1.315a85.947,85.947,0,0,0-8.545,3.275,89.331,89.331,0,0,0-14.2,7.848A83.353,83.353,0,0,0,86.556,49.1a42.871,42.871,0,0,0-3.117,3.066" transform="translate(-61.774 -9.398)" fill="#f1eff0"/><path d="M89.952,58.425a35.86,35.86,0,0,1,2.366-3.49,60.281,60.281,0,0,1,7.473-8.244,65.625,65.625,0,0,1,20.833-13,70.09,70.09,0,0,1,8.765-2.792c1.5-.347,3.018-.641,4.525-.934,1.521-.207,3.029-.481,4.538-.629a85.633,85.633,0,0,1,8.888-.471c1.444.039,2.864.038,4.251.11,1.383.115,2.738.226,4.056.335s2.585.336,3.818.491l1.814.248,1.734.327,3.248.622c1.026.217,1.986.488,2.895.708,1.816.452,3.4.846,4.673,1.266l4.033,1.23-4.073-1.079c-1.288-.373-2.881-.709-4.707-1.092-.914-.186-1.878-.42-2.909-.6l-3.246-.544L161.2,30.6l-1.809-.21c-1.229-.127-2.494-.32-3.8-.408l-4.03-.248-4.212-.066a85.126,85.126,0,0,0-8.794.526c-1.492.156-2.979.438-4.482.652-1.486.3-2.98.6-4.461.951a69.54,69.54,0,0,0-8.671,2.7,65.869,65.869,0,0,0-7.995,3.673,76.916,76.916,0,0,0-7.006,4.328,69.588,69.588,0,0,0-5.8,4.579,65.688,65.688,0,0,0-7.7,7.954,35.8,35.8,0,0,0-2.488,3.4" transform="translate(-59.456 -8.281)" fill="#f1eff0"/><path d="M108.613,61.045a23.967,23.967,0,0,1,1.524-2.593c.54-.789,1.195-1.757,2.03-2.8L113.509,54c.5-.561,1.051-1.123,1.612-1.725a21.39,21.39,0,0,1,1.836-1.8c.663-.591,1.322-1.235,2.048-1.839a45.97,45.97,0,0,1,4.816-3.484c.883-.533,1.742-1.143,2.683-1.634l2.88-1.447a21.9,21.9,0,0,1,3-1.292l3.083-1.176c2.126-.565,4.255-1.157,6.372-1.6,2.147-.287,4.248-.671,6.3-.857l5.935-.19c1.885.052,3.661.248,5.3.351l2.351.18c.744.076,1.437.247,2.1.355l3.4.625,2.951.561-2.98-.385c-.946-.127-2.095-.282-3.412-.461-.66-.076-1.355-.213-2.1-.254l-2.342-.1c-1.633-.054-3.4-.2-5.264-.2l-5.863.315c-2.022.2-4.091.6-6.2.9-2.081.453-4.168,1.058-6.254,1.629l-3.041,1.127a21.166,21.166,0,0,0-2.967,1.242l-2.845,1.4c-.932.473-1.782,1.067-2.656,1.582a57.062,57.062,0,0,0-4.82,3.328c-.732.575-1.4,1.191-2.072,1.756a21.108,21.108,0,0,0-1.867,1.723c-.575.576-1.127,1.131-1.652,1.656l-1.406,1.577c-.879.993-1.573,1.923-2.146,2.682-.552.778-.993,1.386-1.258,1.824-.283.426-.414.667-.414.667" transform="translate(-52.813 -5.398)" fill="#f1eff0"/><path d="M129.035,56.319a12.7,12.7,0,0,1,.631-1.905A19.854,19.854,0,0,1,130.7,52.35a20.927,20.927,0,0,1,1.671-2.5,24.216,24.216,0,0,1,2.467-2.578,22.6,22.6,0,0,1,3.168-2.43c.582-.374,1.224-.667,1.85-1.012a12.79,12.79,0,0,1,1.953-.921,26.317,26.317,0,0,1,4.175-1.39l2.148-.513,2.171-.271,2.134-.263c.706-.035,1.406-.033,2.094-.05a30.039,30.039,0,0,1,3.958.058c1.25.117,2.434.225,3.526.325a21.782,21.782,0,0,1,2.949.465l2.258.439,1.961.4-1.992-.213-2.277-.264c-.88-.087-1.863-.26-2.952-.275-1.085-.05-2.259-.1-3.5-.159a12.259,12.259,0,0,0-1.907,0l-1.991.076c-.675.027-1.363.034-2.056.08l-2.083.29-2.115.3-2.081.529a25.341,25.341,0,0,0-4.068,1.285,12.1,12.1,0,0,0-1.9.86c-.607.324-1.237.6-1.8.951a28.8,28.8,0,0,0-3.142,2.241A23.484,23.484,0,0,0,132.8,50.2c-.659.849-1.323,1.589-1.786,2.338a19.724,19.724,0,0,0-1.176,1.951,16.184,16.184,0,0,0-.8,1.825" transform="translate(-45.543 -4.18)" fill="#f1eff0"/><path d="M72.885,45.747A33.247,33.247,0,0,1,75.7,41.862a56.95,56.95,0,0,1,9.115-8.776,68.19,68.19,0,0,1,7.04-4.722,65.187,65.187,0,0,1,8.492-4.182,75.8,75.8,0,0,1,9.6-3.214c1.677-.4,3.356-.866,5.078-1.157l2.576-.494,2.6-.367c1.733-.27,3.481-.4,5.221-.536,1.737-.183,3.475-.184,5.2-.252,1.722-.095,3.432,0,5.12.008,1.69-.005,3.352.136,4.989.237l2.434.157,2.376.273c1.565.206,3.107.316,4.586.59l4.317.708c1.394.225,2.721.552,4.007.805,1.279.279,2.515.5,3.672.795l3.28.857,2.881.753,2.419.736,4.587,1.4-4.629-1.25-2.438-.656-2.9-.658c-2.068-.481-4.4-1.01-6.974-1.466-1.285-.229-2.613-.532-4.006-.73l-4.311-.626c-1.475-.245-3.012-.325-4.57-.5L143.1,19.35l-2.419-.142c-1.626-.091-3.277-.221-4.955-.2-1.676,0-3.372-.081-5.079.023-1.707.079-3.432.088-5.151.281-1.722.146-3.452.286-5.166.559l-2.578.348-2.552.475c-1.707.277-3.37.728-5.032,1.113a75.27,75.27,0,0,0-9.518,3.121,73.223,73.223,0,0,0-8.461,4.023A67.928,67.928,0,0,0,85.124,33.5c-2.087,1.559-3.911,3.1-5.477,4.533-1.549,1.447-2.82,2.789-3.832,3.93a33.275,33.275,0,0,0-2.93,3.785" transform="translate(-65.531 -12.106)" fill="#f1eff0"/></g></g><path d="M44.18,246.237,38.016,192.23l-35.824,19L0,246.237Z" transform="translate(0 68.429)" fill="#dd190a"/><path d="M230.281,246.237l.2-34.167-37.452-19.84-6.155,54.007Z" transform="translate(66.522 68.429)" fill="#dd190a"/><path d="M243.878,249.59l5.7-54.007L185.7,182.812l-46.9,22.193L92.818,182.812,28.036,195.583,33.8,249.59Z" transform="translate(9.98 65.077)" fill="#dd190a"/><path d="M65.53,248.575V185.662l-19.861,4.323v58.59Z" transform="translate(16.257 66.091)" fill="#161615"/><path d="M181.244,248.375V190.194l-19.853-3.969v62.15Z" transform="translate(57.451 66.292)" fill="#161615"/><path d="M118.542,94.948c-5.444,0-26.431,33.315-26.431,33.315h52.855s-21-33.315-26.424-33.315" transform="translate(32.789 33.799)" fill="#191817"/><path d="M136.5,110.289c-3.8-2.342-18.906-4.56-26.235,0-18.6,11.558-34.907,52.644-31.25,69.879,1.8,7.711,10.432,16.367,18.1,18.182a127.546,127.546,0,0,0,52.531,0c7.671-1.816,16.3-10.471,18.112-18.182,3.638-17.234-12.072-58.048-31.262-69.879" transform="translate(27.942 38.316)" fill="#272726"/><path d="M151.515,153.573a31.61,31.61,0,1,1-31.621-31.608,31.615,31.615,0,0,1,31.621,31.608" transform="translate(31.431 43.417)" fill="#4c4c4b"/><path d="M112,124.022a33,33,0,0,1,.964,6.586,57.136,57.136,0,0,1-.212,6.589l-.321,6.589c-.142,2.2-.258,4.4-.431,6.591h-.21c-.176-2.193-.287-4.391-.431-6.591l-.321-6.589a57.437,57.437,0,0,1-.209-6.589,33.189,33.189,0,0,1,.961-6.586Z" transform="translate(39.434 44.149)" fill="#272726"/><path d="M112,124.022a33,33,0,0,1,.964,6.586,57.136,57.136,0,0,1-.212,6.589l-.321,6.589c-.142,2.2-.258,4.4-.431,6.591h-.21c-.176-2.193-.287-4.391-.431-6.591l-.321-6.589a57.437,57.437,0,0,1-.209-6.589,33.189,33.189,0,0,1,.961-6.586Z" transform="translate(39.434 44.149)" fill="#272726"/><path d="M112,147.085c.174,2.194.289,4.4.431,6.589l.321,6.591a57.192,57.192,0,0,1,.212,6.591,32.96,32.96,0,0,1-.964,6.579h-.21a33.152,33.152,0,0,1-.961-6.579,57.494,57.494,0,0,1,.209-6.591l.321-6.591c.144-2.193.255-4.395.431-6.589Z" transform="translate(39.434 52.359)" fill="#272726"/><path d="M139.767,145.67a33.586,33.586,0,0,1-6.589.97,59,59,0,0,1-6.583-.218l-6.587-.319c-2.193-.145-4.393-.259-6.594-.433v-.216c2.2-.168,4.4-.282,6.594-.427l6.587-.32a60.323,60.323,0,0,1,6.583-.216,34.09,34.09,0,0,1,6.589.963Z" transform="translate(40.373 51.42)" fill="#272726"/><path d="M139.767,145.67a33.586,33.586,0,0,1-6.589.97,59,59,0,0,1-6.583-.218l-6.587-.319c-2.193-.145-4.393-.259-6.594-.433v-.216c2.2-.168,4.4-.282,6.594-.427l6.587-.32a60.323,60.323,0,0,1,6.583-.216,34.09,34.09,0,0,1,6.589.963Z" transform="translate(40.373 51.42)" fill="#272726"/><path d="M116.71,145.67c-2.2.174-4.4.287-6.594.433l-6.583.319a59.115,59.115,0,0,1-6.587.218,33.853,33.853,0,0,1-6.591-.97v-.216a34.363,34.363,0,0,1,6.591-.963,60.442,60.442,0,0,1,6.587.216l6.583.32c2.193.145,4.4.259,6.594.427Z" transform="translate(32.164 51.42)" fill="#272726"/><path d="M96.679,130.189a33.4,33.4,0,0,1,5.334,3.984,57.07,57.07,0,0,1,4.509,4.807l4.433,4.883c1.445,1.661,2.923,3.288,4.358,4.966l-.159.148c-1.679-1.433-3.306-2.9-4.957-4.357l-4.887-4.426a58.93,58.93,0,0,1-4.812-4.511,33.447,33.447,0,0,1-3.977-5.34Z" transform="translate(34.359 46.344)" fill="#272726"/><path d="M96.679,130.189a33.4,33.4,0,0,1,5.334,3.984,57.07,57.07,0,0,1,4.509,4.807l4.433,4.883c1.445,1.661,2.923,3.288,4.358,4.966l-.159.148c-1.679-1.433-3.306-2.9-4.957-4.357l-4.887-4.426a58.93,58.93,0,0,1-4.812-4.511,33.447,33.447,0,0,1-3.977-5.34Z" transform="translate(34.359 46.344)" fill="#272726"/><path d="M112.981,146.5c1.675,1.433,3.306,2.9,4.953,4.355l4.9,4.429a59.5,59.5,0,0,1,4.807,4.511,33.5,33.5,0,0,1,3.973,5.341l-.152.149a33.565,33.565,0,0,1-5.341-3.978,55.892,55.892,0,0,1-4.5-4.807l-4.433-4.888c-1.458-1.654-2.929-3.287-4.361-4.959Z" transform="translate(40.164 52.15)" fill="#272726"/><path d="M131.614,130.343a33.426,33.426,0,0,1-3.973,5.34,59.984,59.984,0,0,1-4.807,4.511l-4.9,4.426c-1.648,1.452-3.279,2.923-4.953,4.357l-.153-.148c1.432-1.677,2.9-3.306,4.361-4.966l4.433-4.883a57.414,57.414,0,0,1,4.5-4.807,33.761,33.761,0,0,1,5.341-3.984Z" transform="translate(40.164 46.345)" fill="#272726"/><path d="M131.614,130.343a33.426,33.426,0,0,1-3.973,5.34,59.984,59.984,0,0,1-4.807,4.511l-4.9,4.426c-1.648,1.452-3.279,2.923-4.953,4.357l-.153-.148c1.432-1.677,2.9-3.306,4.361-4.966l4.433-4.883a57.414,57.414,0,0,1,4.5-4.807,33.761,33.761,0,0,1,5.341-3.984Z" transform="translate(40.164 46.345)" fill="#272726"/><path d="M115.312,146.652c-1.435,1.671-2.913,3.3-4.358,4.959l-4.433,4.888a56.656,56.656,0,0,1-4.51,4.807,33.124,33.124,0,0,1-5.333,3.977l-.159-.148a33.511,33.511,0,0,1,3.977-5.343,58.672,58.672,0,0,1,4.812-4.51l4.887-4.429c1.65-1.452,3.277-2.922,4.957-4.355Z" transform="translate(34.359 52.15)" fill="#272726"/><path d="M104.607,125.227a33.016,33.016,0,0,1,3.117,5.886,58.927,58.927,0,0,1,2.007,6.274l1.908,6.312c.6,2.122,1.23,4.225,1.8,6.35l-.2.076c-.89-2.007-1.741-4.039-2.613-6.067l-2.509-6.1a59.306,59.306,0,0,1-2.411-6.126A34.693,34.693,0,0,1,104.4,125.3Z" transform="translate(37.164 44.578)" fill="#272726"/><path d="M104.607,125.227a33.016,33.016,0,0,1,3.117,5.886,58.927,58.927,0,0,1,2.007,6.274l1.908,6.312c.6,2.122,1.23,4.225,1.8,6.35l-.2.076c-.89-2.007-1.741-4.039-2.613-6.067l-2.509-6.1a59.306,59.306,0,0,1-2.411-6.126A34.693,34.693,0,0,1,104.4,125.3Z" transform="translate(37.164 44.578)" fill="#272726"/><path d="M112.339,146.955c.892,2.007,1.737,4.044,2.62,6.067l2.5,6.1a57.5,57.5,0,0,1,2.411,6.132,32.6,32.6,0,0,1,1.309,6.53l-.213.076a33.1,33.1,0,0,1-3.111-5.892,59.131,59.131,0,0,1-2.012-6.273l-1.9-6.317c-.6-2.119-1.231-4.223-1.814-6.345Z" transform="translate(39.916 52.312)" fill="#272726"/><path d="M138.188,138.279a33.594,33.594,0,0,1-5.894,3.113,59.742,59.742,0,0,1-6.277,2.008l-6.309,1.9c-2.117.6-4.228,1.231-6.355,1.809l-.06-.2c2-.895,4.034-1.742,6.054-2.612l6.1-2.5a57.3,57.3,0,0,1,6.13-2.419,33.937,33.937,0,0,1,6.533-1.3Z" transform="translate(40.329 49.15)" fill="#272726"/><path d="M138.188,138.279a33.594,33.594,0,0,1-5.894,3.113,59.742,59.742,0,0,1-6.277,2.008l-6.309,1.9c-2.117.6-4.228,1.231-6.355,1.809l-.06-.2c2-.895,4.034-1.742,6.054-2.612l6.1-2.5a57.3,57.3,0,0,1,6.13-2.419,33.937,33.937,0,0,1,6.533-1.3Z" transform="translate(40.329 49.15)" fill="#272726"/><path d="M116.458,146.011c-2.012.892-4.046,1.737-6.068,2.613l-6.1,2.513a59.316,59.316,0,0,1-6.134,2.411,33.555,33.555,0,0,1-6.534,1.292l-.065-.2a33.514,33.514,0,0,1,5.88-3.113,56.293,56.293,0,0,1,6.28-2.012l6.309-1.9c2.119-.6,4.229-1.231,6.357-1.808Z" transform="translate(32.594 51.903)" fill="#272726"/><path d="M92.466,136.083a33.383,33.383,0,0,1,6.36,1.959,57.57,57.57,0,0,1,5.862,3.013l5.818,3.126c1.923,1.07,3.852,2.11,5.772,3.211l-.092.193c-2.065-.785-4.092-1.626-6.144-2.435l-6.091-2.54a58.5,58.5,0,0,1-6.034-2.635,33.489,33.489,0,0,1-5.541-3.7Z" transform="translate(32.884 48.442)" fill="#272726"/><path d="M92.466,136.083a33.383,33.383,0,0,1,6.36,1.959,57.57,57.57,0,0,1,5.862,3.013l5.818,3.126c1.923,1.07,3.852,2.11,5.772,3.211l-.092.193c-2.065-.785-4.092-1.626-6.144-2.435l-6.091-2.54a58.5,58.5,0,0,1-6.034-2.635,33.489,33.489,0,0,1-5.541-3.7Z" transform="translate(32.884 48.442)" fill="#272726"/><path d="M113.3,145.978c2.06.791,4.081,1.631,6.129,2.439l6.091,2.536a58.225,58.225,0,0,1,6.04,2.637,33.283,33.283,0,0,1,5.541,3.7l-.092.19a32.409,32.409,0,0,1-6.365-1.951,58.219,58.219,0,0,1-5.861-3.02l-5.808-3.119c-1.923-1.074-3.858-2.119-5.771-3.21Z" transform="translate(40.299 51.965)" fill="#272726"/><path d="M123.812,126.137a33.848,33.848,0,0,1-1.951,6.366,57.79,57.79,0,0,1-3.031,5.855l-3.115,5.816c-1.075,1.915-2.109,3.852-3.212,5.763l-.2-.088c.793-2.057,1.634-4.09,2.443-6.136l2.532-6.092a57.126,57.126,0,0,1,2.64-6.04,32.491,32.491,0,0,1,3.7-5.534Z" transform="translate(39.979 44.87)" fill="#272726"/><path d="M123.812,126.137a33.848,33.848,0,0,1-1.951,6.366,57.79,57.79,0,0,1-3.031,5.855l-3.115,5.816c-1.075,1.915-2.109,3.852-3.212,5.763l-.2-.088c.793-2.057,1.634-4.09,2.443-6.136l2.532-6.092a57.126,57.126,0,0,1,2.64-6.04,32.491,32.491,0,0,1,3.7-5.534Z" transform="translate(39.979 44.87)" fill="#272726"/><path d="M113.917,146.971c-.792,2.052-1.627,4.084-2.442,6.136l-2.537,6.082a58.341,58.341,0,0,1-2.637,6.049,32.463,32.463,0,0,1-3.7,5.534l-.191-.094a33.36,33.36,0,0,1,1.968-6.361,57.305,57.305,0,0,1,3.009-5.855l3.123-5.818c1.07-1.917,2.119-3.858,3.218-5.766Z" transform="translate(36.456 52.285)" fill="#272726"/><path d="M175.537,162.751c-4.91,20.675-19.083,35.019-31.658,32.028s-18.8-22.165-13.891-42.842,19.08-35.01,31.655-32.028,18.8,22.159,13.893,42.842" transform="translate(45.676 42.545)" fill="#2e2e2d"/><path d="M147.069,182.944a11.02,11.02,0,0,1-2.542-.3c-4.56-1.082-8.152-5-10.112-11.046-1.951-6.015-2.052-13.415-.285-20.839,3.261-13.741,12.323-24.1,21.079-24.1a10.97,10.97,0,0,1,2.537.3c4.559,1.081,8.148,5,10.109,11.047,1.949,6.014,2.053,13.412.293,20.836-3.265,13.743-12.327,24.107-21.079,24.107" transform="translate(47.3 45.088)" fill="#4c4c4b"/><path d="M155.254,126.883a10.752,10.752,0,0,1,2.5.292c9.3,2.2,13.892,16.386,10.27,31.667-3.31,13.927-12.3,23.97-20.906,23.97a10.786,10.786,0,0,1-2.5-.292c-9.3-2.2-13.9-16.38-10.265-31.67,3.306-13.926,12.3-23.967,20.905-23.967m0-.355h0c-8.837,0-17.972,10.422-21.252,24.239-1.774,7.455-1.671,14.89.289,20.935,1.98,6.1,5.616,10.068,10.24,11.164a11.139,11.139,0,0,0,2.583.3c8.831,0,17.968-10.423,21.252-24.245,1.767-7.454,1.661-14.887-.3-20.93-1.98-6.106-5.615-10.071-10.236-11.165a11.1,11.1,0,0,0-2.578-.3" transform="translate(47.254 45.041)" fill="#fff"/><path d="M132.575,152.181c4.909-20.675,19.08-35.01,31.655-32.03-12.575-2.98-33.486-3.714-41.417,29.715-7.621,32.1,11.074,42.17,23.651,45.155-12.577-2.986-18.8-22.165-13.889-42.841" transform="translate(43.089 42.302)" fill="#222221"/><path d="M139.462,134.037l23.4-1.974a15.054,15.054,0,0,0-2.875-3.311l-16.849,1.418a27.687,27.687,0,0,0-3.677,3.867" transform="translate(49.645 45.832)" fill="#272726"/><path d="M136.136,139.682l30.811-2.594a27.724,27.724,0,0,0-1.143-3.459l-27.7,2.331a39.331,39.331,0,0,0-1.966,3.722" transform="translate(48.461 47.569)" fill="#272726"/><path d="M134.2,145.1l34.468-2.9c-.057-1.207-.165-2.391-.328-3.523l-32.995,2.772c-.428,1.178-.8,2.4-1.144,3.65" transform="translate(47.773 49.368)" fill="#272726"/><path d="M133.2,150.4l35.585-3c.149-1.214.233-2.4.273-3.581L133.751,146.8c-.224,1.212-.426,2.411-.551,3.6" transform="translate(47.416 51.196)" fill="#272726"/><path d="M133.1,155.553l34.324-2.89c.171-.61.348-1.2.5-1.835.137-.6.25-1.2.365-1.789L133.037,152c-.033,1.2-.007,2.388.065,3.549" transform="translate(47.353 53.055)" fill="#272726"/><path d="M134.1,160.578l30.505-2.566a37.77,37.77,0,0,0,1.566-3.686l-32.839,2.761a32.321,32.321,0,0,0,.767,3.49" transform="translate(47.465 54.937)" fill="#272726"/><path d="M162.162,159.71l-27.4,2.3a19.779,19.779,0,0,0,1.864,3.4l22.833-1.916a35.637,35.637,0,0,0,2.7-3.782" transform="translate(47.973 56.853)" fill="#272726"/><path d="M138.351,166.629a11.147,11.147,0,0,0,4.267,2.1c3.926.934,8.048-.435,11.8-3.452Z" transform="translate(49.25 58.834)" fill="#272726"/><path d="M60.509,162.751c4.909,20.675,19.08,35.019,31.661,32.028s18.8-22.165,13.882-42.842-19.072-35.01-31.658-32.028-18.788,22.159-13.885,42.842" transform="translate(20.943 42.545)" fill="#2e2e2d"/><path d="M85.719,182.944c-8.757,0-17.813-10.365-21.069-24.107-1.763-7.423-1.661-14.822.287-20.836,1.959-6.044,5.549-9.966,10.107-11.047a10.97,10.97,0,0,1,2.537-.3c8.758,0,17.823,10.362,21.085,24.1,1.763,7.425,1.658,14.826-.293,20.839-1.959,6.042-5.553,9.965-10.116,11.046A11,11,0,0,1,85.719,182.944Z" transform="translate(22.568 45.088)" fill="#4c4c4b"/><path d="M77.63,126.883c8.608,0,17.606,10.041,20.912,23.967,3.627,15.29-.972,29.467-10.277,31.67a10.755,10.755,0,0,1-2.5.292c-8.6,0-17.6-10.042-20.9-23.97-3.629-15.282.968-29.465,10.263-31.667a10.752,10.752,0,0,1,2.5-.292m0-.355a11.1,11.1,0,0,0-2.579.3c-4.621,1.094-8.257,5.059-10.235,11.165-1.959,6.044-2.062,13.477-.293,20.93,3.275,13.821,12.407,24.245,21.243,24.245a11.136,11.136,0,0,0,2.582-.3c4.624-1.1,8.263-5.061,10.243-11.164,1.961-6.042,2.067-13.477.3-20.935-3.281-13.819-12.419-24.239-21.258-24.239" transform="translate(22.521 45.041)" fill="#fff"/><path d="M101.967,152.181c-4.9-20.675-19.072-35.01-31.658-32.03,12.586-2.98,33.487-3.714,41.426,29.715,7.617,32.1-11.076,42.17-23.651,45.155,12.575-2.986,18.8-22.165,13.882-42.841" transform="translate(25.028 42.302)" fill="#222221"/><path d="M89.886,134.037l-23.4-1.974a14.973,14.973,0,0,1,2.872-3.311l16.853,1.418a27.277,27.277,0,0,1,3.673,3.867" transform="translate(23.668 45.832)" fill="#272726"/><path d="M95.161,139.682l-30.812-2.594a25.663,25.663,0,0,1,1.147-3.459l27.693,2.331c.7,1.172,1.353,2.414,1.972,3.722" transform="translate(22.907 47.569)" fill="#272726"/><path d="M98.039,145.1l-34.458-2.9c.069-1.207.169-2.391.335-3.523L96.9,141.455c.428,1.178.8,2.4,1.135,3.65" transform="translate(22.633 49.368)" fill="#272726"/><path d="M99.424,150.4l-35.589-3c-.144-1.214-.235-2.4-.274-3.581l35.3,2.976c.228,1.212.428,2.411.563,3.6" transform="translate(22.626 51.196)" fill="#272726"/><path d="M99.368,155.553l-34.331-2.89c-.172-.61-.346-1.2-.491-1.835-.146-.6-.252-1.2-.37-1.789L99.425,152c.034,1.2.009,2.388-.057,3.549" transform="translate(22.845 53.055)" fill="#272726"/><path d="M97.716,160.578l-30.493-2.566c-.564-1.178-1.1-2.407-1.577-3.686l32.85,2.761a31.068,31.068,0,0,1-.78,3.49" transform="translate(23.368 54.937)" fill="#272726"/><path d="M68.243,159.71l27.385,2.3a19.335,19.335,0,0,1-1.866,3.4l-22.825-1.916a33.948,33.948,0,0,1-2.694-3.782" transform="translate(24.293 56.853)" fill="#272726"/><path d="M89.074,166.629a11.244,11.244,0,0,1-4.277,2.1c-3.913.934-8.037-.435-11.789-3.452Z" transform="translate(25.989 58.834)" fill="#272726"/><path d="M216.739,62.259H53.151c-8,0-13.633,6.741-9.213,11.66,3.662,4.067,8.015,9.115,11.985,13.539,4.411,4.926,8.36,10.634,13.229,10.634h131.58c4.871,0,8.822-5.707,13.229-10.634,3.966-4.425,8.323-9.473,11.984-13.539,4.422-4.919-1.212-11.66-9.207-11.66" transform="translate(15.089 22.163)" fill="#fb0"/><path d="M43.489,65.6a5.832,5.832,0,0,0-1.064,4l1.494,2.046c3.665,4.068,8.019,9.116,11.987,13.543,4.408,4.918,8.362,10.625,13.226,10.625H200.72c2.759,0,5.223-1.835,7.645-4.317-23.707.178-140.97,5.4-164.876-25.9" transform="translate(15.088 23.352)" fill="#fd9e00"/><path d="M43.53,70.858l5.889,6.414c1.866,2.049,4.133,4.536,6.732,7.389,1.3,1.429,2.633,3,4.1,4.572A22.345,22.345,0,0,0,65.3,93.564a7.082,7.082,0,0,0,3.231.963c1.2.023,2.484-.012,3.755-.016l7.928-.069,17.118-.114,37.2-.108,37.2.107,17.118.113,7.928.069c1.264.005,2.574.038,3.737.019a6.07,6.07,0,0,0,1.69-.286,8.414,8.414,0,0,0,1.559-.678,22.271,22.271,0,0,0,5.047-4.33c1.467-1.573,2.8-3.142,4.1-4.571l6.732-7.39c3.747-4.081,5.889-6.414,5.889-6.414l-5.653,6.625-6.514,7.579c-1.254,1.459-2.536,3.063-3.974,4.7a22.46,22.46,0,0,1-5.176,4.6,9.39,9.39,0,0,1-1.721.782,7.176,7.176,0,0,1-1.909.362c-1.3.046-2.513.031-3.808.052l-7.928.069c-5.442.037-11.181.075-17.118.113-11.873.035-24.538.071-37.2.107l-37.2-.107c-5.936-.041-11.675-.079-17.118-.114l-7.928-.071c-1.287-.019-2.521-.005-3.79-.05a8.007,8.007,0,0,1-3.646-1.146,22.39,22.39,0,0,1-5.173-4.6c-1.441-1.635-2.72-3.237-3.976-4.7l-6.515-7.577L43.53,70.858" transform="translate(15.496 25.224)" fill="#d37000"/><path d="M221.786,87.85c-.708-46.8-39.835-84.532-88.029-84.532S46.431,41.052,45.726,87.85Z" transform="translate(16.277 1.181)" fill="#fb0"/><g transform="translate(62.032 29.944)" style="mix-blend-mode:multiply;isolation:isolate"><g clip-path="url(#i)"><path d="M73.222,59.508c-9-10.779-7.482-24.5-2.043-37.426A84.481,84.481,0,0,0,45.747,79.5c.1.5.184,1.006.289,1.5l.626.168H221.746a84.92,84.92,0,0,0-1.172-12.8C183.1,78.636,93.75,84.089,73.222,59.508" transform="translate(-45.747 -22.083)" fill="#e8e8e8"/></g></g><path d="M82.1,74.185,98.725,8.032A7.534,7.534,0,0,1,106.354.6h28.911a7.53,7.53,0,0,1,7.625,7.433l16.626,66.153" transform="translate(29.225 0.213)" fill="#fb0"/><path d="M83.668,76.922l3.319-17.233c1.1-5.745,2.271-11.477,3.42-17.211l3.46-17.2,3.569-17.18-.016.155A8.2,8.2,0,0,1,100.45,1.93a8.5,8.5,0,0,1,3.2-1.608,13.029,13.029,0,0,1,3.455-.287L120.25,0l13.139.033a12.958,12.958,0,0,1,3.456.286,8.494,8.494,0,0,1,3.2,1.61,8.2,8.2,0,0,1,3.029,6.319l-.011-.122L145.915,25.7l2.74,17.591c.907,5.865,1.84,11.725,2.7,17.6L153.95,78.5l-3.214-17.512c-1.077-5.836-2.081-11.684-3.111-17.53l-3.07-17.535L141.594,8.369l-.009-.06V8.247a6.68,6.68,0,0,0-2.5-5.131,6.955,6.955,0,0,0-2.629-1.3,11.578,11.578,0,0,0-3.071-.221l-13.139.033-13.141-.034a11.552,11.552,0,0,0-3.071.221,6.975,6.975,0,0,0-2.629,1.3,6.683,6.683,0,0,0-2.5,5.132v.079l-.016.075-3.68,17.157L91.426,42.692C90.158,48.4,88.913,54.117,87.6,59.818Z" transform="translate(29.784)" fill="#f37e00"/><path d="M92.721,15.5S65.911,37.568,66.328,74.014" transform="translate(23.61 5.517)" fill="#fb0"/><path d="M92.745,15.5s-.753.712-1.985,2.031S87.821,20.78,85.9,23.194c-.984,1.186-1.966,2.538-3,3.968s-2.018,3.01-3.089,4.6c-.965,1.661-2.075,3.311-2.983,5.111q-.716,1.332-1.44,2.679c-.462.907-.861,1.851-1.295,2.776-.418.934-.9,1.837-1.268,2.789l-1.1,2.834c-.785,1.858-1.3,3.772-1.894,5.6-.632,1.816-.971,3.642-1.41,5.349-.2.858-.433,1.687-.579,2.5q-.187,1.231-.362,2.373c-.2,1.525-.511,2.915-.624,4.163s-.184,2.343-.255,3.241c-.163,1.8-.256,2.835-.256,2.835s-.022-1.033-.061-2.843c-.009-.909-.02-2.011-.033-3.276s.182-2.685.32-4.239q.114-1.165.237-2.424c.1-.834.3-1.684.449-2.566a45.665,45.665,0,0,1,1.193-5.505,55.5,55.5,0,0,1,1.8-5.753q.545-1.442,1.094-2.9c.363-.975.847-1.9,1.268-2.857.452-.94.869-1.9,1.348-2.819l1.493-2.719a28.569,28.569,0,0,1,1.554-2.622l1.6-2.506c1.117-1.6,2.217-3.139,3.341-4.529s2.189-2.7,3.246-3.85c1.01-1.186,2.048-2.176,2.937-3.073.917-.873,1.715-1.631,2.4-2.228,1.36-1.2,2.2-1.8,2.2-1.8" transform="translate(23.586 5.517)" fill="#f37e00"/><path d="M135.5,15.5s26.8,22.071,26.389,58.517" transform="translate(48.234 5.517)" fill="#fb0"/><path d="M135.5,15.5s.845.6,2.2,1.8c.683.6,1.483,1.355,2.4,2.228.89.9,1.925,1.886,2.936,3.074,1.058,1.146,2.122,2.457,3.246,3.848s2.224,2.928,3.34,4.529q.789,1.235,1.6,2.506a28.592,28.592,0,0,1,1.554,2.624q.74,1.351,1.492,2.717c.48.922.9,1.879,1.348,2.82.42.955.906,1.882,1.268,2.857s.731,1.942,1.094,2.9a55.384,55.384,0,0,1,1.8,5.753,45.713,45.713,0,0,1,1.195,5.5c.152.881.344,1.732.449,2.567q.122,1.255.236,2.424c.138,1.553.324,2.971.32,4.237s-.023,2.368-.033,3.276c-.039,1.81-.061,2.843-.061,2.843s-.094-1.031-.255-2.834c-.072-.9-.157-1.991-.256-3.242s-.424-2.637-.624-4.163c-.115-.759-.236-1.553-.361-2.372-.148-.816-.384-1.645-.58-2.5-.438-1.706-.777-3.532-1.409-5.349-.591-1.825-1.111-3.74-1.894-5.6l-1.1-2.834c-.362-.952-.85-1.856-1.266-2.789-.435-.925-.833-1.869-1.295-2.776q-.724-1.349-1.44-2.679c-.908-1.8-2.016-3.45-2.983-5.111-1.07-1.592-2.053-3.174-3.088-4.6s-2.014-2.782-3-3.969c-1.919-2.412-3.611-4.358-4.857-5.664S135.5,15.5,135.5,15.5" transform="translate(48.234 5.517)" fill="#f37e00"/><g transform="translate(109.502 12.156)" style="mix-blend-mode:soft-light;isolation:isolate"><g clip-path="url(#j)"><path d="M159.993,26.511c0,9.7-17.739,17.55-39.623,17.55s-39.615-7.855-39.615-17.55S98.494,8.965,120.37,8.965s39.623,7.855,39.623,17.546" transform="translate(-80.755 -8.965)" fill="#fff"/></g></g><g transform="translate(91.075 4.499)" opacity="0.2"><g clip-path="url(#k)"><path d="M126.124,3.318A89,89,0,0,0,67.165,25.4C156.59,10.389,202.273,74.533,214.02,94.22c.1-1.687.17-3.375.17-5.082,0-47.4-39.429-85.82-88.065-85.82" transform="translate(-67.166 -3.318)" fill="#fff"/></g></g><path d="M52.248,60.2s2.362.815,6.56,2.022C63,63.458,69.042,65.011,76.346,66.615c3.652.807,7.626,1.591,11.847,2.321s8.688,1.389,13.316,2.01c2.313.316,4.675.556,7.062.835,2.393.206,4.811.483,7.257.639s4.907.357,7.386.443c2.476.134,4.964.2,7.454.228,4.975.132,9.954.05,14.851-.126,2.446-.107,4.871-.283,7.268-.419l7.075-.655,6.819-.854,6.5-1.013c4.206-.777,8.181-1.544,11.805-2.456l2.67-.631,2.523-.7,4.669-1.276c2.89-.934,5.429-1.7,7.492-2.416L208.8,60.2l-6.343,2.643c-2.038.793-4.551,1.653-7.417,2.7L190.4,66.993l-2.517.77-2.667.693c-3.623,1-7.6,1.859-11.816,2.736l-6.522,1.165-6.857.937-7.119.712c-2.412.156-4.852.35-7.314.477-4.929.212-9.941.336-14.951.233-2.506-.05-5.009-.132-7.5-.285-2.494-.106-4.971-.311-7.428-.5s-4.888-.471-7.294-.7c-2.4-.3-4.77-.556-7.093-.892C96.67,71.713,92.2,70.928,87.978,70.1s-8.191-1.7-11.836-2.6c-7.3-1.755-13.272-3.618-17.427-4.98S52.248,60.2,52.248,60.2" transform="translate(18.599 21.43)" fill="#f37e00"/></g></g></g></g></svg>