<svg xmlns="http://www.w3.org/2000/svg" width="152" height="152" viewBox="0 0 152 152"><g transform="translate(-377 -3159)"><circle cx="76" cy="76" r="76" transform="translate(377 3159)" fill="#ced371"/><g transform="translate(412 3184.775)"><g transform="translate(1.208 12.432)"><g transform="translate(0 12.737)"><path d="M15.75,154.432h-.5A7.763,7.763,0,0,1,7.5,146.679V105.537a7.754,7.754,0,0,1,15.508,0v2.73a1.964,1.964,0,1,1-3.929,0v-2.73a3.825,3.825,0,0,0-7.651,0v41.142a3.83,3.83,0,0,0,3.825,3.825h.5a1.964,1.964,0,1,1,0,3.929Z" transform="translate(-7.5 -97.783)" fill="#64b9fc"/></g><g transform="translate(52.871 24.869)"><path d="M340.177,217.61h-2.52a1.964,1.964,0,0,1,0-3.929h2.52a4.753,4.753,0,0,0,4.748-4.748V175.057a1.964,1.964,0,0,1,3.929,0v33.877A8.686,8.686,0,0,1,340.177,217.61Z" transform="translate(-335.693 -173.093)" fill="#64b9fc"/></g><g transform="translate(47.953 63.631)"><path d="M310.406,421.284h-5.24V413.7h5.24a1.642,1.642,0,0,1,1.642,1.642v4.3A1.642,1.642,0,0,1,310.406,421.284Z" transform="translate(-305.166 -413.701)" fill="#96756f"/></g><path d="M171.711,84.791h4.317v9.6h-4.317Z" transform="translate(-145.257 -74.147)" fill="#64b9fc"/><path d="M171.711,84.791h4.317v3.167h-4.317Z" transform="translate(-145.257 -74.147)" fill="#31a7fb"/><path d="M151.682,135.19h-15.89v-5.8a1.642,1.642,0,0,1,1.642-1.642H150.04a1.642,1.642,0,0,1,1.642,1.642v5.8Z" transform="translate(-115.124 -110.187)" fill="#96756f"/><path d="M205.224,129.395v5.8h-3.966v-5.8a1.642,1.642,0,0,0-1.642-1.642h3.966A1.642,1.642,0,0,1,205.224,129.395Z" transform="translate(-168.666 -110.188)" fill="#80635e"/><path d="M265.148,138.247h-4.07v-5.8a1.642,1.642,0,0,1,1.642-1.642h.786a1.642,1.642,0,0,1,1.642,1.642v5.8Z" transform="translate(-220.227 -112.752)" fill="#96756f"/><g transform="translate(8.25 22.825)"><path d="M96.858,214.031H61.175a2.463,2.463,0,0,1-2.463-2.463v-48.7a2.463,2.463,0,0,1,2.463-2.463H96.858a2.463,2.463,0,0,1,2.463,2.463v48.7A2.463,2.463,0,0,1,96.858,214.031Z" transform="translate(-58.711 -160.407)" fill="#eaf6ff"/><path d="M274.892,162.868v48.7a2.462,2.462,0,0,1-2.463,2.463H268a2.462,2.462,0,0,0,2.463-2.463v-48.7A2.463,2.463,0,0,0,268,160.405h4.431A2.463,2.463,0,0,1,274.892,162.868Z" transform="translate(-234.282 -160.405)" fill="#c4e1ff"/><path d="M99.318,413.7v10.356a2.462,2.462,0,0,1-2.463,2.463H61.171a2.462,2.462,0,0,1-2.463-2.463V413.7Z" transform="translate(-58.708 -372.893)" fill="#fcc16d"/><path d="M274.892,413.7v10.356a2.462,2.462,0,0,1-2.463,2.463H268a2.462,2.462,0,0,0,2.463-2.463V413.7Z" transform="translate(-234.282 -372.893)" fill="#fca62f"/></g><g transform="translate(61.605 11.146)"><path d="M391.549,116.168a1.642,1.642,0,0,1-1.642-1.642V99.412a9.754,9.754,0,0,1,2.876-6.943l3.805-3.805a2.509,2.509,0,0,1,3.446-.132,2.463,2.463,0,0,1,.086,3.565l-3.855,3.855a4.894,4.894,0,0,0-1.433,3.461v15.114a1.642,1.642,0,0,1-1.642,1.642Z" transform="translate(-389.907 -87.909)" fill="#fcc16d"/></g><g transform="translate(64.726 11.146)"><path d="M412.765,95.7l3.606-3.606a2.463,2.463,0,0,0-.086-3.565,2.508,2.508,0,0,0-3.446.132l-3.561,3.561Q411.018,93.966,412.765,95.7Z" transform="translate(-409.279 -87.907)" fill="#fca62f"/></g><g transform="translate(61.605 26.054)"><path d="M389.908,180.448h4.925v7.616h-4.925Z" transform="translate(-389.908 -180.448)" fill="#eaf6ff"/></g><g transform="translate(66.53 3.838)"><g transform="translate(3.741)"><path d="M447.043,51.928,444.112,49a1.4,1.4,0,0,1-.385-1.258l.788-4.059a1.4,1.4,0,0,1,2.367-.724l6.2,6.2a1.4,1.4,0,0,1-.724,2.367l-4.059.788A1.4,1.4,0,0,1,447.043,51.928Z" transform="translate(-443.701 -42.544)" fill="#fcb44d"/><path d="M455.917,72.122l-4.058.788a1.4,1.4,0,0,1-1.259-.385l-2.659-2.659a1.4,1.4,0,0,0,1.258.385l4.059-.787a1.4,1.4,0,0,0,.724-2.367l2.658,2.658A1.4,1.4,0,0,1,455.917,72.122Z" transform="translate(-447.258 -63.142)" fill="#fb9927"/></g><path d="M425.309,81.714,420.891,77.3a1.4,1.4,0,0,1,0-1.982L422.2,74a1.4,1.4,0,0,1,1.982,0l4.418,4.418a1.4,1.4,0,0,1,0,1.982l-1.313,1.313A1.4,1.4,0,0,1,425.309,81.714Z" transform="translate(-420.48 -68.589)" fill="#64b9fc"/><path d="M440.53,92.329l-1.313,1.313a1.4,1.4,0,0,1-1.982,0L434.7,91.1a1.4,1.4,0,0,0,1.982,0l1.313-1.313a1.4,1.4,0,0,0,0-1.982l2.538,2.538A1.4,1.4,0,0,1,440.53,92.329Z" transform="translate(-432.407 -80.517)" fill="#31a7fb"/></g><g transform="translate(15.484 0)"><path d="M123.715,31.419H109.771a6.163,6.163,0,0,1-6.157-6.157V22.418a3.7,3.7,0,0,1,3.694-3.694h18.87a3.7,3.7,0,0,1,3.694,3.694v2.845A6.163,6.163,0,0,1,123.715,31.419Zm-16-8.591v2.435a2.055,2.055,0,0,0,2.052,2.052h13.945a2.055,2.055,0,0,0,2.052-2.052V22.828Z" transform="translate(-103.614 -18.724)" fill="#fcb44d"/></g><g transform="translate(31.48)"><path d="M213.169,22.415V25.26a6.163,6.163,0,0,1-6.157,6.157h-4.1a6.163,6.163,0,0,0,6.157-6.157V22.415a3.7,3.7,0,0,0-3.694-3.694h4.1A3.7,3.7,0,0,1,213.169,22.415Z" transform="translate(-202.908 -18.721)" fill="#fb9927"/></g><g transform="translate(18.445 34.366)"><g transform="translate(0 0)"><circle cx="10.168" cy="10.168" r="10.168" fill="#fcc16d"/><path d="M182.655,242.213a10.171,10.171,0,0,1-12.592,9.875,9.937,9.937,0,0,0,0-19.75,10.171,10.171,0,0,1,12.592,9.875Z" transform="translate(-162.319 -232.045)" fill="#fca62f"/></g><g transform="translate(4.467 4.124)"><g transform="translate(0 2.052)"><path d="M157.041,273.262a6.754,6.754,0,0,1,.668,6.56.965.965,0,0,1-.831.583,6.76,6.76,0,0,1-6.627-9.375,1.05,1.05,0,0,1,.916-.641A6.753,6.753,0,0,1,157.041,273.262Z" transform="translate(-149.72 -270.38)" fill="#1ca56f"/><path d="M159.025,280.4a6.768,6.768,0,0,1-2.689-.392,6.757,6.757,0,0,0-4.05-8.681c.05-.136.1-.272.164-.407a.9.9,0,0,1,.757-.53,6.76,6.76,0,0,1,6.656,9.427A.968.968,0,0,1,159.025,280.4Z" transform="translate(-151.872 -270.378)" fill="#158f5e"/></g><g transform="translate(4.325)"><path d="M183.5,261.331l-2.929-3.473a.609.609,0,0,0-.931,0l-2.929,3.473a.609.609,0,0,0,.466,1h5.857A.609.609,0,0,0,183.5,261.331Z" transform="translate(-176.564 -257.641)" fill="#fb4a59"/></g></g></g></g><g transform="translate(0 11.224)"><path d="M81.717,22.029l-6.2-6.2a2.61,2.61,0,0,0-4.407,1.348l-.562,2.894a2.6,2.6,0,0,0-1.938.758L67.295,22.14a2.613,2.613,0,0,0-.432,3.115l-2.028,2.028a10.954,10.954,0,0,0-3.23,7.8V50.194a2.833,2.833,0,0,0,.5,1.607v21.34a3.544,3.544,0,0,1-3.539,3.539H57.059A2.852,2.852,0,0,0,54.4,74.854H51.275V37.72A3.675,3.675,0,0,0,47.6,34.049h-.268V32.131a2.853,2.853,0,0,0-2.85-2.85H43.7a2.853,2.853,0,0,0-2.85,2.85v1.918H38.974V31.638a2.853,2.853,0,0,0-2.85-2.85H33.188V26.336h3.606a7.373,7.373,0,0,0,7.365-7.365V16.126a4.908,4.908,0,0,0-4.9-4.9H20.386a4.908,4.908,0,0,0-4.9,4.9v2.845a7.373,7.373,0,0,0,7.365,7.365h3.606v2.452H23.517a2.853,2.853,0,0,0-2.85,2.85v2.411H17.924V32.922A8.962,8.962,0,0,0,0,32.922V74.064A8.972,8.972,0,0,0,8.25,83v3.423a3.675,3.675,0,0,0,3.671,3.671h16.04a1.208,1.208,0,1,0,0-2.416H22.3l.633-1.509a1.252,1.252,0,0,1,1.157-.769H35.437a1.251,1.251,0,0,1,1.157.769l.633,1.509h-4a1.208,1.208,0,1,0,0,2.416H47.6a3.675,3.675,0,0,0,3.671-3.671V84.853H54.4a2.852,2.852,0,0,0,2.657-1.827h1.505a9.9,9.9,0,0,0,9.884-9.884V51.8a2.833,2.833,0,0,0,.5-1.607V35.081a3.662,3.662,0,0,1,1.079-2.606L72,30.5a2.607,2.607,0,0,0,3.4-.247l1.313-1.313A2.6,2.6,0,0,0,77.475,27l2.893-.562a2.61,2.61,0,0,0,1.348-4.407Zm-17.262,28.6a.434.434,0,0,1-.434-.434V47.31H66.53v2.885a.434.434,0,0,1-.434.434Zm2.075-5.735H64.021v-5.2H66.53ZM48.859,37.72V74.854H10.666V60.285a1.208,1.208,0,1,0-2.416,0v16.3a2.62,2.62,0,0,1-1.9-2.516V32.922a2.617,2.617,0,0,1,5.234,0v1.143A3.676,3.676,0,0,0,8.25,37.72v17.3a1.208,1.208,0,1,0,2.416,0V37.72a1.256,1.256,0,0,1,1.254-1.254H47.6a1.256,1.256,0,0,1,1.254,1.254Zm-5.592-5.589A.434.434,0,0,1,43.7,31.7h.786a.434.434,0,0,1,.434.433v1.918H43.267V32.131ZM17.9,18.971V16.126a2.488,2.488,0,0,1,2.486-2.486h18.87a2.488,2.488,0,0,1,2.486,2.486v2.845a4.954,4.954,0,0,1-4.948,4.948H22.849A4.954,4.954,0,0,1,17.9,18.971Zm10.97,7.365h1.9v2.452h-1.9Zm-5.786,5.3a.434.434,0,0,1,.433-.433H36.124a.434.434,0,0,1,.433.433v2.411H23.084V31.638ZM2.416,74.064V32.922a6.546,6.546,0,0,1,13.091,0v1.126H14V32.922a5.033,5.033,0,0,0-10.067,0V74.064A5.04,5.04,0,0,0,8.25,79.046V80.57A6.554,6.554,0,0,1,2.416,74.064ZM47.6,87.673H39.848l-1.026-2.444a3.663,3.663,0,0,0-3.385-2.251H24.088a3.663,3.663,0,0,0-3.385,2.25l-1.026,2.444H11.921a1.256,1.256,0,0,1-1.254-1.254V77.271H48.859v9.148A1.256,1.256,0,0,1,47.6,87.673ZM54.836,82a.434.434,0,0,1-.433.434H51.276V77.271H54.4a.434.434,0,0,1,.433.434Zm3.728-1.393H57.252V79.1h1.312a5.963,5.963,0,0,0,5.956-5.956v-20.1h1.512v20.1A7.477,7.477,0,0,1,58.564,80.61Zm9.754-49.844A6.063,6.063,0,0,0,66.53,35.08v2.2H64.021v-2.2a8.554,8.554,0,0,1,2.522-6.089L68.5,27.036l1.774,1.774Zm6.69-3.538L73.7,28.54a.193.193,0,0,1-.273,0L69,24.122a.193.193,0,0,1,0-.273l1.313-1.313a.193.193,0,0,1,.273,0l4.418,4.418a.193.193,0,0,1,0,.273Zm5.048-3.3a.179.179,0,0,1-.148.133l-3.662.711L72.768,21.3l.711-3.662a.193.193,0,0,1,.326-.1l6.2,6.2A.178.178,0,0,1,80.056,23.931Z" transform="translate(0 -11.224)"/><path d="M142.057,40.344V37.909a1.208,1.208,0,0,0-1.208-1.208h-4.3a1.208,1.208,0,0,0,0,2.416h3.091v1.226a.845.845,0,0,1-.844.844H124.851a.845.845,0,0,1-.844-.844V39.117h7.28a1.208,1.208,0,1,0,0-2.416H122.8a1.208,1.208,0,0,0-1.208,1.208v2.435a3.264,3.264,0,0,0,3.26,3.26H138.8A3.264,3.264,0,0,0,142.057,40.344Z" transform="translate(-102.003 -32.597)"/><path d="M114.494,235.919a11.376,11.376,0,1,0,11.376-11.376A11.389,11.389,0,0,0,114.494,235.919Zm11.376-8.959a8.96,8.96,0,1,1-8.96,8.959A8.97,8.97,0,0,1,125.87,226.959Z" transform="translate(-96.049 -190.178)"/><path d="M143.636,261.247a7.913,7.913,0,0,0,6.516,3.4q.239,0,.48-.014a2.164,2.164,0,0,0,1.87-1.31,7.916,7.916,0,0,0,.1-6.072h1.59a1.817,1.817,0,0,0,1.389-2.989l-2.929-3.473a1.813,1.813,0,0,0-1.389-.646h0a1.813,1.813,0,0,0-1.389.646l-1.682,1.995a8,8,0,0,0-3.4-.579,2.27,2.27,0,0,0-1.97,1.378,7.924,7.924,0,0,0,.815,7.665Zm7.63-8.358,1.64,1.945h-3.28Zm-6.256,1.725a5.55,5.55,0,0,1,1.62.191,1.82,1.82,0,0,0,1.707,2.446h1.577a5.514,5.514,0,0,1,.427,4.976,5.552,5.552,0,0,1-5.331-7.613Z" transform="translate(-119.284 -211.653)"/><path d="M85.277,218.448h2.736a1.208,1.208,0,1,0,0-2.416H85.277a1.208,1.208,0,0,0,0,2.416Z" transform="translate(-70.526 -183.038)"/><path d="M85.277,193.857H95.47a1.208,1.208,0,0,0,0-2.416H85.277a1.208,1.208,0,0,0,0,2.416Z" transform="translate(-70.526 -162.408)"/></g></g></g></svg>