<svg xmlns="http://www.w3.org/2000/svg" width="122.255" height="101" viewBox="0 0 122.255 101"><g transform="translate(-224.424 -10267)"><path d="M21.177,1H0A1,1,0,0,1-1,0,1,1,0,0,1,0-1H21.177a1,1,0,0,1,1,1A1,1,0,0,1,21.177,1Z" transform="translate(324.502 10317.285)" fill="#9ea257"/><circle cx="50.5" cy="50.5" r="50.5" transform="translate(224.424 10267)" fill="#ced371"/><g transform="translate(238.424 10229.929)"><g transform="translate(46.403 61.133)"><path d="M350.012,67.572h-9.672a12.5,12.5,0,1,0,12.5,12.5V70.4A2.831,2.831,0,0,0,350.012,67.572Z" transform="translate(-327.838 -67.572)" fill="#ffc6c2"/></g><g transform="translate(1.062 61.133)"><path d="M20.445,67.581l-1.439-.009H10.331A2.831,2.831,0,0,0,7.5,70.4v9.672A12.5,12.5,0,1,0,20.445,67.581Z" transform="translate(-7.5 -67.572)" fill="#ffc6c2"/></g><g transform="translate(1.062 61.133)"><path d="M20,92.578a12.5,12.5,0,1,0,0-25,2.834,2.834,0,1,1,0,5.668l-6.835,6.835a2.834,2.834,0,1,1-5.668,0h0A12.5,12.5,0,0,0,20,92.578Z" transform="translate(-7.501 -67.573)" fill="#ffa8ad"/></g><g transform="translate(46.403 61.133)"><path d="M340.342,92.578a12.5,12.5,0,1,1,0-25,2.834,2.834,0,0,0,0,5.668l6.835,6.835a2.834,2.834,0,0,0,5.668,0h0A12.5,12.5,0,0,1,340.342,92.578Z" transform="translate(-327.839 -67.573)" fill="#ffa8ad"/></g><g transform="translate(6.729 66.8)"><path d="M54.416,121.284a6.914,6.914,0,0,1-6.873-6.957v-6.712h6.712a6.914,6.914,0,0,1,6.957,6.873A6.843,6.843,0,0,1,54.416,121.284Z" transform="translate(-47.543 -107.614)" fill="#fc979e"/></g><g transform="translate(52.071 66.8)"><path d="M374.677,121.284a6.914,6.914,0,0,0,6.873-6.957v-6.712h-6.712a6.914,6.914,0,0,0-6.957,6.873A6.843,6.843,0,0,0,374.677,121.284Z" transform="translate(-367.88 -107.614)" fill="#fc979e"/></g><g transform="translate(7.896 66.8)"><path d="M84.126,107.614a28.338,28.338,0,0,0-28.338,28.338c0,12.06,14.169,18.92,28.338,19.335,14.169-.415,28.338-7.275,28.338-19.335a28.338,28.338,0,0,0-28.338-28.338Z" transform="translate(-55.788 -107.614)" fill="#ffd7d1"/></g><g transform="translate(7.896 69.033)"><path d="M73.084,123.386a28.346,28.346,0,0,0-17.3,26.106c0,12.06,14.169,18.92,28.338,19.335a44.315,44.315,0,0,0,13.545-2.482c-29.6,0-36.6-36.9-24.588-42.959Z" transform="translate(-55.788 -123.386)" fill="#ffc6c2"/></g><g transform="translate(26.613 85.038)"><ellipse cx="9.622" cy="7.031" rx="9.622" ry="7.031" transform="translate(0 0)" fill="#ffc6c2"/></g><g transform="translate(26.613 85.038)"><path d="M194.1,243.5c0-3.106,2.758-5.74,6.581-6.67a12.874,12.874,0,0,0-3.041-.361c-5.314,0-9.622,3.148-9.622,7.031s4.308,7.031,9.622,7.031a12.874,12.874,0,0,0,3.041-.361c-3.823-.931-6.581-3.564-6.581-6.671Z" transform="translate(-188.021 -236.467)" fill="#ffa8ad"/></g><g transform="translate(0 60.071)"><path d="M234.473,360.344a2.942,2.942,0,0,1-4.16,0,1.062,1.062,0,1,0-1.5,1.5,5.071,5.071,0,0,0,7.163,0,1.062,1.062,0,1,0-1.5-1.5Z" transform="translate(-196.158 -317.576)"/><path d="M156.223,206.422a3.013,3.013,0,0,0-3.01,3.01,1.062,1.062,0,0,0,2.123,0,.887.887,0,1,1,1.774,0,1.062,1.062,0,0,0,2.123,0A3.013,3.013,0,0,0,156.223,206.422Z" transform="translate(-131.527 -185.707)"/><path d="M318.38,209.432a.887.887,0,1,1,1.773,0,1.062,1.062,0,0,0,2.123,0,3.01,3.01,0,1,0-6.02,0,1.062,1.062,0,0,0,2.123,0Z" transform="translate(-271.493 -185.707)"/><path d="M68.577,60.071H58.905a13.5,13.5,0,0,0-12.185,7.6,29.425,29.425,0,0,0-20.971,0A13.575,13.575,0,0,0,14.043,60.08h-.03l-1.446-.009H3.892A3.9,3.9,0,0,0,0,63.963v9.672A13.566,13.566,0,0,0,8.253,86.118a29.286,29.286,0,0,0-1.418,9.021,15.631,15.631,0,0,0,.451,3.753,1.062,1.062,0,0,0,2.061-.51,13.516,13.516,0,0,1-.389-3.243A27.277,27.277,0,0,1,54.619,74.988,1.062,1.062,0,0,0,56.05,73.42a29.51,29.51,0,0,0-2.46-2.012,5.932,5.932,0,0,1,5.438-3.546h5.651v5.651a5.948,5.948,0,0,1-3.829,5.549,29.069,29.069,0,0,0-1.775-2.437,1.062,1.062,0,1,0-1.648,1.338,27.335,27.335,0,0,1,6.086,17.176c0,6.6-4.541,10.783-8.351,13.131-4.96,3.057-11.857,4.93-18.926,5.142-11.478-.344-21.43-4.8-25.359-11.349a1.062,1.062,0,0,0-1.821,1.092c2.219,3.7,6.09,6.819,11.2,9.017A43.989,43.989,0,0,0,36.2,115.535h.062c14.594-.427,29.369-7.57,29.369-20.4a29.417,29.417,0,0,0-1.423-9.018A13.562,13.562,0,0,0,72.47,73.635V63.963a3.9,3.9,0,0,0-3.892-3.892ZM2.123,73.635V63.963a1.771,1.771,0,0,1,1.769-1.769h8.668l1.424.009a11.45,11.45,0,0,1,9.808,6.3,29.373,29.373,0,0,0-3.128,1.706,8.07,8.07,0,0,0-7.223-4.473H6.729A1.062,1.062,0,0,0,5.668,66.8v6.712a8.1,8.1,0,0,0,4.849,7.395,29.289,29.289,0,0,0-1.538,3.213A11.445,11.445,0,0,1,2.123,73.635Zm9.507,5.431a5.941,5.941,0,0,1-3.839-5.553V67.862h5.651a5.927,5.927,0,0,1,5.443,3.558,29.634,29.634,0,0,0-7.255,7.646Zm58.717-5.431a11.439,11.439,0,0,1-6.858,10.486A29.5,29.5,0,0,0,61.957,80.9,8.105,8.105,0,0,0,66.8,73.513V66.8a1.062,1.062,0,0,0-1.062-1.062H59.028A8.077,8.077,0,0,0,51.811,70.2a29.294,29.294,0,0,0-3.13-1.7,11.387,11.387,0,0,1,10.225-6.3h9.672a1.771,1.771,0,0,1,1.769,1.769Z" transform="translate(0 -60.071)"/><path d="M198.635,231.231a13.325,13.325,0,0,0-14.86,0,6.848,6.848,0,0,0,0,11.658,13.325,13.325,0,0,0,14.86,0,6.848,6.848,0,0,0,0-11.658Zm-7.43,11.8c-4.72,0-8.56-2.678-8.56-5.97s3.84-5.97,8.56-5.97,8.56,2.678,8.56,5.97S195.925,243.029,191.205,243.029Z" transform="translate(-154.971 -205.061)"/><path d="M224.554,262.028h0a1.061,1.061,0,0,0-1.062,1.061v1.853A1.062,1.062,0,0,0,224.551,266h0a1.062,1.062,0,0,0,1.062-1.061V263.09A1.062,1.062,0,0,0,224.554,262.028Z" transform="translate(-191.857 -233.443)"/><path d="M274.564,262.164h0a1.061,1.061,0,0,0-1.062,1.061v1.853a1.062,1.062,0,0,0,1.061,1.062h0a1.062,1.062,0,0,0,1.062-1.061v-1.853A1.061,1.061,0,0,0,274.564,262.164Z" transform="translate(-234.788 -233.559)"/></g></g></g></svg>