<svg xmlns="http://www.w3.org/2000/svg" width="122.255" height="101" viewBox="0 0 122.255 101"><g transform="translate(-810.424 -10205)"><path d="M21.177,1H0A1,1,0,0,1-1,0,1,1,0,0,1,0-1H21.177a1,1,0,0,1,1,1A1,1,0,0,1,21.177,1Z" transform="translate(910.502 10255.988)" fill="#9ea257"/><circle cx="50.5" cy="50.5" r="50.5" transform="translate(810.424 10205)" fill="#ced371"/><g transform="translate(831.424 10226)"><g transform="translate(16 9)"><path d="M26,35v6a2.006,2.006,0,0,1-2,2H4a2.006,2.006,0,0,1-2-2V35Z" fill="#9d27b0"/><path d="M2,15H26v6H2Z" fill="#9d27b0"/><path d="M23,15h3v6H23Z" fill="#6a1b9a"/><path d="M23,41a2.006,2.006,0,0,1-2,2h3a2.006,2.006,0,0,0,2-2V35H23Z" fill="#6a1b9a"/><rect width="28" height="10" rx="1" transform="translate(0 5)" fill="#607d8b"/><path d="M27,5H24a1,1,0,0,1,1,1v8a1,1,0,0,1-1,1h3a1,1,0,0,0,1-1V6A1,1,0,0,0,27,5Z" fill="#37474f"/><path d="M22,2V5H6V2A2.006,2.006,0,0,1,8,0H20A2.006,2.006,0,0,1,22,2Z" fill="#607d8b"/><path d="M20,0H17a2.006,2.006,0,0,1,2,2V5h3V2A2.006,2.006,0,0,0,20,0Z" fill="#37474f"/><path d="M2,21H26V35H2Z" fill="#f5f5f5"/><path d="M23,21h3V35H23Z" fill="#cfd8dc"/></g><path d="M30,0A30,30,0,1,0,60,30,30,30,0,0,0,30,0ZM58,30a27.889,27.889,0,0,1-7.52,19.066L43,41.586V25a2,2,0,0,0,2-2V15a2,2,0,0,0-2-2H39V11a3,3,0,0,0-3-3H24a3,3,0,0,0-3,3v2H17a2,2,0,0,0-1.674.912L10.934,9.52A27.98,27.98,0,0,1,58,30ZM37,13H23V11a1,1,0,0,1,1-1H36a1,1,0,0,1,1,1Zm6,2v8H41V18a1,1,0,0,0-2,0v5H37V18a1,1,0,0,0-2,0v5H33V18a1,1,0,0,0-2,0v5H29V18a1,1,0,0,0-2,0v5H25V18a1,1,0,0,0-2,0v3.586l-6-6V15ZM19,31H29.586l3,3H22a1,1,0,1,0,0,2H34.586L41,42.414V43H19Zm18.414,5H38a1,1,0,0,0,0-2H35.414l-3-3H41v8.586ZM41,29H30.414l-4-4H41ZM21.586,23H17V18.414Zm2,2,4,4H19V25ZM19,45H41v5a1,1,0,0,1-1,1H20a1,1,0,0,1-1-1ZM2,30A27.889,27.889,0,0,1,9.52,10.934L15,16.414V23a2,2,0,0,0,2,2V50a3,3,0,0,0,3,3H40a3,3,0,0,0,3-3V44.414l6.066,6.066A27.98,27.98,0,0,1,2,30Z"/><path d="M34,38H26a1,1,0,0,0,0,2h8a1,1,0,0,0,0-2Z"/></g></g></svg>