<svg xmlns="http://www.w3.org/2000/svg" width="123.177" height="101" viewBox="0 0 123.177 101"><g transform="translate(-810.424 -10331)"><path d="M21.177,1H0A1,1,0,0,1-1,0,1,1,0,0,1,0-1H21.177a1,1,0,0,1,1,1A1,1,0,0,1,21.177,1Z" transform="translate(911.424 10381.078)" fill="#9ea257"/><circle cx="50.5" cy="50.5" r="50.5" transform="translate(810.424 10331)" fill="#ced371"/><g transform="translate(831.424 10352)"><g transform="translate(1.906 1.906)"><g transform="translate(5.434)"><path d="M11.623,2H38.8a3.622,3.622,0,0,1,3.623,3.623v9.23a5.375,5.375,0,0,0-2.5,1.422L38.8,17.4V10.152a.908.908,0,0,0-.906-.906H12.529a.908.908,0,0,0-.906.906V37.324a.908.908,0,0,0,.906.906h.426a26.818,26.818,0,0,1-1.775,4.511A1.679,1.679,0,0,1,8,41.989V5.623A3.622,3.622,0,0,1,11.623,2Z" transform="translate(-8 -2)" fill="#969faa"/></g><g transform="translate(15.796 26.267)"><path d="M19.947,47.91c0-.408-.018-.806-.045-1.2l-.444-5.742h19.51a.908.908,0,0,0,.906-.906V34.623L43.5,31V48.209a3.622,3.622,0,0,1-3.623,3.623H19.44A15.478,15.478,0,0,0,19.947,47.91Z" transform="translate(-19.44 -31)" fill="#969faa"/></g><g transform="translate(9.057 7.246)"><path d="M38.267,10H12.906a.908.908,0,0,0-.906.906V38.078a.908.908,0,0,0,.906.906H38.267a.908.908,0,0,0,.906-.906V10.906A.908.908,0,0,0,38.267,10Z" transform="translate(-12 -10)" fill="#69d6f4"/></g><g transform="translate(18.115 39.853)"><path d="M31.057,46.906a2.721,2.721,0,0,1-2.717,2.717H24.717A2.714,2.714,0,0,1,22,46.906.908.908,0,0,1,22.906,46h7.246A.908.908,0,0,1,31.057,46.906Z" transform="translate(-22 -46)" fill="#e6e9ed"/></g><g transform="translate(12.68 10.869)"><path d="M16,14H35.926v3.623H16Z" transform="translate(-16 -14)" fill="#ef7385"/></g><g transform="translate(3.623 50.722)"><path d="M6,58H16.869v3.623H6Z" transform="translate(-6 -58)" fill="#ef7385"/></g><g transform="translate(28.984 26.267)"><path d="M40.34,35.529l-4.257,1.7a1.519,1.519,0,0,1-1.975-1.975L35.811,31Z" transform="translate(-34 -31)" fill="#cf9e76"/></g><g transform="translate(38.829 7.246)"><path d="M60.385,13.206a3.2,3.2,0,0,1-.942,2.264l-3.07,3.07-5.951,5.951-2.8-2.237a6.285,6.285,0,0,0-2.753-1.268l5.552-5.552,4.493-4.493a3.206,3.206,0,0,1,5.471,2.264Z" transform="translate(-44.87 -10)" fill="#b4dd7f"/></g><g transform="translate(30.795 21.484)"><path d="M40.782,25.72a6.289,6.289,0,0,0,.87.924L46.19,29.37,45.057,30.5l-3.623,3.623-.906.906L36,30.5l2.808-2.808Z" transform="translate(-36 -25.72)" fill="#b4dd7f"/></g><g transform="translate(31.701 12.68)"><path d="M41.3,22.114a2.255,2.255,0,0,0-.679,1.63,2.315,2.315,0,0,0,.254,1.06L38.9,26.778a2.6,2.6,0,0,1-1.359-.9A2.536,2.536,0,0,1,37,24.306a2.564,2.564,0,0,1,.752-1.811l3.777-3.777,1.123-1.123a5.375,5.375,0,0,1,2.5-1.422A5.154,5.154,0,0,1,46.5,16H49.68l-5.552,5.552a5.819,5.819,0,0,0-1.2-.118,2.255,2.255,0,0,0-1.63.679Z" transform="translate(-37 -16)" fill="#f0d0b4"/></g><g transform="translate(35.324 15.787)"><path d="M42.123,26.051a6.289,6.289,0,0,1-.87-.924A2.315,2.315,0,0,1,41,24.067a2.319,2.319,0,0,1,2.31-2.31,5.819,5.819,0,0,1,1.2.118,6.285,6.285,0,0,1,2.753,1.268l2.8,2.237,5.951-5.951,3.107,2.328h.906V29h-.906L54.948,30.39a8.214,8.214,0,0,1-6.847-.752l-1.44-.86Z" transform="translate(-41 -19.43)" fill="#f0d0b4"/></g><g transform="translate(0 25.361)"><path d="M18.258,46.611c.027.4.045.8.045,1.2a15.478,15.478,0,0,1-.507,3.922,16.042,16.042,0,0,1-.616,1.9l-.688,1.721H5.623L4.446,52.408a15.642,15.642,0,0,1-.915-3.252l-1.4-8.451A9.247,9.247,0,0,1,2,39.211a9.118,9.118,0,0,1,2.672-6.449L7.434,30V44.628a1.679,1.679,0,0,0,3.179.752,26.818,26.818,0,0,0,1.775-4.511l.308-1.114.679-2.708a2.112,2.112,0,0,1,2.056-1.612,2.125,2.125,0,0,1,2.119,1.956l.263,3.478Z" transform="translate(-2 -30)" fill="#f0d0b4"/></g></g><g transform="translate(1 1)"><path d="M30.057,45H22.811A1.813,1.813,0,0,0,21,46.811a3.627,3.627,0,0,0,3.623,3.623h3.623a3.627,3.627,0,0,0,3.623-3.623A1.813,1.813,0,0,0,30.057,45Zm-1.811,3.623H24.623a1.813,1.813,0,0,1-1.811-1.811h7.246A1.813,1.813,0,0,1,28.246,48.623Z" transform="translate(-2.885 -5.147)"/><ellipse cx="1" cy="0.5" rx="1" ry="0.5" transform="translate(36.078 4.078)"/><circle cx="0.5" cy="0.5" r="0.5" transform="translate(33.078 4.078)"/><path d="M23,5h7.246V6.811H23Z" transform="translate(-3.074 -1.377)"/><path d="M53.618,17.593l2.335-2.335a4.108,4.108,0,0,0-5.809-5.809L45.912,13.68H43.1c-.148,0-.293.012-.439.022V5.529A4.534,4.534,0,0,0,38.136,1H10.963A4.534,4.534,0,0,0,6.434,5.529V26.892l-2.5,2.5A9.948,9.948,0,0,0,1,36.475a10.149,10.149,0,0,0,.136,1.647l1.409,8.452a16.561,16.561,0,0,0,.961,3.435L4.623,52.8v4.354H17.3V52.8l.625-1.562c.175-.437.323-.882.46-1.33H38.136a4.534,4.534,0,0,0,4.529-4.529V28.547l.367-.367.831.5a9.145,9.145,0,0,0,7.6.833l4.025-1.341h1.665V19.115h-1.51ZM51.424,10.73a2.3,2.3,0,1,1,3.248,3.248L46.22,22.43,44.055,20.7a7.186,7.186,0,0,0-1.623-.975ZM44.1,15.492l-3.683,3.683a7.231,7.231,0,0,0-.875-.06,3.213,3.213,0,0,0-3.109,4.045L35.3,24.293a1.645,1.645,0,0,1-.3-2.571l4.9-4.9a4.5,4.5,0,0,1,3.2-1.326ZM8.246,5.529a2.721,2.721,0,0,1,2.717-2.717H38.136a2.721,2.721,0,0,1,2.717,2.717V14.1a6.276,6.276,0,0,0-1.811,1.059v-5.1A1.813,1.813,0,0,0,37.23,8.246H11.869a1.813,1.813,0,0,0-1.811,1.811V37.23a1.81,1.81,0,0,0,1.048,1.637,26.482,26.482,0,0,1-1.394,3.369.773.773,0,0,1-1.465-.345Zm7.246,49.816H6.434V53.533h9.057Zm.754-4.777-.462,1.154H6.142l-.955-2.386a14.822,14.822,0,0,1-.856-3.059L2.922,37.825a8.434,8.434,0,0,1-.111-1.35,8.15,8.15,0,0,1,2.4-5.8l1.219-1.22V41.89a2.585,2.585,0,0,0,4.9,1.157,28.421,28.421,0,0,0,2.147-5.8l.679-2.715a1.217,1.217,0,0,1,2.394.2l.709,9.213q.042.565.043,1.134a14.73,14.73,0,0,1-1.057,5.49ZM15.338,31.8A3.025,3.025,0,0,0,12.4,34.09l-.531,2.123V10.057H37.23v6.871l-3.512,3.512A3.451,3.451,0,0,0,34,25.588l-2.076,2.076-1.772,4.428a2.426,2.426,0,0,0,3.152,3.153l3.921-1.569V37.23H18.561l-.2-2.638a3.043,3.043,0,0,0-3.02-2.8Zm17.694-2.012,2.586,2.586-2.981,1.193a.625.625,0,0,1-.841-.569.6.6,0,0,1,.044-.228Zm7.821,15.6A2.721,2.721,0,0,1,38.136,48.1h-19.3a16.558,16.558,0,0,0,.282-3.021q0-.637-.049-1.273L18.7,39.041H37.23a1.813,1.813,0,0,0,1.811-1.811V32.17l1.811-1.811ZM37.23,31.42l-3.248-3.248,3.434-3.433a3.137,3.137,0,0,0,.472.355l3.543,2.126Zm18.115-5.059H55.2l-4.3,1.435a7.4,7.4,0,0,1-6.1-.669L38.82,23.541a1.407,1.407,0,0,1,.723-2.615,5.425,5.425,0,0,1,3.379,1.187l3.047,2.436h4.847V22.738H48.474l3.85-3.85,2.719,2.039h.3Z" transform="translate(-1 -1)"/><path d="M36.738,13H15v5.434H36.738Zm-1.811,3.623H16.811V14.811H34.926Z" transform="translate(-2.32 -2.131)"/><path d="M21,21H32.775v1.811H21Z" transform="translate(-2.885 -2.885)"/><path d="M32,25h1.811v1.811H32Z" transform="translate(-3.922 -3.262)"/><path d="M21,25h8.152v1.811H21Z" transform="translate(-2.885 -3.262)"/><path d="M21,29H32.775v1.811H21Z" transform="translate(-2.885 -3.639)"/><path d="M21,33h9.963v1.811H21Z" transform="translate(-2.885 -4.016)"/><path d="M21,37h9.963v1.811H21Z" transform="translate(-2.885 -4.393)"/></g></g></g></svg>