<svg xmlns="http://www.w3.org/2000/svg" width="85" height="85" viewBox="0 0 85 85"><g transform="translate(-285.424 -9179)"><circle cx="42.5" cy="42.5" r="42.5" transform="translate(285.424 9179)" fill="#ced371"/><g transform="translate(300.216 9194.517)"><path d="M54.36,21.986a3.484,3.484,0,0,1-.747-.08l-17.5-4.261a3.5,3.5,0,0,1,6.238-2.917l1.425-1.012a5.235,5.235,0,0,0-1.551-1.441,5.233,5.233,0,0,1,10.382.967c0,.107-.019.212-.025.318a5.207,5.207,0,0,0-2.16,1.456l1.311,1.158a3.5,3.5,0,1,1,2.623,5.811Z" transform="translate(-4.399 -0.248)" fill="#d0f0ff"/><path d="M54.235,22.737a4.459,4.459,0,0,1-.936-.1L35.282,18.249l-.135-.5a4.372,4.372,0,0,1,6.264-5l-.275-.168.112-.594A6.107,6.107,0,0,1,53.36,13.12a2.838,2.838,0,0,1-.018.285l-.035.575-.484.247a4.372,4.372,0,1,1,1.411,8.511ZM36.755,16.808,53.7,20.934a2.623,2.623,0,1,0,.539-5.192,2.688,2.688,0,0,0-.574.062,2.611,2.611,0,0,0-1.393.826l-.579.655-2.623-2.315.578-.655A6,6,0,0,1,51.6,12.847a4.357,4.357,0,0,0-8.5-1.07,6.016,6.016,0,0,1,1.269,1.311l.5.714L42.021,15.82l-.5-.714a2.623,2.623,0,0,0-4.768,1.511A1.753,1.753,0,0,0,36.755,16.808Z" transform="translate(-4.273 -0.125)" fill="#b9e8ff"/><path d="M32.616,49.679q-2.394-.22-4.8-.22H23.4a52.443,52.443,0,0,0-7.781.58l-5.586,1.1A6.995,6.995,0,0,1,2,44.227V24.979a6.995,6.995,0,0,1,8.032-6.918l5.585,1.1a52.446,52.446,0,0,0,7.781.581h4.415a52.444,52.444,0,0,0,7.781-.58l5.586-1.1a6.995,6.995,0,0,1,8.032,6.918V44.227a6.995,6.995,0,0,1-8.032,6.918l-3.421-.678Z" transform="translate(-0.126 -5.004)" fill="#ffc239"/><path d="M49.213,24.979a6.995,6.995,0,0,0-8.032-6.918l-5.585,1.1a52.446,52.446,0,0,1-7.781.581H23.4a52.444,52.444,0,0,1-7.781-.58l-5.586-1.1A6.995,6.995,0,0,0,2,24.979V37.246a6.995,6.995,0,0,0,8.032,6.918l5.585-1.1L15.992,43l5.2-.479q1.1-.046,2.207-.046h4.415a52.444,52.444,0,0,1,7.781.58l5.586,1.1a6.995,6.995,0,0,0,8.032-6.918Z" transform="translate(-0.126 -3.414)" fill="#ffd55d"/><ellipse cx="2.623" cy="2.186" rx="2.623" ry="2.186" transform="translate(15.863 36.396)" fill="#b9e8ff"/><ellipse cx="2.623" cy="2.186" rx="2.623" ry="2.186" transform="translate(32.475 42.721)" fill="#b9e8ff"/><circle cx="1.749" cy="1.749" r="1.749" transform="translate(35.098 26.036)" fill="#ffb127"/><circle cx="2.623" cy="2.623" r="2.623" transform="translate(39.47 31.545)" fill="#b9e8ff"/><g transform="translate(5.372 18.124)"><circle cx="1.749" cy="1.749" r="1.749" transform="translate(7.869 6.995)" fill="#ffb127"/><circle cx="1.749" cy="1.749" r="1.749" transform="translate(3.497 15.738)" fill="#ffb127"/><circle cx="1.749" cy="1.749" r="1.749" transform="translate(34.973)" fill="#ffb127"/><circle cx="1.749" cy="1.749" r="1.749" transform="translate(13.115 2.623)" fill="#ffb127"/><circle cx="1.749" cy="1.749" r="1.749" transform="translate(17.486 13.115)" fill="#ffb127"/><circle cx="1.749" cy="1.749" r="1.749" transform="translate(0 1.749)" fill="#ffb127"/></g><path d="M39.749,52a2.979,2.979,0,0,0-1.5.4A1.875,1.875,0,0,0,38,53.31,2.434,2.434,0,0,0,40.623,55.5a2.979,2.979,0,0,0,1.5-.4,1.875,1.875,0,0,0,.247-.915A2.434,2.434,0,0,0,39.749,52Z" transform="translate(-4.65 -9.278)" fill="#d0f0ff"/><path d="M20.749,44a2.979,2.979,0,0,0-1.5.4A1.875,1.875,0,0,0,19,45.31,2.434,2.434,0,0,0,21.623,47.5a2.979,2.979,0,0,0,1.5-.4,1.875,1.875,0,0,0,.247-.915A2.434,2.434,0,0,0,20.749,44Z" transform="translate(-2.262 -7.544)" fill="#d0f0ff"/><path d="M47.749,38a2.592,2.592,0,0,0-1.359.39A2.592,2.592,0,0,0,46,39.749a2.623,2.623,0,0,0,2.623,2.623,2.592,2.592,0,0,0,1.359-.39,2.592,2.592,0,0,0,.39-1.359A2.623,2.623,0,0,0,47.749,38Z" transform="translate(-5.656 -6.403)" fill="#d0f0ff"/><path d="M44.246,32.623a2.623,2.623,0,1,0-2.623,2.623A2.623,2.623,0,0,0,44.246,32.623Zm-2.623.874a.874.874,0,1,1,.874-.874A.874.874,0,0,1,41.623,33.5Z" transform="translate(-4.776 -4.841)"/><path d="M47.5,37a3.5,3.5,0,1,0,3.5,3.5A3.5,3.5,0,0,0,47.5,37Zm0,5.246A1.749,1.749,0,1,1,49.246,40.5,1.749,1.749,0,0,1,47.5,42.246Z" transform="translate(-5.404 -6.36)"/><path d="M49.962,12.456a6.66,6.66,0,0,0-6.17-6.412,6.973,6.973,0,0,0-7.619,4.908,5.589,5.589,0,0,0-1.075-.111,5.358,5.358,0,0,0-4.014,1.675,4.51,4.51,0,0,0-1.154,3.924c-.748.031-1.5.05-2.243.05H23.273a55.944,55.944,0,0,1-7.606-.52l-5.631-1.027a8.33,8.33,0,0,0-6.3,1.679A7.043,7.043,0,0,0,1,22.129V39.9a7.044,7.044,0,0,0,2.749,5.514,8.334,8.334,0,0,0,6.327,1.662l5.546-1.013a56.036,56.036,0,0,1,7.652-.527h4.415c1.32,0,2.654.058,3.981.153A3.4,3.4,0,0,0,35.1,47.967a3.705,3.705,0,0,0,3.005-1.4l2.822.514a8.33,8.33,0,0,0,6.3-1.679,7.043,7.043,0,0,0,2.735-5.5V22.141A5.056,5.056,0,0,0,55.207,17.3,5.056,5.056,0,0,0,49.962,12.456ZM35.1,46.353c-.948,0-1.749-.554-1.749-1.211s.8-1.211,1.749-1.211,1.749.554,1.749,1.211S36.046,46.353,35.1,46.353ZM48.213,39.9a5.476,5.476,0,0,1-2.112,4.27,6.475,6.475,0,0,1-4.877,1.323l-2.647-.484a3.259,3.259,0,0,0-3.48-2.688,3.582,3.582,0,0,0-3.235,1.763c-1.389-.1-2.789-.161-4.174-.161H23.274a57.881,57.881,0,0,0-7.951.551L9.777,45.483a6.479,6.479,0,0,1-4.9-1.306A5.478,5.478,0,0,1,2.749,39.9V38a8,8,0,0,0,6.12,2.708,8.779,8.779,0,0,0,1.2-.081l5.152-.941a3.555,3.555,0,0,0,3.261,1.82,3.351,3.351,0,0,0,3.443-2.4c.449-.01.9-.026,1.344-.026h4.415a55.946,55.946,0,0,1,7.606.52l5.631,1.027a8.655,8.655,0,0,0,1.17.081A8.018,8.018,0,0,0,48.216,38ZM16.738,38.686c0-.656.8-1.211,1.749-1.211s1.749.554,1.749,1.211-.8,1.211-1.749,1.211S16.738,39.342,16.738,38.686Zm29.349-.953a6.454,6.454,0,0,1-4.862,1.313L35.6,38.02a57.84,57.84,0,0,0-7.912-.545H23.273c-.54,0-1.08.016-1.619.031a3.621,3.621,0,0,0-3.168-1.646,3.417,3.417,0,0,0-3.415,2.227l-5.295.951a6.479,6.479,0,0,1-4.9-1.306,5.478,5.478,0,0,1-2.126-4.281V22.129a5.476,5.476,0,0,1,2.111-4.27,6.475,6.475,0,0,1,4.878-1.324l5.624,1.026a57.84,57.84,0,0,0,7.912.545h4.415a57.828,57.828,0,0,0,7.951-.551l5.546-1.013a6.479,6.479,0,0,1,4.9,1.306,5.478,5.478,0,0,1,2.126,4.281V33.452a5.478,5.478,0,0,1-2.126,4.281Zm3.875-17.206c-.068,0-.134-.017-.2-.02a7.857,7.857,0,0,0-8.873-5.555L35.34,15.965c-1.212.168-2.435.294-3.662.382a3.177,3.177,0,0,1,2.032-3.612,3.674,3.674,0,0,1,4.247,1.094l1.425-.935a5.1,5.1,0,0,0-1.551-1.33,5.18,5.18,0,0,1,5.634-3.948,5,5,0,0,1,4.747,4.841c0,.1-.019.2-.025.294a5.262,5.262,0,0,0-2.16,1.344l1.311,1.069A3.541,3.541,0,0,1,49.2,14.151a3.829,3.829,0,0,1,.764-.081,3.371,3.371,0,0,1,3.5,3.228,3.371,3.371,0,0,1-3.5,3.228Z" transform="translate(0)"/><path d="M16.623,29a2.623,2.623,0,1,0,2.623,2.623A2.623,2.623,0,0,0,16.623,29Zm0,3.5a.874.874,0,1,1,.874-.874A.874.874,0,0,1,16.623,32.5Z" transform="translate(-1.634 -4.639)"/><path d="M11.623,39a2.623,2.623,0,1,0,2.623,2.623A2.623,2.623,0,0,0,11.623,39Zm0,3.5a.874.874,0,1,1,.874-.874A.874.874,0,0,1,11.623,42.5Z" transform="translate(-1.005 -6.656)"/><path d="M47.623,26.246A2.623,2.623,0,1,0,45,23.623,2.623,2.623,0,0,0,47.623,26.246Zm0-3.5a.874.874,0,1,1-.874.874A.874.874,0,0,1,47.623,22.749Z" transform="translate(-5.53 -3.026)"/><path d="M25.246,26.623a2.623,2.623,0,1,0-2.623,2.623A2.623,2.623,0,0,0,25.246,26.623Zm-2.623.874a.874.874,0,1,1,.874-.874A.874.874,0,0,1,22.623,27.5Z" transform="translate(-2.388 -3.631)"/><path d="M27.623,36a2.623,2.623,0,1,0,2.623,2.623A2.623,2.623,0,0,0,27.623,36Zm0,3.5a.874.874,0,1,1,.874-.874A.874.874,0,0,1,27.623,39.5Z" transform="translate(-3.016 -6.051)"/><path d="M10.246,25.623a2.623,2.623,0,1,0-2.623,2.623A2.623,2.623,0,0,0,10.246,25.623ZM7.623,26.5a.874.874,0,1,1,.874-.874A.874.874,0,0,1,7.623,26.5Z" transform="translate(-0.503 -3.429)"/></g></g></svg>