<svg xmlns="http://www.w3.org/2000/svg" width="85" height="85" viewBox="0 0 85 85"><g transform="translate(-285.424 -8970)"><circle cx="42.5" cy="42.5" r="42.5" transform="translate(285.424 8970)" fill="#ced371"/><g transform="translate(296.424 8879.81)"><g transform="translate(24.874 121.809)"><path d="M240.227,163.8v23.831a1.211,1.211,0,0,1-1.211,1.211h-32.4a1.211,1.211,0,0,1-1.211-1.211V163.8a1.211,1.211,0,0,1,1.211-1.211h32.4A1.211,1.211,0,0,1,240.227,163.8Z" transform="translate(-205.407 -162.587)" fill="#fcb44d"/><path d="M301.6,204.387a14.615,14.615,0,0,1,5.505,4.792.606.606,0,0,1-.739.889,11.59,11.59,0,0,0-6.186-.582Z" transform="translate(-288.701 -199.325)" fill="#fb9927"/><path d="M239.016,162.587h-3.164a1.211,1.211,0,0,1,1.211,1.211v12.986l-31.656,1.576v1.819l30.009-1.494a1.568,1.568,0,0,1,1.646,1.566v7.378a1.211,1.211,0,0,1-1.211,1.211h3.164a1.211,1.211,0,0,0,1.211-1.211V163.8A1.211,1.211,0,0,0,239.016,162.587Z" transform="translate(-205.407 -162.587)" fill="#fb9927"/><path d="M468.58,192.086a11.468,11.468,0,0,1,3.776,3.048.687.687,0,0,1-.74,1.082,6.722,6.722,0,0,0-3.517-.226Z" transform="translate(-436.287 -188.514)" fill="#fb9927"/></g><g transform="translate(0.906 118.177)"><path d="M74.76,133.8v27.464a1.211,1.211,0,0,1-1.211,1.211h-32.4a1.211,1.211,0,0,1-1.211-1.211V133.8a1.211,1.211,0,0,1,1.211-1.211h32.4A1.211,1.211,0,0,1,74.76,133.8Z" transform="translate(-36.01 -132.591)" fill="#ffd597"/><path d="M73.55,132.592H69.8a1.211,1.211,0,0,1,1.211,1.211v14.239H39.941v1.816H52.5a1.869,1.869,0,0,1,1.871,1.884c-.007.728.018,1.575.091,2.556a.605.605,0,0,0,1.126.263,24.873,24.873,0,0,1,2.988-4.083,1.876,1.876,0,0,1,1.393-.62h9.172a1.871,1.871,0,0,1,1.871,1.871v9.537a1.211,1.211,0,0,1-1.211,1.211H73.55a1.211,1.211,0,0,0,1.211-1.211V133.8A1.211,1.211,0,0,0,73.55,132.592Z" transform="translate(-36.011 -132.592)" fill="#fcc16d"/><path d="M13.093,277.667a14.615,14.615,0,0,0-5.505,4.792.606.606,0,0,0,.739.889,11.59,11.59,0,0,1,6.186-.582" transform="translate(-7.489 -260.098)" fill="#ffd597"/><path d="M301.6,180.728a14.615,14.615,0,0,1,5.505,4.792.606.606,0,0,1-.739.889,11.59,11.59,0,0,0-6.186-.582Z" transform="translate(-264.733 -174.899)" fill="#fcc16d"/><path d="M154.944,234.518s-.9,1.51-.522,6.544a.605.605,0,0,0,1.126.263,24.339,24.339,0,0,1,5.9-6.808Z" transform="translate(-136.547 -222.175)" fill="#ffd597"/></g><g transform="translate(-0.001 116.191)"><path d="M61.661,127.873A10.669,10.669,0,0,0,60.6,126.7v-3.684a2.121,2.121,0,0,0-2.119-2.119H53.068l.006-.131a.908.908,0,1,0-1.815-.077l-.009.209H48.312a.908.908,0,0,0,0,1.816h2.86l-.5,11.8-10.106.5v-1a.908.908,0,0,0,0-1.809v-2.169a8.5,8.5,0,0,1,1.625.481,1.52,1.52,0,0,0,.581.116,1.516,1.516,0,0,0,1.27-2.334,13.406,13.406,0,0,0-2.447-2.807c.382.009.832.035,1.353.089a.908.908,0,1,0,.188-1.807,16.4,16.4,0,0,0-2.57-.086v-.98h3.4a.908.908,0,1,0,0-1.816H41.935a5.439,5.439,0,0,1,1.247-.647.908.908,0,0,0-.6-1.715,7.6,7.6,0,0,0-2.018,1.111v-.263a2.122,2.122,0,0,0-2.119-2.119H30.622l-.008-.2a.908.908,0,1,0-1.815.069l.005.136H15.082l.005-.136a.908.908,0,1,0-1.815-.069l-.008.2H6.047a2.122,2.122,0,0,0-2.119,2.119v3.16a.908.908,0,1,0,1.816,0v-3.16a.3.3,0,0,1,.3-.3H13.2l-.2,5.2a13.707,13.707,0,0,0-3.485.52.908.908,0,1,0,.5,1.745,11.933,11.933,0,0,1,2.912-.446l-.005.143a14.214,14.214,0,0,0-4.848,3.041.908.908,0,0,0,1.333,1.234,11.253,11.253,0,0,1,3.439-2.269l-.15,3.957H5.744V126.9a.908.908,0,1,0-1.816,0v5.317a.908.908,0,0,0,0,1.809v2.229A14.317,14.317,0,0,0,.24,140.048a1.512,1.512,0,0,0,1.851,2.218l.143-.056a10.967,10.967,0,0,0-1.12,1.7.908.908,0,1,0,1.6.863,8.64,8.64,0,0,1,1.215-1.747v3.827a2.122,2.122,0,0,0,2.119,2.119h6.02l-.005.136a.908.908,0,0,0,.873.942h.035a.908.908,0,0,0,.907-.874l.008-.2h4.232a.908.908,0,1,0,0-1.816H13.953l.5-13.126h3.344a29.422,29.422,0,0,0,.082,3.1,1.509,1.509,0,0,0,1.171,1.365,1.525,1.525,0,0,0,.344.039,1.5,1.5,0,0,0,1.3-.751,23.917,23.917,0,0,1,2.719-3.757h6.028l.5,13.126H22.467a.908.908,0,1,0,0,1.816H30l.008.2a.908.908,0,0,0,.907.874h.035a.908.908,0,0,0,.873-.942l-.005-.136H32.7v.17a.908.908,0,1,0,1.816,0v-.17H50.054l-.006.131a.908.908,0,0,0,.869.946h.039a.908.908,0,0,0,.907-.87l.009-.209h6.611a2.122,2.122,0,0,0,2.119-2.119V135.84a.908.908,0,0,0,0-1.808v-3.592a1.6,1.6,0,0,0,1.059-2.566Zm-8.67-5.155h5.492a.3.3,0,0,1,.3.3v2.246a10.616,10.616,0,0,0-1.237-.709.908.908,0,1,0-.763,1.648,10.7,10.7,0,0,1,2.984,2.242,7.809,7.809,0,0,0-3.216-.06.908.908,0,1,0,.264,1.8,7.127,7.127,0,0,1,1.968-.076v4l-6.294.313Zm-14.546-3.632a.3.3,0,0,1,.3.3v4.1c-.341-.19-.561-.293-.6-.309a.908.908,0,0,0-.764,1.648,14.216,14.216,0,0,1,4.58,3.693,13.187,13.187,0,0,0-5.749-.316.908.908,0,1,0,.264,1.8,13.515,13.515,0,0,1,2.265-.148v2.356H31.187l-.5-13.126Zm-26.31,28.069H6.047a.3.3,0,0,1-.3-.3v-5.258a13.635,13.635,0,0,1,2.054.149.908.908,0,1,0,.264-1.8,13.18,13.18,0,0,0-5.749.316,14.217,14.217,0,0,1,4.58-3.693.908.908,0,0,0-.764-1.648c-.027.013-.166.078-.385.194v-1.087h6.887ZM19.464,130.6a.908.908,0,0,0-1.337.578c-.068.283-.134.625-.19,1.035h-3.42l.5-13.126H28.873l.5,13.126H25.206c.358-.323.733-.643,1.129-.954a.933.933,0,0,0,.2-1.272.908.908,0,0,0-1.294-.18,25.024,25.024,0,0,0-5.615,6.235,16.319,16.319,0,0,1,.265-4.441.908.908,0,0,0-.429-1Zm12.287,16.556-.5-13.126h7.492v8.91a10.618,10.618,0,0,0-1.1-.23.908.908,0,0,0-.249,1.8,10.38,10.38,0,0,1,1.353.318v2.026a.3.3,0,0,1-.3.3H31.751Zm8.789,0a2.112,2.112,0,0,0,.024-.3v-1.305a8.028,8.028,0,0,1,1.053.64.908.908,0,0,0,1.066-1.471,10.549,10.549,0,0,0-2.118-1.169v-.74a9.353,9.353,0,0,1,2.653.833.908.908,0,0,0,.866-1.6,11.437,11.437,0,0,0-3.519-1.074v-4.128l10.028-.5-.461,10.814H40.54Zm17.943,0H51.949l.465-10.9,6.371-.317v10.92A.3.3,0,0,1,58.483,147.154Z" transform="translate(0.001 -116.191)"/><path d="M138.895,315.475l-.184,1.118a.908.908,0,0,0,.749,1.044.928.928,0,0,0,.149.012.909.909,0,0,0,.9-.761l.184-1.118a.908.908,0,0,0-1.792-.3Z" transform="translate(-121.902 -290.673)"/><path d="M161.036,316.7a.908.908,0,0,0-1.038.756l-.138.879a.908.908,0,1,0,1.795.282l.138-.879A.908.908,0,0,0,161.036,316.7Z" transform="translate(-140.491 -292.408)"/><path d="M202.935,159.35a.908.908,0,1,0-1.792.3l.184,1.118a.908.908,0,0,0,1.792-.3Z" transform="translate(-176.774 -153.455)"/><path d="M182.169,161.331a.908.908,0,0,0-1.795.281l.138.879a.908.908,0,0,0,1.795-.281Z" transform="translate(-158.521 -155.19)"/><path d="M277.461,275.783a.908.908,0,1,0-1.792.3l.184,1.118a.908.908,0,0,0,1.792-.3Z" transform="translate(-242.274 -255.788)"/><path d="M367.722,226.433a.908.908,0,0,0,.748,1.044.93.93,0,0,0,.149.012.909.909,0,0,0,.9-.761l.184-1.118a.908.908,0,1,0-1.792-.3Z" transform="translate(-323.18 -211.432)"/><path d="M389.628,229.212a.907.907,0,0,0,1.038-.756l.138-.879a.908.908,0,0,0-1.795-.282l-.138.879A.908.908,0,0,0,389.628,229.212Z" transform="translate(-341.769 -213.165)"/></g></g></g></svg>