<svg xmlns="http://www.w3.org/2000/svg" width="57.082" height="55.117" viewBox="0 0 57.082 55.117"><g transform="translate(0)"><path d="M292.612,200.922V224a2.212,2.212,0,0,1-4.425,0v-9.327a1.115,1.115,0,0,0-1.115-1.115h-7.314a1.114,1.114,0,0,0-1.115,1.115V224a2.213,2.213,0,0,1-4.425,0V200.922a3.134,3.134,0,0,1,.539-1.759h0a3.135,3.135,0,0,1,2.6-1.381h12.112a3.139,3.139,0,0,1,3.14,3.141Zm0,0" transform="translate(-243.647 -175.731)" fill="#ffeee1"/><path d="M280.787,318.4h-1.028a1.115,1.115,0,0,0-1.115,1.115v4.15a4.128,4.128,0,0,1-4.425-.664V316.81a4.126,4.126,0,0,1,6.568,1.591Zm0,0" transform="translate(-243.647 -280.575)" fill="#618baa"/><path d="M292.616,200.954v5.754h-2.144c-.016.045-.029.089-.044.134a7.514,7.514,0,0,1-1.74,2.738,7.451,7.451,0,0,1-12.276-2.739c-.015-.044-.029-.088-.044-.133h-2.144v-5.754h1.748v-1.439a3.768,3.768,0,0,1-1.208-.352,3.134,3.134,0,0,1,2.6-1.381h12.112a3.138,3.138,0,0,1,2.6,1.378,3.769,3.769,0,0,1-1.207.356v1.439Zm0,0" transform="translate(-243.65 -175.731)" fill="#fecbaa"/><path d="M72.616,200.922V224a2.213,2.213,0,0,1-4.425,0v-9.327a1.114,1.114,0,0,0-1.115-1.115H59.762a1.115,1.115,0,0,0-1.115,1.115V224a2.213,2.213,0,0,1-4.425,0V200.922a3.131,3.131,0,0,1,.539-1.759h0a3.134,3.134,0,0,1,2.6-1.381H69.475a3.14,3.14,0,0,1,3.141,3.141Zm0,0" transform="translate(-48.178 -175.731)" fill="#ffeee1"/><path d="M72.616,200.954v5.754H70.472c-.016.045-.029.089-.044.134a7.514,7.514,0,0,1-1.74,2.738,7.451,7.451,0,0,1-12.276-2.739c-.015-.044-.029-.088-.044-.133H54.222v-5.754h1.748v-1.439a3.768,3.768,0,0,1-1.209-.352,3.134,3.134,0,0,1,2.6-1.381H69.475a3.138,3.138,0,0,1,2.6,1.378,3.769,3.769,0,0,1-1.207.356v1.439Zm0,0" transform="translate(-48.178 -175.731)" fill="#fecbaa"/><path d="M183.937,369.781v7.042a2.213,2.213,0,0,1-4.425,0v-7.042Zm0,0" transform="translate(-159.498 -328.555)" fill="#618baa"/><path d="M56.843,308.4a2.618,2.618,0,0,1-2.62,2.62v-5.24a2.62,2.62,0,0,1,2.62,2.62Zm0,0" transform="translate(-48.178 -271.69)" fill="#618baa"/><path d="M7.5,238.238H62.909v3.079H7.5Zm0,0" transform="translate(-6.664 -211.677)" fill="#e3f4ff"/><path d="M70.728,152.435a2.47,2.47,0,0,1-2.471,2.471h-.886v6.11a6.111,6.111,0,1,1-12.221,0v-6.11h-.886a2.47,2.47,0,0,1-2.471-2.471,1.093,1.093,0,0,1,1.094-1.094h.933a2.327,2.327,0,0,0,2.007-1.146,2.33,2.33,0,0,1,2.007-1.145h6.854a2.33,2.33,0,0,1,2.007,1.145,2.33,2.33,0,0,0,2.007,1.146h.933a1.093,1.093,0,0,1,1.094,1.094Zm0,0" transform="translate(-46.019 -132.433)" fill="#ffeee1"/><path d="M139.77,207.681h3.055V201.57H139.77a3.055,3.055,0,0,0,0,6.111Zm0,0" transform="translate(-121.473 -179.098)" fill="#618baa"/><path d="M96.643,274.973a6.112,6.112,0,0,1-11.5,0Zm0,0" transform="translate(-75.652 -244.317)" fill="#ffae85"/><path d="M290.724,152.435a2.47,2.47,0,0,1-2.471,2.471h-.886v6.11a6.111,6.111,0,1,1-12.221,0v-6.11h-.886a2.471,2.471,0,0,1-2.471-2.471,1.094,1.094,0,0,1,1.094-1.094h.933a2.326,2.326,0,0,0,2.007-1.146,2.33,2.33,0,0,1,2.007-1.145h6.854a2.329,2.329,0,0,1,2.007,1.145,2.33,2.33,0,0,0,2.007,1.146h.933a1.092,1.092,0,0,1,1.094,1.094Zm0,0" transform="translate(-241.488 -132.433)" fill="#ffeee1"/><path d="M334.2,149.051v2.289a3.3,3.3,0,0,1-6.6,0v-2.289Zm0,0" transform="translate(-291.078 -132.434)" fill="#618baa"/><path d="M316.643,274.973a6.112,6.112,0,0,1-11.5,0Zm0,0" transform="translate(-271.125 -244.317)" fill="#ffae85"/><path d="M78.1,393.966v1.676H27.051v-1.676a2.573,2.573,0,0,1,.044-.477,2.691,2.691,0,0,1,2.65-2.215H75.408a2.691,2.691,0,0,1,2.65,2.215,2.572,2.572,0,0,1,.044.477Zm0,0" transform="translate(-24.035 -347.651)" fill="#5be167"/><path d="M78.1,411.622V413.3H27.051v-1.676a2.573,2.573,0,0,1,.044-.477H78.058a2.572,2.572,0,0,1,.044.477Zm0,0" transform="translate(-24.035 -365.307)" fill="#1fc974"/><path d="M61.778,430.247H8.631A1.131,1.131,0,0,1,7.5,429.116v-4.844a1.131,1.131,0,0,1,1.131-1.131H61.778a1.131,1.131,0,0,1,1.131,1.131v4.844A1.131,1.131,0,0,1,61.778,430.247Zm0,0" transform="translate(-6.664 -375.966)" fill="#e3f4ff"/><path d="M77.751,48.032h-48.6a1.115,1.115,0,0,1-1.114-1.114V43.574H78.866v3.343a1.115,1.115,0,0,1-1.114,1.114Zm0,0" transform="translate(-24.91 -38.716)" fill="#64bdff"/><path d="M61.794,12.7H8.616A1.115,1.115,0,0,1,7.6,11.134L8.9,8.167A1.114,1.114,0,0,1,9.916,7.5H60.494a1.114,1.114,0,0,1,1.021.667l1.3,2.967A1.115,1.115,0,0,1,61.794,12.7Zm0,0" transform="translate(-6.664 -6.664)" fill="#e3f4ff"/><path d="M48.965,159.28a.836.836,0,0,0,.836-.836v-2.2h6.444a.836.836,0,1,0,0-1.672H46.71c0-.074.006-.147.006-.22v-1.186h9.53a.836.836,0,1,0,0-1.672H49.8v-.534a3.972,3.972,0,0,0-.974-2.606,3.3,3.3,0,0,0,1.246-2.583,1.932,1.932,0,0,0-1.93-1.93H47.21a1.5,1.5,0,0,1-1.287-.735,3.179,3.179,0,0,0-2.727-1.557H36.341a3.18,3.18,0,0,0-2.727,1.557,1.5,1.5,0,0,1-1.286.735h-.933a1.932,1.932,0,0,0-1.93,1.93,3.3,3.3,0,0,0,1.246,2.583,3.99,3.99,0,0,0-.974,2.605v.534H25.274v-.534a3.962,3.962,0,0,0-.973-2.606,3.3,3.3,0,0,0,1.245-2.583,1.932,1.932,0,0,0-1.93-1.93h-.933A1.5,1.5,0,0,1,21.4,143.1a3.18,3.18,0,0,0-2.727-1.557H11.814A3.18,3.18,0,0,0,9.087,143.1a1.5,1.5,0,0,1-1.286.735H6.867a1.932,1.932,0,0,0-1.93,1.93,3.3,3.3,0,0,0,1.246,2.583,3.969,3.969,0,0,0-.974,2.606v.534H.836a.836.836,0,1,0,0,1.672H8.3v1.186c0,.074,0,.147.006.22H.836a.836.836,0,1,0,0,1.672H5.209v3.605s0,.007,0,.01,0,.007,0,.01v5.22s0,.007,0,.01,0,.007,0,.01v3.481a3.534,3.534,0,0,0-3.029,3.493v.024H1.967A1.969,1.969,0,0,0,0,174.073v4.844a1.969,1.969,0,0,0,1.967,1.967H55.114a1.969,1.969,0,0,0,1.967-1.967v-4.844a1.969,1.969,0,0,0-1.967-1.967H54.9v-.024a3.533,3.533,0,0,0-3.529-3.529H49.8v-6.3a.836.836,0,0,0-1.672,0v6.3H45.377v-3.845a1.953,1.953,0,0,0-1.951-1.951H37.674a4.961,4.961,0,0,0-6.265-2.246v-4.268h1.678c.039.136.081.271.128.4a.764.764,0,0,0,.038.109,6.946,6.946,0,0,0,13.033,0,.85.85,0,0,0,.038-.108q.07-.2.128-.4h1.678v2.2A.836.836,0,0,0,48.965,159.28Zm-.836-8.323v.534H46.715v-2.416h.051a3.372,3.372,0,0,0,.359-.02A2.3,2.3,0,0,1,48.129,150.957ZM37.36,143.22h4.929v1.453a2.464,2.464,0,0,1-4.929,0Zm-5.965,2.292h.933a3.179,3.179,0,0,0,2.727-1.557,1.5,1.5,0,0,1,.632-.583v1.3a4.137,4.137,0,0,0,8.273,0v-1.241a1.494,1.494,0,0,1,.523.523,3.179,3.179,0,0,0,2.727,1.557h.933a.258.258,0,0,1,.258.257,1.636,1.636,0,0,1-1.634,1.634h-.887a.836.836,0,0,0-.836.836v6.11a5.241,5.241,0,0,1-.148,1.237H34.643a5.264,5.264,0,0,1-.148-1.237v-6.11a.836.836,0,0,0-.836-.836h-.887a1.636,1.636,0,0,1-1.634-1.634.258.258,0,0,1,.258-.257Zm.014,5.446a2.314,2.314,0,0,1,1-1.9,3.377,3.377,0,0,0,.359.02h.051v2.416H31.409v-.534Zm-7.807,0v.534H22.188v-2.416h.051a3.36,3.36,0,0,0,.358-.02,2.3,2.3,0,0,1,1,1.9Zm-5.3,2.556a2.219,2.219,0,0,1,0-4.438h2.219v4.438Zm-11.429-8H7.8a3.179,3.179,0,0,0,2.727-1.557,1.5,1.5,0,0,1,1.287-.735h6.855a1.5,1.5,0,0,1,1.286.735,3.179,3.179,0,0,0,2.727,1.557h.933a.258.258,0,0,1,.258.257,1.636,1.636,0,0,1-1.634,1.634H18.3a3.891,3.891,0,0,0,0,7.783h2.152c-.022.135-.049.269-.081.4H10.115a5.266,5.266,0,0,1-.148-1.237v-6.11a.836.836,0,0,0-.836-.836H8.245a1.637,1.637,0,0,1-1.634-1.634.258.258,0,0,1,.257-.257Zm12.77,11.748a5.269,5.269,0,0,1-8.792,0ZM6.881,151.491v-.534a2.3,2.3,0,0,1,1-1.9,3.387,3.387,0,0,0,.36.02H8.3v2.416Zm1.678,4.751q.058.2.128.4a.826.826,0,0,0,.038.109,6.946,6.946,0,0,0,13.033,0,.787.787,0,0,0,.037-.108c.047-.133.089-.268.128-.405H23.6v9.914H20.85v-1.449a1.953,1.953,0,0,0-1.951-1.951H11.584a1.953,1.953,0,0,0-1.951,1.951v3.845H6.881v-2.72a3.457,3.457,0,0,0,0-6.708v-2.882Zm12.29,12.31v-.724H23.6v.724ZM6.881,160.9a1.784,1.784,0,0,1,0,3.151Zm48.528,13.169v4.844a.3.3,0,0,1-.295.295H1.967a.3.3,0,0,1-.295-.295v-4.844a.3.3,0,0,1,.295-.295H55.114A.3.3,0,0,1,55.409,174.073Zm-2.18-1.991v.024H3.852v-.024a1.859,1.859,0,0,1,1.857-1.857h6.656a.836.836,0,1,0,0-1.672H11.306v-3.845a.279.279,0,0,1,.279-.279H18.9a.279.279,0,0,1,.279.279v3.845h-3a.836.836,0,1,0,0,1.672h35.2a1.858,1.858,0,0,1,1.857,1.857ZM43.7,164.708v3.845H35.833v-3.845a.279.279,0,0,1,.279-.279h7.314A.279.279,0,0,1,43.7,164.708Zm-10.407-2.9a3.27,3.27,0,0,1,2.367,1,1.953,1.953,0,0,0-1.5,1.9v3.565a3.3,3.3,0,0,1-2.752-.483v-5.384A3.287,3.287,0,0,1,33.3,161.809ZM29.736,162c0,.011,0,.022,0,.034v6.126c0,.011,0,.022,0,.034v.358H25.274V167s0-.007,0-.01,0-.006,0-.01V156.242h4.463Zm-7.554-7.431c0-.074.006-.147.006-.22v-1.186H32.822v1.186c0,.074,0,.147.006.22Zm17.587,5.054a5.273,5.273,0,0,1-4.4-2.365h8.792A5.273,5.273,0,0,1,39.769,159.624Zm0,0" transform="translate(0 -125.767)"/><path d="M161.551,216.617a.836.836,0,0,0-.836.836v.669a.836.836,0,1,0,1.672,0v-.669A.836.836,0,0,0,161.551,216.617Zm0,0" transform="translate(-142.797 -192.467)"/><path d="M98.551,218.958a.836.836,0,0,0,.836-.836v-.669a.836.836,0,1,0-1.672,0v.669A.836.836,0,0,0,98.551,218.958Zm0,0" transform="translate(-86.821 -192.467)"/><path d="M381.551,218.958a.836.836,0,0,0,.836-.836v-.669a.836.836,0,1,0-1.672,0v.669A.836.836,0,0,0,381.551,218.958Zm0,0" transform="translate(-338.27 -192.467)"/><path d="M318.551,218.958a.836.836,0,0,0,.836-.836v-.669a.836.836,0,1,0-1.672,0v.669A.836.836,0,0,0,318.551,218.958Zm0,0" transform="translate(-282.294 -192.467)"/><path d="M1.954,6.868h.338V8.2a1.953,1.953,0,0,0,1.951,1.951h10.02a.836.836,0,0,0,0-1.672H4.242A.279.279,0,0,1,3.964,8.2V6.868H53.123V8.2a.279.279,0,0,1-.278.278H18.074a.836.836,0,0,0,0,1.672H52.844A1.953,1.953,0,0,0,54.795,8.2V6.868h.338a1.951,1.951,0,0,0,1.787-2.734l-1.3-2.967A1.951,1.951,0,0,0,53.832,0H3.255A1.951,1.951,0,0,0,1.468,1.167L.168,4.135A1.951,1.951,0,0,0,1.954,6.868ZM1.7,4.806,3,1.839a.278.278,0,0,1,.255-.166H53.832a.279.279,0,0,1,.255.166l1.3,2.967a.279.279,0,0,1-.255.39H1.954a.278.278,0,0,1-.255-.39Zm0,0" transform="translate(-0.003)"/></g></svg>