<svg xmlns="http://www.w3.org/2000/svg" width="36.679" height="51.898" viewBox="0 0 36.679 51.898"><path d="M13.763-30.126h5.512q6.552,0,6.552-6.414a5.546,5.546,0,0,0-1.56-4.073,5.916,5.916,0,0,0-4.4-1.577,6.333,6.333,0,0,0-4.039,1.352,4.125,4.125,0,0,0-1.716,3.363H2.427a11.959,11.959,0,0,1,2.219-7.107A14.652,14.652,0,0,1,10.8-49.454a21.039,21.039,0,0,1,8.65-1.751q8.424,0,13.243,3.848a12.792,12.792,0,0,1,4.819,10.574,10.662,10.662,0,0,1-1.993,6.154,14.208,14.208,0,0,1-5.807,4.7,13.571,13.571,0,0,1,6.31,4.42,11.641,11.641,0,0,1,2.288,7.332,13.025,13.025,0,0,1-5.2,10.816Q27.908.693,19.449.693a22.385,22.385,0,0,1-9.2-1.889A14.421,14.421,0,0,1,3.813-6.431a13.61,13.61,0,0,1-2.184-7.61H13.382a5.26,5.26,0,0,0,1.872,4.021,6.609,6.609,0,0,0,4.611,1.7,6.923,6.923,0,0,0,4.923-1.716,5.736,5.736,0,0,0,1.837-4.385q0-3.813-1.907-5.408a7.971,7.971,0,0,0-5.27-1.595H13.763Z" transform="translate(-1.629 51.205)" fill="#12263f"/></svg>