<svg xmlns="http://www.w3.org/2000/svg" xmlns:xlink="http://www.w3.org/1999/xlink" width="169" height="169" viewBox="0 0 169 169"><defs><filter id="a" x="0" y="0" width="169" height="169" filterUnits="userSpaceOnUse"><feOffset dy="6" input="SourceAlpha"/><feGaussianBlur stdDeviation="5" result="b"/><feFlood flood-opacity="0.329"/><feComposite operator="in" in2="b"/><feComposite in="SourceGraphic"/></filter></defs><g transform="translate(-347.622 -3024)"><g transform="matrix(1, 0, 0, 1, 347.62, 3024)" filter="url(#a)"><circle cx="69.5" cy="69.5" r="69.5" transform="translate(15 9)" fill="#ffb500"/></g><g transform="translate(400.622 3070)"><path d="M58,22v4H6V22H58Z" fill="#aab2bd"/><path d="M62,5V62H58V5a1,1,0,0,1,1-1h2A1,1,0,0,1,62,5Z" fill="#aab2bd"/><path d="M6,5V62H2V5A1,1,0,0,1,3,4H5A1,1,0,0,1,6,5Z" fill="#aab2bd"/><path d="M40,48V62H36V46h4Z" fill="#ccd1d9"/><path d="M36,46V62H28l-.19-1.9A8.944,8.944,0,0,0,24,53.62V46H36Z" fill="#e6e9ed"/><path d="M40,48H58V62H40Z" fill="#d3a06c"/><path d="M30,32V46H40v2H54V32Z" fill="#d3a06c"/><path d="M30,2v8H24V22H10V2h6V6h8V2Z" fill="#d3a06c"/><path d="M54,2V22H40V10H34V2h6V6h8V2Z" fill="#d3a06c"/><path d="M24,10H40V22H24Z" fill="#cf9e76"/><path d="M30,10h4v4H30Z" fill="#dfb28b"/><path d="M46,48h6v6H46Z" fill="#b27946"/><path d="M38,32h8v4H38Z" fill="#b27946"/><path d="M40,2h8V6H40Z" fill="#b27946"/><path d="M16,2h8V6H16Z" fill="#b27946"/><path d="M22,62H2l.19-1.9A8.994,8.994,0,0,1,11.14,52h7.72A9.032,9.032,0,0,1,24,53.61v.01a8.944,8.944,0,0,1,3.81,6.48L28,62Z" fill="#b4dd7f"/><path d="M6.93,37.15A6.84,6.84,0,0,1,6,33.7,7.705,7.705,0,0,1,13.7,26H23a1,1,0,0,1,1,1v2a4.918,4.918,0,0,1-1.59,3.63A5.278,5.278,0,0,1,18.79,34H16.11a2.169,2.169,0,0,1-1.33-.44l-.01.01L14,38a2.006,2.006,0,0,0-2,2,2.406,2.406,0,0,0,.71,1.71L14,43v.76A3.613,3.613,0,0,1,12,47L9.24,45.62a5.854,5.854,0,0,1-2.62-7.86Z" fill="#656d78"/><path d="M14.78,33.56a2.169,2.169,0,0,0,1.33.44h2.68a5.278,5.278,0,0,0,3.62-1.37l.01.01A30.082,30.082,0,0,1,26,41l-2,1v1a5,5,0,0,1-5,5H18v4H12V47a3.613,3.613,0,0,0,2-3.24V43l-1.29-1.29A2.406,2.406,0,0,1,12,40a2.006,2.006,0,0,1,2-2l.77-4.43Z" fill="#f0d0b4"/><path d="M61,3H59a2,2,0,0,0-2,2V21H55V1H33V9H31V1H9V21H7V5A2,2,0,0,0,5,3H3A2,2,0,0,0,1,5V63H63V5A2,2,0,0,0,61,3ZM41,3h2V5H41Zm4,0h2V5H45ZM35,3h4V7H49V3h4V21H41V9H35Zm0,8h4V21H25V11h4v4h6Zm-2,0v2H31V11ZM17,3h2V5H17Zm4,0h2V5H21ZM11,3h4V7H25V3h4V9H23V21H11ZM57,23v2H7V23ZM21,59v2H9V59H7v2H3.105l.08-.8a7.974,7.974,0,0,1,7.96-7.2h7.71a7.974,7.974,0,0,1,7.96,7.2l.08.8H23V59ZM7,27H8.161A8.791,8.791,0,0,0,7,28.162Zm.15,12.2L8.2,40.6l1.6-1.2L8.179,37.239A5.927,5.927,0,0,1,7,33.7,6.7,6.7,0,0,1,13.7,27H23v2a4.066,4.066,0,0,1-4.21,4H16.107a1.077,1.077,0,0,1-1.053-.662,1.018,1.018,0,0,1,.141-.931A.99.99,0,0,1,16,31h1V29H16a3.006,3.006,0,0,0-2.859,3.925,2.765,2.765,0,0,0,.557.985l-.561,3.216A3.007,3.007,0,0,0,11,40a3.393,3.393,0,0,0,1,2.414l1,1v.35a2.6,2.6,0,0,1-1.046,2.1L9.683,44.724A4.834,4.834,0,0,1,7.15,39.2ZM19,51.007V49a5.969,5.969,0,0,0,4-1.54V51.9A10,10,0,0,0,19,51.007ZM23,43a4,4,0,0,1-4,4H17v4H13V47.568a4.59,4.59,0,0,0,2-3.805V42.585L13.415,41A1.4,1.4,0,0,1,13,40a1,1,0,0,1,1-1h.841l.707-4.052a3.217,3.217,0,0,0,.558.052h2.683a6.411,6.411,0,0,0,3.326-.913,28.841,28.841,0,0,1,2.708,6.383L23,41.382Zm5.806,17A10.013,10.013,0,0,0,28.652,59H33V57H28.018A9.939,9.939,0,0,0,25,53.1V47H35V61H28.905ZM37,47h2V61H37Zm-6-2V33h6v4H47V33h6V47H41V45ZM45,33v2H43V33Zm-4,2H39V33h2Zm6,14h4v4H47ZM29,31V45H24.65A5.951,5.951,0,0,0,25,43v-.382l2.165-1.082-.194-.778a30.677,30.677,0,0,0-3.312-8A5.885,5.885,0,0,0,25,29V27H57V47H55V31ZM5,5V33.7a7.918,7.918,0,0,0,.81,3.443l-.086.172a6.855,6.855,0,0,0,3.065,9.2L11,47.618v3.389A9.956,9.956,0,0,0,3,55.2V5ZM41,61V49h4v6h8V49h4V61Zm20,0H59V5h2Z"/><path d="M27,49h6v2H27Z"/><path d="M27,53h6v2H27Z"/></g></g></svg>