<svg xmlns="http://www.w3.org/2000/svg" xmlns:xlink="http://www.w3.org/1999/xlink" width="115" height="115" viewBox="0 0 115 115"><defs><filter id="a" x="0" y="0" width="115" height="115" filterUnits="userSpaceOnUse"><feOffset dy="6" input="SourceAlpha"/><feGaussianBlur stdDeviation="5" result="b"/><feFlood flood-opacity="0.329"/><feComposite operator="in" in2="b"/><feComposite in="SourceGraphic"/></filter></defs><g transform="translate(-11277.007 8678.701)"><g transform="matrix(1, 0, 0, 1, 11277.01, -8678.7)" filter="url(#a)"><circle cx="42.5" cy="42.5" r="42.5" transform="translate(15 9)" fill="#ffb500"/></g><g transform="translate(11318.302 -8645.241)"><path d="M16.3,31.5h1.835V45.565H16.3Z" transform="translate(-9.573 -13.764)" fill="#5a6c75"/><path d="M37.8,13.5h1.835V31.234H37.8Z" transform="translate(-17.926 -6.772)" fill="#5a6c75"/><path d="M17.993,57.169H14.8a.612.612,0,0,1-.581-.807l.813-2.446a.612.612,0,0,1,.581-.416h1.565a.612.612,0,0,1,.612.416l.813,2.446a.612.612,0,0,1-.612.807Z" transform="translate(-8.753 -22.311)" fill="#3f4c51"/><path d="M39.493,8.5H36.3a.612.612,0,0,0-.581.807l.813,2.446a.612.612,0,0,0,.612.416H38.71a.612.612,0,0,0,.612-.416l.813-2.446a.612.612,0,0,0-.642-.807Z" transform="translate(-17.105 -4.827)" fill="#3f4c51"/><path d="M19.753,20.011H6.912A.612.612,0,0,1,6.3,19.4V15.033C6.3,5.6,13.332,3.5,13.332,3.5s7.032,2.1,7.032,11.533V19.4A.612.612,0,0,1,19.753,20.011Z" transform="translate(-5.688 -2.887)" fill="#cde7f9"/><path d="M41.811,43.5h-15.9a.612.612,0,0,0-.612.612v2.446l7.95,1.706a5.381,5.381,0,0,0,1.174,0l7.95-1.706V44.112A.612.612,0,0,0,41.811,43.5Z" transform="translate(-13.07 -18.426)" fill="#5a6c75"/><path d="M16.052,23.5A2.752,2.752,0,0,1,18.8,26.252v3.363a.612.612,0,0,1-.612.612H13.912a.612.612,0,0,1-.612-.612V26.252A2.752,2.752,0,0,1,16.052,23.5Z" transform="translate(-8.408 -10.656)" fill="#3f4c51"/><rect width="5.504" height="4.281" rx="1" transform="translate(18.04 22.628)" fill="#3f4c51"/><g transform="translate(2.14 2.258)"><circle cx="1.223" cy="1.223" r="1.223" transform="translate(0 26.485)" fill="#ffa726"/><path d="M26.981,8.025S26.436,6.19,25.758,6.19s-1.223,1.835-1.223,1.835S22.7,8.575,22.7,9.248s1.835,1.223,1.835,1.223.55,1.835,1.223,1.835,1.223-1.835,1.223-1.835,1.835-.55,1.835-1.223-1.835-1.223-1.835-1.223Z" transform="translate(-14.2 -6.19)" fill="#ffa726"/><path d="M51.981,38.025s-.544-1.835-1.223-1.835-1.223,1.835-1.223,1.835-1.835.55-1.835,1.223,1.835,1.223,1.835,1.223.55,1.835,1.223,1.835,1.223-1.835,1.223-1.835,1.835-.55,1.835-1.223S51.981,38.025,51.981,38.025Z" transform="translate(-23.912 -17.845)" fill="#ffa726"/></g><path d="M19.976,20.233a.612.612,0,0,0,.612-.612V14.643a16.309,16.309,0,0,0-.459-3.914,5.357,5.357,0,0,0,.581-1.223c.844-.287,1.957-.838,1.957-1.706S21.554,6.376,20.71,6.088C20.4,5.251,19.872,4.144,19,4.144c-.691,0-1.174.7-1.492,1.406a16.022,16.022,0,0,0-4.385-3.027.612.612,0,0,0-.355,0C12.693,2.542,5.3,4.865,5.3,14.643v4.978a.612.612,0,0,0,.612.612H9.581v1.835a.612.612,0,0,0,.612.612h1.223V33.331a1.223,1.223,0,0,0-.416.575l-.813,2.446a1.223,1.223,0,0,0,1.162,1.614H14.54A1.223,1.223,0,0,0,15.7,36.352l-.813-2.446a1.272,1.272,0,0,0-.416-.575V22.679H15.7a.612.612,0,0,0,.612-.612V20.233ZM19,5.416a4.385,4.385,0,0,1,.612,1.345.612.612,0,0,0,.41.41,4.281,4.281,0,0,1,1.345.612,4.458,4.458,0,0,1-1.345.612.612.612,0,0,0-.41.41A4.385,4.385,0,0,1,19,10.149,4.385,4.385,0,0,1,18.386,8.8a.612.612,0,0,0-.41-.41,4.458,4.458,0,0,1-1.345-.612,4.281,4.281,0,0,1,1.345-.612.612.612,0,0,0,.41-.41A4.385,4.385,0,0,1,19,5.416ZM6.523,19.01V14.643c0-8.127,5.32-10.494,6.415-10.891a10.249,10.249,0,0,1,3.669,2.623c-.66.318-1.278.789-1.278,1.437,0,.868,1.113,1.419,1.963,1.706.294.85.856,2.012,1.755,1.951a15.514,15.514,0,0,1,.318,3.174V19.01H16.307v-.917a3.363,3.363,0,1,0-6.727,0v.917Zm4.825,17.734.813-2.446h1.565l.819,2.446Zm3.736-15.288H13.861a.612.612,0,0,0-.612.612V33.074h-.612V22.067a.612.612,0,0,0-.612-.612H10.8V18.092a2.14,2.14,0,0,1,4.281,0Z" transform="translate(-5.3 -2.497)"/><path d="M9.635,48.5a1.835,1.835,0,1,0,1.835,1.835A1.835,1.835,0,0,0,9.635,48.5Zm0,2.446a.612.612,0,1,1,.612-.612A.612.612,0,0,1,9.635,50.946Z" transform="translate(-6.271 -20.369)"/><path d="M43.379,26.39c-.294-.844-.838-1.957-1.712-1.957s-1.419,1.113-1.706,1.957c-.85.287-1.963.838-1.963,1.712a1.156,1.156,0,0,0,.361.8H36.836V27.68a1.223,1.223,0,0,0-1.223-1.223H35V12.129a1.272,1.272,0,0,0,.416-.575l.813-2.446A1.223,1.223,0,0,0,35.069,7.5H31.877a1.223,1.223,0,0,0-1.162,1.608l.813,2.446a1.223,1.223,0,0,0,.416.575V26.457h-.612a1.223,1.223,0,0,0-1.223,1.223V28.9H26.746A2.446,2.446,0,0,0,24.3,31.349V39.3a.612.612,0,0,0,1.223,0V33.324l3.058.654V39.3a.612.612,0,0,0,1.223,0V34.241l3.058.654v4.4a.612.612,0,1,0,1.223,0V34.9l3.058-.654V39.3a.612.612,0,0,0,1.223,0v-5.32l3.058-.654V39.3a.612.612,0,0,0,1.223,0V31.214a4.757,4.757,0,0,0,.734-1.394c.844-.287,1.957-.838,1.957-1.706S44.223,26.677,43.379,26.39ZM35.069,8.723l-.813,2.446H32.678l-.813-2.446ZM31.332,27.68h1.223a.612.612,0,0,0,.612-.612V12.392h.612V27.068a.612.612,0,0,0,.612.612h1.223v3.058H31.332Zm2.14,6.115-7.95-1.7v-.746a1.223,1.223,0,0,1,1.223-1.223h3.363v.612a1.223,1.223,0,0,0,1.223,1.223h4.281a1.223,1.223,0,0,0,1.223-1.223v-.612h3.241c.275.691.715,1.443,1.345,1.6v.349Zm9.24-5.039a.612.612,0,0,0-.41.41,4.385,4.385,0,0,1-.612,1.345,4.384,4.384,0,0,1-.612-1.345.612.612,0,0,0-.41-.41,4.458,4.458,0,0,1-1.345-.612,4.281,4.281,0,0,1,1.345-.612.612.612,0,0,0,.41-.41,4.384,4.384,0,0,1,.612-1.345,4.385,4.385,0,0,1,.612,1.345.612.612,0,0,0,.41.41,4.281,4.281,0,0,1,1.345.612,4.458,4.458,0,0,1-1.345.593Z" transform="translate(-12.681 -4.441)"/></g></g></svg>