<svg xmlns="http://www.w3.org/2000/svg" xmlns:xlink="http://www.w3.org/1999/xlink" width="169" height="169" viewBox="0 0 169 169"><defs><filter id="a" x="0" y="0" width="169" height="169" filterUnits="userSpaceOnUse"><feOffset dy="6" input="SourceAlpha"/><feGaussianBlur stdDeviation="5" result="b"/><feFlood flood-opacity="0.329"/><feComposite operator="in" in2="b"/><feComposite in="SourceGraphic"/></filter></defs><g transform="translate(-11592.007 8671.701)"><g transform="matrix(1, 0, 0, 1, 11592.01, -8671.7)" filter="url(#a)"><circle cx="69.5" cy="69.5" r="69.5" transform="translate(15 9)" fill="#ffb500"/></g><g transform="translate(11645.006 -8625.701)"><path d="M58.962,91.732H36.5V44.6c0-3.1,2.511-7.1,5.609-7.1H53.353c3.1,0,5.609,4,5.609,7.1Zm0,0" transform="translate(-31.969 -32.846)" fill="#4380a0"/><path d="M146.024,37.5H142.3c3.1,0,5.609,4,5.609,7.1V91.732h3.723V44.6c0-3.1-2.511-7.1-5.609-7.1Zm0,0" transform="translate(-124.64 -32.846)" fill="#3b7191"/><path d="M116.917,181.073H71V151.34l9.68-7.476L93.959,139.5l13.21,4.188,9.748,7.652Zm0,0" transform="translate(-62.188 -122.188)" fill="#ff5622"/><path d="M408,208.992l.044,32.95H412.1V212.208Zm0,0" transform="translate(-357.366 -183.056)" fill="#e8491d"/><path d="M165.784,308.122H136V285.536a.993.993,0,0,1,.993-.993h27.8a.993.993,0,0,1,.993.993Zm0,0" transform="translate(-119.121 -249.231)" fill="#4380a0"/><path d="M341.723,284.543H338a.993.993,0,0,1,.993.993v22.586h3.723V285.536A.993.993,0,0,0,341.723,284.543Zm0,0" transform="translate(-296.053 -249.231)" fill="#3b7191"/><path d="M67.324,478.223H9.355A1.854,1.854,0,0,1,7.5,476.369v-.015A1.854,1.854,0,0,1,9.355,474.5H67.324a1.854,1.854,0,0,1,1.854,1.854v.015A1.854,1.854,0,0,1,67.324,478.223Zm0,0" transform="translate(-6.569 -415.615)" fill="#6fe036"/><path d="M463.282,474.5h-3.723a1.854,1.854,0,0,1,1.854,1.854v.015a1.854,1.854,0,0,1-1.854,1.854h3.723a1.854,1.854,0,0,0,1.854-1.854v-.015A1.854,1.854,0,0,0,463.282,474.5Zm0,0" transform="translate(-402.526 -415.615)" fill="#66cf32"/><path d="M166,314.543h22.338V334.4H166Zm0,0" transform="translate(-145.398 -275.508)" fill="#e8491d"/><path d="M67.356,144.333a1.786,1.786,0,0,1-.955-.277L62.4,141.531a1.823,1.823,0,0,1-.449-.4l-8.9-11.042-14.7-5.256-14.7,5.256-8.9,11.042a1.821,1.821,0,0,1-.449.4l-4.007,2.525a1.8,1.8,0,0,1-2.506-.606,1.882,1.882,0,0,1,.593-2.559l3.749-2.363,9.035-11.2a1.817,1.817,0,0,1,.8-.573l15.784-5.643a1.788,1.788,0,0,1,1.2,0l15.784,5.643a1.818,1.818,0,0,1,.8.573l9.035,11.2,3.75,2.363a1.883,1.883,0,0,1,.593,2.559,1.813,1.813,0,0,1-1.552.883Zm0,0" transform="translate(-6.57 -105.987)" fill="#ffe8cf"/><path d="M209.658,218.971H198.986a1.986,1.986,0,1,1,0-3.971h10.673a1.986,1.986,0,0,1,0,3.971Zm0,0" transform="translate(-172.551 -188.319)" fill="#80deea"/><path d="M272.723,215H269a1.986,1.986,0,0,1,0,3.971h3.723a1.986,1.986,0,0,0,0-3.971Zm0,0" transform="translate(-235.616 -188.319)" fill="#4dd0e1"/><path d="M85,7.5H95.424v3.723H85Zm0,0" transform="translate(-74.45 -6.569)" fill="#bdf9ff"/><path d="M139,7.5h3.723v3.723H139Zm0,0" transform="translate(-121.749 -6.569)" fill="#8cf2ff"/><path d="M363.124,96.588a1.924,1.924,0,1,1-1.924-1.924A1.924,1.924,0,0,1,363.124,96.588Zm0,0" transform="translate(-314.69 -82.916)" fill="#ff5622"/><path d="M60.756,57.955h-5.1V36.541l3.676,2.316a2.727,2.727,0,0,0,3.8-.912,2.821,2.821,0,0,0-.894-3.828l-3.618-2.28L56.2,28.829A.931.931,0,1,0,54.749,30l2.522,3.128a.941.941,0,0,0,.228.2l3.749,2.363a.949.949,0,0,1,.293,1.29.868.868,0,0,1-1.213.3l-4.007-2.525a.9.9,0,0,1-.221-.2L47.2,23.518a.93.93,0,0,0-.411-.292l-14.7-5.256a.932.932,0,0,0-.626,0l-14.7,5.256a.93.93,0,0,0-.411.292L7.441,34.56a.9.9,0,0,1-.221.2L3.214,37.282A.869.869,0,0,1,2,36.982a.949.949,0,0,1,.293-1.29l3.749-2.363a.941.941,0,0,0,.228-.2l9.035-11.2a.89.89,0,0,1,.393-.281L31.482,16a.86.86,0,0,1,.577,0L47.843,21.64a.9.9,0,0,1,.393.281l4.02,4.985a.931.931,0,1,0,1.449-1.168l-4.02-4.985a2.747,2.747,0,0,0-1.215-.865l-1.028-.368V16.368a2.854,2.854,0,1,0-1.862,0v2.486l-12.894-4.61a2.721,2.721,0,0,0-1.83,0l-2.932,1.048v-3.54c0-3.46-2.642-7.6-6.019-8V.931A.931.931,0,0,0,20.974,0H10.55a.931.931,0,0,0-.931.931V3.756c-3.377.394-6.019,4.535-6.019,8v4.082a.931.931,0,0,0,1.862,0V11.752c0-2.719,2.2-6.168,4.678-6.168H21.384c2.476,0,4.678,3.449,4.678,6.168v4.206l-10.99,3.93a2.751,2.751,0,0,0-1.215.865l-8.4,10.411V19.817a.931.931,0,1,0-1.862,0V32.668L1.3,34.117a2.821,2.821,0,0,0-.894,3.828,2.73,2.73,0,0,0,3.193,1.2V57.955H2.786A2.788,2.788,0,0,0,0,60.74v.015a2.788,2.788,0,0,0,2.785,2.785h9.138a.931.931,0,1,0,0-1.862H2.786a.924.924,0,0,1-.923-.923V60.74a.925.925,0,0,1,.923-.923c36.21.011,43.31,0,57.969,0a.925.925,0,0,1,.923.923v.015a.924.924,0,0,1-.923.923H15.9a.931.931,0,0,0,0,1.862h44.86a2.788,2.788,0,0,0,2.785-2.785V60.74a2.788,2.788,0,0,0-2.785-2.785ZM46.511,12.678a.993.993,0,1,1-.993.993A.994.994,0,0,1,46.511,12.678ZM11.48,3.723V1.861h8.563V3.723ZM5.462,38.066l2.42-1.525V57.955H5.462ZM45.732,57.955H43.871V39.035a.932.932,0,0,0-.926-.93H20.6a.922.922,0,0,0-.926.943V57.955H17.81V36.3a.062.062,0,0,1,.062-.062h27.8a.062.062,0,0,1,.062.062Zm-9.445-8.992L32.7,55.338V42.588ZM30.84,55.338l-3.586-6.375,3.586-6.375Zm-.664,2.617H22.2l3.99-7.093Zm3.189,0,3.99-7.093,3.99,7.093Zm8.644-2.617-3.586-6.375,3.586-6.375Zm-4.654-8.274-3.993-7.1h7.986Zm-11.169,0-3.993-7.1h7.986Zm-1.068,1.9-3.586,6.375V42.588Zm22.475,8.992V36.3a1.926,1.926,0,0,0-1.924-1.924h-27.8A1.926,1.926,0,0,0,15.948,36.3v21.65H9.743V34.671l7.887-9.78,14.141-5.056,14.141,5.056,7.887,9.78V57.955Zm0,0"/><path d="M203.089,207.5H192.416a2.916,2.916,0,1,0,0,5.833h10.673a2.916,2.916,0,1,0,0-5.833Zm0,3.971H192.416a1.055,1.055,0,0,1,0-2.11h10.673a1.055,1.055,0,0,1,0,2.11Zm0,0" transform="translate(-165.982 -181.749)"/><path d="M344.724,62.6a6.381,6.381,0,0,0-3.9,1.315.931.931,0,1,0,1.128,1.481,4.569,4.569,0,0,1,5.53-.005.931.931,0,1,0,1.125-1.483A6.382,6.382,0,0,0,344.724,62.6Zm0,0" transform="translate(-298.208 -54.833)"/><path d="M339.324,38.607a.931.931,0,0,0-.179-1.3,9.009,9.009,0,0,0-10.907.007.931.931,0,0,0,1.128,1.481,7.147,7.147,0,0,1,8.654-.006.931.931,0,0,0,1.3-.179Zm0,0" transform="translate(-287.182 -31.067)"/><path d="M317.271,12.989a9.628,9.628,0,0,1,11.656-.006.931.931,0,1,0,1.126-1.482,11.487,11.487,0,0,0-13.909.007.931.931,0,0,0,1.128,1.481Zm0,0" transform="translate(-276.587 -8.024)"/></g></g></svg>