<svg xmlns="http://www.w3.org/2000/svg" xmlns:xlink="http://www.w3.org/1999/xlink" width="115" height="115" viewBox="0 0 115 115"><defs><filter id="a" x="0" y="0" width="115" height="115" filterUnits="userSpaceOnUse"><feOffset dy="6" input="SourceAlpha"/><feGaussianBlur stdDeviation="5" result="b"/><feFlood flood-opacity="0.329"/><feComposite operator="in" in2="b"/><feComposite in="SourceGraphic"/></filter></defs><g transform="translate(-11592.007 8671.701)"><g transform="matrix(1, 0, 0, 1, 11592.01, -8671.7)" filter="url(#a)"><circle cx="42.5" cy="42.5" r="42.5" transform="translate(15 9)" fill="#ffb500"/></g><g transform="translate(11630.244 -8640.075)"><path d="M50.236,70.663H36.5V41.841c0-1.895,1.536-4.341,3.43-4.341h6.876c1.895,0,3.43,2.446,3.43,4.341Zm0,0" transform="translate(-33.73 -34.654)" fill="#4380a0"/><path d="M144.578,37.5H142.3c1.895,0,3.43,2.446,3.43,4.341V70.663h2.277V41.841c0-1.895-1.536-4.341-3.43-4.341Zm0,0" transform="translate(-131.502 -34.654)" fill="#3b7191"/><path d="M99.079,164.922H71V146.74l5.919-4.572,8.12-2.669,8.078,2.561,5.961,4.679Zm0,0" transform="translate(-65.612 -128.913)" fill="#ff5622"/><path d="M408,208.992l.027,20.149H410.5V210.959Zm0,0" transform="translate(-377.037 -193.132)" fill="#e8491d"/><path d="M154.213,298.962H136V285.15a.607.607,0,0,1,.607-.607h17a.607.607,0,0,1,.607.607Zm0,0" transform="translate(-125.679 -262.949)" fill="#4380a0"/><path d="M340.277,284.543H338a.607.607,0,0,1,.607.607v13.812h2.277V285.15A.607.607,0,0,0,340.277,284.543Zm0,0" transform="translate(-312.35 -262.949)" fill="#3b7191"/><path d="M44.083,476.777H8.634A1.134,1.134,0,0,1,7.5,475.643v-.009A1.134,1.134,0,0,1,8.634,474.5H44.083a1.134,1.134,0,0,1,1.134,1.134v.009A1.134,1.134,0,0,1,44.083,476.777Zm0,0" transform="translate(-6.931 -438.491)" fill="#6fe036"/><path d="M461.836,474.5h-2.277a1.134,1.134,0,0,1,1.134,1.134v.009a1.134,1.134,0,0,1-1.134,1.134h2.277a1.134,1.134,0,0,0,1.134-1.134v-.009A1.134,1.134,0,0,0,461.836,474.5Zm0,0" transform="translate(-424.684 -438.491)" fill="#66cf32"/><path d="M166,314.543h13.66v12.142H166Zm0,0" transform="translate(-153.403 -290.673)" fill="#e8491d"/><path d="M44.1,135.27a1.092,1.092,0,0,1-.584-.17l-2.45-1.544a1.115,1.115,0,0,1-.275-.245l-5.445-6.752-8.99-3.214-8.99,3.214-5.445,6.752a1.113,1.113,0,0,1-.275.245L9.2,135.1a1.1,1.1,0,0,1-1.533-.371,1.151,1.151,0,0,1,.363-1.565l2.293-1.445,5.525-6.852a1.111,1.111,0,0,1,.492-.35l9.652-3.451a1.093,1.093,0,0,1,.736,0l9.652,3.451a1.112,1.112,0,0,1,.491.35L42.4,131.72l2.293,1.445a1.151,1.151,0,0,1,.363,1.565,1.108,1.108,0,0,1-.949.54Zm0,0" transform="translate(-6.933 -111.82)" fill="#ffe8cf"/><path d="M204.741,217.428h-6.526a1.214,1.214,0,1,1,0-2.428h6.526a1.214,1.214,0,1,1,0,2.428Zm0,0" transform="translate(-182.05 -198.684)" fill="#80deea"/><path d="M271.277,215H269a1.214,1.214,0,0,1,0,2.428h2.277a1.214,1.214,0,0,0,0-2.428Zm0,0" transform="translate(-248.586 -198.684)" fill="#4dd0e1"/><path d="M85,7.5h6.375V9.777H85Zm0,0" transform="translate(-78.55 -6.931)" fill="#bdf9ff"/><path d="M139,7.5h2.277V9.777H139Zm0,0" transform="translate(-128.452 -6.931)" fill="#8cf2ff"/><path d="M361.63,95.84a1.176,1.176,0,1,1-1.176-1.176A1.176,1.176,0,0,1,361.63,95.84Zm0,0" transform="translate(-332.012 -87.48)" fill="#ff5622"/><path d="M37.153,35.44H34.037V22.345l2.248,1.416a1.668,1.668,0,0,0,2.323-.558,1.725,1.725,0,0,0-.547-2.341l-2.213-1.394-1.483-1.839a.569.569,0,1,0-.886.714l1.542,1.913a.576.576,0,0,0,.14.124l2.293,1.445a.58.58,0,0,1,.179.789.531.531,0,0,1-.742.183l-2.45-1.544a.551.551,0,0,1-.135-.121l-5.445-6.752a.569.569,0,0,0-.251-.178l-8.99-3.214a.57.57,0,0,0-.383,0L10.247,14.2a.569.569,0,0,0-.251.178L4.551,21.134a.551.551,0,0,1-.135.121L1.966,22.8a.531.531,0,0,1-.742-.183.58.58,0,0,1,.179-.789L3.7,20.381a.576.576,0,0,0,.14-.124L9.36,13.4a.544.544,0,0,1,.24-.172l9.652-3.451a.526.526,0,0,1,.353,0l9.652,3.451a.548.548,0,0,1,.24.172l2.458,3.049a.569.569,0,1,0,.886-.714L30.383,12.69a1.68,1.68,0,0,0-.743-.529l-.628-.225V10.009a1.745,1.745,0,1,0-1.138,0v1.52L19.988,8.71a1.664,1.664,0,0,0-1.119,0l-1.793.641V7.186c0-2.116-1.616-4.649-3.681-4.889V.569A.569.569,0,0,0,12.826,0H6.452a.569.569,0,0,0-.569.569V2.3C3.818,2.538,2.2,5.07,2.2,7.186v2.5a.569.569,0,0,0,1.138,0v-2.5c0-1.662,1.347-3.772,2.861-3.772h6.876c1.514,0,2.861,2.109,2.861,3.772V9.758l-6.721,2.4a1.682,1.682,0,0,0-.743.529L3.34,19.057V12.118a.569.569,0,1,0-1.138,0v7.858L.8,20.863A1.725,1.725,0,0,0,.249,23.2a1.669,1.669,0,0,0,1.953.732v11.5H1.7a1.7,1.7,0,0,0-1.7,1.7v.009a1.7,1.7,0,0,0,1.7,1.7H7.292a.569.569,0,0,0,0-1.138H1.7a.565.565,0,0,1-.565-.565v-.009a.566.566,0,0,1,.565-.565c22.143.007,26.484,0,35.449,0a.566.566,0,0,1,.565.565v.009a.565.565,0,0,1-.565.565H9.721a.569.569,0,0,0,0,1.138H37.153a1.7,1.7,0,0,0,1.7-1.7v-.009a1.7,1.7,0,0,0-1.7-1.7ZM28.443,7.753a.607.607,0,1,1-.607.607A.608.608,0,0,1,28.443,7.753ZM7.021,2.276V1.138h5.236V2.276Zm-3.681,21,1.48-.933V35.44H3.34ZM27.966,35.44H26.828V23.87a.57.57,0,0,0-.566-.569H12.6a.564.564,0,0,0-.566.577h0V35.44H10.891V22.2a.038.038,0,0,1,.038-.038h17a.038.038,0,0,1,.038.038Zm-5.776-5.5L20,33.84v-7.8Zm-3.331,3.9-2.193-3.9,2.193-3.9Zm-.406,1.6h-4.88l2.44-4.338Zm1.95,0,2.44-4.338,2.44,4.338Zm5.286-1.6-2.193-3.9,2.193-3.9ZM22.844,28.78,20.4,24.439h4.884Zm-6.83,0-2.442-4.341h4.884Zm-.653,1.161-2.193,3.9v-7.8ZM29.1,35.44V22.2a1.178,1.178,0,0,0-1.176-1.176h-17A1.178,1.178,0,0,0,9.753,22.2V35.44H5.958V21.2l4.823-5.981,8.647-3.092,8.647,3.092L32.9,21.2V35.44Zm0,0" transform="translate(-0.001 0)"/><path d="M197.81,207.5h-6.526a1.783,1.783,0,0,0,0,3.567h6.526a1.783,1.783,0,0,0,0-3.567Zm0,2.428h-6.526a.645.645,0,0,1,0-1.29h6.526a.645.645,0,0,1,0,1.29Zm0,0" transform="translate(-175.119 -191.753)"/><path d="M343.067,62.6a3.9,3.9,0,0,0-2.382.8.569.569,0,1,0,.69.906,2.794,2.794,0,0,1,3.381,0,.569.569,0,0,0,.688-.907A3.9,3.9,0,0,0,343.067,62.6Zm0,0" transform="translate(-314.623 -57.851)"/><path d="M334.875,37.388a.569.569,0,0,0-.109-.8,5.509,5.509,0,0,0-6.67,0,.569.569,0,0,0,.69.906,4.371,4.371,0,0,1,5.292,0,.569.569,0,0,0,.8-.109Zm0,0" transform="translate(-302.99 -32.777)"/><path d="M316.69,11.5a5.887,5.887,0,0,1,7.128,0,.569.569,0,1,0,.688-.907,7.025,7.025,0,0,0-8.505,0,.569.569,0,0,0,.69.906Zm0,0" transform="translate(-291.812 -8.465)"/></g></g></svg>