<svg xmlns="http://www.w3.org/2000/svg" xmlns:xlink="http://www.w3.org/1999/xlink" width="1240" height="363" viewBox="0 0 1240 363"><defs><clipPath id="a"><rect width="584" height="222" transform="translate(389.615 2223)" fill="#fff"/></clipPath></defs><g transform="translate(-11240 9919)"><rect width="1240" height="363" transform="translate(11240 -9919)" fill="#f9f7ec"/><g transform="translate(11394.385 -9821)"><path d="M563.138,517.013c-.02.309-.046.62-.072.933a66.123,66.123,0,0,1-1.039,7.194c0,.008,0,.015-.005.023-.011.062-.025.122-.037.184,0,0,0,.01,0,.016l-90.965-.161-236.05-.416s-31.314-21.638-41.521-55.752c-.009-.029-.017-.057-.025-.085a73.287,73.287,0,0,1-2.994-25.963c.006-.091.012-.183.02-.275a77.436,77.436,0,0,1,5.965-24.51,97.311,97.311,0,0,1,6.484-12.718q.889-1.473,1.865-2.88c21.094-30.468,71.275-37.539,86.812-31.007,21.114,8.878,49.119-15.1,109.649-31.568,27.68-7.529,76.639-1.138,103.184,22.5.029.026.059.052.087.08,17,15.186,24.753,37.474,11.732,67.739-.014.031-.027.063-.042.094s-.015.035-.022.052c-12.678,29.341,12.962,35.588,31.141,50.694.09.074.179.148.269.224a56.964,56.964,0,0,1,5.268,4.984q.528.571,1.036,1.159a38.968,38.968,0,0,1,5.592,8.378q.324.663.625,1.349a36.6,36.6,0,0,1,2.2,6.749,41.81,41.81,0,0,1,.953,7.8,50.053,50.053,0,0,1-.107,5.178" transform="translate(-190.27 -261.362)" fill="#ced371" opacity="0.38"/><ellipse cx="25.5" cy="25.5" rx="25.5" ry="25.5" transform="translate(56.385)" fill="#ced371"/><ellipse cx="6" cy="6" rx="6" ry="6" transform="translate(352.385 161)" fill="#ced371"/><ellipse cx="16" cy="16" rx="16" ry="16" transform="translate(305.385 36)" fill="#ced371"/></g><g transform="translate(10989.385 -12001)" clip-path="url(#a)"><g transform="translate(666.356 2236.803)"><path d="M3299.609,598.432c-7.246-.389-33.209,15.267-41.932,12.3s-29.138-7.428-32.885-7.336c-9.134.222-26.466,3.582-36.882,3.335-10.272-.244-13.924-7.114-19.089-7.114-4.23,0-21.222,4.129-31.51,6.035s-21.8,2.759-30.648-2.1c-4.63-2.542-8.108-6.453-12.929-8.724-5.576-2.627-12.253-2.752-18.625-2.742s-13.012.042-18.742-2.335-10.17-7.985-8.292-13.173c15.522-4.635,31.78-9.34,48.07-7.4,5.507.655,10.983,2.068,16.519,1.628,10.347-.822,19.261-7.978,29.638-7.512,9.164.412,16.835,6.727,25.991,7.251,7.889.452,15.091-3.441,22.618-5.5,10.522-2.88,21.871-2.174,32.888-1.438l19.686,1.315a115.966,115.966,0,0,0,18.058.266c5.961-.534,11.8-1.991,17.786-2.185,7.218-.235,14.324,1.369,21.3,2.96,11.38,2.595,22.731,5.513,34.206,7.784,8,1.584,11.647,1.908,16.1,8.156,3.644,5.115,5.083,6.613.4,10.765-3.182,2.823-8.359,4.883-12.488,6.469C3329.848,602.593,3309.374,598.432,3299.609,598.432Z" transform="translate(-3047.638 -379.859)" fill="#ca5c47"/><g transform="translate(162.398 95.381)"><path d="M3606.362,533.377c.359,6.523-4.6,19.266-35.816,26.02,0,0,22.089-.93,31.052,9.635l.64,5.435s-57.495,9.157-59.784-3.434c-2.641-14.526,27.771-38.712,27.771-38.712Z" transform="translate(-3497.828 -457.418)" fill="#ab4b38"/><path d="M3617.064,533.377c.358,6.523-4.6,19.266-35.816,26.02,0,0,22.089-.93,31.052,9.635l.641,5.435s-57.5,9.157-59.784-3.434c-2.641-14.526,27.771-38.712,27.771-38.712Z" transform="translate(-3504.054 -457.418)" fill="#ffb157"/><path d="M3695.555,612.346s-12.725-10.884-15.366-9.924c0,0-.172,2.088-3.041,2.4-2.23.244-7.258-3.066-13.245-5.482l1.44,16.926S3687.391,614.907,3695.555,612.346Z" transform="translate(-3568.58 -496.411)" fill="#265173"/><path d="M3554.9,451.19s-8.136-36.382-1.251-36.128c7.348.271,20.42,25.022,14.3,40.854-4.81,12.437-29.052,16.434-36.415,14.381l-3.6-5.869S3549.6,456.671,3554.9,451.19Z" transform="translate(-3489.471 -389.196)" fill="#00685d"/><path d="M3563.928,505.793s-.091-.252-.24-.675c2.144,1.069,4.223,2.269,6.295,3.48-4.888,11.747-27.2,15.824-35.378,14.295l-2.93-4.775S3558.629,511.274,3563.928,505.793Z" transform="translate(-3491.65 -441.591)" fill="#00524a"/><path d="M3583.1,411c-3.883,4.425,15.846,40.1,6.723,51.541,0,0,32.013,4.8,45.778.32C3635.6,429.242,3592.581,400.191,3583.1,411Z" transform="translate(-3521.269 -385.496)" fill="#00524a"/><g transform="translate(0 66.224)"><path d="M3475.554,523.49c-1.614-1.082-3.3-2.162-5-3.164s-3.443-1.961-5.207-2.859a56.779,56.779,0,0,0-10.982-4.326l.379-1.572a58.523,58.523,0,0,1,11.459,4.142q2.746,1.3,5.4,2.773c1.771.992,3.511,1.992,5.226,3.139Z" transform="translate(-3446.67 -511.569)" fill="#00685d"/><path d="M3464.666,532.682a122.8,122.8,0,0,0-14.1-4.189,56.4,56.4,0,0,0-14.489-1.671l-.106-1.613a58.024,58.024,0,0,1,15.007,1.375c2.455.5,4.882,1.1,7.293,1.755,2.413.672,4.8,1.365,7.181,2.22Z" transform="translate(-3435.967 -519.461)" fill="#00685d"/><path d="M3475.1,540.993a87.011,87.011,0,0,0-10.463-.7,42.563,42.563,0,0,0-5.2.268,18.175,18.175,0,0,0-4.922,1.154l-.672-1.47a19.7,19.7,0,0,1,5.357-1.453,44.3,44.3,0,0,1,5.408-.452c1.8-.057,3.6-.044,5.39.028s3.574.168,5.385.379Z" transform="translate(-3446.365 -527.124)" fill="#00685d"/><path d="M3505.163,540.694c8.931,3.294,25.24,2.095,25.24,2.095s-11.623-11.5-20.555-14.8-10.5-.641-11.789,2.866S3496.231,537.4,3505.163,540.694Z" transform="translate(-3471.67 -520.25)" fill="#f3e190"/></g><path d="M3530.681,539.446s-11.013-3.279-11.365-2.864,2.885,2.224,2.885,2.224-7.505,1.1-7.094,2.349c.241.733,4.258-.1,4.258-.1s-3.754,1.745-3.217,2.636a7.345,7.345,0,0,0,5.057,2.738C3523.368,546.456,3530.681,539.446,3530.681,539.446Z" transform="translate(-3482.001 -459.876)" fill="#f79885"/><path d="M3574.153,456.539s-13.927-38.589-7.043-38.335c7.348.271,27.572,31.216,21.449,47.048-4.81,12.437-35.694,11.536-43.057,9.482l-3.6-5.869S3568.854,462.02,3574.153,456.539Z" transform="translate(-3497.599 -391.023)" fill="#00685d"/><g transform="translate(27.716)"><path d="M3553.03,384.414s-4.956-.755-11-8.542c0,0-4.609-7.333-8.8-8.854s-10.76,5.2-10.077,8.321c.641,2.938,6.5,12.581,14.042,14.635a2.055,2.055,0,0,0,2.2-.961,10.789,10.789,0,0,0,1.421-3.076,49.047,49.047,0,0,0,9.6,6.76C3552.536,390.5,3553.815,388.09,3553.03,384.414Z" transform="translate(-3514.376 -361.116)" fill="#f79885"/><path d="M3554.89,379.374a12.316,12.316,0,0,1-12.407-3.756l6.3-3.906,2.469,2.514s-3.406-6.722,4.315-5.151c7.083,1.44,1,11.044-3.653,5.948Z" transform="translate(-3525.655 -362.302)" fill="#51192b"/><path d="M3502.581,378.148c1.806,2.554,10.3-.722,19.759-7.41s15.307-14.1,13.5-16.659-10.578.722-20.04,7.41S3500.775,375.594,3502.581,378.148Z" transform="translate(-3502.243 -353.212)" fill="#ffb157"/><path d="M3532.76,362.958a22.028,22.028,0,0,1,4.66,3.631c.073.085.113.125.113.125.747,1.057-2.171,4.412-6.521,7.486s-8.485,4.707-9.232,3.65c0,0-.024-.051-.08-.147a22.049,22.049,0,0,1-1.869-5.6,69.561,69.561,0,0,1,12.929-9.14Z" transform="translate(-3512.476 -358.882)" fill="#ed9d22"/><path d="M3522.516,374.728c.709,1,4.451-.419,8.353-3.177s6.49-5.812,5.781-6.815c0,0-.038-.038-.105-.118-.932-.984-7.817-7.929-13.4-3.986s-1.327,12.751-.711,13.958C3522.493,374.68,3522.516,374.728,3522.516,374.728Z" transform="translate(-3512.754 -356.83)" fill="#ffb157"/></g></g><g transform="translate(26.929 0)"><path d="M3234.7,348.578s-18.568,43.217-13.446,58.583,34.254,41.3,34.254,41.3l7.363-8s-3.521-21.45-22.729-39.376l22.729-51.54S3245.9,344.736,3234.7,348.578Z" transform="translate(-3175.057 -254.268)" fill="#008eb0"/><path d="M3301.518,545.851l-12.805,16.327s7.964,6.482,11.847,11.628a4.759,4.759,0,0,1-.85,6.568l-2.954,2.372-.36,1.956s14.246,1.165,17.607-5.558C3314,579.145,3309.284,557.807,3301.518,545.851Z" transform="translate(-3214.825 -369.909)" fill="#265173"/><path d="M3278.255,357.15s-22.409,75.551-44.178,95.719l-9.283-6.083s25.29-88.035,29.451-105.322C3254.245,341.464,3271.853,343.385,3278.255,357.15Z" transform="translate(-3177.637 -250.996)" fill="#5aa5d1"/><path d="M3223.225,570.24s-5.273-18.942-17.286-13.507c0,0-.083,13.78-3.24,17.965,0,0-9.76-3.222-12.006-1.974l18.113,17.74S3218.958,580.864,3223.225,570.24Z" transform="translate(-3157.797 -375.67)" fill="#265173"/><path d="M3185.552,594.519c-.2,3.5,17.67,20.512,20.262,17.844s-8.128-13.553-10.229-15.511C3191.438,592.989,3185.662,592.6,3185.552,594.519Z" transform="translate(-3154.804 -397.57)" fill="#22365b"/><path d="M3270.2,211.329s9.111,19.567,8.906,35.3l-16.436-3.809C3264.778,230.756,3268.274,212.4,3270.2,211.329Z" transform="translate(-3199.673 -175.283)" fill="#22365b"/><path d="M3228.636,297.084s.707-4.449,1.753-10.441l16.436,3.809c-.061,4.69-.939,9.043-3.144,12.432-9.6,14.763-36.495,2.844-36.495,2.844Z" transform="translate(-3167.393 -219.101)" fill="#f79885"/><path d="M3304.268,206.142s-18.568-13.445-38.736-1.6c0,0-4.482,42.257-10.884,58.263,0,0,26.25-.64,40.977,11.845C3295.625,274.65,3306.188,247.439,3304.268,206.142Z" transform="translate(-3195.006 -168.495)" fill="#265173"/><path d="M3364.115,214.863c2.911,1.015,7.286,15.219,9.124,29.118l-15.251,3.2C3357.093,234.01,3356.693,212.277,3364.115,214.863Z" transform="translate(-3254.853 -177.216)" fill="#22365b"/><g transform="translate(0 49.38)"><g transform="translate(0.591 7.257)"><path d="M3150.523,280.212c-1-1.666-2.064-3.361-3.177-4.992s-2.28-3.241-3.494-4.8a56.784,56.784,0,0,0-8.094-8.59l1.012-1.261a58.527,58.527,0,0,1,8.6,8.628q1.93,2.348,3.708,4.811c1.18,1.651,2.329,3.3,3.392,5.065Z" transform="translate(-3126.426 -260.565)" fill="#00685d"/><path d="M3136.821,283.766a122.773,122.773,0,0,0-10.977-9.8,56.376,56.376,0,0,0-12.4-7.681l.591-1.5a58,58,0,0,1,12.993,7.634c2.01,1.494,3.948,3.073,5.852,4.693,1.9,1.635,3.759,3.278,5.552,5.066Z" transform="translate(-3113.445 -263.02)" fill="#00685d"/><path d="M3142.415,298.074a86.933,86.933,0,0,0-9.169-5.087,42.566,42.566,0,0,0-4.821-1.973,18.181,18.181,0,0,0-4.944-1.051l.017-1.616a19.7,19.7,0,0,1,5.466.966,44.268,44.268,0,0,1,5.085,1.894q2.48,1.072,4.866,2.32c1.593.836,3.162,1.674,4.711,2.636Z" transform="translate(-3119.284 -276.729)" fill="#00685d"/><path d="M3165.924,310.864c6.679,6.784,21.946,12.643,21.946,12.643s-5.619-15.357-12.3-22.141-9.223-5.049-11.887-2.426S3159.246,304.08,3165.924,310.864Z" transform="translate(-3141.286 -281.542)" fill="#ffb157"/></g><g transform="translate(0 13.035)"><path d="M3140.322,289.374a73.208,73.208,0,0,0-5.09-7.475,43.341,43.341,0,0,0-6.177-6.554l.772-.962a44.653,44.653,0,0,1,6.566,6.583q1.473,1.792,2.83,3.671c.9,1.26,1.777,2.516,2.588,3.865Z" transform="translate(-3121.935 -274.383)" fill="#00685d"/><path d="M3129.867,292.086a93.719,93.719,0,0,0-8.376-7.474,43.033,43.033,0,0,0-9.46-5.861l.45-1.148a44.252,44.252,0,0,1,9.914,5.825c1.534,1.14,3.013,2.345,4.465,3.581s2.868,2.5,4.237,3.865Z" transform="translate(-3112.031 -276.256)" fill="#00685d"/><path d="M3134.135,303a66.383,66.383,0,0,0-7-3.882,32.4,32.4,0,0,0-3.678-1.5,13.855,13.855,0,0,0-3.772-.8l.013-1.234a15.046,15.046,0,0,1,4.171.738,33.852,33.852,0,0,1,3.88,1.445q1.893.818,3.712,1.77c1.216.638,2.414,1.277,3.595,2.012Z" transform="translate(-3116.486 -286.715)" fill="#00685d"/><path d="M3152.073,312.761c5.1,5.176,16.745,9.647,16.745,9.647s-4.288-11.717-9.384-16.893-7.038-3.852-9.071-1.851S3146.978,307.585,3152.073,312.761Z" transform="translate(-3133.275 -290.389)" fill="#f3e190"/></g><g transform="translate(17.645)"><path d="M3187.119,266.848c-.583-1.853-1.225-3.75-1.928-5.6s-1.463-3.682-2.279-5.485a56.852,56.852,0,0,0-5.872-10.239l1.277-.991a58.539,58.539,0,0,1,6.36,10.394q1.33,2.733,2.486,5.542c.764,1.881,1.5,3.749,2.12,5.715Z" transform="translate(-3167.498 -243.984)" fill="#00685d"/><path d="M3172.887,266.977a122.715,122.715,0,0,0-8.4-12.082,56.363,56.363,0,0,0-10.269-10.357l.925-1.326a57.993,57.993,0,0,1,10.858,10.449c1.607,1.92,3.124,3.908,4.6,5.927s2.892,4.063,4.22,6.219Z" transform="translate(-3154.223 -243.213)" fill="#00685d"/><path d="M3174.959,282.008a87.027,87.027,0,0,0-7.732-7.083,42.555,42.555,0,0,0-4.229-3.04,18.161,18.161,0,0,0-4.564-2.173l.393-1.568a19.7,19.7,0,0,1,5.091,2.213,44.245,44.245,0,0,1,4.5,3.026q2.162,1.62,4.192,3.389c1.355,1.184,2.686,2.364,3.968,3.661Z" transform="translate(-3156.673 -257.718)" fill="#00685d"/><path d="M3193.065,301.908c4.916,8.153,18.4,17.4,18.4,17.4s-1.889-16.243-6.8-24.4-7.794-7.058-11-5.128S3188.149,293.756,3193.065,301.908Z" transform="translate(-3175.17 -269.51)" fill="#f3e190"/></g><g transform="translate(41.343 0.081)"><path d="M3239.233,276.217c.043-1.942.045-3.944-.028-5.918s-.2-3.957-.4-5.927a56.786,56.786,0,0,0-2.272-11.582l1.528-.528a58.487,58.487,0,0,1,2.683,11.886q.382,3.015.574,6.047c.119,2.027.213,4.031.171,6.094Z" transform="translate(-3225.813 -248.558)" fill="#00685d"/><path d="M3225.565,271.61a122.752,122.752,0,0,0-4.069-14.139,56.364,56.364,0,0,0-6.4-13.107l1.3-.958a58.01,58.01,0,0,1,6.926,13.384c.9,2.335,1.7,4.705,2.45,7.09s1.434,4.777,2,7.246Z" transform="translate(-3213.34 -243.406)" fill="#00685d"/><path d="M3222.59,286.272a87.031,87.031,0,0,0-5.047-9.192,42.5,42.5,0,0,0-3.028-4.238,18.174,18.174,0,0,0-3.623-3.525l.876-1.359a19.731,19.731,0,0,1,4.11,3.731,44.365,44.365,0,0,1,3.294,4.312q1.527,2.229,2.881,4.556c.9,1.557,1.784,3.1,2.581,4.742Z" transform="translate(-3210.891 -257.691)" fill="#00685d"/><path d="M3230.8,313.642c2.036,9.3,11.832,22.394,11.832,22.394s3.429-15.989,1.394-25.288-5.113-9.188-8.765-8.388S3228.768,304.342,3230.8,313.642Z" transform="translate(-3222.08 -277.509)" fill="#f3e190"/></g><path d="M3131.967,370.248l28.113-2.941,2.9-10.221-6.5.761-17.028,1.995-4.689.555Z" transform="translate(-3123.63 -309.465)" fill="#ed9d22"/><path d="M3144.557,326.189l4.606-.679,17.111-2.447,6.293-.9.35.185,2.612-9.172-28.689,4.956Z" transform="translate(-3130.955 -283.915)" fill="#ed9d22"/><path d="M3149.867,348.054l17.029-1.995,2.468-9.234-17.111,2.447Z" transform="translate(-3134.044 -297.677)" fill="#00685d"/><path d="M3199.192,367.307l35.537,17.44,2.8-9.851-6.272-3.167-22.725-11.414-6.417-3.229h-.021Z" transform="translate(-3162.741 -309.465)" fill="#ed9d22"/><path d="M3275.859,380l6.272,3.167,2.427-8.555-6.314-3.311Z" transform="translate(-3207.347 -317.733)" fill="#db7d00"/><path d="M3212.372,322.344l6.5,3.393,22.437,11.743,6.314,3.311,2.221-7.794-34.859-19.825Z" transform="translate(-3170.41 -283.915)" fill="#ed9d22"/><path d="M3221.518,352.247l22.725,11.414,2.386-8.7-22.437-11.743Z" transform="translate(-3175.731 -301.397)" fill="#00685d"/><path d="M3131.967,384.468l35.538,17.44,28.113-2.941-35.538-17.44Z" transform="translate(-3123.63 -323.685)" fill="#db7d00"/><path d="M3138.655,352.014l4.689-.555,2.386-8.782-4.607.679Z" transform="translate(-3127.521 -301.082)" fill="#db7d00"/><path d="M3190.586,344.8l6.5-.761,2.612-9.193-.35-.185-6.293.9Z" transform="translate(-3157.735 -296.418)" fill="#db7d00"/><path d="M3206.126,344.3h.021l6.417,3.229,2.674-9.028-6.5-3.393Z" transform="translate(-3166.776 -296.676)" fill="#db7d00"/><path d="M3207.315,313.171a127.035,127.035,0,0,1-3.32,14.5,125.6,125.6,0,0,1-4.8,14.082,125.5,125.5,0,0,1,3.321-14.5A127.014,127.014,0,0,1,3207.315,313.171Z" transform="translate(-3162.741 -283.915)" fill="#ffb157"/></g><path d="M3297.225,171.72c6.986,1.777,11.35-5.329,13.06-9.225-1.752-5.243-6.85-26.452-7.527-27.37-1.109-1.5-12.54.644-13.122,2.021s.661,16.637,2.209,20.023c1.54.432,5.1-.3,5.1-.3l-.506,5.664S3293.891,170.871,3297.225,171.72Z" transform="translate(-3215.277 -130.648)" fill="#f79885"/><path d="M3294.6,135.987a12.344,12.344,0,0,1-10.59-1.18c-5.713-3.373-.2-10.14,4-6.462-1-5.979,2.78-.036,2.78-.036,1.29-4.5,8.148-4.1,6.759.5,4.927-2.684,4.924,3.189,3.844,4.65,2.824.48.3,8.015,1.869,14.707,0,0-5.3-5.553-6.276-8.176,0,0,2.505-1.2,1.251-3.23s-2.874.828-2.874.828Z" transform="translate(-3210.666 -125.135)" fill="#265173"/><path d="M3306.974,185.023a14.613,14.613,0,0,0,5.344-2.017s-1.9,4-5.593,4.8Z" transform="translate(-3225.305 -158.805)" fill="#f0786a"/><path d="M3254.648,332.417c4.14,1.075,10.27-.57,15.566-1l-.423,7.093a14.51,14.51,0,0,0-2.338-.539s-.8,6.692-3.362,7.652-6.242-.4-7.843-1.361,2.241-8.643,2.241-8.643Z" transform="translate(-3195.006 -245.151)" fill="#008eb0"/><path d="M3319.643,293.334a51.109,51.109,0,0,1-.435-5.354l15.251-3.2c1.338,10.12-.243,16.04-2.964,19.061-8.911,9.9-32.957,10.162-40.636,7.533l.423-7.093S3311.89,298.94,3319.643,293.334Z" transform="translate(-3216.073 -218.019)" fill="#f79885"/></g><g transform="translate(147.981 154.501)"><path d="M3424.24,525.347a136.691,136.691,0,0,0-3.742-15.407,66.607,66.607,0,0,0-6.163-14.494l1.366-.864a68.29,68.29,0,0,1,6.656,14.76c.85,2.554,1.6,5.136,2.294,7.735s1.32,5.2,1.818,7.877Z" transform="translate(-3408.965 -494.582)" fill="#00685d"/><path d="M3416.269,532.155a122.827,122.827,0,0,0-5.75-13.542,56.371,56.371,0,0,0-7.937-12.236l1.176-1.109a57.984,57.984,0,0,1,8.5,12.447c1.181,2.208,2.26,4.464,3.291,6.741s2,4.568,2.861,6.95Z" transform="translate(-3402.126 -500.799)" fill="#00685d"/><path d="M3415.158,547.142a86.984,86.984,0,0,0-6.123-8.512,42.445,42.445,0,0,0-3.519-3.84,18.156,18.156,0,0,0-4.023-3.06l.705-1.455a19.722,19.722,0,0,1,4.532,3.206,44.382,44.382,0,0,1,3.792,3.882q1.786,2.027,3.411,4.174c1.084,1.436,2.146,2.863,3.136,4.394Z" transform="translate(-3401.493 -515.348)" fill="#00685d"/><path d="M3427.352,572.125c3.147,8.985,14.456,20.8,14.456,20.8s1.468-16.286-1.679-25.271-6.188-8.5-9.717-7.265S3424.205,563.14,3427.352,572.125Z" transform="translate(-3415.726 -532.474)" fill="#f3e190"/></g><g transform="translate(152.277 186.346)"><rect width="6.242" height="23.85" transform="translate(52.501 28.812) rotate(180)" fill="#db7d00"/><rect width="6.243" height="23.85" transform="translate(1.601 4.962)" fill="#db7d00"/><rect width="54.102" height="9.924" transform="translate(54.102 32.493) rotate(180)" fill="#ed9d22"/><rect width="54.102" height="9.924" transform="translate(54.102 9.924) rotate(180)" fill="#ed9d22"/></g><g transform="translate(31.204 154.967)"><g transform="translate(94.824 3.239)"><path d="M3377.731,542.366c.343-2.088.653-4.246.876-6.385s.388-4.3.481-6.452a61.857,61.857,0,0,0-.675-12.837l1.728-.335a63.735,63.735,0,0,1,1.073,13.228q-.051,3.31-.307,6.609c-.182,2.2-.387,4.379-.749,6.6Z" transform="translate(-3365.715 -510.955)" fill="#00685d"/><path d="M3364.555,535.256a133.612,133.612,0,0,0-2.221-15.869,61.37,61.37,0,0,0-4.89-15.113l1.551-.834a63.165,63.165,0,0,1,5.418,15.493c.618,2.656,1.116,5.334,1.556,8.02.425,2.694.814,5.371,1.045,8.119Z" transform="translate(-3353.911 -503.44)" fill="#00685d"/><path d="M3359.015,550.519a94.566,94.566,0,0,0-4.034-10.684,46.269,46.269,0,0,0-2.616-5.033,19.783,19.783,0,0,0-3.367-4.356l1.153-1.331a21.5,21.5,0,0,1,3.861,4.653,48.214,48.214,0,0,1,2.891,5.155q1.306,2.638,2.409,5.354c.735,1.816,1.448,3.617,2.057,5.508Z" transform="translate(-3348.998 -518.378)" fill="#00685d"/><path d="M3367.215,581.658a22.708,22.708,0,0,1-4.952-.808c-.28-8.671,2.816-9.435,6.632-9.719,3.857-.287,7.055.033,8.027,8.925A30.919,30.919,0,0,1,3367.215,581.658Z" transform="translate(-3356.705 -542.786)" fill="#f3e190"/></g><g transform="translate(0 0)"><path d="M3150.952,530.457c.449-5.733.8-11.515.89-17.276.051-2.882.051-5.764-.071-8.633a64.922,64.922,0,0,0-.806-8.52l1.728-.335a66.69,66.69,0,0,1,1.02,8.756c.185,2.919.245,5.833.256,8.746s-.036,5.823-.131,8.731-.208,5.809-.429,8.727Z" transform="translate(-3138.95 -495.694)" fill="#00685d"/><path d="M3137.81,535.256a133.864,133.864,0,0,0-2.221-15.869,61.392,61.392,0,0,0-4.891-15.113l1.551-.834a63.207,63.207,0,0,1,5.418,15.493c.617,2.656,1.115,5.334,1.556,8.02.424,2.694.814,5.371,1.045,8.119Z" transform="translate(-3127.167 -500.201)" fill="#00685d"/><path d="M3132.244,541.413c-1.036-4.68-2.258-9.377-3.748-13.943a71.178,71.178,0,0,0-2.561-6.7,18.95,18.95,0,0,0-3.681-5.8l1.152-1.331a20.415,20.415,0,0,1,4.287,6.3,73.494,73.494,0,0,1,2.814,6.838q1.226,3.471,2.258,7c.682,2.355,1.337,4.7,1.885,7.109Z" transform="translate(-3122.254 -506.136)" fill="#00685d"/><path d="M3140.471,581.658a22.7,22.7,0,0,1-4.953-.808c-.28-8.671,2.815-9.435,6.631-9.719,3.857-.287,7.055.033,8.028,8.925A30.921,30.921,0,0,1,3140.471,581.658Z" transform="translate(-3129.961 -539.547)" fill="#f3e190"/></g></g></g><g transform="translate(389.953 2253.588)"><path d="M248.346,624.714c7-.257,32.09,10.1,40.52,8.135s28.157-4.912,31.777-4.851c8.827.147,12.957,4.352,23.021,4.189,9.925-.162,37.178-7.057,42.169-7.057,4.088,0,9.4,3.1,19.343,4.359s21.064,1.825,29.616-1.388c4.474-1.681,7.835-4.268,12.494-5.769,5.389-1.737,11.84-1.82,18-1.813s12.574.027,18.11-1.545,9.828-5.281,8.013-8.711c-15-3.065-30.71-6.177-46.451-4.9-5.321.433-10.613,1.367-15.963,1.076-10-.543-19.906-2-29.934-1.695-8.856.272-14.974,1.176-23.822,1.523-7.623.3-14.582-2.275-21.856-3.638-10.167-1.9-20.7-5.05-31.346-4.563-6.341.29-13.116,4.192-19.457,4.482a163.569,163.569,0,0,1-17.45.176c-5.76-.353-14.182-3.733-19.97-3.862-6.975-.155-11.058,3.322-17.8,4.374-11,1.716-21.965,3.646-33.053,5.148-7.733,1.047-11.255,1.261-15.556,5.394-3.521,3.383-4.911,4.374-.389,7.119,3.075,1.867,8.077,3.229,12.067,4.278C219.125,627.466,238.91,624.714,248.346,624.714Z" transform="translate(-195.5 -425.308)" fill="#ca5c47"/><g transform="translate(13.307 0)"><path d="M251.015,323.085s-21.106,70.7-7.634,105.277h8.981s13.022-60.622,18.411-72.746l24.249,19.758s7.634,25.147,15.717,30.086l7.634-.449s.449-32.332-4.041-41.312-24.249-29.637-24.249-29.637Z" transform="translate(-235.198 -258.072)" fill="#00685d"/><path d="M324.568,207.061s-7.9-20.656-19.751-33.679-25.55-20.15-35.429-14.064-9.43,27.537-9.43,27.537l11.451,2.875,6.737-14.86,17.063,9.583s-24.7,18.564-36.822,40.119c0,0,17.064,21.106,48.5,12.573l-2.066-4.94Z" transform="translate(-247.058 -157.117)" fill="#eb5654"/><path d="M364.236,326.524c-.085-14.7,12.228-24.863,12.228-24.863l.909,8.068-8.17,10.4,2.066,4.94A59.269,59.269,0,0,1,364.236,326.524Z" transform="translate(-311.445 -245.04)" fill="#c93b38"/><g transform="translate(73.472 165.474)"><path d="M417.031,591.275c8.485,15.172,17.491,20.265,23.287,17.023s6.171-13.581-2.315-28.753Z" transform="translate(-417.031 -579.546)" fill="#7fb8db"/><rect width="24.029" height="0.83" transform="translate(21.377 0.724) rotate(150.783)" fill="#5aa5d1"/></g><path d="M256.853,563.454l-17.966-.561s3.6,25.035,5.842,32.219H258.5v-2.245a6.988,6.988,0,0,1-5.089-4.715C252.352,584.219,253.841,576.861,256.853,563.454Z" transform="translate(-235.198 -403.942)" fill="#008eb0"/><path d="M420.617,508.445,402.854,511.2s8.166,24.663,12.412,30.878l16.749-5.115-.656-2.147s-7.685,1.486-9.824-1.93C419.375,529.433,420.123,522.177,420.617,508.445Z" transform="translate(-334.935 -370.822)" fill="#008eb0"/><path d="M394.482,284.616c1.065,11.277-9.153,51.192-9.153,61.071h-10.6S365.466,287.76,394.482,284.616Z" transform="translate(-316.973 -234.672)" fill="#eb5654"/><path d="M387.552,447.4s-1.347,15.118-.6,17.962a22.4,22.4,0,0,1,.864,6.836c-.116,1.546-7,3.193-7.749,2.294s-2.245-5.688-1.946-6.885,2.994-2.994,2.994-2.994L377.224,447.4Z" transform="translate(-319.345 -333.689)" fill="#f79885"/><path d="M387.126,434.215,386,441.176l-12.679-.224v-5.613Z" transform="translate(-316.973 -325.67)" fill="#c93b38"/><path d="M232.671,215.605l22.563,39.809L277.6,295.333l22.207,40.008,11.1,20.009c3.663,6.689,7.622,13.213,10.176,20.523a.652.652,0,0,1-1.12.627c-4.892-6-8.378-12.791-12.16-19.413l-11.241-19.927-22.464-39.865-22.3-39.954-22.108-40.063a1.712,1.712,0,0,1,2.988-1.671Z" transform="translate(-229.469 -192.166)" fill="#ffb157"/><path d="M273.943,245.641s-2.748,12.271-.2,21.252c0,0-3.987,4.044-6.083,3.445s-3.667-5.934-3.368-7.281,2.993-2.395,2.993-2.395l-3.991-14.423Z" transform="translate(-250.042 -210.964)" fill="#f79885"/><path d="M274.2,226.491l-2.919,7.591-13.471-.184.9-10.714Z" transform="translate(-246.71 -197.304)" fill="#c93b38"/><path d="M389.356,498.023s-2.363,2.978-4.047,2.024a4.444,4.444,0,0,1-3.2,1.852,13.155,13.155,0,0,1-2.359-7.042s3.37-2.388,5.053,2.888l.842-1.908a1.8,1.8,0,0,1-1.575-2.189c.171-2.076,3.78-.393,3.78-.393Z" transform="translate(-320.882 -361.191)" fill="#f79885"/><path d="M394.354,238.1a16.72,16.72,0,0,1-6.5,4.881v-6.955l-8.1-2.314,6.234-10.53A127.966,127.966,0,0,1,394.354,238.1Z" transform="translate(-320.882 -197.304)" fill="#c93b38"/><path d="M399.166,214.245c-.89-2.523-2.964-7.028-2.048-10.873,0,0,17.805-14.787,19.528-14.563s8.929,7.5,8.589,8.851-5.813,10.267-12.857,13.6l-3.316-3.554-5.106,7.733A8.02,8.02,0,0,1,399.166,214.245Z" transform="translate(-331.308 -176.392)" fill="#f79885"/><path d="M424.059,191.313s.847,6.112,6.879,6.8c6.123.7,6.573-8.686,1.4-8.316,4.271-5.211-2.5-7.569-7.328-5-2.147-4.749-5.436-.4-5.454,1.291-.74-2.342-5.9-3.507-5.792,3.639-3.368-1.547-2.407,4.34-4.584,6.148,0,0,8.265-1.079,10.46-2.475,0,0-1.773-2.7.4-3.1,1.466-.269,1.039,2.547,1.039,2.547Z" transform="translate(-338.782 -172.647)" fill="#9c2622"/></g><g transform="translate(115.391 131.948)"><path d="M528.551,555.255a43.705,43.705,0,0,0,.787-12.5c-.128-2.1-.626-4.139-.761-6.376a37.534,37.534,0,0,1,.3-6.486c.484-4.273,1.286-8.47,1.665-12.719a35.631,35.631,0,0,0-.715-12.705,30.055,30.055,0,0,1,1.159,6.307,49.154,49.154,0,0,1,0,6.431c-.233,4.285-.89,8.531-1.219,12.771a36.593,36.593,0,0,0-.072,6.32c.185,2.028.771,4.158.982,6.325a45.123,45.123,0,0,1-.377,13.037.9.9,0,0,1-1.768-.319c0-.009,0-.018.005-.027Z" transform="translate(-513.459 -500.351)" fill="#00685d"/><path d="M531.336,576.556a14.606,14.606,0,0,0,2.193-2.4,25.962,25.962,0,0,0,1.851-2.836,34.8,34.8,0,0,0,2.7-6.3,47,47,0,0,0,1.614-6.729c.186-1.143.308-2.3.466-3.447l.26-3.476-.036,3.492c-.083,1.161-.131,2.328-.244,3.49a47.7,47.7,0,0,1-1.2,6.919,35.922,35.922,0,0,1-2.367,6.671,27.411,27.411,0,0,1-1.763,3.122,15.839,15.839,0,0,1-2.341,2.881Z" transform="translate(-515.173 -528.883)" fill="#00685d"/><path d="M512.5,562.5a9.7,9.7,0,0,1-2.879-1.568,15.811,15.811,0,0,1-2.283-2.118,20.753,20.753,0,0,1-3.265-5.132,33.123,33.123,0,0,1-1.991-5.656c-.206-.975-.431-1.944-.618-2.918l-.436-2.942.655,2.894.83,2.84a32.468,32.468,0,0,0,2.359,5.372,19.654,19.654,0,0,0,3.443,4.614,14.322,14.322,0,0,0,2.2,1.755,8.367,8.367,0,0,0,2.39,1.109Z" transform="translate(-496.737 -523.281)" fill="#00685d"/><path d="M553.6,584.017c2.264-.78,2.051-4.153,2.051-4.153s-1.909-2.789-4.173-2.009-4.027,4.833-4.027,4.833S551.337,584.8,553.6,584.017Z" transform="translate(-524.976 -544.908)" fill="#00685d"/><path d="M498.126,553.137c-1.532-1.841-4.61-.446-4.61-.446s-1.931,2.773-.4,4.614,5.947,2.053,5.947,2.053S499.658,554.978,498.126,553.137Z" transform="translate(-491.565 -529.376)" fill="#00685d"/><path d="M520.255,594.119c-1.532-1.841-4.61-.446-4.61-.446s-1.931,2.773-.4,4.615,5.947,2.053,5.947,2.053S521.787,595.96,520.255,594.119Z" transform="translate(-505.026 -554.305)" fill="#00685d"/><path d="M535.331,581.044c1.436-1.269.218-3.731.218-3.731s-2.294-1.512-3.729-.244-1.471,4.838-1.471,4.838S533.9,582.313,535.331,581.044Z" transform="translate(-514.572 -544.205)" fill="#00685d"/><path d="M536.546,553.657c1.852-.638,1.677-3.4,1.677-3.4s-1.561-2.281-3.413-1.643-3.294,3.953-3.294,3.953S534.694,554.295,536.546,553.657Z" transform="translate(-515.283 -527.138)" fill="#00685d"/><path d="M517.02,567.9c-.328-1.932-3.077-2.209-3.077-2.209s-2.5,1.168-2.178,3.1,3.363,3.894,3.363,3.894S517.347,569.826,517.02,567.9Z" transform="translate(-503.25 -537.589)" fill="#00685d"/><path d="M538.1,516.134c.925-2.209-1.734-4.295-1.734-4.295s-3.352-.432-4.277,1.777.926,6.222.926,6.222S537.175,518.343,538.1,516.134Z" transform="translate(-515.473 -504.814)" fill="#00685d"/><path d="M520.521,551.345c-1.414-1.933-4.573-.733-4.573-.733s-2.1,2.647-.686,4.58,5.807,2.42,5.807,2.42S521.935,553.278,520.521,551.345Z" transform="translate(-505.097 -528.196)" fill="#00685d"/><path d="M557.671,563.9c1.453-.957.694-3.291.694-3.291s-1.845-1.618-3.3-.661-1.962,4.125-1.962,4.125S556.218,564.86,557.671,563.9Z" transform="translate(-528.415 -533.917)" fill="#00685d"/><path d="M544.278,564.065c-1.01-1.416-3.314-.573-3.314-.573s-1.549,1.9-.539,3.319,4.195,1.809,4.195,1.809S545.287,565.482,544.278,564.065Z" transform="translate(-520.493 -536.103)" fill="#00685d"/><path d="M525.936,529.1c-1.01-1.417-3.314-.573-3.314-.573s-1.549,1.9-.539,3.319,4.195,1.809,4.195,1.809S526.945,530.515,525.936,529.1Z" transform="translate(-509.336 -514.834)" fill="#00685d"/><path d="M494.268,534.114c-1.009-1.416-3.314-.573-3.314-.573s-1.549,1.9-.54,3.32,4.195,1.809,4.195,1.809S495.278,535.53,494.268,534.114Z" transform="translate(-490.073 -517.884)" fill="#00685d"/><path d="M549.558,543.687a1.824,1.824,0,1,0-3.271,1.147c.576,1.641,2.929,3.114,2.929,3.114S550.134,545.328,549.558,543.687Z" transform="translate(-524.183 -523.184)" fill="#00685d"/><path d="M528.717,495.641a1.824,1.824,0,1,0-3.271,1.147c.576,1.641,2.929,3.114,2.929,3.114S529.293,497.282,528.717,495.641Z" transform="translate(-511.506 -493.959)" fill="#00685d"/></g><g transform="translate(48.553 140.434)"><path d="M353.653,568.262a32.184,32.184,0,0,1-.4-11.036c.212-1.833.792-3.622.971-5.305a25.845,25.845,0,0,0-.083-5.3c-.336-3.565-1-7.132-1.238-10.747a34.708,34.708,0,0,1,0-5.426,21.6,21.6,0,0,1,1.148-5.283,21.468,21.468,0,0,0-.942,5.3,34.28,34.28,0,0,0,.208,5.375c.373,3.576,1.166,7.09,1.646,10.69a26.73,26.73,0,0,1,.29,5.485c-.142,1.909-.639,3.6-.77,5.361a30.869,30.869,0,0,0,.762,10.457l.014.057a.824.824,0,0,1-1.6.41Z" transform="translate(-339.732 -521.423)" fill="#00685d"/><path d="M341.372,587.053a18.115,18.115,0,0,1-3.993-4.864,27.782,27.782,0,0,1-2.458-5.615,34.879,34.879,0,0,1-1.273-5.938c-.139-1-.179-2.01-.273-3.011l-.054-3.016.259,3c.162.99.269,1.985.474,2.963a34.264,34.264,0,0,0,1.643,5.73,26.782,26.782,0,0,0,2.724,5.227,17.02,17.02,0,0,0,3.882,4.167Z" transform="translate(-327.887 -545.419)" fill="#00685d"/><path d="M353.987,577.116a22.237,22.237,0,0,0,4.568-3.872,32.75,32.75,0,0,0,3.7-4.894,37.187,37.187,0,0,0,2.739-5.545c.422-.948.686-1.953,1.038-2.932.3-.993.542-2,.817-3.01-.208,1.018-.382,2.048-.618,3.064-.288,1-.488,2.034-.849,3.016a37.867,37.867,0,0,1-2.41,5.812,33.77,33.77,0,0,1-3.481,5.3,23.351,23.351,0,0,1-4.66,4.479Z" transform="translate(-340.457 -540.708)" fill="#00685d"/><path d="M321.5,592.064c-2.265-.656-2.051-3.493-2.051-3.493s1.909-2.345,4.173-1.689,4.027,4.065,4.027,4.065S323.768,592.72,321.5,592.064Z" transform="translate(-319.447 -558.897)" fill="#00685d"/><path d="M379.394,566.093c1.532-1.548,4.61-.375,4.61-.375s1.931,2.332.4,3.881-5.947,1.726-5.947,1.726S377.862,567.642,379.394,566.093Z" transform="translate(-355.272 -545.835)" fill="#00685d"/><path d="M369.337,594.157c2.177-.076,3.612,2.89,3.612,2.89s-.2,3.022-2.372,3.1-5.511-2.824-5.511-2.824S367.161,594.232,369.337,594.157Z" transform="translate(-347.196 -563.392)" fill="#00685d"/><path d="M343.692,589.564c-1.436-1.067-.218-3.138-.218-3.138s2.294-1.272,3.73-.205,1.471,4.069,1.471,4.069S345.128,590.631,343.692,589.564Z" transform="translate(-333.769 -558.306)" fill="#00685d"/><path d="M341.9,559.341c-1.425-1.3-.244-3.3-.244-3.3s2.247-1.032,3.672.267,1.488,4.437,1.488,4.437S343.327,560.64,341.9,559.341Z" transform="translate(-332.678 -539.969)" fill="#00685d"/><path d="M362.572,578.505c.327-1.624,3.077-1.858,3.077-1.858s2.5.982,2.178,2.607-3.363,3.275-3.363,3.275S362.245,580.129,362.572,578.505Z" transform="translate(-345.659 -552.742)" fill="#00685d"/><path d="M341.776,534.788c-.89-1.872.959-3.288.959-3.288s2.516-.013,3.406,1.859-.182,4.922-.182,4.922S342.666,536.661,341.776,534.788Z" transform="translate(-332.882 -525.28)" fill="#00685d"/><path d="M357.141,564.586c1.415-1.626,4.573-.617,4.573-.617s2.1,2.227.686,3.853-5.807,2.035-5.807,2.035S355.727,566.211,357.141,564.586Z" transform="translate(-341.882 -544.842)" fill="#00685d"/><path d="M321.7,575.148c-1.453-.8-.695-2.767-.695-2.767s1.845-1.36,3.3-.556,1.962,3.47,1.962,3.47S323.155,575.952,321.7,575.148Z" transform="translate(-320.277 -549.654)" fill="#00685d"/><path d="M336.189,575.284c1.009-1.191,3.314-.482,3.314-.482s1.548,1.6.539,2.792-4.195,1.521-4.195,1.521S335.18,576.475,336.189,575.284Z" transform="translate(-329.291 -551.492)" fill="#00685d"/><path d="M355.553,542.407c1.349-1.668,3.819-1.192,3.819-1.192a2.718,2.718,0,0,1,.112,3.393c-1.349,1.668-5,2.646-5,2.646S354.2,544.075,355.553,542.407Z" transform="translate(-340.746 -531.151)" fill="#00685d"/><path d="M386.2,550.094c1.009-1.191,3.314-.482,3.314-.482s1.549,1.6.539,2.792-4.195,1.522-4.195,1.522S385.189,551.285,386.2,550.094Z" transform="translate(-359.711 -536.17)" fill="#00685d"/><path d="M329.242,554.9c.271-1.838,2.51-2.446,2.51-2.446s2.038.769,1.767,2.608-2.746,4.051-2.746,4.051S328.972,556.734,329.242,554.9Z" transform="translate(-325.389 -538.023)" fill="#00685d"/><path d="M353.484,517.743a3.549,3.549,0,0,1,2.675-2.122,2.678,2.678,0,0,1,.617,3.03c-.749,1.874-3.328,3.756-3.328,3.756A9.144,9.144,0,0,1,353.484,517.743Z" transform="translate(-339.943 -515.621)" fill="#00685d"/></g><g transform="translate(124.699 171.774)"><g transform="translate(2.643 9.862)"><path d="M572.709,621.426a33.9,33.9,0,0,0-15.68.651c-2.415.655-4.565,1.784-6.695,2.584-2.182.825-4.478,1.492-6.748,2.206a63.2,63.2,0,0,0-13.089,5.418,26.746,26.746,0,0,0-9.912,9.391,26.512,26.512,0,0,1,10.141-9.008,62.55,62.55,0,0,1,13.193-4.95c2.3-.64,4.653-1.234,6.969-2.011a71.732,71.732,0,0,1,6.789-2.324,33.085,33.085,0,0,1,14.976-.115l.069.015c.613.137,1.123-.156,1.136-.667a1.345,1.345,0,0,0-1.11-1.183Z" transform="translate(-520.585 -620.805)" fill="#00524a"/></g><g transform="translate(13.404 6.3)"><path d="M581.695,615.5a24.518,24.518,0,0,0-8.688-3.271,32.857,32.857,0,0,0-8.914-.379,36.82,36.82,0,0,0-8.44,1.793c-1.341.456-2.634,1.006-3.92,1.556q-1.871.918-3.679,1.928,1.867-.914,3.794-1.73c1.317-.478,2.633-.956,3.989-1.335a36.524,36.524,0,0,1,8.393-1.315,31.924,31.924,0,0,1,8.531.8,22.939,22.939,0,0,1,7.642,3.244Q581.042,616.141,581.695,615.5Z" transform="translate(-548.055 -611.71)" fill="#00524a"/></g><g transform="translate(21.125 13.264)"><path d="M580.728,629.558a10.106,10.106,0,0,1-1.237,5.251,23.173,23.173,0,0,1-3.3,4.768,57.862,57.862,0,0,1-4.084,4.235q-1.111.964-2.166,1.966-1.117.937-2.181,1.914,1.132-.892,2.315-1.738,1.134-.923,2.322-1.8c1.508-1.27,3.08-2.521,4.5-3.967a25.95,25.95,0,0,0,3.925-4.708,15.608,15.608,0,0,0,1.389-2.783,8.336,8.336,0,0,0,.614-3.206Q581.776,629.508,580.728,629.558Z" transform="translate(-567.765 -629.489)" fill="#00524a"/></g><path d="M579.916,596.56c-2.153-1.9-6.168-.3-6.142-.283-.027,0-2.181,2.942-.02,4.632,2.133,1.631,7.609,1.864,7.618,1.914C581.359,602.828,582.036,598.441,579.916,596.56Z" transform="translate(-549.698 -595.628)" fill="#00524a"/><path d="M575.7,660.056c-.965,2.168,1.509,4.361,1.482,4.375.014-.022,3.085.68,4.2-1.362,1.162-2.068-.229-6.3-.261-6.3C581.118,656.731,576.677,657.829,575.7,660.056Z" transform="translate(-551.333 -632.821)" fill="#00524a"/><path d="M607.787,627.213c-1.429,1.939,1.2,4.627,1.169,4.639.017-.024,3.571,1.348,5.139-.414,1.612-1.787.49-6.3.458-6.3C614.548,625.083,609.232,625.205,607.787,627.213Z" transform="translate(-570.726 -613.571)" fill="#00524a"/><path d="M587.228,618.541c-2.126-.96-4.3,1.123-4.282,1.125-.009.006-.511,2.688,1.508,3.549,1.994.837,5.873-.179,5.891-.156C590.353,623.066,589.351,619.5,587.228,618.541Z" transform="translate(-555.837 -609.412)" fill="#00524a"/><path d="M556.886,627.8c-1.7-1.316-4.469.345-4.451.355-.018,0-1.359,2.579.334,3.768,1.671,1.157,5.654.78,5.662.81C558.422,632.734,558.561,629.1,556.886,627.8Z" transform="translate(-536.998 -614.887)" fill="#00524a"/><path d="M582.359,640.858c-1.814,1.053-.838,3.7-.852,3.695.019,0,2.176,1.843,3.929.9s2.654-4.424,2.655-4.429C588.109,640.995,584.2,639.777,582.359,640.858Z" transform="translate(-554.847 -622.869)" fill="#00524a"/><path d="M521.2,648.969c-2.587.915-2.495,4.384-2.49,4.37.014,0,1.9,2.655,4.249,1.831,2.326-.83,4.7-4.783,4.737-4.782C527.735,650.369,523.816,648.036,521.2,648.969Z" transform="translate(-516.802 -627.94)" fill="#00524a"/><path d="M563.509,640.626c-1.092,2.185,1.614,4.341,1.586,4.356.017-.024,3.392.64,4.622-1.406,1.269-2.075-.206-6.292-.235-6.289C569.474,637.24,564.612,638.376,563.509,640.626Z" transform="translate(-543.893 -620.967)" fill="#00524a"/><path d="M556.046,606.163c-1.976-.781-4.135,1.17-4.121,1.172-.01,0-.606,2.44,1.3,3.13,1.888.669,5.617-.41,5.632-.389C558.864,610.08,558.012,606.941,556.046,606.163Z" transform="translate(-536.947 -601.924)" fill="#00524a"/><path d="M564.58,617.45c-.939,1.575,1.216,3.173,1.2,3.182.008-.014,2.785.489,3.793-1,1.029-1.507-.156-4.568-.172-4.567C569.4,615.036,565.525,615.838,564.58,617.45Z" transform="translate(-544.559 -607.45)" fill="#00524a"/><path d="M541.19,651.406c-.624,1.676,1.44,2.989,1.425,3,.008-.014,2.462.129,3.162-1.484.718-1.632-.659-4.508-.673-4.5C545.1,648.393,541.817,649.7,541.19,651.406Z" transform="translate(-530.404 -627.738)" fill="#00524a"/><path d="M562.084,675.636c-.656,1.586,1.049,3.152,1.035,3.159.008-.011,2.125.435,2.852-1.089.747-1.538-.236-4.562-.251-4.56C565.714,673.126,562.746,674.022,562.084,675.636Z" transform="translate(-543.093 -642.781)" fill="#00524a"/><path d="M541.742,624.9a2.4,2.4,0,0,0-.15,2.979,3.8,3.8,0,0,0,3.3-1c1.292-1.41,1.455-4.188,1.452-4.191C546.34,622.673,543.027,623.4,541.742,624.9Z" transform="translate(-530.441 -612.091)" fill="#00524a"/><path d="M514.1,672.709a2.681,2.681,0,0,0,.436,2.922,2.892,2.892,0,0,0,2.567-1.505,9.076,9.076,0,0,0,.45-4.334C517.555,669.776,514.906,671.045,514.1,672.709Z" transform="translate(-513.837 -640.74)" fill="#00524a"/></g><path d="M453.725,636.373a4.588,4.588,0,0,0-4.733.134c-.83.629-1.745,1.714-2.658,1.212-.274-.151-.477-.435-.781-.51-.873-.215-1.055,1.2-1.654,1.87a2.159,2.159,0,0,1-2.554.092,7.316,7.316,0,0,0-2.485-1.139,4.51,4.51,0,0,0-2.1.486L433.7,639.77a10.63,10.63,0,0,0-4.6,2.9,1.912,1.912,0,0,0-.489,1.626,2.011,2.011,0,0,0,1.163,1.12c1.645.794,2.926.614,4.62.57,2.051-.054,4.088.322,6.16.2a31.413,31.413,0,0,0,9.233-1.977c2-.758,6.011-1.762,7.143-3.709C457.862,638.891,455.2,637.114,453.725,636.373Z" transform="translate(-337.267 -448.279)" fill="#ca5c47"/><g transform="translate(173.527 73.029)"><path d="M736.6,419.235s0,46.325-7.27,78.208c0,0,22.157-.313,28.042-81.324Z" transform="translate(-693.746 -387.692)" fill="#22365b"/><path d="M720.143,350.165c15.925-13.848,32.889-3.808,40.506,10.386s15.232,84.918-1.731,93.7c0,0-3.116-44.19-16.964-77.772,0,0-.676.367-1.822.948-1.578-4.311-7.5-17.378-18.95-8.91-4.915,3.277-7.3,11.926-7.576,17.036l-.087-.008c-.053-4.259.66-13.8,7.49-19.823l-9.694-1.186a41.046,41.046,0,0,0-4.28,13.7C705.843,370.825,709.7,359.244,720.143,350.165Z" transform="translate(-680.056 -343.548)" fill="#265173"/><path d="M736.01,582.775l-13.5-3.8s-1.594,13.826-2.677,16.536c-.583,1.459-4.421,3.307-4.421,3.307v1.362h12.4S734.142,590.119,736.01,582.775Z" transform="translate(-685.276 -486.752)" fill="#f3e190"/><path d="M842.7,578.973H828.247s2.27,13.963,1.28,16.536a8.668,8.668,0,0,1-2.606,3.307l.166,1.362h10.986S842.674,589.867,842.7,578.973Z" transform="translate(-753.107 -486.752)" fill="#f3e190"/><path d="M731.709,402.941c11.448-8.467,17.372,4.6,18.95,8.911-4.937,2.5-18.737,9.023-26.526,8.125C724.413,414.867,726.794,406.218,731.709,402.941Z" transform="translate(-690.583 -377.976)" fill="#ee4a5a"/><path d="M721.332,398.3c-6.83,6.023-7.543,15.563-7.49,19.823-.212-.026-.444-.027-.646-.064-3.219-.6-5.213-3.356-5.838-7.246a41.046,41.046,0,0,1,4.28-13.7Z" transform="translate(-680.379 -376.134)" fill="#ee4a5a"/><path d="M703.492,501.464c.143-3.443-.011-10.1-.24-16.71l10.754-2.319c1.8,6.59,2.507,14.019.564,20.413-8.418,27.7-29.427,31.525-29.427,31.525C696.568,519.507,703.492,501.464,703.492,501.464Z" transform="translate(-666.866 -428.031)" fill="#f79885"/><path d="M729.333,438.769c1.341-4.915,8.273,4.292,11.553,16.284l-10.754,2.319C729.807,448.028,729.333,438.769,729.333,438.769Z" transform="translate(-693.746 -400.648)" fill="#ee4a5a"/><path d="M698.962,421.249s-5.884,8.615-11.662,17.491l-6.061-7.725C690.723,421.424,700.99,416.522,698.962,421.249Z" transform="translate(-664.492 -389.704)" fill="#ee4a5a"/><path d="M642.693,467.656c2.623-7.056,7.47-13.521,12.541-18.648l6.061,7.725c-4.123,6.335-8.192,12.8-10.028,16.367,0,0-7.131,16.922-7.435,35.668C643.831,508.768,632.6,494.8,642.693,467.656Z" transform="translate(-638.485 -407.697)" fill="#f0786a"/><path d="M686.625,435.445a29.237,29.237,0,0,0-3.531,6.831c-1.653,5.366-3.974,7.055-4.827,7.3s-7.262-.362-13.1-10.741c-5.082-9.044,6.41-16.55,9.433-11.13,4.468,8.01,8.91-.728,8.91-.728S685.856,423.778,686.625,435.445Z" transform="translate(-653.939 -393.626)" fill="#f79885"/><path d="M679.272,419.918s2.921,11.007-14.827,10.194c0,0-6.931-5.484-.622-13.087a7.781,7.781,0,0,1,6.1-2.75s-4.749-6.186,3.117-5.177,3.4,6.537,1.456,6.5C674.5,415.6,676.875,416.25,679.272,419.918Z" transform="translate(-652.285 -383.353)" fill="#9c2622"/><path d="M654.873,605.249c0,2.021,1,4.107,5.3,3.659,2.912-.3,5.3-1.638,5.3-3.659s-1.692-4.106-5.3-3.658C655.749,602.14,654.873,603.229,654.873,605.249Z" transform="translate(-648.453 -500.473)" fill="#ed9d22"/><path d="M675.935,606.37s-7.2-.745-7.543,0,2.943,1.784,2.943,1.784-3.462,3.289-5.193,3.635c0,0,7.774,7.035,13.061-4.185Z" transform="translate(-655.308 -503.216)" fill="#b5d6ea"/><path d="M646.123,585.711s5.743,4.4,5.484,5.179-3.364-.724-3.364-.724a26.419,26.419,0,0,0,.781,5.1.736.736,0,0,1-.848.941c-2.7-.536-8.254-2.747-5.276-11.84Z" transform="translate(-640.651 -490.031)" fill="#b5d6ea"/></g><g transform="translate(233.822 143.059)"><g transform="translate(2.275)"><path d="M798.217,539.715c0,1.809.892,3.677,4.747,3.276,2.608-.271,4.747-1.467,4.747-3.276s-1.516-3.677-4.747-3.276C799,536.93,798.217,537.905,798.217,539.715Z" transform="translate(-798.217 -530.876)" fill="#ed9d22"/><path d="M816.023,537.608c0,1.809.892,3.677,4.747,3.276,2.607-.271,4.747-1.467,4.747-3.276s-1.516-3.677-4.747-3.276C816.807,534.824,816.023,535.8,816.023,537.608Z" transform="translate(-809.048 -529.594)" fill="#ed9d22"/><path d="M853.031,536.846c-1.291,1.268-2,3.213.989,5.682,2.021,1.67,4.372,2.359,5.663,1.091s1.562-3.658-.988-5.682C855.567,535.454,854.322,535.578,853.031,536.846Z" transform="translate(-830.883 -530.619)" fill="#ed9d22"/><path d="M834.058,535.161c-1.291,1.268-2,3.213.989,5.682,2.021,1.67,4.372,2.359,5.663,1.091s1.562-3.657-.988-5.682C836.594,533.77,835.349,533.894,834.058,535.161Z" transform="translate(-819.342 -529.595)" fill="#ed9d22"/><path d="M845.732,525.553c-1.505-1-3.554-1.3-5.359,2.131-1.222,2.32-1.415,4.763.091,5.767s3.9.78,5.359-2.131C847.613,527.751,847.237,526.558,845.732,525.553Z" transform="translate(-823.265 -523.879)" fill="#db7d00"/><path d="M826.453,522.382c-1.787.28-3.495,1.45-2.5,5.2.671,2.534,2.183,4.463,3.97,4.184s3.4-2.066,2.5-5.2C829.325,522.726,828.241,522.1,826.453,522.382Z" transform="translate(-813.692 -522.323)" fill="#ed9d22"/><path d="M818.143,537.115c1.45-1.082,2.413-2.915-.215-5.763-1.777-1.927-4.015-2.926-5.465-1.844s-2.04,3.414.215,5.763C815.443,538.152,816.693,538.2,818.143,537.115Z" transform="translate(-806.101 -526.423)" fill="#db7d00"/></g><g transform="translate(29.807 9.836)"><path d="M872.154,571.64a.387.387,0,0,1-.32-.6c2.52-3.74,1.194-13.007-3.3-23.059a.387.387,0,1,1,.706-.316c4.669,10.448,5.938,19.793,3.233,23.807A.386.386,0,0,1,872.154,571.64Z" transform="translate(-868.503 -547.433)" fill="#7fb8db"/></g><path d="M799.59,582.976h23.87l4.8-34.555h-33.48Z" transform="translate(-793.854 -538.198)" fill="#b5d6ea"/><g transform="translate(0 9.293)"><path d="M826.82,547.907H793.34a.93.93,0,0,1,0-1.86h33.48a.93.93,0,0,1,0,1.86Z" transform="translate(-792.41 -546.047)" fill="#7fb8db"/></g><g transform="translate(6.635 9.836)"><path d="M832.628,573.511c-6.527,0-16.955-11.454-23.247-25.532a.387.387,0,1,1,.706-.316c6.179,13.826,16.291,25.075,22.541,25.075a3.682,3.682,0,0,0,3.223-1.7.387.387,0,1,1,.641.432A4.47,4.47,0,0,1,832.628,573.511Z" transform="translate(-809.348 -547.433)" fill="#7fb8db"/></g></g><g transform="translate(174.557 183.064)"><path d="M683.625,630.059c.691,1.672,2.229,3.058,5.638,1.216,2.306-1.246,3.827-3.168,3.136-4.841s-2.8-2.82-5.638-1.216C683.287,627.187,682.934,628.387,683.625,630.059Z" transform="translate(-666.796 -624.449)" fill="#ed9d22"/><path d="M659.078,631.706c-1.045,1.477-1.4,3.517,1.983,5.416,2.285,1.284,4.722,1.544,5.767.067s.887-3.877-1.983-5.416C661.326,629.886,660.123,630.229,659.078,631.706Z" transform="translate(-651.6 -628.115)" fill="#ed9d22"/><path d="M641.462,630.988c-.611,1.17-.665,2.679,1.963,3.721,1.778.705,3.564.655,4.175-.515s.262-2.889-1.963-3.721C642.909,629.453,642.073,629.819,641.462,630.988Z" transform="translate(-641.115 -627.751)" fill="#db7d00"/></g></g></g></g></svg>