<svg xmlns="http://www.w3.org/2000/svg" width="1240" height="339" viewBox="0 0 1240 339"><g transform="translate(-179.615 -1361)"><rect width="1240" height="339" transform="translate(179.615 1361)" fill="#f9f7ec"/><g transform="translate(51.615 203)"><path d="M190.394,505.865c.019.29.043.581.067.875a62.038,62.038,0,0,0,.974,6.748c0,.008,0,.014,0,.021.011.058.023.115.035.172,0,0,0,.01,0,.015l85.331-.151,221.428-.39s29.375-20.3,38.949-52.3c.008-.027.016-.053.023-.08a68.748,68.748,0,0,0,2.808-24.355c-.006-.085-.011-.172-.018-.258a72.64,72.64,0,0,0-5.6-22.992,91.282,91.282,0,0,0-6.082-11.93q-.834-1.382-1.749-2.7c-19.788-28.581-66.86-35.214-81.435-29.086-19.806,8.328-46.076-14.169-102.857-29.613-25.966-7.063-71.891-1.068-96.792,21.109-.028.024-.056.049-.082.075-15.946,14.246-23.22,35.153-11.005,63.543.013.029.025.059.039.089s.014.033.021.049c11.893,27.524-12.159,33.383-29.212,47.554-.085.069-.168.139-.253.211a53.443,53.443,0,0,0-4.942,4.675q-.495.535-.972,1.087a36.555,36.555,0,0,0-5.245,7.859q-.3.622-.586,1.265a34.329,34.329,0,0,0-2.063,6.331,39.22,39.22,0,0,0-.894,7.318,46.971,46.971,0,0,0,.1,4.857" transform="translate(94.729 982.95)" fill="#ced371" opacity="0.38"/><circle cx="23.92" cy="23.92" r="23.92" transform="translate(534.162 1249)" fill="#ced371"/><circle cx="5.628" cy="5.628" r="5.628" transform="translate(293.082 1400.027)" fill="#ced371"/><circle cx="15.009" cy="15.009" r="15.009" transform="translate(318.409 1282.77)" fill="#ced371"/><g transform="translate(364.735 1267.711)"><g transform="translate(0 0)"><g transform="translate(0 30.326)"><path d="M1144.118,250.561c-1.655-4.66-14.472-3.511-17.221-2.6a11.7,11.7,0,0,0-8.333,12.5c.212,2.289,6.51,5.989,14.244,2.9C1135.174,262.416,1145.07,253.244,1144.118,250.561Z" transform="translate(-1118.519 -247.134)" fill="#265173"/><path d="M1147.162,251.884c-1.265-3.539-11.733-2.386-13.991-1.629-6.848,2.3-7.151,8.019-7.019,9.771s5.2,4.456,11.559,1.921C1139.658,261.17,1147.89,253.923,1147.162,251.884Z" transform="translate(-1122.502 -248.348)" fill="#22365b"/></g><path d="M1151.08,226.775s-8.659-1.543-12.9-6.184-3.314-14.509-3.314-14.509,3.666,6.152,5.932,8.492,11.741,2.462,11.741,2.462S1158.8,220.356,1151.08,226.775Z" transform="translate(-1127.025 -195.331)" fill="#7fb8db"/><path d="M1788.676,218.229s-2.857,82.572,33.492,46.108c0,0-1.354-7.274,24.614-14.748l-9.153,8.966a96.991,96.991,0,0,1,8.838-6.187s-14.472,20.438-23.117,14.887c0,0-29.427,35.269-40.465-17.819Z" transform="translate(-1466.096 -201.686)" fill="#0e5d98"/><path d="M1692.632,233.428s-35.935,51.666-8.526,119.391c0,0,8.632,10.362-.214,18.127,4.833,44.209-1.114,53.408-2.909,64.958h-9.756s4.258-7.961,4.118-10.987c-.68-14.641-7.8-52.123-29.263-84.668-30.044-45.557-14.478-91.638-14.478-91.638Z" transform="translate(-1384.841 -209.638)" fill="#5aa5d1"/><path d="M1334.948,350.51s32.457,44.554,50.465,134.3c.581,2.9-3.148,8.83-3.148,8.83h10.987s8.081-71.76-4.193-129.422C1389.059,364.217,1365.812,329.565,1334.948,350.51Z" transform="translate(-1231.749 -267.372)" fill="#5aa5d1"/><path d="M1682.4,469.574s7.62,20.423,1.36,20.361S1682.4,469.574,1682.4,469.574Z" transform="translate(-1412.573 -333.183)" fill="#f0786a"/><path d="M1646.428,489.062c6.13,1.272,2.6-20.239,2.6-20.239S1640.3,487.79,1646.428,489.062Z" transform="translate(-1393.565 -332.79)" fill="#f0786a"/><path d="M1652.834,391.646s14.746,15.98,13.828,27c-1.449,17.4-18.944,21.554-28.152,21.554-15.176,0-21.909-9.017-19.254-18.739C1625.328,399.225,1652.834,391.646,1652.834,391.646Z" transform="translate(-1380.194 -292.413)" fill="#f79885"/><path d="M1450.371,188.412c-9.051.191-36.393,10.442-77.111,10.164-35.935-.246-85.193-16.119-91.742-14.982-26.828,4.656-39.449,24.233-101.776,19.845l1.381,48.367s77.735,71.274,96.6,66.459c6.455-1.647,24.873-15.4,24.873-15.4s13.98,38.556,64.87,33.791c47.108-4.41,80.71-91.458,105.659-131.629C1478.092,197.039,1456.1,188.291,1450.371,188.412Z" transform="translate(-1150.549 -183.535)" fill="#b5d6ea"/><path d="M1675.2,291.682s-12.074,32.082-1.234,64.946a332.659,332.659,0,0,0,21.574-33.69Z" transform="translate(-1406.75 -240.114)" fill="#7fb8db"/><path d="M1401.147,381.263l-43.455-9.464s.692,22.2-.581,41.831c5.64,2.641,10.322,3.917,13.409,3.129,6.455-1.647,24.873-15.4,24.873-15.4a54.84,54.84,0,0,0,21.93,25.16C1414.411,416.768,1405.855,388.845,1401.147,381.263Z" transform="translate(-1243.344 -282.029)" fill="#7fb8db"/><path d="M1734.224,228.615s-15.131,57.159,1.184,112.787c7.916,9.812,6.328,18.44,2.526,22.307-.613,20.149-1.992,57.207-4.138,69.677h-13.713s5.6-7.376,5.556-11.148c-.253-20.18-4.259-54.512-27.524-86.041-31.059-42.093-15.326-89.823-15.326-89.823Z" transform="translate(-1411.645 -207.119)" fill="#b5d6ea"/><path d="M1352.694,350s21.118,43.357,17.147,132.138c-.15,3.359-5.966,10.99-5.966,10.99h11.571s25.761-74.941,27.81-132.6C1403.256,360.527,1388.76,329.056,1352.694,350Z" transform="translate(-1241.033 -266.863)" fill="#b5d6ea"/><g transform="translate(34.635)"><path d="M1587.728,255.852c-9.91-4.782-22.242-4.23-28.78,5.652-2.916,4.406-4.092,10.014-7.975,13.6-4.767,4.4-12.413,4.592-17,9.181-5.015,5.02-4.259,13.993.429,19.32,5.459,6.2,18.266,9.211,26.135,10.72,7.154,1.372,14.828,1.132,21.376-2.06s11.728-9.694,12.058-16.971c.355-7.8-5.955-16.31-3.022-23.808,1.134-2.9,3.259-3.8,2.955-7.458C1593.6,260.3,1590.993,257.427,1587.728,255.852Z" transform="translate(-1368.711 -219.839)" fill="#265173"/><path d="M1716.447,193.762c-4.653.1-14.174,2.854-27.83,5.473a21.133,21.133,0,0,0,.966,10.794c3.1,8.195,12.375,13.879,20.929,11.972,7.608-1.7,13.056-8.358,20.132-11.624a76.456,76.456,0,0,1,9.221-3.111C1738.749,200.276,1721.439,193.656,1716.447,193.762Z" transform="translate(-1451.26 -188.885)" fill="#265173"/><path d="M1303.164,231.848c9.948-3.329,20.828-6.937,26.481-15.774,4.449-6.956,4.43-15.8,1.511-23.643-21.642-4.422-39.863-9.5-43.667-8.838-26.026,4.517-38.688,23.073-96.321,20.173a38.446,38.446,0,0,0,4.813,20.045c5.1,8.942,11.625,15.5,14.25,25.649,4.927-3.232,10.18-4.533,15.824-1.746,5.234,2.584,8.976,7.36,12.651,11.9s7.709,9.156,13.174,11.206a17.9,17.9,0,0,0,21.275-7.926c2.322-4.264,2.764-9.318,4.822-13.715C1282.423,239.672,1293.216,235.177,1303.164,231.848Z" transform="translate(-1191.156 -183.535)" fill="#265173"/><path d="M1433.105,344.588c2.6,5.993,7.173,10.877,11.668,15.619a31.518,31.518,0,0,0,7.365,6.31c2.846,1.562,7.755,3.685,9.354.86,5.123-9.055.754-33.878-9.323-40.363C1439.925,319.133,1427.766,332.3,1433.105,344.588Z" transform="translate(-1317.061 -257.352)" fill="#265173"/></g><path d="M1171.617,225.576a38.344,38.344,0,0,0-28.724,1.138s-7.185,39.016-11.263,51.186a66.219,66.219,0,0,1-3.669,9.128c-1.032,2.236.006,9.376,1.61,11.187,2.934,3.312,12.4,3.68,16.18,1.226a61.832,61.832,0,0,0,5.4-3.875c-.127-4.105-1.286-13-3.841-15.4C1148.4,271.169,1154.457,228.23,1171.617,225.576Z" transform="translate(-1123.242 -204.35)" fill="#b5d6ea"/><path d="M1199.4,232.715a34.63,34.63,0,0,0-9.021-4.666c-17.762,2.747-27.481,48.25-26.948,52.753.3,2.486,2.518,3.308,3.812,6.041a17.582,17.582,0,0,1,.612,12.774s34.585-18.855,37.154-26.677C1210.06,257.561,1199.4,232.715,1199.4,232.715Z" transform="translate(-1142.005 -206.823)" fill="#265173"/><path d="M1241.066,278.709a74.438,74.438,0,0,0-2.418-14.8l-8.766-2.031S1231.872,270.773,1241.066,278.709Z" transform="translate(-1176.781 -224.521)" fill="#22365b"/><g transform="translate(52.144 31.16)"><path d="M1227.938,252.309c1.655-4.66,14.471-3.511,17.22-2.6a11.706,11.706,0,0,1,8.334,12.5c-.213,2.289-6.511,5.989-14.244,2.9C1236.882,264.165,1226.986,254.992,1227.938,252.309Z" transform="translate(-1227.874 -248.883)" fill="#265173"/><path d="M1229.927,253.633c1.265-3.539,11.733-2.386,13.99-1.629,6.848,2.3,7.151,8.019,7.019,9.771s-5.2,4.456-11.559,1.921C1237.431,262.919,1229.2,255.671,1229.927,253.633Z" transform="translate(-1228.924 -250.096)" fill="#22365b"/></g><path d="M1220.621,226.775s8.076-1.363,12.319-6,3.315-14.69,3.315-14.69-3.083,6.152-5.348,8.492-11.741,2.462-11.741,2.462S1212.9,220.356,1220.621,226.775Z" transform="translate(-1169.92 -195.331)" fill="#7fb8db"/><path d="M1201.993,284.957c0,6.051-7.307,5.484-7.307,5.484a17.135,17.135,0,0,1-.934-5.484c0-3.029,1.845-5.484,4.12-5.484S1201.993,281.928,1201.993,284.957Z" transform="translate(-1157.879 -233.727)" fill="#22365b"/><path d="M1152.3,358.2s3.829.18,5.32-6.845C1157.618,351.351,1163.384,360.357,1152.3,358.2Z" transform="translate(-1136.191 -271.332)" fill="#7fb8db"/></g><g transform="translate(242.695 182.766)"><g transform="translate(27.607 0.143)"><path d="M1698.447,590.17a1.43,1.43,0,0,1-1.427-1.362c-.132-2.719-3.17-9.416-11.3-19.34a1.431,1.431,0,1,1,2.214-1.813c7.272,8.876,11.738,16.731,11.946,21.014a1.432,1.432,0,0,1-1.36,1.5Z" transform="translate(-1685.394 -567.131)" fill="#b5d6ea"/></g><path d="M1667.438,566.831H1628.8l3.537,41.3a2.4,2.4,0,0,0,2.4,2.2h26.775a2.4,2.4,0,0,0,2.4-2.2Z" transform="translate(-1628.177 -566.831)" fill="#eb5654"/><rect width="39.881" height="3.148" transform="translate(0 0)" fill="#c93b38"/><g transform="translate(9.413 0.143)"><path d="M1676.384,592.715c-6.118,0-19.46-11.819-28.822-23.245a1.431,1.431,0,0,1,2.213-1.814c10.88,13.279,22.543,22.2,26.609,22.2a.806.806,0,0,0,.52-.114c.019-.02.188-.218.153-.93a1.431,1.431,0,1,1,2.858-.14,3.959,3.959,0,0,1-.938,3.043A3.433,3.433,0,0,1,1676.384,592.715Z" transform="translate(-1647.237 -567.131)" fill="#b5d6ea"/></g></g><g transform="translate(396.552 182.766)"><g transform="translate(0.005 0.143)"><path d="M1951.609,590.17a1.43,1.43,0,0,0,1.428-1.362c.132-2.719,3.171-9.416,11.3-19.34a1.431,1.431,0,1,0-2.213-1.813c-7.272,8.876-11.739,16.731-11.947,21.014a1.431,1.431,0,0,0,1.361,1.5Z" transform="translate(-1950.177 -567.131)" fill="#b5d6ea"/></g><path d="M1956.114,566.831h38.641l-3.538,41.3a2.4,2.4,0,0,1-2.4,2.2h-26.775a2.4,2.4,0,0,1-2.4-2.2Z" transform="translate(-1953.278 -566.831)" fill="#eb5654"/><rect width="39.881" height="3.148" transform="translate(42.098 3.148) rotate(180)" fill="#c93b38"/><g transform="translate(0 0.143)"><path d="M1953.7,592.715c6.118,0,19.459-11.819,28.822-23.245a1.431,1.431,0,1,0-2.213-1.814c-10.879,13.279-22.543,22.2-26.609,22.2a.807.807,0,0,1-.52-.114c-.019-.02-.188-.218-.153-.93a1.43,1.43,0,1,0-2.857-.14,3.954,3.954,0,0,0,.938,3.043A3.431,3.431,0,0,0,1953.7,592.715Z" transform="translate(-1950.166 -567.131)" fill="#b5d6ea"/></g></g><g transform="translate(248.737 72.88)"><path d="M1733.642,384.347c-4.724,0-.873,38.543-5.431,43.142,0,0-8.031,7.924-32.921,10.41,2.736,10.732,25.019,10.1,41.1,2.486C1753.646,432.214,1741.1,384.341,1733.642,384.347Z" transform="translate(-1669.006 -361.474)" fill="#265173"/><path d="M1687.24,494.818s-7.385-2.583-9.518-.583-.307,7.283,2.431,8.371,8.462-3.077,8.462-3.077Z" transform="translate(-1659.327 -418.567)" fill="#f79885"/><path d="M1688.264,496.131s-9.038-.6-9.49.64,4.745,1.4,4.745,1.4,2.572,5.547,5.368,3.315Z" transform="translate(-1660.351 -419.88)" fill="#f79885"/><path d="M1743.356,358.983c-10.359-3.065-7.967-23.034-19.175-19.474-3.721,1.182-11.621,5.8-10.14,16.371,1.376,9.827,11.206,16.48,13.571,16.775,3.315.414,7.458-5.8,7.458-5.8l8.287.829Z" transform="translate(-1678.72 -337.795)" fill="#f79885"/><path d="M1728.038,361.494s4.794,10.612,19.255,5.928a52.64,52.64,0,0,1-5.017-8.39Z" transform="translate(-1686.139 -348.23)" fill="#f3e190"/><path d="M1713.334,354.464s6.853-3.039,23.885-1.212c0,0-1.795-13.295-.15-14.952C1737.069,338.3,1707.221,328.16,1713.334,354.464Z" transform="translate(-1678.015 -336.378)" fill="#eb5654"/><g transform="translate(56.925 7.944)"><path d="M1761.262,363.469a2.409,2.409,0,1,1-1.608,3A2.408,2.408,0,0,1,1761.262,363.469Z" transform="translate(-1759.55 -358.441)" fill="#eb5654"/><path d="M1766.4,355.357a11.736,11.736,0,0,1,5.105-2.318,11.738,11.738,0,0,1-2.586,4.975,4.733,4.733,0,0,1-3.987,1.257A4.733,4.733,0,0,1,1766.4,355.357Z" transform="translate(-1762.35 -353.039)" fill="#eb5654"/><path d="M1769.028,371.532a11.735,11.735,0,0,0,5.534-.9,11.737,11.737,0,0,0-4.911-2.706,4.733,4.733,0,0,0-4.015,1.164A4.734,4.734,0,0,0,1769.028,371.532Z" transform="translate(-1762.734 -360.788)" fill="#eb5654"/></g><path d="M1765.205,379.584c-5.313,6.25,15.33,39.776,16.159,47.234l61.321,1.657C1831.084,389.528,1772.249,371.3,1765.205,379.584Z" transform="translate(-1705.127 -357.954)" fill="#008eb0"/><path d="M1786.544,402.685s6.182,12.768,4.369,31.079l-4.128-8.978Z" transform="translate(-1716.748 -371.068)" fill="#265173"/><path d="M1794.216,509.744s24.581,25.274,17.952,54.277c0,0-55.609-53.449-48.521-64.635s37.748-9.944,37.748-9.944Z" transform="translate(-1704.442 -416.435)" fill="#f0786a"/><path d="M1715.313,384.347c-4.724,0-8.755,43.049-13.312,47.648,0,0-22.664,9.452-41.745,8.613,2.736,10.732,35.509,11.537,51.587,3.925C1729.1,436.363,1722.771,384.341,1715.313,384.347Z" transform="translate(-1650.677 -361.474)" fill="#008eb0"/><path d="M1654,497.845l-6.115-3.492a3.487,3.487,0,0,1-3.426.821c-2-.652-3.569-1.928-4.035-1.307s-.512,6.2,1.686,8.3,10.943-.038,10.943-.038Z" transform="translate(-1640.168 -418.685)" fill="#f79885"/><path d="M1737.137,491.171c-6.584,16.924-16.159,69.193-16.159,69.193s23.617-8.287,35.632-49.72c-9.99-9.713-11.978-19.588-12.208-25.067C1740.567,487.228,1737.938,489.112,1737.137,491.171Z" transform="translate(-1682.446 -414.435)" fill="#f79885"/><path d="M1845.7,477.484c-13.633-9.543-57.826-7.026-75.6.622.23,5.479,2.219,15.354,12.209,25.067C1782.311,503.173,1860.205,518.088,1845.7,477.484Z" transform="translate(-1708.146 -406.963)" fill="#265173"/><path d="M1708.782,570.3l24.86,14.5-14.916,27.346H1695.29l.648-2.486a12.107,12.107,0,0,0,9.529-9.529C1707.124,591.843,1708.782,570.3,1708.782,570.3Z" transform="translate(-1669.006 -458.759)" fill="#265173"/><path d="M1809.017,586.913l25.149-10.789a102.59,102.59,0,0,1,6.47,39.07h-23.542l.754-2.486s7.239-3.313,7.4-7.251C1825.459,600.485,1809.017,586.913,1809.017,586.913Z" transform="translate(-1728.505 -461.807)" fill="#265173"/></g><g transform="translate(337.227 171.765)"><g transform="translate(0 2.964)"><rect width="52.099" height="3.729" transform="translate(0 51.192) rotate(-79.293)" fill="#7fb8db"/></g><g transform="translate(39.838 2.963)"><rect width="3.73" height="52.099" transform="matrix(0.983, -0.186, 0.186, 0.983, 0, 0.693)" fill="#7fb8db"/></g><rect width="52.827" height="5.118" transform="translate(0.176)" fill="#ffb157"/></g></g></g></g></svg>