<svg xmlns="http://www.w3.org/2000/svg" width="1240" height="361" viewBox="0 0 1240 361"><g transform="translate(-11240 10492)"><rect width="1240" height="361" transform="translate(11240 -10492)" fill="#f9f7ec"/><g transform="translate(11363.385 -10398)"><path d="M190.4,517.013c.02.309.046.62.072.933a66.123,66.123,0,0,0,1.039,7.194c0,.008,0,.015.005.023.011.062.025.122.037.184,0,0,0,.01,0,.016l90.965-.161,236.05-.416s31.314-21.638,41.521-55.752c.009-.029.017-.057.025-.085a73.287,73.287,0,0,0,2.994-25.963c-.006-.091-.012-.183-.02-.275a77.436,77.436,0,0,0-5.965-24.51,97.311,97.311,0,0,0-6.484-12.718q-.889-1.473-1.865-2.88c-21.094-30.468-71.275-37.539-86.812-31.007-21.114,8.878-49.119-15.1-109.649-31.568-27.68-7.529-76.639-1.138-103.184,22.5-.029.026-.059.052-.087.08-17,15.186-24.753,37.474-11.732,67.739.014.031.027.063.042.094s.015.035.022.052c12.678,29.341-12.962,35.588-31.141,50.694-.09.074-.179.148-.269.224A56.964,56.964,0,0,0,200.7,486.4q-.528.571-1.036,1.159a38.968,38.968,0,0,0-5.592,8.378q-.324.663-.625,1.349a36.6,36.6,0,0,0-2.2,6.749,41.81,41.81,0,0,0-.953,7.8,50.053,50.053,0,0,0,.107,5.178" transform="translate(-190.27 -261.362)" fill="#ced371" opacity="0.38"/><ellipse cx="25.5" cy="25.5" rx="25.5" ry="25.5" transform="translate(265.615)" fill="#ced371"/><ellipse cx="6" cy="6" rx="6" ry="6" transform="translate(8.615 161)" fill="#ced371"/><ellipse cx="16" cy="16" rx="16" ry="16" transform="translate(35.615 36)" fill="#ced371"/></g><g transform="translate(25 -463)"><g transform="translate(10508.047 -10589.669)"><path d="M1258.75,1380.916c-5.631-.068-13.688,1.746-20.952,1.709-15.549-.08-34.274-.85-37.185-.834-7.1.039-10.419,1.161-18.513,1.117-7.982-.043-32.363,0-36.376,0-3.287,0-11.909.644-19.9.979s-17.053-1.661-20.8-2.062c-4.333-.464-16.594,1.08-21.545,1.082s-9.287-3.106-13.739-3.526-7.9-1.409-6.444-2.324c12.062-.818,24.7-1.647,37.354-1.306,4.279.115,8.534.365,12.836.287,8.04-.145,10.236-1.773,18.3-1.69,7.121.073,17.813,1.551,24.928,1.644,6.13.08,11.726-.607,17.575-.971,8.176-.508,16.333-1.448,24-.673,10.947,1.106,18.867-.078,23.966,0,4.671.07,8.682,1.595,13.341,1.5,4.633-.094,10.6-1.838,15.25-1.873,5.609-.042,10.211,1.906,15.633,2.186,8.843.458,10.736-.006,19.653.395,6.219.279,9.05.336,12.509,1.439,2.831.9,3.95,1.166.313,1.9-2.473.5-6.5.861-9.7,1.141C1282.247,1381.651,1266.338,1380.916,1258.75,1380.916Z" transform="translate(0 -465.522)" fill="#ed9d22"/><g transform="translate(1067.455 795.117)"><path d="M1185.712,1176.458l-1.887-8.246-1.888,1.769-1.888,4.157-1.89-4.193-1.89,3.935-1.889-1.9-1.888-.553-1.888,1.485-1.889-.388-1.89,3.446-1.882-2.155-1.883-5.6-1.885,2.928-1.888-.992-1.892-1.223-1.889,6.028-1.886-5.949-1.885,1.211-1.886.009-1.887-1.642-1.89,3.271-1.892,2.674-1.889-1.934-1.888,1.191-1.889.726-1.892-1.272-1.892,2.721-1.89-.995-1.891-2.89-1.893,1.323-1.892-2.368-1.894,4.227-1.893-6.051-1.894,2.577-1.889,3.518-1.889-5.616-1.9.3-1.892,5.54-1.895-5.3-1.9,3.313-1.894-3.92-1.9,6.753-1.9-2.012-1.9.731-2.365-1.848.226-3.976-4.122,1.495,1.319-3.267-.79-1.595.519-2.108-2.993-.943.279-2.02-2.033-1.5-3.051-1.461,3.172-2.44-4.044-1.5.458-2.038,4.116-2.206-4-1.741.792-1.97,1.892-1.933-1.485-1.935,2.445-1.84,2.385-1.765-6.048-2.274,1.081-1.86,1.08-1.832-1.859-2.14-.387-2.013,5.215-1.231.319-1.858-3.6-2.535,5.594-.93-3.941-2.7,3.7-1.172-3.929-2.847,7.772-.075-5.518-3.36-.786-2.227-.156-2.084,4.019-.788,1.284-1.581,4.171-.53-4.01-3.456,2.013-1.263.163-1.98-2.657-3.255,3.429-.58-.234-2.257,1.4-1.463,2.094-1.052,2.2-.917,3.175-.218-1.084-2.869,1.566-1.168-1.962-3.78.9-1.79,5.57,2.214-.681-3.054.6-2.037.863-1.869,1.873-.771,4.055,2.175-3.062-7.427,1.772-1.09,5.594,5.836-.989-5.886,1.871-.646,1.8-.811L1132,1066.5l1.387-2.205,1.342-3.651,2.748,5.033,1.833-.133,1.815-1.944,1.795,3.952,2.036-3.169,1.382,2.964,1.876-.365,2.037-.428,1.087,2.15,1.4,1.116,1.218,1.35,5.406-4.917.576,2.724,3.027-.5-.329,3.455.443,2.335,2.365.4-1.133,3.569,1.77.943,4.747-1.261-.758,3.013-1.83,3.584,6.791-2.181-.042,2.38,1.306,1.524-1.569,3.137,4.168-.044-3.463,3.988,4.072.126-.923,2.585.921,1.691-2.456,3.148-.707,2.316,3.813.481-.947,2.393,2.155,1.211,1,1.661-.1,2.044,4.722.464-1.527,2.515,2.013,1.406.7,1.817-5.4,3.488,5.748.435-3.568,2.881,4.764.81-4.4,2.974,6.951.441-7.437,3.492,3.372,1.259-.742,2.06,5.789.958-1.908,2.265-4.238,2.531,7.5.946.634,1.91-5.8,2.538.084,1.885,4.834,1.587-4.6,2.166,3.377,1.8-4.238,1.94.9,1.862,3.14,2.041-4.645,1.528-.1,1.772-.551,1.647,3.62,2.765-3.991.528,4.178,4.536-5.473-2.755Z" transform="translate(-1084.324 -1054.963)" fill="#ffb157"/><g transform="translate(0 0)"><g transform="translate(14.014 36.923)"><path d="M1135.778,1156.243c-.066-.04-6.718-3.988-18.935-4.027l0-.648c12.413.04,19.2,4.08,19.269,4.121Z" transform="translate(-1116.843 -1151.569)" fill="#db7d00"/></g><g transform="translate(5.488 75.295)"><path d="M1092.363,1270.243l-.333-.555c10.624-6.374,18.515-6.439,18.622-6.439h0v.648h0C1110.562,1263.9,1102.831,1263.962,1092.363,1270.243Z" transform="translate(-1092.03 -1263.248)" fill="#db7d00"/></g><g transform="translate(9.841 92.696)"><path d="M1105.271,1333.385l-.573-.3c.036-.068,3.555-6.957,2.82-19.152l.646-.039C1108.91,1326.284,1105.308,1333.316,1105.271,1333.385Z" transform="translate(-1104.697 -1313.894)" fill="#db7d00"/></g><g transform="translate(50.017 20.739)"><path d="M1222.217,1124.081l-.588-.27c.032-.07,3.181-7.135,1.8-19.275l.644-.073C1225.475,1116.8,1222.25,1124.01,1222.217,1124.081Z" transform="translate(-1221.629 -1104.464)" fill="#db7d00"/></g><g transform="translate(37.065 36.248)"><path d="M1194.706,1166.148c-.02-.075-2.038-7.542-10.773-16.083l.453-.463c8.874,8.679,10.927,16.308,10.946,16.384Z" transform="translate(-1183.933 -1149.602)" fill="#db7d00"/></g><g transform="translate(23.052 26.577)"><path d="M1157.377,1135.14c-.036-.068-3.741-6.858-14.228-13.128l.333-.556c10.654,6.37,14.43,13.31,14.467,13.379Z" transform="translate(-1143.149 -1121.457)" fill="#db7d00"/></g><g transform="translate(23.551 50.368)"><path d="M1162.571,1198.537c-.058-.051-5.938-5.076-17.97-7.2l.113-.637c12.224,2.158,18.223,7.3,18.282,7.35Z" transform="translate(-1144.601 -1190.699)" fill="#db7d00"/></g><g transform="translate(0 68.446)"><path d="M1089.8,1257.486c-.034-.069-3.493-6.987-13.748-13.628l.352-.543c10.419,6.747,13.943,13.817,13.978,13.888Z" transform="translate(-1076.056 -1243.315)" fill="#db7d00"/></g><g transform="translate(11.419 64.427)"><path d="M1121.862,1246.851c-.027-.071-2.9-7.253-12.572-14.719l.4-.512c9.825,7.586,12.752,14.924,12.78,15Z" transform="translate(-1109.29 -1231.619)" fill="#db7d00"/></g><g transform="translate(14.878 47.757)"><path d="M1120.867,1202.786l-.62-.186c.022-.074,2.161-7.507-.888-19.339l.627-.161C1123.084,1195.121,1120.889,1202.71,1120.867,1202.786Z" transform="translate(-1119.359 -1183.101)" fill="#db7d00"/></g><g transform="translate(44.286)"><path d="M1206.886,1063.765l-.624-.172c.021-.075,2-7.553-1.311-19.314l.623-.176C1208.934,1056.054,1206.907,1063.689,1206.886,1063.765Z" transform="translate(-1204.951 -1044.104)" fill="#db7d00"/></g><g transform="translate(15.293 35.65)"><path d="M1131.036,1164.6c-.018-.075-1.9-7.579-10.469-16.283l.461-.453c8.711,8.843,10.62,16.51,10.638,16.586Z" transform="translate(-1120.567 -1147.862)" fill="#db7d00"/></g><g transform="translate(55.399 6.106)"><path d="M1237.855,1081.221l-.56-.326c.038-.066,3.856-6.794,3.657-19.01l.648-.01C1241.8,1074.287,1237.894,1081.153,1237.855,1081.221Z" transform="translate(-1237.295 -1061.875)" fill="#db7d00"/></g><g transform="translate(21.841 8.431)"><path d="M1152.788,1083.362c-.031-.07-3.2-7.127-13.165-14.193l.375-.528c10.127,7.177,13.353,14.39,13.384,14.461Z" transform="translate(-1139.623 -1068.642)" fill="#db7d00"/></g><g transform="translate(16.768 97.781)"><path d="M1127.735,1348.267l-.631-.142c.017-.075,1.628-7.641-2.245-19.227l.614-.205C1129.408,1340.465,1127.753,1348.19,1127.735,1348.267Z" transform="translate(-1124.859 -1328.693)" fill="#db7d00"/></g><g transform="translate(4.18 86.665)"><path d="M1107.679,1298.459c-.073-.027-7.3-2.768-19.346-.7l-.11-.637c12.231-2.105,19.618.7,19.691.732Z" transform="translate(-1088.223 -1296.342)" fill="#db7d00"/></g><g transform="translate(36.207 13.997)"><path d="M1188.764,1103.123c0-.077-.484-7.8-7.328-17.917l.536-.363c6.954,10.282,7.435,18.168,7.439,18.246Z" transform="translate(-1181.436 -1084.843)" fill="#db7d00"/></g><g transform="translate(23.547 64.63)"><path d="M1144.735,1234.208l-.147-.63c12.092-2.808,19.626-.431,19.7-.407l-.2.616C1164.016,1233.762,1156.634,1231.445,1144.735,1234.208Z" transform="translate(-1144.588 -1232.209)" fill="#db7d00"/></g><g transform="translate(65.384 8.03)"><path d="M1266.71,1083.369l-.354-.542c.064-.042,6.492-4.344,11.792-15.352l.583.281C1273.347,1078.941,1266.776,1083.326,1266.71,1083.369Z" transform="translate(-1266.356 -1067.475)" fill="#db7d00"/></g><g transform="translate(53.995 33.545)"><path d="M1233.628,1158.966l-.421-.492c.058-.05,5.881-5.141,9.724-16.738l.615.2C1239.641,1153.722,1233.687,1158.915,1233.628,1158.966Z" transform="translate(-1233.207 -1141.736)" fill="#db7d00"/></g><g transform="translate(63.273 26.068)"><path d="M1260.41,1132.294l-.2-.616c.073-.023,7.408-2.48,15.42-11.7l.489.425C1267.979,1129.77,1260.485,1132.27,1260.41,1132.294Z" transform="translate(-1260.211 -1119.974)" fill="#db7d00"/></g><g transform="translate(47.599 56.679)"><path d="M1215.228,1227.4l-.637-.119c2.275-12.2,7.473-18.152,7.525-18.211l.484.43C1222.549,1209.554,1217.467,1215.386,1215.228,1227.4Z" transform="translate(-1214.591 -1209.066)" fill="#db7d00"/></g><g transform="translate(28.196 75.286)"><path d="M1172.345,1276.908c-.036-.068-3.74-6.858-14.226-13.128l.333-.556c10.653,6.37,14.428,13.31,14.465,13.38Z" transform="translate(-1158.119 -1263.224)" fill="#db7d00"/></g><g transform="translate(81.68 16.881)"><path d="M1314.139,1109.15l-.355-.541c.064-.042,6.485-4.355,11.764-15.373l.584.28C1320.769,1104.71,1314.205,1109.107,1314.139,1109.15Z" transform="translate(-1313.784 -1093.236)" fill="#db7d00"/></g><g transform="translate(75.335 44.463)"><path d="M1295.738,1190.718l-.42-.493c.059-.05,5.9-5.126,9.769-16.713l.614.205C1301.765,1185.49,1295.8,1190.667,1295.738,1190.718Z" transform="translate(-1295.318 -1173.512)" fill="#db7d00"/></g><g transform="translate(56.493 6.208)"><path d="M1240.838,1078.18l-.36-.538c.064-.043,6.45-4.409,11.639-15.469l.586.275C1247.431,1073.686,1240.9,1078.136,1240.838,1078.18Z" transform="translate(-1240.478 -1062.173)" fill="#db7d00"/></g><g transform="translate(96.726 87.715)"><path d="M1375.273,1307.876c-.056-.053-5.75-5.289-17.7-7.847l.135-.634c12.137,2.6,17.947,7.955,18,8.008Z" transform="translate(-1357.576 -1299.396)" fill="#db7d00"/></g><g transform="translate(89.335 62.872)"><path d="M1337.129,1246.792l-.616-.2c.024-.073,2.331-7.457-.449-19.353l.63-.147C1339.519,1239.18,1337.153,1246.718,1337.129,1246.792Z" transform="translate(-1336.064 -1227.093)" fill="#db7d00"/></g><g transform="translate(86.69 74.1)"><path d="M1345.6,1269.209c-.054-.055-5.45-5.6-17.236-8.813l.17-.624c11.975,3.267,17.479,8.934,17.534,8.991Z" transform="translate(-1328.367 -1259.771)" fill="#db7d00"/></g><g transform="translate(85.254 38.465)"><path d="M1324.7,1174.883l-.517-.39c.046-.061,4.64-6.285,5.9-18.437l.644.067C1329.45,1168.469,1324.751,1174.82,1324.7,1174.883Z" transform="translate(-1324.187 -1156.056)" fill="#db7d00"/></g><g transform="translate(55.686 52.207)"><path d="M1238.566,1206.515l-.436-.478c9.177-8.359,16.911-9.969,16.988-9.985l.126.635C1255.169,1196.7,1247.6,1198.288,1238.566,1206.515Z" transform="translate(-1238.13 -1196.052)" fill="#db7d00"/></g><g transform="translate(78.135 32.59)"><path d="M1303.732,1152.893l-.266-.59c.07-.031,7.086-3.288,14.023-13.345l.533.368C1310.974,1149.543,1303.8,1152.86,1303.732,1152.893Z" transform="translate(-1303.466 -1138.958)" fill="#db7d00"/></g><g transform="translate(94.174 89.578)"><path d="M1360.938,1321.354c-.02-.074-2.046-7.539-10.789-16.073l.452-.463c8.884,8.67,10.944,16.3,10.964,16.373Z" transform="translate(-1350.149 -1304.818)" fill="#db7d00"/></g><g transform="translate(91.854 42.537)"><path d="M1343.822,1185.254l-.427-.487c.058-.051,5.817-5.215,9.513-16.86l.617.2C1349.77,1179.935,1343.881,1185.2,1343.822,1185.254Z" transform="translate(-1343.395 -1167.907)" fill="#db7d00"/></g><g transform="translate(93.066 56.634)"><path d="M1354.3,1227.2c0-.077-.507-7.8-7.379-17.9l.535-.365c6.983,10.263,7.486,18.147,7.49,18.225Z" transform="translate(-1346.924 -1208.936)" fill="#db7d00"/></g><g transform="translate(64.302 62.717)"><path d="M1282.015,1231.869c-.065-.041-6.6-4.183-18.809-4.581l.022-.647c12.405.4,19.073,4.642,19.139,4.684Z" transform="translate(-1263.206 -1226.642)" fill="#db7d00"/></g><g transform="translate(71.913 73.056)"><path d="M1304.172,1261.941c-.065-.042-6.6-4.177-18.813-4.564l.02-.647c12.407.392,19.078,4.625,19.144,4.667Z" transform="translate(-1285.359 -1256.731)" fill="#db7d00"/></g><g transform="translate(80.545 92.036)"><path d="M1329.786,1314.991c-.07-.033-7.084-3.3-19.243-2.11l-.062-.645c12.358-1.2,19.514,2.137,19.584,2.171Z" transform="translate(-1310.481 -1311.974)" fill="#db7d00"/></g><g transform="translate(87.999 102.114)"><path d="M1347.717,1353.437c-.043-.064-4.448-6.422-15.54-11.543l.271-.589c11.27,5.2,15.76,11.7,15.8,11.768Z" transform="translate(-1332.177 -1341.306)" fill="#db7d00"/></g><g transform="translate(17.321 107.254)"><path d="M1144.839,1363.017c-.061-.047-6.233-4.71-18.369-6.109l.074-.643c12.332,1.42,18.628,6.191,18.691,6.239Z" transform="translate(-1126.47 -1356.266)" fill="#db7d00"/></g><g transform="translate(40.563 101.588)"><path d="M1195.023,1359.478l-.614-.2c.024-.073,2.39-7.438-.3-19.356l.631-.143C1197.473,1351.885,1195.048,1359.4,1195.023,1359.478Z" transform="translate(-1194.113 -1339.775)" fill="#db7d00"/></g><g transform="translate(24.678 95.068)"><path d="M1162.982,1333.488c-.041-.065-4.207-6.583-15.1-12.112l.293-.577c11.07,5.618,15.316,12.28,15.358,12.346Z" transform="translate(-1147.881 -1320.799)" fill="#db7d00"/></g><g transform="translate(50.434 106.045)"><path d="M1234.179,1368.916c-.022-.074-2.305-7.465-11.337-15.692l.436-.478c9.177,8.358,11.5,15.91,11.521,15.985Z" transform="translate(-1222.842 -1352.746)" fill="#db7d00"/></g><g transform="translate(75.515 111.164)"><path d="M1309.308,1382.088c-.032-.07-3.35-7.057-13.467-13.907l.364-.536c10.279,6.958,13.658,14.1,13.691,14.172Z" transform="translate(-1295.841 -1367.645)" fill="#db7d00"/></g><g transform="translate(45.154 101.136)"><path d="M1212.189,1357.728l-.642-.08c.01-.077.891-7.762-4.072-18.925l.591-.263C1213.108,1349.8,1212.2,1357.651,1212.189,1357.728Z" transform="translate(-1207.475 -1338.46)" fill="#db7d00"/></g><g transform="translate(60.163 104.728)"><path d="M1260.08,1366.5c-.011-.076-1.189-7.722-8.921-17.18l.5-.409c7.856,9.61,9.05,17.42,9.06,17.5Z" transform="translate(-1251.159 -1348.912)" fill="#db7d00"/></g><g transform="translate(35.154 86.208)"><path d="M1191.549,1309.72c-.031-.07-3.2-7.125-13.177-14.18l.374-.529c10.133,7.169,13.365,14.378,13.4,14.45Z" transform="translate(-1178.372 -1295.011)" fill="#db7d00"/></g><g transform="translate(70.229 99.521)"><path d="M1296.64,1344.98c-.047-.061-4.813-6.154-16.184-10.621l.237-.6c11.553,4.539,16.414,10.767,16.462,10.83Z" transform="translate(-1280.456 -1333.757)" fill="#db7d00"/></g><g transform="translate(54.952 90.232)"><path d="M1242.864,1325.389l-.648-.006c0-.077-.009-7.812-6.224-18.331l.558-.329C1242.864,1317.41,1242.864,1325.311,1242.864,1325.389Z" transform="translate(-1235.992 -1306.723)" fill="#db7d00"/></g><g transform="translate(65.832 85.284)"><path d="M1284.568,1302.367c-.051-.057-5.244-5.79-16.908-9.427l.193-.618c11.85,3.695,17.147,9.556,17.2,9.615Z" transform="translate(-1267.66 -1292.323)" fill="#db7d00"/></g><g transform="translate(46.543 86.807)"><path d="M1230.539,1301.075c-.066-.038-6.779-3.86-19.009-3.664l-.01-.648c12.4-.2,19.276,3.713,19.344,3.753Z" transform="translate(-1211.52 -1296.756)" fill="#db7d00"/></g><g transform="translate(53.64 72.424)"><path d="M1232.648,1266.657l-.473-.442c8.472-9.072,16.052-11.3,16.127-11.322l.177.623C1248.405,1255.537,1240.986,1257.728,1232.648,1266.657Z" transform="translate(-1232.175 -1254.893)" fill="#db7d00"/></g></g></g><g transform="translate(1090.984 664.791)"><path d="M1500.338,1346.654l-1.3,12.14h-12.787s-1.427-7.928,5.827-5.341l2.212-8.579Z" transform="translate(-1368.772 -1111.207)" fill="#ca5c47"/><path d="M1655.664,1347.518l.782,11.843h-9.226s-1.672-5.989,2.266-5.341l.135-8.282Z" transform="translate(-1474.274 -1111.774)" fill="#ca5c47"/><g transform="translate(97 88.586)"><path d="M1478.365,939.507c3.561,0,27.047-16.889,27.047-16.889,6.367,9.5-8.466,27.1-25.25,29.567-5.756.846-15.051-3.059-20.56-8.388l5.341-10.622A89.931,89.931,0,0,0,1478.365,939.507Z" transform="translate(-1448.35 -922.618)" fill="#eb5654"/><path d="M1427.049,922.618c3.759,2.871,10.469,7.028,16.4,10.557l-5.341,10.622C1430.963,936.887,1425.769,927.492,1427.049,922.618Z" transform="translate(-1426.854 -922.618)" fill="#f79885"/></g><path d="M1561.038,939.477l-12.574,20.516a31.069,31.069,0,0,0,7.6-5.13Z" transform="translate(-1409.681 -845.099)" fill="#c93b38"/><g transform="translate(141.791 88.581)"><path d="M1634.978,946.462c-2.266,3.315-12.392,18.867-10.463,28.281a12.669,12.669,0,0,0,7.99,9.712c3.7-8.287,10.515-24.487,11.214-33.24C1643.718,951.214,1640.132,949.052,1634.978,946.462Z" transform="translate(-1601.233 -938.266)" fill="#eb5654"/><path d="M1594.7,926.789c-4.494,5.892-7.407,16.484-7.407,16.484l11.434,5.387c2.6-5.555,7.86-13.338,9.815-16.173A107.4,107.4,0,0,0,1594.7,926.789Z" transform="translate(-1576.959 -925.352)" fill="#eb5654"/><path d="M1557.217,952.958c4-4.83,10.229-22.1,15.4-29.6-1.062-.3-2.111-.544-3.121-.751C1569.493,922.606,1563.834,933.7,1557.217,952.958Z" transform="translate(-1557.217 -922.606)" fill="#eb5654"/></g><path d="M1509.846,1069.125l6.591,1.191s12.84-12.759,20.079-83.331c0,0,15.578,56.993,22.052,83.331h7.769s11.654-15.983-10.359-96.914l1.411-3.173a12.669,12.669,0,0,1-7.99-9.712c-1.929-9.414,8.2-24.966,10.463-28.281-.686-.35-1.411-.7-2.163-1.062-1.955,2.836-7.213,10.618-9.815,16.173l-11.434-5.387s2.913-10.592,7.407-16.484c-.79-.246-1.567-.479-2.344-.686-5.167,7.5-11.395,24.771-15.4,29.6C1516.691,981.793,1509.6,1017.148,1509.846,1069.125Z" transform="translate(-1384.327 -835.459)" fill="#265173"/><path d="M1460.3,947.863l-3.463-1.616a1.663,1.663,0,0,0-2.172.726L1449.7,956.3a1.663,1.663,0,0,0,.246,1.909l2.782,3.014a1.663,1.663,0,0,0,2.694-.353l5.644-10.724A1.663,1.663,0,0,0,1460.3,947.863Z" transform="translate(-1344.725 -849.44)" fill="#c93b38"/><path d="M1689.51,1128.767s-2.08-8.217-4.958-18.817l9.882-1.656C1694.359,1115.9,1692.96,1123.045,1689.51,1128.767Z" transform="translate(-1499.011 -955.913)" fill="#f79885"/><path d="M1656.1,979.809s-1.1,2.508.451,18.622a37.619,37.619,0,0,0,3.611-9.311Z" transform="translate(-1480.088 -871.573)" fill="#c93b38"/><path d="M1664.763,957.66c5.219,7.132,11.361,29.192,11.147,50.846l-9.882,1.656s-4.231-19.9-7.684-33.349C1653.556,958.169,1657.965,953.559,1664.763,957.66Z" transform="translate(-1480.487 -856.125)" fill="#eb5654"/><path d="M1581.572,1083.277l-3.087-11.792,1.543,25.054Z" transform="translate(-1429.387 -931.751)" fill="#22365b"/><path d="M1654.97,1326.18l-11.227,1.064a1.677,1.677,0,0,0-1.489,1.987l1.008,5.244a1.677,1.677,0,0,0,1.647,1.36h8.771a1.677,1.677,0,0,0,1.635-1.3l1.448-6.307A1.677,1.677,0,0,0,1654.97,1326.18Z" transform="translate(-1471.226 -1098.932)" fill="#22365b"/><path d="M1517.425,1324.349l-9.494-2.318a1.677,1.677,0,0,0-2.073,1.54l-.325,6.05a1.678,1.678,0,0,0,1.3,1.726l6.528,1.476a1.677,1.677,0,0,0,1.788-.74l3.291-5.208A1.677,1.677,0,0,0,1517.425,1324.349Z" transform="translate(-1381.499 -1096.181)" fill="#22365b"/><path d="M1415.8,919.83a35.8,35.8,0,0,0-5.813-4.285c-1.094-.449-4.565,3.685-4.209,4.5a12.6,12.6,0,0,0,4.032,3.676C1412.023,924.312,1415.8,919.83,1415.8,919.83Z" transform="translate(-1316 -829.367)" fill="#f79885"/><g transform="translate(40.325 41.146)"><g transform="translate(33.922 31.685)"><path d="M1486.929,987.822a1.289,1.289,0,0,1-.848-.317l-125-108.467a1.295,1.295,0,1,1,1.7-1.956l125,108.468a1.295,1.295,0,0,1-.849,2.272Z" transform="translate(-1360.633 -876.765)" fill="#ca5c47"/></g><g transform="translate(26.639 25.295)"><rect width="2.59" height="10.234" transform="translate(0 1.956) rotate(-49.052)" fill="#7fb8db"/></g><path d="M1261.9,804.147l2.939,2.566,1.551,1.17,1.618,1.07a30.272,30.272,0,0,0,6.931,3.325,19.274,19.274,0,0,0,7.464,1.04,11.29,11.29,0,0,0,3.585-.825,7.8,7.8,0,0,0,4.577-5.275,11.248,11.248,0,0,0,.309-3.665,19.256,19.256,0,0,0-2.081-7.242,30.214,30.214,0,0,0-4.268-6.393l-1.286-1.451-1.377-1.371-2.953-2.549c1.061.751,2.146,1.487,3.18,2.291l1.493,1.28,1.414,1.373a30.684,30.684,0,0,1,4.683,6.363,19.114,19.114,0,0,1,2.419,7.609,12.118,12.118,0,0,1-.31,4.082,8.818,8.818,0,0,1-5.3,6.11,12.072,12.072,0,0,1-4,.882,19.1,19.1,0,0,1-7.873-1.323,30.632,30.632,0,0,1-6.959-3.739l-1.559-1.206-1.478-1.3C1263.678,806.062,1262.8,805.091,1261.9,804.147Z" transform="translate(-1261.903 -784.547)" fill="#7fb8db"/><path d="M1313.094,819.684c-2.529-3.144-5.292-6.165-8.105-9.105q-4.248-4.4-8.765-8.539,4.728,3.894,9.219,8.077c2.983,2.805,5.894,5.665,8.65,8.744Z" transform="translate(-1284.432 -796.03)" fill="#7fb8db"/><path d="M1296.253,839.422c-3.436-2.295-6.677-4.774-9.875-7.332q-4.772-3.856-9.3-7.989,4.733,3.886,9.689,7.474c3.307,2.371,6.687,4.681,10.157,6.741Z" transform="translate(-1271.867 -810.511)" fill="#7fb8db"/></g><path d="M1689.126,1151.679c-1.666-1.045-2.556.345-3.865-1.05-2.574-.232-5.082,2.827-4.84,4.5.225,1.552,4.939,4.183,5.881,4.5S1689.126,1151.679,1689.126,1151.679Z" transform="translate(-1496.289 -983.694)" fill="#f79885"/><path d="M1411.626,917.269s-2.837.6-2.761,2.069a3.389,3.389,0,0,0-2.354,1.55,10.031,10.031,0,0,0,4,4.011s2.778-1.483-.246-4.432l1.589.077a1.372,1.372,0,0,0,.956,1.821c1.475.592,1.557-2.444,1.557-2.444Z" transform="translate(-1316.501 -830.521)" fill="#f79885"/><path d="M1607.5,896.061c5.093,3.257,10.441-1.249,12.829-3.9-.012-4.636,1.523-22.862,1.226-23.772-.486-1.49-10.152-2.794-10.979-1.851s-3.861,13.417-3.522,16.521c1.112.75,4.14,1.1,4.14,1.1l-1.9,4.376S1605.074,894.507,1607.5,896.061Z" transform="translate(-1447.941 -797.011)" fill="#f79885"/><path d="M1617.915,918.073a12.257,12.257,0,0,0,4.786-.2s-2.57,2.685-5.718,2.348Z" transform="translate(-1454.657 -830.92)" fill="#f0786a"/><path d="M1605.378,880.669s5.469,4.146,9.055-3.21a10.351,10.351,0,0,1-8.119-3.732l8.9,2.2c1.109-2.048,1.072-1.222.736.182l4.56,1.128c2.122,1.127-1.873,6.46-2.39,12.2,0,0-2.64-4.965-2.726-7.312,0,0,2.875-.091,2.411-2.034s-2.9-.348-2.9-.348-1.7,7.854-4.4,9.5-6.968.886-7.615-.992S1604.1,881.975,1605.378,880.669Z" transform="translate(-1445.316 -801.94)" fill="#9c2622"/><g transform="translate(157.634 63.052)"><path d="M1616.849,859.195a11.936,11.936,0,0,1,2.694-3.146c3.951,5,10.091,6.484,12.768,6.788-.228,1.563-.521,2.9-.521,2.9C1623.858,865.511,1616.849,859.195,1616.849,859.195Z" transform="translate(-1612.203 -853.387)" fill="#22365b"/><path d="M1624.689,850.964c1.362-1.109,1.24-2.442,2.5-2.647,1.791-.291,10.057,3.68,10.923,5.068.463.742-.4,2.567-.657,4.366C1634.78,857.447,1628.64,855.964,1624.689,850.964Z" transform="translate(-1617.349 -848.302)" fill="#265173"/><path d="M1607.973,865.2s7.009,6.317,14.941,6.538a26.78,26.78,0,0,1,3,4.715c.313.984-6.422.239-13.056-2.587-5.748-2.449-10.163-6.949-9.459-7.275A13.96,13.96,0,0,0,1607.973,865.2Z" transform="translate(-1603.328 -859.397)" fill="#265173"/></g><g transform="translate(0)"><path d="M1205.933,752.711q-1.33-.554-2.541-1.2c1.35-.181,2.7-.388,4.045-.613q-.532-.51-1.015-1.048l1.892-.752q-.295-.5-.557-1.015-1.1-.64-2.1-1.36,1.717-.157,3.421-.345-.768-.613-1.464-1.278-.322-.584-.6-1.19,1.39-.139,2.762-.283-.115-.524-.205-1.059-.784-.748-1.492-1.557-.163-.615-.3-1.245.746-.266,1.481-.521.588-.313,1.168-.615c.891.029,1.775.063,2.65.1q-.236-.626-.437-1.276-.942-1.029-1.8-2.137,1.175.065,2.327.156-.62-.958-1.182-1.969,1.257.189,2.487.413.187-.481.384-.965.378-.351.757-.694.262-.435.531-.869.828.039,1.637.114-.44-1.049-.842-2.141.814.066,1.607.171-.37-1.089-.709-2.215.161-.594.334-1.2.888.2,1.752.455.569-.1,1.133-.175.157-.61.324-1.23.63.015,1.249.064-.149-1.1-.286-2.231,1.166.834,2.265,1.792.094-.783.2-1.584.794.427,1.556.923,0-1.048,0-2.12.131-.82.27-1.657.192-.736.391-1.484.293-.558.592-1.122a34.039,34.039,0,0,1,2.5,3.456q.111-1.047.224-2.115.71.532,1.392,1.136-.19-2.1-.442-4.188.506.009,1.01.04a24.345,24.345,0,0,1,2.037,1.92q.5-.347,1.005-.689a48.366,48.366,0,0,0-1.994-4.813q.2-.468.4-.941,1.117.16,2.226.429-.065-.849-.146-1.693-.54-.949-1.116-1.839.239-.563.477-1.132.407-.656.815-1.319-.491-.719-1.005-1.4-.141-.7-.3-1.4.789-.905,1.585-1.814.441-.91.875-1.83-.4-.736-.827-1.445a34.76,34.76,0,0,0-3.992.077q1.442-1.546,2.9-3.082-.909-.4-1.833-.732.113-.984.2-1.971-1.942.53-3.845,1.208-.27-.641-.561-1.27.146-1.133.254-2.269.061-1.223.069-2.446-1.7,1.044-3.363,2.153-.57-.348-1.156-.674-.79.066-1.579.156c.163-1.455.271-2.912.315-4.37q-1.232,1.236-2.443,2.482a36.369,36.369,0,0,0-.669-3.641q-1.016,1.3-2.024,2.591-.763.306-1.519.624-.719.409-1.43.825a27.472,27.472,0,0,0-1.8-3.84q-.881-.092-1.779-.155-.386,1.349-.813,2.682-.8-.04-1.607-.059-.19.808-.4,1.61-1.028-.234-2.1-.425-.8.178-1.609.369.518.9.948,1.82-2.177-.467-4.53-.737a21.516,21.516,0,0,1,1.6,1.631q-1.49.183-2.989.413a28.049,28.049,0,0,1,3.055,1.5q-.915.346-1.817.694,1.119.464,2.157,1-1.6.423-3.177.866.456.486.873.995-.189.473-.385.944-.126.476-.26.95-.007.489-.029.982.354.548.672,1.117l-2.465.572q-.9.326-1.779.637.732.609,1.406,1.265,1,.747,1.911,1.564c-1.42-.067-2.833-.123-4.233-.183q1.267.855,2.434,1.805-.536.361-1.067.711.506.746.969,1.528-.691.287-1.373.56-.9.161-1.778.3-.463.335-.922.66-.289.413-.581.824-.462.311-.922.611.126.666.229,1.35-.47.3-.937.592-.782.054-1.547.078.709,1.189,1.374,2.428-.615.176-1.224.334-.005.7-.026,1.416-1.2-.417-2.355-.906-.025.692-.065,1.4.308,1.117.6,2.262-.793-.1-1.568-.238-.833-.231-1.643-.514-.1.715-.2,1.444.266,1.3.526,2.622-1.1-.678-2.151-1.455-.117.786-.243,1.588-.753-.3-1.484-.645-.217.655-.444,1.32.052,1.255.108,2.532-.428.321-.859.636-.709-.292-1.4-.635-.168.933-.337,1.881-.671-.269-1.328-.585l-.6,1.357q-.412.386-.829.768-.954-1.258-1.826-2.666c0,1.314.015,2.635.051,3.957q-.375.2-.751.395a34.064,34.064,0,0,1-2.477-3.782q-.122,1.192-.229,2.4.32,1.634.707,3.214a22.935,22.935,0,0,1-2.1-1.087q-.006.93,0,1.859-1.029-.029-2.062-.136.037,1.013.1,2.02-.642.589-1.293,1.18a28.878,28.878,0,0,0,3,2.667q-.768.7-1.546,1.4.423.821.871,1.607.3.754.617,1.487,1.077.255,2.16.424-.381,1.135-.742,2.284-.318,1.183-.607,2.38,1.037.146,2.075.225.229.789.484,1.565.291.762.609,1.508,1.229-.262,2.443-.588.428.576.877,1.132.02,1.148.09,2.294.638.373,1.292.717.547.512,1.117,1,.891-.074,1.78-.179,1.179-.712,2.337-1.453-.115,1.818-.1,3.635,1.266-1.106,2.506-2.23.642.287,1.3.55.529.679,1.105,1.333.853-.267,1.7-.554a29.279,29.279,0,0,0,1.142,2.811q.8-.754,1.579-1.509.931.516,1.924.984.388-.976.789-1.942l.853-1.026a32.923,32.923,0,0,0,3.195,1.438,25.581,25.581,0,0,1-.976-2.4,40.193,40.193,0,0,0,4.366,1.141l.809-1.095a24.2,24.2,0,0,1-2.642-2.081q.931-.228,1.857-.47-.076-.5-.134-1.005Q1204.531,753.079,1205.933,752.711Z" transform="translate(-1159.275 -677.231)" fill="#ffb157"/><g transform="translate(7.448 49.205)"><path d="M1181.45,820.521c-.042-.065-4.281-6.535-15.237-11.94l.286-.581c11.132,5.492,15.454,12.105,15.5,12.172Z" transform="translate(-1166.213 -808)" fill="#db7d00"/></g><g transform="translate(17.727 65.406)"><path d="M1196.532,871.992l-.4-.509c.061-.047,6.086-4.9,10.4-16.331l.606.228C1202.754,867,1196.594,871.944,1196.532,871.992Z" transform="translate(-1196.131 -855.153)" fill="#db7d00"/></g><g transform="translate(0 62.969)"><path d="M1162.9,854.819c-.061-.047-6.231-4.712-18.368-6.114l.074-.643c12.332,1.424,18.627,6.2,18.69,6.245Z" transform="translate(-1144.537 -848.062)" fill="#db7d00"/></g><g transform="translate(41.003 35.097)"><path d="M1278.74,779.912c-.039-.066-4.079-6.663-14.864-12.4l.3-.572c10.959,5.83,15.076,12.573,15.116,12.64Z" transform="translate(-1263.876 -766.939)" fill="#db7d00"/></g><g transform="translate(28.878 27.184)"><path d="M1242.172,758.24c-.033-.07-3.41-7.029-13.585-13.791l.358-.539c10.338,6.87,13.778,13.982,13.812,14.053Z" transform="translate(-1228.587 -743.91)" fill="#db7d00"/></g><g transform="translate(28.34 67.63)"><path d="M1230.991,881.042l-.639-.105c.012-.076,1.192-7.721-3.332-19.07l.6-.239C1232.219,873.158,1231,880.965,1230.991,881.042Z" transform="translate(-1227.021 -861.628)" fill="#db7d00"/></g><g transform="translate(18.634 44.957)"><path d="M1207.328,813.4c-.009-.077-1.026-7.745-8.557-17.365l.511-.4c7.652,9.774,8.68,17.607,8.69,17.685Z" transform="translate(-1198.771 -795.639)" fill="#db7d00"/></g><g transform="translate(30.087 17.397)"><path d="M1243.7,731.408c-.023-.074-2.43-7.425-11.6-15.5l.428-.486c9.317,8.2,11.765,15.714,11.788,15.789Z" transform="translate(-1232.104 -715.424)" fill="#db7d00"/></g><g transform="translate(57.092 0.049)"><path d="M1311.3,684.613l-.6-.244c.029-.071,2.873-7.265.975-19.334l.639-.1C1314.245,677.2,1311.332,684.54,1311.3,684.613Z" transform="translate(-1310.702 -664.934)" fill="#db7d00"/></g><g transform="translate(54.608 20.536)"><path d="M1306.056,744.166l-.629-.151c.018-.075,1.743-7.615-1.954-19.26l.617-.2C1307.846,736.391,1306.074,744.09,1306.056,744.166Z" transform="translate(-1303.472 -724.56)" fill="#db7d00"/></g><g transform="translate(16.839 43.918)"><path d="M1212.949,795.093c-.071-.031-7.215-3-19.313-1.317l-.089-.641c12.3-1.71,19.585,1.333,19.657,1.363Z" transform="translate(-1193.547 -792.613)" fill="#db7d00"/></g><g transform="translate(33.563 16.728)"><path d="M1260.225,721.23c-.059-.05-5.963-5.047-18-7.113l.11-.639c12.234,2.1,18.258,7.21,18.317,7.262Z" transform="translate(-1242.221 -713.479)" fill="#db7d00"/></g><g transform="translate(51.053 48.357)"><path d="M1293.669,824.687l-.543-.354c.042-.064,4.195-6.59,4.615-18.8l.646.023C1297.962,817.961,1293.712,824.621,1293.669,824.687Z" transform="translate(-1293.126 -805.533)" fill="#db7d00"/></g><g transform="translate(38.172 67.361)"><path d="M1256.034,877.6l-.4-.511c.061-.047,6.125-4.85,10.525-16.247l.6.233C1262.3,872.658,1256.1,877.556,1256.034,877.6Z" transform="translate(-1255.637 -860.845)" fill="#db7d00"/></g><g transform="translate(47.466)"><path d="M1290.568,682.851c-.007-.077-.727-7.778-7.881-17.681l.525-.379c7.269,10.062,8,17.928,8,18.007Z" transform="translate(-1282.687 -664.791)" fill="#db7d00"/></g><g transform="translate(39.979 55.552)"><path d="M1261.459,845.876l-.564-.316c.037-.067,3.747-6.855,3.352-19.066l.647-.02C1265.3,838.88,1261.5,845.808,1261.459,845.876Z" transform="translate(-1260.895 -826.474)" fill="#db7d00"/></g><g transform="translate(62.372 30.435)"><path d="M1326.519,764.25l-.448-.467c8.962-8.589,16.654-10.393,16.731-10.41l.142.631C1342.868,754.021,1335.34,755.8,1326.519,764.25Z" transform="translate(-1326.071 -753.373)" fill="#db7d00"/></g><g transform="translate(36.006 35.532)"><path d="M1251.569,787.843l-.627-.162c.02-.075,1.88-7.583-1.61-19.291l.62-.185C1253.5,780.1,1251.589,787.767,1251.569,787.843Z" transform="translate(-1249.332 -768.205)" fill="#db7d00"/></g><g transform="translate(57.795 6.663)"><path d="M1312.851,694.014l-.1-.64c.076-.012,7.7-1.309,17.038-9.189l.418.495C1320.719,692.686,1312.929,694,1312.851,694.014Z" transform="translate(-1312.749 -684.185)" fill="#db7d00"/></g><g transform="translate(32.854 59.275)"><path d="M1259.371,840.773c-.068-.035-6.98-3.507-19.17-2.691l-.043-.646c12.388-.829,19.44,2.726,19.51,2.762Z" transform="translate(-1240.158 -837.311)" fill="#db7d00"/></g><g transform="translate(65.955 18.468)"><path d="M1336.734,731.777l-.237-.6c.071-.028,7.241-2.933,14.667-12.633l.514.393C1344.133,728.791,1336.807,731.748,1336.734,731.777Z" transform="translate(-1336.497 -718.541)" fill="#db7d00"/></g><g transform="translate(59.159 18.307)"><path d="M1317.06,725.331l-.341-.55c10.551-6.538,18.45-6.706,18.528-6.707l.008.648C1335.178,718.722,1327.444,718.9,1317.06,725.331Z" transform="translate(-1316.719 -718.074)" fill="#db7d00"/></g><g transform="translate(38.488 7.955)"><path d="M1271.491,700.834c-.04-.066-4.116-6.64-14.934-12.318l.3-.573c10.991,5.768,15.146,12.488,15.187,12.555Z" transform="translate(-1256.557 -687.943)" fill="#db7d00"/></g><g transform="translate(31.619 51.295)"><path d="M1256.01,816.264c-.072-.029-7.292-2.811-19.341-.81l-.106-.639c12.242-2.032,19.613.818,19.686.847Z" transform="translate(-1236.563 -814.085)" fill="#db7d00"/></g><g transform="translate(58.494 42.687)"><path d="M1315.07,794.484l-.286-.581c11.143-5.465,19.017-4.856,19.1-4.845l-.056.645C1333.748,789.7,1326.04,789.1,1315.07,794.484Z" transform="translate(-1314.784 -789.032)" fill="#db7d00"/></g><g transform="translate(49.732 54.394)"><path d="M1308.686,825.57c-.07-.029-7.215-2.99-19.316-1.292l-.09-.64c12.294-1.729,19.587,1.306,19.66,1.337Z" transform="translate(-1289.28 -823.105)" fill="#db7d00"/></g><g transform="translate(45.443 25.258)"><path d="M1290.023,752.969c-.031-.07-3.229-7.114-13.226-14.135l.372-.53c10.158,7.134,13.415,14.331,13.447,14.4Z" transform="translate(-1276.797 -738.304)" fill="#db7d00"/></g><g transform="translate(68.284 26.047)"><path d="M1343.908,758.7l-.632-.138c2.658-12.125,8.04-17.909,8.094-17.966l.47.446C1351.787,741.1,1346.525,746.77,1343.908,758.7Z" transform="translate(-1343.276 -740.599)" fill="#db7d00"/></g></g><path d="M1615.179,933.316s-7.755,4.011-10.884,3.579c0,0-1.236-.421.191-7.98,0,0-5.268,6.245-5.587,10.2l4.424-.8,1.789,3.608S1610.417,941.283,1615.179,933.316Z" transform="translate(-1442.787 -838.166)" fill="#c93b38"/><path d="M1690.788,1096.928l-10.341,1.291a1.663,1.663,0,0,0-1.448,1.823l.523,5.009a1.663,1.663,0,0,0,1.954,1.463l9.818-1.8a1.663,1.663,0,0,0,1.363-1.636v-4.5A1.663,1.663,0,0,0,1690.788,1096.928Z" transform="translate(-1495.36 -948.444)" fill="#c93b38"/></g></g><g transform="translate(9103.026 -10058.271)"><path d="M2310.875,644.057c7.929-.12,11.685,4.155,21.912,4.091,21.893-.138,48.258-1.474,52.358-1.446,9.994.068,14.67,2.015,26.066,1.939,11.238-.074,45.567,0,51.218,0,4.629,0,16.768,1.117,28.024,1.7s24.011-2.883,29.286-3.578c6.1-.8,15.838.658,22.81.661s15.649-4.922,21.917-5.649,17.311.139,15.257-1.449c.251-5.01-36-4.694-53.825-4.1-6.025.2-12.017.633-18.073.5-11.32-.252-14.414-3.076-25.767-2.933-10.027.126-25.08,2.693-35.1,2.853-8.631.139-16.51-1.053-24.747-1.684-11.511-.882-23-2.513-33.787-1.169-15.412,1.919-23.113-5.795-30.292-5.661-6.577.123-12.342,5.178-18.9,5.014-6.522-.164-21.8-4.041-28.355-4.1-7.9-.072-10.828,7.409-18.463,7.9-12.452.794-15.116-.01-27.671.685-8.756.485-12.742.584-17.614,2.5-3.986,1.566-5.561,2.024-.441,3.3,3.481.864,19,2.554,23.514,3.039C2280.052,647.515,2300.191,644.057,2310.875,644.057Z" transform="translate(0 -260.519)" fill="#ca5c47"/><g transform="translate(2266.115 166.77)"><g transform="translate(170.235 177.374)"><path d="M2662.621,612.211c4.051-2.544,13.976.539,16.52,3.159-1.7-3.158-2.409-7.068-.939-10.339s5.563-5.42,8.839-3.964,4.028,6.9.89,8.636a8.439,8.439,0,0,1,15.391-1.322,8.344,8.344,0,0,1-4.065-8.611,7.138,7.138,0,0,1,7.4-5.592c3.371.374,6.1,3.973,5.3,7.268a7.583,7.583,0,0,1,15.075-1.609q.094-2.718.188-5.437a6.125,6.125,0,0,1,10.344,5.747c.252-4.395,1.583-8.935,4.752-11.99s8.469-4.135,12.074-1.61,3.947,8.9.129,11.089a6.17,6.17,0,0,1,8.7.412c2.32,2.766,1.24,6.806-1.273,8.907,3.4-1.063,7.662-4.13,10.475.087a5.664,5.664,0,0,1-3.285,8.25c2.278-1.075,4.756-2.178,7.228-1.694,4.584.9,4.644,6.779.956,8.841a11.287,11.287,0,0,1-6.21.974,41.643,41.643,0,0,1-19.246-6.068,6.647,6.647,0,0,1-12.862-.064,11.828,11.828,0,0,1-21.768.111,9.5,9.5,0,0,1-17.572.387,9.317,9.317,0,0,1-7.593,5.349c-3.211.256-4.63-1.734-7.349-2.567-4.767-1.461-9.925,2.013-14.94,1.737a11.362,11.362,0,0,1-6.593-2.135c-1.825-1.478-2.879-4.088-2-6.266A3.528,3.528,0,0,1,2662.621,612.211Z" transform="translate(-2660.864 -585.142)" fill="#ffb157"/><g transform="translate(28.371 13.885)"><path d="M2751.017,621.989a2.553,2.553,0,0,0-2.026,1.025,3.215,3.215,0,0,0-.378,2.766,6.593,6.593,0,0,0,1.479,2.458,7.142,7.142,0,0,0,4.038,2.541,1.914,1.914,0,0,0,1.616-.332,1.982,1.982,0,0,0,.456-1.63,9.568,9.568,0,0,0-2.054-4.7C2753.41,623.086,2752.407,621.99,2751.017,621.989Z" transform="translate(-2729.017 -615.76)" fill="#db7d00"/><path d="M2828.447,626.14a2.555,2.555,0,0,0-.18-2.263,3.213,3.213,0,0,0-2.417-1.4,6.586,6.586,0,0,0-2.835.437,7.138,7.138,0,0,0-3.882,2.773,1.914,1.914,0,0,0-.3,1.621,1.983,1.983,0,0,0,1.336,1.039,9.575,9.575,0,0,0,5.123-.12C2826.525,627.938,2827.919,627.426,2828.447,626.14Z" transform="translate(-2760.936 -615.971)" fill="#db7d00"/><path d="M2713.13,633.816a2.067,2.067,0,0,0-.061,1.984,1.922,1.922,0,0,0,.962.647,4.977,4.977,0,0,0,5.127-1.175c1.2-1.224,2.5-5.074-.119-5.435C2716.664,629.511,2714.026,631.821,2713.13,633.816Z" transform="translate(-2712.838 -619.31)" fill="#ed9d22"/><path d="M2835.234,637.255a2.067,2.067,0,0,0-.061,1.984,1.923,1.923,0,0,0,.962.647,4.977,4.977,0,0,0,5.127-1.176c1.2-1.223,2.5-5.074-.12-5.435C2838.768,632.949,2836.13,635.259,2835.234,637.255Z" transform="translate(-2768.29 -620.871)" fill="#ed9d22"/><path d="M2792.432,642.9a2.066,2.066,0,0,0,1.96-.308,1.919,1.919,0,0,0,.458-1.065,4.976,4.976,0,0,0-2.105-4.82c-1.424-.948-5.449-1.513-5.318,1.125C2787.545,640.226,2790.3,642.391,2792.432,642.9Z" transform="translate(-2746.709 -622.086)" fill="#ed9d22"/><path d="M2783.441,613.747a1.633,1.633,0,0,0-.048,1.568,1.525,1.525,0,0,0,.76.511,3.934,3.934,0,0,0,4.052-.929c.945-.967,1.973-4.011-.094-4.3C2786.234,610.344,2784.149,612.17,2783.441,613.747Z" transform="translate(-2744.796 -610.578)" fill="#ed9d22"/></g></g><path d="M2567.445,405.99c6.744,15.345,12.733,15.783,12.733,15.783-.913-4.628-1.759-10.613-2.536-17.365Z" transform="translate(-2448.204 -301.11)" fill="#f79885"/><path d="M2559.684,245.461s-15.844-4.034-18.527,10.813a206.065,206.065,0,0,0,1.375,22.212c2.827,21.8,6.4,36.9,9.981,47.356l12.264-2.564C2561.488,289.928,2559.684,245.461,2559.684,245.461Z" transform="translate(-2436.266 -213.927)" fill="#7fb8db"/><path d="M2574.224,388.432,2561.96,391c1,2.931,2.007,5.492,2.994,7.738l10.2-1.581C2574.831,394.363,2574.521,391.445,2574.224,388.432Z" transform="translate(-2445.713 -291.402)" fill="#e1f0fa"/><path d="M2580.635,437.057c-.912-1.212.309-8.232.309-8.232l4.142-1.6,2.559,3.854-.9,7.8Z" transform="translate(-2454.041 -313.366)" fill="#c93b38"/><path d="M2455.419,272.964c8.342,9.561,28.608,4.788,39.7,1.208,11.68-14.224,27.465-29.839,21.324-41.621-2.3-4.406-6.978-2.64-17.393-5.5-8.184,1.421-19.8,6.509-29.874,11.746a133.823,133.823,0,0,0-13.641,8.168C2445.883,258.721,2447.5,263.879,2455.419,272.964Z" transform="translate(-2394.358 -194.144)" fill="#7fb8db"/><path d="M2519.037,242.87s-9.206,5.273-27.648-.455c2.873-1.442,5.819-2.848,8.751-4.138Z" transform="translate(-2413.665 -199.244)" fill="#5aa5d1"/><path d="M2386.01,261.691c9.993-11,25.071-19.434,39.488-25.28-.849.574-25.284,11.873-15.8,20.867,12.01,11.392,53.118-17.01,51.317-25.664-.653-3.138-1.711-3.785-4.826-4.369,0,0,1.86.266,2.935.545,3.474.6,4.335,1.984,4.463,3.874.481,7.072-6.882,11.794-6.882,11.794l11.5,1.594s6.573-6.922,4.772-13.189c0,0,3.54,3.8-2.6,13.489-8.7,11.31-28.264,30.577-32.953,42.663,0,0,6.233,55.554,20.853,113.307h-5.449c-23.937-10.791-48.913-82.2-49.3-98.486-20.7,43.1-39.214,97.813-39.214,97.813l-5.465.673C2349.474,396.077,2349.513,301.857,2386.01,261.691Z" transform="translate(-2351.095 -194.234)" fill="#008eb0"/><path d="M2445.043,385.61a58.973,58.973,0,0,0,1.432,11.558l12.253-36.423C2452.374,370.884,2445.043,385.61,2445.043,385.61Z" transform="translate(-2392.617 -278.203)" fill="#265173"/><g transform="translate(106.14 7.332)"><path d="M2563.933,217.982s6.551-4.47,9.482-10.1c0,0,3.418,6.456,4.859,6.259,2.565-.35,17.619-10.19,14.148-25.863s-18.061-4.96-19.674,2.219c-1.205,5.363-3.373,11.9-11.464,17.821C2560.8,215.985,2563.933,217.982,2563.933,217.982Z" transform="translate(-2551.523 -180.201)" fill="#f79885"/><path d="M2546.412,199.127c-10.38-18.371,8.995-13.794,19.4-7.411-6.362-7.35,16.167-20.373,20.119-2.289,1.945,15.928-8.041,16.375-13.669,3.518a15.837,15.837,0,0,1-1.359,2.453c-.406-1.379-1.24-3.168-2.721-2.21-1.609,1.04-.2,3.437.773,4.767a27.155,27.155,0,0,1-12.534,7.956C2551.2,207.543,2539.109,205.583,2546.412,199.127Z" transform="translate(-2543.444 -180.231)" fill="#9c2622"/></g><g transform="translate(10.214 12.502)"><rect width="3.213" height="283.603" transform="matrix(0.578, -0.816, 0.816, 0.578, 0, 2.623)" fill="#ca5c47"/><g transform="translate(230.81 163.545)"><path d="M2800.155,591.588a1.606,1.606,0,0,1-.927-.3l-8-5.664a1.606,1.606,0,1,1,1.856-2.623l8,5.664a1.607,1.607,0,0,1-.93,2.918Z" transform="translate(-2790.547 -582.71)" fill="#008eb0"/></g><g transform="translate(220.898 161.906)"><rect width="39.711" height="3.339" transform="translate(0 15.072) rotate(-22.306)" fill="#008eb0"/></g><g transform="translate(222.04 163.749)"><g transform="translate(0 13.851)"><path d="M2775.916,608.457a16.033,16.033,0,0,1,1.467,3.646,16.779,16.779,0,0,1,.574,3.845,13.051,13.051,0,0,1-.453,3.842,11.385,11.385,0,0,1-1.618,3.438,14.5,14.5,0,0,0,.883-3.583,13.814,13.814,0,0,0-.046-3.6,18.52,18.52,0,0,0-.827-3.488,20.881,20.881,0,0,0-1.414-3.244Z" transform="translate(-2774.481 -608.457)" fill="#008eb0"/></g><g transform="translate(6.883 11.081)"><path d="M2788.524,603.382a16,16,0,0,1,1.467,3.646,16.78,16.78,0,0,1,.574,3.845,13.041,13.041,0,0,1-.454,3.842,11.369,11.369,0,0,1-1.618,3.438,14.533,14.533,0,0,0,.882-3.583,13.835,13.835,0,0,0-.045-3.6,18.466,18.466,0,0,0-.828-3.488,20.763,20.763,0,0,0-1.414-3.244Z" transform="translate(-2787.09 -603.382)" fill="#008eb0"/></g><g transform="translate(13.766 8.31)"><path d="M2801.134,598.307a16.029,16.029,0,0,1,1.468,3.646,16.761,16.761,0,0,1,.573,3.845,13.026,13.026,0,0,1-.453,3.842,11.367,11.367,0,0,1-1.619,3.438,14.5,14.5,0,0,0,.883-3.583,13.8,13.8,0,0,0-.046-3.6,18.5,18.5,0,0,0-.827-3.488,20.786,20.786,0,0,0-1.414-3.244Z" transform="translate(-2799.7 -598.307)" fill="#008eb0"/></g><g transform="translate(20.65 5.541)"><path d="M2813.745,593.233a16.069,16.069,0,0,1,1.467,3.646,16.779,16.779,0,0,1,.574,3.845,13.051,13.051,0,0,1-.453,3.842,11.379,11.379,0,0,1-1.618,3.438,14.485,14.485,0,0,0,.883-3.583,13.8,13.8,0,0,0-.046-3.6,18.449,18.449,0,0,0-.828-3.488,20.811,20.811,0,0,0-1.413-3.244Z" transform="translate(-2812.31 -593.233)" fill="#008eb0"/></g><g transform="translate(27.532 2.77)"><path d="M2826.354,588.158a16.053,16.053,0,0,1,1.467,3.646,16.784,16.784,0,0,1,.574,3.845,13.069,13.069,0,0,1-.453,3.842,11.386,11.386,0,0,1-1.618,3.438,14.49,14.49,0,0,0,.882-3.583,13.825,13.825,0,0,0-.045-3.6,18.476,18.476,0,0,0-.827-3.488,20.74,20.74,0,0,0-1.414-3.244Z" transform="translate(-2824.919 -588.158)" fill="#008eb0"/></g><g transform="translate(34.416)"><path d="M2838.963,583.083a16.038,16.038,0,0,1,1.467,3.646,16.776,16.776,0,0,1,.574,3.845,13.044,13.044,0,0,1-.454,3.842,11.366,11.366,0,0,1-1.618,3.438,14.5,14.5,0,0,0,.883-3.583,13.808,13.808,0,0,0-.046-3.6,18.5,18.5,0,0,0-.827-3.488,20.786,20.786,0,0,0-1.414-3.244Z" transform="translate(-2837.529 -583.083)" fill="#008eb0"/></g></g></g><path d="M2582.3,431.108s4.8-3.183,7.458,1.989c1.382,2.692,2.1,5.621,1.334,5.955-.6.261-2.562-1.7-4.026-4.611C2584.437,434.112,2582.3,431.108,2582.3,431.108Z" transform="translate(-2454.951 -314.702)" fill="#eb5654"/><path d="M2580.916,443.547c2.869,4.04,7.04,4.442,8.048,3.962,1.419-.67.939-2.664-.476-4.518C2586.109,439.918,2582.67,442.439,2580.916,443.547Z" transform="translate(-2454.322 -320.78)" fill="#eb5654"/><path d="M2392.632,287.766a157.308,157.308,0,0,1,9.508-15.922l-7.786-4.5A95.683,95.683,0,0,0,2392.632,287.766Z" transform="translate(-2368.799 -223.765)" fill="#f79885"/><path d="M2391.612,285.7s.3,6.816-.451,7.651c-2.5,2.782-5.747,4.2-7.123,3.443-3.966-2.191-5.75-4.68-5.219-6.615,1.137-4.146,8.271-6.86,8.271-6.86Z" transform="translate(-2362.501 -232.468)" fill="#eb5654"/><path d="M2471.231,209.735c-7.947-5.166-21.771-7.671-21.771-7.671s-23.533-5.9-31.25-1.14c-10.449,6.446-16.1,17.467-19.148,28.025l10.4,5.371c6.6-9.627,12.781-17.922,12.781-17.922l22.407,4.072c9.186,2.191,18.623,4.823,22.954,5.212C2483.967,227.155,2484.6,218.427,2471.231,209.735Z" transform="translate(-2371.735 -181.438)" fill="#7fb8db"/><path d="M2395.818,261.2l7.786,4.5c1.443-2.188,2.924-4.383,4.387-6.517l-10.4-5.371C2396.862,256.322,2396.278,258.806,2395.818,261.2Z" transform="translate(-2370.263 -215.767)" fill="#e1f0fa"/><path d="M2495.509,584.055l24.564-4.544s1.9,24.845,3.922,29.9c1.088,2.719,8.241,6.164,8.241,6.164v2.538h-23.108A163.051,163.051,0,0,1,2495.509,584.055Z" transform="translate(-2415.536 -405.21)" fill="#ffb157"/><path d="M2349,577.813l22.639,5.33s-5.4,20.7-3.558,25.493a16.159,16.159,0,0,0,4.857,6.164l-.31,2.538h-20.478A286.424,286.424,0,0,1,2349,577.813Z" transform="translate(-2349.002 -404.439)" fill="#ffb157"/><g transform="translate(108.988)"><path d="M2580.121,183.585s8.651-14.782,13.059-16.484,12.463,3.615,13.034,5.495c.934,3.075-1.441,13.83-4.181,21.584C2602.034,194.18,2588.234,188.921,2580.121,183.585Z" transform="translate(-2562.949 -166.77)" fill="#ed9d22"/><path d="M2587.37,184.216l20.139,9.737c.29-1.087.56-2.17.805-3.234l-19.369-8.78C2588.4,182.7,2587.871,183.472,2587.37,184.216Z" transform="translate(-2566.241 -173.659)" fill="#f3e190"/><path d="M2549.582,177.146a186.907,186.907,0,0,0,27.247,16.385,168.638,168.638,0,0,0,29.751,11.15l-.443,1.573a189.353,189.353,0,0,1-29.85-11.611,210.083,210.083,0,0,1-27.623-16.2Z" transform="translate(-2548.663 -171.482)" fill="#ffb157"/></g></g></g></g></g></svg>