<svg xmlns="http://www.w3.org/2000/svg" width="62" height="62" viewBox="0 0 62 62"><g transform="translate(-1 -1)"><path d="M35,63h2V37H63V35H35Z" fill="#a3314f"/><path d="M1,37H27V63h2V35H1Z" fill="#a3314f"/><path d="M27,27H25V15H20.305l.8-8H18A6,6,0,0,0,6,7H2.895l2,20H1v2H29V1H27Zm-4,0H15V17h8ZM12,3A4,4,0,1,1,8,7,4,4,0,0,1,12,3ZM5.105,9H6.35a5.99,5.99,0,0,0,11.3,0H18.9l-.6,6H13V27H6.905Z" fill="#a3314f"/><path d="M61,27V15H53V3H39V27H37V1H35V29H63V27Zm-2,0H49V17H59ZM41,5H51V15H47V27H41Z" fill="#a3314f"/><path d="M12.657,39,3,46.511V49H5V59H23V49h2V46.511L15.343,39ZM17,57H11V53h6Zm4,0H19V51H9v6H7V49H21ZM5.629,47l7.714-6h1.313l7.714,6Z" fill="#a3314f"/><path d="M11,10h2V8h2V6H13V4H11V6H9V8h2Z" fill="#a3314f"/><path d="M17,19h4v2H17Z" fill="#a3314f"/><path d="M17,23h4v2H17Z" fill="#a3314f"/><path d="M9,15h2v2H9Z" fill="#a3314f"/><path d="M9,19h2v2H9Z" fill="#a3314f"/><path d="M9,23h2v2H9Z" fill="#a3314f"/><path d="M56,57h6.5L57.308,44.538a2.5,2.5,0,0,0-4.616,0L51.333,47.8l-3.026-7.262a2.5,2.5,0,0,0-4.615,0L38.5,53H45v8H39v2H63V61H56ZM54.538,45.308a.521.521,0,0,1,.924,0L59.5,55h-9l.833-2H53.5l-1.083-2.6Zm-9-4a.521.521,0,0,1,.924,0L50.5,51h-9ZM47,53h2.167L47.5,57H54v4H47Z" fill="#a3314f"/><path d="M51,19h2v2H51Z" fill="#a3314f"/><path d="M51,23h2v2H51Z" fill="#a3314f"/><path d="M55,19h2v2H55Z" fill="#a3314f"/><path d="M55,23h2v2H55Z" fill="#a3314f"/><path d="M47,7h2V9H47Z" fill="#a3314f"/><path d="M43,7h2V9H43Z" fill="#a3314f"/><path d="M43,11h2v2H43Z" fill="#a3314f"/><path d="M47,11h2v2H47Z" fill="#a3314f"/><path d="M43,23h2v2H43Z" fill="#a3314f"/><path d="M43,19h2v2H43Z" fill="#a3314f"/><path d="M43,15h2v2H43Z" fill="#a3314f"/></g></svg>