<svg xmlns="http://www.w3.org/2000/svg" width="57.867" height="62" viewBox="0 0 57.867 62"><g transform="translate(-16)"><g transform="translate(26.333 35.133)"><path d="M104.267,272a8.267,8.267,0,1,0,8.267,8.267A8.267,8.267,0,0,0,104.267,272Zm0,14.467a6.2,6.2,0,1,1,6.2-6.2A6.2,6.2,0,0,1,104.267,286.467Z" transform="translate(-96 -272)" fill="#a3314f"/></g><g transform="translate(16 24.8)"><g transform="translate(0)"><path d="M52.167,206.467h-4.8a13.27,13.27,0,0,0-.816-1.974l3.392-3.391a1.033,1.033,0,0,0,0-1.461l-4.385-4.384a1.033,1.033,0,0,0-1.461,0l-3.391,3.391a13.336,13.336,0,0,0-1.974-.816v-4.8A1.033,1.033,0,0,0,37.7,192H31.5a1.033,1.033,0,0,0-1.033,1.033v4.8a13.336,13.336,0,0,0-1.974.816L25.1,195.256a1.033,1.033,0,0,0-1.461,0l-4.385,4.384a1.033,1.033,0,0,0,0,1.461l3.392,3.391a13.27,13.27,0,0,0-.816,1.974h-4.8A1.033,1.033,0,0,0,16,207.5v6.2a1.033,1.033,0,0,0,1.033,1.033h4.8a13.269,13.269,0,0,0,.816,1.974L19.255,220.1a1.033,1.033,0,0,0,0,1.461l4.385,4.384a1.033,1.033,0,0,0,1.461,0l3.391-3.391a13.338,13.338,0,0,0,1.974.816v4.8A1.033,1.033,0,0,0,31.5,229.2h6.2a1.033,1.033,0,0,0,1.033-1.033v-4.8a13.336,13.336,0,0,0,1.974-.816l3.391,3.391a1.033,1.033,0,0,0,1.461,0l4.385-4.384a1.033,1.033,0,0,0,0-1.461l-3.392-3.391a13.269,13.269,0,0,0,.816-1.974h4.8A1.033,1.033,0,0,0,53.2,213.7v-6.2A1.033,1.033,0,0,0,52.167,206.467Zm-1.033,6.2h-4.54a1.033,1.033,0,0,0-1,.775,11.3,11.3,0,0,1-1.209,2.922,1.033,1.033,0,0,0,.159,1.256l3.211,3.211-2.923,2.922-3.21-3.21a1.033,1.033,0,0,0-1.257-.159,11.282,11.282,0,0,1-2.921,1.209,1.033,1.033,0,0,0-.775,1v4.54H32.533v-4.54a1.033,1.033,0,0,0-.775-1,11.282,11.282,0,0,1-2.921-1.209,1.033,1.033,0,0,0-1.257.159l-3.211,3.21-2.923-2.922,3.211-3.21a1.033,1.033,0,0,0,.159-1.256,11.3,11.3,0,0,1-1.209-2.922,1.033,1.033,0,0,0-1-.775h-4.54v-4.134h4.54a1.033,1.033,0,0,0,1-.775,11.3,11.3,0,0,1,1.209-2.922,1.033,1.033,0,0,0-.159-1.256l-3.211-3.211,2.924-2.923,3.21,3.21a1.033,1.033,0,0,0,1.257.159,11.281,11.281,0,0,1,2.921-1.209,1.033,1.033,0,0,0,.775-1v-4.539h4.133v4.54a1.033,1.033,0,0,0,.775,1,11.282,11.282,0,0,1,2.921,1.209,1.033,1.033,0,0,0,1.257-.159l3.211-3.21,2.924,2.923-3.211,3.21a1.033,1.033,0,0,0-.159,1.256,11.3,11.3,0,0,1,1.209,2.922,1.033,1.033,0,0,0,1,.775h4.539Z" transform="translate(-16 -192)" fill="#a3314f"/></g></g><g transform="translate(28.4)"><g transform="translate(0)"><path d="M148.167,17.567h-3.3c-.241-5.993-2.594-15.659-10.137-16.472V1.033A1.033,1.033,0,0,0,133.7,0h-6.2a1.033,1.033,0,0,0-1.033,1.033v.061c-7.543.813-9.9,10.479-10.137,16.472h-3.3A1.033,1.033,0,0,0,112,18.6v4.133a1.033,1.033,0,0,0,1.033,1.033h35.133a1.033,1.033,0,0,0,1.033-1.033V18.6A1.033,1.033,0,0,0,148.167,17.567ZM147.134,21.7H114.067V19.633h8.267V17.567H118.4c.215-5.237,2.112-13.523,8.068-14.387V12.4h2.067V2.067h4.133V12.4h2.067V3.18c5.956.864,7.853,9.15,8.068,14.387H124.4v2.067h22.733Z" transform="translate(-112)" fill="#a3314f"/></g></g><g transform="translate(53.2 24.8)"><path d="M323.633,199.233h-1.816l1.283-1.284a1.033,1.033,0,0,0,0-1.461l-2.922-2.922a1.033,1.033,0,0,0-1.461,0l-1.284,1.283v-1.816A1.033,1.033,0,0,0,316.4,192h-4.133a1.033,1.033,0,0,0-1.033,1.033v1.816l-1.284-1.283a1.033,1.033,0,0,0-1.461,0l-2.922,2.922a1.033,1.033,0,0,0,0,1.461l1.283,1.284h-1.816A1.033,1.033,0,0,0,304,200.267V204.4a1.033,1.033,0,0,0,1.033,1.033h1.816l-1.283,1.284a1.033,1.033,0,0,0,0,1.461l2.922,2.922a1.033,1.033,0,0,0,1.461,0l1.284-1.284v1.817a1.033,1.033,0,0,0,1.033,1.033H316.4a1.033,1.033,0,0,0,1.033-1.033v-1.817l1.284,1.284a1.063,1.063,0,0,0,1.461,0l2.922-2.922a1.033,1.033,0,0,0,0-1.461l-1.283-1.284h1.816a1.033,1.033,0,0,0,1.033-1.033v-4.133A1.033,1.033,0,0,0,323.633,199.233Zm-1.033,4.133h-2.427a1.033,1.033,0,0,0-.972.684q-.091.258-.207.505a1.033,1.033,0,0,0,.207,1.176l1.716,1.716-1.468,1.461-1.716-1.719a1.033,1.033,0,0,0-1.174-.207,5.249,5.249,0,0,1-.5.207,1.033,1.033,0,0,0-.689.974V210.6H313.3v-2.427a1.033,1.033,0,0,0-.689-.974,5.235,5.235,0,0,1-.5-.207,1.033,1.033,0,0,0-1.174.207l-1.716,1.711-1.461-1.461,1.719-1.716a1.033,1.033,0,0,0,.207-1.176q-.116-.247-.207-.505a1.033,1.033,0,0,0-.983-.684h-2.427V201.3h2.427a1.033,1.033,0,0,0,.972-.684q.091-.258.207-.505a1.033,1.033,0,0,0-.207-1.176l-1.709-1.716,1.461-1.461,1.717,1.719a1.033,1.033,0,0,0,1.176.207,4.828,4.828,0,0,1,.5-.207,1.033,1.033,0,0,0,.689-.983v-2.427h2.067v2.427a1.033,1.033,0,0,0,.689.974,4.837,4.837,0,0,1,.5.207,1.033,1.033,0,0,0,1.176-.207l1.717-1.716,1.461,1.461-1.719,1.722a1.033,1.033,0,0,0-.207,1.176,5.459,5.459,0,0,1,.207.505,1.033,1.033,0,0,0,.972.684H322.6Z" transform="translate(-304 -192)" fill="#a3314f"/></g><g transform="translate(59.4 31)"><path d="M356.133,240a4.133,4.133,0,1,0,4.133,4.133A4.133,4.133,0,0,0,356.133,240Zm0,6.2a2.067,2.067,0,1,1,2.067-2.067A2.067,2.067,0,0,1,356.133,246.2Z" transform="translate(-352 -240)" fill="#a3314f"/></g></g></svg>