<svg xmlns="http://www.w3.org/2000/svg" width="53.199" height="55.95" viewBox="0 0 53.199 55.95"><g transform="translate(-39.5 -28.75)"><g transform="translate(39.5 28.75)"><path d="M40.725,220.712H91.46v-33.2H40.725Zm51.341,1.225H40.106a.605.605,0,0,1-.606-.606V186.906a.605.605,0,0,1,.606-.606h51.96a.605.605,0,0,1,.606.606v34.425A.589.589,0,0,1,92.066,221.937Z" transform="translate(-39.5 -165.987)" fill="#a3314f" fill-rule="evenodd"/><path d="M261.4,367.219a.693.693,0,0,1-.271-.064.605.605,0,0,1-.271-.812c3.894-7.852,12.171-12.442,23.943-13.254a.614.614,0,0,1,.09,1.225c-11.307.786-19.237,5.144-22.924,12.584A.675.675,0,0,1,261.4,367.219Z" transform="translate(-232.258 -311.269)" fill="#a3314f" fill-rule="evenodd"/><path d="M163.233,310.089a.506.506,0,0,1-.232-.052.611.611,0,0,1-.322-.8,33.087,33.087,0,0,1,13.705-16.1c6.086-3.6,13.8-5.493,22.937-5.634h.013a.605.605,0,0,1,.606.606.616.616,0,0,1-.606.619c-17.806.271-29.77,7.323-35.534,20.99A.617.617,0,0,1,163.233,310.089Z" transform="translate(-146.756 -254.139)" fill="#a3314f" fill-rule="evenodd"/><path d="M59.665,350.819a.646.646,0,0,1-.464-.206c-4.152-4.848-10.572-7.336-19.095-7.388a.612.612,0,0,1,0-1.225c8.9.052,15.627,2.682,20.01,7.813a.612.612,0,0,1-.064.864.534.534,0,0,1-.387.142Z" transform="translate(-39.5 -301.612)" fill="#a3314f" fill-rule="evenodd"/><path d="M66.434,272.936a.612.612,0,0,1-.464-.219c-5.725-6.692-15.394-10.727-25.864-10.792a.616.616,0,0,1-.606-.619.605.605,0,0,1,.606-.606,39.662,39.662,0,0,1,15.562,3.159,30.724,30.724,0,0,1,11.217,8.071.612.612,0,0,1-.064.864A.534.534,0,0,1,66.434,272.936Z" transform="translate(-39.5 -230.794)" fill="#a3314f" fill-rule="evenodd"/><path d="M199.4,220.2a.622.622,0,0,1-.387-.142.614.614,0,0,1-.077-.864c3.236-3.881,7.865-7,13.783-9.27a67.41,67.41,0,0,1,18.05-3.932.608.608,0,0,1,.1,1.212c-10.044.9-23.582,3.855-31.008,12.764A.568.568,0,0,1,199.4,220.2Z" transform="translate(-178.254 -183.134)" fill="#a3314f" fill-rule="evenodd"/><path d="M175.947,206.225c-.529,0-1.122,1.006-1.122,2.359s.593,2.359,1.122,2.359,1.122-1.006,1.122-2.359S176.475,206.225,175.947,206.225Zm0,5.944c-1.315,0-2.347-1.573-2.347-3.584S174.631,205,175.947,205s2.347,1.573,2.347,3.584S177.262,212.169,175.947,212.169Z" transform="translate(-156.31 -182.276)" fill="#a3314f" fill-rule="evenodd"/><path d="M187.706,254.823a.605.605,0,0,1-.606-.606v-2.411a.606.606,0,1,1,1.212,0v2.411A.605.605,0,0,1,187.706,254.823Z" transform="translate(-168.07 -222.519)" fill="#a3314f" fill-rule="evenodd"/><path d="M116.86,202.625c-.3,0-.735.683-.735,1.7s.438,1.7.735,1.7.735-.683.735-1.7S117.156,202.625,116.86,202.625Zm0,4.629c-1.1,0-1.96-1.276-1.96-2.927s.864-2.927,1.96-2.927,1.96,1.289,1.96,2.927S117.956,207.254,116.86,207.254Z" transform="translate(-105.179 -179.14)" fill="#a3314f" fill-rule="evenodd"/><path d="M126.006,240.494a.605.605,0,0,1-.606-.606v-1.882a.606.606,0,0,1,1.212,0v1.882A.614.614,0,0,1,126.006,240.494Z" transform="translate(-114.325 -210.498)" fill="#a3314f" fill-rule="evenodd"/><path d="M69.847,370.025c-.529,0-1.122,1.006-1.122,2.359s.593,2.359,1.122,2.359,1.122-1.006,1.122-2.359S70.375,370.025,69.847,370.025Zm0,5.944c-1.315,0-2.347-1.573-2.347-3.584s1.031-3.584,2.347-3.584,2.347,1.573,2.347,3.584S71.162,375.969,69.847,375.969Z" transform="translate(-63.89 -324.957)" fill="#a3314f" fill-rule="evenodd"/><path d="M81.606,418.723a.605.605,0,0,1-.606-.606v-2.411a.606.606,0,1,1,1.212,0v2.411A.614.614,0,0,1,81.606,418.723Z" transform="translate(-75.649 -365.287)" fill="#a3314f" fill-rule="evenodd"/><path d="M378.006,395.231a.605.605,0,0,1-.606-.606v-5.119a.606.606,0,1,1,1.212,0v5.119A.605.605,0,0,1,378.006,395.231Z" transform="translate(-333.834 -342.465)" fill="#a3314f" fill-rule="evenodd"/><path d="M364.562,394.423a.6.6,0,0,1-.4-.155l-1.986-1.728a.612.612,0,1,1,.812-.915l1.573,1.38,1.573-1.38a.612.612,0,0,1,.812.915l-1.986,1.728a.6.6,0,0,1-.4.155Z" transform="translate(-320.39 -344.7)" fill="#a3314f" fill-rule="evenodd"/><path d="M251.306,386.931a.605.605,0,0,1-.606-.606v-5.119a.606.606,0,0,1,1.212,0v5.119A.605.605,0,0,1,251.306,386.931Z" transform="translate(-223.47 -335.235)" fill="#a3314f" fill-rule="evenodd"/><path d="M237.862,386.023a.6.6,0,0,1-.4-.155l-1.986-1.728a.612.612,0,0,1,.812-.915l1.573,1.38,1.573-1.38a.612.612,0,0,1,.812.915l-1.986,1.728A.6.6,0,0,1,237.862,386.023Z" transform="translate(-210.026 -337.383)" fill="#a3314f" fill-rule="evenodd"/><path d="M361.406,321.86a.605.605,0,0,1-.606-.606v-4.048a.606.606,0,0,1,1.212,0v4.048A.605.605,0,0,1,361.406,321.86Z" transform="translate(-319.374 -279.487)" fill="#a3314f" fill-rule="evenodd"/><path d="M347.939,321.226a.683.683,0,0,1-.348-.1l-1.986-1.367a.612.612,0,0,1,.7-1.006l1.637,1.135,1.637-1.135a.6.6,0,0,1,.851.155.616.616,0,0,1-.155.851l-1.986,1.367A.683.683,0,0,1,347.939,321.226Z" transform="translate(-305.907 -281.264)" fill="#a3314f" fill-rule="evenodd"/><path d="M101.506,298.16a.605.605,0,0,1-.606-.606v-4.048a.606.606,0,1,1,1.212,0v4.048A.605.605,0,0,1,101.506,298.16Z" transform="translate(-92.984 -258.843)" fill="#a3314f" fill-rule="evenodd"/><path d="M88.063,297.526a.683.683,0,0,1-.348-.1l-1.986-1.367a.616.616,0,0,1-.155-.851.6.6,0,0,1,.851-.155l1.637,1.135,1.637-1.135a.612.612,0,0,1,.7,1.006l-1.986,1.367A.722.722,0,0,1,88.063,297.526Z" transform="translate(-79.54 -260.619)" fill="#a3314f" fill-rule="evenodd"/><path d="M403.621,225.738c-.245,0-.7.619-.7,1.637s.451,1.637.7,1.637.7-.619.7-1.637S403.866,225.738,403.621,225.738Zm0,4.487c-1.083,0-1.921-1.251-1.921-2.862s.838-2.862,1.921-2.862,1.921,1.251,1.921,2.862S404.7,230.225,403.621,230.225Z" transform="translate(-355.001 -199.262)" fill="#a3314f" fill-rule="evenodd"/><path d="M412.506,262.543a.605.605,0,0,1-.606-.606v-1.831a.606.606,0,1,1,1.212,0v1.831A.605.605,0,0,1,412.506,262.543Z" transform="translate(-363.886 -229.749)" fill="#a3314f" fill-rule="evenodd"/><path d="M303.806,268.06a.605.605,0,0,1-.606-.606v-4.048a.606.606,0,1,1,1.212,0v4.048A.605.605,0,0,1,303.806,268.06Z" transform="translate(-269.201 -232.623)" fill="#a3314f" fill-rule="evenodd"/><path d="M290.339,267.426a.683.683,0,0,1-.348-.1l-1.986-1.367a.612.612,0,0,1,.7-1.006l1.637,1.135,1.637-1.135a.612.612,0,1,1,.7,1.006l-2,1.354A.556.556,0,0,1,290.339,267.426Z" transform="translate(-255.734 -234.4)" fill="#a3314f" fill-rule="evenodd"/><path d="M261.808,50.275a.605.605,0,0,1-.606-.606v-11.2l-4.126-5.273-6.563-3.146-6.576,3.146-4.126,5.273v11.2a.606.606,0,1,1-1.212,0V38.259a.624.624,0,0,1,.129-.374l4.345-5.557a.747.747,0,0,1,.219-.181l6.962-3.339a.631.631,0,0,1,.529,0l6.962,3.339a.589.589,0,0,1,.219.181l4.345,5.557a.574.574,0,0,1,.129.374v11.41a.636.636,0,0,1-.632.606Z" transform="translate(-212.93 -28.75)" fill="#a3314f" fill-rule="evenodd"/><path d="M304.022,130.98a.605.605,0,0,1-.606-.606v-7.762h-6.7v7.762a.606.606,0,0,1-1.212,0v-8.368a.605.605,0,0,1,.606-.606h7.929a.605.605,0,0,1,.606.606v8.368A.608.608,0,0,1,304.022,130.98Z" transform="translate(-262.493 -109.454)" fill="#a3314f" fill-rule="evenodd"/><path d="M312.259,62.325a1.534,1.534,0,1,0,1.534,1.534A1.53,1.53,0,0,0,312.259,62.325Zm0,4.293a2.759,2.759,0,1,1,2.759-2.759A2.762,2.762,0,0,1,312.259,66.618Z" transform="translate(-274.688 -56.929)" fill="#a3314f" fill-rule="evenodd"/><path d="M303.944,130.9a.577.577,0,0,1-.438-.193l-7.929-8.368a.611.611,0,0,1,.89-.838l7.929,8.368a.611.611,0,0,1-.026.864A.594.594,0,0,1,303.944,130.9Z" transform="translate(-262.415 -109.376)" fill="#a3314f" fill-rule="evenodd"/><path d="M296.028,130.9a.612.612,0,0,1-.451-1.031l7.929-8.368a.611.611,0,0,1,.89.838l-7.929,8.368A.6.6,0,0,1,296.028,130.9Z" transform="translate(-262.415 -109.376)" fill="#a3314f" fill-rule="evenodd"/><path d="M72.432,48.325c-1.689,0-3.107,2.643-3.107,5.763s1.418,5.763,3.107,5.763,3.107-2.643,3.107-5.763S74.121,48.325,72.432,48.325Zm0,12.751c-2.424,0-4.332-3.069-4.332-6.988S70.008,47.1,72.432,47.1s4.332,3.069,4.332,6.988S74.869,61.076,72.432,61.076Z" transform="translate(-64.413 -44.734)" fill="#a3314f" fill-rule="evenodd"/><path d="M97.606,109.464a.605.605,0,0,1-.606-.606V97.306a.606.606,0,0,1,1.212,0v11.552A.589.589,0,0,1,97.606,109.464Z" transform="translate(-89.586 -87.939)" fill="#a3314f" fill-rule="evenodd"/><path d="M165.414,86.525c-.993,0-2.089,1.65-2.089,4.01s1.1,4.01,2.089,4.01,2.089-1.65,2.089-4.01S166.406,86.525,165.414,86.525Zm0,9.244c-1.857,0-3.314-2.295-3.314-5.235s1.457-5.235,3.314-5.235,3.314,2.295,3.314,5.235S167.27,95.769,165.414,95.769Z" transform="translate(-146.293 -78.009)" fill="#a3314f" fill-rule="evenodd"/><path d="M183.706,130.893a.605.605,0,0,1-.606-.606v-8.381a.606.606,0,1,1,1.212,0v8.381A.6.6,0,0,1,183.706,130.893Z" transform="translate(-164.585 -109.367)" fill="#a3314f" fill-rule="evenodd"/></g></g></svg>