<svg xmlns="http://www.w3.org/2000/svg" width="55.943" height="55.95" viewBox="0 0 55.943 55.95"><g transform="translate(-0.031 0)"><g transform="translate(0.031 0)"><g transform="translate(0 0)"><path d="M32.687,0A23.274,23.274,0,0,0,14.374,37.662l-3.4,3.4a3.665,3.665,0,0,0-2.355,1.03L1.169,49.542a3.727,3.727,0,1,0,5.27,5.27l7.454-7.454a3.688,3.688,0,0,0,1.069-2.393l3.354-3.354A23.287,23.287,0,1,0,32.687,0ZM12.575,46.041,5.121,53.495a1.907,1.907,0,0,1-2.635,0,1.864,1.864,0,0,1,0-2.635L9.94,43.406a1.864,1.864,0,1,1,2.635,2.635Zm1.881-3.205a3.7,3.7,0,0,0-.564-.745,3.485,3.485,0,0,0-.755-.559l2.447-2.447q.629.68,1.31,1.31Zm18.231,1.888a21.43,21.43,0,1,1,21.43-21.43,21.43,21.43,0,0,1-21.43,21.43Z" transform="translate(-0.031 0)" fill="#a3314f"/><path d="M137.52,33.574A19.566,19.566,0,1,0,157.086,53.14,19.566,19.566,0,0,0,137.52,33.574Zm0,37.27a17.7,17.7,0,1,1,17.7-17.7A17.7,17.7,0,0,1,137.52,70.844Z" transform="translate(-104.863 -29.847)" fill="#a3314f"/><path d="M208.395,119.371h-2.8a1.864,1.864,0,0,0-1.863-1.863h-3.727a1.864,1.864,0,0,0-1.863,1.863H186.033a.932.932,0,0,0,0,1.863h12.113a1.864,1.864,0,0,0,1.863,1.863h3.727a1.864,1.864,0,0,0,1.863-1.863h2.8a.932.932,0,0,0,0-1.863Zm-4.659,1.863h-3.727v-1.863h3.727Z" transform="translate(-164.557 -104.464)" fill="#a3314f"/><path d="M208.395,186.519H196.282a1.864,1.864,0,0,0-1.863-1.863h-3.727a1.864,1.864,0,0,0-1.863,1.863h-2.8a.932.932,0,0,0,0,1.863h2.8a1.864,1.864,0,0,0,1.863,1.863h3.727a1.864,1.864,0,0,0,1.863-1.863h12.113a.932.932,0,0,0,0-1.863Zm-13.976,1.863h-3.727v-1.863h3.727Z" transform="translate(-164.557 -164.158)" fill="#a3314f"/><path d="M208.395,253.666h-6.522a1.864,1.864,0,0,0-1.863-1.863h-3.727a1.864,1.864,0,0,0-1.863,1.863h-8.386a.932.932,0,0,0,0,1.863h8.386a1.864,1.864,0,0,0,1.863,1.863h3.727a1.864,1.864,0,0,0,1.863-1.863h6.522a.932.932,0,0,0,0-1.863Zm-8.386,1.863h-3.727v-1.863h3.727Z" transform="translate(-164.557 -223.851)" fill="#a3314f"/></g></g></g></svg>