<svg xmlns="http://www.w3.org/2000/svg" width="58.619" height="61" viewBox="0 0 58.619 61"><g transform="translate(-24 -16)"><path d="M243.106,224.791a3.05,3.05,0,0,0-3.8-2.048l-27.272,8.16a1.018,1.018,0,0,0-.4.233l-3.313,3.114a1.017,1.017,0,0,0,.521,1.742l4.479.782a1.019,1.019,0,0,0,.466-.027l22.129-6.621.1,2.094-7.032,2.1.583,1.948,7.792-2.331a1.017,1.017,0,0,0,.724-1.02l-.155-3.394,3.136-.938a3.05,3.05,0,0,0,2.048-3.8Zm-29.673,9.939-2.239-.391,1.657-1.557,4.64-1.388.583,1.948Zm6.588-1.971-.583-1.948,16.285-4.872.1,2.094Zm21.058-6.611a1.01,1.01,0,0,1-.6.491l-2.649.792-.1-2.094,2.162-.647a1.017,1.017,0,0,1,1.186,1.457Z" transform="translate(-160.616 -180.357)" fill="#a3314f"/><path d="M61.617,240.267H44.333v-15.25A1.017,1.017,0,0,0,43.317,224h-18.3A1.017,1.017,0,0,0,24,225.017V257.55a1.017,1.017,0,0,0,1.017,1.017h36.6a1.017,1.017,0,0,0,1.017-1.017V241.283A1.017,1.017,0,0,0,61.617,240.267ZM50.433,242.3H54.5v4.067H50.433Zm-18.3-16.267H36.2V230.1H32.133Zm-6.1,0H30.1v5.083a1.017,1.017,0,0,0,1.017,1.017h6.1a1.017,1.017,0,0,0,1.017-1.017v-5.083H42.3v14.233H26.033Zm6.1,16.267H36.2v4.067H32.133Zm-6.1,0H30.1v5.083a1.017,1.017,0,0,0,1.017,1.017h6.1a1.017,1.017,0,0,0,1.017-1.017V242.3H42.3v14.233H26.033ZM60.6,256.533H44.333V242.3H48.4v5.083a1.017,1.017,0,0,0,1.017,1.017h6.1a1.017,1.017,0,0,0,1.017-1.017V242.3H60.6Z" transform="translate(0 -181.567)" fill="#a3314f"/><path d="M280,448h2.033v2.033H280Z" transform="translate(-223.467 -377.1)" fill="#a3314f"/><path d="M136,448h2.033v2.033H136Z" transform="translate(-97.767 -377.1)" fill="#a3314f"/><path d="M136,320h2.033v2.033H136Z" transform="translate(-97.767 -265.367)" fill="#a3314f"/><path d="M138.033,24.133a2.036,2.036,0,0,1,2.033-2.033h6.1v2.033h-5.083a1.017,1.017,0,0,0-1.017,1.017V40.4H142.1V26.167h24.4V42.433h2.033V25.15a1.017,1.017,0,0,0-1.017-1.017h-5.083V22.1h6.1a2.036,2.036,0,0,1,2.033,2.033V41.417H172.6V24.133a4.071,4.071,0,0,0-4.067-4.067h-9.881l.7-2.8A1.017,1.017,0,0,0,158.367,16h-8.133a1.017,1.017,0,0,0-.986,1.263l.7,2.8h-9.881A4.071,4.071,0,0,0,136,24.133V40.4h2.033ZM148.2,22.1h3.05a1.017,1.017,0,0,0,.986-1.263l-.7-2.8h5.529l-.7,2.8a1.017,1.017,0,0,0,.986,1.263h3.05v2.033H148.2Z" transform="translate(-97.767)" fill="#a3314f"/><path d="M352.133,345.15a2.036,2.036,0,0,1-2.033,2.033H344v2.033h6.1a4.071,4.071,0,0,0,4.067-4.067V336h-2.033Z" transform="translate(-279.333 -279.333)" fill="#a3314f"/><path d="M350.1,351.117V344h-2.033v6.1H344v2.033h5.083A1.017,1.017,0,0,0,350.1,351.117Z" transform="translate(-279.333 -286.317)" fill="#a3314f"/><path d="M206.1,113.017A1.017,1.017,0,0,0,205.083,112h-4.067A1.017,1.017,0,0,0,200,113.017v4.067a1.017,1.017,0,0,0,1.017,1.017h4.067a1.017,1.017,0,0,0,1.017-1.017Zm-2.033,3.05h-2.033v-2.033h2.033Z" transform="translate(-153.633 -83.8)" fill="#a3314f"/><path d="M205.083,184h-4.067A1.017,1.017,0,0,0,200,185.017v4.067a1.017,1.017,0,0,0,1.017,1.017h4.067a1.017,1.017,0,0,0,1.017-1.017v-4.067A1.017,1.017,0,0,0,205.083,184Zm-1.017,4.067h-2.033v-2.033h2.033Z" transform="translate(-153.633 -146.65)" fill="#a3314f"/><path d="M264,112h2.033v2.033H264Z" transform="translate(-209.5 -83.8)" fill="#a3314f"/><path d="M264,144h12.2v2.033H264Z" transform="translate(-209.5 -111.733)" fill="#a3314f"/><path d="M296,112h8.133v2.033H296Z" transform="translate(-237.433 -83.8)" fill="#a3314f"/><path d="M264,184h2.033v2.033H264Z" transform="translate(-209.5 -146.65)" fill="#a3314f"/><path d="M264,216h12.2v2.033H264Z" transform="translate(-209.5 -174.583)" fill="#a3314f"/><path d="M296,184h8.133v2.033H296Z" transform="translate(-237.433 -146.65)" fill="#a3314f"/></g></svg>