<svg xmlns="http://www.w3.org/2000/svg" width="584" height="258.719" viewBox="0 0 584 258.719"><g transform="translate(-2378.046 -766.892)"><path d="M2482.194,1349.507c13.8-.247,63.243,9.7,79.856,7.818s55.49-4.72,62.625-4.663c17.4.141,25.535,4.183,45.371,4.026,19.561-.156,73.27-6.782,83.106-6.782,8.056,0,18.529,2.979,38.121,4.19s41.514,1.753,58.366-1.334c8.817-1.615,15.442-4.1,24.622-5.544,10.62-1.67,23.334-1.749,35.47-1.743s24.78.026,35.691-1.484,19.369-5.075,15.793-8.372c-29.561-2.946-60.522-5.936-91.545-4.7-10.487.416-20.915,1.314-31.458,1.035-19.7-.522-39.232-1.926-58.994-1.629-17.452.261-29.51,1.13-46.947,1.463-15.024.287-28.739-2.187-43.074-3.5-20.037-1.831-40.794-4.853-61.777-4.385-12.5.279-25.849,4.029-38.345,4.308-11.447.255-11.033-7.085-22.452-7.427-11.353-.339-39.889,4.009-51.3,3.885-13.746-.149-35.087-4.751-48.375-3.74-21.673,1.649-36.075,7.61-57.929,9.053-15.24,1.007-16.1,5.049-24.577,9.021-6.939,3.251-9.68,4.2-.767,6.842,6.059,1.794,15.918,3.1,23.781,4.111C2424.607,1352.152,2463.6,1349.507,2482.194,1349.507Z" transform="translate(0 -331.953)" fill="#ca5c47"/><g transform="translate(2426.528 880.335)"><path d="M2521.812,1218.7h-14.056s-20.713,27.735,1.759,51.824h1.42S2496.263,1249.14,2521.812,1218.7Z" transform="translate(-2499.05 -1151.121)" fill="#7fb8db"/><path d="M2656.469,1218.7h-14.056s-20.713,27.735,1.759,51.824h1.42S2630.92,1249.14,2656.469,1218.7Z" transform="translate(-2579.754 -1151.121)" fill="#7fb8db"/><path d="M2791.127,1218.7h-14.056s-20.713,27.735,1.759,51.824h1.42S2765.578,1249.14,2791.127,1218.7Z" transform="translate(-2660.459 -1151.121)" fill="#7fb8db"/><path d="M2925.785,1218.7h-14.056s-20.713,27.735,1.759,51.824h1.42S2900.235,1249.14,2925.785,1218.7Z" transform="translate(-2741.164 -1151.121)" fill="#7fb8db"/><path d="M2695.053,1228.461H2521.694l-.916-9.757h173.359Z" transform="translate(-2512.072 -1151.121)" fill="#7fb8db"/><path d="M2730.967,1123.059l166.07-67.168v-5.863l-170.945,67.583Z" transform="translate(-2635.124 -1050.028)" fill="#7fb8db"/></g><path d="M2482.515,1295.8a10.658,10.658,0,0,1,1.6-.419,3.311,3.311,0,0,0,2.3-1.318,8.736,8.736,0,0,0,.489-2.113,4.174,4.174,0,0,1,3.959-2.715,12.233,12.233,0,0,1,4.95,1.222,19.93,19.93,0,0,1-3.808-5.918,6.765,6.765,0,0,1,.939-6.677c1.581-1.751,4.794-1.963,6.176-.051-.862-2.419-1.56-5.112-.64-7.509,1.962-5.108,8.687-2.453,11.162.7,4,5.083,2.585,13.569,10.446,15.676,2.189.586,4.511-.013,6.772.14a10.4,10.4,0,0,1,8.714,6.265c-.649-1.477,1.429-2.746,3.036-2.606s3.33.85,4.745.076c1.432-.784,1.749-2.648,2.458-4.117.436-.9,1.546-1.505,1.851-2.4.236-.689-.365-1.616-.092-2.411.395-1.149,1.634-3.513,3.256-3.216a4.605,4.605,0,0,1-3.393-2.795c-2.562-6.529,6.036-7.9,9.894-4.863a8.555,8.555,0,0,1,2.873,8.8,14.065,14.065,0,0,1,5.021-.871,4.78,4.78,0,0,1,4.13,2.582c1.087,2.563.572,9.557,5.613,5.617,2.571-2.01,3.432-5.931,7.181-1.856a11.758,11.758,0,0,0,2.912,2.745c1.189.623,2.922.495,3.565-.684.778-1.429-.293-3.737,1.113-4.556.962-.56,2.2.238,3.28-.024a2.748,2.748,0,0,0,1.753-2.151,18.988,18.988,0,0,1,.632-2.844,3.921,3.921,0,0,1,5.124-1.919,7.084,7.084,0,0,1,.083-6.408,6.432,6.432,0,0,1,7.86-3.084c1.825.582,5.4,3.386,2.718,5.4l5.553,2.084c-.258,2.471.011,7.794,2.961,8.661a17.369,17.369,0,0,0,2.841.351,9.162,9.162,0,0,1,5.217,2.482c.75.724,1.375,1.576,2.177,2.244a3.5,3.5,0,0,0,2.875.924c1.744-.379,2.235-3.6,3.194-4.914a10.967,10.967,0,0,1,5.085-3.884c.244-4.87,1.652-9.872,4.982-13.434s8.862-5.307,13.3-3.281c3.586,1.638,5.786,5.243,8.671,7.93s7.7,4.381,10.6,1.708c.725,0-3.4,17.859-5.03,20.036a18.835,18.835,0,0,1-17.317,7.459c-3.276-.484-6.4-1.861-9.708-2.035-7.907-.415-14.737,6.005-22.637,6.534-9.405.63-18.01-7.177-27.358-5.963-7.459.969-13.333,7.5-20.809,8.319-8.3.911-15.659-5.387-23.913-6.631-10.347-1.56-19.684,4.576-29.6,6.2-10.494,1.716-21.73-.069-32.094-1.956-3.048-.555-4.713-.436-7.054-2.805-.985-1-2.888-3.881-1.506-5.176A2.811,2.811,0,0,1,2482.515,1295.8Z" transform="translate(-61.773 -296.658)" fill="#ab4b38"/><g transform="translate(2642.066 824.699)"><ellipse cx="66.883" cy="71.516" rx="66.883" ry="71.516" transform="translate(0 41.807)" fill="#22365b"/><rect width="95.336" height="70.465" transform="translate(137.513 132.976) rotate(180)" fill="#22365b"/><g transform="translate(29.742)"><path d="M3158.856,967.741H3118.33l-6.962-45.05c-.983-6.363,3.378-11.521,9.741-11.521h17.485a13.951,13.951,0,0,1,13.3,11.521Z" transform="translate(-3111.229 -911.17)" fill="#265173"/><rect width="69.417" height="9.855" transform="translate(76.518 66.426) rotate(180)" fill="#265173"/></g></g><g transform="translate(2690.207 766.892)"><path d="M3259.338,849.78c3.95,3.385,6.431,14.813,8.584,25.47l-14.237,4.164C3251.828,866.108,3253.558,850.9,3259.338,849.78Z" transform="translate(-3214.579 -816.57)" fill="#7fb8db"/><path d="M3268.99,913.349c1.134,5.612,1.828,9.929,1.828,9.929a119.678,119.678,0,0,0,29.906,8.525s1.957-6.3,4.192-4.687c0,0,6.009,2.87,7.127,4.547.9,1.351-3.385,6.36-6.219,7.18-.684.2-2.521-.943-3.092-1.572-3.354.839-34.989,7.669-41.977-.716-2.673-3.208-4.852-10.8-6-19.042Z" transform="translate(-3215.647 -854.669)" fill="#f0786a"/><path d="M3320.638,1017.4s-.3.019-.845.049c-1.391-14.423,7.061-21.725,13.561-22.61,0,0,5.373,1.15,6.924,5.62,2.353,6.777-.428,35.514-2.733,55.329l-14.465,2.432C3320.881,1049.348,3319.453,1036.33,3320.638,1017.4Z" transform="translate(-3254.536 -903.509)" fill="#f0786a"/><path d="M3342.688,1146.958c-1.3,11.137-2.443,19.466-2.443,19.466l-3.045.7s-5.471-3.584-8.977-17.736Z" transform="translate(-3259.68 -994.678)" fill="#e1f0fa"/><path d="M3201.818,980.154l24.588,1.928s23.112.238,34.059,3.956c-6.5.885-14.952,8.186-13.562,22.61-5.3.295-41.067,1.67-46.531-2.7C3194.345,1001.126,3201.818,980.154,3201.818,980.154Z" transform="translate(-3181.646 -894.707)" fill="#c93b38"/><path d="M3340.457,1191.988a21.361,21.361,0,0,1,.539-3.933,11.982,11.982,0,0,1,7.328-2.866,15.273,15.273,0,0,0,10.571,6.8v3.222h-18.473C3340.417,1194.565,3340.433,1192.516,3340.457,1191.988Z" transform="translate(-3266.991 -1017.591)" fill="#ab4b38"/><path d="M3201.91,843.51s-16.1-7.018-33.748-2.893c-4.039.944-13.018,24.756-10.607,60.915l44.355-3.857A417.879,417.879,0,0,1,3201.91,843.51Z" transform="translate(-3157.15 -810.299)" fill="#b5d6ea"/><path d="M3177.587,896.019c-3.126-.5-6.734-10.891-6.816-14.161-.429-17.2,4.076-19.87,10.437-21.884,4.208-1.333,11.177,25.521,8.59,32.815Z" transform="translate(-3165.297 -822.65)" fill="#7fb8db"/><path d="M3214.454,800.112s3.772-3.968,5.171-12.822-2.883-11.161,5.391-13.482,11.209-.558,11.9,6.571-2.693,17.528-5.225,17.578a22.3,22.3,0,0,1-3.309-.466s-1.9,8.532-4.245,10.047C3221.254,809.4,3214.454,800.112,3214.454,800.112Z" transform="translate(-3191.494 -770.461)" fill="#f79885"/><path d="M3225.168,794.261c2.237.335,3.28-1.24,5.513-.882-.2.93-.078,2.1-.3,3.5,0,0-1.664-2.715-2.516-.291-.176.5-.467,2.7,1.75,2.632,0,0-1.049,5.416-4.86,4.975C3225.388,801.743,3224.264,797.991,3225.168,794.261Z" transform="translate(-3197.669 -782.734)" fill="#22365b"/><path d="M3158.059,991.067c15.547-2.591,43.906-3.324,57.714-.782-6.51,1.61-14.187,9.312-12.205,23.782-3.043.434-23.078,2.059-32.492-.1C3156.273,1010.575,3158.059,991.067,3158.059,991.067Z" transform="translate(-3157.654 -899.834)" fill="#eb5654"/><path d="M3307.041,1166.539l-3.77.58c-4.351-2.8-7.229-9.914-9.138-18.27l14.887-2.5C3308.055,1157.9,3307.041,1166.539,3307.041,1166.539Z" transform="translate(-3239.249 -994.311)" fill="#fff"/><path d="M3283.473,992.64s7.422,1.728,9.745,3.846c5.326,4.856,3.7,36.305,1.908,57.738l-14.887,2.5c-4.042-17.684-3.728-40.968-3.728-40.968s-4.814.6-5.243.661C3269.286,1001.952,3276.963,994.25,3283.473,992.64Z" transform="translate(-3225.354 -902.19)" fill="#f79885"/><path d="M3308.815,1187.577c.821-1.464,6.1-4.1,7.8-2.866a15.3,15.3,0,0,0,5.868,6.8v3.222h-14.068C3308.413,1194.088,3308.644,1188.676,3308.815,1187.577Z" transform="translate(-3247.809 -1017.113)" fill="#ca5c47"/><path d="M3180.616,848.1c3.593-.7,7.331,14.6,9.485,25.256l-14.235,4.163C3174.014,864.223,3174.84,849.222,3180.616,848.1Z" transform="translate(-3167.838 -815.55)" fill="#b5d6ea"/><g transform="translate(54.236 59.985)"><g transform="translate(25.692 0.694)"><rect width="18.949" height="1.171" transform="translate(0 12.249) rotate(-40.272)" fill="#22365b"/></g><g transform="translate(25.868 12.833)"><rect width="1.171" height="11.309" transform="translate(0 1.103) rotate(-70.307)" fill="#22365b"/></g><g transform="translate(0.768 12.818)"><rect width="26.491" height="1.171" transform="translate(0 8.451) rotate(-18.602)" fill="#22365b"/></g><path d="M3340.163,945.22c-2.414,2.043-1.074,5.279,2.372,4.834a23.984,23.984,0,0,0,10.611-4.5c2.414-2.043,1.074-5.279-2.371-4.834A23.978,23.978,0,0,0,3340.163,945.22Z" transform="translate(-3320.337 -931.03)" fill="#22365b"/><path d="M3299.988,943.373c-3.91,0-6.37-.958-7.2-2.834-.682-1.546-.439-4.282,4.59-8.536,8.084-6.839,24.033-13.612,35.555-15.1,6.384-.824,10.336.051,11.43,2.532.682,1.545.439,4.281-4.589,8.536-8.083,6.838-24.033,13.611-35.555,15.1A33.361,33.361,0,0,1,3299.988,943.373Zm37.118-25.06a31.109,31.109,0,0,0-3.952.281c-11.246,1.452-26.8,8.05-34.671,14.71-3.2,2.708-4.747,5.156-4.132,6.548.561,1.27,3.386,2.339,9.652,1.531,11.248-1.452,26.8-8.051,34.671-14.71,3.2-2.708,4.747-5.157,4.132-6.548C3342.383,919.161,3340.651,918.313,3337.106,918.313Z" transform="translate(-3292.514 -916.604)" fill="#22365b"/><g transform="translate(24.782 13.614)"><rect width="3.408" height="40.581" transform="translate(0 1.481) rotate(-25.76)" fill="#22365b"/></g></g><path d="M3191.422,911.17c1.138,5.627,1.834,9.961,1.834,9.961a119.673,119.673,0,0,0,29.906,8.525s1.956-6.3,4.192-4.687c0,0,6.009,2.87,7.127,4.547.9,1.351-3.384,6.36-6.218,7.18-.684.2-2.521-.943-3.092-1.572-3.354.839-34.989,7.669-41.976-.716-2.677-3.212-4.857-10.815-6.008-19.073Z" transform="translate(-3169.159 -853.362)" fill="#f79885"/><g transform="translate(27.413 0)"><path d="M3273.336,794.193c1.815.026,4.3,2.99,2.525,3.739s-10.258-2.69-10.258-2.69Z" transform="translate(-3249.563 -783.254)" fill="#c93b38"/><path d="M3225.654,778.418s11.245,2,18.516.771c0,0,2.739-11.821-7.413-12.275S3225.148,773.235,3225.654,778.418Z" transform="translate(-3225.567 -766.892)" fill="#eb5654"/><path d="M3245.873,793.444s4.8-3.9,10.7-2.96l-.141,2.088Z" transform="translate(-3237.737 -780.944)" fill="#c93b38"/><path d="M3245.873,795.082s6.349,4.889,9.438,2.766c2.258-1.553,2.331-3.96,6.2-4.328,0,0-4.184-.352-7.921-.447A18.416,18.416,0,0,0,3245.873,795.082Z" transform="translate(-3237.737 -782.581)" fill="#eb5654"/></g><path d="M3262.655,815.017c1.191.2.658,2.788.658,2.788a13.513,13.513,0,0,1-4.607-.768S3260.461,814.642,3262.655,815.017Z" transform="translate(-3218.016 -795.711)" fill="#22365b"/></g><g transform="translate(2579.4 780.037)"><path d="M3535.695,849.459s4.855-13.01-.283-16.247c0,0,6.926-14.763-9.645-10.677,0,0,5.157-16.279-13.267-10.045,3.69-11.369-12.94-20.253-11.76-3.553-16.07-9.654-9.833,6.541-6.279,7.068,0,0-12.742,3.193-5.7,12.2s15.638-.155,15.638-.155,1.622,11.484,14.526,5.462c0,0-2.72,9.079,8.81,7.342C3527.731,840.855,3530.487,851.049,3535.695,849.459Z" transform="translate(-3243.816 -799.699)" fill="#e1f0fa"/><ellipse cx="32.657" cy="34.919" rx="32.657" ry="34.919" transform="translate(270.197 159.663)" fill="#22365b"/><path d="M3534.466,1265.657a7.906,7.906,0,0,1,0,15.777H3472.7v-15.777Z" transform="translate(-3235.461 -1078.963)" fill="#22365b"/><g transform="translate(284.453 41.243)"><path d="M3608.445,929.886h-7.83V912.957l7.83-10.323Z" transform="translate(-3596.579 -902.634)" fill="#5aa5d1"/><path d="M3609.9,912.712v19.743h1.745V910.411Z" transform="translate(-3602.146 -907.295)" fill="#7fb8db"/><rect width="15.902" height="9.665" transform="translate(0 26.26)" fill="#7fb8db"/><rect width="4.581" height="9.665" transform="translate(8.145 26.26)" fill="#b5d6ea"/></g><path d="M3218.682,981.58h127.562l-37.483,112.613H3080.454V1081.7h84.073l36.558-88.355A19.043,19.043,0,0,1,3218.682,981.58Z" transform="translate(-3000.376 -908.706)" fill="#eb5654"/><path d="M3192.91,1231.461l-3.65,12.495h-27.3l3.489-12.495Z" transform="translate(-3049.224 -1058.468)" fill="#c93b38"/><path d="M3666.356,981.278h3.122c10.586,0,17.461,8.582,15.354,19.168l-18.619,93.566h-41.458l18.619-93.566C3645.48,989.86,3655.77,981.278,3666.356,981.278Z" transform="translate(-3326.594 -908.525)" fill="#c93b38"/><g transform="translate(324.935 78.616)"><path d="M3698.874,1100.746l-1.671-.333,17.071-85.788c1.1-5.525.444-9.951-1.894-12.8-2.292-2.793-6.23-4.209-11.709-4.209h-2.936a18.867,18.867,0,0,0-5.646.887l-.51-1.626a20.579,20.579,0,0,1,6.155-.964h2.936c6.013,0,10.4,1.625,13.026,4.831,2.711,3.3,3.468,8.085,2.249,14.214Z" transform="translate(-3691.579 -995.913)" fill="#eb5654"/></g><g transform="translate(309.248 104.607)"><path d="M3667,1089.963s-14.57,1.554-14.57-14.57,14.57-14.57,14.57-14.57Z" transform="translate(-3652.426 -1060.782)" fill="#7fb8db"/><ellipse cx="7.577" cy="14.57" rx="7.577" ry="14.57" transform="translate(6.994 0.04)" fill="#b5d6ea"/><path d="M3675.753,1079.231c0,6.652,2.566,12.045,5.731,12.045s5.731-5.393,5.731-12.045-2.566-12.045-5.731-12.045S3675.753,1072.579,3675.753,1079.231Z" transform="translate(-3666.406 -1064.62)" fill="#e1f0fa"/></g><g transform="translate(341.695 104.607)"><path d="M3747.979,1089.963s-14.57,1.554-14.57-14.57,14.57-14.57,14.57-14.57Z" transform="translate(-3733.409 -1060.782)" fill="#7fb8db"/><path d="M3750.864,1075.453c0,8.047,3.393,14.57,7.577,14.57s7.577-6.523,7.577-14.57-3.392-14.57-7.577-14.57S3750.864,1067.406,3750.864,1075.453Z" transform="translate(-3743.87 -1060.843)" fill="#b5d6ea"/><ellipse cx="5.731" cy="12.045" rx="5.731" ry="12.045" transform="translate(9.346 2.566)" fill="#e1f0fa"/></g><g transform="translate(228.668 91.212)"><path d="M3591.352,1050.918h.426a2.754,2.754,0,0,0,2.6-2.2l3.464-19.168a1.787,1.787,0,0,0-1.8-2.2h-.426a2.755,2.755,0,0,0-2.6,2.2l-3.463,19.168A1.787,1.787,0,0,0,3591.352,1050.918Z" transform="translate(-3534.14 -1027.349)" fill="#c93b38"/><path d="M3556.8,1050.918h.425a2.754,2.754,0,0,0,2.6-2.2l3.464-19.168a1.787,1.787,0,0,0-1.8-2.2h-.426a2.754,2.754,0,0,0-2.6,2.2L3555,1048.717A1.787,1.787,0,0,0,3556.8,1050.918Z" transform="translate(-3513.433 -1027.349)" fill="#c93b38"/><path d="M3522.251,1050.918h.426a2.755,2.755,0,0,0,2.6-2.2l3.464-19.168a1.787,1.787,0,0,0-1.8-2.2h-.426a2.755,2.755,0,0,0-2.6,2.2l-3.464,19.168A1.787,1.787,0,0,0,3522.251,1050.918Z" transform="translate(-3492.726 -1027.349)" fill="#c93b38"/><path d="M3487.7,1050.918h.426a2.755,2.755,0,0,0,2.6-2.2l3.464-19.168a1.787,1.787,0,0,0-1.8-2.2h-.426a2.755,2.755,0,0,0-2.6,2.2l-3.464,19.168A1.787,1.787,0,0,0,3487.7,1050.918Z" transform="translate(-3472.018 -1027.349)" fill="#c93b38"/><path d="M3453.15,1050.918h.426a2.755,2.755,0,0,0,2.6-2.2l3.464-19.168a1.787,1.787,0,0,0-1.8-2.2h-.426a2.754,2.754,0,0,0-2.6,2.2l-3.464,19.168A1.787,1.787,0,0,0,3453.15,1050.918Z" transform="translate(-3451.311 -1027.349)" fill="#c93b38"/></g><path d="M3402.721,1110.447h46.15c5.774,0,10.236,3.732,10.754,8.992l1.548,51.989h-90.316l18.493-51.989A14.639,14.639,0,0,1,3402.721,1110.447Z" transform="translate(-3174.425 -985.941)" fill="#c93b38"/><path d="M3404.7,1115.23h41.773a9.467,9.467,0,0,1,9.735,8.71l4.63,50.355h-86.57l18.329-50.355A13.284,13.284,0,0,1,3404.7,1115.23Z" transform="translate(-3176.47 -988.807)" fill="#eb5654"/><path d="M3418.171,1143.983h26.967a9.462,9.462,0,0,1,9.544,7.473l8.688,40.071H3387l19.589-40.071A13.253,13.253,0,0,1,3418.171,1143.983Z" transform="translate(-3184.103 -1006.04)" fill="#22365b"/><ellipse cx="32.657" cy="34.919" rx="32.657" ry="34.919" transform="translate(208.428 159.663)" fill="#265173"/><path d="M3400.784,1233.1c0,.358,0,.7.017,1.039.495-18.81,14.482-33.905,31.673-33.905,17.515,0,31.69,15.641,31.69,34.928a36.914,36.914,0,0,1-7.36,22.354,36.171,36.171,0,0,0,9.3-24.415c0-19.27-14.618-34.91-32.662-34.91S3400.784,1213.834,3400.784,1233.1Z" transform="translate(-3192.361 -1038.53)" fill="#008eb0"/><ellipse cx="17.535" cy="18.75" rx="17.535" ry="18.75" transform="translate(219.701 175.832)" fill="#e1f0fa"/><ellipse cx="7.377" cy="7.888" rx="7.377" ry="7.888" transform="translate(229.859 186.694)" fill="#265173"/><ellipse cx="66.883" cy="71.516" rx="66.883" ry="71.516" transform="translate(0 86.47)" fill="#265173"/><path d="M2891.862,1019.272c5.367,4.872,11.773,4.906,15.914,4.208a60.281,60.281,0,0,1,43.906-19.287c34.485,0,62.444,29.9,62.444,66.788a70.631,70.631,0,0,1-1.841,16.135,47.271,47.271,0,0,0,14.108,3.51,87.435,87.435,0,0,0,2.215-19.645c0-45.44-34.45-82.258-76.926-82.258C2927.522,988.723,2905.953,1000.632,2891.862,1019.272Z" transform="translate(-2887.348 -912.987)" fill="#eb5654"/><ellipse cx="35.913" cy="38.4" rx="35.913" ry="38.4" transform="translate(23.088 119.585)" fill="#e1f0fa"/><ellipse cx="15.109" cy="16.156" rx="15.109" ry="16.156" transform="translate(43.892 141.83)" fill="#265173"/><g transform="translate(306.049 157.986)"><path d="M3688.029,1217.575h.426a2.755,2.755,0,0,0,2.6-2.2l3.464-19.167a1.787,1.787,0,0,0-1.8-2.2h-.426a2.754,2.754,0,0,0-2.6,2.2l-3.464,19.167A1.787,1.787,0,0,0,3688.029,1217.575Z" transform="translate(-3669.463 -1194.006)" fill="#22365b"/><path d="M3667.155,1217.575h.426a2.755,2.755,0,0,0,2.6-2.2l3.464-19.167a1.788,1.788,0,0,0-1.8-2.2h-.426a2.754,2.754,0,0,0-2.6,2.2l-3.464,19.167A1.787,1.787,0,0,0,3667.155,1217.575Z" transform="translate(-3656.952 -1194.006)" fill="#22365b"/><path d="M3646.281,1217.575h.426a2.755,2.755,0,0,0,2.6-2.2l3.464-19.167a1.787,1.787,0,0,0-1.8-2.2h-.426a2.754,2.754,0,0,0-2.6,2.2l-3.464,19.167A1.787,1.787,0,0,0,3646.281,1217.575Z" transform="translate(-3644.442 -1194.006)" fill="#22365b"/></g></g><g transform="translate(2429.709 788.986)"><path d="M2780.728,847.793c-7.092-12.358-23.993-26.857-24.61-3.781,0,0-44.443-50.349-34.911,1.372,0,0-26.769-14.36-26.99-1.248C2693.831,867.091,2791.335,866.276,2780.728,847.793Z" transform="translate(-2619.2 -822.036)" fill="#b5d6ea"/><path d="M2558.625,957.456c-.761-4.156-7.653-12.851-9.578.726,0,0-10.784-35.187-25.895,3,0,0-16.163-13.032-16.164,0C2506.989,975.651,2562.314,977.608,2558.625,957.456Z" transform="translate(-2506.989 -894.771)" fill="#b5d6ea"/></g></g></svg>