<svg xmlns="http://www.w3.org/2000/svg" xmlns:xlink="http://www.w3.org/1999/xlink" width="505" height="288" viewBox="0 0 505 288"><defs><clipPath id="a"><rect width="505" height="288" transform="translate(914.615 412)" fill="#fff" stroke="#707070" stroke-width="1"/></clipPath></defs><g transform="translate(-914.615 -412)"><g clip-path="url(#a)"><g transform="translate(920 412.429)"><path d="M690.093,578.292c-.026.414-.061.831-.1,1.25a88.627,88.627,0,0,1-1.392,9.643c0,.011,0,.02-.007.031-.015.083-.033.164-.05.246,0,.006,0,.014,0,.021l-121.937-.215-316.42-.558s-41.976-29.006-55.659-74.734c-.012-.038-.023-.076-.033-.114a98.24,98.24,0,0,1-4.013-34.8c.008-.122.016-.246.026-.368a103.8,103.8,0,0,1,8-32.856,130.442,130.442,0,0,1,8.691-17.048q1.192-1.974,2.5-3.86c28.277-40.842,95.543-50.32,116.37-41.564,28.3,11.9,65.843-20.247,146.982-42.317,37.1-10.092,102.733-1.526,138.316,30.165.039.035.079.07.117.107,22.787,20.357,33.182,50.233,15.727,90.8-.018.041-.036.084-.056.127-.008.023-.02.047-.03.07-16.995,39.332,17.376,47.7,41.743,67.954.121.1.24.2.361.3a76.371,76.371,0,0,1,7.062,6.681q.707.765,1.389,1.553a52.238,52.238,0,0,1,7.5,11.231q.435.889.838,1.808a49.055,49.055,0,0,1,2.948,9.048,56.049,56.049,0,0,1,1.278,10.457,67.1,67.1,0,0,1-.144,6.94" transform="translate(-190.27 -235.597)" fill="#ffb500" opacity="0.38"/><circle cx="34.182" cy="34.182" r="34.182" transform="translate(75.583)" fill="#ffb500"/><circle cx="8.043" cy="8.043" r="8.043" transform="translate(472.365 215.818)" fill="#ffb500"/><circle cx="21.448" cy="21.448" r="21.448" transform="translate(409.363 48.257)" fill="#ffb500"/></g><g transform="translate(973.948 363)"><g transform="translate(124.695 48.818)"><g transform="translate(0 19.741)"><rect width="181.524" height="248.74" fill="#455a64"/></g><g transform="translate(15.115 29.794)"><path d="M317.16,312.514H157.926V88.621H317.16V312.514Z" transform="translate(-157.926 -88.621)" fill="#e0e0e0"/></g><g transform="translate(14.035 26.833)"><path d="M314.281,307.365h-157.8V84.666h157.8v222.7Z" transform="translate(-156.482 -84.666)" fill="#ebebeb"/></g><g transform="translate(10.894 27.203)"><g transform="translate(0.195 0.195)"><path d="M296.335,290.224l-18.175,14.8H152.546V85.421H311.78V277.7Z" transform="translate(-152.546 -85.421)" fill="#fafafa"/></g><path d="M296.27,290.159s.322-.275.97-.808l2.912-2.38,11.524-9.381-.022.048c-.019-31.585-.061-101.768-.115-192.283l.177.176-157.844.019h-1.39l.195-.195c-.014,82.559-.028,158.722-.038,219.6l-.156-.156,125.614.089-.042.015L291.7,293.834l3.42-2.763c.762-.613,1.148-.912,1.148-.912s-.372.317-1.127.939l-3.4,2.79L278.137,305.01l-.018.015h-.024l-125.614.09h-.156v-.156c-.011-60.88-.024-137.043-.038-219.6v-.2h1.585l157.844.019h.176v.177c-.054,90.515-.1,160.7-.114,192.283v.03l-.023.019-11.562,9.333-2.931,2.356C296.605,289.9,296.27,290.159,296.27,290.159Z" transform="translate(-152.286 -85.16)" fill="#263238"/></g><g transform="translate(58.177 12.051)"><path d="M14.757,0H51.016A14.154,14.154,0,0,1,65.17,14.154v8.187a0,0,0,0,1,0,0H0a0,0,0,0,1,0,0V14.757A14.757,14.757,0,0,1,14.757,0Z" fill="#e8505b"/></g><g transform="translate(71.756)"><path d="M235.978,60.869,233.6,48.818h37.523l-2.085,12.051Z" transform="translate(-233.596 -48.818)" fill="#e8505b"/></g><g transform="translate(27.743 62.385)"><path d="M201.623,158.988H174.8V132.161h26.827Zm-26.078-.749h25.33V132.91h-25.33Z" transform="translate(-174.796 -132.161)" fill="#e8505b"/><g transform="translate(38.213 6.283)"><path d="M309.256,140.75c0,.107-18.673.195-41.7.195s-41.707-.088-41.707-.195,18.669-.2,41.707-.2S309.256,140.643,309.256,140.75Z" transform="translate(-225.847 -140.555)" fill="#263238"/></g><g transform="translate(38.213 11.858)"><path d="M309.256,148.2c0,.108-18.673.195-41.7.195s-41.707-.087-41.707-.195S244.516,148,267.554,148,309.256,148.09,309.256,148.2Z" transform="translate(-225.847 -148.003)" fill="#263238"/></g><g transform="translate(38.213 17.433)"><path d="M309.256,155.645c0,.108-18.673.2-41.7.2s-41.707-.088-41.707-.2,18.669-.195,41.707-.195S309.256,155.537,309.256,155.645Z" transform="translate(-225.847 -155.45)" fill="#263238"/></g><g transform="translate(38.213 23.007)"><path d="M309.256,163.092c0,.108-18.673.2-41.7.2s-41.707-.088-41.707-.2,18.669-.195,41.707-.195S309.256,162.985,309.256,163.092Z" transform="translate(-225.847 -162.897)" fill="#263238"/></g></g><g transform="translate(27.743 103.728)"><g transform="translate(0 0)"><path d="M201.623,214.221H174.8V187.394h26.827Zm-26.078-.749h25.33v-25.33h-25.33Z" transform="translate(-174.796 -187.394)" fill="#e8505b"/></g><g transform="translate(5.335 1.699)"><path d="M181.923,201.93l3.561-3.825,5.936,4.748,13.586-13.19,3.255,3.836-17.1,16.872Z" transform="translate(-181.923 -189.664)" fill="#e8505b"/></g><g transform="translate(38.213 6.284)"><path d="M309.256,195.984c0,.108-18.673.195-41.7.195s-41.707-.087-41.707-.195,18.669-.195,41.707-.195S309.256,195.876,309.256,195.984Z" transform="translate(-225.847 -195.789)" fill="#263238"/></g><g transform="translate(38.213 11.858)"><path d="M309.256,203.431c0,.108-18.673.2-41.7.2s-41.707-.088-41.707-.2,18.669-.195,41.707-.195S309.256,203.323,309.256,203.431Z" transform="translate(-225.847 -203.236)" fill="#263238"/></g><g transform="translate(38.213 17.433)"><path d="M309.256,210.878c0,.107-18.673.195-41.7.195s-41.707-.088-41.707-.195,18.669-.2,41.707-.2S309.256,210.771,309.256,210.878Z" transform="translate(-225.847 -210.683)" fill="#263238"/></g><g transform="translate(38.213 23.007)"><path d="M309.256,218.325c0,.108-18.673.195-41.7.195s-41.707-.087-41.707-.195,18.669-.2,41.707-.2S309.256,218.218,309.256,218.325Z" transform="translate(-225.847 -218.13)" fill="#263238"/></g></g><g transform="translate(27.743 143.736)"><path d="M201.623,267.669H174.8V240.842h26.827Zm-26.078-.749h25.33v-25.33h-25.33Z" transform="translate(-174.796 -240.842)" fill="#e8505b"/><g transform="translate(5.335 1.699)"><path d="M181.923,255.378l3.561-3.825,5.936,4.748,13.586-13.19,3.255,3.836-17.1,16.872Z" transform="translate(-181.923 -243.112)" fill="#e8505b"/></g><g transform="translate(38.213 6.284)"><path d="M309.256,249.432c0,.108-18.673.195-41.7.195s-41.707-.087-41.707-.195,18.669-.195,41.707-.195S309.256,249.324,309.256,249.432Z" transform="translate(-225.847 -249.237)" fill="#263238"/></g><g transform="translate(38.213 11.858)"><path d="M309.256,256.879c0,.108-18.673.2-41.7.2s-41.707-.088-41.707-.2,18.669-.195,41.707-.195S309.256,256.772,309.256,256.879Z" transform="translate(-225.847 -256.684)" fill="#263238"/></g><g transform="translate(38.213 17.433)"><path d="M309.256,264.326c0,.108-18.673.2-41.7.2s-41.707-.088-41.707-.2,18.669-.195,41.707-.195S309.256,264.219,309.256,264.326Z" transform="translate(-225.847 -264.131)" fill="#263238"/></g><g transform="translate(38.213 23.007)"><path d="M309.256,271.773c0,.108-18.673.195-41.7.195s-41.707-.087-41.707-.195,18.669-.2,41.707-.2S309.256,271.666,309.256,271.773Z" transform="translate(-225.847 -271.578)" fill="#263238"/></g></g><g transform="translate(27.743 182.365)"><path d="M201.623,319.274H174.8V292.448h26.827Zm-26.078-.749h25.33V293.2h-25.33Z" transform="translate(-174.796 -292.448)" fill="#e8505b"/><g transform="translate(5.335 1.699)"><path d="M181.923,306.984l3.561-3.825,5.936,4.748,13.586-13.19,3.255,3.836-17.1,16.872Z" transform="translate(-181.923 -294.717)" fill="#e8505b"/></g><g transform="translate(38.213 6.283)"><path d="M309.256,301.037c0,.107-18.673.195-41.7.195s-41.707-.088-41.707-.195,18.669-.2,41.707-.2S309.256,300.93,309.256,301.037Z" transform="translate(-225.847 -300.842)" fill="#263238"/></g><g transform="translate(38.213 11.857)"><path d="M309.256,308.484c0,.108-18.673.195-41.7.195s-41.707-.087-41.707-.195,18.669-.2,41.707-.2S309.256,308.377,309.256,308.484Z" transform="translate(-225.847 -308.289)" fill="#263238"/></g><g transform="translate(38.213 17.433)"><path d="M309.256,315.932c0,.108-18.673.195-41.7.195s-41.707-.087-41.707-.195,18.669-.195,41.707-.195S309.256,315.824,309.256,315.932Z" transform="translate(-225.847 -315.737)" fill="#263238"/></g><g transform="translate(38.213 23.007)"><path d="M309.256,323.379c0,.108-18.673.2-41.7.2s-41.707-.088-41.707-.2,18.669-.195,41.707-.195S309.256,323.272,309.256,323.379Z" transform="translate(-225.847 -323.184)" fill="#263238"/></g></g><g transform="translate(124.238 210.643)"><path d="M321.166,330.226l-17.457,36.155h12.464Z" transform="translate(-303.708 -330.226)" fill="#e0e0e0"/></g><g transform="translate(136.701 210.607)"><g transform="translate(0.001 0.239)"><path d="M320.36,366.653l4.993-36.155,28.627,8.835Z" transform="translate(-320.36 -330.498)" fill="#fafafa"/></g><path d="M320.36,366.573l9.626-7.923,23.874-19.544.064.329-11.053-3.406L325.3,330.594l.236-.15c-1.5,10.5-2.778,19.5-3.689,25.892-.9,6.217-1.368,9.426-1.486,10.237a1.419,1.419,0,0,1,.016-.16l.064-.5c.061-.468.147-1.126.257-1.969.231-1.756.564-4.281.983-7.452.862-6.446,2.076-15.513,3.492-26.1l.028-.214.207.064,17.579,5.413,11.05,3.415.342.106-.278.225-24.163,19.49-7.056,5.67L321,366.07l-.482.383C320.41,366.537,320.357,366.578,320.36,366.573Z" transform="translate(-320.359 -330.179)" fill="#263238"/></g><g transform="translate(104.618)" opacity="0.3"><path d="M279.567,48.818,277.5,60.869h2.577l2.085-12.051h-3.282" transform="translate(-277.498 -48.818)"/></g></g><g transform="translate(85.885 119.894)"><g transform="translate(18.325 6.016)"><g transform="translate(11.588 9.933)"><path d="M131.522,205.158h0a6.733,6.733,0,0,0,7.243-6.456c.141-3.666.264-7.371.264-7.371s5.554-.52,5.957-6.017.219-18.187.219-18.187h0a19.155,19.155,0,0,0-19.358,1.245l.342,19.346v10.408C126.226,201.617,128.04,204.891,131.522,205.158Z" transform="translate(-125.847 -165.078)" fill="#ffbe9d"/></g><g transform="translate(8.732 5.324)"><path d="M138.548,177.055a2.817,2.817,0,0,0-3.756-.82,3.2,3.2,0,0,0-1.064,3.995,4.209,4.209,0,0,0,2.7,2.039,2.112,2.112,0,0,1,1.653,2.273,7.037,7.037,0,0,1-1.93,3.828,10.148,10.148,0,0,1-6.363,3.014c-2.341.277-5.023-.211-6.385-2.136-.991-1.4-1.063-3.23-1.1-4.945l-.251-12.159a17.426,17.426,0,0,1,.277-4.362,5.857,5.857,0,0,1,2.3-3.608c1.337-.88,3.031-.954,4.554-1.447,1.9-.616,3.52-1.879,5.3-2.79s3.964-1.456,5.752-.558c1.284.644,2.145,1.925,3.392,2.635,1.778,1.011,4.2.781,5.06,3.395a4.43,4.43,0,0,1-.03,2.8c-1.205,3.556-5.609,4.99-8.782,3.453-.062.6.531,1.943-.1,3.846-.2.608-.275,1.535-1.225,1.552" transform="translate(-122.033 -158.92)" fill="#263238"/></g><g transform="translate(0.743)"><path d="M120.695,163.951a18.721,18.721,0,0,0,1.767-5.522,6.328,6.328,0,0,0-1.733-5.336,5.206,5.206,0,0,0-3.624-1.282,6.128,6.128,0,0,0-5.523,4.377,6.6,6.6,0,0,0,2.222,6.762,7.155,7.155,0,0,0,7.122.929" transform="translate(-111.359 -151.808)" fill="#263238"/></g><g transform="translate(8.553 10.137)"><path d="M124.4,165.352a2.707,2.707,0,0,1-2.6,2.544c-.027-.112.8-.332,1.522-1.047C124.048,166.149,124.288,165.323,124.4,165.352Z" transform="translate(-121.793 -165.351)" fill="#e8505b"/></g><g transform="translate(3.092 6.483)"><path d="M120.756,165.467a5.166,5.166,0,0,1-1.493,1.092,4.314,4.314,0,0,1-1.967.557A2.738,2.738,0,0,1,115,166.087a3.055,3.055,0,0,1-.406-2.486,4.833,4.833,0,0,1,.924-1.82,5.7,5.7,0,0,1,1.3-1.311,17.535,17.535,0,0,1-1.079,1.474,4.944,4.944,0,0,0-.8,1.735,2.776,2.776,0,0,0,.371,2.177,2.428,2.428,0,0,0,1.979.9,4.316,4.316,0,0,0,1.845-.445C120.142,165.828,120.719,165.409,120.756,165.467Z" transform="translate(-114.498 -160.468)" fill="#263238"/></g><g transform="translate(0 12.127)"><path d="M110.374,173.572a2.419,2.419,0,0,1,.267.609,6.286,6.286,0,0,0,.81,1.566,2.272,2.272,0,0,0,2.153.99,2.953,2.953,0,0,0,2.071-2.086,21.5,21.5,0,0,0,.563-3.193,4.931,4.931,0,0,1,1.049-2.518,2.7,2.7,0,0,1,1.6-.913,1.057,1.057,0,0,1,.673.057c0,.037-.243-.01-.644.092a2.723,2.723,0,0,0-1.42.942,4.864,4.864,0,0,0-.9,2.4,19.079,19.079,0,0,1-.548,3.262,3.271,3.271,0,0,1-2.377,2.313,2.192,2.192,0,0,1-1.49-.288,3.1,3.1,0,0,1-.947-.892,5.4,5.4,0,0,1-.732-1.683A2.057,2.057,0,0,1,110.374,173.572Z" transform="translate(-110.366 -168.008)" fill="#263238"/></g></g><g transform="translate(14.386 69.885)"><path d="M106.349,237.134s-2.8,20.525,0,23.127,5.5,1.738,5.5,1.738l5.335-4.461,1.05-20.4Z" transform="translate(-105.103 -237.134)" fill="#ffbe9d"/></g><g transform="translate(59.986)"><g transform="translate(13.623)"><path d="M184.223,156.038l3.561-3.825,5.936,4.748,13.586-13.19,3.255,3.836-17.1,16.872Z" transform="translate(-184.223 -143.772)" fill="#e8505b"/></g><g transform="translate(0 13.308)"><path d="M196.381,161.551l-5.165,3.314c-.233-2.041-1.792-4.065-1.712-3.04s.01,6.346.01,6.346L180.3,187.553a9.18,9.18,0,0,1-5.683,5.456l-8.6,2.556,3.361,11.366,11.95-3.962a10.3,10.3,0,0,0,6.549-6.568l8.237-25.093a38.927,38.927,0,0,0,1.332-4.944C197.8,164.272,196.381,161.551,196.381,161.551Z" transform="translate(-166.023 -161.55)" fill="#ffbe9d"/></g></g><g transform="translate(37.075 219.526)"><g transform="translate(0.057)"><path d="M146.386,442.794l-.129-5.747-10.766.172.1,8.41.668.032c2.973.118,15.127.388,17.1-.246C155.567,444.707,146.386,442.794,146.386,442.794Z" transform="translate(-135.491 -437.047)" fill="#e8505b"/><g transform="translate(0.061 5.403)" opacity="0.5"><path d="M139.512,447.3a3.735,3.735,0,0,0-1.41-2.274,3.632,3.632,0,0,0-2.529-.743l.046,3.009Z" transform="translate(-135.573 -444.265)" fill="#fff"/></g></g><g transform="translate(0.156 6.842)" opacity="0.4"><path d="M150.907,446.187s3.221.874,2.829,1.408-12.685.723-18.114.332l.013-.241,14.34-.1S150.281,446.223,150.907,446.187Z" transform="translate(-135.623 -446.187)" fill="#fff"/></g><g transform="translate(0 8.065)"><path d="M135.415,448.094a.986.986,0,0,0,.186.017l.531.024,1.958.054c1.654.034,3.94.051,6.463.014s4.809-.12,6.461-.2l1.955-.112.531-.04a1.01,1.01,0,0,0,.185-.022.97.97,0,0,0-.186,0l-.532.015-1.957.07c-1.653.059-3.936.128-6.458.165s-4.806.034-6.46.024l-1.958-.013H135.6A.981.981,0,0,0,135.415,448.094Z" transform="translate(-135.415 -447.822)" fill="#263238"/></g><g transform="translate(14.488 6.708)"><path d="M154.791,447.71a2.851,2.851,0,0,1,1.007-1.7,1.741,1.741,0,0,0-1.007,1.7Z" transform="translate(-154.77 -446.009)" fill="#263238"/></g><g transform="translate(11.302 5.941)"><path d="M150.519,445.89c.031.02.18-.168.333-.418s.253-.468.222-.487-.18.168-.333.418S150.488,445.871,150.519,445.89Z" transform="translate(-150.514 -444.984)" fill="#263238"/></g><g transform="translate(10.426 5.782)"><path d="M149.346,445.389c.025.026.193-.09.376-.259s.311-.329.287-.356-.192.09-.375.26S149.322,445.362,149.346,445.389Z" transform="translate(-149.343 -444.771)" fill="#263238"/></g><g transform="translate(9.862 5.324)"><path d="M148.59,444.227a2.461,2.461,0,1,0,.562-.067A1.275,1.275,0,0,0,148.59,444.227Z" transform="translate(-148.59 -444.16)" fill="#263238"/></g><g transform="translate(9.662 4.667)"><path d="M148.323,443.293a1.579,1.579,0,0,0,1.275.076,44.523,44.523,0,0,1-1.275-.076Z" transform="translate(-148.322 -443.282)" fill="#263238"/></g><g transform="translate(11.658 4.913)"><path d="M150.99,444.6a1.971,1.971,0,0,0,.692-.015,4.011,4.011,0,0,0,.734-.174,2.024,2.024,0,0,0,.419-.18.374.374,0,0,0,.168-.217.272.272,0,0,0-.109-.275,1.268,1.268,0,0,0-1.563.394,1.24,1.24,0,0,0-.219.466c-.026.119-.023.186-.015.187a1.919,1.919,0,0,1,.305-.6,1.251,1.251,0,0,1,.585-.393,1.073,1.073,0,0,1,.826.043c.111.079.07.21-.051.284a2.109,2.109,0,0,1-.386.172,4.815,4.815,0,0,1-.71.2C151.253,444.574,150.989,444.579,150.99,444.6Z" transform="translate(-150.99 -443.611)" fill="#263238"/></g><g transform="translate(10.919 4.605)"><path d="M150.921,444.528a.683.683,0,0,0,.073-.481,1.133,1.133,0,0,0-.2-.5.7.7,0,0,0-.582-.344.276.276,0,0,0-.208.323.755.755,0,0,0,.122.308,2.1,2.1,0,0,0,.334.414,1.009,1.009,0,0,0,.4.274c.012-.017-.139-.122-.334-.338a2.4,2.4,0,0,1-.3-.411c-.1-.144-.166-.406.007-.44s.352.15.46.287a1.133,1.133,0,0,1,.2.447A2.491,2.491,0,0,1,150.921,444.528Z" transform="translate(-150.002 -443.199)" fill="#263238"/></g><g transform="translate(0.174 5.307)"><path d="M135.648,444.218c0,.024.308-.034.8.016a3.373,3.373,0,0,1,2.854,2.2c.171.459.192.769.216.766a.623.623,0,0,0,0-.218,2.823,2.823,0,0,0-.127-.579,3.273,3.273,0,0,0-2.934-2.266,2.893,2.893,0,0,0-.592.024A.614.614,0,0,0,135.648,444.218Z" transform="translate(-135.648 -444.136)" fill="#263238"/></g><g transform="translate(1.162 0.89)"><path d="M137.027,438.236a37.653,37.653,0,0,0,.012,4.426,37.634,37.634,0,0,0-.012-4.426Z" transform="translate(-136.968 -438.236)" fill="#263238"/></g><g transform="translate(5.397 7.332)"><path d="M142.625,446.875a8.844,8.844,0,0,0,3.147-.019c0-.038-.707.016-1.573.019S142.629,446.837,142.625,446.875Z" transform="translate(-142.625 -446.843)" fill="#263238"/></g><g transform="translate(3.282 7.389)"><path d="M139.8,446.923c-.026.026.06.147.134.308s.115.3.153.3.052-.171-.034-.356S139.827,446.9,139.8,446.923Z" transform="translate(-139.8 -446.919)" fill="#263238"/></g><g transform="translate(2.471 6.411)"><path d="M138.721,445.617c-.025.026.046.136.159.248s.225.18.251.155-.046-.137-.159-.248S138.747,445.592,138.721,445.617Z" transform="translate(-138.716 -445.612)" fill="#263238"/></g><g transform="translate(1.33 5.917)"><path d="M137.193,445.016c.008.037.151.033.311.086s.274.136.3.111-.064-.172-.262-.235S137.182,444.983,137.193,445.016Z" transform="translate(-137.192 -444.952)" fill="#263238"/></g><g transform="translate(0.516 5.755)"><path d="M136.106,444.761c-.013.034.05.088.14.121s.173.033.186,0-.05-.088-.141-.122S136.119,444.728,136.106,444.761Z" transform="translate(-136.105 -444.736)" fill="#263238"/></g></g><g transform="translate(0 212.103)"><path d="M95.918,438.462l3.651-4.44-8.274-6.892-5.41,6.44.486.46C88.548,436.058,97.585,444.19,99.5,445,101.63,445.9,95.918,438.462,95.918,438.462Z" transform="translate(-85.885 -427.13)" fill="#e8505b"/><g transform="translate(0.107 4.018)" opacity="0.5"><path d="M88.975,437.354a3.737,3.737,0,0,0,.414-2.644,3.631,3.631,0,0,0-1.433-2.212l-1.927,2.311Z" transform="translate(-86.028 -432.498)" fill="#fff"/></g><g transform="translate(0 6.266)" opacity="0.4"><path d="M98.607,444.324s1.871,2.763,1.226,2.913-10.087-7.724-13.948-11.561l.168-.174,10.935,9.278S98.109,443.943,98.607,444.324Z" transform="translate(-85.885 -435.501)" fill="#fff"/></g><g transform="translate(0.042 6.153)"><path d="M85.941,435.35a1.049,1.049,0,0,0,.129.134l.388.365,1.449,1.318c1.231,1.1,2.953,2.607,4.889,4.225s3.724,3.044,5.03,4.059l1.555,1.191.429.317a1.121,1.121,0,0,0,.154.1.947.947,0,0,0-.138-.124l-.413-.336-1.529-1.223c-1.29-1.033-3.066-2.47-5-4.087s-3.666-3.109-4.913-4.195l-1.476-1.287-.4-.347A.951.951,0,0,0,85.941,435.35Z" transform="translate(-85.941 -435.35)" fill="#263238"/></g><g transform="translate(10.991 14.963)"><path d="M100.57,447.827a4.446,4.446,0,0,1,.88-.483,4.388,4.388,0,0,1,.992-.148,1.742,1.742,0,0,0-1.871.631Z" transform="translate(-100.568 -447.12)" fill="#263238"/></g><g transform="translate(9.585 12.063)"><path d="M98.691,443.58a1.135,1.135,0,0,0,.525-.1c.279-.09.5-.19.486-.225a1.145,1.145,0,0,0-.525.1C98.9,443.446,98.68,443.546,98.691,443.58Z" transform="translate(-98.69 -443.245)" fill="#263238"/></g><g transform="translate(9.211 11.402)"><path d="M98.19,442.446c0,.036.205.058.454.049s.45-.046.448-.082-.2-.058-.454-.049S98.189,442.41,98.19,442.446Z" transform="translate(-98.19 -442.362)" fill="#263238"/></g><g transform="translate(9.437 10.349)"><path d="M98.494,440.959c-.024.028.149.213.385.415s.447.343.47.315-.149-.213-.385-.415S98.517,440.931,98.494,440.959Z" transform="translate(-98.492 -440.955)" fill="#263238"/></g><g transform="translate(9.748 9.679)"><path d="M98.913,440.063a1.581,1.581,0,0,0,.917.889c.019-.032-.213-.2-.462-.442S98.944,440.042,98.913,440.063Z" transform="translate(-98.908 -440.061)" fill="#263238"/></g><g transform="translate(10.427 11.748)"><path d="M99.855,442.987a2,2,0,0,0,.534.44,4.064,4.064,0,0,0,.669.347,2.04,2.04,0,0,0,.436.137.375.375,0,0,0,.269-.055.272.272,0,0,0,.1-.28,1.269,1.269,0,0,0-1.442-.72,1.244,1.244,0,0,0-.469.21c-.1.073-.138.127-.133.132a1.97,1.97,0,0,1,.62-.251,1.246,1.246,0,0,1,.7.083,1.07,1.07,0,0,1,.6.571c.033.133-.083.205-.224.183a2.077,2.077,0,0,1-.4-.121,4.747,4.747,0,0,1-.666-.314C100.072,443.139,99.869,442.971,99.855,442.987Z" transform="translate(-99.814 -442.824)" fill="#263238"/></g><g transform="translate(10.412 10.55)"><path d="M99.966,442.726c0,.013.194-.058.369-.317a1.14,1.14,0,0,0,.178-.509.694.694,0,0,0-.216-.64.275.275,0,0,0-.368.109.756.756,0,0,0-.108.313,2.094,2.094,0,0,0-.017.531.991.991,0,0,0,.125.469c.019-.005-.027-.183-.033-.474a2.427,2.427,0,0,1,.043-.5c.021-.173.139-.416.293-.329a.617.617,0,0,1,.162.517,1.126,1.126,0,0,1-.138.471A2.555,2.555,0,0,1,99.966,442.726Z" transform="translate(-99.794 -441.224)" fill="#263238"/></g><g transform="translate(2.097 4.03)"><path d="M88.687,432.515c-.013.02.256.175.593.531a3.372,3.372,0,0,1,.726,3.533c-.169.46-.356.708-.335.721s.059-.052.14-.166a2.9,2.9,0,0,0,.281-.521,3.274,3.274,0,0,0-.746-3.631,2.836,2.836,0,0,0-.465-.368A.614.614,0,0,0,88.687,432.515Z" transform="translate(-88.686 -432.514)" fill="#263238"/></g><g transform="translate(2.946 1.303)"><path d="M92.7,428.872a37.686,37.686,0,0,0-2.877,3.363,18.8,18.8,0,0,0,1.489-1.639A18.621,18.621,0,0,0,92.7,428.872Z" transform="translate(-89.821 -428.871)" fill="#263238"/></g><g transform="translate(4.766 8.934)"><path d="M92.254,439.067a8.833,8.833,0,0,0,2.4,2.038c.021-.031-.546-.448-1.206-1.011S92.281,439.04,92.254,439.067Z" transform="translate(-92.253 -439.066)" fill="#263238"/></g><g transform="translate(2.962 7.581)"><path d="M90.028,437.258c-.037,0-.051.151-.1.321s-.109.3-.079.327.152-.1.205-.292S90.063,437.253,90.028,437.258Z" transform="translate(-89.842 -437.258)" fill="#263238"/></g><g transform="translate(3.126 6.312)"><path d="M90.107,435.562c-.036,0-.055.134-.041.292s.053.284.089.281.055-.134.041-.292S90.143,435.559,90.107,435.562Z" transform="translate(-90.061 -435.562)" fill="#263238"/></g><g transform="translate(2.585 5.226)"><path d="M89.34,434.121c-.017.033.094.123.179.268s.12.281.157.281.063-.172-.046-.349S89.354,434.089,89.34,434.121Z" transform="translate(-89.339 -434.112)" fill="#263238"/></g><g transform="translate(2.084 4.549)"><path d="M88.687,433.211c-.031.018-.019.1.027.183s.109.138.141.12.019-.1-.027-.183S88.719,433.194,88.687,433.211Z" transform="translate(-88.67 -433.208)" fill="#263238"/></g></g><g transform="translate(0.906 96.975)"><g transform="translate(0 5.512)"><path d="M118.629,281.361s-3.584,15.168-2.57,18.168,7.582,4.735,7.582,4.735l-.222,41.533L87.1,390.695l13.413,10.973s39.32-44.981,42.787-53.126-2.21-67.854-2.21-67.854Z" transform="translate(-87.096 -280.689)" fill="#263238"/></g><g transform="translate(19.738)"><path d="M143.811,273.325l1.778,126.148-18.478.094-9.273-102.741h0c-1.96-1.871-4.717-5.075-4.338-12.221l.451-8.3Z" transform="translate(-113.465 -273.325)" fill="#263238"/></g><g transform="translate(30.601 25.531)"><path d="M127.978,359.546a.707.707,0,0,1,.106-.187l.351-.517,1.374-1.943,5.013-6.94-.031.1c-.4-4.378-.89-9.688-1.416-15.413-.67-7.5-1.213-14.3-1.533-19.227-.163-2.463-.271-4.458-.33-5.837-.022-.659-.04-1.187-.054-1.588a2.946,2.946,0,0,1,.007-.555,2.953,2.953,0,0,1,.07.551c.032.4.075.927.128,1.584.11,1.419.264,3.4.453,5.826.39,4.919.977,11.711,1.647,19.213.5,5.745,1.017,11.046,1.349,15.447l0,.049-.035.046-5.123,6.859-1.444,1.891-.389.49C128.034,359.5,127.984,359.55,127.978,359.546Z" transform="translate(-127.977 -307.433)" fill="#455a64"/></g><g transform="translate(26.609 23.486)"><path d="M132.308,306.746a25.2,25.2,0,0,1-4.892-.728,25.191,25.191,0,0,1-4.772-1.3,41.9,41.9,0,0,1,4.852.921A41.853,41.853,0,0,1,132.308,306.746Z" transform="translate(-122.644 -304.701)" fill="#455a64"/></g><g transform="translate(38.806 66.877)"><path d="M149.062,364.392a18.8,18.8,0,0,0-4.99-1.3,18.825,18.825,0,0,0-5.133.5,4.223,4.223,0,0,1,1.44-.564,11.35,11.35,0,0,1,7.35.583A4.22,4.22,0,0,1,149.062,364.392Z" transform="translate(-138.939 -362.669)" fill="#455a64"/></g><g transform="translate(31.919 74.445)"><path d="M153.266,372.781c.085.065-5.112,7.041-11.608,15.58s-11.834,15.411-11.919,15.346,5.111-7.04,11.609-15.581S153.18,372.716,153.266,372.781Z" transform="translate(-129.738 -372.78)" fill="#455a64"/></g><g transform="translate(43.636 8.389)"><path d="M154.7,285.515a3.1,3.1,0,0,1-1.04,1.372,5.148,5.148,0,0,1-7.532-.794,3.1,3.1,0,0,1-.731-1.559,16.208,16.208,0,0,0,.945,1.385,5.132,5.132,0,0,0,7.144.754A16.234,16.234,0,0,0,154.7,285.515Z" transform="translate(-145.391 -284.533)" fill="#455a64"/></g></g><g transform="translate(23.585 18.967)"><path d="M122.411,191.584a16.114,16.114,0,0,1-.874-22.473" transform="translate(-117.393 -169.111)" fill="#263238"/></g><g transform="translate(13.379 44.683)"><g transform="translate(0 8.525)"><path d="M108.6,214.855s-4.014,4.534-4.846,21.88c0,0,11.432,2.169,11.641,1.545S108.6,214.855,108.6,214.855Z" transform="translate(-103.759 -214.855)" fill="#e8505b"/></g><g transform="translate(0 8.525)" opacity="0.3"><path d="M108.6,214.855s-4.014,4.534-4.846,21.88c0,0,11.432,2.169,11.641,1.545S108.6,214.855,108.6,214.855Z" transform="translate(-103.759 -214.855)"/></g><g transform="translate(3.59)"><g transform="translate(4.488 30.405)"><path d="M114.551,244.085" transform="translate(-114.551 -244.085)" fill="#455a64"/></g><path d="M111.663,262.5h35.1l-.567-5.482s-4.011-20.859-3.981-21.134l.632-1.328A13.231,13.231,0,0,0,143,223.523h0l17.186-5.877-4.208-14.18c-7.8,1.317-19.586,2.785-19.586,2.785l-1.755.147s-12.168.634-12.428.665c-5.091.615-11.013,1.006-13.178,6.454-1.157,2.913-.058,7.286,1.832,11.794l4.5,13.846c1.8,7.61-1.07,7.249-2.644,14.909C112.478,255.224,111.64,261.442,111.663,262.5Z" transform="translate(-108.555 -203.466)" fill="#e8505b"/><g opacity="0.3"><path d="M111.663,262.5h35.1l-.567-5.482s-4.011-20.859-3.981-21.134l.632-1.328A13.231,13.231,0,0,0,143,223.523h0l17.186-5.877-4.208-14.18c-7.8,1.317-19.586,2.785-19.586,2.785l-1.755.147s-12.168.634-12.428.665c-5.091.615-11.013,1.006-13.178,6.454-1.157,2.913-.058,7.286,1.832,11.794l4.5,13.846c1.8,7.61-1.07,7.249-2.644,14.909C112.478,255.224,111.64,261.442,111.663,262.5Z" transform="translate(-108.555 -203.466)"/></g></g><g transform="translate(35.327 14.404)"><path d="M170.684,222.715a3.375,3.375,0,0,1-.763.32c-.5.183-1.224.434-2.123.737-1.8.607-4.292,1.412-7.047,2.292s-5.218,1.757-6.967,2.479c-.877.354-1.575.67-2.062.878a3.388,3.388,0,0,1-.769.3,3.424,3.424,0,0,1,.7-.439c.469-.251,1.152-.606,2.021-.995a66.324,66.324,0,0,1,6.955-2.6c2.758-.883,5.264-1.645,7.083-2.184.909-.269,1.648-.481,2.16-.618A3.389,3.389,0,0,1,170.684,222.715Z" transform="translate(-150.953 -222.71)" fill="#263238"/></g><g transform="translate(6.666 6.666)"><path d="M159.016,212.566c0,.108-10.377.195-23.175.195s-23.177-.087-23.177-.195,10.375-.195,23.177-.195S159.016,212.458,159.016,212.566Z" transform="translate(-112.665 -212.371)" fill="#fafafa"/></g><g transform="translate(2.507 13.559)"><path d="M158.689,221.775c0,.108-11.548.195-25.789.195s-25.791-.087-25.791-.195,11.545-.195,25.791-.195S158.689,221.667,158.689,221.775Z" transform="translate(-107.108 -221.58)" fill="#fafafa"/></g><g transform="translate(1.081 21.403)"><path d="M109.5,232.254a11.917,11.917,0,0,1-4.3,0,11.963,11.963,0,0,1,4.3,0Z" transform="translate(-105.203 -232.059)" fill="#fafafa"/></g><g transform="translate(5.379 21.64)"><path d="M144.678,232.571c0,.107-7.552.195-16.866.195s-16.867-.088-16.867-.195,7.55-.2,16.867-.2S144.678,232.464,144.678,232.571Z" transform="translate(-110.945 -232.376)" fill="#fafafa"/></g><g transform="translate(8.093 29.722)"><path d="M144.847,243.368c0,.108-6.778.2-15.138.2s-15.138-.088-15.138-.2,6.776-.195,15.138-.195S144.847,243.261,144.847,243.368Z" transform="translate(-114.571 -243.173)" fill="#fafafa"/></g><g transform="translate(10.708 37.209)"><path d="M145.506,253.371c0,.108-6.144.2-13.721.2s-13.721-.088-13.721-.2,6.142-.195,13.721-.195S145.506,253.263,145.506,253.371Z" transform="translate(-118.064 -253.176)" fill="#fafafa"/></g><g transform="translate(9.994 43.27)"><path d="M146.467,261.468c0,.108-6.572.195-14.677.195s-14.679-.087-14.679-.195,6.571-.2,14.679-.2S146.467,261.361,146.467,261.468Z" transform="translate(-117.111 -261.273)" fill="#fafafa"/></g><g transform="translate(7.855 50.996)"><path d="M147.649,271.789c0,.108-7.476.2-16.7.2s-16.7-.088-16.7-.2,7.475-.195,16.7-.195S147.649,271.681,147.649,271.789Z" transform="translate(-114.253 -271.594)" fill="#fafafa"/></g><g transform="translate(3.978 16.918)"><path d="M115.28,244.194a2.85,2.85,0,0,1-.31-.69q-.309-.8-.738-1.915c-.618-1.619-1.487-3.85-2.392-6.339s-1.654-4.77-2.126-6.442c-.234-.837-.411-1.517-.511-1.993a2.814,2.814,0,0,1-.123-.747,27.476,27.476,0,0,1,.9,2.66c.537,1.646,1.322,3.905,2.229,6.389s1.732,4.732,2.284,6.378c.278.822.489,1.493.623,1.96A2.861,2.861,0,0,1,115.28,244.194Z" transform="translate(-109.073 -226.068)" fill="#263238"/></g></g></g></g></g></g></svg>