<svg xmlns="http://www.w3.org/2000/svg" width="98.643" height="94.109" viewBox="0 0 98.643 94.109"><path d="M5.182,0h88.28a5.182,5.182,0,0,1,5.182,5.182V78.818A5.182,5.182,0,0,1,93.462,84H5.181A5.181,5.181,0,0,1,0,78.819V5.182A5.182,5.182,0,0,1,5.182,0Z" transform="translate(0 10.11)" fill="#ea5f21"/><g transform="translate(3.084 14.665)"><rect width="44.521" height="76.527" fill="#808285"/><rect width="44.521" height="76.527" transform="translate(47.957)" fill="#808285"/></g><g transform="translate(3.7 13.764)"><rect width="43.927" height="76.527" fill="#fff"/><rect width="43.927" height="76.527" transform="translate(47.318)" fill="#fff"/></g><g transform="translate(41.771 16.148)"><path d="M532.979,449.111c0,1.742-.965,3.156-2.156,3.156s-2.158-1.414-2.158-3.156.967-3.158,2.158-3.158S532.979,447.367,532.979,449.111Z" transform="translate(-528.664 -445.953)" fill="#a7a9ac"/><path d="M532.979,455.919c0,1.744-.965,3.158-2.156,3.158s-2.158-1.414-2.158-3.158.967-3.154,2.158-3.154S532.979,454.177,532.979,455.919Z" transform="translate(-528.664 -439.696)" fill="#a7a9ac"/><path d="M532.979,462.733c0,1.742-.965,3.154-2.156,3.154s-2.158-1.412-2.158-3.154.967-3.158,2.158-3.158S532.979,460.989,532.979,462.733Z" transform="translate(-528.664 -433.44)" fill="#a7a9ac"/><path d="M532.979,469.542c0,1.744-.965,3.158-2.156,3.158s-2.158-1.414-2.158-3.158.967-3.156,2.158-3.156S532.979,467.8,532.979,469.542Z" transform="translate(-528.664 -427.184)" fill="#a7a9ac"/><path d="M532.979,476.354c0,1.744-.965,3.156-2.156,3.156s-2.158-1.412-2.158-3.156.967-3.158,2.158-3.158S532.979,474.612,532.979,476.354Z" transform="translate(-528.664 -420.928)" fill="#a7a9ac"/><path d="M532.979,483.162c0,1.746-.965,3.158-2.156,3.158s-2.158-1.412-2.158-3.158.967-3.154,2.158-3.154S532.979,481.42,532.979,483.162Z" transform="translate(-528.664 -414.671)" fill="#a7a9ac"/></g><g transform="translate(53.484 16.442)"><path d="M539.084,449.264c0,1.742-.965,3.158-2.156,3.158s-2.158-1.416-2.158-3.158.967-3.158,2.158-3.158S539.084,447.52,539.084,449.264Z" transform="translate(-534.769 -446.106)" fill="#a7a9ac"/><path d="M539.084,456.075c0,1.744-.965,3.156-2.156,3.156s-2.158-1.412-2.158-3.156.967-3.158,2.158-3.158S539.084,454.331,539.084,456.075Z" transform="translate(-534.769 -439.85)" fill="#a7a9ac"/><path d="M539.084,462.883c0,1.744-.965,3.158-2.156,3.158s-2.158-1.414-2.158-3.158.967-3.154,2.158-3.154S539.084,461.141,539.084,462.883Z" transform="translate(-534.769 -433.592)" fill="#a7a9ac"/><path d="M539.084,469.7c0,1.742-.965,3.154-2.156,3.154s-2.158-1.412-2.158-3.154.967-3.158,2.158-3.158S539.084,467.951,539.084,469.7Z" transform="translate(-534.769 -427.337)" fill="#a7a9ac"/><path d="M539.084,476.506c0,1.742-.965,3.158-2.156,3.158s-2.158-1.416-2.158-3.158.967-3.156,2.158-3.156S539.084,474.762,539.084,476.506Z" transform="translate(-534.769 -421.08)" fill="#a7a9ac"/><path d="M539.084,483.318c0,1.744-.965,3.156-2.156,3.156s-2.158-1.412-2.158-3.156.967-3.158,2.158-3.158S539.084,481.576,539.084,483.318Z" transform="translate(-534.769 -414.825)" fill="#a7a9ac"/></g><g transform="translate(44.198 18.404)"><path d="M539.917,450.579h-8.263a1.73,1.73,0,0,1-1.725-1.727h0a1.729,1.729,0,0,1,1.725-1.723h8.263a1.731,1.731,0,0,1,1.727,1.723h0A1.732,1.732,0,0,1,539.917,450.579Z" transform="translate(-529.929 -447.129)" fill="#808285"/><path d="M539.917,457.283h-8.263a1.73,1.73,0,0,1-1.725-1.725h0a1.73,1.73,0,0,1,1.725-1.725h8.263a1.731,1.731,0,0,1,1.727,1.725h0A1.731,1.731,0,0,1,539.917,457.283Z" transform="translate(-529.929 -440.971)" fill="#808285"/><path d="M539.917,463.987h-8.263a1.729,1.729,0,0,1-1.725-1.723h0a1.73,1.73,0,0,1,1.725-1.727h8.263a1.732,1.732,0,0,1,1.727,1.727h0A1.731,1.731,0,0,1,539.917,463.987Z" transform="translate(-529.929 -434.813)" fill="#808285"/><path d="M539.917,470.693h-8.263a1.731,1.731,0,0,1-1.725-1.725h0a1.731,1.731,0,0,1,1.725-1.727h8.263a1.733,1.733,0,0,1,1.727,1.727h0A1.733,1.733,0,0,1,539.917,470.693Z" transform="translate(-529.929 -428.655)" fill="#808285"/><path d="M539.917,477.4h-8.263a1.731,1.731,0,0,1-1.725-1.725h0a1.733,1.733,0,0,1,1.725-1.727h8.263a1.734,1.734,0,0,1,1.727,1.727h0A1.732,1.732,0,0,1,539.917,477.4Z" transform="translate(-529.929 -422.497)" fill="#808285"/><path d="M539.917,484.1h-8.263a1.73,1.73,0,0,1-1.725-1.725h0a1.733,1.733,0,0,1,1.725-1.727h8.263a1.734,1.734,0,0,1,1.727,1.727h0A1.731,1.731,0,0,1,539.917,484.1Z" transform="translate(-529.929 -416.338)" fill="#808285"/></g><g transform="translate(6.629 20.057)"><rect width="8.978" height="5.025" fill="#ed1c24"/><rect width="8.978" height="5.025" transform="translate(24.623)" fill="#bcbec0"/><g transform="translate(0 9.194)"><rect width="33.601" height="0.506" fill="#bcbec0"/><rect width="33.601" height="0.506" transform="translate(0 7.431)" fill="#bcbec0"/><rect width="33.601" height="0.506" transform="translate(0 14.862)" fill="#bcbec0"/><rect width="33.601" height="0.506" transform="translate(0 22.292)" fill="#bcbec0"/><rect width="33.601" height="0.504" transform="translate(0 29.723)" fill="#bcbec0"/><rect width="33.601" height="0.504" transform="translate(0 37.154)" fill="#bcbec0"/><rect width="33.601" height="0.504" transform="translate(0 44.584)" fill="#bcbec0"/><rect width="33.601" height="0.504" transform="translate(0 52.015)" fill="#bcbec0"/></g></g><g transform="translate(59.955 20.057)"><rect width="8.978" height="5.025" transform="translate(24.625)" fill="#ed1c24"/><rect width="8.98" height="5.025" fill="#bcbec0"/><g transform="translate(0 9.194)"><rect width="33.603" height="0.506" fill="#bcbec0"/><rect width="33.603" height="0.506" transform="translate(0 7.431)" fill="#bcbec0"/><rect width="33.603" height="0.506" transform="translate(0 14.862)" fill="#bcbec0"/><rect width="33.603" height="0.506" transform="translate(0 22.292)" fill="#bcbec0"/><rect width="33.603" height="0.504" transform="translate(0 29.723)" fill="#bcbec0"/><rect width="33.603" height="0.504" transform="translate(0 37.154)" fill="#bcbec0"/><rect width="33.603" height="0.504" transform="translate(0 44.584)" fill="#bcbec0"/><rect width="33.603" height="0.504" transform="translate(0 52.015)" fill="#bcbec0"/></g></g><path d="M518.526,450h7.965V438.83l-3.983,3.633-4.043-3.676Z" transform="translate(-496.262 -436.387)" fill="#00a79d"/><path d="M512.747,451.15h7.964V437.589L516.73,442l-4.043-4.463Z" transform="translate(-501.569 -437.536)" fill="#f9ed32"/><g transform="translate(72.256 31.628)"><path d="M548.891,476.409l-4.338-17.378,1.452-.45,3.213,12.881,6.972-17.441,1.375.682Z" transform="translate(-544.553 -454.022)" fill="#ed1c24"/></g></svg>