<svg xmlns="http://www.w3.org/2000/svg" width="88.002" height="101.949" viewBox="0 0 88.002 101.949"><path d="M581.125,440.316a7.523,7.523,0,0,0-7.525,7.521v78.176a7.523,7.523,0,0,0,7.525,7.523h28.583v-93.22Z" transform="translate(-573.6 -431.586)" fill="#c49a6c"/><path d="M621.824,440.316h-29.4v93.22h29.4a7.521,7.521,0,0,0,7.523-7.523V447.837A7.521,7.521,0,0,0,621.824,440.316Z" transform="translate(-556.312 -431.586)" fill="#b0875a"/><rect width="30.45" height="85.075" transform="translate(5.659 11.468)" fill="#6d6e71"/><rect width="31.269" height="85.075" transform="translate(36.108 11.468)" fill="#56585d"/><rect width="29.134" height="81.845" transform="translate(6.974 13.132)" fill="#fff"/><rect width="29.953" height="81.845" transform="translate(36.108 13.132)" fill="#e6e7e8"/><path d="M586.9,439.64v2.419a3.118,3.118,0,0,0,3.12,3.118h7.48V439.64Z" transform="translate(-561.388 -432.207)" fill="#bcbec0"/><path d="M592.42,439.64v5.537h8.3a3.118,3.118,0,0,0,3.12-3.118V439.64Z" transform="translate(-556.312 -432.207)" fill="#a2a7ac"/><path d="M586.877,440.9a2.947,2.947,0,0,0-2.947,2.947v.343a2.947,2.947,0,0,0,2.947,2.947h13.342V440.9Z" transform="translate(-564.111 -431.049)" fill="#939598"/><path d="M606.581,440.9H592.42v6.237h14.161a2.945,2.945,0,0,0,2.947-2.947v-.343A2.945,2.945,0,0,0,606.581,440.9Z" transform="translate(-556.312 -431.049)" fill="#7b7e84"/><g transform="translate(14.806 25.546)"><path d="M581.317,458.843h9.76v-9.762h-9.76Zm.721-9.038h8.315v8.315h-8.315Z" transform="translate(-581.317 -449.081)" fill="#808285"/><rect width="7.882" height="1.626" transform="translate(13.42 3.847)" fill="#808285"/><rect width="22.122" height="1.626" transform="translate(21.303 3.847)" fill="#686c71"/><g transform="translate(0 24.356)"><path d="M581.317,471.538h9.76v-9.762h-9.76Zm.721-9.038h8.315v8.315h-8.315Z" transform="translate(-581.317 -461.776)" fill="#808285"/><rect width="7.882" height="1.626" transform="translate(13.42 3.847)" fill="#808285"/><rect width="22.122" height="1.626" transform="translate(21.303 3.847)" fill="#686c71"/></g><g transform="translate(0 48.714)"><path d="M581.317,484.234h9.76v-9.762h-9.76Zm.721-9.038h8.315v8.315h-8.315Z" transform="translate(-581.317 -474.472)" fill="#808285"/><rect width="7.882" height="1.626" transform="translate(13.42 3.846)" fill="#808285"/><rect width="22.122" height="1.626" transform="translate(21.303 3.846)" fill="#686c71"/></g></g><path d="M596.114,439.359a1.79,1.79,0,0,1,1.381-1.742v-1.83a3.6,3.6,0,0,0-3.2,3.572h-4.278a3.118,3.118,0,0,0-3.12,3.12v.7h10.6V441.1A1.789,1.789,0,0,1,596.114,439.359Z" transform="translate(-561.388 -435.747)" fill="#808285"/><path d="M603.841,442.5a3.118,3.118,0,0,0-3.12-3.12h-4.28a3.479,3.479,0,0,0-4.021-3.572v1.83a1.924,1.924,0,0,1,.409-.05,1.791,1.791,0,1,1,0,3.582,1.92,1.92,0,0,1-.409-.05v2.08h11.421Z" transform="translate(-556.312 -435.766)" fill="#686c71"/><g transform="translate(41.631 5.648)"><path d="M598.047,476.782c.913-.975,2.335-2.5,4.86-5.205q-1.994-1.355-3.983-2.713c-1.6,3.34-2.49,5.219-3.064,6.425Z" transform="translate(-594.784 -411.011)" fill="#00a79d"/><path d="M614.57,444.788l4.141-6.078,5.258,8.032-2.99,4.388Z" transform="translate(-577.597 -438.71)" fill="#00a79d"/><path d="M616.127,456.94l-7.684-5.236q-.748,1.166-1.473,2.314l7.542,5.14C615.049,458.425,615.585,457.688,616.127,456.94Z" transform="translate(-584.578 -426.774)" fill="#414042"/><path d="M614.093,454.392c-5.034,8.094-9.714,16.162-16.816,27.863l4.365,2.974c8.292-10.892,14.086-18.2,19.78-25.845Z" transform="translate(-593.482 -424.305)" fill="#414042"/><path d="M625.843,443a3.027,3.027,0,0,0-3.16-.47c-2.258.739-4.76,3.313-7.427,7.651-5.5,8.6-12.924,18.969-13,19.073,0,0,4.562.614,5.976-4.768,2.036-2.974,11.156-15.364,11.249-15.485a3.662,3.662,0,0,1,1.452-1.143c.4-.129.988-.178,1.575.869.484.863.973.917,1.3.81,1.3-.422,1.961-4.881,2.132-6.237l.023-.173Z" transform="translate(-588.905 -435.4)" fill="#414042"/><path d="M615.364,458.05l-7.542-5.14c-.6.952-1.191,1.9-1.78,2.843l7.329,4.992C614.035,459.851,614.7,458.957,615.364,458.05Z" transform="translate(-585.431 -425.666)" fill="#00a79d"/><path d="M628.706,446.811q-3.856-2.633-7.72-5.261c-5.476,7.682-9.585,13.773-13.248,19.481l7.684,5.236C619.4,460.768,623.56,454.717,628.706,446.811Z" transform="translate(-583.873 -436.101)" fill="#414042"/><path d="M596.375,472.213a8.992,8.992,0,0,0-1.076,3.929A11.513,11.513,0,0,0,597.141,475a11.19,11.19,0,0,0,1.422-1.291Q597.469,472.96,596.375,472.213Z" transform="translate(-595.299 -407.935)" fill="#414042"/><path d="M620.563,443.676l-11.569,17.043,3.479,2.372,11.71-17.008Z" transform="translate(-582.719 -434.149)" fill="#bcbec0"/></g></svg>