<svg xmlns="http://www.w3.org/2000/svg" width="96.341" height="88.611" viewBox="0 0 96.341 88.611"><g transform="translate(220.475 -309.036)"><path d="M-211.306,367.219l1.388-3.1v-8.411a13.224,13.224,0,0,1,2.572-7.835l9.086-12.352,10.382-6.921,2.647,23.5-1.736,13.1-5.026,10.763Z" fill="#eab38b"/><path d="M7.1,0H67.685a7.1,7.1,0,0,1,7.1,7.1V48.569a7.1,7.1,0,0,1-7.1,7.1H7.1a7.1,7.1,0,0,1-7.1-7.1V7.1A7.1,7.1,0,0,1,7.1,0Z" transform="translate(-200.007 309.036)" fill="#414042"/><rect width="61.441" height="45.255" transform="translate(-194.489 314.245)" fill="#d1d3d4"/><path d="M-126.55,336.873a2.638,2.638,0,0,1-2.638,2.638,2.638,2.638,0,0,1-2.639-2.638,2.638,2.638,0,0,1,2.639-2.639A2.638,2.638,0,0,1-126.55,336.873Z" fill="#d1d3d4"/><path d="M-194.719,336.873A2.132,2.132,0,0,1-196.851,339a2.132,2.132,0,0,1-2.132-2.131,2.132,2.132,0,0,1,2.132-2.133A2.133,2.133,0,0,1-194.719,336.873Z" fill="#939598"/><rect width="24.671" height="18.495" transform="translate(-161.979 324.901)" fill="#bcbec0"/><rect width="48.489" height="7.266" transform="translate(-188.619 350.096)" fill="#bcbec0"/><path d="M-153.646,342.329l-5.336-15.469,1.55-.535,4.073,11.807,8.777-17.348,1.463.74Z" fill="#eb4747"/><rect width="9.832" height="1.909" transform="translate(-178.478 318.875)" fill="#bcbec0"/><rect width="9.832" height="1.91" transform="translate(-178.478 322.33)" fill="#bcbec0"/><rect width="9.832" height="1.91" transform="translate(-178.478 325.785)" fill="#bcbec0"/><rect width="9.832" height="1.909" transform="translate(-178.478 329.241)" fill="#bcbec0"/><rect width="9.593" height="12.547" transform="translate(-189.971 318.875)" fill="#fff"/><path d="M-180.493,328.275c-.244-.5-.513-1.038-.541-1.057s-1.325-.415-2.153-.666c-.258-.078-.472-.141-.587-.175l-.214-.625-.017.015v-.612a.772.772,0,0,0,.164-.159.911.911,0,0,0,.133-.279c.042-.151.023-.389.138-.51s.206-.154.28-.3a1.788,1.788,0,0,0,.154-.863c0-.081-.047-.217-.152-.139-.048.035-.025.122-.069.151l0,0c.039-.13.078-.264.09-.326a4.088,4.088,0,0,0,.064-.61,1.852,1.852,0,0,0-.223-1.382,1.466,1.466,0,0,0-1.067-.671c-.016,0-.19.018-.168.038a.834.834,0,0,0-.367-.116,2.256,2.256,0,0,0-1.812.635,1.59,1.59,0,0,0-.343,1.5,3.224,3.224,0,0,0,.068.559,1.107,1.107,0,0,1,.045.283.091.091,0,0,0-.032-.059c-.1-.078-.148.058-.153.139a1.8,1.8,0,0,0,.155.863c.074.151.177.195.28.3s.1.359.139.51a.844.844,0,0,0,.132.279.976.976,0,0,0,.233.21v.564l-.021-.018-.213.624-.228.068-.092.028-.1.031-.166.049c-.827.251-2.118.643-2.153.666s-.34.649-.6,1.173a.8.8,0,0,0-.08.349v2.681h9.592V328.77A1.13,1.13,0,0,0-180.493,328.275Z" fill="#a7a9ac"/><rect width="21.768" height="2.723" transform="translate(-189.587 333.394)" fill="#bcbec0"/><rect width="21.768" height="2.723" transform="translate(-189.587 337.883)" fill="#bcbec0"/><rect width="21.769" height="2.723" transform="translate(-189.363 342.905)" fill="#bcbec0"/><path d="M-182.576,349.4a.779.779,0,0,0,0,.085,1.968,1.968,0,0,1-.016.251,2.541,2.541,0,0,1-.429,1.093c-.028.041-.057.082-.088.12a3.057,3.057,0,0,1-2.12,1.156h-7.481l-2.814,11.476.809,4.371,2.724-.547-7.724,3.279-5.645-6.74,3.459-18.58h6.377l7.093,1.184.82.136,4.09.683A3.016,3.016,0,0,1-182.576,349.4Z" fill="#eab38b"/><path d="M-213.378,369.223l2.072-4.515,21.607,11.254-1.821,3.278Z" fill="#fff"/><path d="M-220.475,378.581l6.368-10.633,24.408,11.293-6.028,13.23Z" fill="#808285"/><path d="M-182.576,349.4a.779.779,0,0,0,0,.085c-.005.049-.008.1-.014.149a2.655,2.655,0,0,1-.363,1.058,11.01,11.01,0,0,1-1.877-.265c-3.527-1.139-2.994-3.2-2.781-3.743l4.09.683A3.016,3.016,0,0,1-182.576,349.4Z" fill="#f2c4a5"/><path d="M-129.464,380.582c-.123.089-.573.04-.717.049l-1.386.094c-1.406.1-1.175.617-2.576.712-3.417.237-6.869-.061-10.282.173l-3.776.256c-.221.016-1.22.226-1.377.067-.092-.084-.085-.545-.111-.665-.026-.146-.12-.614-.249-1.179a19.811,19.811,0,0,0-.771-2.69c-.177-.384-4.654-6.852-4.806-7.792-.177-1.14-.158-2.354-.24-3.513l-.332-4.842c-.023-.361-.081-.743-.075-1.106a3.3,3.3,0,0,1,1.36-2.8,2.1,2.1,0,0,1,2.142-.069,2.788,2.788,0,0,1,.773,1.606,11.533,11.533,0,0,1,.284,2.428c.034,1.047.352,1.44.572,1.245.312-.261.079-1.192.059-1.524l-1.532-22.3c-.041-.632-.148-1.3-.13-1.934a1.1,1.1,0,0,1,.275-.655,1.547,1.547,0,0,1,.13-.151c.005-.007.014-.013.02-.02a3.962,3.962,0,0,1,.33-.3,3.087,3.087,0,0,1,3.546-.273,3.129,3.129,0,0,1,.359.229l.021.016a1.8,1.8,0,0,1,.366.362,1.143,1.143,0,0,1,.214.557c.034.358.047.709.074,1.069.091,1.354.972,15.608,1.121,16.386.117.61.778.522.8-.079a16.738,16.738,0,0,0-.124-1.83,27.992,27.992,0,0,1-.165-4.116c.443-1.373,2.634-1.79,3.775-1.131a2.47,2.47,0,0,1,1.169,2.052l.162,2.351a13.923,13.923,0,0,0,.124,1.794c.113.539.46.525.844.258.352-.246.342-2.5.292-3.236a2.932,2.932,0,0,1,.723-2.412,2.7,2.7,0,0,1,3.375-.268,2.216,2.216,0,0,1,.943,2.009c.057.816.067,3.931.749,3.922.3,0,.33-1.029.334-1.317a2.34,2.34,0,0,1,2.159-2.321,2.72,2.72,0,0,1,2.388,1.293.013.013,0,0,1,0-.009.123.123,0,0,1,.037.059.08.08,0,0,1,.024.04c.007,0,.007.008.014.013l0,.008c.194.644.628,8.508.848,11.756l.252,3.625a8.688,8.688,0,0,1-1.32,4.54,37.559,37.559,0,0,0-.966,3.8c-.021.135.123,2.325.225,3.862.044.641.076,1.169.092,1.39C-129.416,380.27-129.342,380.493-129.464,380.582Z" fill="#eab38b"/><rect width="23.588" height="4.611" transform="translate(-151.459 380.194) rotate(-3.922)" fill="#fff"/><path d="M-124.134,396.007l-.258-13.852-29.481,2.021,1.127,13.47Z" fill="#808285"/><path d="M-149.572,340c-1.156.249-2.258-.827-2.454-2.388l-.159-1.307a2.737,2.737,0,0,1-.024-.328,3.962,3.962,0,0,1,.33-.3,3.087,3.087,0,0,1,3.546-.273,3.129,3.129,0,0,1,.359.229l.021.016.126,1.044C-147.636,338.26-148.423,339.746-149.572,340Z" fill="#f2c4a5"/><path d="M-142.6,328.219a3.629,3.629,0,0,1,3.832,3.856c0,2.006-1.3,3.025-2.4,3.025a1.118,1.118,0,0,1-1.233-.851h-.022a1.829,1.829,0,0,1-1.356.761,1.446,1.446,0,0,1-1.412-1.636c0-1.278.908-2.678,2.208-2.678a.925.925,0,0,1,.873.549h.023l.146-.46h.818l-.482,2.366c-.191.762.011,1.131.56,1.131.7,0,1.424-.829,1.424-2.162a2.855,2.855,0,0,0-3.082-3.094,4.031,4.031,0,0,0-3.866,4.236,3.122,3.122,0,0,0,3.306,3.352,3.811,3.811,0,0,0,1.759-.46l.3.717a4.254,4.254,0,0,1-2.163.56,3.871,3.871,0,0,1-4.1-4.124A4.852,4.852,0,0,1-142.6,328.219Zm-.909,5.951c.27,0,.55-.168.887-.582l.291-1.648a.7.7,0,0,0-.617-.393c-.773,0-1.244,1-1.244,1.749C-144.2,333.9-143.926,334.17-143.512,334.17Z" fill="#1ca2c6"/></g></svg>