<svg xmlns="http://www.w3.org/2000/svg" xmlns:xlink="http://www.w3.org/1999/xlink" width="505" height="371.96" viewBox="0 0 505 371.96"><defs><linearGradient id="a" x1="0.5" x2="0.5" y2="1" gradientUnits="objectBoundingBox"><stop offset="0" stop-color="#a9ae58"/><stop offset="1" stop-color="#1e5536"/></linearGradient><linearGradient id="o" y1="0.5" x2="1" y2="0.5" gradientUnits="objectBoundingBox"><stop offset="0" stop-color="#d37897" stop-opacity="0"/><stop offset="0.937" stop-color="#e26356" stop-opacity="0.702"/></linearGradient><linearGradient id="p" x1="-0.26" y1="1.055" x2="0.397" y2="0.453" xlink:href="#o"/><linearGradient id="r" x1="0" y1="0.5" x2="1" y2="0.5" xlink:href="#o"/><linearGradient id="s" x1="1.358" y1="0.636" x2="-0.354" y2="0.427" gradientUnits="objectBoundingBox"><stop offset="0.199" stop-color="#241084" stop-opacity="0.302"/><stop offset="0.929" stop-color="#3878ff" stop-opacity="0"/></linearGradient><linearGradient id="t" x1="0.779" y1="0.331" x2="0.397" y2="0.519" xlink:href="#s"/></defs><g transform="translate(-180 -1934.99)"><path d="M190.447,692.507c.027.61.061,1.224.1,1.843q.393,6.739,1.394,14.208c0,.016,0,.029.007.045.015.122.033.241.05.363,0,.009,0,.02,0,.031l122.087-.317,316.81-.821s42.028-42.738,55.727-110.115c.012-.057.023-.113.033-.169a209.8,209.8,0,0,0,4.018-51.279c-.008-.18-.016-.362-.026-.542a214.427,214.427,0,0,0-8.005-48.41,237.016,237.016,0,0,0-8.7-25.118q-1.194-2.909-2.5-5.688c-28.311-60.177-95.661-74.142-116.514-61.242C526.585,422.829,489,375.463,407.76,342.945c-37.15-14.87-102.859-2.248-138.487,44.445-.039.051-.079.1-.117.157-22.815,29.994-33.223,74.014-15.746,133.791.018.061.036.124.056.187.008.034.02.07.03.1,17.016,57.952-17.4,70.289-41.795,100.125-.121.146-.241.293-.361.443a100.294,100.294,0,0,0-7.071,9.844q-.708,1.127-1.391,2.288a86.1,86.1,0,0,0-7.5,16.548q-.435,1.31-.839,2.664a98.088,98.088,0,0,0-2.952,13.331,119.92,119.92,0,0,0-1.279,15.408q-.107,4.9.144,10.226" transform="translate(-5.886 1597.953)" fill="#ced371" opacity="0.38"/><circle cx="25.5" cy="25.5" r="25.5" transform="translate(450 2042.949)" fill="#ced371"/><circle cx="6" cy="6" r="6" transform="translate(193 2203.949)" fill="#ced371"/><circle cx="16" cy="16" r="16" transform="translate(220 2078.949)" fill="#ced371"/><g transform="translate(153.82 1888.822)"><ellipse cx="184" cy="18" rx="184" ry="18" transform="translate(69 338)" opacity="0.37" fill="url(#a)"/><ellipse cx="61.083" cy="8.562" rx="61.083" ry="8.562" transform="translate(85 381.876)" opacity="0.37" fill="url(#a)"/><ellipse cx="61.083" cy="8.562" rx="61.083" ry="8.562" transform="translate(306 399.876)" opacity="0.37" fill="url(#a)"/><path d="M107.669,134.736A13.285,13.285,0,0,0,88,128,18.441,18.441,0,0,0,54.129,126.4a13.251,13.251,0,0,0-16.046,8.34Z" fill="#afc6f5" opacity="0.47"/><path d="M464.061,127.827a13.285,13.285,0,0,0-19.669-6.735,18.442,18.442,0,0,0-33.872-1.606,13.254,13.254,0,0,0-16.045,8.341Z" fill="#afc6f5" opacity="0.47"/><path d="M98.753,319.391c-3.61,3.193-7.894,5.861-12.667,6.528-4.953.692-10.029-.856-14.291-3.472a49.546,49.546,0,0,1-11.09-10.018c-7.722-8.865-15.834-17.683-22.269-27.523-2.5-3.829-7.155-13.538,1.554-15.441,14.891-3.254,51.651,21.349,59.987,30.366,1.966,2.127,3.846,4.48,4.516,7.3C105.515,311.42,102.057,316.469,98.753,319.391Z" fill="url(#a)"/><path d="M37.827,284.566q6.093-.708,12.357-1.943c.309-.061.5-.646.192-.585q-6.262,1.234-12.357,1.943c-.3.035-.494.62-.192.585Z" fill="#0553dd"/><path d="M57,272.4a107.643,107.643,0,0,1,2.39,16.964c.019.306.487.008.468-.295A107.658,107.658,0,0,0,57.466,272.1c-.063-.282-.531.013-.467.295Z" fill="#0553dd"/><path d="M98.451,304a31.016,31.016,0,0,1-2.79,14.957c-.159.338.237.439.4.1a31.64,31.64,0,0,0,2.868-15.229c-.092-1.916-.307-3.769-.557-5.6q-.282-.264-.585-.539C98.078,299.753,98.347,301.835,98.451,304Z" fill="#0553dd"/><path d="M88.922,290.638c-.239-.173-.479-.346-.723-.52A83.321,83.321,0,0,1,92.075,316.5c0,.316.473.145.475-.172A84.42,84.42,0,0,0,88.922,290.638Z" fill="#0553dd"/><path d="M78.676,283.763c-.221-.138-.442-.276-.665-.413a91.331,91.331,0,0,1,3.348,23.587c.006.312.48.142.475-.173A92.393,92.393,0,0,0,78.676,283.763Z" fill="#0553dd"/><path d="M67.615,277.415c-.23-.12-.459-.24-.689-.358a119.893,119.893,0,0,1,2.81,21.15c.016.338.546-.03.53-.365A120.378,120.378,0,0,0,67.615,277.415Z" fill="#0553dd"/><path d="M49.194,270q-.337-.081-.671-.153.836,6.222,1.313,12.647c.028.388.625,0,.6-.383Q49.983,275.96,49.194,270Z" fill="#0553dd"/><path d="M97.893,320.127C77.522,303.812,56.694,287.472,36.8,270.9a4.9,4.9,0,0,0-.817.861C49.01,281.943,66.47,295.78,75.839,303.349l16.044,12.962c2.137,1.727,3.87,3.138,5.348,4.357Q97.566,320.4,97.893,320.127Z" fill="#0553dd"/><path d="M42.721,269.177c-.169,0-.339,0-.5.01q.536,4,.886,8.112c.026.3.493.006.467-.3C43.349,274.361,43.061,271.754,42.721,269.177Z" fill="#0553dd"/><path d="M35.917,271.713c13.036,10.185,30.538,24.054,39.922,31.636l16.044,12.962c11.717,9.467,11.4,9.515,22.395,19.809a2.042,2.042,0,0,0,2.194-.979c-26.129-21.368-53.785-42.67-79.828-64.367Z" fill="#0553dd"/><path d="M35.426,278.473q.075.267.159.533,4.035-.584,8.14-1.385c.31-.061.5-.647.192-.586Q39.632,277.881,35.426,278.473Z" fill="#0553dd"/><path d="M43.248,291.715c.139.184.276.368.415.55A105.333,105.333,0,0,0,59.246,290c.311-.068.505-.654.192-.585A104.771,104.771,0,0,1,43.248,291.715Z" fill="#0553dd"/><path d="M81.212,307.655c.314-.085.509-.671.192-.585A89.769,89.769,0,0,1,58.9,310.362l.5.574A90.458,90.458,0,0,0,81.212,307.655Z" fill="#0553dd"/><path d="M82.912,326.062a34.593,34.593,0,0,0,13.026-7.043c.316-.27.119-.637-.194-.37a33.916,33.916,0,0,1-14.38,7.288C81.878,326,82.395,326.04,82.912,326.062Z" fill="#0553dd"/><path d="M92.228,316.889c.318-.094.38-.641.065-.547a82.645,82.645,0,0,1-24,3.614q.372.3.749.588A84.212,84.212,0,0,0,92.228,316.889Z" fill="#0553dd"/><path d="M49.409,299.414c.17.2.341.4.511.607a103.218,103.218,0,0,0,19.929-1.479c.307-.052.5-.637.192-.585A102.362,102.362,0,0,1,49.409,299.414Z" fill="#0553dd"/><path d="M388.453,279.945c-.9-4.735-1-9.78.866-14.224,1.937-4.61,5.862-8.181,10.29-10.506a49.534,49.534,0,0,1,14.279-4.409c11.567-2.1,23.293-4.568,35.039-5.067,4.572-.195,15.294.772,12.477,9.23-4.817,14.461-44.755,33.474-56.767,36.028-2.833.6-5.816,1.015-8.581.151C391.846,289.832,389.275,284.279,388.453,279.945Z" fill="url(#a)"/><path d="M449.531,245.389q-2.507,5.6-4.647,11.613c-.106.3.3.763.4.464q2.142-6.014,4.648-11.613c.124-.277-.28-.742-.4-.464Z" fill="#0553dd"/><path d="M450.189,268.088a107.621,107.621,0,0,1-15.8-6.619c-.274-.14-.256.414.014.553a107.722,107.722,0,0,0,15.8,6.618c.275.09.26-.463-.014-.552Z" fill="#0553dd"/><path d="M401.833,287.554a31.013,31.013,0,0,1-11.427-10.045c-.21-.309-.5-.021-.288.291a31.633,31.633,0,0,0,11.621,10.251c1.694.9,3.4,1.662,5.1,2.384q.372-.106.762-.226C405.675,289.4,403.749,288.573,401.833,287.554Z" fill="#0553dd"/><path d="M418.19,286.2l.817-.355a83.307,83.307,0,0,1-24.652-10.156c-.271-.163-.367.333-.094.5A84.431,84.431,0,0,0,418.19,286.2Z" fill="#0553dd"/><path d="M429.337,280.906l.7-.36a91.37,91.37,0,0,1-21.983-9.182c-.271-.155-.367.34-.1.5A92.39,92.39,0,0,0,429.337,280.906Z" fill="#0553dd"/><path d="M440.448,274.646l.66-.41a119.839,119.839,0,0,1-19.614-8.4c-.3-.159-.253.484.043.642A120.429,120.429,0,0,0,440.448,274.646Z" fill="#0553dd"/><path d="M456.238,262.605c.161-.166.32-.332.475-.5q-5.773-2.461-11.541-5.337c-.348-.175-.321.537.024.709Q450.713,260.236,456.238,262.605Z" fill="#0553dd"/><path d="M388.259,278.83c24.437-9.166,49.129-18.713,73.541-27.34a4.952,4.952,0,0,0-.322-1.143c-15.41,5.994-36.228,13.925-47.523,18.107l-19.343,7.161c-2.576.954-4.675,1.722-6.479,2.369Q388.191,278.408,388.259,278.83Z" fill="#0553dd"/><path d="M460.255,257.463c.085-.146.171-.293.249-.439q-3.715-1.587-7.424-3.385c-.275-.134-.257.42.014.552Q456.672,255.933,460.255,257.463Z" fill="#0553dd"/><path d="M461.554,250.318c-15.418,6-36.286,13.947-47.6,18.136l-19.343,7.161c-14.126,5.23-14.005,4.932-28.474,9.12a2.041,2.041,0,0,0-.28,2.386c31.723-11.531,64.169-24.409,96.131-35.7Z" fill="#0553dd"/><path d="M456,246.441c-.179-.048-.359-.094-.54-.136q-1.561,3.765-2.971,7.7c-.106.3.3.763.405.464Q454.354,250.357,456,246.441Z" fill="#0553dd"/><path d="M440.615,246.393c-.228.025-.456.049-.684.075a105.25,105.25,0,0,0-6.021,14.55c-.1.3.3.769.4.464A104.754,104.754,0,0,1,440.615,246.393Z" fill="#0553dd"/><path d="M407.507,270.871c-.088.312.316.78.4.463a89.812,89.812,0,0,1,8.678-21.025l-.751.139A90.514,90.514,0,0,0,407.507,270.871Z" fill="#0553dd"/><path d="M390.819,262.921a34.563,34.563,0,0,0-.607,14.8c.07.41.487.428.416.022a33.913,33.913,0,0,1,1.09-16.084C391.4,262.064,391.1,262.487,390.819,262.921Z" fill="#0553dd"/><path d="M393.939,275.617c-.082.321.356.654.437.336a82.655,82.655,0,0,1,9.162-22.471q-.445.167-.888.343A84.155,84.155,0,0,0,393.939,275.617Z" fill="#0553dd"/><path d="M430.849,247.751l-.783.13a103.194,103.194,0,0,0-8.917,17.883c-.113.29.291.756.4.464A102.39,102.39,0,0,1,430.849,247.751Z" fill="#0553dd"/><path d="M71.627,194.251c-6.242-7.065-14.9-12.373-24.309-13a18.777,18.777,0,0,0-9.053,1.388,11.137,11.137,0,0,0-6.123,6.571c-.888,2.877-.3,5.992.514,8.889,1.891,6.7,4.989,12.985,8.261,19.127q3.16,5.931,6.557,11.731c3.492,5.963,7.214,11.873,12.1,16.759s11.071,8.724,17.91,9.709c2.6.375,5.479.258,7.523-1.389,2.451-1.974,2.939-5.454,3.24-8.586.917-9.529,1.255-19.079-3.063-27.886C81.2,209.444,77.688,201.11,71.627,194.251Z" fill="url(#a)"/><path d="M104.737,319.472l-1-.014c.179-12.479-2.473-26.055-7.884-40.351-5.018-13.258-11.736-25.662-18.187-37.229-4.785-8.58-9.735-17.222-14.714-25.686C55.5,203.526,47.943,191.406,37.4,182.34l.652-.758a89.673,89.673,0,0,1,14.249,15.954c4.27,5.951,8.026,12.229,11.508,18.149,4.983,8.47,9.937,17.119,14.726,25.706,6.469,11.6,13.207,24.041,18.249,37.363a131.571,131.571,0,0,1,5.893,20.008A96.581,96.581,0,0,1,104.737,319.472Z" fill="#0553dd"/><path d="M88.626,230.659c-.042-.5-.09-.994-.148-1.489-.913,2.35-1.89,4.791-2.856,7.2-1.563,3.9-3.041,7.594-4.175,10.718L62.2,248.124q.385.324.78.638l18.952-1.018.077-.212c1.139-3.156,2.647-6.921,4.243-10.907C87.05,234.634,87.855,232.623,88.626,230.659Z" fill="#0553dd"/><path d="M85.895,219.125c-.124-.293-.263-.583-.4-.874-1.217,3.257-2.644,6.821-4.046,10.323-1.564,3.906-3.044,7.6-4.178,10.724l-22.24,1.2c.168.218.339.436.511.652l22.215-1.193.077-.212c1.14-3.158,2.648-6.926,4.246-10.915C83.395,225.548,84.73,222.214,85.895,219.125Z" fill="#0553dd"/><path d="M81.129,209.2c-1.291,3.516-2.866,7.45-4.412,11.309-1.563,3.9-3.041,7.594-4.174,10.717l-22.967,1.234c.135.219.267.44.4.659l23.05-1.239.077-.212c1.138-3.156,2.646-6.92,4.242-10.906,1.46-3.643,2.946-7.356,4.2-10.725C81.408,209.761,81.268,209.482,81.129,209.2Z" fill="#0553dd"/><path d="M75.781,199.706c-1.329,3.661-2.995,7.823-4.627,11.9-1.564,3.9-3.043,7.6-4.177,10.721l-22.6,1.214c.123.221.253.439.377.66l22.711-1.22.077-.211c1.139-3.158,2.647-6.924,4.245-10.912,1.563-3.9,3.156-7.881,4.458-11.434C76.089,200.183,75.938,199.943,75.781,199.706Z" fill="#0553dd"/><path d="M39.746,215l22.478-1.208.045-.269c.8-4.791,3.352-12.39,5.606-19.1.344-1.025.682-2.031,1.009-3.011-.181-.171-.364-.339-.548-.507-.356,1.071-.726,2.174-1.1,3.3-2.221,6.606-4.732,14.078-5.587,18.932L39.407,214.34C39.52,214.56,39.632,214.782,39.746,215Z" fill="#0553dd"/><path d="M60.8,185.418c-1.427,5.629-2.731,11.931-3.884,18.823l-21.7,1.166c.092.222.19.443.284.665l22-1.182.045-.269c1.148-6.9,2.447-13.21,3.869-18.845C61.2,185.657,61,185.533,60.8,185.418Z" fill="#0553dd"/><path d="M32.849,187.571l10.967-.589.045-.269q.472-2.841.989-5.505c-.234.008-.467.022-.7.037q-.474,2.471-.914,5.088l-9.974.536C33.112,187.1,32.978,187.332,32.849,187.571Z" fill="#0553dd"/><path d="M51.911,181.943c-.927,3.885-1.784,8.142-2.554,12.738l-17.3.93q.066.338.142.673l17.742-.954.044-.268c.78-4.687,1.649-9.022,2.592-12.969C52.354,182.037,52.132,181.994,51.911,181.943Z" fill="#0553dd"/><path d="M434.561,203.976c8.016-4.961,17.839-7.543,27.026-5.428a18.775,18.775,0,0,1,8.268,3.942,11.138,11.138,0,0,1,3.964,8.06c.02,3.01-1.438,5.824-3.058,8.361-3.744,5.865-8.526,10.992-13.432,15.927q-4.737,4.767-9.665,9.339c-5.065,4.7-10.335,9.284-16.423,12.552s-13.118,5.155-19.95,4.124c-2.6-.391-5.321-1.335-6.8-3.5-1.775-2.6-1.238-6.07-.622-9.156,1.873-9.388,4.307-18.629,10.984-25.814C421.006,215.757,426.777,208.793,434.561,203.976Z" fill="url(#a)"/><path d="M367.667,314.579l-.961-.275a96.58,96.58,0,0,1,7.948-19.236,131.577,131.577,0,0,1,11.419-17.454c8.677-11.3,18.718-21.266,28.26-30.5,7.07-6.845,14.311-13.7,21.519-20.36,5.044-4.663,10.454-9.589,16.259-14.052a89.657,89.657,0,0,1,18.249-11.16l.405.914c-12.7,5.635-23.443,15.056-34.234,25.032-7.2,6.659-14.438,13.5-21.5,20.344-9.515,9.211-19.527,19.144-28.162,30.393C377.558,290.348,371.1,302.58,367.667,314.579Z" fill="#0553dd"/><path d="M407.773,233.925c.184-.464.373-.926.572-1.383.2,2.514.426,5.134.655,7.721.37,4.188.719,8.149.9,11.466l18.128,6.547q-.462.2-.931.386l-17.851-6.447-.012-.225c-.179-3.35-.536-7.39-.913-11.667C408.134,238.186,407.944,236.029,407.773,233.925Z" fill="#0553dd"/><path d="M413.718,223.671c.2-.244.421-.482.633-.722.225,3.47.562,7.294.894,11.052.37,4.191.72,8.155.9,11.474l20.948,7.566c-.224.16-.451.319-.677.477l-20.925-7.557-.013-.225c-.179-3.353-.535-7.4-.913-11.676C414.258,230.543,413.942,226.965,413.718,223.671Z" fill="#0553dd"/><path d="M421.146,215.548c.221,3.739.593,7.96.959,12.1.369,4.188.718,8.149.9,11.466l21.632,7.813c-.192.171-.383.344-.576.514l-21.71-7.841-.013-.225c-.179-3.351-.535-7.39-.913-11.667-.345-3.91-.7-7.894-.921-11.48C420.718,216,420.932,215.775,421.146,215.548Z" fill="#0553dd"/><path d="M429.008,208c.215,3.889.609,8.354.995,12.726.37,4.19.72,8.153.9,11.471l21.29,7.689c-.183.176-.369.347-.552.523l-21.392-7.726-.012-.225c-.179-3.352-.536-7.393-.914-11.672-.369-4.187-.746-8.457-.967-12.234C428.575,208.368,428.789,208.181,429.008,208Z" fill="#0553dd"/><path d="M459.092,233.048,437.92,225.4l.035-.27c.62-4.816.368-12.83.146-19.9-.034-1.08-.067-2.142-.1-3.174.222-.112.446-.22.67-.328.032,1.128.068,2.292.105,3.48.219,6.966.466,14.844-.117,19.739l20.945,7.564C459.436,232.69,459.265,232.87,459.092,233.048Z" fill="#0553dd"/><path d="M447.479,198.646c-.259,5.8-.83,12.212-1.716,19.143l20.441,7.382c-.152.187-.31.369-.464.555l-20.72-7.483.035-.271c.892-6.937,1.471-13.353,1.737-19.159C447.021,198.757,447.249,198.7,447.479,198.646Z" fill="#0553dd"/><path d="M473.615,208.778l-10.329-3.731.035-.27q.367-2.857.642-5.557c.222.075.441.156.66.238q-.259,2.5-.594,5.135l9.4,3.393C473.5,208.247,473.561,208.511,473.615,208.778Z" fill="#0553dd"/><path d="M456.991,197.885c-.234,3.987-.643,8.31-1.233,12.933l16.3,5.886q-.162.3-.331.6l-16.711-6.035.035-.27c.607-4.713,1.026-9.114,1.264-13.165C456.539,197.847,456.765,197.87,456.991,197.885Z" fill="#0553dd"/><path d="M375.579,293.41l-.983-.184c.656-3.507,1.246-6.894,1.817-10.169,1.611-9.242,3.133-17.971,5.594-26.019a73.233,73.233,0,0,1,11.452-23.073l.8.6c-10.939,14.683-13.553,29.68-16.863,48.666C376.827,286.507,376.237,289.9,375.579,293.41Z" fill="#0553dd"/><path d="M447.041,175.737c-7.438-1.019-39.553,8.56-50.352,23.5-8.837,12.222-7.82,25.012-4.761,39.781C408.706,216.146,426.854,194.705,447.041,175.737Z" fill="url(#a)"/><path d="M435.512,187.059l.717-.734q-.08-4.509-.449-9.008c-.235.06-.477.127-.716.191Q435.451,182.272,435.512,187.059Z" fill="#0553dd"/><path d="M428.274,194.668c-.085-1.846-.313-3.689-.54-5.5-.075-.6-.151-1.2-.221-1.794q-.426-3.637-.581-7.317c-.238.086-.479.177-.718.265q.165,3.582.576,7.137c.07.6.145,1.2.221,1.8a60.845,60.845,0,0,1,.56,6.175C427.8,195.18,428.038,194.922,428.274,194.668Z" fill="#0553dd"/><path d="M421.44,202.217c-.15-1.815-.36-3.62-.572-5.4-.244-2.055-.5-4.181-.643-6.27-.181-2.569-.2-5.169-.162-7.758-.245.107-.49.21-.734.319-.034,2.5-.005,5.005.17,7.49.147,2.106.4,4.241.646,6.305.238,2,.478,4.034.627,6.075C420.995,202.727,421.216,202.47,421.44,202.217Z" fill="#0553dd"/><path d="M412.957,212.1c.214-.256.427-.512.642-.768-.952-7.952-1.861-15.957-2.715-23.925-.23.133-.461.266-.69.4C411.063,195.9,411.988,204.031,412.957,212.1Z" fill="#0553dd"/><path d="M407.446,218.816c.186-.23.37-.464.556-.694-2.349-8.083-4.327-16.319-5.905-24.6-.214.184-.43.366-.638.551C403.06,202.4,405.067,210.689,407.446,218.816Z" fill="#0553dd"/><path d="M396.465,199.555c-.192.272-.384.543-.567.814a197.16,197.16,0,0,0,7,24.171l.532-.678A196.534,196.534,0,0,1,396.465,199.555Z" fill="#0553dd"/><path d="M390.778,211.994c-.1.431-.2.863-.284,1.3q3.529,9.218,6.75,18.6c.176-.233.351-.468.528-.7C395.558,224.745,393.219,218.331,390.778,211.994Z" fill="#0553dd"/><path d="M416.3,297.48c-.657-.244-9.959.954-15.176,6.691a26.426,26.426,0,0,0-6.676,20.016" fill="url(#a)"/><path d="M394.077,324.241a23.99,23.99,0,0,1,.243-6.719,27.249,27.249,0,0,1,1.935-6.545,26.089,26.089,0,0,1,4.592-7.058,22.048,22.048,0,0,1,9.46-5.693c2.922-.942,5.621-1.284,6.124-1.1l-.261.7.015,0a19.393,19.393,0,0,0-5.771,1.143,21.235,21.235,0,0,0-9.012,5.443,25.864,25.864,0,0,0-6.337,13.193,23.748,23.748,0,0,0-.245,6.518Z" fill="#0553dd"/><path d="M425.783,290.971c4.986.014,9.447,3.117,12.955,6.661s6.467,7.671,10.441,10.684a24.758,24.758,0,0,0,9.6,4.432c2.637.581,5.558.681,7.874-.707a8.041,8.041,0,0,0,3.651-6.851,11.452,11.452,0,0,0-2.97-7.368c-4.366-5.031-11.828-6.473-18.353-5.131-8.073,1.659-15.177,6.961-23.376,7.8-2.7.278-13.146.477-12.6-3.447C413.47,293.677,423.109,290.963,425.783,290.971Z" fill="url(#a)"/><path d="M470.3,305.19a11.452,11.452,0,0,0-2.97-7.368c-4.366-5.031-11.828-6.473-18.353-5.131a58.261,58.261,0,0,0-11.2,4.016c.325.3.645.612.954.925,3.509,3.543,6.467,7.671,10.441,10.684a24.765,24.765,0,0,0,9.6,4.432c2.637.581,5.558.681,7.874-.707A8.041,8.041,0,0,0,470.3,305.19Z" fill="url(#a)"/><path d="M466.754,311.97c.136-.085.262-.183.391-.278a23.6,23.6,0,0,0-3.172-3.964l6.1-.628c.037-.163.062-.328.09-.493l-6.637.683a28.923,28.923,0,0,0-2.609-2.223l8.174-4.639c-.073-.143-.154-.281-.232-.422l-8.345,4.737-.026.007a36.665,36.665,0,0,0-5.145-3.115c1.763-.573,7.949-2.815,11.654-4.164-.119-.128-.237-.257-.36-.38-5.158,1.876-11.425,4.133-11.795,4.2-.023,0-.073.01-.149.023-1.01-.486-2.023-.926-3.022-1.324l10.094-6.161c-.181-.078-.359-.16-.543-.232l-10.114,6.173c-1.757-.674-3.467-1.219-5.042-1.656l9.869-5.772c-.275-.028-.549-.057-.825-.075l-9.5,5.559-.411.055c-1.513-.4-2.877-.688-4.013-.9l.907-2.1-.636.26-.751,1.738-.019.01c-1.125-.2-1.974-.317-2.457-.374l-.447.193c.1.089.185.18.279.27.338.04.973.126,1.852.276l-1.06.5c.119.12.233.245.351.366l1.524-.72c.882.165,1.929.382,3.092.665l-4.14.554c.135.144.274.285.408.43l4.984-.667c1.575.418,3.314.946,5.117,1.611l-7.918,1.485.373.42,8.409-1.578c.914.355,1.841.745,2.769,1.173-1.037.218-2.814.609-5.173,1.128-1.575.347-3.267.719-4.47.981l.377.408c1.044-.226,2.454-.535,4.2-.919,2.31-.508,4.876-1.074,5.79-1.259a37.832,37.832,0,0,1,5.3,3.091l-11.163,2.986c.155.123.3.255.46.375l11.208-3a28.835,28.835,0,0,1,2.669,2.211c-2.3,1.362-5.435,3.186-7.439,4.3.2.072.391.149.589.217,2.353-1.312,5.707-3.287,7.211-4.177A23,23,0,0,1,466.754,311.97Z" fill="#0553dd"/><path d="M80.8,262.812c.692-.106,9.559,2.952,13.5,9.626C100.55,283,109.516,309.48,109.516,309.48" fill="url(#a)"/><path d="M109.161,309.6c-.09-.264-9.025-26.564-15.18-36.971a21.234,21.234,0,0,0-7.721-7.155,19.516,19.516,0,0,0-5.415-2.289h0l.016,0-.114-.741c.53-.081,3.1.8,5.774,2.315a22.047,22.047,0,0,1,8.111,7.491c3.24,5.479,7.213,15.281,9.976,22.539,2.99,7.856,5.246,14.507,5.268,14.573Z" fill="#0553dd"/><path d="M72.831,254.516c-4.886-1-9.882,1.139-14.036,3.9s-7.886,6.2-12.388,8.347a24.762,24.762,0,0,1-10.3,2.4c-2.7.035-5.58-.459-7.567-2.287a8.038,8.038,0,0,1-2.187-7.449,11.454,11.454,0,0,1,4.4-6.614c5.294-4.041,12.9-3.942,19.012-1.306,7.569,3.261,13.452,9.892,21.31,12.379,2.584.818,12.776,3.131,13.039-.822C84.341,259.661,75.452,255.05,72.831,254.516Z" fill="url(#a)"/><path d="M26.354,259.42a11.454,11.454,0,0,1,4.4-6.614c5.294-4.041,12.9-3.942,19.012-1.306a58.368,58.368,0,0,1,10.15,6.2c-.379.232-.755.469-1.122.713-4.154,2.759-7.886,6.2-12.388,8.347a24.762,24.762,0,0,1-10.3,2.4c-2.7.035-5.58-.459-7.567-2.287A8.038,8.038,0,0,1,26.354,259.42Z" fill="url(#a)"/><path d="M274.078,87a18.2,18.2,0,0,0-26.951-9.228,25.267,25.267,0,0,0-46.409-2.2A18.154,18.154,0,0,0,178.733,87Z" fill="#afc6f5" opacity="0.47"/><rect width="322.089" height="248.702" transform="translate(88.956 108.299)" fill="#fff"/><rect width="62.862" height="8" transform="translate(135.955 156.001)" fill="#ced371"/><rect width="61.862" height="8" transform="translate(204.668 156.001)" fill="#ced371"/><rect width="26.86" height="8" transform="translate(98.668 181.001)" fill="#ced371"/><rect width="82.863" height="8" transform="translate(138.668 181.001)" fill="#a3314f"/><rect width="26.86" height="8" transform="translate(98.668 206.001)" fill="#ced371"/><rect width="26.86" height="8" transform="translate(98.668 231.001)" fill="#ced371"/><rect width="26.86" height="8" transform="translate(98.668 256.001)" fill="#ced371"/><rect width="26.86" height="8" transform="translate(98.668 281.001)" fill="#ced371"/><rect width="26.86" height="8" transform="translate(98.668 306.001)" fill="#ced371"/><rect width="26.86" height="8" transform="translate(98.668 331.001)" fill="#ced371"/><rect width="92.864" height="8" transform="translate(148.525 206.001)" fill="#9ea257"/><rect width="86.863" height="8" transform="translate(290.524 206.001)" fill="#9ea257"/><rect width="32.86" height="8" transform="translate(170.525 231.001)" fill="#a3314f"/><rect width="31.86" height="8" transform="translate(225.525 231.001)" fill="#a3314f"/><rect width="36.86" height="8" transform="translate(279.524 231.001)" fill="#a3314f"/><rect width="31.86" height="8" transform="translate(333.524 231.001)" fill="#a3314f"/><rect width="101.864" height="8" transform="translate(181.525 256.001)" fill="#9ea257"/><rect width="62.862" height="8" transform="translate(148.525 281.001)" fill="#ced371"/><rect width="66.862" height="8" transform="translate(252.523 281.001)" fill="#a3314f"/><rect width="86.863" height="8" transform="translate(286.524 306.001)" fill="#9ea257"/><rect width="92.864" height="8" transform="translate(148.525 306.001)" fill="#9ea257"/><rect width="136.867" height="8" transform="translate(210.525 331.001)" fill="#a3314f"/><rect width="61.862" height="8" transform="translate(272.38 156.001)" fill="#ced371"/><rect width="61.862" height="8" transform="translate(340.092 156.001)" fill="#ced371"/><rect width="322.089" height="38.859" transform="translate(88.956 108.299)" fill="#a3314f"/><rect width="301" height="1" transform="translate(98.668 196.501)" fill="#afc6f5"/><rect width="301" height="1" transform="translate(98.668 223.501)" fill="#afc6f5"/><rect width="301" height="1" transform="translate(98.668 246.501)" fill="#afc6f5"/><rect width="301" height="1" transform="translate(98.668 272.501)" fill="#afc6f5"/><rect width="301" height="1" transform="translate(98.668 297.501)" fill="#afc6f5"/><rect width="301" height="1" transform="translate(98.668 322.501)" fill="#afc6f5"/><path d="M173.417,124.341a16.16,16.16,0,0,1,2.674-.208,4.433,4.433,0,0,1,3.025.9,2.9,2.9,0,0,1,.945,2.257,3.177,3.177,0,0,1-.833,2.305,4.471,4.471,0,0,1-3.3,1.184,4.8,4.8,0,0,1-1.121-.1V135h-1.393Zm1.393,5.2a4.677,4.677,0,0,0,1.153.112c1.681,0,2.705-.817,2.705-2.305,0-1.425-1.009-2.113-2.545-2.113a5.852,5.852,0,0,0-1.313.112Z" fill="#f7f7fb"/><path d="M181.929,124.212h1.393v9.621h4.61V135h-6Z" fill="#f7f7fb"/><path d="M191.226,131.607,190.1,135h-1.44l3.665-10.789h1.681L197.692,135H196.2l-1.153-3.394Zm3.537-1.088-1.056-3.1c-.24-.705-.4-1.345-.561-1.969h-.031c-.16.64-.337,1.3-.545,1.953l-1.056,3.121Z" fill="#f7f7fb"/><path d="M199.273,135V124.212h1.521l3.457,5.459a30.64,30.64,0,0,1,1.937,3.5l.032-.016c-.128-1.44-.16-2.753-.16-4.433v-4.515h1.313V135h-1.409l-3.425-5.474a34.277,34.277,0,0,1-2.018-3.6l-.047.016c.08,1.361.111,2.658.111,4.45V135Z" fill="#f7f7fb"/><path d="M213.193,124.356a20.109,20.109,0,0,1,2.961-.223,6.18,6.18,0,0,1,4.37,1.344,4.97,4.97,0,0,1,1.52,3.874,5.706,5.706,0,0,1-1.552,4.193,6.644,6.644,0,0,1-4.77,1.553,22.474,22.474,0,0,1-2.529-.128Zm1.392,9.54a8.8,8.8,0,0,0,1.409.081c2.977,0,4.594-1.665,4.594-4.578.016-2.545-1.424-4.162-4.37-4.162a7.928,7.928,0,0,0-1.633.144Z" fill="#f7f7fb"/><path d="M229.435,129.943h-4.194v3.89h4.674V135h-6.066V124.212h5.826v1.169h-4.434v3.41h4.194Z" fill="#f7f7fb"/><path d="M242.651,134.649a6.912,6.912,0,0,1-2.849.512c-3.041,0-5.33-1.921-5.33-5.458a5.369,5.369,0,0,1,5.634-5.666,5.783,5.783,0,0,1,2.561.48l-.335,1.136a5.08,5.08,0,0,0-2.178-.448c-2.529,0-4.209,1.617-4.209,4.45,0,2.641,1.52,4.338,4.145,4.338a5.573,5.573,0,0,0,2.273-.449Z" fill="#f7f7fb"/><path d="M253.276,129.495c0,3.713-2.256,5.682-5.01,5.682-2.849,0-4.85-2.209-4.85-5.474,0-3.426,2.129-5.666,5.01-5.666C251.371,124.037,253.276,126.293,253.276,129.495Zm-8.371.176c0,2.3,1.248,4.37,3.441,4.37,2.209,0,3.458-2.033,3.458-4.482,0-2.145-1.121-4.386-3.442-4.386C246.057,125.173,244.9,127.3,244.9,129.671Z" fill="#f7f7fb"/><path d="M255.08,135V124.212H256.6l3.457,5.459a30.771,30.771,0,0,1,1.936,3.5l.032-.016c-.128-1.44-.16-2.753-.16-4.433v-4.515h1.313V135h-1.409l-3.425-5.474a34.258,34.258,0,0,1-2.017-3.6l-.048.016c.08,1.361.112,2.658.112,4.45V135Z" fill="#f7f7fb"/><path d="M267.657,125.4h-3.281v-1.185h7.987V125.4h-3.3V135h-1.408Z" fill="#f7f7fb"/><path d="M274.953,124.212V135h-1.392V124.212Z" fill="#f7f7fb"/><path d="M285.6,134.521a10.055,10.055,0,0,1-3.314.592,5.068,5.068,0,0,1-5.538-5.442c.016-3.217,2.225-5.57,5.842-5.57a6.665,6.665,0,0,1,2.689.5l-.336,1.136a5.59,5.59,0,0,0-2.384-.464,4.035,4.035,0,0,0-4.338,4.338c0,2.737,1.648,4.353,4.161,4.353a4.524,4.524,0,0,0,1.857-.288v-3.217h-2.193v-1.121H285.6Z" fill="#f7f7fb"/><path d="M293.307,129.943h-4.2v3.89h4.674V135H287.72V124.212h5.827v1.169h-4.435v3.41h4.2Z" fill="#f7f7fb"/><path d="M295.592,135V124.212h1.52l3.457,5.459a30.656,30.656,0,0,1,1.938,3.5l.031-.016c-.128-1.44-.159-2.753-.159-4.433v-4.515h1.312V135h-1.409l-3.425-5.474a34.268,34.268,0,0,1-2.017-3.6l-.048.016c.08,1.361.112,2.658.112,4.45V135Z" fill="#f7f7fb"/><path d="M313.659,134.649a6.919,6.919,0,0,1-2.849.512c-3.041,0-5.331-1.921-5.331-5.458a5.369,5.369,0,0,1,5.635-5.666,5.786,5.786,0,0,1,2.561.48l-.336,1.136a5.072,5.072,0,0,0-2.177-.448c-2.529,0-4.21,1.617-4.21,4.45,0,2.641,1.521,4.338,4.146,4.338a5.576,5.576,0,0,0,2.273-.449Z" fill="#f7f7fb"/><path d="M316.792,124.212V135H315.4V124.212Z" fill="#f7f7fb"/><path d="M320.968,131.607,319.848,135h-1.441l3.665-10.789h1.681L327.435,135h-1.489l-1.152-3.394Zm3.538-1.088-1.057-3.1c-.24-.705-.4-1.345-.56-1.969h-.033c-.16.64-.335,1.3-.544,1.953l-1.056,3.121Z" fill="#f7f7fb"/><path d="M162.035,238.2a12.187,12.187,0,1,1-12.186-12.186A12.186,12.186,0,0,1,162.035,238.2Z" fill="#f9ccda"/><circle cx="3.784" cy="3.784" r="3.784" transform="translate(101.307 296.452)" fill="#f9ccda"/><path d="M136.333,292.039s.026,36.806.912,43.01-19.967,26.563-19.967,26.563a10.916,10.916,0,0,0,3.545,4.432c2.215,1.329,26.181-18.575,29.247-24.373,1.327-2.508.887-37.224.887-37.224h6.2s2.484,27.943,2.484,31.045-1.155,50.05-1.155,50.05,4.432,2.659,7.09,1.773c2.271-.757,8.1-40.933,9.749-52.657a23.166,23.166,0,0,0,.018-6.334l-4.892-36.285-10.636-4.432Z" fill="#12263f"/><path d="M140.106,252.76s20.157-2.82,26.361-2.377,22.157-6.2,22.157-6.2l12.851-27.032,6.2,2.216s-9.306,32.792-15.067,37.667-23.486,5.318-23.486,5.318l-.887,20.828,2.216,8.863s-9.749,6.647-18.612,6.2-15.51-6.2-15.51-6.2l4.545-8.863-2.853-25.32C136.664,254.656,140.106,252.76,140.106,252.76Z" fill="#f6a091"/><path d="M208.034,208.477l-9.852,10.859,1.09,1.413,10.138-10.884.427-1.865Z" fill="#241084"/><path d="M208.034,208.477l1.377,1.388-8.736,9.4-1.09-1.413Z" fill="#241084"/><path d="M204.134,218.476a3.379,3.379,0,1,1,4.033-2.563A3.379,3.379,0,0,1,204.134,218.476Z" fill="#f9ccda"/><path d="M140.106,252.76s-7.674,3.3-11.085,5.6c-3.118,2.1-19.277,10.635-22.6,19.276a69.147,69.147,0,0,0-3.988,17.283l6.647,1.329s6.648-16.618,9.306-17.282c3.608-.9,3.456-1.063,27.919-13.3Z" fill="#f6a091"/><path d="M119.574,361.457l-5.776,3.8s1.485,16.505,2.805,17.33,1.981-1.155,1.651-3.466-.825-13.369-.825-13.369l4.786-3.136Z" fill="#12263f"/><path d="M160.505,384.233l-1.155,6.437,18.485.33s1.155-2.64-2.476-2.475-11.718,0-11.718,0v-4.787Z" fill="#12263f"/><path d="M157.554,225.927c1.318,0,3.007,1.67,4.2,4.155a10.666,10.666,0,0,1,1.09,3.773c.082,1.277-.26,2.166-.963,2.5a1.425,1.425,0,0,1-.623.138c-1.318,0-3.006-1.67-4.2-4.155a10.673,10.673,0,0,1-1.09-3.773c-.082-1.277.259-2.166.962-2.5A1.425,1.425,0,0,1,157.554,225.927Zm3.707,9.571a.429.429,0,0,0,.19-.04c.3-.143.45-.733.4-1.539a9.657,9.657,0,0,0-.993-3.4c-1.081-2.246-2.527-3.589-3.3-3.589a.429.429,0,0,0-.19.04c-.3.143-.45.733-.4,1.539a9.665,9.665,0,0,0,.994,3.4C159.04,234.156,160.487,235.5,161.26,235.5Z" fill="#3878ff"/><path d="M.333,8.151-.333,7.4,8.4-.373l.665.747Z" transform="translate(148.778 232.126)" fill="#3878ff"/><path d="M205.588,218.616c-2.832,6.45-10.4,23.805-12.01,28.828-2,6.21-25.505,9.537-25.505,9.537l1.053,5.367s17.725-.443,23.486-5.318,15.067-37.667,15.067-37.667Z" fill="url(#o)"/><path d="M139.635,269.012A12.888,12.888,0,0,0,135,263.345a18.424,18.424,0,0,0-9.562-2.789,102.746,102.746,0,0,0-10.419,7.084c.471,1.64,2.171,2.579,2.33,4.355.185,2.05-1.65,3.8-2.15,5.684a6.835,6.835,0,0,0,.415,4.6c1.073-1.824,2.064-3.136,2.771-3.313C121.629,278.155,121.845,277.937,139.635,269.012Z" fill="url(#p)"/><path d="M118.333,265.167c-.088,1.3-.161,2.707-.161,3.79,0,1.856.431,6.939.692,9.851,2.62-.957,13.152-5.583,20.255-9.08,0-.037.013-.081.013-.105,0-.666.974-16.863.974-16.863s-7.674,3.3-11.085,5.6C127.519,259.371,122.993,261.878,118.333,265.167Z" fill="url(#o)"/><path d="M150.587,224.461c1.89,1.436,2.02,6.728,2.409,9.07.495,2.979-2.761,3.146-3.7,6.015a3.356,3.356,0,0,0-1.523,6.439c1.594.676,3.415.042,5.013-.626-.166,3.211-2.561,6.026-2.188,9.219.444,3.794,4.426,6.918,3.615,10.651-1.091,5.022-9.5,5.364-10.735,10.353-.471,1.9.285,4.111-.768,5.766-1.042,1.637-3.333,1.884-5.256,1.628a4.247,4.247,0,0,1-2.731-1.163c-.811-.935-.782-2.321-1.286-3.452-.746-1.671-2.563-2.593-4.33-3.071a29.189,29.189,0,0,1-5.282-1.454c-1.646-.8-3.07-2.483-2.8-4.294.4-2.706,4.191-4.2,4.007-6.924-.132-1.963-2.3-3.16-2.952-5.015a4.618,4.618,0,0,1,1.078-4.4,11.451,11.451,0,0,1,3.9-2.656c1.367-.649,2.933-1.424,3.287-2.9.336-1.395-.584-2.741-1.309-3.98a17.208,17.208,0,0,1-2.075-5.624,5.433,5.433,0,0,1,.633-4.323c1.7-2.163,5.228-1.342,7.619-2.7,1.763-1,2.646-3.033,4.115-4.43C141.533,224.489,148.157,222.615,150.587,224.461Z" fill="#6e2034"/><path d="M169.126,262.348h0s-5.205,16.574-5.4,20.118a126.8,126.8,0,0,0,.95,12.748,43.777,43.777,0,0,0,5.781-3.175l-2.216-8.863.887-20.828Z" fill="url(#r)"/><circle cx="3.784" cy="3.784" r="3.784" transform="translate(401.681 320.449)" fill="#f9ccda"/><path d="M396.788,286.5l-20.244-12.784,3.33,19.277,7.426,3.481a8.063,8.063,0,0,1,4.27,4.887l5.089,21.087,9.8-2.866-6.73-28.729A7.362,7.362,0,0,0,396.788,286.5Z" fill="#3878ff"/><path d="M350.294,311.6s.332,48.193.665,54.84,4.985,41.545,4.985,41.545,5.983,2.991,7.312,2.659,2.326-85.749,2.326-85.749l3.989-.333,5.982,42.21s5.65,41.213,7.644,41.545,6.648-1,6.648-1L382.2,310.607l-4.653-2.659s-11.3,2.327-13.959,1.994S350.294,311.6,350.294,311.6Z" fill="#12263f"/><path d="M369.827,257.8a12.187,12.187,0,1,1-8.848-14.789A12.188,12.188,0,0,1,369.827,257.8Z" fill="#f9ccda"/><path d="M354.947,264.409l1,7.977s7.312.665,7.312-1-2.327-13.627-2.327-13.627Z" fill="#f9ccda"/><path d="M352.953,270.059l10.968-2.659,1.994,3.989s8.635.665,10.629,2.326,5.656,35.23,5.656,36.892-31.241,4.321-31.906,1-1.662-33.9-.665-34.233,4.653-1.994,4.653-1.994Z" fill="#3878ff"/><path d="M349.629,277.371l-14.068,9.66L314.732,275.71l-5.664,8.077,23.763,20.579a4.146,4.146,0,0,0,5.132.234c6.138-4.4,20.624-15.087,19.31-16.926C355.612,285.348,349.629,277.371,349.629,277.371Z" fill="#3878ff"/><path d="M354.282,275.377l11.633-3.988-1.994-3.988-10.968,2.659Z" fill="#fff"/><path d="M304.416,269.69l12.74,7.256,1.143-1.371-12.827-7.53-1.913-.011Z" fill="#241084"/><path d="M314.485,275.16a3.379,3.379,0,1,1-3.379-3.379A3.379,3.379,0,0,1,314.485,275.16Z" fill="#f9ccda"/><path d="M359.377,403.514l.33,5.446s-13.038-.99-14.689-.495a1.688,1.688,0,0,0-1.155,2.146l19.475.165-.33-5.447Z" fill="#12263f"/><path d="M384.973,402.433l1.156,6.271s11.388-1.65,13.533-2.475-.33-2.476-1.485-2.311-8.912,1.98-8.912,1.98l-1.816-3.8Z" fill="#12263f"/><path d="M349.524,256.6c.385,2.169-.657,4.169-2.329,4.466s-3.339-1.22-3.725-3.39.657-4.168,2.329-4.466S349.138,254.427,349.524,256.6Z" fill="#f9ccda"/><path d="M382.2,310.607c0-1.662-3.662-35.23-5.656-36.892a5.372,5.372,0,0,0-1.657-.808l-6.614,20.072-.443,19.912C375.246,312.4,382.2,311.391,382.2,310.607Z" fill="url(#s)"/><path d="M373.155,254.716c.1,2.531-1.393,4.647-3.343,4.726s-3.615-1.907-3.718-4.437,1.393-4.646,3.343-4.726S373.052,252.186,373.155,254.716Z" fill="#f9ccda"/><path d="M335.561,287.031l-2.7,9.462L314.485,275.16Z" fill="url(#t)"/><path d="M370.827,257.8a12.187,12.187,0,1,1-8.848-14.789A12.188,12.188,0,0,1,370.827,257.8Z" fill="#6e2034"/></g></g></svg>