<svg xmlns="http://www.w3.org/2000/svg" width="75.523" height="82.89" viewBox="0 0 75.523 82.89"><g transform="translate(-9.376)"><g transform="translate(9.376)"><g transform="translate(10.317 8.609)"><path d="M93.294,37.21,82.672,26.588H43.747A2.509,2.509,0,0,0,41.238,29.1V97.55a2.509,2.509,0,0,0,2.509,2.509H90.785a2.509,2.509,0,0,0,2.509-2.509V70.5l-4.26,10.58L82.9,78.608,93.294,52.791Z" transform="translate(-41.238 -26.588)" fill="#dae6f1"/></g><g transform="translate(65.049 22.131)"><path d="M217.365,69.514l-2.691-1.084a1.13,1.13,0,0,0-1.427.53l-2.971,5.423,6.135,2.47,1.615-5.968A1.131,1.131,0,0,0,217.365,69.514Z" transform="translate(-210.276 -68.349)" fill="#6cadef"/></g><g transform="translate(57.681 28.156)"><path d="M0,0H19.84V6.613H0Z" transform="translate(0 18.412) rotate(-68.05)" fill="#f5c84c"/></g><g transform="translate(51.48 60.629)"><path d="M168.867,187.248l-.5,8.137a.768.768,0,0,0,1.352.544l5.28-6.211Z" transform="translate(-168.368 -187.248)" fill="#dae6f1"/></g><g transform="translate(51.48 64.688)"><path d="M168.619,199.784l-.249,4.078a.768.768,0,0,0,1.352.545l2.646-3.113Z" transform="translate(-168.368 -199.784)" fill="#6cadef"/></g><g transform="translate(52.025 46.572)"><path d="M0,0H15.156V6.613H0Z" transform="translate(0 14.064) rotate(-68.05)" fill="#fcdd86"/></g><g transform="translate(15.259 13.881)"><path d="M95.5,48.22a2.509,2.509,0,0,1-2.509-2.509V42.869H57.3a.8.8,0,0,0-.8.8v6.97a.8.8,0,0,0,.8.8H97.875a.8.8,0,0,0,.8-.8V48.22H95.5Z" transform="translate(-56.501 -42.869)" fill="#fc657e"/></g><g transform="translate(51.751 8.609)"><path d="M169.205,26.588V34.7a2.509,2.509,0,0,0,2.509,2.509h8.113Z" transform="translate(-169.205 -26.588)" fill="#edf4fc"/></g><g transform="translate(9.507 7.799)"><path d="M91.6,51.84a.809.809,0,0,0,.809-.809V35.52a.811.811,0,0,0-.237-.572L81.554,24.325a.809.809,0,0,0-.572-.237H42.057a3.323,3.323,0,0,0-3.319,3.319V95.86a3.323,3.323,0,0,0,3.319,3.319H89.094a3.323,3.323,0,0,0,3.319-3.319V68.891a.809.809,0,0,0-1.619,0V95.86a1.7,1.7,0,0,1-1.7,1.7H42.057a1.7,1.7,0,0,1-1.7-1.7V27.407a1.7,1.7,0,0,1,1.7-1.7h38.59L90.795,35.854V51.03A.809.809,0,0,0,91.6,51.84Z" transform="translate(-38.738 -24.088)"/></g><g transform="translate(28.176 26.291)"><path d="M111.924,81.2H97.205a.809.809,0,1,0,0,1.619h14.719a.809.809,0,1,0,0-1.619Z" transform="translate(-96.396 -81.197)"/></g><g transform="translate(16.468 30.419)"><path d="M99.181,93.946H61.046a.809.809,0,0,0,0,1.619H99.181a.809.809,0,0,0,0-1.619Z" transform="translate(-60.237 -93.946)"/></g><g transform="translate(16.468 34.546)"><path d="M99.181,106.694H61.046a.809.809,0,1,0,0,1.619H99.181a.809.809,0,1,0,0-1.619Z" transform="translate(-60.237 -106.694)"/></g><g transform="translate(32.441 38.674)"><path d="M125.272,119.443H110.377a.809.809,0,0,0,0,1.619h14.894a.809.809,0,0,0,0-1.619Z" transform="translate(-109.568 -119.443)"/></g><g transform="translate(32.441 42.802)"><path d="M125.272,132.192H110.377a.809.809,0,0,0,0,1.619h14.894a.809.809,0,1,0,0-1.619Z" transform="translate(-109.568 -132.192)"/></g><g transform="translate(32.441 46.93)"><path d="M125.272,144.94H110.377a.809.809,0,0,0,0,1.619h14.894a.809.809,0,1,0,0-1.619Z" transform="translate(-109.568 -144.94)"/></g><g transform="translate(23.735 38.674)"><path d="M88.311,119.443H83.49a.809.809,0,0,0,0,1.619h4.82a.809.809,0,1,0,0-1.619Z" transform="translate(-82.681 -119.443)"/></g><g transform="translate(23.735 42.802)"><path d="M88.311,132.192H83.49a.809.809,0,1,0,0,1.619h4.82a.809.809,0,1,0,0-1.619Z" transform="translate(-82.681 -132.192)"/></g><g transform="translate(23.735 46.93)"><path d="M88.311,144.94H83.49a.809.809,0,1,0,0,1.619h4.82a.809.809,0,1,0,0-1.619Z" transform="translate(-82.681 -144.94)"/></g><g transform="translate(16.468 51.058)"><path d="M99.181,157.689H61.046a.809.809,0,1,0,0,1.619H99.181a.809.809,0,1,0,0-1.619Z" transform="translate(-60.237 -157.689)"/></g><g transform="translate(16.468 55.186)"><path d="M97.562,170.438H61.046a.809.809,0,1,0,0,1.619H97.562a.809.809,0,1,0,0-1.619Z" transform="translate(-60.237 -170.438)"/></g><g transform="translate(40.878 73.5)"><path d="M149.385,227H136.433a.809.809,0,1,0,0,1.619h12.952a.809.809,0,1,0,0-1.619Z" transform="translate(-135.624 -227)"/></g><g transform="translate(17.241 73.5)"><path d="M76.386,227H63.434a.809.809,0,1,0,0,1.619H76.386a.809.809,0,1,0,0-1.619Z" transform="translate(-62.625 -227)"/></g><g transform="translate(17.241 63.344)"><path d="M77.11,199.761a.81.81,0,0,0-1.086-.362L73.9,200.463a.084.084,0,0,1-.083-.005l-2.54-1.693a1.7,1.7,0,0,0-2.524.784.083.083,0,0,1-.155,0l-.963-2.769a1.7,1.7,0,0,0-3.215,0L62.67,201.8a.809.809,0,1,0,1.529.532l1.747-5.024a.083.083,0,0,1,.156,0l.963,2.769a1.7,1.7,0,0,0,3.187.073.078.078,0,0,1,.052-.049.079.079,0,0,1,.071.01l2.539,1.693a1.706,1.706,0,0,0,1.705.107l2.127-1.064A.81.81,0,0,0,77.11,199.761Z" transform="translate(-62.624 -195.633)"/></g><g transform="translate(40.878 63.344)"><path d="M146.594,200.312l-2.321-1.547a1.7,1.7,0,0,0-2.524.784.083.083,0,0,1-.155,0l-.964-2.769a1.681,1.681,0,0,0-1.607-1.143h0a1.682,1.682,0,0,0-1.607,1.143l-1.747,5.024a.809.809,0,1,0,1.529.532l1.747-5.024a.083.083,0,0,1,.156,0l.964,2.769a1.7,1.7,0,0,0,3.187.073.083.083,0,0,1,.123-.038l2.321,1.547a.81.81,0,0,0,.9-1.347Z" transform="translate(-135.624 -195.633)"/></g><g transform="translate(64.239 21.319)"><path d="M215.976,67.069l-2.692-1.083a1.925,1.925,0,0,0-2.439.892L207.875,72.3a.81.81,0,1,0,1.42.778l2.98-5.44a.32.32,0,0,1,.405-.151l2.692,1.083a.326.326,0,0,1,.182.409l-1.615,5.968a.809.809,0,1,0,1.563.423l1.61-5.949A1.933,1.933,0,0,0,215.976,67.069Z" transform="translate(-207.775 -65.842)"/></g><g transform="translate(64.584 24.227)"><path d="M217.647,77.98l-7.7-3.1a.809.809,0,1,0-.6,1.5l7.7,3.1a1.784,1.784,0,0,1,.987,2.318L213.116,94a.809.809,0,0,0-.844,1.162l.371.743a.809.809,0,0,0,.724.448h.032a.81.81,0,0,0,.719-.506L219.532,82.4A3.405,3.405,0,0,0,217.647,77.98Z" transform="translate(-208.838 -74.823)"/></g><g transform="translate(56.829 27.356)"><path d="M199.546,87.016l-6.135-2.47a.81.81,0,0,0-1.053.449l-7.41,18.4a.81.81,0,0,0,.449,1.053l6.135,2.47a.81.81,0,0,0,1.053-.449l7.41-18.4a.809.809,0,0,0-.449-1.053Zm-8.161,18.1-4.633-1.865,6.806-16.9,4.633,1.865Z" transform="translate(-184.89 -84.488)"/></g><g transform="translate(65.545 63.147)"><path d="M215.942,197.024a2.524,2.524,0,0,1-2.007-1.975c0-.032-.1-.032-.1,0a2.524,2.524,0,0,1-2.007,1.975c-.032,0-.032.065,0,.1a2.524,2.524,0,0,1,2.007,1.975c0,.032.1.032.1,0a2.524,2.524,0,0,1,2.007-1.975C215.975,197.089,215.975,197.024,215.942,197.024Z" transform="translate(-211.806 -195.025)" fill="#70d6f9"/></g><g transform="translate(0 30.436)"><path d="M14.008,95.781h-.777v-.745A1.023,1.023,0,0,0,12.195,94a1.037,1.037,0,0,0-1.036,1v.777h-.745a1.023,1.023,0,0,0-1.036,1.036,1,1,0,0,0,1.036,1.036h.745V98.6a1.023,1.023,0,0,0,1.036,1.036,1.037,1.037,0,0,0,1.036-1v-.777h.745a1.023,1.023,0,0,0,1.036-1.036A1.037,1.037,0,0,0,14.008,95.781Z" transform="translate(-9.376 -94)" fill="#fc657e"/></g><g transform="translate(50.254)"><path d="M165.682,0a1.1,1.1,0,1,0,1.1,1.1A1.1,1.1,0,0,0,165.682,0Z" transform="translate(-164.581)" fill="#87d147"/></g><g transform="translate(3.952 42.416)"><path d="M22.682,131a1.1,1.1,0,1,0,1.1,1.1A1.1,1.1,0,0,0,22.682,131Z" transform="translate(-21.581 -131)" fill="#f5c84c"/></g><g transform="translate(58.235 4.646)"><path d="M195.173,17.216a3.593,3.593,0,0,1-2.882-2.817c0-.065-.13-.065-.13,0a3.593,3.593,0,0,1-2.882,2.817c-.065,0-.065.1,0,.13a3.593,3.593,0,0,1,2.882,2.817c0,.065.13.065.13,0a3.593,3.593,0,0,1,2.882-2.817C195.237,17.313,195.237,17.216,195.173,17.216Z" transform="translate(-189.231 -14.35)" fill="#f5c84c"/></g><g transform="translate(50.671 59.819)"><path d="M173.835,187.411a.809.809,0,0,0-1.141.093l-5.2,6.117.49-8.013a.809.809,0,1,0-1.616-.1l-.5,8.137a1.556,1.556,0,0,0,.986,1.56,1.6,1.6,0,0,0,.6.118,1.558,1.558,0,0,0,1.192-.56l5.28-6.211A.811.811,0,0,0,173.835,187.411Z" transform="translate(-165.868 -184.748)"/></g><g transform="translate(51.167 63.978)"><path d="M171.777,198.963l-3.262-1.313a.81.81,0,1,0-.6,1.5l3.262,1.313a.81.81,0,1,0,.6-1.5Z" transform="translate(-167.402 -197.591)"/></g><g transform="translate(51.169 45.76)"><path d="M180.315,143.856a.809.809,0,0,0-1.053.448L173.9,157.612l-4.633-1.865,5.358-13.308a.81.81,0,0,0-1.5-.6l-5.66,14.059a.81.81,0,0,0,.449,1.053l6.135,2.47a.809.809,0,0,0,1.053-.449l5.66-14.059A.809.809,0,0,0,180.315,143.856Z" transform="translate(-167.408 -141.327)"/></g><g transform="translate(14.449 13.071)"><path d="M96.983,45.966a.809.809,0,0,0-.809.809l.011,2.159-40.564.011-.011-6.958H91.061a.809.809,0,1,0,0-1.619H55.609A1.61,1.61,0,0,0,54,41.977v6.97a1.61,1.61,0,0,0,1.608,1.608H96.184a1.61,1.61,0,0,0,1.608-1.608v-2.17a.809.809,0,0,0-.809-.809Z" transform="translate(-54.001 -40.369)"/></g><g transform="translate(50.941 8.054)"><path d="M177.728,35.242h-7.7a1.7,1.7,0,0,1-1.7-1.7V25.684a.809.809,0,1,0-1.619,0v7.858a3.323,3.323,0,0,0,3.319,3.319h7.7a.809.809,0,1,0,0-1.619Z" transform="translate(-166.704 -24.875)"/></g></g></g></svg>