<svg xmlns="http://www.w3.org/2000/svg" width="62" height="62" viewBox="0 0 62 62"><g transform="translate(-1 -1)"><path d="M58,54v8H38V54a2.006,2.006,0,0,1,2-2H56A2.006,2.006,0,0,1,58,54Z" fill="#fcd770"/><path d="M35,24.37a2.355,2.355,0,0,0,1.45,2.18l-.91.91A16.006,16.006,0,1,0,36,43.75v.94a7.934,7.934,0,0,0,1.24,4.27,20.008,20.008,0,1,1-.79-26.78A2.36,2.36,0,0,0,35,24.37Z" fill="#ccd1d9"/><path d="M35.78,33.22,35.5,27.5l.04-.04A16.006,16.006,0,1,0,36,43.75V36.9A30.164,30.164,0,0,0,35.78,33.22Z" fill="#69d6f4"/><path d="M29,34l-.1.1A4.431,4.431,0,0,0,28,34a4,4,0,0,0-4,4,3.908,3.908,0,0,0,.03.49l-1.55.77a6.961,6.961,0,0,1-3.13.74h-.51a3.846,3.846,0,0,1-3.2-5.97l.69-1.02A3.993,3.993,0,0,0,17,30.79V30a6.009,6.009,0,0,1,6-6,6,6,0,0,1,6,6Z" fill="#ff826e"/><circle cx="2" cy="2" r="2" transform="translate(21 30)" fill="#fc6e51"/><circle cx="2" cy="2" r="2" transform="translate(16 44)" fill="#ff826e"/><circle cx="2" cy="2" r="2" transform="translate(30 58)" fill="#ff826e"/><circle cx="2" cy="2" r="2" transform="translate(4 56)" fill="#ff826e"/><circle cx="2" cy="2" r="2" transform="translate(2 10)" fill="#ff826e"/><path d="M40.83,5.17A4.008,4.008,0,1,1,38,4,4.025,4.025,0,0,1,40.83,5.17Z" fill="#ff826e"/><path d="M62,7.54a3.536,3.536,0,0,1-1.04,2.5L52,19l-1-1-3-3-1-1,8.96-8.96A3.54,3.54,0,0,1,62,7.54Z" fill="#5cd6b3"/><path d="M45.879,15.879h4.243v4.243H45.879Z" transform="translate(1.331 39.213) rotate(-45)" fill="#ccd1d9"/><path d="M37,27h-.22a1.784,1.784,0,0,0-1.26.52l-.02-.02.04-.04.91-.91,3.88-3.88L45,18l3,3-3,3-4.22,4.22-.24.24A5.022,5.022,0,0,0,37,27Z" fill="#e6e9ed"/><path d="M35.05,29.21a30.383,30.383,0,0,1,.73,4.01L31.9,37.1a4.431,4.431,0,0,1,.1.9,4,4,0,0,1-7.97.49A3.908,3.908,0,0,1,24,38a4,4,0,0,1,4-4,4.431,4.431,0,0,1,.9.1L29,34l6.5-6.5.02.02A1.784,1.784,0,0,0,35,28.78a2.024,2.024,0,0,0,.05.43Z" fill="#e6e9ed"/><path d="M57.78,42.05A8.341,8.341,0,0,1,58,43.98a8.5,8.5,0,0,1-.91,3.83L55,52H40l-1.66-1.66a7.665,7.665,0,0,1-1.1-1.38A7.934,7.934,0,0,1,36,44.69V36.9a30.164,30.164,0,0,0-.22-3.68,30.384,30.384,0,0,0-.73-4.01,2.024,2.024,0,0,1-.05-.43A1.775,1.775,0,0,1,36.78,27H37a4.985,4.985,0,0,1,5,5v3.39A11.943,11.943,0,0,0,44,42l3.66-7.31A3.363,3.363,0,0,0,48,33.23a3.252,3.252,0,0,0-2.08-3.03l-5.14-1.98L45,24l4.05,1.16a9.042,9.042,0,0,1,4.79,3.3,8.861,8.861,0,0,1,1.59,3.42Z" fill="#f0d0b4"/><path d="M37.67,22a2.372,2.372,0,0,1,.65.09l2.01.58-3.88,3.88a2.369,2.369,0,0,1,0-4.37h.01a2.309,2.309,0,0,1,.91-.18Z" fill="#f0d0b4"/><path d="M52,20.414l9.671-9.672a4.535,4.535,0,0,0-6.414-6.414L45.586,14l1,1-6.543,6.543L38.6,21.129A3.412,3.412,0,0,0,37.668,21h-.3a3.371,3.371,0,0,0-.64.065A20.791,20.791,0,0,0,22,15,21,21,0,1,0,37.162,50.527c.153.178.307.355.475.523l.565.565A2.983,2.983,0,0,0,37,54v9H59V54a3,3,0,0,0-2.412-2.941l1.4-2.8a9.574,9.574,0,0,0,.765-6.432L56.408,31.655a10.07,10.07,0,0,0-1.767-3.8,10.188,10.188,0,0,0-5.319-3.662L46.909,23.5,51,19.414ZM56.671,5.742a2.536,2.536,0,1,1,3.586,3.586L52,17.586,48.414,14ZM40.46,27.127a5.929,5.929,0,0,0-2.192-.98L45,19.414,46.586,21Zm-6.215.214L30,31.586V30a7,7,0,1,0-14,0v.789a2.989,2.989,0,0,1-.5,1.664l-.684,1.025A4.839,4.839,0,0,0,18.838,41h.51a8.034,8.034,0,0,0,3.578-.845l.462-.231A5,5,0,0,0,33,38a4.89,4.89,0,0,0-.031-.555l1.986-1.987c.023.482.045.964.045,1.446v6.571a15,15,0,1,1-.755-16.134ZM23.013,37.875l-.982.491A6.024,6.024,0,0,1,19.348,39h-.51a2.837,2.837,0,0,1-2.361-4.412l.684-1.025A4.987,4.987,0,0,0,18,30.79V30a5,5,0,0,1,10,0v3a5,5,0,0,0-4.988,4.875Zm11.712-5.014L30.8,36.786l.124.539a3,3,0,1,1-2.25-2.249l.54.124,5.026-5.026c.2.889.365,1.784.485,2.687ZM37.668,23a1.355,1.355,0,0,1,.376.053l.38.109-2.089,2.089A1.358,1.358,0,0,1,37.372,23ZM22,55a19,19,0,0,1,0-38,18.8,18.8,0,0,1,12.907,5.088A3.343,3.343,0,0,0,34.038,24a17,17,0,1,0,1.188,22.668,8.847,8.847,0,0,0,.783,2.158A18.97,18.97,0,0,1,22,55Zm35-1v7H39V54a1,1,0,0,1,1-1H56A1,1,0,0,1,57,54ZM48.773,26.118a8.168,8.168,0,0,1,4.269,2.938A8.056,8.056,0,0,1,54.459,32.1l2.347,10.17a7.57,7.57,0,0,1-.6,5.088L54.382,51H40.414L39.05,49.636A6.954,6.954,0,0,1,37,44.687V36.905a32.775,32.775,0,0,0-.976-7.933A.78.78,0,0,1,36.781,28H37a4,4,0,0,1,4,4v3.4a12.868,12.868,0,0,0,2.168,7.16l.956,1.434,4.427-8.854a4.253,4.253,0,0,0-2.276-5.871l-3.7-1.423,2.718-2.718Zm-6.109,3.9,2.893,1.112a2.25,2.25,0,0,1,1.205,3.107l-2.809,5.618A10.874,10.874,0,0,1,43,35.395V32a5.961,5.961,0,0,0-.336-1.98ZM48,19.586,46.414,18,48,16.414,49.586,18Z"/><path d="M23,29a3,3,0,0,0,0,6V33a1,1,0,1,1,1-1h2A3,3,0,0,0,23,29Z"/><path d="M18,49a3,3,0,1,0-3-3A3,3,0,0,0,18,49Zm0-4a1,1,0,1,1-1,1A1,1,0,0,1,18,45Z"/><path d="M23,44h2v2H23Z"/><path d="M9,35h2v2H9Z"/><path d="M7,55.184V53H5v2.184A3,3,0,0,0,3.184,57H1v2H3.184A3,3,0,0,0,5,60.816V63H7V60.816A3,3,0,0,0,8.816,59H11V57H8.816A3,3,0,0,0,7,55.184ZM6,59a1,1,0,1,1,1-1A1,1,0,0,1,6,59Z"/><path d="M32,57a3,3,0,1,0,3,3A3,3,0,0,0,32,57Zm0,4a1,1,0,1,1,1-1A1,1,0,0,1,32,61Z"/><path d="M4,15a3,3,0,1,0-3-3A3,3,0,0,0,4,15Zm0-4a1,1,0,1,1-1,1A1,1,0,0,1,4,11Z"/><path d="M33.833,10.753l-1.49,1.49,1.414,1.414,1.49-1.49A4.961,4.961,0,0,0,37,12.9V15h2V12.9a4.961,4.961,0,0,0,1.753-.732l1.49,1.49,1.414-1.414-1.49-1.49A4.961,4.961,0,0,0,42.9,9H45V7H42.9a4.969,4.969,0,0,0-.732-1.753l1.49-1.49L42.243,2.343l-1.49,1.49A4.961,4.961,0,0,0,39,3.1V1H37V3.1a4.961,4.961,0,0,0-1.753.732l-1.49-1.49L32.343,3.757l1.49,1.49A4.969,4.969,0,0,0,33.1,7H31V9h2.1A4.969,4.969,0,0,0,33.833,10.753ZM38,5a3,3,0,1,1-3,3,3,3,0,0,1,3-3Z"/></g></svg>