<svg xmlns="http://www.w3.org/2000/svg" width="122.255" height="101" viewBox="0 0 122.255 101"><g transform="translate(-224.283 -9991)"><path d="M21.177,1H0A1,1,0,0,1-1,0,1,1,0,0,1,0-1H21.177a1,1,0,0,1,1,1A1,1,0,0,1,21.177,1Z" transform="translate(324.361 10041.599)" fill="#9ea257"/><circle cx="50.5" cy="50.5" r="50.5" transform="translate(224.283 9991)" fill="#ced371"/><g transform="translate(242.373 10009.965)"><path d="M61,17A14,14,0,1,1,47,3,14,14,0,0,1,61,17Zm-5-2a1,1,0,1,0,1-1A1,1,0,0,0,56,15Zm-3,6a2,2,0,1,0,2,2,2,2,0,0,0-2-2Zm-6,7a1,1,0,1,0-1-1A1,1,0,0,0,47,28ZM47,8a1,1,0,1,0-1-1A1,1,0,0,0,47,8ZM41,19a4,4,0,0,0,8,0,4,4,0,1,0-4-4A4,4,0,0,0,41,19Zm0-6a2,2,0,1,0-2-2A2,2,0,0,0,41,13Zm-5,6a1,1,0,1,0,1-1A1,1,0,0,0,36,19Z" fill="#c0ab91"/><path d="M61,17a13.994,13.994,0,0,1-25.69,7.69A13.99,13.99,0,0,0,54.69,5.31,13.969,13.969,0,0,1,61,17Z" fill="#a78966"/><circle cx="1" cy="1" r="1" transform="translate(56 14)" fill="#ffde55"/><circle cx="1" cy="1" r="1" transform="translate(46 26)" fill="#ffde55"/><circle cx="1" cy="1" r="1" transform="translate(46 6)" fill="#ffde55"/><circle cx="1" cy="1" r="1" transform="translate(36 18)" fill="#ffde55"/><path d="M61,57a3.995,3.995,0,0,1-4,4H7a4,4,0,0,1,0-8H57A4,4,0,0,1,61,57Z" fill="#57a4ff"/><circle cx="2" cy="2" r="2" transform="translate(51 21)" fill="#ff9478"/><path d="M45,23a4,4,0,0,1,0-8,4,4,0,1,1,4,4A4,4,0,0,1,45,23Z" fill="#ff9478"/><circle cx="2" cy="2" r="2" transform="translate(39 9)" fill="#ff9478"/><path d="M16.3,15.4h14V31.393h-14Z" transform="translate(-9.72 23.324) rotate(-45)" fill="#57a4ff"/><path d="M23.417,12.448h5.657v16H23.417Z" transform="translate(-6.77 24.546) rotate(-45)" fill="#2488ff"/><path d="M8.515,12.61h14v6.01h-14Z" transform="translate(-6.497 15.544) rotate(-45)" fill="#ffde55"/><path d="M32,53H8L6.32,48.24a21.989,21.989,0,0,1,4.3-21.94l2.67-3.01,3.96,3.96-.89,1.48a10,10,0,0,0,2.1,12.76Z" fill="#c6c5ca"/><path d="M61,57a3.995,3.995,0,0,1-4,4H53a4,4,0,0,0,0-8h4A4,4,0,0,1,61,57Z" fill="#2488ff"/><path d="M32,53H28L14.46,41.49a10,10,0,0,1-2.1-12.76l.89-1.48-1.84-1.84,1.88-2.12,3.96,3.96-.89,1.48a10,10,0,0,0,2.1,12.76Z" fill="#898890"/><path d="M3.49,12.08a2,2,0,0,1,0-2.83L9.15,3.59a2,2,0,0,1,2.83,2.83l-.71.71,4.24,4.24-4.24,4.24L7.03,11.37l-.71.71a2.016,2.016,0,0,1-2.83,0Z" fill="#2488ff"/><path d="M15.637,9.66h5.657v6.01H15.637Z" transform="translate(-3.547 16.766) rotate(-45)" fill="#ffcd00"/><path d="M49,43a2,2,0,0,1,0,4H13V43Z" fill="#c0ab91"/><path d="M26.83,31.18l-1.42-1.42,4.25-4.24,1.41,1.41h.01l1.41,1.41a2,2,0,0,1,0,2.83l-1.42,1.42a2,2,0,0,1-2.83,0Z" fill="#ffde55"/><path d="M57,52H32.37l-4.71-4H49a3,3,0,1,0,0-6H20.61l-1.5-1.27a8.965,8.965,0,0,1-1.89-11.48l.23-.39,5.84,5.85a1.014,1.014,0,0,0,1.42,0l2.12-2.12.71.7a2.994,2.994,0,0,0,4.24,0l1.41-1.41a2.994,2.994,0,0,0,0-4.24l-.7-.71,1.87-1.88a14.777,14.777,0,1,0-1.68-3.58L19.05,7.84a1.014,1.014,0,0,0-1.41,0L15.51,9.96,12.69,7.13a3,3,0,0,0,0-4.24,3.068,3.068,0,0,0-4.25,0L2.79,8.54a3.006,3.006,0,0,0,0,4.25,3.075,3.075,0,0,0,4.24,0l2.83,2.83L7.74,17.74a1,1,0,0,0,0,1.41l4.18,4.18L9.87,25.64A22.981,22.981,0,0,0,5.38,48.57L6.6,52.04A4.988,4.988,0,0,0,7,62H57a5,5,0,1,0,0-10ZM47,4A13,13,0,1,1,34,17,13,13,0,0,1,47,4Zm2,40a1,1,0,0,1,0,2H14V44ZM31.78,30.46l-1.42,1.42a1,1,0,0,1-1.41,0l-2.12-2.12,2.83-2.83,2.12,2.12a.99.99,0,0,1,.29.71.967.967,0,0,1-.29.7Zm.71-6.36-1.42,1.41-.71-.7a1,1,0,0,0-1.41,0l-4.24,4.24a1,1,0,0,0,0,1.41l.7.71L24,32.59l-9.9-9.9,8.49-8.49ZM7.74,10.67a.99.99,0,0,0-1.42,0l-.71.7a1.014,1.014,0,0,1-1.41,0,1,1,0,0,1,0-1.41L9.86,4.3a1,1,0,1,1,1.41,1.42l-.71.7a1.008,1.008,0,0,0,0,1.42l3.54,3.53L11.27,14.2Zm2.12,7.77,8.48-8.48,2.83,2.83-8.48,8.48Zm1.51,8.52,1.96-2.21,2.66,2.65-.49.82A10.954,10.954,0,0,0,17.54,42H13a1,1,0,0,0-1,1v4a1,1,0,0,0,1,1H24.57l4.71,4H8.71L7.26,47.91a21,21,0,0,1,4.11-20.95ZM57,60H7a3,3,0,0,1,0-6H57a3,3,0,1,1,0,6Z"/><path d="M56,56h2v2H56Z"/><path d="M52,56h2v2H52Z"/><path d="M53,20a3,3,0,1,0,3,3,3,3,0,0,0-3-3Zm0,4a1,1,0,1,1,1-1A1,1,0,0,1,53,24Z"/><path d="M41,14a3,3,0,1,0-3-3,3,3,0,0,0,3,3Zm0-4a1,1,0,1,1-1,1A1,1,0,0,1,41,10Z"/><circle cx="2" cy="2" r="2" transform="translate(45 25)"/><circle cx="2" cy="2" r="2" transform="translate(45 5)"/><circle cx="2" cy="2" r="2" transform="translate(35 17)"/><circle cx="2" cy="2" r="2" transform="translate(55 13)"/><path d="M40,19a5,5,0,0,0,9.916.916,5,5,0,1,0-5.832-5.832A5.009,5.009,0,0,0,40,19Zm5-3a1,1,0,0,0,1-1,3,3,0,1,1,3,3,1,1,0,0,0-1,1,3,3,0,1,1-3-3Z"/><path d="M48,14h2v2H48Z"/><path d="M44,18h2v2H44Z"/><path d="M53,8h2v2H53Z"/><path d="M38,23h2v2H38Z"/></g></g></svg>