<svg xmlns="http://www.w3.org/2000/svg" width="122.255" height="101" viewBox="0 0 122.255 101"><g transform="translate(-810.424 -10457)"><path d="M21.177,1H0A1,1,0,0,1-1,0,1,1,0,0,1,0-1H21.177a1,1,0,0,1,1,1A1,1,0,0,1,21.177,1Z" transform="translate(910.502 10507.988)" fill="#9ea257"/><circle cx="50.5" cy="50.5" r="50.5" transform="translate(810.424 10457)" fill="#ced371"/><g transform="translate(830.424 10477)"><circle cx="11" cy="11" r="11" transform="translate(39 1)" fill="#ffeaa7"/><path d="M33,45H51V61H33Z" fill="#d3a06c"/><path d="M42,35H60V51H42Z" fill="#d3a06c"/><path d="M28,53H27a7.229,7.229,0,0,0-4.68-6.76l-2.09-.78A7.361,7.361,0,0,0,17.69,45H22A10,10,0,0,0,32,35V25h4V41a12.041,12.041,0,0,1-.68,4H33v6.27A2,2,0,0,0,32,51h-.17a2.006,2.006,0,0,0-1.42.59l-1.7,1.7A1.014,1.014,0,0,0,28,53Z" fill="#656d78"/><path d="M16,45h1a4,4,0,0,0-4,4v3.96A12,12,0,0,1,2,41V25H6V35A10,10,0,0,0,16,45Z" fill="#656d78"/><path d="M48,35h6v4H48Z" fill="#b27946"/><path d="M45,45v4H39V45h6Z" fill="#b27946"/><path d="M35,21H29V14a1,1,0,0,0-1-1H26a1,1,0,0,0-1,1v7H21V7A14,14,0,0,1,35,21Z" fill="#ffeaa7"/><path d="M17,7V21H13V14a1,1,0,0,0-1-1H10a1,1,0,0,0-1,1v7H3A14,14,0,0,1,17,7Z" fill="#ffeaa7"/><path d="M29,14v7H25V14a1,1,0,0,1,1-1h2A1,1,0,0,1,29,14Z" fill="#fcd770"/><path d="M21,7V21H17V6a1,1,0,0,1,1-1h2a1,1,0,0,1,1,1Z" fill="#fcd770"/><path d="M13,14v7H9V14a1,1,0,0,1,1-1h2A1,1,0,0,1,13,14Z" fill="#fcd770"/><path d="M37,22v2a1,1,0,0,1-1,1H2a1,1,0,0,1-1-1V22a1,1,0,0,1,1-1H36A1,1,0,0,1,37,22Z" fill="#fcd770"/><path d="M28.71,53.29A1.014,1.014,0,0,1,29,54v6a1,1,0,0,1-1,1H19a6,6,0,0,1-6-6V49a4,4,0,1,1,8,0v4h7A1.014,1.014,0,0,1,28.71,53.29Z" fill="#b4dd7f"/><path d="M22.32,46.24A7.229,7.229,0,0,1,27,53H21V49a3.995,3.995,0,0,0-4-4h.69a7.361,7.361,0,0,1,2.54.46Z" fill="#b4dd7f"/><path d="M33,51.27A2,2,0,0,1,34,53h1a2.006,2.006,0,0,1,2,2,3.995,3.995,0,0,1-4,4H29V54a1.014,1.014,0,0,0-.29-.71l1.7-1.7A2.006,2.006,0,0,1,31.83,51H32A2,2,0,0,1,33,51.27Z" fill="#f0d0b4"/><path d="M32,25V35A10,10,0,0,1,22,45H16A10,10,0,0,1,6,35V25Z" fill="#f0d0b4"/><path d="M24,37l-.03.12a5.123,5.123,0,0,1-9.94,0L14,37Z" fill="#ff826e"/><path d="M24.94,37.361,25.281,36H12.719l.34,1.361a6.123,6.123,0,0,0,11.881,0ZM15.464,38h7.071a4.125,4.125,0,0,1-7.071,0Z"/><path d="M41,44H36.643A13.046,13.046,0,0,0,37,41V25.722A1.993,1.993,0,0,0,38,24V22a2,2,0,0,0-2-2h-.051A15,15,0,0,0,22,6.051V6a2,2,0,0,0-2-2H18a2,2,0,0,0-2,2v.051A15,15,0,0,0,2.051,20H2a2,2,0,0,0-2,2v2a1.993,1.993,0,0,0,1,1.722V41A13.069,13.069,0,0,0,12,53.835V55a7.008,7.008,0,0,0,7,7h9a2,2,0,0,0,2-2h2v2H52V52h9V34H41Zm-1,2h4v2H40Zm-8-2v6h-.171a2.986,2.986,0,0,0-2.122.879l-1.2,1.2A1.96,1.96,0,0,0,28,52h-.078a8.263,8.263,0,0,0-4.116-6.161A11.009,11.009,0,0,0,33,35V26h2V41a10.963,10.963,0,0,1-.422,3ZM21.6,47.043l.367.138A6.248,6.248,0,0,1,25.913,52H22V49a4.947,4.947,0,0,0-.4-1.956ZM17,44H16a9.01,9.01,0,0,1-9-9V26H31v9a9.01,9.01,0,0,1-9,9H17ZM33.949,20H30V14a2,2,0,0,0-2-2H26a2,2,0,0,0-2,2v6H22V8.051A13,13,0,0,1,33.949,20ZM28,20H26V14h2ZM20,6V20H18V6ZM16,8.051V20H14V14a2,2,0,0,0-2-2H10a2,2,0,0,0-2,2v6H4.051A13,13,0,0,1,16,8.051ZM12,20H10V14h2ZM2,22H36v2H2ZM3,41V26H5v9a11.01,11.01,0,0,0,8.308,10.653A4.949,4.949,0,0,0,12,49v2.818A11.066,11.066,0,0,1,3,41ZM19,60a5.006,5.006,0,0,1-5-5V49a3,3,0,0,1,2.989-3h.021A3,3,0,0,1,20,49v3.7l-1.831,2.748,1.664,1.109L21.534,54H28v6Zm10.925-6.51,1.2-1.2A1,1,0,0,1,31.829,52H32a1,1,0,0,1,1,1v1h2a1,1,0,0,1,1,1,3,3,0,0,1-3,3H30V54A1.96,1.96,0,0,0,29.925,53.489ZM50,60H34v-.1A5.009,5.009,0,0,0,38,55a3,3,0,0,0-3-3h-.171A3,3,0,0,0,34,50.775V46h4v4h8V46h4ZM49,36h4v2H49Zm-2,0v4h8V36h4V50H52V44H43V36Z"/><path d="M50,24A12,12,0,1,0,38,12,12.013,12.013,0,0,0,50,24ZM50,2A10,10,0,1,1,40,12,10.011,10.011,0,0,1,50,2Z"/><path d="M56.707,8.707,55.293,7.293,47,15.586l-2.293-2.293-1.414,1.414L47,18.414Z"/><path d="M41,26H59v2H41Z"/><path d="M41,30H59v2H41Z"/><path d="M15,32h2a4,4,0,0,0-8,0h2a2,2,0,0,1,4,0Z"/><path d="M25,30a2,2,0,0,1,2,2h2a4,4,0,0,0-8,0h2A2,2,0,0,1,25,30Z"/></g></g></svg>