<svg xmlns="http://www.w3.org/2000/svg" width="85" height="85" viewBox="0 0 85 85"><g transform="translate(-809.605 -4281.9)"><g transform="translate(871.792 4325.793)"><path d="M56,39.25a6.4,6.4,0,0,1,0,12.385V39.25Z" transform="translate(-56 -39.25)" fill="#fcd770"/></g><circle cx="42.5" cy="42.5" r="42.5" transform="translate(809.605 4281.9)" fill="#fff"/><path d="M42.5,5A37.511,37.511,0,0,0,27.9,77.055,37.511,37.511,0,0,0,57.1,7.945,37.261,37.261,0,0,0,42.5,5m0-5A42.5,42.5,0,1,1,0,42.5,42.5,42.5,0,0,1,42.5,0Z" transform="translate(809.605 4281.9)" fill="#a3314f"/><g transform="translate(838.216 4304.019)"><path d="M42.778,22.388H39.566A12.112,12.112,0,0,0,28.5,15.2h-.24a12.116,12.116,0,0,0-11.067,7.191H13.98a15.176,15.176,0,0,1,28.8,0Z" transform="translate(-13.98 -12)" fill="#ccd1d9"/></g><g transform="translate(832.639 4299.225)"><path d="M46.952,25.976v.8a.8.8,0,0,1-.8.8h-3.2a.8.8,0,0,1-.8-.8v-.8a15.107,15.107,0,0,0-.775-4.794h-.008a15.173,15.173,0,0,0-28.8,0h-.008a15.107,15.107,0,0,0-.775,4.794v.8a.8.8,0,0,1-.8.8H7.8a.8.8,0,0,1-.8-.8v-.8a19.976,19.976,0,0,1,39.952,0Z" transform="translate(-7 -6)" fill="#969faa"/></g><g transform="translate(868.596 4320.799)"><path d="M52,33h3.2v3.2H52Z" transform="translate(-52 -33)" fill="#ccd1d9"/></g><g transform="translate(868.596 4327.191)"><path d="M52,41h3.2v6.392H52Z" transform="translate(-52 -41)" fill="#ccd1d9"/></g><g transform="translate(868.596 4336.78)"><path d="M55.2,54.4v1a.8.8,0,0,1-.8.8H52.8a.8.8,0,0,1-.8-.8V53h3.2Z" transform="translate(-52 -53)" fill="#ccd1d9"/></g><g transform="translate(833.438 4336.78)"><path d="M11.2,53.8v1.6a.8.8,0,0,1-.8.8H8.8a.8.8,0,0,1-.8-.8V53h3.2Z" transform="translate(-8 -53)" fill="#ccd1d9"/></g><g transform="translate(833.438 4327.191)"><path d="M8,41h3.2v6.392H8Z" transform="translate(-8 -41)" fill="#ccd1d9"/></g><g transform="translate(833.438 4320.799)"><path d="M8,33h3.2v3.2H8Z" transform="translate(-8 -33)" fill="#ccd1d9"/></g><g transform="translate(868.596 4323.995)"><path d="M55.2,38.8v1.4H52V37h3.2Z" transform="translate(-52 -37)" fill="#e6e9ed"/></g><g transform="translate(868.596 4333.584)"><path d="M52,49h3.2v3.2H52Z" transform="translate(-52 -49)" fill="#e6e9ed"/></g><g transform="translate(833.438 4333.584)"><path d="M8,49h3.2v3.2H8Z" transform="translate(-8 -49)" fill="#e6e9ed"/></g><g transform="translate(833.438 4323.995)"><path d="M11.2,39.4v.8H8V37h3.2Z" transform="translate(-8 -37)" fill="#e6e9ed"/></g><g transform="translate(862.204 4323.196)"><path d="M47.2,36a3.192,3.192,0,0,1,3.2,3.2V50.383a3.2,3.2,0,0,1-6.392,0V39.2A3.2,3.2,0,0,1,47.2,36Z" transform="translate(-44 -36)" fill="#fcd770"/></g><g transform="translate(828.644 4325.793)"><path d="M6.794,40.648V51.635A6.436,6.436,0,0,1,3.366,49.39,6.393,6.393,0,0,1,6.794,39.25Z" transform="translate(-2 -39.25)" fill="#fcd770"/></g><g transform="translate(836.634 4323.196)"><path d="M15.2,36a3.2,3.2,0,0,1,3.2,3.2V50.383a3.2,3.2,0,1,1-6.392,0V39.2A3.192,3.192,0,0,1,15.2,36Z" transform="translate(-12 -36)" fill="#fcd770"/></g><path d="M50.541,38.56a7.19,7.19,0,0,0-4.794-6.782V27.949a1.593,1.593,0,0,0,.8-1.376v-.8A20.775,20.775,0,0,0,5,25.775v.8a1.593,1.593,0,0,0,.8,1.376v3.828a7.194,7.194,0,0,0,0,13.564v.409a1.6,1.6,0,0,0,1.6,1.6h1.6A1.588,1.588,0,0,0,10.1,46.9a3.985,3.985,0,0,0,6.883-2.746V32.967a4,4,0,0,0-4-4,3.954,3.954,0,0,0-2.4.82V27.95a1.593,1.593,0,0,0,.8-1.376v-.8a14.316,14.316,0,0,1,.576-4H15.1l.211-.475A11.321,11.321,0,0,1,25.65,14.589h.242a11.321,11.321,0,0,1,10.336,6.717l.21.475h3.139a14.316,14.316,0,0,1,.576,4v.8a1.593,1.593,0,0,0,.8,1.376v1.841a3.954,3.954,0,0,0-2.4-.82,4,4,0,0,0-4,4V44.153A3.985,3.985,0,0,0,41.443,46.9a1.588,1.588,0,0,0,1.107.451h1.6a1.6,1.6,0,0,0,1.6-1.6v-.409a7.189,7.189,0,0,0,4.794-6.782ZM44.149,28.172v1.6h-1.6v-1.6Zm0,11.187h-1.6V34.565h1.6Zm-1.6-7.99h1.6v1.6h-1.6Zm0,9.589h1.6v1.6h-1.6Zm-33.56,1.6h-1.6v-1.6h1.6Zm-1.6-11.187h1.6v1.6h-1.6Zm1.6,7.99h-1.6V34.565h1.6Zm0-9.589h-1.6v-1.6h1.6ZM2.6,38.56a5.588,5.588,0,0,1,3.2-5.047V43.607A5.588,5.588,0,0,1,2.6,38.56ZM8.99,45.751h-1.6v-1.6h1.6Zm4-15.182a2.4,2.4,0,0,1,2.4,2.4V44.153a2.4,2.4,0,1,1-4.794,0V32.967A2.4,2.4,0,0,1,12.986,30.57ZM37.465,20.182A12.921,12.921,0,0,0,25.891,12.99h-.242a12.921,12.921,0,0,0-11.573,7.191H12.519a14.383,14.383,0,0,1,26.5,0ZM25.771,9.794A16,16,0,0,0,9.79,25.775v.8h-3.2v-.8a19.177,19.177,0,0,1,38.354,0v.8h-3.2v-.8A16,16,0,0,0,25.771,9.794ZM38.555,46.551a2.4,2.4,0,0,1-2.4-2.4V32.967a2.4,2.4,0,0,1,4.794,0V44.153A2.4,2.4,0,0,1,38.555,46.551Zm4-.8v-1.6h1.6v1.6Zm3.2-2.145V33.513a5.583,5.583,0,0,1,0,10.094Z" transform="translate(826.845 4293.426)"/><path d="M47,39h1.6v1.6H47Z" transform="translate(817.601 4286.593)"/><path d="M47,43h1.6v9.589H47Z" transform="translate(817.601 4285.79)"/><path d="M15,39h1.6v1.6H15Z" transform="translate(824.031 4286.593)"/><path d="M15,43h1.6v9.589H15Z" transform="translate(824.031 4285.79)"/></g></svg>