<svg xmlns="http://www.w3.org/2000/svg" width="85" height="85" viewBox="0 0 85 85"><g transform="translate(-809.615 -4435)"><circle cx="42.5" cy="42.5" r="42.5" transform="translate(809.615 4435)" fill="#fff"/><path d="M42.5,5A37.511,37.511,0,0,0,27.9,77.055,37.511,37.511,0,0,0,57.1,7.945,37.261,37.261,0,0,0,42.5,5m0-5A42.5,42.5,0,1,1,0,42.5,42.5,42.5,0,0,1,42.5,0Z" transform="translate(809.615 4435)" fill="#a3314f"/><g transform="translate(746.745 4449)"><path d="M161.582,7.5a11.65,11.65,0,0,1,11.649,11.649v2.108h-23.3V19.149A11.65,11.65,0,0,1,161.582,7.5Z" transform="translate(-56.137 -6.676)" fill="#9c9c9c"/><path d="M241.612,7.5a11.737,11.737,0,0,0-1.775.134,11.652,11.652,0,0,1,9.874,11.515v2.108h3.55V19.149A11.649,11.649,0,0,0,241.612,7.5Z" transform="translate(-136.166 -6.676)" fill="#838383"/><path d="M171.654,166.393v11.4a2.213,2.213,0,0,1-.939,1.813,20.608,20.608,0,0,1-21.865,0,2.213,2.213,0,0,1-.939-1.813v-11.4l1.11-3.328h21.524Z" transform="translate(-54.337 -145.155)" fill="#62dbfb"/><path d="M94.374,347.13v9.32h35.5v-9.32a7.1,7.1,0,0,0-5.468-6.91l-8.622-2.037h-7.323l-8.622,2.037a7.1,7.1,0,0,0-5.468,6.91Z" transform="translate(-6.68 -301.04)" fill="#9c9c9c"/><path d="M181.554,344.255l-.826,7.615H169.412l-.826-7.615-3.5.827v16.773h19.971V345.082Z" transform="translate(-69.625 -306.445)" fill="#528fd8"/><path d="M205.37,443.89h9.542a.888.888,0,0,1,.888.888v1.553a.888.888,0,0,1-.888.888H205.37a.888.888,0,0,1-.888-.888v-1.553A.888.888,0,0,1,205.37,443.89Z" transform="translate(-104.695 -395.137)" fill="#0067c5"/><path d="M382.27,362.022v15.649h3.883v-9.32A7.1,7.1,0,0,0,382.27,362.022Z" transform="translate(-262.956 -322.261)" fill="#838383"/><path d="M226.326,342.288a3.661,3.661,0,0,1-3.661-3.661v-.444h7.323v.444A3.661,3.661,0,0,1,226.326,342.288Z" transform="translate(-120.88 -301.04)" fill="#f6a96c"/><path d="M226.325,307.155a22.276,22.276,0,0,0,3.661-.3v-4.03h-7.323v4.03A22.279,22.279,0,0,0,226.325,307.155Z" transform="translate(-120.88 -269.568)" fill="#01d0fb"/><path d="M186.76,179.414a8.543,8.543,0,0,1-8.543-8.543v-7.806H195.3v7.806A8.543,8.543,0,0,1,186.76,179.414Z" transform="translate(-81.314 -145.155)" fill="#dff6fd"/><path d="M247.727,163.065v7.806a8.545,8.545,0,0,1-6.879,8.38,8.544,8.544,0,0,0,10.207-8.38v-7.806Z" transform="translate(-137.066 -145.155)" fill="#c8effe"/><path d="M0,0H3.328V7.473H0Z" transform="translate(96.903 25.383) rotate(180)" fill="#3692bc"/><path d="M333.783,163.065h3.328v7.473h-3.328Z" transform="translate(-219.794 -145.155)" fill="#3692bc"/><path d="M136.285,136.089h10.762l.857,2.57a1.109,1.109,0,0,0,1.053.759h.989a1.109,1.109,0,0,0,1.053-1.46l-1.479-4.438a1.109,1.109,0,0,0-1.053-.759H124.1a1.109,1.109,0,0,0-1.053.759l-1.479,4.438a1.109,1.109,0,0,0,1.053,1.46h.989a1.109,1.109,0,0,0,1.053-.759l.857-2.57Z" transform="translate(-30.839 -118.18)" fill="#bfbfbf"/><path d="M333.352,137.957l-1.479-4.438a1.109,1.109,0,0,0-1.053-.759h-4.453a1.109,1.109,0,0,1,1.052.759l.857,2.57H329.4l.857,2.57a1.109,1.109,0,0,0,1.053.759h.989A1.109,1.109,0,0,0,333.352,137.957Z" transform="translate(-213.193 -118.179)" fill="#acacac"/><g transform="translate(86.87 0)"><circle cx="0.666" cy="0.666" r="0.666" transform="translate(17.91 11.031)"/><circle cx="0.666" cy="0.666" r="0.666" transform="translate(20.573 11.031)"/><circle cx="0.666" cy="0.666" r="0.666" transform="translate(23.236 11.031)"/><circle cx="0.666" cy="0.666" r="0.666" transform="translate(25.898 11.031)"/><circle cx="0.666" cy="0.666" r="0.666" transform="translate(15.247 11.031)"/><circle cx="0.666" cy="0.666" r="0.666" transform="translate(12.585 11.031)"/><circle cx="0.666" cy="0.666" r="0.666" transform="translate(9.922 11.031)"/><path d="M208.235,436.39h-9.541a1.713,1.713,0,0,0-1.711,1.711v1.553a1.713,1.713,0,0,0,1.711,1.711h9.541a1.713,1.713,0,0,0,1.711-1.711V438.1A1.713,1.713,0,0,0,208.235,436.39Zm.064,3.265a.064.064,0,0,1-.064.064h-9.541a.064.064,0,0,1-.064-.064V438.1a.064.064,0,0,1,.064-.064h9.541a.064.064,0,0,1,.064.064Z" transform="translate(-184.888 -388.461)"/><path d="M123.2,49.926a.824.824,0,0,0,.824-.824V46.091a7.9,7.9,0,0,0-6.1-7.712l-5.09-1.2a17.1,17.1,0,0,0,4.023-2.054,3.039,3.039,0,0,0,1.289-2.486V22.062h.965a1.934,1.934,0,0,0,1.834-2.545l-1.479-4.436a1.928,1.928,0,0,0-1.542-1.3V12.473a12.473,12.473,0,0,0-24.946,0V13.78a1.928,1.928,0,0,0-1.542,1.3l-1.479,4.437a1.934,1.934,0,0,0,1.834,2.545h.965v5.149a.824.824,0,1,0,1.647,0v-1h1.694a9.378,9.378,0,0,0,4.869,7.73V36.3a16.467,16.467,0,0,1-5.974-2.524,1.391,1.391,0,0,1-.589-1.138v-1.58a.824.824,0,1,0-1.647,0v1.58a3.039,3.039,0,0,0,1.289,2.486,17.11,17.11,0,0,0,4.023,2.054l-5.09,1.2a7.9,7.9,0,0,0-6.1,7.712V55.41a.824.824,0,0,0,.824.824h35.5a.824.824,0,0,0,.824-.824V52.946a.824.824,0,0,0-1.647,0v1.64h-6.119V50.037l1.534-1.534a.824.824,0,0,0-1.165-1.165l-.369.369V39.678l1.285.3a6.254,6.254,0,0,1,4.834,6.109V49.1a.823.823,0,0,0,.824.824Zm-6.7-17.291a1.391,1.391,0,0,1-.589,1.138,16.463,16.463,0,0,1-5.974,2.524V33.936a9.378,9.378,0,0,0,4.869-7.73h1.694Zm0-8.076h-1.681V18.734h.8l.879,2.638Zm-20.415,0H94.4V21.372l.879-2.638h.8Zm-1.4-7.472a.823.823,0,0,0-.781.563l-.853,2.561,0,.007v0a.286.286,0,0,1-.27.192h-.99a.286.286,0,0,1-.271-.377l1.48-4.438a.284.284,0,0,1,.27-.195h17.582a.824.824,0,1,0,0-1.647H94.62V12.473a10.826,10.826,0,0,1,21.651,0v1.284H114.69a.824.824,0,0,0,0,1.647h2.937a.285.285,0,0,1,.271.2l1.479,4.437a.286.286,0,0,1-.271.377h-.99a.286.286,0,0,1-.27-.191v0l0-.006-.854-2.562a.824.824,0,0,0-.781-.563Zm3.043,8.629V18.734h15.438v6.982a7.719,7.719,0,1,1-15.438,0Zm7.719,11.047a21.9,21.9,0,0,1-2.837-.181v-1.94a9.358,9.358,0,0,0,5.675,0v1.94A21.9,21.9,0,0,1,105.446,36.763ZM108.2,38.25a2.837,2.837,0,0,1-5.517,0,23.887,23.887,0,0,0,5.517,0Zm-7.2-.076a4.484,4.484,0,0,0,8.891,0l1.141.27-.668,6.157h-9.838l-.668-6.157Zm-6.364,9.533-.369-.369A.824.824,0,0,0,93.1,48.5l1.534,1.534v4.549H88.517v-8.5a6.254,6.254,0,0,1,4.834-6.109l1.285-.3Zm19.971,6.879H96.284v-15.3l1.959-.463.725,6.687a.824.824,0,0,0,.819.735H111.1a.824.824,0,0,0,.819-.735l.725-6.687,1.959.463v15.3Z" transform="translate(-86.87 0)"/></g></g></g></svg>