<svg xmlns="http://www.w3.org/2000/svg" width="85" height="85" viewBox="0 0 85 85"><g transform="translate(-810.615 -4768)"><circle cx="42.5" cy="42.5" r="42.5" transform="translate(810.615 4768)" fill="#fff"/><path d="M42.5,5A37.511,37.511,0,0,0,27.9,77.055,37.511,37.511,0,0,0,57.1,7.945,37.261,37.261,0,0,0,42.5,5m0-5A42.5,42.5,0,1,1,0,42.5,42.5,42.5,0,0,1,42.5,0Z" transform="translate(810.615 4768)" fill="#a3314f"/><g transform="translate(809.34 4785.818)"><g transform="translate(21.996 0.721)"><g transform="translate(0)"><path d="M0,0H38.326V6.736H0Z" transform="translate(8.375 40.85) rotate(-99.434)" fill="#017297"/><path d="M92,27.635l-2.932.488,6.205,37.319-3.712.617.081.488,6.645-1.1Z" transform="translate(-83.28 -25.702)" fill="#025f80"/><path d="M38.313,16.584l-5.917.984a2.534,2.534,0,0,1-2.912-2.082l-.674-4.051a2.534,2.534,0,0,1,2.082-2.912l5.917-.984A2.534,2.534,0,0,1,39.72,9.621l.674,4.051a2.534,2.534,0,0,1-2.082,2.912Zm-6.125-1.8,5.421-.9-.591-3.556-5.421.9Z" transform="translate(-28.775 -7.504)" fill="#c0d6f2"/><g transform="translate(2.108 0)"><path d="M60.239,13.672l-.674-4.051a2.534,2.534,0,0,0-2.912-2.082l-1.308.218a2.529,2.529,0,0,1,1.4,1.864l.674,4.051v.007l.034.2-.009,0a2.534,2.534,0,0,1-2.107,2.7l-4.609.766a2.516,2.516,0,0,0,1.512.218l5.917-.984A2.534,2.534,0,0,0,60.239,13.672Z" transform="translate(-50.729 -7.505)" fill="#a6c4e8"/></g><path d="M86.06,265.247l-6.219,1.034a1.559,1.559,0,1,1-.511-3.076l6.219-1.034a1.559,1.559,0,0,1,.511,3.076Z" transform="translate(-73.296 -237.695)" fill="#c0d6f2"/><path d="M89.058,263.454a1.559,1.559,0,0,0-1.794-1.282l-1.486.247a1.558,1.558,0,0,1-.616,2.829l-3.895.65a1.555,1.555,0,0,1-1.344-.424,1.559,1.559,0,0,0,1.633.808l6.219-1.034A1.559,1.559,0,0,0,89.058,263.454Z" transform="translate(-75.012 -237.696)" fill="#a6c4e8"/><g transform="translate(28.643 0)"><path d="M0,0H38.326V6.736H0Z" transform="translate(0 39.73) rotate(-80.566)" fill="#017297"/><path d="M368.168,27.635l-.081.488,3.712.617-6.205,37.319,2.932.488,6.286-37.807Z" transform="translate(-361.891 -25.702)" fill="#025f80"/><g transform="translate(3.346)"><path d="M361.919,13.672l.674-4.051A2.534,2.534,0,0,1,365.5,7.539l5.917.984a2.534,2.534,0,0,1,2.082,2.912l-.674,4.051a2.534,2.534,0,0,1-2.912,2.082L364,16.584A2.534,2.534,0,0,1,361.919,13.672Zm8.8-2.446-5.422-.9-.591,3.556,5.421.9Z" transform="translate(-361.884 -7.505)" fill="#c0d6f2"/></g><g transform="translate(5.454 0)"><path d="M391.265,8.525l-5.917-.984a2.516,2.516,0,0,0-1.512.218l4.609.766a2.534,2.534,0,0,1,2.107,2.7l.009,0-.034.2v.007l-.674,4.051a2.529,2.529,0,0,1-1.4,1.864l1.308.218a2.534,2.534,0,0,0,2.912-2.082l.674-4.051A2.534,2.534,0,0,0,391.265,8.525Z" transform="translate(-383.836 -7.507)" fill="#a6c4e8"/></g><path d="M338.049,265.247l6.219,1.034a1.559,1.559,0,1,0,.511-3.076l-6.219-1.034a1.559,1.559,0,0,0-.512,3.076Z" transform="translate(-335.813 -237.695)" fill="#c0d6f2"/><path d="M349.006,263.207l-6.219-1.034a1.556,1.556,0,0,0-1.366.445,1.55,1.55,0,0,1,.868-.105l4.1.695a1.558,1.558,0,0,1,.616,2.829l1.486.247a1.559,1.559,0,1,0,.511-3.076Z" transform="translate(-340.04 -237.697)" fill="#a6c4e8"/></g></g><path d="M62.358,411.849H99.551v6.736H62.358Z" transform="translate(-59.133 -373.018)" fill="#fd4755"/><path d="M347.506,411.849h9.809v6.736h-9.809Z" transform="translate(-316.897 -373.018)" fill="#fb2b3a"/><g transform="translate(33.802 36.668)"><path d="M380.755,397.863v-6a2.534,2.534,0,0,1,2.531-2.531h4.107a2.534,2.534,0,0,1,2.531,2.531v6a2.534,2.534,0,0,1-2.531,2.531h-4.107A2.534,2.534,0,0,1,380.755,397.863Zm2.782-5.747v5.5h3.6v-5.5Z" transform="translate(-380.755 -389.334)" fill="#c0d6f2"/></g><g transform="translate(37.658 36.668)"><path d="M423.688,389.334h-2.782a2.534,2.534,0,0,1,2.531,2.531v6a2.534,2.534,0,0,1-2.531,2.531h2.782a2.534,2.534,0,0,0,2.531-2.531v-6A2.534,2.534,0,0,0,423.688,389.334Z" transform="translate(-420.906 -389.334)" fill="#a6c4e8"/></g><path d="M41.909,405.725v-6.3a1.559,1.559,0,1,1,3.118,0v6.3a1.559,1.559,0,0,1-3.118,0Z" transform="translate(-40.648 -360.374)" fill="#a6c4e8"/><path d="M216.436,411.849h7.6v6.736h-7.6Z" transform="translate(-198.414 -373.018)" fill="#fef056"/><path d="M264.189,411.849H267.2v6.736h-3.014Z" transform="translate(-241.581 -373.018)" fill="#fcde06"/><path d="M233.283,162.652h-3.748a.739.739,0,0,1-.739-.739v-3.748a.739.739,0,0,1,.739-.739h3.748a.739.739,0,0,1,.739.739v3.748A.739.739,0,0,1,233.283,162.652Z" transform="translate(-209.587 -143.029)" fill="#c0d6f2"/><path d="M247.15,157.426h-3.014a.739.739,0,0,1,.739.739v3.748a.739.739,0,0,1-.739.739h3.014a.739.739,0,0,0,.739-.739v-3.748A.739.739,0,0,0,247.15,157.426Z" transform="translate(-223.454 -143.029)" fill="#a6c4e8"/></g><g transform="translate(21.275 0.001)"><path d="M52.072,35.259l5.421-.9a.72.72,0,0,0,.592-.829l-.591-3.556a.72.72,0,0,0-.829-.592l-5.421.9a.72.72,0,0,0-.592.829l.591,3.556a.724.724,0,0,0,.829.592Zm4.12-4.339.355,2.135-4,.665-.355-2.135Z" transform="translate(-47.822 -26.55)"/><path d="M64.324,10.932a3.23,3.23,0,0,0,1.317-2.111l.674-4.051A3.255,3.255,0,0,0,63.64,1.029L57.723.045a3.254,3.254,0,0,0-3.741,2.674l-.491,2.955-7.651,8.732c-.3-.024-3.617,0-3.875-.008L34.1,5.423l-.45-2.7A3.254,3.254,0,0,0,29.911.045l-5.917.984A3.255,3.255,0,0,0,21.32,4.77l.674,4.051a3.255,3.255,0,0,0,2.635,2.667L27.02,25.874a2.278,2.278,0,0,0,.682,4.1l1.473,8.859H26.893a2.279,2.279,0,0,0-4.356.936v6.3a2.279,2.279,0,1,0,4.559,0v-5.8H39.3v5.3H29.756a.72.72,0,1,0,0,1.441h25.51a3.257,3.257,0,0,0,3.063,2.162h4.107a3.255,3.255,0,0,0,3.251-3.251v-6a3.255,3.255,0,0,0-3.251-3.251H58.329a3.257,3.257,0,0,0-3.063,2.162H51.631l1.623-9.765,5.224.869-.665,4a.72.72,0,1,0,1.421.236l.7-4.2a2.278,2.278,0,0,0,.682-4.1l2.392-14.386a3.243,3.243,0,0,0,1.318-.556ZM54,24.57l2.328-14,5.224.869-2.328,14Zm-2.2.311a2.3,2.3,0,0,0-.367.329l-4.406-5.029a1.45,1.45,0,0,0,.119-.575V15.858a1.448,1.448,0,0,0-.134-.607l6.329-7.224a3.275,3.275,0,0,0,1.594,2.122L52.549,24.531a2.278,2.278,0,0,0-.744.35Zm-15.52.433a2.354,2.354,0,0,0-1.2-.783L32.694,10.147A3.267,3.267,0,0,0,34.32,7.859l6.364,7.263a1.448,1.448,0,0,0-.2.735v3.748a1.45,1.45,0,0,0,.183.706Zm-7.877.125-2.328-14,5.224-.869,2.327,14Zm13.535-5.814a.019.019,0,0,1-.019-.019V15.858a.019.019,0,0,1,.019-.019h3.748a.018.018,0,0,1,.012.005h0a.018.018,0,0,1,.005.013v3.748a.019.019,0,0,1-.019.019H41.943ZM55.4,2.956a1.834,1.834,0,0,1,2.083-1.489L63.4,2.45a1.813,1.813,0,0,1,1.489,2.083L64.22,8.585a1.814,1.814,0,0,1-2.083,1.489L56.219,9.09A1.814,1.814,0,0,1,54.73,7.007ZM23.414,8.585l-.674-4.051A1.813,1.813,0,0,1,24.23,2.45l5.917-.984A1.862,1.862,0,0,1,32.23,2.956L32.9,7.007A1.813,1.813,0,0,1,31.414,9.09l-5.917.984a1.813,1.813,0,0,1-2.083-1.489Zm4.188,18.7a.834.834,0,0,1,.545-.34l6.219-1.034a.868.868,0,0,1,.965.69.84.84,0,0,1-.69.965L28.422,28.6a.839.839,0,0,1-.82-1.315Zm1.554,2.653,5.223-.869L36,38.831H30.635Zm-3.5,16.137a.839.839,0,1,1-1.678,0v-6.3a.839.839,0,1,1,1.678,0Zm21.242-5.8v5.3H40.737v-5.3Zm1.441,0h6.74v5.3h-6.74Zm9.992-2.162h4.107a1.813,1.813,0,0,1,1.811,1.811v6a1.813,1.813,0,0,1-1.811,1.811H58.329a1.813,1.813,0,0,1-1.811-1.811v-6A1.813,1.813,0,0,1,58.329,38.11Zm-20.865.721-1.7-10.2a2.289,2.289,0,0,0,1.006-1.69l5.15-5.878c.582-.008,3.465.023,3.955-.012l4.972,5.675a2.273,2.273,0,0,0,1.016,1.9l-1.7,10.2ZM60.177,27.907a.84.84,0,0,1-.965.69l-6.219-1.034a.839.839,0,0,1,.275-1.655l6.219,1.034a.84.84,0,0,1,.69.965Z" transform="translate(-21.275 -0.001)"/><path d="M384.354,34.358l5.421.9a.747.747,0,0,0,.829-.592l.591-3.556a.72.72,0,0,0-.592-.829l-5.421-.9a.72.72,0,0,0-.829.592l-.591,3.556a.72.72,0,0,0,.592.829Zm1.3-3.438,4,.665L389.3,33.72l-4-.665Z" transform="translate(-348.942 -26.551)"/><path d="M402.946,417.741h3.6a.72.72,0,0,0,.72-.72v-5.5a.72.72,0,0,0-.72-.72h-3.6a.72.72,0,0,0-.72.72v5.5A.72.72,0,0,0,402.946,417.741Zm2.884-5.5V416.3h-2.164v-1.255h.467a.72.72,0,1,0,0-1.44h-.467v-1.36h2.164Z" transform="translate(-365.642 -371.354)"/><path d="M249.223,437.853a.72.72,0,0,0,.72-.72v-.844a.72.72,0,1,0-1.44,0v.844A.72.72,0,0,0,249.223,437.853Z" transform="translate(-226.682 -393.739)"/></g></g></g></svg>