<svg xmlns="http://www.w3.org/2000/svg" width="122.255" height="101" viewBox="0 0 122.255 101"><g transform="translate(-224.424 -10140)"><path d="M21.177,1H0A1,1,0,0,1-1,0,1,1,0,0,1,0-1H21.177a1,1,0,0,1,1,1A1,1,0,0,1,21.177,1Z" transform="translate(324.502 10191.988)" fill="#9ea257"/><circle cx="50.5" cy="50.5" r="50.5" transform="translate(224.424 10140)" fill="#ced371"/><g transform="translate(246.424 10149.958)"><g transform="translate(0.927 9.968)"><path d="M7.5,72.158H56.519V83.8H7.5Z" transform="translate(-7.5 -65.284)" fill="none"/><path d="M56.519,65.883V77.526l-24.9.819L7.5,77.526V65.883L30.954,65Z" transform="translate(-7.5 -59.009)" fill="#7ca1b1"/><path d="M418.664,70.405V82.048H414.31V70.158Z" transform="translate(-369.645 -63.532)" fill="#678d98"/><path d="M224.265,207.553v30.692a2.605,2.605,0,0,1-2.605,2.605H187.354a2.6,2.6,0,0,1-2.6-2.605V207.553a2.6,2.6,0,0,1,2.6-2.605H221.66A2.605,2.605,0,0,1,224.265,207.553Z" transform="translate(-168.454 -179.814)" fill="#5986cb"/><path d="M457.1,207.553v30.692a2.605,2.605,0,0,1-2.605,2.605H450.42a2.605,2.605,0,0,0,2.605-2.605V207.553a2.605,2.605,0,0,0-2.605-2.605H454.5A2.605,2.605,0,0,1,457.1,207.553Z" transform="translate(-401.292 -179.814)" fill="#4278c3"/><path d="M56.519,166.368v18.7l-.984,2.138.984,2.452v3.451a1.247,1.247,0,0,1-1.174,1.309H8.674A1.247,1.247,0,0,1,7.5,193.111V166.368Z" transform="translate(-7.5 -146.752)" fill="#eaf6ff"/><path d="M409.374,166.368v18.7l-1.1,2.138,1.1,2.452v3.451a1.309,1.309,0,0,1-1.309,1.309H403.71a1.309,1.309,0,0,0,1.31-1.309V166.368Z" transform="translate(-360.355 -146.752)" fill="#c8effe"/><path d="M53.42,16.538l.733,3.437-.733,3.437H7.5V17.847a1.309,1.309,0,0,1,1.309-1.309Z" transform="translate(-7.5 -16.538)" fill="#5986cb"/><path d="M387.779,17.847v5.565H379.07V16.538h7.4A1.309,1.309,0,0,1,387.779,17.847Z" transform="translate(-338.76 -16.538)" fill="#fd4755"/><path d="M409.374,17.847v5.565H405.02V17.847a1.309,1.309,0,0,0-1.31-1.309h4.355A1.309,1.309,0,0,1,409.374,17.847Z" transform="translate(-360.355 -16.538)" fill="#e41f2d"/><path d="M7.5,140.878H56.519v3.15H7.5Z" transform="translate(-7.5 -125.005)" fill="#c8effe"/><path d="M414.31,140.878h4.354v3.15H414.31Z" transform="translate(-369.645 -125.005)" fill="#99e6fc"/><path d="M74.237,166.368H89.408v4.59H74.237Z" transform="translate(-65.989 -147.224)" fill="#5986cb"/><path d="M339.03,317.7h13.657v4.59H339.03Z" transform="translate(-303.668 -279.219)" fill="#5986cb"/><path d="M414.31,317.7h4.354v4.59H414.31Z" transform="translate(-369.645 -279.219)" fill="#4278c3"/><path d="M197,242.032h17.553v4.59H197Z" transform="translate(-176.576 -213.221)" fill="#ffc250"/><path d="M229.791,428.027h7.934v4.1h-7.934Z" transform="translate(-205.201 -375.325)" fill="#eaf6ff"/></g><g transform="translate(0 9.042)"><path d="M29.942,36.849a.927.927,0,0,0,0,1.854H41.029a.927.927,0,0,0,0-1.854Z" transform="translate(-25.429 -33.413)"/><path d="M29.942,100.573H33.47a.927.927,0,1,0,0-1.854H29.942a.927.927,0,1,0,0,1.854Z" transform="translate(-25.429 -87.29)"/><path d="M95.468,100.573h19.755a.927.927,0,0,0,0-1.854H95.468a.927.927,0,0,0,0,1.854Z" transform="translate(-84.43 -87.29)"/><path d="M56.82,42.028a.9.9,0,0,0,.845-.955v-4.4a3.452,3.452,0,0,0-3.219-3.639H51.475V11.346a2.185,2.185,0,0,0-2.038-2.3H39.157a.9.9,0,0,0-.845.955.9.9,0,0,0,.845.955h2.692v5.171H1.689V11.346a.374.374,0,0,1,.348-.394H35.027A.9.9,0,0,0,35.872,10a.9.9,0,0,0-.845-.955H2.038A2.185,2.185,0,0,0,0,11.346V56.628a2.185,2.185,0,0,0,2.038,2.3H19.963v9.361a3.452,3.452,0,0,0,3.219,3.639H54.447a3.452,3.452,0,0,0,3.219-3.639V45.622a.851.851,0,1,0-1.689,0v22.67a1.64,1.64,0,0,1-1.529,1.729H23.181a1.64,1.64,0,0,1-1.529-1.729V58.932H49.438a2.185,2.185,0,0,0,2.038-2.3V34.942h2.971a1.64,1.64,0,0,1,1.529,1.729v4.4a.9.9,0,0,0,.845.955ZM49.786,52.117H39.029V49.3H49.786ZM37.339,57.022H23.032V49.3H37.339Zm-28.134,0V49.3H21.343v7.724ZM8.361,42.654a.9.9,0,0,0-.845.955v3.778H1.689V39.663H21.343v7.724H9.206V43.609A.9.9,0,0,0,8.361,42.654Zm12.982-15.87v1.335H9.206V26.784Zm16,0v1.335H23.032V26.784Zm12.447,0v1.335H39.029V26.784Zm0,10.97H39.029V30.029H49.786Zm-48.1,0V30.029H7.516v7.725H1.689Zm35.65-7.724v7.724H23.032V30.029Zm-16,2.819H9.206V30.029H21.343ZM9.206,34.758H21.343v3H9.206Zm28.134,4.905v2.819H23.032V39.663ZM23.032,44.393H37.339v2.995H23.032Zm16-4.729H49.786v7.724H39.029ZM7.516,28.119H1.689V26.784H7.516ZM43.538,10.952h5.9a.374.374,0,0,1,.348.394v4.778H43.538Zm6.248,7.081v6.841H1.689V18.033ZM1.689,56.628V49.3H7.516v7.724H2.038a.374.374,0,0,1-.348-.394Zm47.748.394H39.029v-3H49.786v2.6A.374.374,0,0,1,49.438,57.022Z" transform="translate(0 -9.042)"/><path d="M223.218,420.527a.927.927,0,0,0-.927.927v4.1a.927.927,0,0,0,.927.927h7.934a.927.927,0,0,0,.927-.927v-4.1a.927.927,0,0,0-.927-.927Zm7.007,4.1h-6.08v-2.246h6.08Z" transform="translate(-197.701 -367.825)"/><path d="M334.658,421.454a.927.927,0,0,0-.927-.927H316.008a.927.927,0,0,0,0,1.854h17.723A.927.927,0,0,0,334.658,421.454Z" transform="translate(-281.752 -367.825)"/><path d="M316.008,453.7a.927.927,0,0,0,0,1.854h11.458a.927.927,0,0,0,0-1.854Z" transform="translate(-280.514 -396.901)"/><circle cx="0.927" cy="0.927" r="0.927" transform="translate(45.683 3.436)"/><circle cx="0.927" cy="0.927" r="0.927" transform="translate(37.23 3.436)"/><circle cx="0.927" cy="0.927" r="0.927" transform="translate(32.753 3.436)"/></g></g></g></svg>