<svg xmlns="http://www.w3.org/2000/svg" width="122.255" height="101" viewBox="0 0 122.255 101"><g transform="translate(-224.424 -10393)"><path d="M21.177,1H0A1,1,0,0,1-1,0,1,1,0,0,1,0-1H21.177a1,1,0,0,1,1,1A1,1,0,0,1,21.177,1Z" transform="translate(324.502 10443.988)" fill="#9ea257"/><circle cx="50.5" cy="50.5" r="50.5" transform="translate(224.424 10393)" fill="#ced371"/><g transform="translate(186.41 10396)"><path d="M392,377.37V368h6.246v11.452a4.164,4.164,0,0,1-4.164,4.164H392Z" transform="translate(-285.304 -306.193)" fill="#f6bb92"/><path d="M234.716,170.739l.879-2.082.779-1.847a5.422,5.422,0,0,0-1.164-5.935,5.422,5.422,0,0,1-1.588-3.834V152H210.772v5.042a5.422,5.422,0,0,1-1.588,3.834,5.422,5.422,0,0,0-1.164,5.935l.825,1.963Z" transform="translate(-124.897 -118.302)" fill="#834b10"/><path d="M259.068,280.136a6.246,6.246,0,0,0-5.22-6.161l-1.027-.171-5.376-.9-3.993,4.019-4.035-4.05L232,273.8v27.068h20.821v-8.328a5.89,5.89,0,0,0,.828-7.287h5.418Z" transform="translate(-146.126 -223.448)" fill="#85bc94"/><path d="M254.9,41.7H232V35.452a11.452,11.452,0,0,1,22.9,0Z" transform="translate(-146.126 -6.959)" fill="#834b10"/><path d="M251.78,94.246h-1.041V88H236.164v6.246h-1.041a3.123,3.123,0,1,0,0,6.246h1.041v1.041a7.287,7.287,0,0,0,14.575,0v-1.041h1.041a3.123,3.123,0,1,0,0-6.246Z" transform="translate(-146.126 -62.63)" fill="#f6bb92"/><path d="M156.294,280.143v19.969H133a20.1,20.1,0,0,1,2.7-3.347l.077-.077a20.634,20.634,0,0,0,4.387-6.473c.409-.953.816-1.905,1.113-2.6l.446-1.041h-3a4.168,4.168,0,0,1-4.039-3.154l-.513-2.051-.134-.536a2.082,2.082,0,0,1,2.02-2.587h3.58a8.9,8.9,0,0,1,3.864-4.818l.455-.272a8.121,8.121,0,0,1,7.805-.3l.046.023A8.117,8.117,0,0,1,156.294,280.143Z" transform="translate(-60.009 -222.689)" fill="#bd9070"/><path d="M270.246,322.082v2.954a3.123,3.123,0,0,1-6.246,0V320h4.164Z" transform="translate(-173.961 -264.44)" fill="#9e785d"/><path d="M166.479,361.774l-2.082,2.082a1.042,1.042,0,0,1-.737.3h-2.528l.446-1.041h-3a4.149,4.149,0,0,1-2.752-1.041h7.4l1.776-1.778a1.042,1.042,0,0,1,1.473,1.473Z" transform="translate(-79.868 -299.23)" fill="#9e785d"/><path d="M144.072,320v1.258a1.865,1.865,0,0,1-1.865,1.865h-1.519l-.134-.536a2.082,2.082,0,0,1,2.02-2.587Z" transform="translate(-66.526 -264.44)" fill="#9e785d"/><path d="M185.861,415.837a1.041,1.041,0,0,1-.832-1.666,19.212,19.212,0,0,0,2.862-5.462,1.041,1.041,0,1,1,1.975.659,21.292,21.292,0,0,1-3.171,6.052A1.039,1.039,0,0,1,185.861,415.837Z" transform="translate(-105.086 -340.986)" fill="#9e785d"/><g transform="translate(88.998 24.328)"><path d="M256,87.287a7.1,7.1,0,0,0,4.346-4.1l.859-2.149L256,80Z" transform="translate(-256 -80)" fill="#834b10"/><path d="M296,81.041l.122.183a13.616,13.616,0,0,0,11.33,6.064V80Z" transform="translate(-290.795 -80)" fill="#834b10"/><circle cx="1.301" cy="1.301" r="1.301" transform="translate(3.123 8.068)" fill="#834b10"/><circle cx="1.301" cy="1.301" r="1.301" transform="translate(10.931 8.068)" fill="#834b10"/><path d="M299.123,150.245h-2.082a1.041,1.041,0,0,1-.931-1.507l2.082-4.164a1.041,1.041,0,1,1,1.862.931l-1.329,2.658h.4a1.041,1.041,0,1,1,0,2.082Z" transform="translate(-290.795 -135.67)" fill="#834b10"/></g><path d="M361.041,281.37A1.041,1.041,0,0,1,360,280.329v-7.287a1.041,1.041,0,1,1,2.082,0v7.287A1.041,1.041,0,0,1,361.041,281.37Z" transform="translate(-257.469 -222.686)" fill="#c3c3c3"/><circle cx="3.123" cy="3.123" r="3.123" transform="translate(100.449 57.643)" fill="#e4e4e2"/><circle cx="1.041" cy="1.041" r="1.041" transform="translate(102.531 59.725)" fill="#c3c3c3"/><path d="M274.739,432.328H259.123a3.123,3.123,0,1,1,0-6.246h1.041A2.082,2.082,0,0,1,262.246,424h.179a2.082,2.082,0,0,1,1.472.61l1.472,1.472h9.37Z" transform="translate(-167.002 -354.906)" fill="#f6bb92"/><path d="M132.354,422.189a2.6,2.6,0,0,0,1.663,3.569l4.007,1.132a3.123,3.123,0,1,0,1.7-6.011l-1-.283a2.082,2.082,0,0,0-1.437-2.57l-.172-.049a2.082,2.082,0,0,0-1.583.186,6.319,6.319,0,0,0-2.674,2.914Z" transform="translate(-59.246 -349.6)" fill="#f6bb92"/><path d="M74.634,230.806a2.614,2.614,0,0,1,1.848.765l1.317,1.317,1.317-1.317a2.613,2.613,0,0,1,4.383,1.214,3.2,3.2,0,0,1-1.327,3.434L77.8,239.134l-4.372-2.915a3.2,3.2,0,0,1-1.327-3.434A2.613,2.613,0,0,1,74.634,230.806Z" transform="translate(-6.949 -186.853)" fill="#dc4d41"/><path d="M256,136h1.041v6.246H256Z" transform="translate(-167.002 -104.384)" fill="#eeb58e"/><path d="M376,136h1.041v6.246H376Z" transform="translate(-271.386 -104.384)" fill="#eeb58e"/><path d="M288.992,244.278l4.035,4.05,3.993-4.019a1.041,1.041,0,0,1-.87-1.027V240H289.9v3.245a1.041,1.041,0,0,1-.912,1.033Z" transform="translate(-195.701 -194.85)" fill="#f6bb92"/><path d="M271.287,192.329A7.287,7.287,0,0,1,264,185.041V184h14.575v1.041A7.287,7.287,0,0,1,271.287,192.329Z" transform="translate(-173.961 -146.138)" fill="#85bc94"/><circle cx="1.041" cy="1.041" r="1.041" transform="translate(83.792 55.56)" fill="#9e785d"/><circle cx="1.301" cy="1.301" r="1.301" transform="translate(92.121 32.397)"/><circle cx="1.301" cy="1.301" r="1.301" transform="translate(99.929 32.397)"/><circle cx="1.041" cy="1.041" r="1.041" transform="translate(102.531 59.725)"/><path d="M163.76,51.188l.961-2.276a6.44,6.44,0,0,0-1.388-7.076,4.376,4.376,0,0,1-1.283-3.1l.053-10.247a12.493,12.493,0,0,0-24.986,0V38.739a4.412,4.412,0,0,1-1.283,3.1,6.46,6.46,0,0,0-1.388,7.075l.478,1.137a9.925,9.925,0,0,0-3.732,4.471h-2.86a3.1,3.1,0,0,0-2.461,1.2,3.149,3.149,0,0,0-.206.3,3.094,3.094,0,0,0-.458,1.677,3.161,3.161,0,0,0,.094.708l.134.536.513,2.05A5.2,5.2,0,0,0,131,64.93h1.417l-.937,2.187c-.08.187-.165.374-.252.56a3.148,3.148,0,0,0-.622-.252l-.172-.049a3.1,3.1,0,0,0-2.374.28,7.409,7.409,0,0,0-3.115,3.394l-.5,1.11a3.637,3.637,0,0,0,.536,3.845q-.3.421-.579.853a1.041,1.041,0,0,0,.876,1.6h35.787a5.211,5.211,0,0,0,5.205-5.205V56.687a7.283,7.283,0,0,0-2.508-5.5Zm.425,5.5v4.078h-3.833c-.113-.15-.23-.3-.355-.436a4.174,4.174,0,0,0-3.1-3.6v-5.67l1.911.319h0l1.026.172A5.2,5.2,0,0,1,164.185,56.687Zm-6.01,11.746-.013.017c-.017.021-.033.042-.048.065l-.01.017c-.015.023-.029.046-.042.071l-.006.013c-.013.026-.026.052-.038.08l0,.008c-.012.029-.022.058-.031.087l0,.009c-.009.029-.016.059-.022.089,0,.008,0,.017,0,.025,0,.025-.009.05-.011.076s-.005.069-.005.1v1.041h-6.856l-1.167-1.167a3.133,3.133,0,0,0-.305-.266V57.454a9.169,9.169,0,0,0-.534-3.085,1.037,1.037,0,0,0,1.367-.266l2.754-3.672a2.1,2.1,0,0,0,.234.054l1.384.231v6.017A4.164,4.164,0,1,0,159.3,63.1a4.844,4.844,0,0,1-1.059,5.257q-.036.037-.069.076Zm-16.9-35.777h0v4.164a2.082,2.082,0,1,1,0-4.164Zm18.741,2.082a2.085,2.085,0,0,1-2.082,2.082V32.657a2.085,2.085,0,0,1,2.082,2.082Zm-4.164,2.082h-6.644l1.329-2.658a1.041,1.041,0,1,0-1.862-.931l-1.794,3.589h-3.521V31.774a8.136,8.136,0,0,0,3.231-3.87l.167-.418a14.527,14.527,0,0,0,9.095,5.022ZM147.523,38.9h8.334a6.246,6.246,0,1,1-12.493,0Zm2.087,8.329a8.318,8.318,0,0,0,2.082-.264v1.463a2.1,2.1,0,0,0,.053.464l-2.136,2.848-2.143-2.857a2.076,2.076,0,0,0,.061-.491V46.968A8.318,8.318,0,0,0,149.61,47.232ZM147.528,60.6a2.082,2.082,0,1,1-4.164,0v-4h2.692l1.472,1.472Zm10.411.169a2.082,2.082,0,1,1-2.082-2.082,2.082,2.082,0,0,1,2.082,2.082ZM162.8,48.1l-.821,1.944a7.257,7.257,0,0,0-1.8-.547l-1.027-.172h0l-5.377-.9v-2.32a8.331,8.331,0,0,0,4.164-7.208,4.138,4.138,0,0,0,2.029-.53v.366a6.458,6.458,0,0,0,1.895,4.571,4.365,4.365,0,0,1,.94,4.794ZM149.61,18.082a10.412,10.412,0,0,1,10.411,10.408v2.645a4.137,4.137,0,0,0-2.082-.56c-.325,0-.648-.013-.962-.037a12.491,12.491,0,0,1-9.5-5.562l-.122-.183a1.041,1.041,0,0,0-1.833.191l-.859,2.148a6.043,6.043,0,0,1-3.573,3.449,4.134,4.134,0,0,0-1.889.555V28.493A10.422,10.422,0,0,1,149.61,18.082Zm-12.3,25.227a6.42,6.42,0,0,0,1.893-4.57v-.4a4.137,4.137,0,0,0,2.082.56,8.332,8.332,0,0,0,4.164,7.208V48.4l-2.329.291c-.2-.061-.4-.119-.6-.168a9.152,9.152,0,0,0-5.756.514l-.39-.928a4.378,4.378,0,0,1,.941-4.8ZM128.332,56.6h.457v.217a.825.825,0,0,1-.824.824h-.673a.152.152,0,0,1,0-.019,1.054,1.054,0,0,1,.011-.13c0-.013,0-.026.006-.039a1.031,1.031,0,0,1,.037-.146l.006-.015a1.059,1.059,0,0,1,.056-.127l.019-.036a1.048,1.048,0,0,1,.085-.13A1.034,1.034,0,0,1,128.332,56.6Zm7.744,8.329a1.041,1.041,0,0,0,.736-.3l2.082-2.082a1.041,1.041,0,0,0-1.472-1.472l-1.777,1.777H131a3.118,3.118,0,0,1-3.029-2.366l-.189-.757h.185a2.909,2.909,0,0,0,2.906-2.906V56.6h1.041a1.041,1.041,0,0,0,.988-.712,7.854,7.854,0,0,1,3.409-4.253l.458-.273a7.073,7.073,0,0,1,5.265-.819q.339.08.656.189a7.044,7.044,0,0,1,.873.363l.055.028a7,7,0,0,1,1.324.861l.033.026a7.053,7.053,0,0,1,1.964,2.612,1.04,1.04,0,0,0-.45-.1h-4.164a1.041,1.041,0,0,0-1.041,1.041V60.6a4.156,4.156,0,0,0,6.246,3.6v3.853a3.124,3.124,0,0,0-2.946,2.082H144.4a4.161,4.161,0,0,0-3.6,6.246h-5.29a4.168,4.168,0,0,0-.078-4.314,21.435,21.435,0,0,0,1.631-3.685,1.041,1.041,0,1,0-1.975-.659,19.334,19.334,0,0,1-1.231,2.881,4.16,4.16,0,0,0-.814-.327l-.17-.048a3.09,3.09,0,0,0-.172-.836c.249-.48.481-.968.69-1.458l1.288-3.006Zm-9.736,8.088.5-1.11a5.313,5.313,0,0,1,2.233-2.433,1.036,1.036,0,0,1,.791-.093l.172.049a1.042,1.042,0,0,1,.719,1.285A1.041,1.041,0,0,0,131.476,72l1,.283a2.082,2.082,0,1,1-1.132,4.007l-4.008-1.132a1.556,1.556,0,0,1-1-2.139Zm37.845.24a3.127,3.127,0,0,1-3.123,3.123H144.4a2.082,2.082,0,0,1,0-4.164h1.041a1.041,1.041,0,0,0,1.041-1.041,1.039,1.039,0,0,1,1.041-1.041h.178a1.061,1.061,0,0,1,.737.305l1.472,1.472a1.041,1.041,0,0,0,.736.3h8.329a1.041,1.041,0,0,0,1.041-1.041V69.506a6.937,6.937,0,0,0,1.405-6.658h2.759Z" transform="translate(-52.284)"/><path d="M77.559,225.576a3.655,3.655,0,0,0-6.129-1.7l-.58.58-.581-.58a3.655,3.655,0,0,0-6.129,1.7,4.245,4.245,0,0,0,1.76,4.552l4.372,2.915a1.041,1.041,0,0,0,1.155,0l4.372-2.915A4.245,4.245,0,0,0,77.559,225.576Zm-2.915,2.82-3.8,2.53-3.795-2.53a2.159,2.159,0,0,1-.895-2.315,1.573,1.573,0,0,1,2.638-.73l1.317,1.317a1.041,1.041,0,0,0,1.472,0L72.9,225.35a1.573,1.573,0,0,1,2.638.731A2.159,2.159,0,0,1,74.644,228.4Z" transform="translate(0 -179.895)"/><circle cx="1.041" cy="1.041" r="1.041" transform="translate(83.792 55.56)"/></g></g></svg>