<svg xmlns="http://www.w3.org/2000/svg" width="85" height="85" viewBox="0 0 85 85"><g transform="translate(-284.615 -4768)"><circle cx="42.5" cy="42.5" r="42.5" transform="translate(284.615 4768)" fill="#fff"/><path d="M42.5,5A37.511,37.511,0,0,0,27.9,77.055,37.511,37.511,0,0,0,57.1,7.945,37.261,37.261,0,0,0,42.5,5m0-5A42.5,42.5,0,1,1,0,42.5,42.5,42.5,0,0,1,42.5,0Z" transform="translate(284.615 4768)" fill="#a3314f"/><g transform="translate(171.147 4777.249)"><g transform="translate(145.468 32.7)"><path d="M151.511,248.447h-4.467a.629.629,0,0,1-.617-.509c-1.632-8.431-.695-26.5-.654-27.27a.629.629,0,0,1,.628-.6h9.131a.629.629,0,0,1,.629.629v9.86a.627.627,0,0,1-.016.143l-4.021,17.257a.629.629,0,0,1-.612.486Zm-3.943-1.257h3.444l3.891-16.7v-9.159H147C146.853,224.506,146.25,239.569,147.568,247.189Z" transform="translate(-145.468 -220.072)"/></g><g transform="translate(154.903 32.7)"><path d="M229.616,248.447h-4.467a.629.629,0,0,1-.612-.486L220.516,230.7a.629.629,0,0,1,1.225-.285l3.907,16.771h3.444c1.318-7.62.715-22.683.568-25.86h-8.532a.629.629,0,0,1,0-1.257h9.131a.629.629,0,0,1,.628.6c.041.765.977,18.84-.654,27.27A.629.629,0,0,1,229.616,248.447Z" transform="translate(-220.5 -220.072)"/></g><g transform="translate(145.525 32.7)"><path d="M146.544,228.566a.629.629,0,0,1-.146-1.24c3.464-.832,5.112-3,5.04-6.613a.629.629,0,1,1,1.257-.025,8.627,8.627,0,0,1-.817,4.132,7.369,7.369,0,0,1-5.186,3.729A.626.626,0,0,1,146.544,228.566Z" transform="translate(-145.916 -220.072)"/></g><g transform="translate(158.757 32.7)"><path d="M257.3,228.567a.625.625,0,0,1-.147-.018,7.369,7.369,0,0,1-5.186-3.729,8.628,8.628,0,0,1-.817-4.132.629.629,0,0,1,1.257.025c-.073,3.618,1.576,5.781,5.04,6.613a.629.629,0,0,1-.146,1.24Z" transform="translate(-251.148 -220.073)"/></g><g transform="translate(145.957 56.611)"><path d="M155.656,411.481h-5.673a.629.629,0,0,1,0-1.257h5.673a.629.629,0,1,1,0,1.257Z" transform="translate(-149.354 -410.224)"/></g><g transform="translate(158.177 56.611)"><path d="M252.834,411.481h-5.673a.629.629,0,1,1,0-1.257h5.673a.629.629,0,0,1,0,1.257Z" transform="translate(-246.533 -410.224)"/></g><g transform="translate(145.772 5.751)"><path d="M166.773,33.958a.629.629,0,0,1-.629-.629V18a6.755,6.755,0,0,1-2-2.131c-.858-1.425-1.647-3.891-.678-7.647l-1.492-.762a3.483,3.483,0,0,1-1.55,2.841,5.156,5.156,0,0,1-5.565,0,3.483,3.483,0,0,1-1.55-2.841l-1.492.762c.969,3.756.18,6.222-.678,7.647a6.756,6.756,0,0,1-2,2.131V33.329a.629.629,0,1,1-1.257,0V17.649a.629.629,0,0,1,.348-.563c.17-.087,4.212-2.246,2.242-9.012a.629.629,0,0,1,.318-.736l2.975-1.519a.629.629,0,0,1,.9.7,2.4,2.4,0,0,0,.907,2.743,3.949,3.949,0,0,0,4.143,0,2.4,2.4,0,0,0,.907-2.743.629.629,0,0,1,.9-.7l2.975,1.519a.629.629,0,0,1,.318.736c-1.985,6.816,2.2,8.991,2.242,9.012a.629.629,0,0,1,.348.563v15.68a.629.629,0,0,1-.629.629Z" transform="translate(-147.882 -5.751)"/></g><g transform="translate(149.429 17.971)"><path d="M181.365,108.642H177.6a.629.629,0,0,1-.629-.629v-4.451a.629.629,0,0,1,.629-.629h3.77a.629.629,0,0,1,.629.629v4.451A.629.629,0,0,1,181.365,108.642Zm-3.141-1.257h2.512V104.19h-2.512Z" transform="translate(-176.967 -102.933)"/></g><g transform="translate(156.607 17.971)"><path d="M238.452,108.642h-3.77a.629.629,0,0,1-.629-.629v-4.451a.629.629,0,0,1,.629-.629h3.77a.629.629,0,0,1,.629.629v4.451A.629.629,0,0,1,238.452,108.642Zm-3.141-1.257h2.512V104.19h-2.512Z" transform="translate(-234.054 -102.933)"/></g><g transform="translate(145.772 29.477)"><path d="M166.773,195.691H148.511a.629.629,0,0,1,0-1.257h18.263a.629.629,0,1,1,0,1.257Z" transform="translate(-147.882 -194.434)"/></g></g></g></svg>