<svg xmlns="http://www.w3.org/2000/svg" width="122.255" height="101" viewBox="0 0 122.255 101"><g transform="translate(-225.424 -10520)"><path d="M21.177,1H0A1,1,0,0,1-1,0,1,1,0,0,1,0-1H21.177a1,1,0,0,1,1,1A1,1,0,0,1,21.177,1Z" transform="translate(325.502 10570.988)" fill="#9ea257"/><circle cx="50.5" cy="50.5" r="50.5" transform="translate(225.424 10520)" fill="#ced371"/><g transform="translate(215.565 10543)"><g transform="translate(34.039 0.914)"><path d="M311.755,359.848l-5.606-9.727-14.008,8.036,5.628,9.766a2.019,2.019,0,0,0,3.433.1l.687-1.041,1.737-4.8,5.256.758,1.245-.075A2.019,2.019,0,0,0,311.755,359.848Z" transform="translate(-261.492 -308.371)" fill="#ff6b4d"/><path d="M397.585,359.848l-5.606-9.727-2.1,1.2,5.074,8.7a2.019,2.019,0,0,1-1.391,3l2.394-.144A2.019,2.019,0,0,0,397.585,359.848Z" transform="translate(-347.322 -308.371)" fill="#f23c3c"/><path d="M61.351,353.069l-5.409,9.368a2.019,2.019,0,0,0,1.627,3.024l1.245.075,5.026-.127,1.966,4.165.687,1.041a2.019,2.019,0,0,0,3.433-.1l5.448-9.436Z" transform="translate(-53.835 -310.96)" fill="#ff6b4d"/><path d="M336.276,381.285,330.34,371l-7,4.018,5.948,10.3,1.375-2.082a4.037,4.037,0,0,1,3.127-1.806Z" transform="translate(-288.886 -326.709)" fill="#f3f5f9"/><path d="M87.443,370.666l-5.96,10.323,2.491.15a4.038,4.038,0,0,1,3.127,1.806l1.375,2.082,5.98-10.357Z" transform="translate(-76.504 -326.413)" fill="#f3f5f9"/><path d="M77.562,56.647l3.8-3.451,2.667-3.411,4.318-1.4a6.052,6.052,0,0,0,1.825-6.2,4.117,4.117,0,0,1,1.1-4.1,6.053,6.053,0,0,0,0-8.688,4.117,4.117,0,0,1-1.1-4.1,6.053,6.053,0,0,0-4.342-7.525,4.117,4.117,0,0,1-3-3,6.053,6.053,0,0,0-7.523-4.346,4.117,4.117,0,0,1-4.1-1.1,6.053,6.053,0,0,0-8.689,0,4.117,4.117,0,0,1-4.1,1.1A6.053,6.053,0,0,0,50.9,14.777a4.117,4.117,0,0,1-3,3A6.053,6.053,0,0,0,43.559,25.3a4.117,4.117,0,0,1-1.1,4.1,6.053,6.053,0,0,0,0,8.688,4.117,4.117,0,0,1,1.1,4.1A6.053,6.053,0,0,0,47.9,49.706a4.117,4.117,0,0,1,3,3,6.053,6.053,0,0,0,7.523,4.346,4.117,4.117,0,0,1,4.1,1.1,6.053,6.053,0,0,0,8.688,0,4.117,4.117,0,0,1,4.1-1.1c.085.024.17.046.256.066Z" transform="translate(-40.622 -7.5)" fill="#ffd659"/><path d="M126.006,110.371l5.245-1.335L139,102.717l1.67-7.2V84.687l-6.58-7.747L125.9,74.2h-2.2a18.169,18.169,0,0,0,0,36.23Z" transform="translate(-98.849 -66.077)" fill="#ffb347"/><path d="M182.75,133.573l1.891,3.831a1.009,1.009,0,0,0,.76.552l4.228.614a2.019,2.019,0,0,1,1.119,3.443L187.688,145a1.009,1.009,0,0,0-.29.893l.722,4.211a2.019,2.019,0,0,1-2.929,2.128l-3.782-1.988a1.009,1.009,0,0,0-.939,0l-3.782,1.988a2.019,2.019,0,0,1-2.929-2.128l.722-4.211a1.009,1.009,0,0,0-.29-.893l-3.059-2.982a2.019,2.019,0,0,1,1.119-3.443l4.228-.614a1.01,1.01,0,0,0,.76-.552l1.891-3.831A2.019,2.019,0,0,1,182.75,133.573Z" transform="translate(-154.691 -117.222)" fill="#ffd659"/><path d="M344.887,53.251a6.035,6.035,0,0,0-1.837-4.343,4.117,4.117,0,0,1-1.1-4.1,6.053,6.053,0,0,0-4.342-7.525,4.117,4.117,0,0,1-3-3,6.051,6.051,0,0,0-7.27-4.411,6.051,6.051,0,0,1,4.467,4.411,4.118,4.118,0,0,0,3,3,6.053,6.053,0,0,1,4.342,7.525,4.118,4.118,0,0,0,1.1,4.1,6.053,6.053,0,0,1,0,8.688,4.118,4.118,0,0,0-1.1,4.1,6.053,6.053,0,0,1-4.346,7.523,4.117,4.117,0,0,0-3,3,6.052,6.052,0,0,1-4.467,4.409,6.052,6.052,0,0,0,7.269-4.409,4.117,4.117,0,0,1,3-3,6.053,6.053,0,0,0,4.346-7.523,4.117,4.117,0,0,1,1.1-4.1,6.034,6.034,0,0,0,1.839-4.345Z" transform="translate(-292.398 -27.003)" fill="#ffc552"/><path d="M245.929,73.767q-.707,0-1.4.053a18.169,18.169,0,0,1,0,36.23q.694.053,1.4.053a18.168,18.168,0,1,0,0-36.337Z" transform="translate(-219.681 -65.692)" fill="#ff9d47"/><path d="M420.916,452.755l.339-.02-.212-.367a1.983,1.983,0,0,1-.937.436Z" transform="translate(-373.865 -398.158)" fill="#e1e6f0"/></g><g transform="translate(33.125 0)"><path d="M137.593,85.348A19.1,19.1,0,0,0,118.51,66.266a18.884,18.884,0,0,0-11.841,4.117.914.914,0,0,0,1.135,1.433,17.074,17.074,0,0,1,10.705-3.722,17.255,17.255,0,1,1-17.254,17.254,17.078,17.078,0,0,1,3.689-10.663.914.914,0,0,0-1.436-1.13,18.889,18.889,0,0,0-4.08,11.794,19.082,19.082,0,1,0,38.165,0Z" transform="translate(-91.349 -58.191)"/><path d="M184.8,136.082a2.933,2.933,0,0,0-1.625-5l-4.228-.614a.1.1,0,0,1-.072-.052l-1.891-3.831h0a2.932,2.932,0,0,0-5.259,0l-1.891,3.831a.1.1,0,0,1-.072.052l-4.228.614a2.933,2.933,0,0,0-1.625,5l3.059,2.982a.1.1,0,0,1,.028.085l-.722,4.211a2.929,2.929,0,0,0,4.255,3.091l3.782-1.988a.1.1,0,0,1,.089,0l3.782,1.988a2.933,2.933,0,0,0,4.255-3.091l-.722-4.211a.1.1,0,0,1,.028-.084Zm-4.335,1.673a1.923,1.923,0,0,0-.553,1.7l.722,4.211a1.1,1.1,0,0,1-1.6,1.165l-3.782-1.988a1.923,1.923,0,0,0-1.79,0l-3.782,1.988a1.1,1.1,0,0,1-1.6-1.165l.722-4.211a1.923,1.923,0,0,0-.553-1.7l-3.059-2.982a1.1,1.1,0,0,1,.612-1.885l4.228-.614a1.923,1.923,0,0,0,1.448-1.052l1.891-3.831a1.1,1.1,0,0,1,1.981,0h0l1.891,3.831a1.922,1.922,0,0,0,1.448,1.052l4.228.614a1.1,1.1,0,0,1,.612,1.884Z" transform="translate(-147.191 -109.722)"/><path d="M80.354,43.725a6.965,6.965,0,0,0,4.116-8.371,3.217,3.217,0,0,1,.856-3.191,6.967,6.967,0,0,0,0-10,3.217,3.217,0,0,1-.855-3.191,6.967,6.967,0,0,0-5-8.661,3.217,3.217,0,0,1-2.336-2.336,6.967,6.967,0,0,0-8.659-5,3.217,3.217,0,0,1-3.191-.856,6.967,6.967,0,0,0-10,0,3.218,3.218,0,0,1-3.191.855,6.967,6.967,0,0,0-8.661,5A3.217,3.217,0,0,1,41.1,10.3a6.967,6.967,0,0,0-5,8.659,3.217,3.217,0,0,1-.856,3.191,6.967,6.967,0,0,0,0,10,3.217,3.217,0,0,1,.855,3.191,6.969,6.969,0,0,0,4.023,8.338l-1.73,3a.914.914,0,1,0,1.583.914l1.895-3.282a3.214,3.214,0,0,1,1.5,1.817l-4.858,8.415-.682-.041a1.1,1.1,0,0,1-.891-1.655l.905-1.568a.914.914,0,1,0-1.583-.914l-.905,1.568a2.932,2.932,0,0,0,2.364,4.394l3.736.224a3.138,3.138,0,0,1,2.419,1.4l2.062,3.123a2.912,2.912,0,0,0,2.445,1.317h.09a2.914,2.914,0,0,0,2.452-1.465l4.8-8.308a6.966,6.966,0,0,0,9.047.066l4.758,8.242a2.914,2.914,0,0,0,2.452,1.465h.09a2.913,2.913,0,0,0,2.445-1.317l2.062-3.123a3.139,3.139,0,0,1,2.419-1.4l3.736-.224a2.932,2.932,0,0,0,2.364-4.394Zm-38.791,11-1.015-.061,3.688-6.388a7,7,0,0,0,5.306,3.3L45.958,57.79l-.56-.848A4.975,4.975,0,0,0,41.563,54.727Zm7.776,5.281a1.1,1.1,0,0,1-1.879.056l-.376-.57,4.654-8.061q.175-.04.349-.089a3.219,3.219,0,0,1,2.169.148Zm10.94-7.52a5.1,5.1,0,0,1-3.689-1.561,5.043,5.043,0,0,0-5-1.341A5.139,5.139,0,0,1,45.2,45.9a5.043,5.043,0,0,0-3.662-3.663,5.139,5.139,0,0,1-3.687-6.389,5.042,5.042,0,0,0-1.34-5,5.139,5.139,0,0,1,0-7.377,5.043,5.043,0,0,0,1.341-5,5.139,5.139,0,0,1,3.69-6.387,5.043,5.043,0,0,0,3.663-3.662A5.139,5.139,0,0,1,51.6,4.727a5.042,5.042,0,0,0,5-1.34,5.139,5.139,0,0,1,7.377,0,5.041,5.041,0,0,0,5,1.341,5.139,5.139,0,0,1,6.387,3.69,5.042,5.042,0,0,0,3.662,3.663,5.139,5.139,0,0,1,3.687,6.389,5.042,5.042,0,0,0,1.34,5,5.139,5.139,0,0,1,0,7.377,5.042,5.042,0,0,0-1.341,5,5.139,5.139,0,0,1-3.69,6.387A5.042,5.042,0,0,0,75.359,45.9a5.139,5.139,0,0,1-6.389,3.687,5.041,5.041,0,0,0-5,1.34,5.1,5.1,0,0,1-3.687,1.56Zm11.751,8.072a1.084,1.084,0,0,1-.924-.552l-4.893-8.475a3.214,3.214,0,0,1,2.256-.187c.073.021.147.038.22.057L73.362,59.5l-.376.57A1.084,1.084,0,0,1,72.031,60.561Zm6.853-5.833a4.975,4.975,0,0,0-3.835,2.214l-.56.848L70.912,51.6a7,7,0,0,0,5.353-3.223L79.9,54.666Zm4.643-.8a1.084,1.084,0,0,1-.907.579l-.682.041-4.781-8.282a3.215,3.215,0,0,1,1.457-1.9l4.9,8.482A1.084,1.084,0,0,1,83.526,53.924Z" transform="translate(-33.125 0)"/></g></g></g></svg>