<svg xmlns="http://www.w3.org/2000/svg" width="122.255" height="101" viewBox="0 0 122.255 101"><g transform="translate(-810.424 -10079)"><path d="M21.177,1H0A1,1,0,0,1-1,0,1,1,0,0,1,0-1H21.177a1,1,0,0,1,1,1A1,1,0,0,1,21.177,1Z" transform="translate(910.502 10129.078)" fill="#9ea257"/><circle cx="50.5" cy="50.5" r="50.5" transform="translate(810.424 10079)" fill="#ced371"/><g transform="translate(834.189 10103.999)"><path d="M8.371,70.153A12.7,12.7,0,0,1,9.1,67.042a1.98,1.98,0,0,1,2.234-1.265c5.88,1.144,8.493,6.7,8.493,6.7l-2.577,5.4Zm0,0" transform="translate(-6.948 -58.04)" fill="#e3996d"/><path d="M61.775,98.857a27.392,27.392,0,0,0-2.26,4.406l2.887,2.512,2.577-5.4a13.427,13.427,0,0,0-2.148-3.039Q62.282,98.068,61.775,98.857Zm0,0" transform="translate(-52.103 -85.939)" fill="#c66d33"/><path d="M16.925,111.141l-.334.7c-7.593-1-8.856-5.094-8.543-8.424a10.35,10.35,0,0,1,8.877,7.723Zm0,0" transform="translate(-6.625 -91.305)" fill="#ffbec5"/><path d="M52.016,137.937a16.722,16.722,0,0,0,3.431.788l.334-.7a10.311,10.311,0,0,0-2.157-4.157A31.829,31.829,0,0,0,52.016,137.937Zm0,0" transform="translate(-45.481 -118.188)" fill="#ffa0ab"/><path d="M362.8,70.153a12.7,12.7,0,0,0-.727-3.111,1.98,1.98,0,0,0-2.234-1.265c-5.88,1.144-8.493,6.7-8.493,6.7l2.577,5.4Zm0,0" transform="translate(-309.757 -58.04)" fill="#e3996d"/><path d="M351.348,100.379l2.577,5.4,2.887-2.512a27.371,27.371,0,0,0-2.26-4.406q-.506-.791-1.056-1.517A13.41,13.41,0,0,0,351.348,100.379Zm0,0" transform="translate(-309.757 -85.939)" fill="#c66d33"/><path d="M373.348,111.141l.334.7c7.593-1,8.856-5.094,8.543-8.424A10.35,10.35,0,0,0,373.348,111.141Zm0,0" transform="translate(-329.18 -91.305)" fill="#ffbec5"/><path d="M375.505,133.867a10.31,10.31,0,0,0-2.157,4.157l.334.7a16.722,16.722,0,0,0,3.431-.788,31.761,31.761,0,0,0-1.609-4.07Zm0,0" transform="translate(-329.18 -118.188)" fill="#ffa0ab"/><path d="M102.8,86.409c0-15.732-6.016-27.655-19.264-27.655S64.27,70.677,64.27,86.409a18.635,18.635,0,0,0,14.081,17.814h0a5.654,5.654,0,0,1-1.4,3.118.477.477,0,0,0,.278.769,5.068,5.068,0,0,0,3.373-.337.548.548,0,0,1,.751.2,29.538,29.538,0,0,0,1.8,2.8.477.477,0,0,0,.757,0,29.446,29.446,0,0,0,1.8-2.8.548.548,0,0,1,.751-.2,5.071,5.071,0,0,0,3.373.337.477.477,0,0,0,.278-.769,5.654,5.654,0,0,1-1.4-3.118h0A18.635,18.635,0,0,0,102.8,86.409Zm0,0" transform="translate(-56.301 -51.872)" fill="#e3996d"/><path d="M67.783,97.2c0-11.148,3.023-20.382,9.5-24.817l-.987-1.406C68.075,74.59,64.269,84.691,64.269,97.2a18.489,18.489,0,0,0,11.554,16.95,23.028,23.028,0,0,1-8.04-16.95Zm0,0" transform="translate(-56.3 -62.664)" fill="#c66d33"/><path d="M143.282,15.355a29.326,29.326,0,0,1-1.858-6.627,1.44,1.44,0,0,0-2.634-.606c-.7,1.084-2.047,3.8-1.912,8.538a3.407,3.407,0,0,0,3.79,3.219,3.331,3.331,0,0,0,2.614-4.524Zm0,0" transform="translate(-120.397 -6.594)" fill="#eaeaea"/><path d="M141.839,21.161a3.407,3.407,0,0,1-3.789-3.22,17.587,17.587,0,0,1,.874-6.367,1.454,1.454,0,0,0-.134.172c-.7,1.084-2.047,3.8-1.912,8.538a3.406,3.406,0,0,0,3.79,3.219,3.3,3.3,0,0,0,2.836-3.078,3.143,3.143,0,0,1-1.665.736Zm0,0" transform="translate(-120.397 -10.218)" fill="#d4d3d9"/><path d="M264.142,15.355A29.3,29.3,0,0,0,266,8.728a1.439,1.439,0,0,1,2.633-.606c.7,1.084,2.047,3.8,1.912,8.538a3.406,3.406,0,0,1-3.79,3.219,3.331,3.331,0,0,1-2.614-4.524Zm0,0" transform="translate(-232.559 -6.594)" fill="#eaeaea"/><path d="M269.1,18.7a3.332,3.332,0,0,1-2.614-4.525,29.925,29.925,0,0,0,1.828-6.41A1.439,1.439,0,0,0,266,8.725a29.313,29.313,0,0,1-1.858,6.626,3.332,3.332,0,0,0,2.614,4.525,3.411,3.411,0,0,0,2.966-1.155,3.277,3.277,0,0,1-.624-.016Zm0,0" transform="translate(-232.559 -6.591)" fill="#d4d3d9"/><path d="M130.284,327.535h-1.835a.879.879,0,0,0,0,1.757h1.835a.879.879,0,0,0,0-1.757Zm0,0" transform="translate(-112.187 -289.174)" fill="#ff6e7f"/><path d="M312.358,327.535h-1.835a.879.879,0,0,0,0,1.757h1.835a.879.879,0,0,0,0-1.757Zm0,0" transform="translate(-272.937 -289.174)" fill="#ff6e7f"/><path d="M152.749,293.884v-1.6a.878.878,0,1,0-1.757,0v1.6a.878.878,0,1,0,1.757,0Zm0,0" transform="translate(-132.866 -257.277)"/><path d="M303.652,293.884v-1.6a.878.878,0,1,0-1.757,0v1.6a.878.878,0,1,0,1.757,0Zm0,0" transform="translate(-266.095 -257.277)"/><path d="M194.592,330.982a.878.878,0,1,0-1.323,1.157,3.464,3.464,0,0,0,2.617,1.165,3.518,3.518,0,0,0,1.955-.586,3.521,3.521,0,0,0,1.955.586,3.464,3.464,0,0,0,2.617-1.165.878.878,0,1,0-1.323-1.157,1.764,1.764,0,0,1-2.588,0,.89.89,0,0,0-1.323,0,1.765,1.765,0,0,1-2.588,0Zm0,0" transform="translate(-170 -291.953)"/><path d="M215.044,307.947a5.3,5.3,0,0,0,2.1-.428.671.671,0,0,0-.264-1.288h-3.672a.671.671,0,0,0-.264,1.288A5.307,5.307,0,0,0,215.044,307.947Zm0,0" transform="translate(-187.203 -270.365)"/><path d="M8.825,21.25a46.825,46.825,0,0,0-1.734,13.29,18.714,18.714,0,0,0,4.188,11.825,20.312,20.312,0,0,0,9.76,6.61,5.96,5.96,0,0,1-1.074,1.949,1.368,1.368,0,0,0,.8,2.179,6.13,6.13,0,0,0,3.687-.285,28.426,28.426,0,0,0,1.706,2.622,1.367,1.367,0,0,0,2.151,0,28.407,28.407,0,0,0,1.706-2.622,6.134,6.134,0,0,0,3.687.285,1.368,1.368,0,0,0,.8-2.179,5.971,5.971,0,0,1-1.074-1.948,20.189,20.189,0,0,0,8.926-5.639.878.878,0,0,0-1.3-1.187,18.467,18.467,0,0,1-8.868,5.355.878.878,0,0,0-.647.925,6.227,6.227,0,0,0,1.18,3.041,3.618,3.618,0,0,1-2.111-.323,1.439,1.439,0,0,0-1.959.517c-.321.554-.886,1.5-1.42,2.269-.534-.765-1.1-1.715-1.42-2.269a1.439,1.439,0,0,0-1.959-.517,3.617,3.617,0,0,1-2.111.323,6.271,6.271,0,0,0,1.179-3.019.879.879,0,0,0-.646-.947,18.57,18.57,0,0,1-9.628-6.24,16.981,16.981,0,0,1-3.8-10.726c0-10.188,2.567-18.14,7.259-22.591a4.3,4.3,0,0,0,3.622,2.24,4.251,4.251,0,0,0,4.187-3.382,4.816,4.816,0,0,0-.342-2.694,19.364,19.364,0,0,1,7.32,0,4.5,4.5,0,0,0,.179,4.052A4.161,4.161,0,0,0,34.6,14.193a4.3,4.3,0,0,0,3.761-2.244c4.692,4.451,7.259,12.4,7.259,22.592a17.033,17.033,0,0,1-2.561,8.972.878.878,0,1,0,1.494.925,18.787,18.787,0,0,0,2.825-9.9A46.842,46.842,0,0,0,45.643,21.25c3.123-.565,5.406-1.74,6.788-3.5a7.771,7.771,0,0,0,1.489-5.711,13.41,13.41,0,0,0-.775-3.33,2.9,2.9,0,0,0-3.228-1.827,13.315,13.315,0,0,0-8.405,5.949,18.247,18.247,0,0,0-2.647-2.782c.129-4.865-1.23-7.721-2.054-8.992a2.318,2.318,0,0,0-4.242.975,23.823,23.823,0,0,1-1.075,4.417,20.907,20.907,0,0,0-8.521,0A23.786,23.786,0,0,1,21.9,2.029a2.318,2.318,0,0,0-4.242-.975c-.823,1.271-2.183,4.127-2.054,8.992a18.267,18.267,0,0,0-2.646,2.782A13.317,13.317,0,0,0,4.551,6.878,2.843,2.843,0,0,0,1.324,8.7a13.409,13.409,0,0,0-.776,3.33,7.771,7.771,0,0,0,1.489,5.711c1.382,1.765,3.665,2.94,6.788,3.5Zm36.341-1.7a9.528,9.528,0,0,1,7.043-6.41c-.057,3.47-2.421,5.622-7.043,6.41ZM42.612,14.4c.722-1.251,3.192-4.934,7.641-5.8a1.112,1.112,0,0,1,1.242.7,12.608,12.608,0,0,1,.564,2.071,11.167,11.167,0,0,0-3.928,1.576,11.319,11.319,0,0,0-3.91,4.3c-.012.023-.025.044-.036.067l-.04-.086A24.058,24.058,0,0,0,42.612,14.4Zm-8.3-12.154a.568.568,0,0,1,1.025-.238c1.729,2.668,1.814,6.508,1.77,8.035a2.548,2.548,0,0,1-2.8,2.373A2.474,2.474,0,0,1,32.4,9.088a30.023,30.023,0,0,0,1.913-6.84ZM19.131,2.01a.565.565,0,0,1,1.024.238,30.078,30.078,0,0,0,1.913,6.84,2.475,2.475,0,0,1-1.905,3.33,2.556,2.556,0,0,1-2.8-2.373c-.043-1.527.042-5.367,1.771-8.035ZM2.975,9.306a1.107,1.107,0,0,1,1.241-.7c4.449.866,6.919,4.55,7.641,5.8l-.079.128a24.423,24.423,0,0,0-1.454,2.707l-.04.086-.02-.038a11.277,11.277,0,0,0-1.8-2.564.879.879,0,1,0-1.281,1.2A9.528,9.528,0,0,1,9.3,19.528l.008.025c-4.623-.788-6.988-2.941-7.044-6.412a9.448,9.448,0,0,1,2.369.85.878.878,0,0,0,.81-1.559A11.2,11.2,0,0,0,2.41,11.378a12.59,12.59,0,0,1,.565-2.072Zm0,0"/></g></g></svg>