<svg xmlns="http://www.w3.org/2000/svg" width="85" height="85" viewBox="0 0 85 85"><g transform="translate(-287.615 -4937)"><circle cx="42.5" cy="42.5" r="42.5" transform="translate(287.615 4937)" fill="#fff"/><path d="M42.5,5A37.511,37.511,0,0,0,27.9,77.055,37.511,37.511,0,0,0,57.1,7.945,37.261,37.261,0,0,0,42.5,5m0-5A42.5,42.5,0,1,1,0,42.5,42.5,42.5,0,0,1,42.5,0Z" transform="translate(287.615 4937)" fill="#a3314f"/><g transform="translate(300.959 4950.002)"><path d="M17.969,45.855v3.77H13.438v-7.25L9.332,34.844A10.819,10.819,0,0,1,8,29.633V19.719A2.719,2.719,0,0,1,10.719,17v9.208a14.526,14.526,0,0,0,2.438,8.038l2.374,3.571a14.526,14.526,0,0,1,2.438,8.038Z" transform="translate(-0.094 -1.594)" fill="#ffe347"/><path d="M53.75,33v1.06a12.792,12.792,0,0,1-.426,3.263l-.779,2.927H32V33Z" transform="translate(-2.344 -3.094)" fill="#6e6e6e"/><path d="M48.313,27.719c0-.906.906-1.813,2.719-1.813s2.719.906,2.719,1.813V32.25H32V27.719c0-.906.906-1.813,2.719-1.813s2.719.906,2.719,1.813v-.906c0-.906.906-1.813,2.719-1.813s2.719.906,2.719,1.813v.906c0-.906.906-1.813,2.719-1.813S48.313,26.813,48.313,27.719Z" transform="translate(-2.344 -2.344)" fill="#ffe347"/><path d="M55.438,22.813v4.531c0-.906-.906-1.813-2.719-1.813S50,26.438,50,27.344V22.813c0-.906.906-1.813,2.719-1.813S55.438,21.906,55.438,22.813Z" transform="translate(-4.031 -1.969)" fill="#6e6e6e"/><path d="M55.438,18.719v3.625c0-.906-.906-1.813-2.719-1.813S50,21.438,50,22.344V18.719a2.719,2.719,0,0,1,5.438,0Z" transform="translate(-4.031 -1.5)" fill="#ffe347"/><path d="M51.982,39.313l-2.42,9.063H31.438l-4.105-7.531A10.819,10.819,0,0,1,26,35.633V25.719a2.719,2.719,0,1,1,5.438,0V39.313Z" transform="translate(-1.781 -2.156)" fill="#ffe347"/><path d="M50.125,59v1.813a1.818,1.818,0,0,1-1.812,1.813h-14.5A1.818,1.818,0,0,1,32,60.813V59Z" transform="translate(-2.344 -5.531)" fill="#6e6e6e"/><path d="M48.313,60.813h-14.5A1.818,1.818,0,0,1,32,59v1.813a1.818,1.818,0,0,0,1.813,1.813h14.5a1.818,1.818,0,0,0,1.813-1.812V59a1.818,1.818,0,0,1-1.812,1.813Z" transform="translate(-2.344 -5.531)" fill="#595959"/><path d="M50.125,51v7.25H32V51Z" transform="translate(-2.344 -4.781)" fill="#ffe347"/><path d="M49.438,22.813v4.531c0-.906-.906-1.813-2.719-1.813S44,26.438,44,27.344V22.813c0-.906.906-1.813,2.719-1.813S49.438,21.906,49.438,22.813Z" transform="translate(-3.469 -1.969)" fill="#6e6e6e"/><path d="M49.438,18.531v3.625c0-.906-.906-1.813-2.719-1.813S44,21.25,44,22.156V15.813c0-.906.906-1.813,2.719-1.813s2.719.906,2.719,1.813Z" transform="translate(-3.469 -1.313)" fill="#ffe347"/><path d="M49.438,12.719v2.719c0-.906-.906-1.813-2.719-1.813S44,14.531,44,15.438V12.719a2.719,2.719,0,0,1,5.438,0Z" transform="translate(-3.469 -0.938)" fill="#6e6e6e"/><path d="M43.438,22.719v3.625c0-.906-.906-1.813-2.719-1.813S38,25.438,38,26.344V21.813c0-.906.906-1.813,2.719-1.813s2.719.906,2.719,1.813Z" transform="translate(-2.906 -1.875)" fill="#6e6e6e"/><path d="M43.438,15.719v5.438c0-.906-.906-1.813-2.719-1.813S38,20.25,38,21.156V14.813c0-.906.906-1.813,2.719-1.813s2.719.906,2.719,1.813Z" transform="translate(-2.906 -1.219)" fill="#ffe347"/><path d="M43.438,12.438V14.25c0-.906-.906-1.813-2.719-1.813S38,13.344,38,14.25V9.719a2.719,2.719,0,0,1,5.438,0Z" transform="translate(-2.906 -0.656)" fill="#6e6e6e"/><path d="M37.438,26.438v.906c0-.906-.906-1.813-2.719-1.813S32,26.438,32,27.344V22.813c0-.906.906-1.813,2.719-1.813s2.719.906,2.719,1.813Z" transform="translate(-2.344 -1.969)" fill="#6e6e6e"/><path d="M37.438,21.25v.906c0-.906-.906-1.813-2.719-1.813S32,21.25,32,22.156V15.813c0-.906.906-1.813,2.719-1.813s2.719.906,2.719,1.813Z" transform="translate(-2.344 -1.313)" fill="#ffe347"/><path d="M37.438,14.531v.906c0-.906-.906-1.813-2.719-1.813S32,14.531,32,15.438V12.719a2.719,2.719,0,0,1,5.438,0Z" transform="translate(-2.344 -0.938)" fill="#6e6e6e"/><path d="M30.313,53v3.625h-14.5A1.818,1.818,0,0,1,14,54.813V53Z" transform="translate(-0.656 -4.969)" fill="#595959"/><path d="M24.594,6.438a2.719,2.719,0,0,1,5.438,0V23.656a2.719,2.719,0,0,0-5.438,0v9.914a10.819,10.819,0,0,0,1.332,5.211l4.105,7.531v1.813H18.25v-3.77a14.526,14.526,0,0,0-2.438-8.038l-2.374-3.571A14.526,14.526,0,0,1,11,24.708V15.5a2.719,2.719,0,0,1,2.719,2.719V6.438a2.719,2.719,0,0,1,5.438,0V3.719a2.719,2.719,0,1,1,5.438,0Z" transform="translate(-0.375 -0.094)" fill="#595959"/><path d="M51.219,33H34v.906a1.813,1.813,0,0,0,1.813,1.813H51.172a5.5,5.5,0,0,0,.047-.712Z" transform="translate(-2.531 -3.094)" fill="#848484"/><path d="M52.828,36a5.415,5.415,0,0,1-.137.689l-1.024,3.843h2.719l.779-2.927a12.8,12.8,0,0,0,.319-1.6Z" transform="translate(-4.187 -3.375)" fill="#848484"/><path d="M53,35.006a5.5,5.5,0,0,1-.047.712H55.6a12.711,12.711,0,0,0,.11-1.658V33H53Z" transform="translate(-4.308 -3.094)" fill="#9c9c9c"/><g transform="translate(32.375 22.656)"><path d="M53,26v6.344h2.719V27.813C55.719,26.906,54.813,26,53,26Z" transform="translate(-36.687 -25.094)" fill="#ffff9c"/><path d="M47,26a1.813,1.813,0,0,0,1.813,1.813h.906C49.719,26.906,48.813,26,47,26Z" transform="translate(-36.125 -25.094)" fill="#ffff9c"/><path d="M36.813,27.813h.906C37.719,26.906,36.813,26,35,26A1.813,1.813,0,0,0,36.813,27.813Z" transform="translate(-35 -25.094)" fill="#ffff9c"/><path d="M41,25v.906a1.813,1.813,0,0,0,1.813,1.813h.906v-.906C43.719,25.906,42.813,25,41,25Z" transform="translate(-35.562 -25)" fill="#ffff9c"/></g><path d="M53,21v4.531c1.813,0,2.719.906,2.719,1.813V22.813C55.719,21.906,54.813,21,53,21Z" transform="translate(-4.312 -1.969)" fill="#9c9c9c"/><path d="M55.719,22.344V18.719A2.719,2.719,0,0,0,53,16v4.531C54.813,20.531,55.719,21.438,55.719,22.344Z" transform="translate(-4.312 -1.5)" fill="#ffff9c"/><path d="M49,50.063h2.719L54.138,41H51.417Z" transform="translate(-3.937 -3.844)" fill="#fffd78"/><path d="M31.479,39.233l.24.08V25.719A2.719,2.719,0,0,0,29,23V35.794a3.625,3.625,0,0,0,2.479,3.439Z" transform="translate(-2.062 -2.156)" fill="#ffbb05"/><path d="M49,60.813h.906A1.818,1.818,0,0,0,51.719,59H49Z" transform="translate(-3.937 -5.531)" fill="#9c9c9c"/><path d="M49.906,60.813H49v1.813h.906a1.818,1.818,0,0,0,1.813-1.812V59a1.818,1.818,0,0,1-1.812,1.813Z" transform="translate(-3.937 -5.531)" fill="#848484"/><path d="M33.813,60.813A1.818,1.818,0,0,1,32,59v1.813a1.818,1.818,0,0,0,1.813,1.813H47.406V60.813Z" transform="translate(-2.344 -5.531)" fill="#595959"/><path d="M49,51h2.719v7.25H49Z" transform="translate(-3.937 -4.781)" fill="#ffe347"/><path d="M47.406,51H32v7.25H47.406Z" transform="translate(-2.344 -4.781)" fill="#ffce47"/><path d="M49.719,27.344V22.813C49.719,21.906,48.813,21,47,21v4.531C48.813,25.531,49.719,26.438,49.719,27.344Z" transform="translate(-3.75 -1.969)" fill="#9c9c9c"/><path d="M47,14v6.344c1.813,0,2.719.906,2.719,1.813V15.813C49.719,14.906,48.813,14,47,14Z" transform="translate(-3.75 -1.313)" fill="#ffff9c"/><path d="M49.719,15.438V12.719A2.719,2.719,0,0,0,47,10v3.625C48.813,13.625,49.719,14.531,49.719,15.438Z" transform="translate(-3.75 -0.938)" fill="#9c9c9c"/><path d="M43.719,26.344V21.813C43.719,20.906,42.813,20,41,20v4.531C42.813,24.531,43.719,25.438,43.719,26.344Z" transform="translate(-3.187 -1.875)" fill="#9c9c9c"/><path d="M43.719,21.156V14.813C43.719,13.906,42.813,13,41,13v6.344C42.813,19.344,43.719,20.25,43.719,21.156Z" transform="translate(-3.187 -1.219)" fill="#ffff9c"/><path d="M43.719,14.25V9.719A2.719,2.719,0,0,0,41,7v5.438C42.813,12.438,43.719,13.344,43.719,14.25Z" transform="translate(-3.187 -0.656)" fill="#9c9c9c"/><path d="M37.719,27.344V22.813C37.719,21.906,36.813,21,35,21v4.531C36.813,25.531,37.719,26.438,37.719,27.344Z" transform="translate(-2.625 -1.969)" fill="#9c9c9c"/><path d="M37.719,22.156V15.813C37.719,14.906,36.813,14,35,14v6.344C36.813,20.344,37.719,21.25,37.719,22.156Z" transform="translate(-2.625 -1.313)" fill="#ffff9c"/><path d="M37.719,15.438V12.719A2.719,2.719,0,0,0,35,10v3.625C36.813,13.625,37.719,14.531,37.719,15.438Z" transform="translate(-2.625 -0.938)" fill="#9c9c9c"/><path d="M28.719,10A2.719,2.719,0,0,0,26,12.719V24.5a2.719,2.719,0,0,1,5.438,0V12.719A2.719,2.719,0,0,0,28.719,10Z" transform="translate(-1.781 -0.938)" fill="#383838"/><path d="M30.875,50.188V48.375L26.77,40.844a10.819,10.819,0,0,1-1.332-5.211V25.719a2.719,2.719,0,1,0-5.438,0v9.914a10.875,10.875,0,0,0,1.328,5.208l4.11,7.534v5.438h5.438Z" transform="translate(-1.219 -2.156)" fill="#383838"/><ellipse cx="1.488" cy="2.072" rx="1.488" ry="2.072" transform="translate(40.439 39.206) rotate(-45)" fill="#f6fafd"/><ellipse cx="0.748" cy="1.04" rx="0.748" ry="1.04" transform="translate(42.595 43.049) rotate(-45)" fill="#f6fafd"/><rect width="11" height="2" rx="1" transform="translate(29.656 45.998)" fill="#ffbb05"/><rect width="3" height="2" rx="1" transform="translate(41.656 45.998)" fill="#ffbb05"/><rect width="11" height="2" rx="1" transform="translate(32.656 29.998)" fill="#9c9c9c"/><rect width="3" height="2" rx="1" transform="translate(44.656 29.998)" fill="#9c9c9c"/><path d="M50.375,14.156a3.6,3.6,0,0,0-1.812.487v-2.3A3.625,3.625,0,0,0,43.1,9.218a3.625,3.625,0,0,0-7.2,0,3.625,3.625,0,0,0-5.46,3.126v8.643A3.625,3.625,0,0,0,25,24.125v9.914a11.828,11.828,0,0,0,1.438,5.642l4,7.331v8.831a2.719,2.719,0,0,0,2.719,2.719h14.5a2.719,2.719,0,0,0,2.719-2.719V46.9l3.166-11.872a13.573,13.573,0,0,0,.459-3.5V17.781a3.625,3.625,0,0,0-3.625-3.625Zm0,1.813a1.813,1.813,0,0,1,1.813,1.813v1.246a5,5,0,0,0-3.625,0V17.781A1.813,1.813,0,0,1,50.375,15.969Zm-3.625,7.59a5,5,0,0,0-3.625,0V21.406c0-.44.634-.906,1.813-.906s1.813.467,1.813.906Zm-14.5-2.152c0-.44.634-.906,1.813-.906s1.813.467,1.813.906v2.152a5,5,0,0,0-3.625,0Zm5.438-7.25c0-.44.634-.906,1.813-.906s1.813.467,1.813.906v3.965a5,5,0,0,0-3.625,0Zm9.063,4.871a5,5,0,0,0-3.625,0V15.062c0-.44.634-.906,1.813-.906s1.813.467,1.813.906ZM37.688,20.5c0-.44.634-.906,1.813-.906s1.813.467,1.813.906v2.152a5,5,0,0,0-3.625,0Zm7.25-9.969a1.813,1.813,0,0,1,1.813,1.813v.34a5,5,0,0,0-3.625,0v-.34A1.813,1.813,0,0,1,44.938,10.531ZM39.5,7.812a1.813,1.813,0,0,1,1.813,1.813v2.152a5,5,0,0,0-3.625,0V9.625A1.813,1.813,0,0,1,39.5,7.812Zm-5.438,2.719a1.813,1.813,0,0,1,1.813,1.813v.34a5,5,0,0,0-3.625,0v-.34A1.813,1.813,0,0,1,34.063,10.531Zm0,3.625c1.178,0,1.813.467,1.813.906v3.965a5,5,0,0,0-3.625,0V15.062C32.25,14.623,32.884,14.156,34.063,14.156ZM47.656,56.75h-14.5a.906.906,0,0,1-.906-.906v-.906H48.563v.906A.906.906,0,0,1,47.656,56.75Zm4.531-27.188H34.063v1.813H52.188v.15a11.8,11.8,0,0,1-.4,3.035l-.6,2.252H34.063v1.813H50.706l-1.933,7.25H46.75v1.813h1.813v5.438H32.25V47.687h9.063V45.875h-9.43L28.03,38.813a10,10,0,0,1-1.217-4.774V24.125a1.813,1.813,0,0,1,3.625,0V37.719a.906.906,0,1,0,1.813,0V25.937c0-.44.634-.906,1.813-.906s1.813.467,1.813.906V27.75a.906.906,0,1,0,1.813,0V25.031c0-.44.634-.906,1.813-.906s1.813.467,1.813.906V27.75a.906.906,0,1,0,1.813,0V25.937c0-.44.634-.906,1.813-.906s1.813.467,1.813.906V27.75a.906.906,0,1,0,1.813,0V25.937c0-.44.634-.906,1.813-.906s1.813.467,1.813.906Zm0-6a5,5,0,0,0-3.625,0V21.406c0-.44.634-.906,1.813-.906s1.813.467,1.813.906Z" transform="translate(-1.687 -0.562)"/><path d="M45,50h1.813v1.813H45Z" transform="translate(-3.562 -4.688)"/><path d="M14.813,6.344a1.813,1.813,0,0,1,3.625,0V18.125a.906.906,0,1,0,1.813,0V3.625a1.813,1.813,0,0,1,3.625,0v14.5a.906.906,0,1,0,1.813,0V6.344a1.813,1.813,0,0,1,3.625,0V7.25h1.813V6.344a3.625,3.625,0,0,0-5.46-3.126,3.625,3.625,0,0,0-7.2,0A3.625,3.625,0,0,0,13,6.344v5.438h1.813Z" transform="translate(-0.562)"/><path d="M18.781,46.719H16.969v1.813H14.25V42.188a.906.906,0,0,0-.111-.434L10.03,34.22a10,10,0,0,1-1.217-4.774V19.531a1.806,1.806,0,0,1,.906-1.561v8.046a15.348,15.348,0,0,0,2.587,8.545l2.379,3.57a13.594,13.594,0,0,1,2.266,6.822l1.813-.091A15.426,15.426,0,0,0,16.2,37.131l-2.382-3.574a13.544,13.544,0,0,1-2.284-7.54V17.971a1.806,1.806,0,0,1,.906,1.561v8.156a.906.906,0,1,0,1.813,0V15H12.438v1.393A3.625,3.625,0,0,0,7,19.531v9.914a11.828,11.828,0,0,0,1.438,5.642l4,7.331V51.25a2.719,2.719,0,0,0,2.719,2.719H26.938V52.156H15.156a.906.906,0,0,1-.906-.906v-.906H26.938V48.531H18.781Z" transform="translate(0 -1.406)"/></g></g></svg>