<svg xmlns="http://www.w3.org/2000/svg" width="85" height="85" viewBox="0 0 85 85"><g transform="translate(-286.615 -5103)"><circle cx="42.5" cy="42.5" r="42.5" transform="translate(286.615 5103)" fill="#fff"/><path d="M42.5,5A37.511,37.511,0,0,0,27.9,77.055,37.511,37.511,0,0,0,57.1,7.945,37.261,37.261,0,0,0,42.5,5m0-5A42.5,42.5,0,1,1,0,42.5,42.5,42.5,0,0,1,42.5,0Z" transform="translate(286.615 5103)" fill="#a3314f"/><g transform="translate(295.749 5118.028)"><path d="M31.7,90.478v-2.1l-6.949-.447-3.474.279L17.8,87.93l-6.946.447v2.1c-.038.586-.163,21.758,1.656,42.043H18.3s2.481-23.415,2.977-29.38c.5,5.966,2.813,29.38,2.813,29.38h5.79C31.861,111.94,31.735,91.064,31.7,90.478Z" transform="translate(-3.55 -78.623)" fill="#fbb000"/><g transform="translate(7.303 7.816)"><path d="M22.314,456.591H28.1s.266-2.518.643-6.111H21.81C21.984,452.863,22.149,454.8,22.314,456.591Z" transform="translate(-20.661 -410.509)" fill="#7e8285"/><path d="M137.182,456.591h-5.794s-.106-2.518-.478-6.111h6.772C137.535,452.714,137.37,454.652,137.182,456.591Z" transform="translate(-118.181 -410.509)" fill="#7e8285"/><path d="M10.98,73.88H31.823v4.027H10.98Z" transform="translate(-10.98 -73.88)" fill="#7e8285"/></g><path d="M93.858,9.4l-6.12-2.237V4.182a35.523,35.523,0,0,0-8.65,0V7.164L72.973,9.4A139.585,139.585,0,0,0,60,41.317l4.027,1.193s7.159-15.063,9.843-21.028V41.019l.148.014c.8.071,4.765.4,9.4.405s8.6-.334,9.4-.405l.148-.014V21.184C95.644,27.15,102.8,42.51,102.8,42.51l4.027-1.193C102.951,25.061,93.858,9.4,93.858,9.4Z" transform="translate(-47.494 -3.525)" fill="#fbb000"/><path d="M190.67,310.564v4.192l.148.014c.8.071,4.765.4,9.4.405s8.6-.334,9.4-.405l.148-.014v-4.192a112.153,112.153,0,0,0-19.09,0Z" transform="translate(-164.295 -277.262)" fill="#7e8285"/><path d="M64.026,320.935s.781-1.643,1.923-4.059L61.222,315.4q-.643,2.128-1.222,4.342Z" transform="translate(-47.494 -281.949)" fill="#7e8285"/><path d="M448.174,320.935l-1.773-4.059,4.578-1.476q.643,2.128,1.223,4.342Z" transform="translate(-392.883 -281.949)" fill="#7e8285"/><path d="M105.648,119.623a.418.418,0,0,1-.418-.418V109a.418.418,0,1,1,.836,0V119.2A.418.418,0,0,1,105.648,119.623Z" transform="translate(-87.924 -97.081)"/><path d="M180.365,64.575a.418.418,0,0,1-.413-.357c-1.339-9.075-.62-12.118-.589-12.243a.418.418,0,0,1,.812.2c-.01.038-.7,3.078.6,11.919a.418.418,0,0,1-.414.479Z" transform="translate(-153.992 -46.2)"/><path d="M367,64.586a.418.418,0,0,1-.414-.482,91.938,91.938,0,0,0,.888-12.016.418.418,0,0,1,.836,0,93.109,93.109,0,0,1-.9,12.143A.418.418,0,0,1,367,64.586Z" transform="translate(-321.538 -46.211)"/><path d="M267.851,72.153h-.017a.418.418,0,0,1-.4-.434,231.292,231.292,0,0,0-1.092-33.469.418.418,0,1,1,.83-.106,232.382,232.382,0,0,1,1.1,33.605A.418.418,0,0,1,267.851,72.153Z" transform="translate(-231.932 -33.793)"/><path d="M240.242,32.111a9.48,9.48,0,0,1-4.139-.78.419.419,0,0,1,.387-.743c.044.022,3.084,1.532,8.338-.03a.418.418,0,1,1,.238.8A16.926,16.926,0,0,1,240.242,32.111Z" transform="translate(-204.704 -27.32)"/><path d="M287.972,72.213a.418.418,0,0,1-.415-.37l-.12-1.038a.418.418,0,0,1,.831-.1l.12,1.038a.418.418,0,0,1-.363.466Z" transform="translate(-250.789 -62.898)"/><path d="M291.159,127.313a.418.418,0,0,1-.417-.395l-.057-1.043a.418.418,0,0,1,.835-.046l.057,1.043a.418.418,0,0,1-.395.44Z" transform="translate(-253.694 -112.146)"/><path d="M294.109,186.393a.418.418,0,0,1-.417-.395l-.057-1.043a.418.418,0,0,1,.835-.046l.057,1.043a.418.418,0,0,1-.395.44Z" transform="translate(-256.331 -164.955)"/><path d="M294.166,251.38h-.014a.418.418,0,0,1-.4-.431l.033-1.044a.418.418,0,0,1,.417-.4h.014a.418.418,0,0,1,.4.431l-.033,1.044A.418.418,0,0,1,294.166,251.38Z" transform="translate(-256.433 -223.044)"/><path d="M15.178,224.427H9.388a.418.418,0,0,1-.416-.381C7.859,211.633,7.476,199.06,7.35,190.7a.418.418,0,0,1,.412-.425h.006a.418.418,0,0,1,.418.412c.124,8.258.5,20.635,1.586,32.9H14.8c.169-1.592.849-8.048,1.517-14.541a.418.418,0,1,1,.832.086c-.765,7.443-1.55,14.839-1.56,14.913a.418.418,0,0,1-.413.374Z" transform="translate(-0.432 -170.109)"/><path d="M7.311,115.77a.418.418,0,0,1-.418-.413c-.046-4.106-.022-6.649-.01-6.856a.418.418,0,0,1,.834.054c-.012.176-.035,2.7.011,6.793a.418.418,0,0,1-.413.425Z" transform="translate(0 -96.671)"/><path d="M195.372,357h-.027a.418.418,0,0,1-.392-.443c.074-1.211.188-3.138.26-4.5a.418.418,0,0,1,.835.044c-.072,1.369-.186,3.3-.26,4.513A.418.418,0,0,1,195.372,357Z" transform="translate(-168.124 -314.356)"/><path d="M122.037,341.847h-5.79a.418.418,0,0,1-.416-.377c-.011-.106-1.061-10.72-1.888-19.383a.418.418,0,0,1,.832-.08c.743,7.735,1.657,17.034,1.851,19h5.031c.281-2.955.531-6.082.754-9.3a.418.418,0,1,1,.834.057c-.229,3.365-.5,6.629-.792,9.7A.418.418,0,0,1,122.037,341.847Z" transform="translate(-95.711 -287.53)"/><path d="M99.272,39.4a.418.418,0,0,1-.379-.242c-.065-.14-5.989-12.853-9.046-19.568v17.9a.418.418,0,0,1-.381.416l-.146.014c-.754.067-4.742.4-9.435.408s-8.683-.34-9.435-.408L70.3,37.91a.418.418,0,0,1-.381-.416V19.886c-3.058,6.672-8.982,19.141-9.047,19.279a.418.418,0,0,1-.5.222l-4.027-1.194a.418.418,0,0,1-.286-.506A141.325,141.325,0,0,1,69.084,5.665a.418.418,0,0,1,.212-.18l5.838-2.137V.657a.418.418,0,0,1,.357-.414,29.261,29.261,0,0,1,4.4-.269A29.311,29.311,0,0,1,84.27.243a.418.418,0,0,1,.357.414V3.348l5.838,2.137a.418.418,0,0,1,.218.183,144.666,144.666,0,0,1,7.189,14.721.418.418,0,1,1-.771.325,146.041,146.041,0,0,0-7.063-14.5l-5.97-2.185a.418.418,0,0,1-.275-.393V1.021a36.06,36.06,0,0,0-7.814,0V3.64a.418.418,0,0,1-.275.393L69.731,6.218A140.921,140.921,0,0,0,56.977,37.507l3.29.976c1.055-2.224,7.251-15.284,9.686-20.7a.418.418,0,0,1,.8.172V37.111c1.135.1,4.833.38,9.128.384s7.99-.288,9.128-.384V17.659a.418.418,0,0,1,.8-.172c2.441,5.413,8.636,18.736,9.688,21l3.3-.978a108.315,108.315,0,0,0-4.882-14.833.419.419,0,0,1,.775-.318A108.151,108.151,0,0,1,103.7,37.695a.418.418,0,0,1-.288.5l-4.027,1.193a.418.418,0,0,1-.116.018Z" transform="translate(-43.965 0)"/><path d="M24.582,453.5h-5.79a.418.418,0,0,1-.416-.38c-.191-2.068-.351-4.012-.505-6.119a.418.418,0,0,1,.417-.448h6.937a.418.418,0,0,1,.416.462c-.377,3.594-.646,6.111-.646,6.111A.418.418,0,0,1,24.582,453.5Zm-5.413-.836h5.037c.083-.781.288-2.726.555-5.275H18.738c.134,1.8.274,3.5.436,5.275Z" transform="translate(-9.836 -399.179)"/><path d="M133.659,453.488h-5.794a.418.418,0,0,1-.418-.4c0-.026-.106-2.547-.475-6.085a.418.418,0,0,1,.416-.462h6.772a.418.418,0,0,1,.417.446c-.136,2.075-.3,4.022-.505,6.125A.418.418,0,0,1,133.659,453.488Zm-5.392-.836h5.013c.175-1.8.318-3.5.436-5.275h-5.865c.254,2.522.37,4.472.412,5.275Z" transform="translate(-107.355 -399.171)"/><path d="M196.693,312.106c-4.693,0-8.683-.34-9.435-.408l-.148-.014a.418.418,0,0,1-.381-.416v-4.191a.418.418,0,0,1,.376-.416,113.923,113.923,0,0,1,19.169,0,.418.418,0,0,1,.38.416v4.192a.418.418,0,0,1-.381.416l-.146.014C205.375,311.767,201.387,312.1,196.693,312.106Zm-9.128-1.22c1.135.1,4.834.38,9.128.384s7.99-.288,9.128-.384v-3.43a114.34,114.34,0,0,0-18.256,0Z" transform="translate(-160.774 -273.775)"/><path d="M60.5,317.834a.417.417,0,0,1-.119-.017l-4.027-1.194a.418.418,0,0,1-.286-.506c.37-1.421.783-2.887,1.227-4.357a.418.418,0,0,1,.524-.278l4.727,1.476a.418.418,0,0,1,.254.577c-1.142,2.416-1.923,4.059-1.923,4.059a.418.418,0,0,1-.378.24Zm-3.52-1.9,3.29.977c.258-.542.823-1.732,1.564-3.3l-3.86-1.207C57.616,313.6,57.283,314.78,56.977,315.937Z" transform="translate(-43.965 -278.43)"/><path d="M444.642,317.826a.418.418,0,0,1-.383-.251l-1.775-4.059a.418.418,0,0,1,.255-.566l4.578-1.476a.418.418,0,0,1,.531.277c.445,1.471.858,2.937,1.227,4.357a.418.418,0,0,1-.285.506l-4.027,1.193a.417.417,0,0,1-.12.018Zm-1.206-4.22,1.441,3.3,3.284-.973c-.306-1.155-.637-2.335-.993-3.527Z" transform="translate(-389.352 -278.422)"/><path d="M7.425,74.816A.418.418,0,0,1,7,74.4v-4.04a.418.418,0,0,1,.425-.418l17.073.04a.418.418,0,1,1,0,.836L7.841,70.777v3.2l14.6-.013a.418.418,0,0,1,0,.836Z" transform="translate(-0.12 -62.542)"/></g></g></svg>