<svg xmlns="http://www.w3.org/2000/svg" xmlns:xlink="http://www.w3.org/1999/xlink" width="304" height="140" viewBox="0 0 304 140"><defs><filter id="a" x="98" y="39" width="206" height="68" filterUnits="userSpaceOnUse"><feOffset dy="3" input="SourceAlpha"/><feGaussianBlur stdDeviation="3" result="b"/><feFlood flood-opacity="0.161"/><feComposite operator="in" in2="b"/><feComposite in="SourceGraphic"/></filter></defs><g transform="translate(-180.283 -1986)"><g transform="matrix(1, 0, 0, 1, 180.28, 1986)" filter="url(#a)"><rect width="188" height="50" rx="20" transform="translate(107 45)" fill="#ffb500"/></g><circle cx="70" cy="70" r="70" transform="translate(180.283 1986)" fill="#ced371"/><path d="M5.019-12.8l2.856,8.9,2.848-8.9h4.061V0H11.689V-2.988l.3-6.117L8.895,0H6.855l-3.1-9.114.3,6.126V0H.967V-12.8ZM21.964,0a3.344,3.344,0,0,1-.281-.853A2.754,2.754,0,0,1,19.4.176a3.374,3.374,0,0,1-2.285-.813,2.588,2.588,0,0,1-.94-2.043,2.66,2.66,0,0,1,1.143-2.338,5.821,5.821,0,0,1,3.322-.791h.914v-.5q0-1.316-1.134-1.316a.927.927,0,0,0-1.055,1.042H16.4a2.655,2.655,0,0,1,1.173-2.239,4.931,4.931,0,0,1,2.993-.86A4.323,4.323,0,0,1,23.44-8.8a3.086,3.086,0,0,1,1.081,2.435v4.21a4.311,4.311,0,0,0,.4,2V0ZM20.109-1.934a1.652,1.652,0,0,0,.918-.237,1.487,1.487,0,0,0,.523-.536V-4.228h-.861q-1.547,0-1.547,1.389a.848.848,0,0,0,.272.655A.986.986,0,0,0,20.109-1.934Zm10.072-.176a1.317,1.317,0,0,0,.967-.338,1.241,1.241,0,0,0,.334-.945H34.26A3.288,3.288,0,0,1,33.139-.826a4.168,4.168,0,0,1-2.887,1,4.22,4.22,0,0,1-3.27-1.3,5.125,5.125,0,0,1-1.2-3.6v-.123A5.792,5.792,0,0,1,26.319-7.4a3.872,3.872,0,0,1,1.534-1.7,4.573,4.573,0,0,1,2.373-.593A4.116,4.116,0,0,1,33.17-8.657a3.647,3.647,0,0,1,1.09,2.786H31.482A1.626,1.626,0,0,0,31.122-7a1.244,1.244,0,0,0-.967-.4Q29-7.4,28.811-5.933a10.357,10.357,0,0,0-.062,1.283,4.068,4.068,0,0,0,.343,1.986A1.187,1.187,0,0,0,30.182-2.109ZM38.408-8.49a2.964,2.964,0,0,1,2.426-1.2,2.956,2.956,0,0,1,2.373.932A4.186,4.186,0,0,1,44.024-6V0H41.054V-5.933a1.674,1.674,0,0,0-.308-1.112A1.322,1.322,0,0,0,39.7-7.4a1.424,1.424,0,0,0-1.292.58V0H35.446V-13.5h2.962ZM45.3-4.843a5.613,5.613,0,0,1,.554-2.536,3.96,3.96,0,0,1,1.591-1.709,4.791,4.791,0,0,1,2.435-.6,4.373,4.373,0,0,1,3.366,1.323,5.076,5.076,0,0,1,1.23,3.6v.105A4.925,4.925,0,0,1,53.24-1.129,4.384,4.384,0,0,1,49.9.176a4.434,4.434,0,0,1-3.261-1.217,4.761,4.761,0,0,1-1.327-3.3Zm2.962.185a3.538,3.538,0,0,0,.413,1.934,1.376,1.376,0,0,0,1.222.615q1.582,0,1.617-2.435v-.3q0-2.558-1.635-2.558-1.485,0-1.608,2.206Zm12.5,1.986a.684.684,0,0,0-.4-.606,6.016,6.016,0,0,0-1.5-.475A6.853,6.853,0,0,1,57.032-4.4a3.062,3.062,0,0,1-1.1-.971,2.319,2.319,0,0,1-.378-1.31,2.628,2.628,0,0,1,1.081-2.158,4.453,4.453,0,0,1,2.83-.848,4.934,4.934,0,0,1,3.023.853,2.666,2.666,0,0,1,1.143,2.241H60.662q0-1.143-1.2-1.143a1.194,1.194,0,0,0-.782.259.8.8,0,0,0-.316.646.737.737,0,0,0,.387.642,3.654,3.654,0,0,0,1.235.4,10.671,10.671,0,0,1,1.49.378A2.706,2.706,0,0,1,63.615-2.76,2.491,2.491,0,0,1,62.459-.642a5.068,5.068,0,0,1-2.993.817,5.172,5.172,0,0,1-2.18-.439,3.645,3.645,0,0,1-1.494-1.2,2.707,2.707,0,0,1-.536-1.591h2.769a1.145,1.145,0,0,0,.439.962,1.808,1.808,0,0,0,1.081.3,1.422,1.422,0,0,0,.91-.246A.787.787,0,0,0,60.759-2.672Z" transform="translate(365.283 2063)" fill="#12263f"/><g transform="translate(213.438 2019.893)"><g transform="translate(1.08 1.081)"><path d="M13.549,103.753s-4.6,1.434-6.049,7.6c0,0,3.131,2.58,11.014.7H68c7.883,1.88,11.014-.7,11.014-.7-1.453-6.164-6.049-7.6-6.049-7.6L45.044,93.437Z" transform="translate(-7.5 -81.586)" fill="#985e33"/><path d="M75.139,32.526l-7.952,3.559H20.077l-7.952-3.559a7.081,7.081,0,0,1-4-8.069l2.743-11.775a1.969,1.969,0,0,1,3-1.205,1.9,1.9,0,0,1,.843,1.286l1.939,10.252,12.019,1.352H58.6l12.019-1.352,1.939-10.252a1.927,1.927,0,0,1,2.1-1.592A1.906,1.906,0,0,1,76.4,12.682l2.743,11.775A7.081,7.081,0,0,1,75.139,32.526Z" transform="translate(-7.873 -11.163)" fill="#f9f6f9"/><path d="M352.227,26.47c-3.5,2.131-17.371,2.131-17.371,2.131l.555-4.235h3.017l12.019-1.352,1.939-10.252a1.927,1.927,0,0,1,2.1-1.592C354.719,15.575,354.88,24.856,352.227,26.47Z" transform="translate(-287.701 -11.163)" fill="#dfdde2"/><path d="M29.992,33.33l-1.2,2.755H20.077l-7.952-3.559a7.081,7.081,0,0,1-4-8.069l2.743-11.775a1.969,1.969,0,0,1,3-1.205c-.685,3.927-2.31,14.834.261,17.405C17.277,32.033,29.992,33.33,29.992,33.33Z" transform="translate(-7.873 -11.163)" fill="#dfdde2"/><path d="M132.4,102.887c0-19.318-11.174-26.02-24.957-26.02s-24.957,6.7-24.957,26.02,11.174,34.978,24.957,34.978S132.4,122.205,132.4,102.887Z" transform="translate(-71.688 -67.402)" fill="#c17d4f"/><path d="M107.45,137.87c-13.782,0-24.955-15.659-24.955-34.978,0-19.234,11.075-25.962,24.774-26.019-7.724.1-13.952,6.851-13.952,26.019C93.316,122.21,99.644,137.87,107.45,137.87Z" transform="translate(-71.692 -67.408)" fill="#985e33"/><ellipse cx="19.379" cy="15.375" rx="19.379" ry="15.375" transform="translate(16.38 39.713)" fill="#e4936b"/><path d="M154.366,322.4a22.07,22.07,0,0,1-13.775,4.562c-10.7,0-19.379-6.884-19.379-15.376,0-6.057,4.414-11.3,10.831-13.8a13.928,13.928,0,0,0-5.6,10.812c0,8.492,8.677,15.376,19.38,15.376A23.5,23.5,0,0,0,154.366,322.4Z" transform="translate(-104.832 -256.495)" fill="#dd6938"/><g transform="translate(22.946 52.953)"><ellipse cx="3.951" cy="2.936" rx="3.951" ry="2.936" fill="#384649"/><ellipse cx="3.951" cy="2.936" rx="3.951" ry="2.936" transform="translate(17.724)" fill="#384649"/></g><path d="M154.924,26.157c-1.922,4.558-13.267.718-13.267.718s-.9,7.453-6.815,7.453-6.815-7.453-6.815-7.453-11.346,3.84-13.267-.718,7.269-5.948,7.269-5.948-5.488-1.962-4.049-4.763,11.523-.7,16.862,2.1c5.339-2.8,15.422-4.9,16.862-2.1s-4.049,4.763-4.049,4.763,9.191,1.392,7.269,5.948Z" transform="translate(-99.083 -13.697)" fill="#665e66"/><path d="M134.842,34.328c-5.912,0-6.815-7.453-6.815-7.453s-11.346,3.84-13.267-.718,7.269-5.948,7.269-5.948-5.488-1.962-4.049-4.763,11.523-.7,16.862,2.1c-3.249-1.415-6.576.119-4.912,2.427,0,0-3.95-.5-3.95,2.739s6.06,3.442,6.06,3.442S130.777,32.432,134.842,34.328Z" transform="translate(-99.083 -13.697)" fill="#454045"/></g><g transform="translate(0 0)"><path d="M164.327,379.3c2.774,0,5.031-1.8,5.031-4.016s-2.257-4.016-5.031-4.016-5.031,1.8-5.031,4.016S161.553,379.3,164.327,379.3Zm0-5.872c1.556,0,2.87.85,2.87,1.856s-1.314,1.856-2.87,1.856-2.87-.85-2.87-1.856S162.771,373.433,164.327,373.433Z" transform="translate(-136.35 -318.318)"/><path d="M292.4,375.288c0-2.215-2.257-4.016-5.031-4.016s-5.031,1.8-5.031,4.016c0,2.252,2.21,4.016,5.031,4.016C290.144,379.3,292.4,377.5,292.4,375.288Zm-7.9,0c0-1.006,1.314-1.856,2.87-1.856s2.87.85,2.87,1.856-1.314,1.856-2.87,1.856S284.5,376.294,284.5,375.288Z" transform="translate(-241.669 -318.318)"/><ellipse cx="3.257" cy="4.868" rx="3.257" ry="4.868" transform="translate(16.721 29.631)"/><ellipse cx="3.257" cy="4.868" rx="3.257" ry="4.868" transform="translate(50.443 29.631)"/><path d="M73.65,34.257a11.923,11.923,0,0,0-4.662-7.263A8.176,8.176,0,0,0,73.4,17.789L70.66,6.014A2.982,2.982,0,0,0,67.7,3.659h-.069A2.985,2.985,0,0,0,64.7,6.138l-1.791,9.468-4.651.523a3.615,3.615,0,0,0-.469-1.926c-.95-1.7-3.186-2.73-5.06-3.326A5.494,5.494,0,0,0,54.8,8.549a3.018,3.018,0,0,0-.142-2.554c-.683-1.329-2.831-2.656-9.181-1.434a1.08,1.08,0,1,0,.408,2.122c4.471-.86,6.547-.292,6.851.3a.859.859,0,0,1,.055.771c-.407,1.034-2.367,2.07-3.5,2.48a1.081,1.081,0,0,0,.2,2.086c2.018.309,5.545,1.38,6.419,2.941a1.6,1.6,0,0,1,.018,1.52c-.766,1.816-4.211,1.669-6.2,1.42A33.655,33.655,0,0,1,44,16.9a1.082,1.082,0,0,0-1.418.891,11.32,11.32,0,0,1-1.1,3.409,5.026,5.026,0,0,1-9.28,0,11.317,11.317,0,0,1-1.1-3.407,1.08,1.08,0,0,0-1.419-.893c-3.392,1.147-10.77,2.629-11.926-.115a1.6,1.6,0,0,1,.019-1.52c.873-1.561,4.4-2.632,6.418-2.941a1.08,1.08,0,0,0,.2-2.086c-.959-.343-3.078-1.4-3.5-2.479a.86.86,0,0,1,.054-.773,1.307,1.307,0,0,1,.776-.486c2.773-.878,10.016.633,14.622,3.051a1.08,1.08,0,0,0,1,0,28.969,28.969,0,0,1,4.769-1.913,1.08,1.08,0,1,0-.64-2.064A32.37,32.37,0,0,0,36.84,7.378C32.107,5.047,24.573,3.326,21.063,4.436a3.27,3.27,0,0,0-2.046,1.558,3.018,3.018,0,0,0-.142,2.554,5.494,5.494,0,0,0,2.07,2.328c-1.873.6-4.11,1.631-5.06,3.326a3.615,3.615,0,0,0-.469,1.926l-4.651-.523L8.976,6.138A2.985,2.985,0,0,0,6.047,3.659,2.984,2.984,0,0,0,3.019,6.013L.276,17.789a8.176,8.176,0,0,0,4.415,9.2A11.923,11.923,0,0,0,.029,34.257a1.081,1.081,0,0,0,.364,1.082,7.581,7.581,0,0,0,2.994,1.274,14.956,14.956,0,0,0,3.38.362,22.617,22.617,0,0,0,4.176-.42q-.141,1.772-.141,3.67a45.3,45.3,0,0,0,6.05,23.134,14.968,14.968,0,0,0,3.3,6,1.08,1.08,0,0,0,1.619-1.431,12.164,12.164,0,0,1-3.229-8.1c0-7.882,8.209-14.294,18.3-14.294s18.3,6.412,18.3,14.294-8.209,14.3-18.3,14.3A21.479,21.479,0,0,1,24.8,70.585a1.08,1.08,0,1,0-1.22,1.784,23.658,23.658,0,0,0,13.258,3.915,23.131,23.131,0,0,0,14.375-4.737,15.757,15.757,0,0,0,5.62-8.2,45.311,45.311,0,0,0,6.043-23.122q0-1.9-.141-3.67a22.63,22.63,0,0,0,4.176.42,14.959,14.959,0,0,0,3.381-.362,7.584,7.584,0,0,0,2.994-1.274,1.08,1.08,0,0,0,.365-1.082ZM57.493,18.39l6.454-.726a1.08,1.08,0,0,0,.941-.873L66.826,6.54A.883.883,0,0,1,68.555,6.5L71.3,18.279A6.012,6.012,0,0,1,67.9,25.117l-6.856,3.068a21.783,21.783,0,0,0-5.2-8.416,4.267,4.267,0,0,0,1.647-1.379ZM2.38,18.279,5.124,6.5A.848.848,0,0,1,6,5.82a.845.845,0,0,1,.85.72L8.792,16.792a1.08,1.08,0,0,0,.941.873l6.454.726a4.267,4.267,0,0,0,1.647,1.379,21.784,21.784,0,0,0-5.2,8.416L5.774,25.117A6.012,6.012,0,0,1,2.38,18.279ZM2.337,33.986A9.1,9.1,0,0,1,7.1,28.079l4.886,2.187a33.23,33.23,0,0,0-.8,4.036c-4.949,1.055-7.733.2-8.85-.315ZM57.171,57.973a15.319,15.319,0,0,0-5.957-9.863,23.132,23.132,0,0,0-14.375-4.737A23.129,23.129,0,0,0,22.464,48.11a15.32,15.32,0,0,0-5.957,9.863,44.947,44.947,0,0,1-3.545-17.749c0-8.971,2.469-15.625,7.338-19.789a16.849,16.849,0,0,0,3.946-.1A34.66,34.66,0,0,0,29.2,19.3a13.25,13.25,0,0,0,1.057,2.841,7.184,7.184,0,0,0,13.167,0A13.251,13.251,0,0,0,44.48,19.3a34.635,34.635,0,0,0,4.952,1.04,16.851,16.851,0,0,0,3.946.1c4.869,4.164,7.338,10.818,7.338,19.789A44.946,44.946,0,0,1,57.171,57.973ZM62.492,34.3a33.229,33.229,0,0,0-.8-4.036l4.885-2.186a9.148,9.148,0,0,1,4.768,5.912C70.239,34.508,67.463,35.362,62.492,34.3Z" transform="translate(0 -3.658)"/></g></g></g></svg>