<svg xmlns="http://www.w3.org/2000/svg" width="121" height="121" viewBox="0 0 121 121"><g transform="translate(-1160.615 -7096)"><circle cx="60.5" cy="60.5" r="60.5" transform="translate(1160.615 7096)" fill="#fff"/><path d="M60.5,5a55.218,55.218,0,0,0-31.027,9.476A55.677,55.677,0,0,0,9.359,38.9a55.42,55.42,0,0,0,5.116,52.629A55.677,55.677,0,0,0,38.9,111.641a55.42,55.42,0,0,0,52.629-5.116A55.676,55.676,0,0,0,111.641,82.1a55.42,55.42,0,0,0-5.116-52.629A55.676,55.676,0,0,0,82.1,9.359,55.148,55.148,0,0,0,60.5,5m0-5A60.5,60.5,0,1,1,0,60.5,60.5,60.5,0,0,1,60.5,0Z" transform="translate(1160.615 7096)" fill="#ced371"/><g transform="translate(1127.608 7118)"><path d="M220.89,283.6l6.545-6.371v-3.181a14.306,14.306,0,0,1-12.986.223v3.085Z" transform="translate(-127.936 -232.447)" fill="#dd9a5e"/><path d="M218.356,276.725a14.014,14.014,0,0,1-3.908-1.251v3.085l3.908,3.789Z" transform="translate(-127.635 -233.611)" fill="#d18c54"/><g transform="translate(74.432 20.446)"><rect width="37.151" height="5.538" transform="translate(0)" fill="#4c4846"/><rect width="4.218" height="5.538" transform="translate(0)" fill="#4c4846"/></g><path d="M128.538,320.983a6.405,6.405,0,0,0-2.958-2.854,7.193,7.193,0,0,0-1.225-.438l-8.182-3.092-4.3,6.648a1.442,1.442,0,0,1-2.366.029l-2.9-3.463-2.928,3.463a1.442,1.442,0,0,1-2.366-.029l-4.277-6.608-1.84.679h0c-7.923,3.012-7.38,2.675-8.267,3.264a6.471,6.471,0,0,0-2.756,4.055c-.061.262-2.982,16.021-2.985,16.036.442-.138.115-.048,9.67-.076v5.684h31.6V338.6c9.621.027,9.211-.068,9.67.076C129.019,321.953,129.168,322.206,128.538,320.983Z" transform="translate(-13.644 -267.456)" fill="#ededed"/><path d="M88.933,333.159a6.4,6.4,0,0,1,2.121-2.275l-1.542.546-.88.26a6.651,6.651,0,0,0-4.113,4.207c-.218.672-3.336,16.492-3.341,16.516.455-.132.466-.05,3.922-.076C88.361,334.344,88.207,334.473,88.933,333.159Z" transform="translate(-13.643 -281.196)" fill="#dadada"/><g transform="translate(73.624 23.893)"><path d="M136.817,157.438c-2.325-.828-5.064.589-5.064,3s2.733,3.827,5.064,3Z" transform="translate(-131.753 -157.2)" fill="#dd9a5e"/><path d="M345.025,157.438c2.325-.828,5.064.589,5.064,3s-2.733,3.827-5.064,3Z" transform="translate(-311.688 -157.2)" fill="#dd9a5e"/></g><g transform="translate(73.621 25.616)"><path d="M132.139,168.426c-1.224,2.126.487,4.7,3.187,4.7a4.9,4.9,0,0,0,1.477-.228v-2.959A3.912,3.912,0,0,1,132.139,168.426Z" transform="translate(-131.736 -168.426)" fill="#d18c54"/><path d="M345.025,169.941V172.9a4.9,4.9,0,0,0,1.477.228c2.7,0,4.412-2.577,3.188-4.7A3.912,3.912,0,0,1,345.025,169.941Z" transform="translate(-311.686 -168.424)" fill="#d18c54"/></g><path d="M163.068,136.474c-.01,2.033-.066,9.674.119,11.054,2.224,17.146,28.466,16.355,28.466-1.856v-9.2Z" transform="translate(-84.548 -115.907)" fill="#edae6b"/><path d="M167.112,147.527c-.186-1.38-.129-9.021-.119-11.054h-3.924c-.01,2.033-.066,9.674.119,11.054,1.177,9.073,9.08,13.123,16.261,12.227A13.737,13.737,0,0,1,167.112,147.527Z" transform="translate(-84.033 -115.907)" fill="#dd9a5e"/><g transform="translate(66.179 71.142)"><path d="M374.311,468.135h-9.853v5.684h9.853a1.882,1.882,0,0,0,1.876-1.876v-1.932A1.882,1.882,0,0,0,374.311,468.135Z" transform="translate(-322.533 -468.135)" fill="#dadada"/><path d="M74.382,468.135h9.853v5.684H74.382a1.882,1.882,0,0,1-1.876-1.876v-1.932A1.882,1.882,0,0,1,74.382,468.135Z" transform="translate(-72.506 -468.135)" fill="#dadada"/></g><path d="M76.415,471.943v-1.932a1.882,1.882,0,0,1,1.876-1.876H74.382a1.882,1.882,0,0,0-1.876,1.876v1.932a1.882,1.882,0,0,0,1.876,1.876h3.909A1.882,1.882,0,0,1,76.415,471.943Z" transform="translate(-6.327 -396.993)" fill="#c6c6c6"/><g transform="translate(82.69 44.674)"><path d="M262.2,294.4l3.725,3.157-4.617,6.648a1.613,1.613,0,0,1-2.538.029l-3.114-3.463Z" transform="translate(-245.39 -294.401)" fill="#dadada"/><path d="M193.793,295.209l-3.827,3.071,4.589,6.608a1.613,1.613,0,0,0,2.538.029l3.141-3.463Z" transform="translate(-189.966 -295.083)" fill="#dadada"/></g><path d="M230.568,386.523l-3.923-12.935h-3.519L219.2,386.523a1.628,1.628,0,0,0,.345,1.558l5.327,5.947v.023l.01-.012.01.012v-.023l5.327-5.947A1.628,1.628,0,0,0,230.568,386.523Z" transform="translate(-131.888 -317.225)" fill="#3aa8d8"/><path d="M237.466,335.157l-3.37,3.711,1.654,2.3h3.519l1.584-2.275Z" transform="translate(-144.51 -284.206)" fill="#70bbef"/><path d="M223.064,387.612a1.628,1.628,0,0,1-.345-1.558l3.923-12.466h-3.518L219.2,386.523a1.628,1.628,0,0,0,.345,1.558l5.327,5.947v.023l.01-.012.01.012v-.023l1.959-2.186Z" transform="translate(-131.752 -317.225)" fill="#1990ba"/><path d="M238.2,338.241h0l1.02-1.134-1.751-1.947-3.37,3.711,1.654,2.3h3.518l-1.454-2.018C237.527,338.75,238.069,338.434,238.2,338.241Z" transform="translate(-144.456 -284.209)" fill="#3aa8d8"/><path d="M138.82,25.289h32.448c-1.116-8.918-7.954-15.781-16.224-15.781S139.936,16.371,138.82,25.289Z" transform="translate(-62.275 -8.022)" fill="#fcd249"/><g transform="translate(75.462 1.172)"><path d="M158.989,9.618A18.283,18.283,0,0,0,138.82,25.28H143A18.311,18.311,0,0,1,158.989,9.618Z" transform="translate(-138.82 -9.185)" fill="#f9b938"/><path d="M210.1,23.6V9.614a2.111,2.111,0,1,0-4.221,0V23.6Z" transform="translate(-195.399 -7.503)" fill="#f9b938"/></g><path d="M209.048,7.785a2.111,2.111,0,0,0-3.166,1.826V23.6h2.111V9.611A2.108,2.108,0,0,1,209.048,7.785Z" transform="translate(-120.299 -6.328)" fill="#eaa224"/><path d="M281.621,23.6V9.614a2.111,2.111,0,0,0-4.221,0V23.6Z" transform="translate(-181.413 -6.331)" fill="#f9b938"/><g transform="translate(72.83 1.172)"><path d="M280.565,7.785A2.111,2.111,0,0,0,277.4,9.611V23.6h2.111V9.611A2.108,2.108,0,0,1,280.565,7.785Z" transform="translate(-254.339 -7.5)" fill="#eaa224"/><path d="M153.206,113.689H116.984a2.119,2.119,0,0,1,0-4.221h36.222a2.119,2.119,0,0,1,0,4.221Z" transform="translate(-115.052 -93.529)" fill="#eaa224"/></g><path d="M122.571,111.579a2.111,2.111,0,0,1,2.111-2.111h-7.519a2.111,2.111,0,0,0,0,4.221h7.519A2.111,2.111,0,0,1,122.571,111.579Z" transform="translate(-42.222 -92.816)" fill="#ea8b1b"/><path d="M119.6,70.593l-1.488-7.767a1.1,1.1,0,0,0-1.293-.9,1.142,1.142,0,0,0-.865,1.344l1.322,6.9h-7.275V63.218a1.1,1.1,0,1,0-2.2,0v12.5H95.449L98.822,71.8a2.825,2.825,0,0,0,.557-2.613L95.854,57.111l.671-1a2.565,2.565,0,0,0,2.637-1.053l3.856-5.77c8.623,3.166,7.107,2.63,8.278,2.99a5.793,5.793,0,0,1,1.49.868h0c1.707,1.462,1.757,2.8,2.171,4.895a1.1,1.1,0,0,0,1.293.9,1.142,1.142,0,0,0,.864-1.344,18.56,18.56,0,0,0-.687-3.018,7.462,7.462,0,0,0-3.053-3.779,7.62,7.62,0,0,0-2.215-.946l-8.018-2.937-2.946-2.594v-1.6a15.184,15.184,0,0,0,7.025-11.341,4.315,4.315,0,0,0,4.308-6.006V21.928a3.2,3.2,0,0,0-.089-6.4H110.6c-.01-.024-1.317-8.932-9.5-13.145A3.036,3.036,0,0,0,96.272.649,17.661,17.661,0,0,0,89.458.624a3.035,3.035,0,0,0-4.771,1.669l-.119.061.069.141c0,.006,0,.012,0,.019l-.079-.152a18.23,18.23,0,0,0-7.189,6.885A20.249,20.249,0,0,0,75,15.533h-.676a3.2,3.2,0,0,0,0,6.4h.163v2.731A4.292,4.292,0,0,0,78.38,31.38a15.11,15.11,0,0,0,7.436,11.587v1.457L82.787,46.95c-11.146,4.078-8.951,3.225-9.263,3.369h0a7.485,7.485,0,0,0-3.465,3.208c-.817,1.489-.632,1.324-3.649,17.066a2.994,2.994,0,0,0-1.4,2.552v1.882A2.92,2.92,0,0,0,67.866,78H80.76a1.144,1.144,0,0,0,0-2.286H78.207v-12.5a1.1,1.1,0,1,0-2.2,0v6.956H68.732c2.855-14.88,2.638-14.374,3.24-15.521a4.973,4.973,0,0,1,1.044-1.324l-.008.008.192-.166h0a5.658,5.658,0,0,1,2.3-1.132c.56-.166,7.245-2.654,7.4-2.71,4,5.988,3.826,5.727,3.859,5.773a2.561,2.561,0,0,0,2.669,1l.712,1.026L86.615,69.188a2.826,2.826,0,0,0,.557,2.613l3.373,3.913H85.892a1.144,1.144,0,0,0,0,2.286h32.256a2.92,2.92,0,0,0,2.859-2.971V73.146A3,3,0,0,0,119.6,70.593Zm-43.6,1.867v3.254H67.866a.682.682,0,0,1-.66-.686V73.145a.685.685,0,0,1,.66-.686ZM92.9,44.826h.07a13.591,13.591,0,0,0,4.152-.682h0l.017-.006h0c.114-.04.407-.131.852-.308v.538l-5.04,5.1-4.94-4.977v-.5A13.711,13.711,0,0,0,92.9,44.826Zm8.211,3.3-3.741,5.6a.4.4,0,0,1-.312.154c-.22,0-.109.135-2.581-2.768l4.664-4.719Zm-9.9,6.634,1.743-2L94.719,54.8l-.646.965H91.91Zm18.118-32.827v1.281a4.678,4.678,0,0,0-2.024-.4v-.883ZM107.3,29.1v-3.99a2.186,2.186,0,0,1,2.4,1.994A2.168,2.168,0,0,1,107.3,29.1Zm1.054-13.563H101.2V5.076A16.492,16.492,0,0,1,108.357,15.533ZM95.077,2.757c-.061.452-.02.4-.033,3.638a1.1,1.1,0,1,0,2.2,0V3.2A.88.88,0,1,1,99,3.171c0,.129,0,9.812,0,12.363h-1.76v-3.8a1.1,1.1,0,1,0-2.2,0v3.8H90.718c-.027-11.893.043-12.27-.033-12.8A22.652,22.652,0,0,1,95.077,2.757Zm-6.571.291c.021.127.011,8.794.013,12.485h-1.76c0-3.5,0-12.409,0-12.415A.881.881,0,0,1,88.505,3.048ZM84.559,4.974V15.533H77.241A16.522,16.522,0,0,1,84.559,4.974ZM73.443,18.733a.9.9,0,0,1,.88-.914h37.116a.915.915,0,0,1,0,1.829H74.323A.9.9,0,0,1,73.443,18.733Zm4.852,3.2v.883a4.662,4.662,0,0,0-1.61.237v-1.12Zm-1.151,3.38a2.478,2.478,0,0,1,1.151-.207V29.1C75.873,29.229,74.927,26.3,77.144,25.313Zm4.628,10.122c-1.67-3.571-1.278-5.647-1.278-13.5H105.1c-.032,9.007.052,8.829-.262,10.447C102.865,43.312,87.708,46.982,81.773,35.435Zm5.074,11.06,4.581,4.615c-2.541,2.912-2.3,2.637-2.317,2.655a.4.4,0,0,1-.6-.039l-3.7-5.536Zm5.316,11.561h1.669l3.443,11.8h0c.129.441-.059.268-4.277,5.281L88.81,70.276C88.5,69.92,88.694,70.223,92.163,58.056Zm26.645,16.972a.682.682,0,0,1-.66.686h-8.141V72.459c8.691.006,8.126-.012,8.253.012a.689.689,0,0,1,.548.674Z" transform="translate(0 0)"/><path d="M301.687,407.474a1.173,1.173,0,1,0,0,2.345h4.378a1.173,1.173,0,0,0,0-2.345Z" transform="translate(-201.272 -345.448)"/></g></g></svg>