<svg xmlns="http://www.w3.org/2000/svg" width="121" height="121" viewBox="0 0 121 121"><g transform="translate(-313.615 -7096)"><circle cx="60.5" cy="60.5" r="60.5" transform="translate(313.615 7096)" fill="#fff"/><path d="M60.5,5a55.218,55.218,0,0,0-31.027,9.476A55.677,55.677,0,0,0,9.359,38.9a55.42,55.42,0,0,0,5.116,52.629A55.677,55.677,0,0,0,38.9,111.641a55.42,55.42,0,0,0,52.629-5.116A55.676,55.676,0,0,0,111.641,82.1a55.42,55.42,0,0,0-5.116-52.629A55.676,55.676,0,0,0,82.1,9.359,55.148,55.148,0,0,0,60.5,5m0-5A60.5,60.5,0,1,1,0,60.5,60.5,60.5,0,0,1,60.5,0Z" transform="translate(313.615 7096)" fill="#ced371"/><g transform="translate(342.615 7125)"><path d="M49,48h6v5H49Z" fill="#eeb8ab"/><path d="M51,50a3.235,3.235,0,0,1-2-.7V53h6V49.3a3.235,3.235,0,0,1-2,.7Z" fill="#ffe1d3"/><path d="M9,48h6v5H9Z" fill="#eeb8ab"/><path d="M11,50a3.235,3.235,0,0,1-2-.7V53h6V49.3a3.235,3.235,0,0,1-2,.7Z" fill="#ffe1d3"/><path d="M20,40H44V63H20Z" fill="#893b1b"/><path d="M44,41H23V56a4,4,0,0,0,4,4H44Z" fill="#a44b2f"/><path d="M39,40V34l2.125,2.125a2.988,2.988,0,0,0,3.544.51l8.911-4.86A2.725,2.725,0,0,0,55,29.382,2.383,2.383,0,0,0,51.46,27.3L43,32l-1.934-4.837c-.043-.109-.091-.215-.144-.32A4.211,4.211,0,0,0,37.979,24.6L35,24H29l-4.119,1.03A5.123,5.123,0,0,0,21,30V40" fill="#b4b4b4"/><path d="M52.618,27a2.382,2.382,0,0,0-1.158.3L43,32l-1.934-4.837c-.043-.109-.091-.215-.144-.32A4.211,4.211,0,0,0,37.979,24.6L35,24H29l-4.119,1.03a5.159,5.159,0,0,0-.554.189A5.1,5.1,0,0,0,24,27v7a3,3,0,0,0,3,3H39V34l2.125,2.125a2.988,2.988,0,0,0,3.544.51l8.911-4.86A2.725,2.725,0,0,0,55,29.382,2.383,2.383,0,0,0,52.618,27Z" fill="#c8c8c8"/><path d="M35,28l3.3-3.3c-.109-.031-.209-.081-.321-.1L35,24l-3,1Z" fill="#b4b4b4"/><path d="M32,25l-3-1-3.2.8L29,28Z" fill="#b4b4b4"/><path d="M34.2,27.2,33,29H31l-1.2-1.8L32,25Z" fill="#e66967"/><path d="M29,21.2V24l3,1,3-1V21.2Z" fill="#eeb8ab"/><path d="M24,12.05V7a5,5,0,0,1,5-5h5a3,3,0,0,1,3,3,3,3,0,0,1,3,3v4.05" fill="#3f4042"/><path d="M40,8a3,3,0,0,0-3-3,3,3,0,0,0-3-3H29a4.967,4.967,0,0,0-2.876.92A4.993,4.993,0,0,0,26,4a5.05,5.05,0,0,0,5.05,5.05H40Z" fill="#5a5b5d"/><path d="M38,11v5a6,6,0,0,1-12,0V11h3.394A6.738,6.738,0,0,0,35,8Z" fill="#eeb8ab"/><path d="M26,12H24.5a2.5,2.5,0,0,0,0,5h1.583" fill="#eeb8ab"/><path d="M38,12h1.5a2.5,2.5,0,0,1,0,5H37.917" fill="#eeb8ab"/><path d="M34,40,33,29H31L30,40Z" fill="#e66967"/><path d="M32.5,21.975A6,6,0,0,0,38,16V11L35,8a6.738,6.738,0,0,1-5.606,3H27v5A6,6,0,0,0,32.5,21.975Z" fill="#ffe1d3"/><path d="M35,22.191a5.943,5.943,0,0,1-5,.46V24l2.5.833L35,24Z" fill="#ffe1d3"/><path d="M32,29,31,40h3L33,29Z" fill="#ee8382"/><path d="M24,32h2v8H24Z" fill="#959595"/><path d="M11,49a3.236,3.236,0,0,1-2.894-1.789L7.85,46.7A8.052,8.052,0,0,1,7,43.1V40.581A3.582,3.582,0,0,1,10.581,37h2.838A3.582,3.582,0,0,1,17,40.581V43.1a8.052,8.052,0,0,1-.85,3.6l-.255.511A3.238,3.238,0,0,1,13,49Z" fill="#893b1b"/><path d="M29,48h6v5H29Z" fill="#eeb8ab"/><path d="M48,7H60a2,2,0,0,1,2,2v8a2,2,0,0,1-2,2H54l-6,5,1-5H48a2,2,0,0,1-2-2V9A2,2,0,0,1,48,7Z" fill="#6ac4e8"/><path d="M60,7H48v7a3,3,0,0,0,3,3H62V9A2,2,0,0,0,60,7Z" fill="#8edff8"/><path d="M57,14h2v2H57Z" fill="#fff"/><path d="M53,14h2v2H53Z" fill="#fff"/><path d="M49,14h2v2H49Z" fill="#fff"/><path d="M52.618,27a2.382,2.382,0,0,0-1.158.3L49.289,28.5l2.444,4.277,1.847-1.007A2.725,2.725,0,0,0,55,29.382,2.383,2.383,0,0,0,52.618,27Z" fill="#ffe1d3"/><path d="M14.551,37.184A3.569,3.569,0,0,0,13.419,37H10.581a3.576,3.576,0,0,0-2.539,1.058A3.481,3.481,0,0,0,8,38.581V41.1a8.052,8.052,0,0,0,.85,3.6l.255.511A3.238,3.238,0,0,0,12,47h2a3.229,3.229,0,0,0,2.546-1.251A8.061,8.061,0,0,0,17,43.1V40.581a3.58,3.58,0,0,0-2.449-3.4Z" fill="#a44b2f"/><path d="M31,49a3.236,3.236,0,0,1-2.894-1.789L27.85,46.7A8.052,8.052,0,0,1,27,43.1V40.581A3.582,3.582,0,0,1,30.581,37h2.838A3.582,3.582,0,0,1,37,40.581V43.1a8.052,8.052,0,0,1-.85,3.6l-.255.511A3.238,3.238,0,0,1,33,49Z" fill="#3f4042"/><path d="M51,49a3.236,3.236,0,0,1-2.894-1.789L47.85,46.7A8.052,8.052,0,0,1,47,43.1V40.581A3.582,3.582,0,0,1,50.581,37h2.838A3.582,3.582,0,0,1,57,40.581V43.1a8.052,8.052,0,0,1-.85,3.6l-.255.511A3.238,3.238,0,0,1,53,49Z" fill="#c99728"/><path d="M54.551,37.184A3.569,3.569,0,0,0,53.419,37H50.581a3.576,3.576,0,0,0-2.539,1.058,3.481,3.481,0,0,0-.042.523V41.1a8.052,8.052,0,0,0,.85,3.6l.255.511A3.238,3.238,0,0,0,52,47h2a3.229,3.229,0,0,0,2.546-1.251A8.061,8.061,0,0,0,57,43.1V40.581a3.58,3.58,0,0,0-2.449-3.4Z" fill="#e7b532"/><path d="M34.551,37.184A3.569,3.569,0,0,0,33.419,37H30.581a3.576,3.576,0,0,0-2.539,1.058,3.481,3.481,0,0,0-.042.523V41.1a8.052,8.052,0,0,0,.85,3.6l.255.511A3.238,3.238,0,0,0,32,47h2a3.229,3.229,0,0,0,2.546-1.251A8.061,8.061,0,0,0,37,43.1V40.581a3.58,3.58,0,0,0-2.449-3.4Z" fill="#5a5b5d"/><path d="M4,63V56a3,3,0,0,1,3-3H17a3,3,0,0,1,3,3v7" fill="#6bb566"/><path d="M10,60H20V56a3,3,0,0,0-3-3H7v4A3,3,0,0,0,10,60Z" fill="#89c683"/><path d="M24,63V56a3,3,0,0,1,3-3H37a3,3,0,0,1,3,3v7" fill="#6bb566"/><path d="M30,60H40V56a3,3,0,0,0-3-3H27v4A3,3,0,0,0,30,60Z" fill="#89c683"/><path d="M44,63V56a3,3,0,0,1,3-3H57a3,3,0,0,1,3,3v7" fill="#6bb566"/><path d="M50,60H60V56a3,3,0,0,0-3-3H47v4A3,3,0,0,0,50,60Z" fill="#89c683"/><path d="M31,50a3.235,3.235,0,0,1-2-.7V53h6V49.3a3.235,3.235,0,0,1-2,.7Z" fill="#ffe1d3"/><path d="M16,2H4A2,2,0,0,0,2,4v8a2,2,0,0,0,2,2h6l6,5-1-5h1a2,2,0,0,0,2-2V4A2,2,0,0,0,16,2Z" fill="#6ac4e8"/><path d="M16,2H4V9a3,3,0,0,0,3,3H18V4A2,2,0,0,0,16,2Z" fill="#8edff8"/><path d="M5,9H7v2H5Z" fill="#fff"/><path d="M9,9h2v2H9Z" fill="#fff"/><path d="M13,9h2v2H13Z" fill="#fff"/><path d="M19,52.556A3.959,3.959,0,0,0,17,52H16V48.747a4.249,4.249,0,0,0,.789-1.089l.255-.511A9.1,9.1,0,0,0,18,43.1V40.581A4.581,4.581,0,0,0,13.419,36H10.581A4.58,4.58,0,0,0,6,40.581V43.1a9.1,9.1,0,0,0,.956,4.048l.255.511A4.232,4.232,0,0,0,8,48.747V52H7a4,4,0,0,0-4,4v7H5V56a2,2,0,0,1,2-2H17a2,2,0,0,1,2,2v7h2V41h5v2.1a9.1,9.1,0,0,0,.956,4.048l.255.511A4.249,4.249,0,0,0,28,48.747V52H27a4,4,0,0,0-4,4v7h2V56a2,2,0,0,1,2-2H37a2,2,0,0,1,2,2v7h2V56a4,4,0,0,0-4-4H36V48.747a4.249,4.249,0,0,0,.789-1.089l.255-.511A9.1,9.1,0,0,0,38,43.1V41h5V63h2V56a2,2,0,0,1,2-2H57a2,2,0,0,1,2,2v7h2V56a4,4,0,0,0-4-4H56V48.747a4.249,4.249,0,0,0,.789-1.089l.255-.511A9.1,9.1,0,0,0,58,43.1V40.581A4.581,4.581,0,0,0,53.419,36H50.581A4.58,4.58,0,0,0,46,40.581V43.1a9.1,9.1,0,0,0,.956,4.048l.255.511A4.249,4.249,0,0,0,48,48.747V52H47a3.959,3.959,0,0,0-2,.556V40a1,1,0,0,0-1-1H40V36.414l.417.417a4.062,4.062,0,0,0,4.73.682l8.911-4.86A3.724,3.724,0,0,0,56,29.382a3.383,3.383,0,0,0-5.026-2.957l-7.468,4.149L42,26.8c-.054-.135-.113-.268-.179-.4a5.18,5.18,0,0,0-3.64-2.78L36,23.18V21.736A7.02,7.02,0,0,0,38.705,18H39.5A3.492,3.492,0,0,0,41,11.351V8a4.007,4.007,0,0,0-3.1-3.9A4.007,4.007,0,0,0,34,1H29a6.006,6.006,0,0,0-6,6v4.351A3.492,3.492,0,0,0,24.5,18h.8A7.016,7.016,0,0,0,28,21.736v1.483l-3.362.84A6.117,6.117,0,0,0,20,30v9a1,1,0,0,0-1,1ZM8,40.581A2.58,2.58,0,0,1,10.581,38h2.838A2.58,2.58,0,0,1,16,40.581V43.1a7.077,7.077,0,0,1-.745,3.154L15,46.764A2.224,2.224,0,0,1,13,48H11a2.224,2.224,0,0,1-2-1.236l-.255-.511A7.077,7.077,0,0,1,8,43.1Zm2,9.292A4.254,4.254,0,0,0,11,50h2a4.254,4.254,0,0,0,1-.127V52H10Zm38-9.292A2.58,2.58,0,0,1,50.581,38h2.838A2.58,2.58,0,0,1,56,40.581V43.1a7.077,7.077,0,0,1-.745,3.154L55,46.764A2.224,2.224,0,0,1,53,48H51a2.224,2.224,0,0,1-2-1.236l-.255-.511A7.077,7.077,0,0,1,48,43.1Zm2,9.292A4.254,4.254,0,0,0,51,50h2a4.254,4.254,0,0,0,1-.127V52H50ZM34,52H30V49.873A4.254,4.254,0,0,0,31,50h2a4.254,4.254,0,0,0,1-.127Zm2-8.9a7.077,7.077,0,0,1-.745,3.154L35,46.764A2.224,2.224,0,0,1,33,48H31a2.224,2.224,0,0,1-2-1.236l-.255-.511A7.077,7.077,0,0,1,28,43.1V40.581A2.58,2.58,0,0,1,30.581,38h2.838A2.58,2.58,0,0,1,36,40.581ZM28.96,25.041l1.189.4L29,26.586l-1.244-1.244Zm6.1-.008,1.241.248L35,26.586l-1.149-1.149ZM31.913,30h.173l.545,6H31.367ZM32,26.414l.913.913L32.465,28h-.93l-.449-.673Zm19.946,1.759A1.383,1.383,0,0,1,54,29.382a1.726,1.726,0,0,1-.9,1.515l-.986.538-1.456-2.547Zm-11.92-.885c.039.08.076.16.11.246l1.934,4.837a1,1,0,0,0,.594.571,1.012,1.012,0,0,0,.821-.068l5.426-3.015,1.448,2.533-6.168,3.365a2.023,2.023,0,0,1-2.359-.34l-2.125-2.125A1,1,0,0,0,38,34v5h-.291a4.567,4.567,0,0,0-2.842-2.765c-.069-.023-.14-.032-.21-.052l-.629-6.922.337-.506a.973.973,0,0,0,1.342-.048l2.858-2.858a3.191,3.191,0,0,1,1.461,1.439ZM39.5,16H39V13h.5a1.5,1.5,0,0,1,0,3ZM25,7a4,4,0,0,1,4-4h5a2,2,0,0,1,2,2,1,1,0,0,0,1,1,2,2,0,0,1,2,2v3a1,1,0,0,0-.293-.707l-3-3a1,1,0,0,0-1.539.152A5.724,5.724,0,0,1,29.4,10H26a1,1,0,0,0-1,1Zm-.5,9a1.5,1.5,0,0,1,0-3H25v3ZM27,16V12h2.4a7.718,7.718,0,0,0,5.694-2.5L37,11.414V16a5,5,0,0,1-10,0Zm5,7a6.956,6.956,0,0,0,2-.3v.574l-2,.667-2-.667V22.7A6.956,6.956,0,0,0,32,23ZM22,30a4.117,4.117,0,0,1,3.123-4l.37-.093,2.8,2.8a.973.973,0,0,0,1.342.048l.337.506-.629,6.922c-.07.02-.141.029-.21.052A4.568,4.568,0,0,0,26.292,39H26V32H24v7H22Z"/><path d="M4,15H9.638l5.722,4.768a1,1,0,0,0,1.62-.965l-.762-3.812A3,3,0,0,0,19,12V4a3,3,0,0,0-3-3H4A3,3,0,0,0,1,4v8a3,3,0,0,0,3,3ZM3,4A1,1,0,0,1,4,3H16a1,1,0,0,1,1,1v8a1,1,0,0,1-1,1H15a1,1,0,0,0-.98,1.2l.444,2.222L10.64,13.232A1,1,0,0,0,10,13H4a1,1,0,0,1-1-1Z"/><path d="M5,9H7v2H5Z"/><path d="M9,9h2v2H9Z"/><path d="M13,9h2v2H13Z"/><path d="M60,6H48a3,3,0,0,0-3,3v8a3,3,0,0,0,2.782,2.992L47.02,23.8a1,1,0,0,0,1.62.964L54.362,20H60a3,3,0,0,0,3-3V9a3,3,0,0,0-3-3Zm1,11a1,1,0,0,1-1,1H54a1,1,0,0,0-.64.232l-3.824,3.186L49.98,19.2A1,1,0,0,0,49,18H48a1,1,0,0,1-1-1V9a1,1,0,0,1,1-1H60a1,1,0,0,1,1,1Z"/><path d="M57,14h2v2H57Z"/><path d="M53,14h2v2H53Z"/><path d="M49,14h2v2H49Z"/></g></g></svg>