<svg xmlns="http://www.w3.org/2000/svg" width="85" height="85" viewBox="0 0 85 85"><g transform="translate(-810.424 -9179)"><circle cx="42.5" cy="42.5" r="42.5" transform="translate(810.424 9179)" fill="#ced371"/><g transform="translate(832.423 9201)"><g transform="translate(26.142 7.648)"><path d="M331.079,119.69l3.429,1.815,3.429-1.815V95.577l-7.057-.995-7.6.995V99.4C332.895,108.454,327.233,112.069,331.079,119.69Z" transform="translate(-323.284 -94.582)" fill="#f9f6f6" fill-rule="evenodd"/></g><g transform="translate(26.142 0.606)"><path d="M323.285,15.536h14.653v-.711a7.327,7.327,0,0,0-14.653,0v.711Z" transform="translate(-323.285 -7.5)" fill="#ff8086" fill-rule="evenodd"/></g><g transform="translate(32.115 0.606)"><path d="M397.155,7.626a7.354,7.354,0,0,1,5.971,7.2v.711h2.709v-.711a7.327,7.327,0,0,0-8.68-7.2Z" transform="translate(-397.155 -7.5)" fill="#e5646e" fill-rule="evenodd"/></g><g transform="translate(38.086 8.643)"><path d="M470.995,106.883V131H473.7V106.883Z" transform="translate(-470.995 -106.883)" fill="#dddaec" fill-rule="evenodd"/></g><g transform="translate(33.527 32.756)"><path d="M414.616,413.127h6.823a.445.445,0,0,0,.445-.445v-7.594h-6.858v7.628A.411.411,0,0,1,414.616,413.127Z" transform="translate(-414.616 -405.089)" fill="#ff8086" fill-rule="evenodd"/></g><g transform="translate(37.641 32.756)"><path d="M465.941,405.089v7.594a.445.445,0,0,1-.445.445h2.709a.445.445,0,0,0,.445-.445v-7.594Z" transform="translate(-465.496 -405.089)" fill="#e5646e" fill-rule="evenodd"/></g><g transform="translate(3.883 10.644)"><path d="M78.074,158.906V144.321L74.1,138.03a2.482,2.482,0,0,0-1.433-1.357l-2.393-1.263-6.743-3.56c-.557-.293-.419-.293-.976,0l-9.136,4.823a2.482,2.482,0,0,0-1.433,1.357l-3.97,6.292v14.585l15.027,2.874Z" transform="translate(-48.02 -131.63)" fill="#ff8086" fill-rule="evenodd"/></g><g transform="translate(15.362 15.684)"><path d="M193.523,201.064a3.551,3.551,0,1,0-3.548-3.551A3.55,3.55,0,0,0,193.523,201.064Z" transform="translate(-189.975 -193.963)" fill="#365e7d" fill-rule="evenodd"/></g><g transform="translate(9.822 25.506)"><path d="M123.606,318.192h15.52a.518.518,0,0,0,.516-.516v-1.733a.518.518,0,0,0-.516-.516H121.979a.517.517,0,0,0-.516.516v1.733a.517.517,0,0,0,.516.516Z" transform="translate(-121.463 -315.428)" fill="#f9f6f6" fill-rule="evenodd"/></g><g transform="translate(3.883 37.92)"><path d="M48.43,471.827H60.145v-2.874H48.02v2.464A.411.411,0,0,0,48.43,471.827Z" transform="translate(-48.02 -468.953)" fill="#f9f6f6" fill-rule="evenodd"/></g><g transform="translate(20.198 37.92)"><path d="M250.069,471.827h13.044a.411.411,0,0,0,.41-.41v-2.464H249.785v2.874Z" transform="translate(-249.785 -468.953)" fill="#f9f6f6" fill-rule="evenodd"/></g><g transform="translate(17.455 15.684)"><path d="M217.309,201.064a3.551,3.551,0,1,0-1.455-6.789,3.551,3.551,0,0,1,0,6.478,3.55,3.55,0,0,0,1.455.312Z" transform="translate(-215.854 -193.963)" fill="#2b4d66" fill-rule="evenodd"/></g><g transform="translate(25.216 25.506)"><path d="M311.834,318.192H314.1a.518.518,0,0,0,.516-.516v-1.733a.518.518,0,0,0-.516-.516h-2.269a.517.517,0,0,1,.516.516v1.733A.517.517,0,0,1,311.834,318.192Z" transform="translate(-311.834 -315.428)" fill="#dddaec" fill-rule="evenodd"/></g><g transform="translate(3.883 11.451)"><path d="M54.992,148.389l7.566-4.208c.557-.293.419-.293.976,0l8.052,4c.958.507.944.761,1.508,1.632l2.592,3.986a5.512,5.512,0,0,1,.4,3v11.277h1.985V154.305l-3.97-6.29a2.482,2.482,0,0,0-1.433-1.357L70.278,145.4l-6.743-3.56c-.557-.3-.419-.3-.976,0l-9.136,4.823a2.482,2.482,0,0,0-1.433,1.357l-3.97,6.29v3.459l5.3-7.7A3.753,3.753,0,0,1,54.992,148.389Z" transform="translate(-48.02 -141.614)" fill="#e5646e" fill-rule="evenodd"/></g><g transform="translate(11.965 28.27)"><path d="M154.912,355.876l6.947-6.262H147.967Z" transform="translate(-147.967 -349.614)" fill="#d09080" fill-rule="evenodd"/></g><g transform="translate(11.965 28.27)"><path d="M151.155,359.264l3.757-3.388-6.945-6.262v12.524Z" transform="translate(-147.967 -349.614)" fill="#d09080" fill-rule="evenodd"/></g><g transform="translate(11.965 34.532)"><path d="M147.967,433.319h13.892l-3.188-2.874-3.759-3.388-3.757,3.388Z" transform="translate(-147.967 -427.057)" fill="#d09080" fill-rule="evenodd"/></g><g transform="translate(18.91 28.27)"><path d="M237.613,359.264l3.188,2.874V349.614l-6.947,6.262Z" transform="translate(-233.854 -349.614)" fill="#d09080" fill-rule="evenodd"/></g><g transform="translate(11.965 28.27)"><path d="M147.967,352.651h3.367l-3.367-3.037Z" transform="translate(-147.967 -349.614)" fill="#ce775f" fill-rule="evenodd"/></g><g transform="translate(11.965 28.27)"><path d="M151.334,352.651h7.158l3.367-3.037H147.967Z" transform="translate(-147.967 -349.614)" fill="#ce775f" fill-rule="evenodd"/></g><g transform="translate(22.491 28.27)"><path d="M278.131,352.651H281.5v-3.037Z" transform="translate(-278.131 -349.614)" fill="#ce775f" fill-rule="evenodd"/></g><g transform="translate(0.608 8.705)"><path d="M16.191,115.446l9.136-4.823c.557-.3.419-.3.976,0l6.743,3.56,2.393,1.263a2.482,2.482,0,0,1,1.433,1.357l3.97,6.29.834,1.323a1.362,1.362,0,0,0,1.772.447,1.207,1.207,0,0,0,.662-1.194,1.1,1.1,0,0,0-.16-.454l-5.082-8.048c-.584-.926-.438-.912-1.449-1.444l-4.373-2.31L26.769,108.1c-1.116-.589-.791-.589-1.907,0L14.21,113.722c-1.011.532-.864.518-1.449,1.444l-5.079,8.048a1.082,1.082,0,0,0-.17.555v.055a1.222,1.222,0,0,0,.672,1.038,1.359,1.359,0,0,0,1.769-.447l.834-1.323,3.97-6.29a2.482,2.482,0,0,1,1.433-1.357Z" transform="translate(-7.513 -107.655)" fill="#ffe07d" fill-rule="evenodd"/></g><g transform="translate(31.542 37.92)"><path d="M390.068,471.827h1.985a.411.411,0,0,0,.41-.41v-2.464h-1.985v2.464A.411.411,0,0,1,390.068,471.827Z" transform="translate(-390.068 -468.953)" fill="#dddaec" fill-rule="evenodd"/></g><g transform="translate(0.001)"><path d="M33.47,0a7.942,7.942,0,0,0-7.934,7.932v3.524L20.147,8.611c-.141-.074-.258-.139-.358-.194a1.368,1.368,0,0,0-1.757,0c-.1.055-.217.12-.358.194L7.023,14.235a2.662,2.662,0,0,0-1.446,1.276c-.064.106-5.312,8.428-5.312,8.428A1.689,1.689,0,0,0,.06,25.292,1.863,1.863,0,0,0,1,26.448a1.978,1.978,0,0,0,.927.23,1.953,1.953,0,0,0,1.354-.541V31.4a.606.606,0,1,0,1.213,0V24.318L8.5,17.956a2.455,2.455,0,0,1,.364-.511,4.154,4.154,0,0,1,.7-.413l9.137-4.823.169-.092.035-.019.035.019.171.092s9.557,5.047,9.674,5.119a1.185,1.185,0,0,1,.162.116,2.458,2.458,0,0,1,.364.511l4.015,6.362v13H26.464V28.877h1.021a1.123,1.123,0,0,0,1.122-1.122V26.022A1.123,1.123,0,0,0,27.485,24.9H20.6a.606.606,0,1,0,0,1.213h6.792v1.551H10.429V26.112H17.8a.606.606,0,0,0,0-1.213H10.338a1.123,1.123,0,0,0-1.122,1.122v1.733a1.123,1.123,0,0,0,1.122,1.122h1.021v8.437H4.49V34.2a.606.606,0,1,0-1.213,0v6.189A1.018,1.018,0,0,0,4.294,41.4H40.35A1.052,1.052,0,0,0,41.4,40.35V7.932A7.941,7.941,0,0,0,33.47,0ZM11.359,40.188H4.49V38.527h6.869v1.661Zm12.92-11.311-5.368,4.839-5.368-4.839Zm-11.707.757,5.434,4.9-5.434,4.9Zm.972,10.555,5.368-4.839,5.368,4.839Zm11.707-.757-5.434-4.9,5.434-4.9Zm8.08.757H26.464V38.527h6.867Zm4.322-16.077a1.755,1.755,0,0,0-.094-.171l-4.2-6.652h6.831v6.823ZM26.748,7.932a6.72,6.72,0,0,1,13.44,0v.1H26.748Zm0,1.317h13.44v6.826h-7.6s-.285-.457-.349-.563A2.661,2.661,0,0,0,30.8,14.236L26.748,12.1V9.249Zm7.7,14.569-4.106-6.506A2.472,2.472,0,0,0,29.27,16.2c-.042-.024-9.587-5.068-9.587-5.068l-.155-.084a.969.969,0,0,0-.976-.127l-.009,0c-.05.021-.1.046-.158.074l-.092.049-.154.083L9,15.96a2.813,2.813,0,0,0-1.526,1.353L3.371,23.819l0,0-.832,1.319a.759.759,0,0,1-.973.234.647.647,0,0,1-.331-.4.483.483,0,0,1,.059-.392s5.259-8.339,5.326-8.451c.279-.464.279-.464.972-.828L18.24,9.683c.149-.078.272-.147.378-.2s.226-.125.293-.155c.066.03.181.093.293.155s.229.126.378.2l10.651,5.625h0c.692.364.692.364.971.828.067.112.147.244.247.4l5.081,8.046a.487.487,0,0,1,.058.393.648.648,0,0,1-.329.4.754.754,0,0,1-.976-.234l-.832-1.319,0,0Zm5.739,16.37H34.543V33.362h5.645Zm-5.645-8.038V26.134a1.977,1.977,0,0,0,2.283.313,1.866,1.866,0,0,0,.925-1.124h2.437V32.15H34.543Z" transform="translate(-0.001)"/><path d="M190.786,190.621a4.156,4.156,0,1,0-4.157,4.157A4.162,4.162,0,0,0,190.786,190.621Zm-7.1,0a2.943,2.943,0,1,1,2.942,2.944A2.946,2.946,0,0,1,183.688,190.621Z" transform="translate(-167.72 -171.386)"/></g></g></g></svg>