<svg xmlns="http://www.w3.org/2000/svg" xmlns:xlink="http://www.w3.org/1999/xlink" width="169" height="169" viewBox="0 0 169 169"><defs><filter id="a" x="0" y="0" width="169" height="169" filterUnits="userSpaceOnUse"><feOffset dy="6" input="SourceAlpha"/><feGaussianBlur stdDeviation="5" result="b"/><feFlood flood-opacity="0.329"/><feComposite operator="in" in2="b"/><feComposite in="SourceGraphic"/></filter></defs><g transform="translate(-11277.007 8678.701)"><g transform="matrix(1, 0, 0, 1, 11277.01, -8678.7)" filter="url(#a)"><circle cx="69.5" cy="69.5" r="69.5" transform="translate(15 9)" fill="#ffb500"/></g><g transform="translate(11329.707 -8632.199)"><path d="M16.3,31.5h3v23h-3Z" fill="#5a6c75"/><path d="M37.8,13.5h3v29h-3Z" fill="#5a6c75"/><path d="M20.41,59.5H15.19a1,1,0,0,1-.95-1.32l1.33-4a1,1,0,0,1,.95-.68h2.56a1,1,0,0,1,1,.68l1.33,4a1,1,0,0,1-1,1.32Z" fill="#3f4c51"/><path d="M41.91,8.5H36.69a1,1,0,0,0-.95,1.32l1.33,4a1,1,0,0,0,1,.68h2.56a1,1,0,0,0,1-.68l1.33-4A1,1,0,0,0,41.91,8.5Z" fill="#3f4c51"/><path d="M28.3,30.5H7.3a1,1,0,0,1-1-1V22.36C6.3,6.93,17.8,3.5,17.8,3.5S29.3,6.93,29.3,22.36V29.5A1,1,0,0,1,28.3,30.5Z" fill="#cde7f9"/><path d="M52.3,43.5h-26a1,1,0,0,0-1,1v4l13,2.79a8.8,8.8,0,0,0,1.92,0l13-2.79v-4A1,1,0,0,0,52.3,43.5Z" fill="#5a6c75"/><path d="M17.8,23.5A4.5,4.5,0,0,1,22.3,28v5.5a1,1,0,0,1-1,1h-7a1,1,0,0,1-1-1V28A4.5,4.5,0,0,1,17.8,23.5Z" fill="#3f4c51"/><rect width="9" height="7" rx="1" transform="translate(34.8 39.5)" fill="#3f4c51"/><circle cx="2" cy="2" r="2" transform="translate(8.8 49.5)" fill="#ffa726"/><path d="M29.7,9.19s-.89-3-2-3-2,3-2,3-3,.9-3,2,3,2,3,2,.9,3,2,3,2-3,2-3,3-.9,3-2-3-2-3-2Z" fill="#ffa726"/><path d="M54.7,39.19s-.89-3-2-3-2,3-2,3-3,.9-3,2,3,2,3,2,.9,3,2,3,2-3,2-3,3-.9,3-2S54.7,39.19,54.7,39.19Z" fill="#ffa726"/><path d="M29.3,31.5a1,1,0,0,0,1-1V22.36a26.67,26.67,0,0,0-.75-6.4,8.76,8.76,0,0,0,.95-2c1.38-.47,3.2-1.37,3.2-2.79s-1.82-2.33-3.2-2.8C30,7,29.13,5.19,27.7,5.19c-1.13,0-1.92,1.14-2.44,2.3a26.2,26.2,0,0,0-7.17-4.95,1,1,0,0,0-.58,0C17.39,2.57,5.3,6.37,5.3,22.36V30.5a1,1,0,0,0,1,1h6v3a1,1,0,0,0,1,1h2V52.92a2,2,0,0,0-.68.94l-1.33,4a2,2,0,0,0,1.9,2.64h5.22a2,2,0,0,0,1.9-2.64l-1.33-4a2.08,2.08,0,0,0-.68-.94V35.5h2a1,1,0,0,0,1-1v-3ZM27.7,7.27a7.17,7.17,0,0,1,1,2.2,1,1,0,0,0,.67.67,7,7,0,0,1,2.2,1,7.29,7.29,0,0,1-2.2,1,1,1,0,0,0-.67.67,7.17,7.17,0,0,1-1,2.2,7.17,7.17,0,0,1-1-2.2,1,1,0,0,0-.67-.67,7.29,7.29,0,0,1-2.2-1,7,7,0,0,1,2.2-1,1,1,0,0,0,.67-.67,7.17,7.17,0,0,1,1-2.2ZM7.3,29.5V22.36C7.3,9.07,16,5.2,17.79,4.55a16.76,16.76,0,0,1,6,4.29c-1.08.52-2.09,1.29-2.09,2.35,0,1.42,1.82,2.32,3.21,2.79.48,1.39,1.4,3.29,2.87,3.19a25.37,25.37,0,0,1,.52,5.19V29.5h-5V28a5.5,5.5,0,0,0-11,0v1.5Zm7.89,29,1.33-4h2.56l1.34,4Zm6.11-25h-2a1,1,0,0,0-1,1v18h-1v-18a1,1,0,0,0-1-1h-2V28a3.5,3.5,0,0,1,7,0Z"/><path d="M10.8,48.5a3,3,0,1,0,3,3,3,3,0,0,0-3-3Zm0,4a1,1,0,1,1,1-1A1,1,0,0,1,10.8,52.5Z"/><path d="M55.5,38.39c-.48-1.38-1.37-3.2-2.8-3.2s-2.32,1.82-2.79,3.2c-1.39.47-3.21,1.37-3.21,2.8a1.89,1.89,0,0,0,.59,1.31H44.8v-2a2,2,0,0,0-2-2h-1V15.07a2.08,2.08,0,0,0,.68-.94l1.33-4a2,2,0,0,0-1.9-2.63H36.69a2,2,0,0,0-1.9,2.63l1.33,4a2,2,0,0,0,.68.94V38.5h-1a2,2,0,0,0-2,2v2H28.3a4,4,0,0,0-4,4v13a1,1,0,0,0,2,0V49.73l5,1.07v8.7a1,1,0,0,0,2,0V51.23l5,1.07v7.2a1,1,0,0,0,2,0V52.3l5-1.07V59.5a1,1,0,0,0,2,0V50.8l5-1.07V59.5a1,1,0,0,0,2,0V46.28A7.78,7.78,0,0,0,55.5,44c1.38-.47,3.2-1.37,3.2-2.79S56.88,38.86,55.5,38.39ZM41.91,9.5l-1.33,4H38l-1.33-4Zm-6.11,31h2a1,1,0,0,0,1-1v-24h1v24a1,1,0,0,0,1,1h2v5h-7Zm3.5,10-13-2.78V46.5a2,2,0,0,1,2-2h5.5v1a2,2,0,0,0,2,2h7a2,2,0,0,0,2-2v-1h5.3c.45,1.13,1.17,2.36,2.2,2.62v.57Zm15.11-8.24a1,1,0,0,0-.67.67,7.17,7.17,0,0,1-1,2.2,7.17,7.17,0,0,1-1-2.2,1,1,0,0,0-.67-.67,7.29,7.29,0,0,1-2.2-1,7,7,0,0,1,2.2-1,1,1,0,0,0,.67-.67,7.17,7.17,0,0,1,1-2.2,7.17,7.17,0,0,1,1,2.2,1,1,0,0,0,.67.67,7,7,0,0,1,2.2,1,7.29,7.29,0,0,1-2.2.97Z"/></g></g></svg>