<svg xmlns="http://www.w3.org/2000/svg" width="121" height="121" viewBox="0 0 121 121"><g transform="translate(-739.615 -7096)"><circle cx="60.5" cy="60.5" r="60.5" transform="translate(739.615 7096)" fill="#fff"/><path d="M60.5,5a55.218,55.218,0,0,0-31.027,9.476A55.677,55.677,0,0,0,9.359,38.9a55.42,55.42,0,0,0,5.116,52.629A55.677,55.677,0,0,0,38.9,111.641a55.42,55.42,0,0,0,52.629-5.116A55.676,55.676,0,0,0,111.641,82.1a55.42,55.42,0,0,0-5.116-52.629A55.676,55.676,0,0,0,82.1,9.359,55.148,55.148,0,0,0,60.5,5m0-5A60.5,60.5,0,1,1,0,60.5,60.5,60.5,0,0,1,60.5,0Z" transform="translate(739.615 7096)" fill="#ced371"/><g transform="translate(763.641 7110.169)"><g transform="translate(1.104 12.957)"><g transform="translate(0 0)"><path d="M43.408,24.2,62.522,57.3a8.728,8.728,0,0,1-7.559,13.092H16.736A8.728,8.728,0,0,1,9.177,57.3L28.29,24.2a8.728,8.728,0,0,1,15.118,0Z" transform="translate(-7.998 -19.832)" fill="#fe646f" fill-rule="evenodd"/><path d="M206.563,24.2,225.677,57.3a8.728,8.728,0,0,1-7.559,13.092h-2.271A8.728,8.728,0,0,0,223.406,57.3L204.292,24.2a8.659,8.659,0,0,0-6.423-4.292A8.919,8.919,0,0,1,199,19.832,8.669,8.669,0,0,1,206.563,24.2Z" transform="translate(-171.153 -19.832)" fill="#fd4755" fill-rule="evenodd"/><path d="M67.255,54.259,86.369,87.365a4.178,4.178,0,0,1-3.619,6.268H44.524A4.178,4.178,0,0,1,40.9,87.365L60.019,54.259a4.178,4.178,0,0,1,7.237,0Z" transform="translate(-35.786 -47.62)" fill="#ffe177" fill-rule="evenodd"/><path d="M46.794,93.632H44.524a4.178,4.178,0,0,1-3.619-6.268L60.019,54.259a4.119,4.119,0,0,1,3.619-2.089,4.274,4.274,0,0,1,1.135.152,4.115,4.115,0,0,0-2.483,1.938L43.176,87.365a4.178,4.178,0,0,0,3.619,6.267Z" transform="translate(-35.786 -47.62)" fill="#ffd064" fill-rule="evenodd"/><path d="M191.342,145.676a2.39,2.39,0,1,1-2.39,2.39A2.39,2.39,0,0,1,191.342,145.676Zm0-2.5a1.866,1.866,0,0,1-1.864-1.8l-.472-13.06a1.866,1.866,0,0,1,1.864-1.933h.943a1.866,1.866,0,0,1,1.864,1.933l-.472,13.06A1.866,1.866,0,0,1,191.342,143.177Z" transform="translate(-163.491 -111.393)" fill="#fe646f" fill-rule="evenodd"/><path d="M202.471,145.675a2.39,2.39,0,1,1-.568,4.712,2.391,2.391,0,0,0,0-4.644A2.412,2.412,0,0,1,202.471,145.675Zm0-2.5a1.861,1.861,0,0,1-.568-.088,1.867,1.867,0,0,0,1.3-1.71l.472-13.06a1.866,1.866,0,0,0-1.768-1.931l.1,0h.943a1.866,1.866,0,0,1,1.864,1.933l-.472,13.06A1.866,1.866,0,0,1,202.471,143.176Z" transform="translate(-174.62 -111.392)" fill="#fd4755" fill-rule="evenodd"/></g><g transform="translate(23.592 21.574)"><path d="M378.683,366.042a14.233,14.233,0,0,1-2.4,2.645l6.532,6.4,2.487-2.563Z" transform="translate(-348.053 -338.903)" fill="#a79ba7" fill-rule="evenodd"/><path d="M389.324,365.729a1.641,1.641,0,0,1-.711.953l6.488,6.446.795-.871Z" transform="translate(-358.65 -338.634)" fill="#837683" fill-rule="evenodd"/><path d="M420.526,412.358l2.806-2.892a1.291,1.291,0,0,0-.027-1.819l-7.773-7.542a1.29,1.29,0,0,0-1.819.027l-2.806,2.892a1.291,1.291,0,0,0,.027,1.82l7.773,7.542A1.291,1.291,0,0,0,420.526,412.358Z" transform="translate(-377.496 -367.861)" fill="#f1ba84" fill-rule="evenodd"/><path d="M435.858,400.1l7.773,7.543a1.291,1.291,0,0,1,.027,1.819l-2.806,2.892a1.273,1.273,0,0,1-.349.255,1.292,1.292,0,0,0,1.5-.255l2.806-2.892a1.291,1.291,0,0,0-.027-1.819l-7.773-7.543a1.292,1.292,0,0,0-1.471-.227A1.275,1.275,0,0,1,435.858,400.1Z" transform="translate(-398.972 -367.861)" fill="#e3a76f" fill-rule="evenodd"/><circle cx="14.154" cy="14.154" r="14.154" transform="translate(0 20.014) rotate(-45)" fill="#8ac9fe"/><path d="M313.775,214.808a14.154,14.154,0,0,1,0,28.308q-.346,0-.687-.017a14.154,14.154,0,0,0,0-28.274C313.316,214.814,313.545,214.808,313.775,214.808Z" transform="translate(-293.752 -208.948)" fill="#60b7ff" fill-rule="evenodd"/><circle cx="10.163" cy="10.163" r="10.163" transform="matrix(0.305, -0.952, 0.952, 0.305, 7.227, 26.595)" fill="#eceff1"/><path d="M255.9,243.17c.231,0,.46.008.687.024a10.163,10.163,0,0,0,0,20.28c-.227.015-.456.024-.687.024a10.163,10.163,0,1,1,0-20.327Z" transform="translate(-235.879 -233.32)" fill="#d1d1d6" fill-rule="evenodd"/></g></g><path d="M44.721,63.468a8.923,8.923,0,1,1,8.923-8.923A8.933,8.933,0,0,1,44.721,63.468Zm0-20.1A11.175,11.175,0,1,0,55.9,54.545,11.188,11.188,0,0,0,44.721,43.37ZM69.727,75.352,66.92,78.244a.166.166,0,0,1-.228,0L58.92,70.705a.155.155,0,0,1-.047-.113.152.152,0,0,1,.043-.115l2.806-2.892a.168.168,0,0,1,.114-.048h0a.158.158,0,0,1,.111.044l7.773,7.544a.165.165,0,0,1,0,.228ZM31.693,54.545A13.028,13.028,0,1,0,44.721,41.517,13.042,13.042,0,0,0,31.693,54.545Zm-.307-7.455A15.316,15.316,0,0,1,42.711,39.4L31.6,20.159a3.053,3.053,0,0,0-5.288,0L7.2,53.265a3.052,3.052,0,0,0,2.644,4.578H29.8a15.252,15.252,0,0,1-.359-3.3c0-.487.024-.968.069-1.444a3.61,3.61,0,0,1-.553.044,3.516,3.516,0,1,1,2.429-6.055Zm-2.429,3.8a1.264,1.264,0,1,1,1.265-1.263A1.265,1.265,0,0,1,28.958,50.893ZM9.844,62.393H31.616a15.318,15.318,0,0,1-1.131-2.3H9.844A5.3,5.3,0,0,1,5.25,52.139L24.364,19.033a5.3,5.3,0,0,1,9.187,0L45.237,39.275a15.168,15.168,0,0,1,2.868.369L35.542,17.884a7.6,7.6,0,0,0-13.167,0L3.259,50.99a7.6,7.6,0,0,0,6.585,11.4Zm49.421,4.491-.919.947-2.7-2.618q.462-.473.882-.982Zm12.026,6.624-7.774-7.543a2.4,2.4,0,0,0-1.715-.68,2.433,2.433,0,0,0-.8.149l-3.163-3.069a15.269,15.269,0,0,0-6.478-21.58L37.492,16.759a9.853,9.853,0,0,0-17.067,0L1.311,49.864A9.854,9.854,0,0,0,9.844,64.645H33.267a15.253,15.253,0,0,0,20.691,2.064l2.908,2.823a2.425,2.425,0,0,0-.244,1.095,2.4,2.4,0,0,0,.73,1.694l7.773,7.543a2.416,2.416,0,0,0,3.411-.051h0l2.805-2.892a2.415,2.415,0,0,0-.051-3.411ZM29.7,42.9a.741.741,0,0,1-1.48,0l-.471-13.061a.738.738,0,0,1,.74-.765h.943a.737.737,0,0,1,.74.765Zm-.269-16.077a2.994,2.994,0,0,1,2.991,3.1l-.473,13.061a2.991,2.991,0,0,1-5.979,0L25.5,29.923a2.992,2.992,0,0,1,2.99-3.1Z" transform="translate(0)" fill-rule="evenodd"/></g></g></svg>