<svg xmlns="http://www.w3.org/2000/svg" xmlns:xlink="http://www.w3.org/1999/xlink" width="169" height="169" viewBox="0 0 169 169"><defs><filter id="a" x="0" y="0" width="169" height="169" filterUnits="userSpaceOnUse"><feOffset dy="6" input="SourceAlpha"/><feGaussianBlur stdDeviation="5" result="b"/><feFlood flood-opacity="0.329"/><feComposite operator="in" in2="b"/><feComposite in="SourceGraphic"/></filter></defs><g transform="translate(-714.621 -3024)"><g transform="matrix(1, 0, 0, 1, 714.62, 3024)" filter="url(#a)"><circle cx="69.5" cy="69.5" r="69.5" transform="translate(15 9)" fill="#ffb500"/></g><g transform="translate(766.751 3070)"><path d="M62,50.38V62H56V50h6Z" fill="#dfb28b"/><path d="M52,50V62H46V50h6Z" fill="#dfb28b"/><path d="M36,50h6V62H36Z" fill="#dfb28b"/><path d="M26,50h6V62H26Z" fill="#dfb28b"/><path d="M16,50h6V62H16Z" fill="#dfb28b"/><path d="M8,50h4V62H6V50Z" fill="#dfb28b"/><path d="M56,56v6H52V50h4Z" fill="#d3a06c"/><path d="M46,56v6H42V50h4Z" fill="#d3a06c"/><path d="M36,56v6H32V50h4Z" fill="#d3a06c"/><path d="M26,56v6H22V50h4Z" fill="#d3a06c"/><path d="M16,56v6H12V50h4Z" fill="#d3a06c"/><path d="M6,56v6H2V50H6Z" fill="#d3a06c"/><path d="M20.27,42.2A6.279,6.279,0,0,1,19,40l-.81-2.42a5.1,5.1,0,0,0-1.04-1.81A3,3,0,0,0,16,30h-.11L15,22H13.57a2.1,2.1,0,0,0-1.06.3L5,27,2,22l3.86-8.37a10.136,10.136,0,0,1,2-2.87,9.873,9.873,0,0,1,.9-.8A10.129,10.129,0,0,1,13,8l2-6,.88.88A7.236,7.236,0,0,1,18,8a11.6,11.6,0,0,1,5.61,6.17L27,22.99a4.936,4.936,0,0,1-1.7,2.28L23.8,26.4A2.013,2.013,0,0,0,23,28v2a4,4,0,0,0,7.2,2.4L31.25,31a4.017,4.017,0,0,1,1.94-1.4l1.06-.35A6,6,0,0,1,36,33.49v.02a5.981,5.981,0,0,0,1.36,3.81L36,38v.76A10.25,10.25,0,0,0,39,46l8.06-1.24a5.789,5.789,0,0,0,2.32-.89A9.408,9.408,0,0,1,50,47.24V50H36a7.241,7.241,0,0,1-4-6.47V43a5,5,0,0,0-9.9-1h-.76a2.948,2.948,0,0,0-1.07.2Z" fill="#cf9e76"/><path d="M27,22.99l-3.39-8.82A11.6,11.6,0,0,0,18,8a7.236,7.236,0,0,0-2.12-5.12L15,2a14.271,14.271,0,0,1,7.59,2.22,14.1,14.1,0,0,1,5.23,5.96l2.86,6.13a5,5,0,0,0-3.23,4.07l-.19,1.51a5.04,5.04,0,0,1-.26,1.1Z" fill="#b27946"/><path d="M15,2,13,8A10.129,10.129,0,0,0,8.76,9.96a9.873,9.873,0,0,0-.9.8L5,6l1.12-.89A14.159,14.159,0,0,1,14.97,2Z" fill="#b27946"/><path d="M40.67,20.12A8,8,0,0,0,47.53,24H63V36H58.88a3.987,3.987,0,0,1-3.79-2.74l-.14-.41a4.17,4.17,0,0,0-3.09-2.76h-.01a2.939,2.939,0,0,0-.73-1.21A2.99,2.99,0,0,0,46.18,30H44.39a4,4,0,0,0-3.95,3.34L40.17,35a2.029,2.029,0,0,1-1.08,1.46l-1.73.86A5.981,5.981,0,0,1,36,33.51v-.02a6,6,0,0,0-1.75-4.24l-1.06.35A4.017,4.017,0,0,0,31.25,31L30.2,32.4A4,4,0,0,1,23,30V28a2.013,2.013,0,0,1,.8-1.6l1.5-1.13A4.936,4.936,0,0,0,27,22.99a5.04,5.04,0,0,0,.26-1.1l.19-1.51A5,5,0,0,1,32.41,16H33l1.38-1.84A8.111,8.111,0,0,0,36,9.3,1.3,1.3,0,0,1,37.3,8a1.311,1.311,0,0,1,1.09.58A9.62,9.62,0,0,1,40,13.91V16h-.76A3.613,3.613,0,0,0,36,18a2.015,2.015,0,0,0,2,2h.18a3.5,3.5,0,0,0,2.03-.64l.01.01Z" fill="#ccd1d9"/><path d="M42,16l-.31,1.26a3.6,3.6,0,0,1-1.48,2.1,3.5,3.5,0,0,1-2.03.64H38a2.015,2.015,0,0,1-2-2,3.613,3.613,0,0,1,3.24-2H42Z" fill="#aab2bd"/><path d="M32,43.53A7.241,7.241,0,0,0,36,50H26a3.21,3.21,0,0,0-1.79-2.89L22,46V43a4.712,4.712,0,0,1,.1-1A5,5,0,0,1,32,43Z" fill="#e6e9ed"/><path d="M12,50H8V39.23A5.052,5.052,0,0,1,8.15,38a5.23,5.23,0,0,1,1.78-2.83A5.148,5.148,0,0,1,13.23,34a5.2,5.2,0,0,1,3.06.99,5.318,5.318,0,0,1,.86.78,5.1,5.1,0,0,1,1.04,1.81L19,40a6.279,6.279,0,0,0,1.27,2.2,3.059,3.059,0,0,0-1.84,2.07L18,46h4l2.21,1.11A3.21,3.21,0,0,1,26,50H12Z" fill="#ffeaa7"/><path d="M18.43,44.27a3.059,3.059,0,0,1,1.84-2.07,2.948,2.948,0,0,1,1.07-.2h.76a4.712,4.712,0,0,0-.1,1v3H18Z" fill="#ff826e"/><path d="M16,30a3,3,0,0,1,1.15,5.77,5.317,5.317,0,0,0-.86-.78A5.2,5.2,0,0,0,13.23,34a5.148,5.148,0,0,0-3.3,1.17A2.993,2.993,0,0,1,14,30.78,2.962,2.962,0,0,1,15.89,30Z" fill="#ff826e"/><path d="M8.15,38A5.052,5.052,0,0,0,8,39.23V42H4l.27-1.09A3.85,3.85,0,0,1,8,38Z" fill="#ff826e"/><path d="M40.44,33.34A4,4,0,0,1,44.39,30h1.79A2.772,2.772,0,0,0,46,31v1.39a2.993,2.993,0,0,0,1.34,2.5L49,36l1.66-1.11A2.993,2.993,0,0,0,52,32.39V31a2.715,2.715,0,0,0-.15-.91h.01a4.17,4.17,0,0,1,3.09,2.76l.14.41A3.987,3.987,0,0,0,58.88,36H63V50H50V47.24a9.408,9.408,0,0,0-.62-3.37,5.789,5.789,0,0,1-2.32.89L39,46a10.25,10.25,0,0,1-3-7.24V38l1.36-.68,1.73-.86A2.029,2.029,0,0,0,40.17,35Z" fill="#ecc19c"/><path d="M52,31v1.39a2.993,2.993,0,0,1-1.34,2.5L49,36l-1.66-1.11A2.993,2.993,0,0,1,46,32.39V31a2.772,2.772,0,0,1,.18-1,2.987,2.987,0,0,1,5.67.09A2.715,2.715,0,0,1,52,31Z" fill="#dfb28b"/><circle cx="1" cy="1" r="1" transform="translate(43 35)"/><circle cx="1" cy="1" r="1" transform="translate(31 21)"/><circle cx="1" cy="1" r="1" transform="translate(11 13)"/><circle cx="1" cy="1" r="1" transform="translate(25 41)"/><circle cx="1" cy="1" r="1" transform="translate(11 37)"/><path d="M11,43h2v4H11Z"/><path d="M38.175,19H38v2h.175a4.6,4.6,0,0,0,1.67-.322A9.044,9.044,0,0,0,47.529,25H63V23H47.529a7.035,7.035,0,0,1-6-3.4l-.018-.03a4.594,4.594,0,0,0,1.146-2.07l.626-2.5H41V13.908a10.579,10.579,0,0,0-1.781-5.883A2.3,2.3,0,0,0,35,9.3a7.133,7.133,0,0,1-1.418,4.255L32.5,15h-.086a5.947,5.947,0,0,0-1.185.125l-2.5-5.367A15.174,15.174,0,0,0,5.493,4.326l-1.8,1.439,2.932,4.886a10.915,10.915,0,0,0-1.669,2.56L.871,22.061l3.8,6.327,8.377-5.235a.993.993,0,0,1,.53-.152h.531l.689,6.2a4,4,0,0,0-.794.347A3.949,3.949,0,0,0,12,29a4,4,0,0,0-4,4,3.952,3.952,0,0,0,.6,2.078,6.221,6.221,0,0,0-1.2,1.973,4.825,4.825,0,0,0-4.1,3.617L2.719,43H7v6H1V63H63V49H51V47.236a10.419,10.419,0,0,0-.443-2.991A6.794,6.794,0,0,0,53,39H51a4.8,4.8,0,0,1-4.094,4.772l-7.542,1.16A9.178,9.178,0,0,1,37,38.757v-.139l2.536-1.268a3.011,3.011,0,0,0,1.618-2.19l.275-1.653A2.991,2.991,0,0,1,44.389,31H45v1.4a3.993,3.993,0,0,0,1.781,3.328L49,37.2l2.219-1.479A4,4,0,0,0,53,32.4v-.662a3.156,3.156,0,0,1,1,1.43l.14.419A4.993,4.993,0,0,0,58.883,37H63V35H58.883a3,3,0,0,1-2.846-2.051l-.14-.419a5.178,5.178,0,0,0-3.315-3.273A3.968,3.968,0,0,0,45.556,29H44.388a4.983,4.983,0,0,0-4.932,4.178l-.275,1.652a1,1,0,0,1-.54.73l-.951.476A5.054,5.054,0,0,1,37,33.485a6.952,6.952,0,0,0-1.1-3.769A5.142,5.142,0,0,0,39,25H37a3.158,3.158,0,0,1-2.163,3l-1.968.656A4.969,4.969,0,0,0,30.451,30.4L29.4,31.8A3.016,3.016,0,0,1,27,33a2.951,2.951,0,0,1-1.285-.3l2.992-2.992-1.414-1.414L24.3,31.285A2.951,2.951,0,0,1,24,30V28a1,1,0,0,1,.4-.8l1.5-1.126a6.033,6.033,0,0,0,2.354-4.056l.189-1.514A4.005,4.005,0,0,1,32.414,17H33.5l1.682-2.242A9.057,9.057,0,0,0,36,13.45L39,14.6v.42a4.585,4.585,0,0,0-3.9,2.536l1.789.9A2.605,2.605,0,0,1,39.236,17h1.483l0,.017A2.614,2.614,0,0,1,38.175,19ZM47,31a2,2,0,0,1,4,0v1.4a2,2,0,0,1-.891,1.664L49,34.8l-1.109-.74A1.994,1.994,0,0,1,47,32.4ZM24.539,13.815a12.541,12.541,0,0,0-.908-1.872L26.4,9.633c.181.316.353.638.509.971l1.068,2.289L24.8,14.485Zm.731-5.842-2.8,2.331a12.49,12.49,0,0,0-1.957-1.888L22.384,5.3A13.254,13.254,0,0,1,25.27,7.973ZM12.229,7.151l-.031.01L10.51,3.786a13.189,13.189,0,0,1,3.074-.7Zm6.72-.009A8.153,8.153,0,0,0,17.5,3.254,13.207,13.207,0,0,1,20.653,4.3ZM6.742,5.887A13.177,13.177,0,0,1,8.684,4.6L10.31,7.856A11.054,11.054,0,0,0,8.1,9.223L6.307,6.235ZM12,31a1.979,1.979,0,0,1,1.331.521l.669.6.669-.6A1.974,1.974,0,0,1,16,31a2,2,0,0,1,1.29,3.526,6.174,6.174,0,0,0-7.119-.717A2,2,0,0,1,12,31ZM5.286,41A2.831,2.831,0,0,1,7,39.187c0,.014,0,.029,0,.043V41ZM9,39.23a4.23,4.23,0,0,1,8.243-1.337l.808,2.424a7.318,7.318,0,0,0,.762,1.59,3.988,3.988,0,0,0-1.352,2.123L16.719,47h5.044l2,1a2.209,2.209,0,0,1,.982,1H9ZM19.281,45l.122-.485A2,2,0,0,1,21,43.03V45Zm13.812,4H26.874a4.2,4.2,0,0,0-2.215-2.789L23,45.382V43a4,4,0,0,1,8,0v.528A8.181,8.181,0,0,0,33.093,49ZM55,61H53V51h2Zm-8-4h4v4H47Zm4-2H47V51h4Zm-6,6H43V51h2ZM11,55H7V51h4ZM7,57h4v4H7Zm6-6h2V61H13Zm8,4H17V51h4Zm-4,2h4v4H17Zm6-6h2V61H23Zm8,4H27V51h4Zm-4,2h4v4H27Zm6-6h2V61H33Zm4,6h4v4H37Zm4-2H37V51h4ZM3,51H5V61H3ZM57,61V57h4v4Zm4-6H57V51h4ZM24.7,24.474,23.2,25.6A3.016,3.016,0,0,0,22,28v2a5,5,0,0,0,9,3l1.051-1.4A2.976,2.976,0,0,1,33.5,30.554l.416-.139A4.977,4.977,0,0,1,35,33.515a7.023,7.023,0,0,0,.9,3.42l-.9.447v1.375a11.168,11.168,0,0,0,3.293,7.95l.358.358,8.559-1.317a6.87,6.87,0,0,0,1.56-.437A8.445,8.445,0,0,1,49,47.235V49H36.268A6.192,6.192,0,0,1,33,43.528V43a6,6,0,0,0-11.65-2h-.008a4.121,4.121,0,0,0-.67.056,5.276,5.276,0,0,1-.724-1.373l-.808-2.424a6.185,6.185,0,0,0-.566-1.2,4,4,0,0,0-1.781-6.98l-.678-6.1a5.37,5.37,0,0,0,4.834-3.662l-1.9-.633A3.385,3.385,0,0,1,15.838,21H13.574a3,3,0,0,0-1.59.456l-6.65,4.156-2.2-3.673,3.642-7.89A9.056,9.056,0,0,1,13.2,8.981l.569-.114,1.665-5A6.2,6.2,0,0,1,17,8v.618l.553.276a10.51,10.51,0,0,1,5.12,5.638L25.91,22.95A4.009,4.009,0,0,1,24.7,24.474Zm1.961-5.137-1.145-2.978,3.308-1.654.532,1.14A6,6,0,0,0,26.663,19.337ZM37,9.3a.314.314,0,0,1,.555-.168,8.574,8.574,0,0,1,1.3,3.265L36.7,11.58A9.1,9.1,0,0,0,37,9.3Z"/></g></g></svg>