<svg xmlns="http://www.w3.org/2000/svg" xmlns:xlink="http://www.w3.org/1999/xlink" width="115" height="115" viewBox="0 0 115 115"><defs><filter id="a" x="0" y="0" width="115" height="115" filterUnits="userSpaceOnUse"><feOffset dy="6" input="SourceAlpha"/><feGaussianBlur stdDeviation="5" result="b"/><feFlood flood-opacity="0.329"/><feComposite operator="in" in2="b"/><feComposite in="SourceGraphic"/></filter></defs><g transform="translate(-714.621 -3024)"><g transform="matrix(1, 0, 0, 1, 714.62, 3024)" filter="url(#a)"><circle cx="42.5" cy="42.5" r="42.5" transform="translate(15 9)" fill="#ffb500"/></g><g transform="translate(752.859 3056.237)"><g transform="translate(0.69 0.612)"><g transform="translate(33.022 29.353)"><path d="M59.669,50.232v7.106H56V50h3.669Z" transform="translate(-56 -50)" fill="#dfb28b"/></g><g transform="translate(26.906 29.353)"><path d="M49.669,50v7.338H46V50h3.669Z" transform="translate(-46 -50)" fill="#dfb28b"/></g><g transform="translate(20.791 29.353)"><path d="M36,50h3.669v7.338H36Z" transform="translate(-36 -50)" fill="#dfb28b"/></g><g transform="translate(14.676 29.353)"><path d="M26,50h3.669v7.338H26Z" transform="translate(-26 -50)" fill="#dfb28b"/></g><g transform="translate(8.561 29.353)"><path d="M16,50h3.669v7.338H16Z" transform="translate(-16 -50)" fill="#dfb28b"/></g><g transform="translate(2.446 29.353)"><path d="M7.223,50H9.669v7.338H6V50Z" transform="translate(-6 -50)" fill="#dfb28b"/></g><g transform="translate(30.576 29.353)"><path d="M54.446,53.669v3.669H52V50h2.446Z" transform="translate(-52 -50)" fill="#d3a06c"/></g><g transform="translate(24.46 29.353)"><path d="M44.446,53.669v3.669H42V50h2.446Z" transform="translate(-42 -50)" fill="#d3a06c"/></g><g transform="translate(18.345 29.353)"><path d="M34.446,53.669v3.669H32V50h2.446Z" transform="translate(-32 -50)" fill="#d3a06c"/></g><g transform="translate(12.23 29.353)"><path d="M24.446,53.669v3.669H22V50h2.446Z" transform="translate(-22 -50)" fill="#d3a06c"/></g><g transform="translate(6.115 29.353)"><path d="M14.446,53.669v3.669H12V50h2.446Z" transform="translate(-12 -50)" fill="#d3a06c"/></g><g transform="translate(0 29.353)"><path d="M4.446,53.669v3.669H2V50H4.446Z" transform="translate(-2 -50)" fill="#d3a06c"/></g><g transform="translate(0)"><path d="M13.172,26.583a3.84,3.84,0,0,1-.777-1.345l-.5-1.48a3.119,3.119,0,0,0-.636-1.107,1.834,1.834,0,0,0-.7-3.528h-.067L9.95,14.23H9.075a1.282,1.282,0,0,0-.648.183L3.835,17.288,2,14.23,4.36,9.112A6.2,6.2,0,0,1,5.583,7.357a6.038,6.038,0,0,1,.55-.489,6.194,6.194,0,0,1,2.593-1.2L9.95,2l.538.538a4.425,4.425,0,0,1,1.3,3.131,7.094,7.094,0,0,1,3.431,3.773l2.073,5.394a3.019,3.019,0,0,1-1.04,1.394l-.917.691a1.231,1.231,0,0,0-.489.978v1.223a2.446,2.446,0,0,0,4.4,1.468l.642-.856a2.457,2.457,0,0,1,1.186-.856l.648-.214a3.67,3.67,0,0,1,1.07,2.593v.012a3.658,3.658,0,0,0,.832,2.33l-.832.416v.465a6.268,6.268,0,0,0,1.835,4.427l4.929-.758a3.54,3.54,0,0,0,1.419-.544,5.753,5.753,0,0,1,.379,2.061v1.688H22.791A4.428,4.428,0,0,1,20.345,27.4v-.324a3.058,3.058,0,0,0-6.054-.612h-.465a1.8,1.8,0,0,0-.654.122Z" transform="translate(-2 -2)" fill="#cf9e76"/></g><g transform="translate(7.95)"><path d="M22.338,14.836,20.265,9.442a7.094,7.094,0,0,0-3.431-3.773,4.425,4.425,0,0,0-1.3-3.131L15,2a8.727,8.727,0,0,1,4.641,1.358A8.624,8.624,0,0,1,22.84,7l1.749,3.749a3.058,3.058,0,0,0-1.975,2.489l-.116.923a3.082,3.082,0,0,1-.159.673Z" transform="translate(-15 -2)" fill="#b27946"/></g><g transform="translate(1.835)"><path d="M11.115,2,9.892,5.669A6.194,6.194,0,0,0,7.3,6.868a6.038,6.038,0,0,0-.55.489L5,4.446,5.685,3.9A8.659,8.659,0,0,1,11.1,2Z" transform="translate(-5 -2)" fill="#b27946"/></g><g transform="translate(12.842 3.669)"><path d="M33.805,15.412A4.893,4.893,0,0,0,38,17.784h9.46v7.338H44.941a2.438,2.438,0,0,1-2.318-1.676l-.086-.251a2.55,2.55,0,0,0-1.89-1.688h-.006a1.8,1.8,0,0,0-.446-.74,1.829,1.829,0,0,0-3.021.685H36.08A2.444,2.444,0,0,0,33.665,23.5L33.5,24.511a1.241,1.241,0,0,1-.66.893l-1.058.526a3.658,3.658,0,0,1-.832-2.33v-.012a3.67,3.67,0,0,0-1.07-2.593l-.648.214a2.456,2.456,0,0,0-1.186.856l-.642.856A2.445,2.445,0,0,1,23,21.453V20.23a1.231,1.231,0,0,1,.489-.978l.917-.691a3.019,3.019,0,0,0,1.04-1.394,3.082,3.082,0,0,0,.159-.673l.116-.923a3.059,3.059,0,0,1,3.033-2.678h.361l.844-1.125a4.96,4.96,0,0,0,.991-2.972A.793.793,0,0,1,31.745,8a.8.8,0,0,1,.667.355,5.883,5.883,0,0,1,.985,3.259v1.278h-.465a2.21,2.21,0,0,0-1.981,1.223,1.232,1.232,0,0,0,1.223,1.223h.11a2.139,2.139,0,0,0,1.241-.391l.006.006Z" transform="translate(-23 -8)" fill="#ccd1d9"/></g><g transform="translate(20.791 8.561)"><path d="M39.669,16l-.19.771a2.2,2.2,0,0,1-.905,1.284,2.139,2.139,0,0,1-1.241.391h-.11A1.232,1.232,0,0,1,36,17.223,2.21,2.21,0,0,1,37.981,16h1.688Z" transform="translate(-36 -16)" fill="#aab2bd"/></g><g transform="translate(12.23 22.014)"><path d="M28.115,41.382a4.428,4.428,0,0,0,2.446,3.956H24.446a1.963,1.963,0,0,0-1.095-1.767L22,42.892V41.058a2.882,2.882,0,0,1,.061-.612,3.057,3.057,0,0,1,6.054.612Z" transform="translate(-22 -38)" fill="#e6e9ed"/></g><g transform="translate(3.669 19.568)"><path d="M10.446,43.784H8V37.2a3.089,3.089,0,0,1,.092-.752A3.2,3.2,0,0,1,9.18,34.715,3.148,3.148,0,0,1,11.2,34a3.181,3.181,0,0,1,1.871.605,3.252,3.252,0,0,1,.526.477,3.119,3.119,0,0,1,.636,1.107l.5,1.48a3.84,3.84,0,0,0,.777,1.345,1.871,1.871,0,0,0-1.125,1.266l-.263,1.058h2.446l1.351.679a1.963,1.963,0,0,1,1.095,1.767H10.446Z" transform="translate(-8 -34)" fill="#ffeaa7"/></g><g transform="translate(9.784 24.46)"><path d="M18.263,43.388a1.871,1.871,0,0,1,1.125-1.266A1.8,1.8,0,0,1,20.042,42h.465a2.882,2.882,0,0,0-.061.612v1.835H18Z" transform="translate(-18 -42)" fill="#ff826e"/></g><g transform="translate(4.281 17.122)"><path d="M13.281,30a1.834,1.834,0,0,1,.7,3.528,3.252,3.252,0,0,0-.526-.477,3.181,3.181,0,0,0-1.871-.605,3.148,3.148,0,0,0-2.018.715,1.83,1.83,0,0,1,2.489-2.685A1.811,1.811,0,0,1,13.213,30Z" transform="translate(-9 -30)" fill="#ff826e"/></g><g transform="translate(1.223 22.014)"><path d="M6.538,38a3.089,3.089,0,0,0-.092.752v1.694H4l.165-.667A2.354,2.354,0,0,1,6.446,38Z" transform="translate(-4 -38)" fill="#ff826e"/></g><g transform="translate(20.791 17.122)"><path d="M38.715,32.042A2.444,2.444,0,0,1,41.131,30h1.095a1.7,1.7,0,0,0-.11.612v.85a1.83,1.83,0,0,0,.819,1.529l1.015.679,1.015-.679a1.83,1.83,0,0,0,.819-1.529v-.85a1.66,1.66,0,0,0-.092-.556H45.7a2.55,2.55,0,0,1,1.89,1.688l.086.251a2.438,2.438,0,0,0,2.318,1.676h2.519V42.23h-7.95V40.542a5.753,5.753,0,0,0-.379-2.061,3.54,3.54,0,0,1-1.419.544l-4.929.758A6.268,6.268,0,0,1,36,35.357v-.465l.832-.416,1.058-.526a1.241,1.241,0,0,0,.66-.893Z" transform="translate(-36 -30)" fill="#ecc19c"/></g><g transform="translate(26.906 15.899)"><path d="M49.669,29.835v.85a1.83,1.83,0,0,1-.819,1.529l-1.015.679-1.015-.679A1.83,1.83,0,0,1,46,30.685v-.85a1.7,1.7,0,0,1,.11-.612,1.827,1.827,0,0,1,3.467.055A1.66,1.66,0,0,1,49.669,29.835Z" transform="translate(-46 -28)" fill="#dfb28b"/></g></g><g transform="translate(0 0)"><circle cx="0.612" cy="0.612" r="0.612" transform="translate(25.762 20.791)"/><circle cx="0.612" cy="0.612" r="0.612" transform="translate(18.424 12.23)"/><circle cx="0.612" cy="0.612" r="0.612" transform="translate(6.194 7.338)"/><circle cx="0.612" cy="0.612" r="0.612" transform="translate(14.755 24.46)"/><circle cx="0.612" cy="0.612" r="0.612" transform="translate(6.194 22.014)"/><path d="M11,43h1.223v2.446H11Z" transform="translate(-4.806 -17.317)"/><path d="M23.683,12.007h-.107V13.23h.107a2.81,2.81,0,0,0,1.021-.2,5.531,5.531,0,0,0,4.7,2.643h9.461V14.453H29.4a4.3,4.3,0,0,1-3.67-2.078l-.011-.018a2.809,2.809,0,0,0,.7-1.266l.383-1.53H25.41V8.893a6.469,6.469,0,0,0-1.089-3.6,1.408,1.408,0,0,0-2.58.782,4.362,4.362,0,0,1-.867,2.6l-.662.882H20.16a3.637,3.637,0,0,0-.725.076L17.9,6.356A9.279,9.279,0,0,0,3.7,3.034l-1.1.88L4.39,6.9A6.675,6.675,0,0,0,3.369,8.467l-2.5,5.412,2.321,3.869,5.123-3.2a.607.607,0,0,1,.324-.093h.325l.421,3.79a2.446,2.446,0,0,0-.486.212,2.415,2.415,0,0,0-1.223-.334A2.449,2.449,0,0,0,5.23,20.568,2.417,2.417,0,0,0,5.6,21.839a3.8,3.8,0,0,0-.732,1.207,2.951,2.951,0,0,0-2.507,2.212L2,26.683H4.619v3.669H.95v8.561H38.864V30.353H31.525V29.274a6.371,6.371,0,0,0-.271-1.829,4.155,4.155,0,0,0,1.494-3.207H31.525a2.937,2.937,0,0,1-2.5,2.918l-4.612.709a5.612,5.612,0,0,1-1.446-3.776V24l1.551-.775a1.841,1.841,0,0,0,.989-1.339l.168-1.011a1.829,1.829,0,0,1,1.81-1.533h.374V20.2a2.442,2.442,0,0,0,1.089,2.035l1.357.9,1.357-.9A2.443,2.443,0,0,0,32.748,20.2v-.4a1.93,1.93,0,0,1,.612.874l.086.256a3.054,3.054,0,0,0,2.9,2.09h2.518V21.791H36.346a1.832,1.832,0,0,1-1.74-1.254l-.086-.256a3.167,3.167,0,0,0-2.027-2,2.427,2.427,0,0,0-4.3-.157h-.714a3.047,3.047,0,0,0-3.016,2.555l-.168,1.01a.612.612,0,0,1-.33.446l-.582.291a3.091,3.091,0,0,1-.422-1.56,4.251,4.251,0,0,0-.675-2.3,3.144,3.144,0,0,0,1.9-2.884H22.964a1.931,1.931,0,0,1-1.323,1.835l-1.2.4a3.038,3.038,0,0,0-1.479,1.066l-.642.856a1.845,1.845,0,0,1-1.468.734,1.8,1.8,0,0,1-.786-.184l1.83-1.83-.865-.865L15.2,19.52a1.8,1.8,0,0,1-.184-.786V17.511a.614.614,0,0,1,.245-.489l.918-.689a3.689,3.689,0,0,0,1.439-2.48l.116-.926a2.449,2.449,0,0,1,2.427-2.143h.664l1.029-1.371a5.538,5.538,0,0,0,.5-.8l1.838.7v.257a2.8,2.8,0,0,0-2.382,1.551l1.094.547a1.593,1.593,0,0,1,1.432-.885h.907l0,.01a1.6,1.6,0,0,1-1.553,1.213Zm5.4,7.338a1.223,1.223,0,0,1,2.446,0V20.2a1.221,1.221,0,0,1-.545,1.018l-.678.452-.678-.453a1.219,1.219,0,0,1-.545-1.017ZM15.344,8.837a7.669,7.669,0,0,0-.555-1.145l1.7-1.413c.111.193.216.39.311.594l.653,1.4L15.5,9.246Zm.447-3.572L14.08,6.689a7.638,7.638,0,0,0-1.2-1.155l1.143-1.9a8.1,8.1,0,0,1,1.765,1.633Zm-7.975-.5L7.8,4.768,6.765,2.7a8.065,8.065,0,0,1,1.88-.43Zm4.109-.006a4.986,4.986,0,0,0-.889-2.378,8.076,8.076,0,0,1,1.931.642ZM4.461,3.988A8.058,8.058,0,0,1,5.649,3.2l.994,1.989a6.759,6.759,0,0,0-1.351.836L4.2,4.2ZM7.677,19.345a1.21,1.21,0,0,1,.814.319l.409.369.409-.368a1.207,1.207,0,0,1,.814-.319,1.222,1.222,0,0,1,.789,2.156,3.775,3.775,0,0,0-4.353-.438,1.223,1.223,0,0,1,1.118-1.718ZM3.571,25.46a1.731,1.731,0,0,1,1.05-1.109c0,.009,0,.018,0,.026V25.46Zm2.271-1.082a2.587,2.587,0,0,1,5.041-.818l.494,1.482a4.475,4.475,0,0,0,.466.972,2.439,2.439,0,0,0-.827,1.3l-.454,1.816h3.084l1.223.612a1.351,1.351,0,0,1,.6.612H5.842Zm6.287,3.528.075-.3a1.22,1.22,0,0,1,.977-.908v1.2Zm8.446,2.446h-3.8a2.571,2.571,0,0,0-1.354-1.706L14.4,28.14V26.683a2.446,2.446,0,1,1,4.892,0v.323A5,5,0,0,0,20.575,30.353Zm13.4,7.338H32.748V31.576h1.223Zm-4.892-2.446h2.446v2.446H29.079Zm2.446-1.223H29.079V31.576h2.446Zm-3.669,3.669H26.633V31.576h1.223ZM7.065,34.022H4.619V31.576H7.065ZM4.619,35.245H7.065v2.446H4.619Zm3.669-3.669H9.511v6.115H8.288Zm4.892,2.446H10.734V31.576H13.18Zm-2.446,1.223H13.18v2.446H10.734ZM14.4,31.576h1.223v6.115H14.4ZM19.3,34.022H16.849V31.576H19.3Zm-2.446,1.223H19.3v2.446H16.849Zm3.669-3.669h1.223v6.115H20.518Zm2.446,3.669H25.41v2.446H22.964Zm2.446-1.223H22.964V31.576H25.41ZM2.173,31.576H3.4v6.115H2.173Zm33.022,6.115V35.245h2.446v2.446Zm2.446-3.669H35.194V31.576h2.446Zm-22.2-18.667-.919.689a1.844,1.844,0,0,0-.733,1.468v1.223a3.058,3.058,0,0,0,5.5,1.835l.643-.857a1.82,1.82,0,0,1,.887-.639l.254-.085a3.043,3.043,0,0,1,.662,1.9,4.3,4.3,0,0,0,.547,2.091l-.547.273v.841a6.83,6.83,0,0,0,2.014,4.862l.219.219,5.234-.805a4.2,4.2,0,0,0,.954-.267,5.164,5.164,0,0,1,.141,1.177v1.079H22.517a3.787,3.787,0,0,1-2-3.346v-.323a3.667,3.667,0,0,0-7.124-1.223h0a2.52,2.52,0,0,0-.41.034,3.226,3.226,0,0,1-.443-.84l-.494-1.482a3.782,3.782,0,0,0-.346-.733,2.445,2.445,0,0,0-1.089-4.268l-.415-3.731A3.284,3.284,0,0,0,13.149,12.2l-1.16-.387a2.07,2.07,0,0,1-1.965,1.417H8.639a1.834,1.834,0,0,0-.972.279L3.6,16.05,2.252,13.8,4.48,8.98a5.538,5.538,0,0,1,3.929-3.1l.348-.07L9.775,2.756a3.79,3.79,0,0,1,.959,2.525v.378l.338.169A6.427,6.427,0,0,1,14.2,9.275l1.979,5.148a2.451,2.451,0,0,1-.739.932Zm1.2-3.141-.7-1.821,2.023-1.011.325.7A3.671,3.671,0,0,0,16.643,12.213Zm6.321-6.136a.192.192,0,0,1,.339-.1,5.243,5.243,0,0,1,.794,2l-1.314-.5a5.565,5.565,0,0,0,.181-1.392Z" transform="translate(-0.871 -1)"/></g></g></g></svg>