<svg xmlns="http://www.w3.org/2000/svg" xmlns:xlink="http://www.w3.org/1999/xlink" width="304" height="140" viewBox="0 0 304 140"><defs><filter id="a" x="98" y="39" width="206" height="68" filterUnits="userSpaceOnUse"><feOffset dy="3" input="SourceAlpha"/><feGaussianBlur stdDeviation="3" result="b"/><feFlood flood-opacity="0.161"/><feComposite operator="in" in2="b"/><feComposite in="SourceGraphic"/></filter></defs><g transform="translate(-810.283 -1986)"><g transform="matrix(1, 0, 0, 1, 810.28, 1986)" filter="url(#a)"><rect width="188" height="50" rx="20" transform="translate(107 45)" fill="#ffb500"/></g><circle cx="70" cy="70" r="70" transform="translate(810.283 1986)" fill="#ced371"/><path d="M11.663,0H8.6V-5.344H4.052V0H.967V-12.8H4.052v5.08H8.6V-12.8h3.067Zm6.416.176a4.889,4.889,0,0,1-3.542-1.305,4.507,4.507,0,0,1-1.354-3.4v-.246a5.84,5.84,0,0,1,.541-2.575A3.955,3.955,0,0,1,15.3-9.075a4.763,4.763,0,0,1,2.461-.611,4.117,4.117,0,0,1,3.164,1.244,4.887,4.887,0,0,1,1.16,3.467v1.151H16.2a2.135,2.135,0,0,0,.694,1.257,2.066,2.066,0,0,0,1.389.457,2.662,2.662,0,0,0,2.2-.984l1.354,1.6A3.784,3.784,0,0,1,20.263-.277,5.3,5.3,0,0,1,18.079.176ZM17.745-7.4q-1.3,0-1.547,1.723h2.988v-.229a1.467,1.467,0,0,0-.36-1.1A1.434,1.434,0,0,0,17.745-7.4ZM26.077-9.51l.1,1.116A3.27,3.27,0,0,1,28.89-9.686a2.407,2.407,0,0,1,2.435,1.433,3.165,3.165,0,0,1,2.795-1.433q2.892,0,2.971,3.5V0H34.119V-6a1.813,1.813,0,0,0-.246-1.063,1.048,1.048,0,0,0-.9-.334,1.4,1.4,0,0,0-1.31.782l.009.123V0H28.705V-5.985a1.906,1.906,0,0,0-.237-1.081,1.045,1.045,0,0,0-.905-.334,1.42,1.42,0,0,0-1.3.782V0H23.3V-9.51ZM47.61-4.676a5.8,5.8,0,0,1-.967,3.595A3.238,3.238,0,0,1,43.919.176,2.81,2.81,0,0,1,41.581-.976L41.458,0H38.8V-13.5h2.962v4.755a2.711,2.711,0,0,1,2.136-.94,3.239,3.239,0,0,1,2.742,1.274,5.826,5.826,0,0,1,.967,3.586ZM44.64-4.865a3.866,3.866,0,0,0-.365-1.952A1.229,1.229,0,0,0,43.154-7.4a1.418,1.418,0,0,0-1.389.763v3.773a1.426,1.426,0,0,0,1.406.755A1.258,1.258,0,0,0,44.5-3.127,7.309,7.309,0,0,0,44.64-4.865ZM54.668-6.829l-.976-.07a1.752,1.752,0,0,0-1.793.879V0H48.938V-9.51h2.777l.1,1.222a2.294,2.294,0,0,1,2.083-1.4,2.888,2.888,0,0,1,.826.105ZM60.829,0a3.344,3.344,0,0,1-.281-.853A2.754,2.754,0,0,1,58.263.176a3.374,3.374,0,0,1-2.285-.813,2.588,2.588,0,0,1-.94-2.043A2.66,2.66,0,0,1,56.18-5.019,5.821,5.821,0,0,1,59.5-5.81h.914v-.5q0-1.316-1.134-1.316a.927.927,0,0,0-1.055,1.042H55.266a2.655,2.655,0,0,1,1.173-2.239,4.931,4.931,0,0,1,2.993-.86,4.323,4.323,0,0,1,2.874.888,3.086,3.086,0,0,1,1.081,2.435v4.21a4.311,4.311,0,0,0,.4,2V0ZM58.975-1.934a1.652,1.652,0,0,0,.918-.237,1.487,1.487,0,0,0,.523-.536V-4.228h-.861q-1.547,0-1.547,1.389a.848.848,0,0,0,.272.655A.986.986,0,0,0,58.975-1.934ZM70-2.672a.684.684,0,0,0-.4-.606,6.016,6.016,0,0,0-1.5-.475A6.853,6.853,0,0,1,66.278-4.4a3.062,3.062,0,0,1-1.1-.971A2.319,2.319,0,0,1,64.8-6.68a2.628,2.628,0,0,1,1.081-2.158,4.453,4.453,0,0,1,2.83-.848,4.934,4.934,0,0,1,3.023.853,2.666,2.666,0,0,1,1.143,2.241H69.908q0-1.143-1.2-1.143a1.194,1.194,0,0,0-.782.259.8.8,0,0,0-.316.646.737.737,0,0,0,.387.642,3.654,3.654,0,0,0,1.235.4,10.671,10.671,0,0,1,1.49.378A2.706,2.706,0,0,1,72.861-2.76,2.491,2.491,0,0,1,71.706-.642a5.068,5.068,0,0,1-2.993.817,5.172,5.172,0,0,1-2.18-.439,3.645,3.645,0,0,1-1.494-1.2A2.707,2.707,0,0,1,64.5-3.05h2.769a1.145,1.145,0,0,0,.439.962,1.808,1.808,0,0,0,1.081.3,1.422,1.422,0,0,0,.91-.246A.787.787,0,0,0,70-2.672Z" transform="translate(995.283 2063)" fill="#12263f"/><g transform="translate(836.283 1974.392)"><g transform="translate(1.289 46.899)"><path d="M373.875,116.672c5.295,0,10.952-2.69,13.115-6.529a12.964,12.964,0,0,0,1.164-5.408,4.953,4.953,0,0,0-5.2-5.315c-6.124,0-14.856,3.91-18.949,5.923l2.8,10.857S368.53,116.672,373.875,116.672Z" transform="translate(-302.731 -91.461)" fill="#c38778"/><path d="M27.371,116.612A47.038,47.038,0,0,0,39.4,114.782l1.878-8.27H39.4s-12.983-7.093-21.23-7.093a6.107,6.107,0,0,0-1.58.2,6.748,6.748,0,0,0-2.483,5.1C14.11,110.975,19.161,116.612,27.371,116.612Z" transform="translate(-12.974 -91.46)" fill="#c38778"/><path d="M78.644,116.433c-5.345,0-7.068-.472-7.068-.472s-1.17-4.765-2.8-9.654c-1.419.7-2.282,1.169-2.282,1.169H35.807l-3.179,7.969a70.833,70.833,0,0,1-10.849.987c-7.244,0-11.7-5.087-11.7-10.734a10.606,10.606,0,0,1,1.041-5.115A4.925,4.925,0,0,0,7.5,105.7c0,7.48,6.119,13.312,14.279,13.312a47.874,47.874,0,0,0,9.131-.815h38.6a47.876,47.876,0,0,0,9.131.815c6.046,0,10.969-3.2,13.115-7.9C88.915,114.5,83.939,116.433,78.644,116.433Z" transform="translate(-7.5 -92.425)" fill="#8c5e5e"/><path d="M172.887,140.685H142.9s-6.926,17.438-6.926,26.806c0,8.385,7.141,15.014,7.141,15.014l3.437,6.092c.508,4.043,2.784,5.233,5.253,5.233h10.871c1.941,0,3.313-1.53,4.213-2.044a8.621,8.621,0,0,0,.572-1.565l.115-8.052,5.251-.959c2.268-2.491,5.781-7.373,5.781-13.718C178.61,158.123,172.887,140.685,172.887,140.685Z" transform="translate(-113.894 -125.634)" fill="#c38778"/><path d="M166.2,181.209c-.96-3.151-2.522-6.818-3.643-7.939a46.028,46.028,0,0,1-3.644-17.616c0-8.433,1.924-11.952,1.924-11.952h-5.655L137.7,181.474s-7.141-5.6-7.141-13.983c0-9.368,5.722-26.806,5.722-26.806H133.7s-5.722,17.438-5.722,26.806,7.66,15.549,7.66,15.549l3.488,7.181s1.182,5.156,5.518,5.156H155.32a5.556,5.556,0,0,0,4.946-3.591,8.368,8.368,0,0,1-4.213,1.013H145.182c-2.468,0-3.541-1.189-4.049-5.233,0,0,15.564-.9,22.375-2.843l.818-1.684A18.945,18.945,0,0,0,166.2,181.209Z" transform="translate(-107.269 -125.634)" fill="#8c5e5e"/><path d="M115.938,54.262a1.9,1.9,0,0,0-1.5-1.068c-4,6.9.061,12.9,7.594,12.9l2.069-5.253a12.077,12.077,0,0,1-8.162-6.581Z" transform="translate(-94.76 -53.18)" fill="#fff0af"/><path d="M109.288,53.129a1.881,1.881,0,0,0-2.079,1.423c-2.27,9.072,2.761,11.839,8.832,13.615l.841-2.135C110.747,64.185,107.253,61.108,109.288,53.129Z" transform="translate(-89.611 -53.115)" fill="#ffd064"/><path d="M358.322,54.551a1.916,1.916,0,0,0-3.58-.355,11.551,11.551,0,0,1-5.509,5.576,55.343,55.343,0,0,0,1.012,6.776c3.24-1.243,6.859-3.086,8.518-6.353a14.453,14.453,0,0,0-.44-5.644Z" transform="translate(-290.496 -53.114)" fill="#fff0af"/><path d="M336.449,91.851a16.927,16.927,0,0,1-2.653,1.005l2.911,7.388c4.572-1.338,8.554-3.238,9.272-7.971a18.531,18.531,0,0,1-7.6,4.754A30.255,30.255,0,0,0,336.449,91.851Z" transform="translate(-277.713 -85.193)" fill="#ffd064"/><path d="M202.693,91.7l-1.459-4.718a7.735,7.735,0,0,0-7.389-5.449H178.978a7.722,7.722,0,0,0-2.059.28c-2.083.925-3.278,2.98-3.955,5.169l-1,3.218s9.46,3.458,9.46,16.469a59.844,59.844,0,0,1-3.075,18.989h18.694a45.264,45.264,0,0,1-4.278-18.989c0-13.011,9.924-14.969,9.924-14.969Z" transform="translate(-143.7 -76.649)" fill="#f5fcff"/><path d="M164.311,91.549l1-3.218c.677-2.189,1.231-3.907,2.752-5.169a7.735,7.735,0,0,0-5.33,5.169l-1.459,4.718s9.924,1.958,9.924,14.969a45.264,45.264,0,0,1-4.278,18.989h2.578a45.264,45.264,0,0,0,4.278-18.989C173.771,95.007,164.311,91.549,164.311,91.549Z" transform="translate(-134.84 -77.998)" fill="#d8e2f3"/><path d="M201.854,327.941c-2.258-2.258-12.458-2.73-18.041-1.417-2.626,1.417-6.04,8.28-6.04,12.938a2.38,2.38,0,0,0,2.588,2.681h21.715a5.038,5.038,0,0,0,3.873-2.151c.018-.2.031-.4.031-.607,0-3.369-2.354-9.673-4.125-11.445Z" transform="translate(-148.507 -278.931)" fill="#ffcdbe"/><path d="M174.023,344.43c-.76,0-1.385-.221-1.385-1.478,0-4.658,2.529-10.707,4.837-12.938a7.075,7.075,0,0,0-3.231,1.417c-1.771,1.771-4.125,8.076-4.125,11.445,0,2.571,1.374,4.133,3.9,4.133h21.715a3.564,3.564,0,0,0,3.873-3.526,7.477,7.477,0,0,1-3.873.948H174.023Z" transform="translate(-142.169 -282.42)" fill="#ebae9d"/></g><g transform="translate(0 45.609)"><path d="M49.34,117.931H38.661c-4.089,0-5.88-3.582-6.485-5.224-2.631-.382-4.225-2.361-4.225-5.354a13.785,13.785,0,0,1,.291-2.575c-1.936-1.788-7.534-7.681-7.534-16.021a68.961,68.961,0,0,1,2.21-14.483,53.913,53.913,0,0,1-7.348.5,1.289,1.289,0,0,1,0-2.578,49.82,49.82,0,0,0,8.023-.633c.983-3.806,1.969-7.06,2.5-8.764a17.056,17.056,0,0,1-5.738-2.929c-5.733-2.436-10.527-3.723-13.869-3.723a3.683,3.683,0,0,0-3.91,4.026,11.846,11.846,0,0,0,8.581,11.361,1.289,1.289,0,0,1-.775,2.459A14.381,14.381,0,0,1,0,60.173a6.264,6.264,0,0,1,6.488-6.6,34.048,34.048,0,0,1,11.14,2.448,13.667,13.667,0,0,1,.008-7.994,3.156,3.156,0,0,1,2.748-2.394,3.2,3.2,0,0,1,3.238,1.78,10.549,10.549,0,0,0,6.6,5.675,8.989,8.989,0,0,1,6.34-2.589h7.5a1.289,1.289,0,0,1,0,2.578h-7.5a6.414,6.414,0,0,0-6.157,4.541l-1.077,3.482A14.432,14.432,0,0,1,38.3,71.519a1.289,1.289,0,1,1-2.5.63,12,12,0,0,0-7.244-8.588c-1.273,4.087-5.275,17.544-5.275,25.195,0,6.142,3.628,10.9,5.707,13.125a20.419,20.419,0,0,1,3.3-6.72,44.666,44.666,0,0,0,4.057-18.242,1.289,1.289,0,1,1,2.578,0,47.273,47.273,0,0,1-3.054,16.415,29.343,29.343,0,0,1,5.471-.779,1.289,1.289,0,1,1,.154,2.574c-4.038.241-6.524,1.013-7.211,1.677l-.032.031c-1.48,1.508-3.73,7.382-3.73,10.516,0,1.914.855,2.844,2.615,2.844H54.858c1.759,0,2.615-.93,2.615-2.844,0-3.134-2.25-9.007-3.73-10.515l-.032-.032c-.688-.663-3.174-1.435-7.211-1.676a1.289,1.289,0,1,1,.154-2.574,29.36,29.36,0,0,1,5.471.779,47.273,47.273,0,0,1-3.054-16.415c0-7.213,2.944-11.238,5.414-13.345A14.2,14.2,0,0,1,58.67,61.1l-1.078-3.486a6.415,6.415,0,0,0-6.158-4.541H49.226a1.289,1.289,0,0,1,0-2.578h2.208a8.988,8.988,0,0,1,6.34,2.589,10.55,10.55,0,0,0,6.6-5.675,3.2,3.2,0,0,1,3.238-1.78,3.156,3.156,0,0,1,2.748,2.394,13.667,13.667,0,0,1,.008,7.994,34.049,34.049,0,0,1,11.14-2.448A6.264,6.264,0,0,1,88,60.173a14.381,14.381,0,0,1-10.384,13.82,1.289,1.289,0,1,1-.775-2.459,11.846,11.846,0,0,0,8.581-11.361,3.683,3.683,0,0,0-3.91-4.026c-3.342,0-8.136,1.287-13.869,3.723A17.059,17.059,0,0,1,61.907,62.8c.534,1.7,1.52,4.958,2.5,8.764a49.84,49.84,0,0,0,8.023.633,1.289,1.289,0,1,1,0,2.578,53.91,53.91,0,0,1-7.348-.5,68.961,68.961,0,0,1,2.21,14.483c0,8.341-5.6,14.233-7.535,16.021a13.787,13.787,0,0,1,.291,2.575c0,2.993-1.594,4.972-4.225,5.354-.605,1.642-2.4,5.224-6.485,5.224Zm-14.33-5.156a4.174,4.174,0,0,0,3.651,2.578H49.34a4.174,4.174,0,0,0,3.651-2.578ZM55.7,95.161a20.417,20.417,0,0,1,3.3,6.721c2.079-2.223,5.707-6.982,5.707-13.125,0-7.656-4.006-21.124-5.277-25.2-2.383.914-7.791,4.02-7.791,13.366A44.492,44.492,0,0,0,55.7,95.161Zm3.679-39.92a9.154,9.154,0,0,1,.672,1.611l1.078,3.486c5.67-1.871,8.508-4.587,6.731-11.689a.574.574,0,0,0-.523-.456.625.625,0,0,0-.652.361,12.914,12.914,0,0,1-7.306,6.688ZM20.735,48.188c-.029,0-.055,0-.075,0a.574.574,0,0,0-.523.456c-1.777,7.1,1.062,9.818,6.731,11.689l1.078-3.486a9.158,9.158,0,0,1,.672-1.611,12.913,12.913,0,0,1-7.306-6.688.616.616,0,0,0-.576-.365Zm28.144,57.406a1.289,1.289,0,0,1-.92-2.192c.78-.8,2.019-2.481,2.019-3.6a1.289,1.289,0,1,1,2.578,0c0,2.536-2.476,5.124-2.758,5.411A1.285,1.285,0,0,1,48.879,105.594Zm-9.758,0a1.283,1.283,0,0,1-.917-.384c-.282-.287-2.758-2.875-2.758-5.411a1.289,1.289,0,0,1,2.578,0c0,1.123,1.238,2.806,2.019,3.6a1.289,1.289,0,0,1-.921,2.192ZM58.131,83.547a1.289,1.289,0,0,1-1.289-1.289V77.142a1.289,1.289,0,1,1,2.578,0v5.116A1.289,1.289,0,0,1,58.131,83.547Zm-28.262,0a1.289,1.289,0,0,1-1.289-1.289V77.142a1.289,1.289,0,0,1,2.578,0v5.116A1.289,1.289,0,0,1,29.87,83.547ZM51.6,63.239c-2.95,0-6.659-2.242-8.274-4.337a1.289,1.289,0,0,1,2.042-1.574A9.7,9.7,0,0,0,51.6,60.661a1.289,1.289,0,1,1,0,2.578Zm-10.141,0c-2.95,0-6.659-2.242-8.274-4.337a1.289,1.289,0,0,1,2.042-1.574,9.7,9.7,0,0,0,6.232,3.333,1.289,1.289,0,1,1,0,2.578Z" transform="translate(0 -45.609)"/></g></g></g></svg>