<svg xmlns="http://www.w3.org/2000/svg" xmlns:xlink="http://www.w3.org/1999/xlink" width="169" height="169" viewBox="0 0 169 169"><defs><filter id="a" x="0" y="0" width="169" height="169" filterUnits="userSpaceOnUse"><feOffset dy="6" input="SourceAlpha"/><feGaussianBlur stdDeviation="5" result="b"/><feFlood flood-opacity="0.329"/><feComposite operator="in" in2="b"/><feComposite in="SourceGraphic"/></filter></defs><g transform="translate(-1080.623 -3024)"><g transform="matrix(1, 0, 0, 1, 1080.62, 3024)" filter="url(#a)"><circle cx="69.5" cy="69.5" r="69.5" transform="translate(15 9)" fill="#ffb500"/></g><g transform="translate(1135.622 3071.229)"><path d="M16,125.905V138.88H71.642v-4.152L41.636,113.771A11.02,11.02,0,0,0,27.758,114.8Z" transform="translate(-14.151 -98.186)" fill="#a2d0ff"/><path d="M98.386,113.771A11.02,11.02,0,0,0,84.507,114.8l-4.343,4.1,4.636,3.872,8.146-3.379,7.624,1.719,4.492-2.677Z" transform="translate(-70.901 -98.187)" fill="#e8f3ff"/><path d="M71.642,259.724l-9.467-6.612c-5.165.755-11.965,1.519-14.926.847-5.084-1.156-20.722,2.08-20.722,2.08L16,253.473v10.4H71.642Z" transform="translate(-14.151 -223.183)" fill="#8bc4ff"/><path d="M71.642,302.523v21.543H16v-9.955C33.569,302.9,51.821,299.57,71.642,302.523Z" transform="translate(-14.151 -265.981)" fill="#9bd65e"/><circle cx="6.731" cy="6.731" r="6.731" transform="translate(43.941 2.62)" fill="#f0a567"/><path d="M392.376,19.477a6.73,6.73,0,0,0-10.911,7.88c3.708-6.726,8.126-5.136,10.911-7.88Z" transform="translate(-336.31 -14.151)" fill="#fdaa6a"/><path d="M389.622,17.014a6.73,6.73,0,0,0-8.469,5.311C383.158,18.311,387.914,19.513,389.622,17.014Z" transform="translate(-337.11 -14.137)" fill="#fcbc80"/><path d="M352.1,301.585a12.187,12.187,0,0,1,5.509,2.576c1.985,1.9,6.993,2.7,11.3,3.027v-4.656A88.287,88.287,0,0,0,352.1,301.585Z" transform="translate(-311.412 -265.99)" fill="#aced70"/><path d="M104.806,324.574c-4.509.026-9.074-.326-11.529-1.6-3.819-1.984-12.3-5.153-17.857-7.159a75.544,75.544,0,0,0-15.446,5.08c-3.056,2.1-5.779,4-6.447,4.548-.992.814,21.667,6.613,40.628,11.282h10.65Z" transform="translate(-47.315 -278.639)" fill="#91c656"/><path d="M16,317.781v20.682H71.642v-4.152C53.954,325.282,35.592,319.014,16,317.781Z" transform="translate(-14.151 -280.379)" fill="#9bd65e"/><path d="M16,317.781v3.356c3.34.9,7.909,1.926,14.148,3.037,20.337,3.621,18.179.539,24.689,4.853,2.107,1.4,5.242,1.622,8.52,1.289C48.225,323.458,32.551,318.823,16,317.781Z" transform="translate(-14.151 -280.379)" fill="#aced70"/><path d="M25.911,424.987c-3.469-.379-6.938-.981-9.911-1.583v8.478H47.769C40.419,428.959,31.008,425.544,25.911,424.987Z" transform="translate(-14.151 -373.797)" fill="#91c656"/><path d="M396.708,348.894a1.849,1.849,0,0,0,2.615,0l2.169-2.169a1.849,1.849,0,0,0-2.615-2.615l-.862.862-.862-.862a1.849,1.849,0,0,0-2.615,2.615Z" transform="translate(-348.47 -303.188)"/><path d="M81.208,401.963a1.849,1.849,0,0,0,2.615,0l2.169-2.169a1.849,1.849,0,0,0-2.615-2.615l-.862.862-.862-.862a1.849,1.849,0,1,0-2.615,2.615Z" transform="translate(-69.427 -350.124)"/><path d="M372.85,17.93a8.58,8.58,0,1,0-8.58-8.58,8.589,8.589,0,0,0,8.58,8.58Zm0-13.462a4.882,4.882,0,1,1-4.882,4.882A4.888,4.888,0,0,1,372.85,4.469Z" transform="translate(-322.178)"/><path d="M59.336,120.514a1.837,1.837,0,0,0-.758-1.412c-.634-.46-25.9-18.091-30.035-20.979a12.878,12.878,0,0,0-16.207,1.2L.579,110.429A1.849,1.849,0,0,0,0,111.773v30.365a1.849,1.849,0,0,0,1.849,1.849H57.491a1.849,1.849,0,0,0,1.849-1.849c0-23.164,0-21.492,0-21.624Zm-3.694,14.477a162.474,162.474,0,0,0-29.658-11.378A78.228,78.228,0,0,1,55.642,122.2ZM26.426,101.154l4.331,3.025-1.4.835-6.9-1.556a1.847,1.847,0,0,0-1.115.1l-7.112,2.95-2.18-1.821,2.831-2.675a9.207,9.207,0,0,1,11.55-.853ZM9.339,107.239l3.376,2.819a1.849,1.849,0,0,0,1.186.43c.513,0,.088.116,8.312-3.3l7.052,1.59a1.85,1.85,0,0,0,1.353-.215l3.466-2.066,16.4,11.455a78.485,78.485,0,0,0-31.7,3.941A119.666,119.666,0,0,0,3.7,119.733V112.57Zm46.3,33.05H3.7V123.442c16.663,1.345,33.688,6.486,51.945,15.68Z" transform="translate(0 -84.054)"/></g></g></svg>