<svg xmlns="http://www.w3.org/2000/svg" width="85" height="85" viewBox="0 0 85 85"><g transform="translate(-810.424 -8970)"><circle cx="42.5" cy="42.5" r="42.5" transform="translate(810.424 8970)" fill="#ced371"/><g transform="translate(831.923 8986.999)"><path d="M87.336,119.289h8.017v4.966H87.336Zm0,0" transform="translate(-78.341 -107.62)" fill="#64768e"/><path d="M69.846,87.808H58.127a1.115,1.115,0,0,1-1.115-1.115V85.51a1.116,1.116,0,0,1,1.115-1.116H69.846a1.116,1.116,0,0,1,1.116,1.116v1.182a1.116,1.116,0,0,1-1.116,1.116Zm0,0" transform="translate(-50.983 -76.139)" fill="#8db0e7"/><path d="M99.953,46.8H105.5v3.677H99.953Zm0,0" transform="translate(-89.724 -42.222)" fill="#efd176"/><path d="M99.953,46.8H105.5v1.489H99.953Zm0,0" transform="translate(-89.724 -42.222)" fill="#f19a60"/><path d="M77.078,12.557l2.86,1.174A.769.769,0,0,0,81,13.02V11.642a1.968,1.968,0,0,0-1.221-1.821l-2.7-1.108A16.2,16.2,0,0,0,70.929,7.5h-12.8a1.115,1.115,0,0,0-1.115,1.116v1.613a1.115,1.115,0,0,0,1.115,1.115h12.8a16.2,16.2,0,0,1,6.149,1.213Zm0,0" transform="translate(-50.983 -6.766)" fill="#8db0e7"/><path d="M29.015,202.775H10.523A2.523,2.523,0,0,1,8,200.252v-5.794a13.74,13.74,0,0,1,1.534-6.308,6.153,6.153,0,0,0,0-5.651A13.737,13.737,0,0,1,8,176.192a6.13,6.13,0,0,1,6.13-6.13H25.408a6.13,6.13,0,0,1,6.13,6.13A13.739,13.739,0,0,1,30,182.5a6.153,6.153,0,0,0,0,5.651,13.74,13.74,0,0,1,1.534,6.308v5.794a2.523,2.523,0,0,1-2.523,2.523Zm0,0" transform="translate(-6.766 -153.427)" fill="#aee07b"/><path d="M18.631,170.063h-4.5A6.13,6.13,0,0,0,8,176.193,13.734,13.734,0,0,0,9.534,182.5a6.153,6.153,0,0,1,0,5.651A13.74,13.74,0,0,0,8,194.458v5.794a2.523,2.523,0,0,0,2.523,2.523H26.583c-11.215-7.6-9.25-25.279-7.952-32.713Zm0,0" transform="translate(-6.766 -153.427)" fill="#83cc7a"/><path d="M76.25,254.231c0-4.973-2.835-9-6.332-9s-6.332,4.031-6.332,9,2.835,9,6.332,9S76.25,259.2,76.25,254.231Zm0,0" transform="translate(-56.915 -221.239)" fill="#fcf2d0"/><path d="M70.518,267.722c-2.587-5.441-2.974-12-2.663-17.476-2.484,1.217-4.269,4.567-4.269,8.513,0,4.973,2.835,9,6.332,9A4.538,4.538,0,0,0,70.518,267.722Zm0,0" transform="translate(-56.915 -225.768)" fill="#f6e3a3"/><path d="M313.056,206.438a3.528,3.528,0,1,1-3.528-3.528A3.528,3.528,0,0,1,313.056,206.438Zm0,0" transform="translate(-275.617 -183.062)" fill="#8db0e7"/><path d="M309.527,211.657a3.528,3.528,0,0,0,3.18-2c-4.421.939-5.911-3.241-4.3-4.874a3.528,3.528,0,0,0,1.122,6.872Zm0,0" transform="translate(-275.616 -184.754)" fill="#5a86d7"/><path d="M349.122,62.368a3.528,3.528,0,1,1-3.528-3.528A3.528,3.528,0,0,1,349.122,62.368Zm0,0" transform="translate(-308.155 -53.084)" fill="#8db0e7"/><path d="M345.594,67.587a3.528,3.528,0,0,0,3.18-2c-4.421.94-5.911-3.241-4.3-4.874a3.528,3.528,0,0,0,1.122,6.872Zm0,0" transform="translate(-308.156 -54.776)" fill="#5a86d7"/><path d="M272.4,124.717a2.6,2.6,0,1,1-2.6-2.6A2.6,2.6,0,0,1,272.4,124.717Zm0,0" transform="translate(-240.618 -110.175)" fill="#8db0e7"/><path d="M269.8,128.557a2.6,2.6,0,0,0,2.34-1.471c-3.253.692-4.35-2.385-3.166-3.586a2.6,2.6,0,0,0,.826,5.057Zm0,0" transform="translate(-240.618 -111.419)" fill="#5a86d7"/><path d="M102.856,337.281h-4.09a.937.937,0,0,0-.938.937v1.212a.938.938,0,0,0,.938.938h4.09a.937.937,0,0,0,.937-.938v-1.212A.937.937,0,0,0,102.856,337.281Zm0,0" transform="translate(-87.808 -304.289)" fill="#efd176"/><path d="M98.964,337.281h-.2a.937.937,0,0,0-.938.937v1.212a.938.938,0,0,0,.938.938h.705c-.216-1.022-.382-2.054-.507-3.087Zm0,0" transform="translate(-87.807 -304.289)" fill="#f19a60"/><path d="M15.048,36.812a1.673,1.673,0,0,0,1.671-1.671V33.929a1.673,1.673,0,0,0-1.671-1.671h-4.09a1.673,1.673,0,0,0-1.671,1.671v1.212a1.673,1.673,0,0,0,1.671,1.671Zm-4.294-1.671V33.929a.2.2,0,0,1,.2-.2h4.09a.2.2,0,0,1,.2.2v1.212a.2.2,0,0,1-.2.2h-4.09A.2.2,0,0,1,10.754,35.141ZM13,42.73a6.255,6.255,0,0,0,5.077-2.949,11.868,11.868,0,0,0,1.988-6.789A11.869,11.869,0,0,0,18.081,26.2,6.255,6.255,0,0,0,13,23.254,6.256,6.256,0,0,0,7.926,26.2a11.873,11.873,0,0,0-1.988,6.789,11.871,11.871,0,0,0,1.988,6.789A6.256,6.256,0,0,0,13,42.73Zm-5.6-9.738c0-4.561,2.511-8.271,5.6-8.271s5.6,3.71,5.6,8.271S16.09,41.262,13,41.262,7.405,37.552,7.405,32.992ZM37.439,5.022A4.262,4.262,0,0,0,35,12.781a.734.734,0,0,0,.839-1.2,2.794,2.794,0,1,1,2.554.332.734.734,0,1,0,.5,1.379,4.262,4.262,0,0,0-1.461-8.266ZM33.911,19.115a4.261,4.261,0,1,0,4.261,4.261A4.266,4.266,0,0,0,33.911,19.115Zm0,7.056a2.794,2.794,0,1,1,2.794-2.794A2.8,2.8,0,0,1,33.911,26.17Zm-1.4-11.629a3.33,3.33,0,1,0-3.33,3.33A3.334,3.334,0,0,0,32.514,14.542ZM29.185,16.4a1.862,1.862,0,1,1,1.863-1.863A1.865,1.865,0,0,1,29.185,16.4Zm-18.3,13.6h4.243a.734.734,0,0,0,0-1.467H10.882a.734.734,0,0,0,0,1.467ZM28.676,7.644a1.5,1.5,0,0,0,2.072-1.389V4.877a2.693,2.693,0,0,0-1.676-2.5l-2.7-1.108A16.841,16.841,0,0,0,19.946,0H7.144A1.851,1.851,0,0,0,5.295,1.85V3.463A1.851,1.851,0,0,0,7.144,5.312H9.5v2.21H7.144A1.851,1.851,0,0,0,5.295,9.371v1.182A1.851,1.851,0,0,0,7.144,12.4H8.261v3.5h-.9A6.871,6.871,0,0,0,.5,22.765a14.529,14.529,0,0,0,1.616,6.644,5.428,5.428,0,0,1,0,4.977,14.408,14.408,0,0,0-1.554,5.3.734.734,0,1,0,1.461.136,12.948,12.948,0,0,1,1.4-4.766,6.9,6.9,0,0,0,0-6.325,13.056,13.056,0,0,1-1.452-5.97,5.4,5.4,0,0,1,5.4-5.4H18.643a5.4,5.4,0,0,1,5.4,5.4,13.055,13.055,0,0,1-1.452,5.97,6.9,6.9,0,0,0,0,6.325,13.057,13.057,0,0,1,1.452,5.971v5.794a1.791,1.791,0,0,1-1.789,1.789H3.757a1.791,1.791,0,0,1-1.789-1.789V43.278a.734.734,0,1,0-1.467,0v3.547a3.26,3.26,0,0,0,3.257,3.257H22.25a3.26,3.26,0,0,0,3.257-3.257V41.031a14.527,14.527,0,0,0-1.616-6.644,5.429,5.429,0,0,1,0-4.977,14.528,14.528,0,0,0,1.616-6.644A6.871,6.871,0,0,0,18.643,15.9h-.9V12.4h1.117a1.851,1.851,0,0,0,1.849-1.849V9.371a1.851,1.851,0,0,0-1.849-1.849H16.512V5.312h3.434a15.381,15.381,0,0,1,5.871,1.159ZM16.278,15.9H9.728V12.4h6.55Zm2.584-6.912a.382.382,0,0,1,.382.382v1.182a.382.382,0,0,1-.382.382H7.144a.382.382,0,0,1-.382-.382V9.371a.382.382,0,0,1,.382-.382H18.863Zm-7.9-1.467V5.312h4.082v2.21H10.962Zm8.983-3.677H7.144a.382.382,0,0,1-.382-.382V1.85a.382.382,0,0,1,.382-.382h12.8a15.387,15.387,0,0,1,5.871,1.158l2.7,1.108a1.231,1.231,0,0,1,.766,1.143V6.255a.035.035,0,0,1-.048.032l-2.86-1.174h0a16.846,16.846,0,0,0-6.428-1.268Zm0,0"/></g></g></svg>