<svg xmlns="http://www.w3.org/2000/svg" xmlns:xlink="http://www.w3.org/1999/xlink" width="116.5" height="116.5" viewBox="0 0 116.5 116.5"><defs><filter id="a" x="0" y="0" width="116.5" height="116.5" filterUnits="userSpaceOnUse"><feOffset dy="6" input="SourceAlpha"/><feGaussianBlur stdDeviation="5" result="b"/><feFlood flood-opacity="0.329"/><feComposite operator="in" in2="b"/><feComposite in="SourceGraphic"/></filter></defs><g transform="translate(-347.622 -3024)"><g transform="matrix(1, 0, 0, 1, 347.62, 3024)" filter="url(#a)"><circle cx="43.25" cy="43.25" r="43.25" transform="translate(15 9)" fill="#ffb500"/></g><g transform="translate(386.892 3056.647)"><g transform="translate(0.622 0.622)"><g transform="translate(2.489 12.446)"><path d="M38.36,22v2.489H6V22H38.36Z" transform="translate(-6 -22)" fill="#aab2bd"/></g><g transform="translate(34.849 1.245)"><path d="M60.489,4.622V40.094H58V4.622A.624.624,0,0,1,58.622,4h1.245A.624.624,0,0,1,60.489,4.622Z" transform="translate(-58 -4)" fill="#aab2bd"/></g><g transform="translate(0 1.245)"><path d="M4.489,4.622V40.094H2V4.622A.624.624,0,0,1,2.622,4H3.867A.624.624,0,0,1,4.489,4.622Z" transform="translate(-2 -4)" fill="#aab2bd"/></g><g transform="translate(21.158 27.381)"><path d="M38.489,47.245v8.712H36V46h2.489Z" transform="translate(-36 -46)" fill="#ccd1d9"/></g><g transform="translate(13.691 27.381)"><path d="M31.468,46v9.957H26.489l-.118-1.182A5.566,5.566,0,0,0,24,50.742V46h7.468Z" transform="translate(-24 -46)" fill="#e6e9ed"/></g><g transform="translate(23.647 28.626)"><path d="M40,48H51.2v8.712H40Z" transform="translate(-40 -48)" fill="#d3a06c"/></g><g transform="translate(17.424 18.669)"><path d="M30,32v8.712h6.223v1.245h8.712V32Z" transform="translate(-30 -32)" fill="#d3a06c"/></g><g transform="translate(4.978)"><path d="M22.446,2V6.978H18.712v7.468H10V2h3.734V4.489h4.978V2Z" transform="translate(-10 -2)" fill="#d3a06c"/></g><g transform="translate(19.914)"><path d="M46.446,2V14.446H37.734V6.978H34V2h3.734V4.489h4.978V2Z" transform="translate(-34 -2)" fill="#d3a06c"/></g><g transform="translate(13.691 4.978)"><path d="M24,10h9.957v7.468H24Z" transform="translate(-24 -10)" fill="#cf9e76"/></g><g transform="translate(17.424 4.978)"><path d="M30,10h2.489v2.489H30Z" transform="translate(-30 -10)" fill="#dfb28b"/></g><g transform="translate(27.381 28.626)"><path d="M46,48h3.734v3.734H46Z" transform="translate(-46 -48)" fill="#b27946"/></g><g transform="translate(22.403 18.669)"><path d="M38,32h4.978v2.489H38Z" transform="translate(-38 -32)" fill="#b27946"/></g><g transform="translate(23.647)"><path d="M40,2h4.978V4.489H40Z" transform="translate(-40 -2)" fill="#b27946"/></g><g transform="translate(8.712)"><path d="M16,2h4.978V4.489H16Z" transform="translate(-16 -2)" fill="#b27946"/></g><g transform="translate(0 31.115)"><path d="M14.446,58.223H2l.118-1.182A5.6,5.6,0,0,1,7.688,52h4.8a5.621,5.621,0,0,1,3.2,1v.006a5.566,5.566,0,0,1,2.371,4.033l.118,1.182Z" transform="translate(-2 -52)" fill="#b4dd7f"/></g><g transform="translate(2.489 14.935)"><path d="M6.579,32.939A4.256,4.256,0,0,1,6,30.792,4.8,4.8,0,0,1,10.792,26h5.787a.624.624,0,0,1,.622.622v1.245a3.06,3.06,0,0,1-.989,2.259,3.285,3.285,0,0,1-2.253.853H12.291a1.35,1.35,0,0,1-.828-.274l-.006.006-.479,2.757a1.248,1.248,0,0,0-1.245,1.245,1.5,1.5,0,0,0,.442,1.064l.8.8v.473a2.249,2.249,0,0,1-1.245,2.016L8.016,38.21a3.643,3.643,0,0,1-1.63-4.891Z" transform="translate(-6 -26)" fill="#656d78"/></g><g transform="translate(6.223 19.061)"><path d="M13.73,33.209a1.35,1.35,0,0,0,.828.274h1.668a3.285,3.285,0,0,0,2.253-.853l.006.006a18.72,18.72,0,0,1,2.228,5.2l-1.245.622v.622a3.113,3.113,0,0,1-3.112,3.112h-.622v2.489H12V41.572a2.249,2.249,0,0,0,1.245-2.016v-.473l-.8-.8A1.5,1.5,0,0,1,12,37.216a1.248,1.248,0,0,1,1.245-1.245l.479-2.757Z" transform="translate(-12 -32.63)" fill="#f0d0b4"/></g></g><g transform="translate(0 0)"><path d="M38.338,2.245H37.094a1.246,1.246,0,0,0-1.245,1.245v9.957H34.6V1H20.914V5.978H19.669V1H5.978V13.446H4.734V3.489A1.246,1.246,0,0,0,3.489,2.245H2.245A1.246,1.246,0,0,0,1,3.489V39.583H39.583V3.489A1.246,1.246,0,0,0,38.338,2.245Zm-12.446,0h1.245V3.489H25.892Zm2.489,0h1.245V3.489H28.381Zm-6.223,0h2.489V4.734h6.223V2.245H33.36v11.2H25.892V5.978H22.158Zm0,4.978h2.489v6.223H15.935V7.223h2.489V9.712h3.734Zm-1.245,0V8.468H19.669V7.223ZM10.957,2.245H12.2V3.489H10.957Zm2.489,0h1.245V3.489H13.446Zm-6.223,0H9.712V4.734h6.223V2.245h2.489V5.978H14.691v7.468H7.223ZM35.849,14.691v1.245H4.734V14.691Zm-22.4,22.4v1.245H5.978V37.094H4.734v1.245H2.31l.05-.5A4.963,4.963,0,0,1,7.313,33.36h4.8a4.963,4.963,0,0,1,4.954,4.483l.05.5H14.691V37.094ZM4.734,17.18h.722a5.471,5.471,0,0,0-.722.723Zm.093,7.592.653.871,1-.747L5.468,23.552a3.688,3.688,0,0,1-.734-2.2A4.17,4.17,0,0,1,8.9,17.18h5.786v1.245a2.53,2.53,0,0,1-2.62,2.489H10.4a.67.67,0,0,1-.655-.412.634.634,0,0,1,.088-.579.616.616,0,0,1,.5-.253h.622V18.424h-.622a1.871,1.871,0,0,0-1.779,2.443,1.721,1.721,0,0,0,.347.613l-.349,2a1.871,1.871,0,0,0-1.33,1.788,2.111,2.111,0,0,0,.622,1.5l.622.622v.218a1.62,1.62,0,0,1-.651,1.3L6.4,28.21a3.008,3.008,0,0,1-1.576-3.438ZM12.2,32.119V30.871a3.715,3.715,0,0,0,2.489-.958v2.764A6.222,6.222,0,0,0,12.2,32.119Zm2.489-4.983A2.492,2.492,0,0,1,12.2,29.626H10.957v2.489H8.468V29.979a2.856,2.856,0,0,0,1.245-2.368v-.733l-.986-.986a.873.873,0,0,1-.258-.622.623.623,0,0,1,.622-.622h.523l.44-2.522a2,2,0,0,0,.347.032h1.67a3.99,3.99,0,0,0,2.07-.568,17.948,17.948,0,0,1,1.685,3.972l-1.134.568ZM18.3,37.719a6.232,6.232,0,0,0-.1-.625h2.706V35.849h-3.1a6.185,6.185,0,0,0-1.878-2.424v-3.8h6.223v8.712H18.365Zm5.1-8.093h1.245v8.712H23.4Zm-3.734-1.245V20.914H23.4V23.4h6.223V20.914H33.36v8.712H25.892V28.381Zm8.712-7.468v1.245H27.137V20.914Zm-2.489,1.245H24.647V20.914h1.245Zm3.734,8.712h2.489V33.36H29.626Zm-11.2-11.2v8.712H15.717a3.7,3.7,0,0,0,.218-1.245V26.9l1.347-.673-.121-.484A19.09,19.09,0,0,0,15.1,20.765a3.662,3.662,0,0,0,.835-2.34V17.18H35.849V29.626H34.6V19.669ZM3.489,3.489V21.35a4.928,4.928,0,0,0,.5,2.143L3.94,23.6a4.266,4.266,0,0,0,1.907,5.723l1.376.688v2.109a6.2,6.2,0,0,0-4.978,2.608V3.489Zm22.4,34.849V30.871h2.489V34.6H33.36V30.871h2.489v7.468Zm12.446,0H37.094V3.489h1.245Z" transform="translate(-1 -1)"/><path d="M27,49h3.734v1.245H27Z" transform="translate(-10.82 -19.129)"/><path d="M27,53h3.734v1.245H27Z" transform="translate(-10.82 -20.64)"/></g></g></g></svg>