<svg xmlns="http://www.w3.org/2000/svg" width="152" height="152" viewBox="0 0 152 152"><g transform="translate(-1076 -3154)"><circle cx="76" cy="76" r="76" transform="translate(1076 3154)" fill="#ced371"/><g transform="translate(1110.997 3188.998)"><path d="M74.432,63.482C60.4,56.77,80.413,49.818,65.158,28.457s-29.579-9.488-33.24-6.193a8.131,8.131,0,0,1-4.493,1.729A3.964,3.964,0,0,0,24.032,20.4c-3.375-.813-4.7,1.49-5.187,3.93a15.372,15.372,0,0,0-4.043.723,7.564,7.564,0,0,0-1.079.485c-.183-1.859-.842-4.135-3.116-2.331C8.354,25,9.168,28.262,10.057,30.4a12.983,12.983,0,0,1-1.839,4.171,15.941,15.941,0,0,0-3.1,8.885c.2,1.457-.748,5.439-1.067,9.237s1.067,5.456,1.067,5.456c1.587,1.382,4.14-.11,4.14-.11,3.177.857,4.037-1.029,4.037-1.029,8.54-2.441,9.152-11.106,9.152-11.106s-.051,1.624.244,8.42c.349,8.014,14.6,9.763,14.6,9.763,1.3,3.784,8.749,1.834,8.749,1.834,0,1.343-3.338,4.467-3.338,4.467-9.031-.487-7.811,3.416-7.811,3.416H46.849l7.076-5.255c12.814,1.617,14.162-1.776,19.9-.19.909.252,2.2.533,3.751.8V64.314c-1.9-.47-3.141-.832-3.141-.832Z" transform="translate(0.313 4.078)" fill="#838eb1"/><path d="M70.209,64.308v4.848c-1.55-.263-2.838-.539-3.758-.788-5.728-1.59-7.082,1.8-19.891.184l-7.068,5.255H27.523s-1.038-3.324,5.9-3.442a19.113,19.113,0,0,1,1.918.026s3.337-3.127,3.337-4.467a16.479,16.479,0,0,1-5.255.42V16.879c6.385-2.089,15.214-1.248,24.371,11.575,15.253,21.363-4.756,28.313,9.276,35.026C67.069,63.481,68.3,63.848,70.209,64.308Z" transform="translate(7.678 4.08)" fill="#617093"/><path d="M13.255,34S15.883,39.255,8,39.255C8,39.255,8,34,13.255,34Z" transform="translate(1.568 9.728)" fill="#f95555"/><path d="M34.783,40.337s.062,15.278-9.722,15.3c-7.805.02-10.433.02-10.433.02S12,55.4,12,53.032C12,50.4,27.766,50.4,25.138,45.15Z" transform="translate(2.824 11.716)" fill="#838eb1"/><circle cx="15.766" cy="15.766" r="15.766" transform="translate(46.355 4.313)" fill="#ffce62"/><path d="M63.766,19.766A15.766,15.766,0,0,1,48,35.532V4A15.766,15.766,0,0,1,63.766,19.766Z" transform="translate(14.121 0.313)" fill="#f4a519"/><circle cx="5.255" cy="5.255" r="5.255" transform="translate(56.866 14.824)" fill="#f95555"/><path d="M53.255,17.255A5.255,5.255,0,0,1,48,22.511V12A5.255,5.255,0,0,1,53.255,17.255Z" transform="translate(14.121 2.824)" fill="#e52c2c"/><path d="M78.194,67.114c-1.554-.376-2.654-.687-2.976-.78-5.444-2.636-4.883-4.761-3.662-9.389,1.291-4.89,3.022-11.517-2.519-21.262A17.07,17.07,0,1,0,45.1,18.839c-4.7.353-9.318,2.53-13.749,6.528a5.7,5.7,0,0,1-2.607,1.2,5.335,5.335,0,0,0-4.1-3.361,5.024,5.024,0,0,0-4.764.955,6.448,6.448,0,0,0-1.779,3.031,15.24,15.24,0,0,0-3.08.6,3.237,3.237,0,0,0-1.722-2.279,3.094,3.094,0,0,0-3.2.757C8,27.941,7.619,30.863,8.982,34.5c-.05.147-.1.3-.15.443a8.922,8.922,0,0,1-1.288,2.847A17.031,17.031,0,0,0,4.129,47.7,22.62,22.62,0,0,1,3.7,51.655c-.236,1.538-.5,3.285-.646,5.006-.365,4.217,1.182,6.2,1.368,6.411a1.292,1.292,0,0,0,.139.142,3.785,3.785,0,0,0,2.565.92,6.358,6.358,0,0,0,2.613-.617,4.454,4.454,0,0,0,4.676-1.29,13.242,13.242,0,0,0,7.206-5.434q.033.788.072,1.678a7.866,7.866,0,0,0,.378,2.046c-.765.21-1.52.394-2.188.566-3.7.921-6.379,1.59-6.379,3.667a4.062,4.062,0,0,0,3.941,3.941s2.628,0,10.436-.02a9.232,9.232,0,0,0,3.441-.646,35.3,35.3,0,0,0,5.387,1.336c1.374,2.4,4.64,2.628,7.083,2.406-.382.444-.822.92-1.278,1.368-4.073-.151-6.687.573-7.949,2.2a3.336,3.336,0,0,0-.617,2.95,1.314,1.314,0,0,0,1.253.92H47.175a1.314,1.314,0,0,0,.788-.263l6.647-4.943a40.4,40.4,0,0,0,13.228-.286,11.763,11.763,0,0,1,5.957,0c1.012.275,2.353.557,3.882.816A1.314,1.314,0,0,0,79.2,73.236V68.388a1.314,1.314,0,0,0-1.006-1.274ZM62.121,5.627A14.452,14.452,0,1,1,47.669,20.079,14.452,14.452,0,0,1,62.121,5.627ZM11.736,28.322a2.269,2.269,0,0,1,.552-.346,3.153,3.153,0,0,1,.323.989,7.733,7.733,0,0,0-1.821,1.766,2.822,2.822,0,0,1,.946-2.41ZM76.573,71.66c-.8-.159-1.514-.321-2.092-.478a14.356,14.356,0,0,0-7.105-.056,35.505,35.505,0,0,1-9.609.535c2.634-2.082,6.415-5.471,8.156-8.951l-2.35-1.175c-2.438,4.877-9.985,9.954-10.065,10v.009c-.018.013-.042.016-.062.03l-6.712,5H37.063c.694-.444,2.29-.984,5.883-.788a1.314,1.314,0,0,0,.97-.352c1.4-1.316,3.754-3.767,3.754-5.429a1.29,1.29,0,0,0-.331-.82l.026-.021c-.047-.056-4.7-5.728-2.936-10.9,1.265-3.709,5.546-6.4,12.723-7.993l-.57-2.565c-8.134,1.807-13.059,5.074-14.64,9.71-1.577,4.6.627,9.22,2.156,11.663-2.009.238-4.718.212-5.255-1.336a1.314,1.314,0,0,0-1.084-.878,31.231,31.231,0,0,1-3.567-.723c.047-.045.1-.083.142-.131,4.567-4.6,4.581-13.58,4.58-13.959l-2.628.011c0,.083-.009,8.265-3.81,12.1a6.193,6.193,0,0,1-4.6,1.887c-7.611.021-10.294.021-10.294.021-.155-.016-1.248-.16-1.418-1.072a21.891,21.891,0,0,1,4.363-1.369c3.755-.935,7.648-1.908,8.747-4.3a3.4,3.4,0,0,0-.142-3.04l-2.35,1.175c.238.477.145.681.1.767a4.282,4.282,0,0,1-2.306,1.491,5.213,5.213,0,0,1-.263-1.368c-.294-6.6-.25-8.306-.248-8.322a1.314,1.314,0,0,0-1.248-1.352,1.33,1.33,0,0,0-1.376,1.217c0,.079-.64,7.78-8.209,9.947a1.486,1.486,0,0,0-.811.67c-.053.091-.566.874-2.521.348a1.324,1.324,0,0,0-1.006.131c-.016.009-1.654.9-2.511.323a7.147,7.147,0,0,1-.716-4.429c.131-1.637.394-3.333.625-4.83a20.552,20.552,0,0,0,.431-4.7A14.765,14.765,0,0,1,9.521,39.51a10.773,10.773,0,0,0,1.8-3.744c.754-2.272,1.466-4.417,4.221-5.4a11.2,11.2,0,0,1,2.078-.477,18.839,18.839,0,0,0,.047,3.446l2.609-.307c-.156-1.343-.243-5.5,1.355-6.912a2.4,2.4,0,0,1,2.4-.363c1.729.416,2.153,1.314,2.322,1.948.682,2.566-1.69,6.745-2.915,7.9l1.8,1.913a14.615,14.615,0,0,0,3.838-8.357,8.456,8.456,0,0,0,4.029-1.839,20.831,20.831,0,0,1,12-5.853,17,17,0,0,0,21.4,15.1c5.293,9.043,3.76,14.945,2.5,19.707s-2.345,8.879,5.161,12.481a1.548,1.548,0,0,0,.193.075s.837.25,2.2.6Z" transform="translate(0)"/><path d="M13.57,33A6.334,6.334,0,0,0,7,39.57a1.314,1.314,0,0,0,1.314,1.314c3.215,0,5.362-.836,6.38-2.484a5.057,5.057,0,0,0,.051-4.672A1.314,1.314,0,0,0,13.57,33Zm-1.11,4.018a3.492,3.492,0,0,1-2.6,1.151,3.4,3.4,0,0,1,2.776-2.462,1.9,1.9,0,0,1-.175,1.311Z" transform="translate(1.253 9.413)"/><path d="M41.628,20.138h2.759a6.518,6.518,0,0,0,.962,2.3l-1.093,1.094-.385-.385-1.858,1.858,2.628,2.628L46.5,25.778l-.386-.385L47.206,24.3a6.528,6.528,0,0,0,2.3.963v2.759H48.2v2.628h5.255V28.021H52.138V25.262a6.518,6.518,0,0,0,2.3-.962l1.094,1.094-.385.385,1.858,1.858,2.628-2.628-1.858-1.858-.385.384L56.3,22.441a6.518,6.518,0,0,0,.963-2.3h2.759v1.314h2.628V16.2H60.021v1.314H57.262a6.518,6.518,0,0,0-.962-2.3l1.093-1.094.385.385,1.858-1.858-2.628-2.628L55.151,11.87l.385.385L54.441,13.35a6.518,6.518,0,0,0-2.3-.963V9.628h1.314V7H48.2V9.628h1.314v2.759a6.528,6.528,0,0,0-2.3.962l-1.1-1.093.385-.385-1.858-1.858L42.011,12.64,43.869,14.5l.386-.385,1.094,1.094a6.518,6.518,0,0,0-.963,2.3H41.628V16.2H39v5.255h2.628Zm5.255-1.314a3.941,3.941,0,1,1,3.941,3.941A3.941,3.941,0,0,1,46.883,18.824Z" transform="translate(11.297 1.255)"/></g></g></svg>