<svg xmlns="http://www.w3.org/2000/svg" xmlns:xlink="http://www.w3.org/1999/xlink" width="115" height="115" viewBox="0 0 115 115"><defs><filter id="a" x="0" y="0" width="115" height="115" filterUnits="userSpaceOnUse"><feOffset dy="6" input="SourceAlpha"/><feGaussianBlur stdDeviation="5" result="b"/><feFlood flood-opacity="0.329"/><feComposite operator="in" in2="b"/><feComposite in="SourceGraphic"/></filter></defs><g transform="translate(-1080.623 -3024)"><g transform="matrix(1, 0, 0, 1, 1080.62, 3024)" filter="url(#a)"><circle cx="42.5" cy="42.5" r="42.5" transform="translate(15 9)" fill="#ffb500"/></g><g transform="translate(1120.083 3056.849)"><path d="M16,120.42v7.934H50.026v-2.539L31.677,113a6.739,6.739,0,0,0-8.487.627Z" transform="translate(-14.869 -103.941)" fill="#a2d0ff"/><path d="M91.307,113a6.739,6.739,0,0,0-8.487.627l-2.656,2.51L83,118.5l4.981-2.066,4.662,1.051,2.747-1.637Z" transform="translate(-74.5 -103.941)" fill="#e8f3ff"/><path d="M50.026,257.155l-5.789-4.043c-3.158.462-7.317.929-9.127.518C32,252.923,22.438,254.9,22.438,254.9L16,253.333v6.361H50.026Z" transform="translate(-14.869 -235.281)" fill="#8bc4ff"/><path d="M50.026,302.126V315.3H16v-6.087C26.743,302.358,37.905,300.321,50.026,302.126Z" transform="translate(-14.869 -280.252)" fill="#9bd65e"/><circle cx="4.116" cy="4.116" r="4.116" transform="translate(26.87 1.131)" fill="#f0a567"/><path d="M387.665,18.425a4.116,4.116,0,0,0-6.672,4.819c2.267-4.113,4.969-3.141,6.672-4.819Z" transform="translate(-353.38 -15.64)" fill="#fdaa6a"/><path d="M386.332,16.914a4.116,4.116,0,0,0-5.179,3.248C382.379,17.706,385.287,18.441,386.332,16.914Z" transform="translate(-354.22 -15.626)" fill="#fcbc80"/><path d="M352.1,301.557a7.452,7.452,0,0,1,3.369,1.575c1.214,1.164,4.276,1.651,6.908,1.851v-2.847A53.987,53.987,0,0,0,352.1,301.557Z" transform="translate(-327.218 -280.261)" fill="#aced70"/><path d="M84.873,321.171c-2.757.016-5.549-.2-7.05-.979-2.335-1.213-7.522-3.151-10.92-4.378a46.2,46.2,0,0,0-9.445,3.107c-1.869,1.285-3.534,2.446-3.942,2.781-.607.5,13.25,4.044,24.845,6.9h6.513Z" transform="translate(-49.717 -293.553)" fill="#91c656"/><path d="M16,317.781v12.648H50.026V327.89C39.209,322.368,27.98,318.535,16,317.781Z" transform="translate(-14.869 -295.381)" fill="#9bd65e"/><path d="M16,317.781v2.052c2.042.548,4.836,1.178,8.651,1.857,12.436,2.214,11.116.33,15.1,2.968a8.2,8.2,0,0,0,5.21.788A82.4,82.4,0,0,0,16,317.781Z" transform="translate(-14.869 -295.381)" fill="#aced70"/><path d="M22.061,424.372c-2.122-.232-4.243-.6-6.061-.968v5.184H35.427C30.932,426.8,25.178,424.713,22.061,424.372Z" transform="translate(-14.869 -393.54)" fill="#91c656"/><path d="M395.655,346.826a1.131,1.131,0,0,0,1.6,0l1.326-1.326a1.131,1.131,0,1,0-1.6-1.6l-.527.527-.527-.527a1.131,1.131,0,0,0-1.6,1.6Z" transform="translate(-366.157 -319.347)"/><path d="M80.155,399.894a1.131,1.131,0,0,0,1.6,0l1.326-1.326a1.131,1.131,0,1,0-1.6-1.6l-.527.527-.527-.527a1.131,1.131,0,1,0-1.6,1.6Z" transform="translate(-72.951 -368.665)"/><path d="M369.517,11.264a5.247,5.247,0,1,0-5.247-5.247,5.253,5.253,0,0,0,5.247,5.247Zm0-8.232a2.985,2.985,0,1,1-2.985,2.985A2.989,2.989,0,0,1,369.517,3.032Z" transform="translate(-338.53 -0.771)"/><path d="M36.285,110.915a1.123,1.123,0,0,0-.463-.864c-.387-.281-15.838-11.063-18.367-12.829a7.875,7.875,0,0,0-9.911.732l-7.19,6.794A1.13,1.13,0,0,0,0,105.57v18.569a1.131,1.131,0,0,0,1.131,1.131H35.157a1.131,1.131,0,0,0,1.131-1.131c0-14.165,0-13.142,0-13.223Zm-2.259,8.853a99.355,99.355,0,0,0-18.136-6.958,47.837,47.837,0,0,1,18.136-.863ZM16.16,99.076l2.649,1.85-.856.51-4.222-.952a1.13,1.13,0,0,0-.682.059l-4.349,1.8-1.333-1.113L9.1,99.6a5.63,5.63,0,0,1,7.063-.522ZM5.711,102.8l2.064,1.724a1.13,1.13,0,0,0,.725.263c.314,0,.054.071,5.083-2.015l4.312.972a1.131,1.131,0,0,0,.827-.132l2.12-1.263,10.03,7.005a47.994,47.994,0,0,0-19.387,2.41,73.178,73.178,0,0,0-9.223-1.324v-4.38Zm28.315,20.211H2.261v-10.3c10.189.822,20.6,3.966,31.765,9.588Z" transform="translate(0 -89.091)"/></g></g></svg>