<svg xmlns="http://www.w3.org/2000/svg" width="17.066" height="20.155" viewBox="0 0 17.066 20.155"><path d="M10.68,122.156l3.18-1.836v-3.672l-3.18-1.836L7.5,116.649v3.672Z" transform="translate(-6.722 -102.9)" fill="#97eeba" fill-rule="evenodd"/><path d="M38.144,67.243l3.18,1.836,3.18-1.836V63.572l-3.18-1.836-3.18,1.836Z" transform="translate(-34.186 -55.33)" fill="#ffee89" fill-rule="evenodd"/><path d="M10.68,16l3.18-1.836V10.5L10.68,8.66,7.5,10.5v3.672Z" transform="translate(-6.722 -7.761)" fill="#00e7f0" fill-rule="evenodd"/><path d="M1.557,16.971V14.2l2.4-1.386,2.4,1.386v2.773l-2.4,1.386Zm3.18-5.507V8.691L7.138,7.3l2.4,1.386v2.773l-2.4,1.386ZM1.557,5.957V3.184L3.958,1.8l2.4,1.386V5.957l-2.4,1.387ZM3.958,0,0,2.285v4.57L3.18,8.691v2.773L0,13.3v4.57l3.958,2.285L7.916,17.87V14.2l2.4-1.386,2.791,1.611.778-1.348L11.1,11.464V8.691L13.5,7.3l2.791,1.611.778-1.348L14.275,5.957V2.734H12.719V5.957l-2.4,1.387-2.4-1.387V2.285Z"/></svg>