<svg xmlns="http://www.w3.org/2000/svg" width="64" height="64" viewBox="0 0 64 64"><path d="M40.59,24.59a1.992,1.992,0,0,1,0,2.82L20.41,47.59a1.992,1.992,0,0,1-2.82,0L12,42,35,19Z" fill="#f2f2f2"/><path d="M49.5,24.5,13.07,60.93a7.071,7.071,0,0,1-10-10L12,42l5.59,5.59a1.992,1.992,0,0,0,2.82,0L40.59,27.41a1.992,1.992,0,0,0,0-2.82L38,22l10,1Z" fill="#ea2424"/><path d="M19,51A19.338,19.338,0,0,1,1.312,53.852,7.071,7.071,0,0,0,13.07,60.93L41.076,32.924C33.6,38.559,26.642,45.121,19,51Z" fill="#b01b1b"/><circle cx="1.5" cy="1.5" r="1.5" transform="translate(12 53)" fill="#f27979"/><circle cx="2" cy="2" r="2" transform="translate(4 54)" fill="#f27979"/><path d="M48,23,38,22l-3-3,4.5-4.5Z" fill="#aed3f2"/><path d="M63,8v6l-9.5,9.5L50,20,62.5,7.5Z" fill="#414af2"/><path d="M45.911,10.129H63.589v4.243H45.911Z" transform="translate(7.374 42.302) rotate(-45)" fill="#3d71d9"/><path d="M42.911,7.129H60.589v4.243H42.911Z" transform="translate(8.617 39.302) rotate(-45)" fill="#414af2"/><path d="M56.5,1.5,44,14l-3.5-3.5L50,1h6Z" fill="#3d71d9"/><path d="M43.982,9.058h3.536V27.443H43.982Z" transform="translate(0.495 37.695) rotate(-45)" fill="#f28d52"/><circle cx="1" cy="1" r="1" transform="translate(43 25)" fill="#f27979"/><path d="M40.59,27.41,20.41,47.59a1.992,1.992,0,0,1-2.82,0L12,42l2-2,2.59,2.59a1.992,1.992,0,0,0,2.82,0L39,23l1.59,1.59A1.992,1.992,0,0,1,40.59,27.41Z" fill="#ccc"/><path d="M34,27s-.8,3.63-1.59,4.41a1.994,1.994,0,0,1-2.82-2.82C30.37,27.8,34,27,34,27Z" fill="#ea2424"/><circle cx="1" cy="1" r="1" transform="translate(13 48)" fill="#f27979"/><circle cx="1.5" cy="1.5" r="1.5" transform="translate(8 48)" fill="#73020c"/><circle cx="1" cy="1" r="1" transform="translate(13 48)" fill="#333359"/><circle cx="1" cy="1" r="1" transform="translate(43 25)" fill="#333359"/><path d="M6,53a1,1,0,0,0,0,2,1,1,0,1,1-1,1,1,1,0,0,0-2,0,3,3,0,1,0,3-3Z" fill="#333359"/><path d="M13.5,52A2.5,2.5,0,1,0,16,54.5,2.5,2.5,0,0,0,13.5,52Zm0,3a.5.5,0,1,1,.5-.5A.5.5,0,0,1,13.5,55Z" fill="#333359"/><circle cx="1.5" cy="1.5" r="1.5" transform="translate(8 48)" fill="#333359"/><path d="M56.707.293A1,1,0,0,0,56,0H50a1,1,0,0,0-.707.293l-12,12a1,1,0,0,0,0,1.414l.793.793-3.793,3.793h0l-12,12h0s0,0,0,0l-3,3h0l-3,3h0L2.363,50.223A8.071,8.071,0,0,0,13.777,61.637L49.5,25.914l.793.793a1,1,0,0,0,1.414,0l12-12A1,1,0,0,0,64,14V8a1,1,0,0,0-.293-.707ZM48.414,17,59.5,5.914,61.086,7.5,50,18.586ZM56.5,2.914,58.086,4.5,47,15.586,45.414,14ZM50.414,2h4.172L44,12.586,41.914,10.5Zm-5.1,19.726-6.858-.686L36.414,19,39.5,15.914Zm-32.949,38.5a6.071,6.071,0,0,1-8.586-8.586L17,38.414l2.293,2.293a1,1,0,0,0,1.414-1.414L18.414,37,20,35.414l3.293,3.293a1,1,0,1,0,1.414-1.414L21.414,34,23,32.414l2.293,2.293a1,1,0,0,0,1.414-1.414L24.414,31,35,20.414l4.879,4.879a1,1,0,0,1,0,1.414L19.707,46.878a1,1,0,0,1-1.414,0l-3.586-3.586a1,1,0,1,0-1.414,1.414l3.586,3.586a3,3,0,0,0,4.242,0L41.293,28.12a3,3,0,0,0,0-4.243l-.6-.6,6.858.686.54.54ZM51,24.586,39.414,13,40.5,11.914,52.086,23.5Zm2.5-2.5L51.414,20,62,9.414v4.172Z" fill="#333359"/><path d="M31,33a2.988,2.988,0,0,0,2.121-.877c.892-.891,1.6-3.727,1.855-4.905a1,1,0,0,0-1.193-1.193c-1.179.261-4.014.964-4.905,1.855A3,3,0,0,0,31,33Zm-.708-3.7a8.513,8.513,0,0,1,2.322-.908,8.511,8.511,0,0,1-.907,2.321,1,1,0,0,1-1.415-1.413Z" fill="#333359"/><path d="M6.406,36.054l.3-.129a1,1,0,1,0-.758-1.85c-.123.05-.242.1-.358.152C4.952,34.513,3,35.382,3,37c0,1.6,1.827,2.814,5.751,3.821a1.025,1.025,0,0,0,.25.031,1,1,0,0,0,.248-1.968C5.391,37.894,5.01,37.015,5,37.015H5c.005-.014.155-.4,1.408-.961Z" fill="#333359"/><path d="M10,34.907a1,1,0,0,0,.222-.025c1.158-.262,2.479-.505,3.928-.723a1,1,0,1,0-.3-1.977c-1.5.225-2.867.477-4.072.75A1,1,0,0,0,10,34.907Z" fill="#333359"/><path d="M49.852,39.841A1,1,0,0,0,50,41.83a.942.942,0,0,0,.149-.011C61,40.191,61,37.79,61,37c0-.834,0-3.373-12.065-4.991a1,1,0,0,0-.266,1.982C56.73,35.072,58.883,36.574,59,36.984c-.108.4-2.021,1.788-9.15,2.857Z" fill="#333359"/><path d="M39.046,42.841c2.1-.1,4.132-.236,6.048-.416a1,1,0,1,0-.188-1.991c-1.884.177-3.886.314-5.952.409a1,1,0,0,0,.045,2h.047Z" fill="#333359"/></svg>