<svg xmlns="http://www.w3.org/2000/svg" width="129" height="129" viewBox="0 0 129 129"><g transform="translate(-368 2294)"><circle cx="64.5" cy="64.5" r="64.5" transform="translate(368 -2294)" fill="#a3314f"/><g transform="translate(401.975 -2260.001)"><path d="M31,11.522,63.574,44.1a13.784,13.784,0,0,1,0,19.494h0a13.784,13.784,0,0,1-19.494,0L11.5,31.016a13.784,13.784,0,0,1,0-19.494h0A13.784,13.784,0,0,1,31,11.522Z" transform="translate(-6.542 -6.578)" fill="#f5d7b7"/><path d="M31,11.522,63.574,44.1a13.784,13.784,0,0,1,0,19.494h0a13.784,13.784,0,0,1-19.494,0L11.5,31.016a13.784,13.784,0,0,1,0-19.494h0A13.784,13.784,0,0,1,31,11.522Z" transform="translate(-6.542 -6.578)" fill="#8d4330" opacity="0.15"/><path d="M63.574,31.016,31,63.592a13.784,13.784,0,0,1-19.494,0h0a13.784,13.784,0,0,1,0-19.494L44.08,11.522a13.784,13.784,0,0,1,19.494,0h0A13.784,13.784,0,0,1,63.574,31.016Z" transform="translate(-6.542 -6.578)" fill="#f5d7b7"/><path d="M176.586,167.989l-8.615,8.615a6.343,6.343,0,0,1-8.97,0l-3.455-3.455a6.343,6.343,0,0,1,0-8.97l8.615-8.615a6.343,6.343,0,0,1,8.97,0l3.455,3.455A6.342,6.342,0,0,1,176.586,167.989Z" transform="translate(-135.069 -135.106)" fill="#e68392"/><g transform="translate(22.393 22.376)"><ellipse cx="2.395" cy="3.007" rx="2.395" ry="3.007" transform="translate(3.386 19.164) rotate(-135)" fill="#fff"/><ellipse cx="2.395" cy="3.007" rx="2.395" ry="3.007" transform="translate(15.779 0) rotate(45)" fill="#fff"/></g><path d="M40.985,206.458c-6.588-3.069-14.777-11.967-13.91-25.078L11.505,196.949a13.784,13.784,0,0,0,0,19.494h0a13.784,13.784,0,0,0,19.494,0Z" transform="translate(-6.543 -159.43)" fill="#8d4330" opacity="0.1"/><path d="M20.484,47.284a.857.857,0,1,0,1.212,0A.857.857,0,0,0,20.484,47.284ZM31.451,28.2a.908.908,0,0,0-.843.968,1.328,1.328,0,0,1-1.418,1.417.908.908,0,1,0-.124,1.811q.108.007.216.007a3.142,3.142,0,0,0,3.137-3.36A.908.908,0,0,0,31.451,28.2Zm-5.8,5.2a.908.908,0,0,0-1.283,1.283l.751.751a.908.908,0,1,0,1.283-1.283ZM34.7,24.353a.908.908,0,1,0-1.284,1.283l.751.751A.908.908,0,0,0,35.452,25.1Zm13.238-9.1a.857.857,0,1,0-1.212,0A.857.857,0,0,0,47.939,15.248ZM47.3,20.465a.857.857,0,1,0,1.212,0A.857.857,0,0,0,47.3,20.465Zm-3.5-3.5a.857.857,0,1,0,1.212,0A.857.857,0,0,0,43.8,16.963Zm-5.1,2.854a7.25,7.25,0,0,0-10.254,0l-8.615,8.615a7.25,7.25,0,0,0,0,10.253L23.29,42.14a7.25,7.25,0,0,0,10.254,0l8.615-8.615a7.25,7.25,0,0,0,0-10.253Zm2.171,12.425L32.26,40.857a5.435,5.435,0,0,1-7.686,0L21.119,37.4a5.435,5.435,0,0,1,0-7.686L29.734,21.1a5.435,5.435,0,0,1,7.686,0l3.455,3.455a5.435,5.435,0,0,1,0,7.686ZM47.365,8.82a.857.857,0,1,0-1.212,0A.857.857,0,0,0,47.365,8.82ZM7.626,46.134a.857.857,0,1,0,1.212,0A.857.857,0,0,0,7.626,46.134ZM41.511,14.674a.857.857,0,1,0-1.212,0A.857.857,0,0,0,41.511,14.674Zm0,32.61a.857.857,0,1,0,0,1.212A.857.857,0,0,0,41.511,47.284ZM11.765,44.419a.857.857,0,1,0-1.212,0A.857.857,0,0,0,11.765,44.419ZM44.438,11.747a.857.857,0,1,0-1.212,0A.857.857,0,0,0,44.438,11.747ZM11.128,49.636a.857.857,0,1,0,1.212,0A.857.857,0,0,0,11.128,49.636Zm6.429.575a.857.857,0,1,0,1.212,0A.857.857,0,0,0,17.557,50.21Zm.637-5.217a.857.857,0,1,0-1.212,0A.857.857,0,0,0,18.194,44.994ZM14.63,53.137a.857.857,0,1,0,1.212,0A.857.857,0,0,0,14.63,53.137Zm.637-5.217a.857.857,0,1,0-1.212,0A.857.857,0,0,0,15.267,47.921Zm-.575-6.429a.857.857,0,1,0-1.212,0A.857.857,0,0,0,14.692,41.492ZM50.866,12.321a.857.857,0,1,0-1.212,0A.857.857,0,0,0,50.866,12.321Zm-35.6,1.715a.857.857,0,1,0,0,1.212A.857.857,0,0,0,15.267,14.037ZM13.48,20.465a.857.857,0,1,0,1.212,0A.857.857,0,0,0,13.48,20.465ZM54.368,47.346a.857.857,0,1,0-1.212,0A.857.857,0,0,0,54.368,47.346Zm-35.6-36.811a.857.857,0,1,0,0,1.212A.857.857,0,0,0,18.768,10.535Zm1.715,2.927a.857.857,0,1,0,1.212,0A.857.857,0,0,0,20.484,13.462Zm-3.5,3.5a.857.857,0,1,0,1.212,0A.857.857,0,0,0,16.982,16.963ZM7.626,14.611a.857.857,0,1,0,1.212,0A.857.857,0,0,0,7.626,14.611Zm2.927,2.927a.857.857,0,1,0,1.212,0A.857.857,0,0,0,10.553,17.538Zm1.786-6.429a.857.857,0,1,0,0,1.212A.857.857,0,0,0,12.34,11.109Zm3.5-3.5a.857.857,0,1,0,0,1.212A.857.857,0,0,0,15.841,7.608ZM46.728,47.921a.857.857,0,1,0,0-1.212A.857.857,0,0,0,46.728,47.921Zm4.713-3.5a.857.857,0,1,0-1.212,0A.857.857,0,0,0,51.441,44.419Zm-8.215,7a.857.857,0,1,0,0-1.212A.857.857,0,0,0,43.226,51.422Zm9.93-36.811a.857.857,0,1,0,1.212,0A.857.857,0,0,0,53.156,14.611ZM45.012,44.994a.857.857,0,1,0-1.212,0A.857.857,0,0,0,45.012,44.994Zm6.762-14.015,5.9-5.9A14.692,14.692,0,1,0,36.9,4.3L31,10.2,25.418,4.622a.908.908,0,1,0-1.283,1.284l5.579,5.579L11.5,29.7,5.6,23.8a12.891,12.891,0,0,1,0-18.21A12.758,12.758,0,0,1,13,1.928,12.971,12.971,0,0,1,20.944,3.42a.908.908,0,1,0,.88-1.588,14.8,14.8,0,0,0-9.068-1.7A14.557,14.557,0,0,0,4.321,4.3a14.708,14.708,0,0,0,0,20.777l5.9,5.9-5.9,5.9A14.692,14.692,0,0,0,25.1,57.655l5.9-5.9,5.9,5.9a14.883,14.883,0,0,0,1.434,1.26.908.908,0,0,0,1.108-1.438,13.066,13.066,0,0,1-1.258-1.106l-5.9-5.9,18.21-18.21,5.9,5.9A12.879,12.879,0,0,1,42.918,59.384a.908.908,0,1,0-.614,1.708A14.694,14.694,0,0,0,57.673,36.878Zm-1.925-.642h0L23.814,56.372A12.877,12.877,0,0,1,5.6,38.161L31.639,12.126h0L38.18,5.585A12.877,12.877,0,0,1,56.39,23.8Zm-.195,20.511a.857.857,0,1,0,0-1.212A.857.857,0,0,0,49.654,50.848Zm.575-33.31a.857.857,0,1,0,1.212,0A.857.857,0,0,0,50.229,17.538ZM46.153,54.349a.857.857,0,1,0,0-1.212A.857.857,0,0,0,46.153,54.349Zm2.361-12.857a.857.857,0,1,0-1.212,0A.857.857,0,0,0,48.514,41.492Z" transform="translate(0 0)"/></g></g></svg>