<svg xmlns="http://www.w3.org/2000/svg" width="62" height="62" viewBox="0 0 62 62"><g transform="translate(-1 -1)"><path d="M32.1,54.8a4.538,4.538,0,0,1,.9,2.7A4.507,4.507,0,0,1,28.5,62h-1a4.5,4.5,0,0,1-3.6-7.2L26,52h4Z" fill="#cf9e76"/><path d="M32,44.25a2.258,2.258,0,0,1-.45,1.35l-1.89,2.52A1.838,1.838,0,0,0,29,48H26.25l-1.8-2.4a2.251,2.251,0,0,1,1.8-3.6H27a1.116,1.116,0,0,0,2,0h.75A2.253,2.253,0,0,1,32,44.25Z" fill="#d3a06c"/><path d="M41,54H57a2.006,2.006,0,0,1,2,2v2a2.006,2.006,0,0,1-2,2H41a2.006,2.006,0,0,1-2-2V56A2.006,2.006,0,0,1,41,54Z" fill="#fcd770"/><path d="M51,42h6a2.006,2.006,0,0,1,2,2v2a2.006,2.006,0,0,1-2,2H41a2.006,2.006,0,0,1-2-2V44a2.006,2.006,0,0,1,2-2H51Z" fill="#fcd770"/><path d="M43,36H39a2.006,2.006,0,0,1-2-2V32a2.006,2.006,0,0,1,2-2H55a2.006,2.006,0,0,1,2,2v2a2.006,2.006,0,0,1-2,2H43Z" fill="#fcd770"/><path d="M39,48H53a2.006,2.006,0,0,1,2,2v2a2.006,2.006,0,0,1-2,2H37a2.006,2.006,0,0,1-2-2V50a2.006,2.006,0,0,1,2-2Z" fill="#ffc729"/><path d="M39,36H53a2.006,2.006,0,0,1,2,2v2a2.006,2.006,0,0,1-2,2H37a2.006,2.006,0,0,1-2-2V38a2.006,2.006,0,0,1,2-2Z" fill="#ffc729"/><path d="M48,2A14,14,0,1,1,34,16,14,14,0,0,1,48,2Z" fill="#ffc729"/><circle cx="10" cy="10" r="10" transform="translate(38 6)" fill="#fcd770"/><path d="M28,20.5a10.511,10.511,0,0,1-1.12,4.72A4.009,4.009,0,0,0,24,24V22a21.173,21.173,0,0,1-9.47-2.24L11,18a5.74,5.74,0,0,1-4.07,3.77L6,22v2a4.009,4.009,0,0,0-2.88,1.22A10.511,10.511,0,0,1,2,20.5V18.44a8.444,8.444,0,0,1,13.13-7.02,3.464,3.464,0,0,0,1.92.58H19.5A8.506,8.506,0,0,1,28,20.5Z" fill="#b27946"/><path d="M17.14,38.7A7.487,7.487,0,0,1,23,46H17V42a3.995,3.995,0,0,0-4-4h1Z" fill="#4fc1e9"/><path d="M17,46h6a2.006,2.006,0,0,1,2,2v4a2,2,0,0,1-2,2H17a8,8,0,0,1-8-8V42a4,4,0,1,1,8,0Z" fill="#4fc1e9"/><path d="M29.66,48.12A1.991,1.991,0,0,1,31,50a2.015,2.015,0,0,1-2,2H25V48h4A1.838,1.838,0,0,1,29.66,48.12Z" fill="#f0d0b4"/><path d="M26.83,30.83A4.025,4.025,0,0,1,24,32h-.25A8.239,8.239,0,0,0,24,30V24a4,4,0,0,1,2.83,6.83Z" fill="#f0d0b4"/><path d="M6,30V22l.93-.23A5.74,5.74,0,0,0,11,18l3.53,1.76A21.173,21.173,0,0,0,24,22v8a8.239,8.239,0,0,1-.25,2A8.006,8.006,0,0,1,16,38H14a8.006,8.006,0,0,1-7.75-6A8.239,8.239,0,0,1,6,30Z" fill="#f0d0b4"/><path d="M6,30a8.239,8.239,0,0,0,.25,2H6a4,4,0,1,1,0-8Z" fill="#f0d0b4"/><path d="M11,30h8a4,4,0,1,1-8,0Z" fill="#ff826e"/><path d="M49,19H47a1,1,0,0,1-1-1H44a3,3,0,0,0,3,3v2h2V21a3,3,0,0,0,0-6H47a1,1,0,0,1,0-2h2a1,1,0,0,1,1,1h2a3,3,0,0,0-3-3V9H47v2a3,3,0,0,0,0,6h2a1,1,0,0,1,0,2Z"/><path d="M19,26a1,1,0,0,1,1,1h2a3,3,0,0,0-6,0h2A1,1,0,0,1,19,26Z"/><path d="M11,26a1,1,0,0,1,1,1h2a3,3,0,0,0-6,0h2A1,1,0,0,1,11,26Z"/><path d="M20,30V29H10v1a5,5,0,0,0,10,0Zm-7.829,1h5.658a3,3,0,0,1-5.658,0Z"/><path d="M31.235,51.981a2.974,2.974,0,0,0-.114-4.1l-.019-.016L32.35,46.2a3.25,3.25,0,0,0-2.6-5.2H28.382l-.276.553c-.02.039-.191.039-.211,0L27.618,41H26.25a3.242,3.242,0,0,0-2.883,1.781,8.4,8.4,0,0,0-4.12-4.4,9.034,9.034,0,0,0,5.247-5.434,4.958,4.958,0,0,0,3.538-7.882A11.544,11.544,0,0,0,29,20.5,9.511,9.511,0,0,0,19.5,11H17.05a2.455,2.455,0,0,1-1.367-.414A9.444,9.444,0,0,0,1,18.444V20.5a11.54,11.54,0,0,0,.969,4.57,4.958,4.958,0,0,0,3.539,7.88,9.036,9.036,0,0,0,4.474,5.091A4.975,4.975,0,0,0,8,42v4a9.01,9.01,0,0,0,9,9h5.607A5.49,5.49,0,0,0,27.5,63h1a5.5,5.5,0,0,0,4.4-8.8ZM26,49.016,26.019,49H29a1,1,0,0,1,1,1,1,1,0,0,1-1,1H26ZM26.25,43H26.5A2.206,2.206,0,0,0,29.5,43h.253a1.25,1.25,0,0,1,1,2l-1.517,2.023C29.156,47.017,29.081,47,29,47H26.751l-1.5-2a1.249,1.249,0,0,1,1-2Zm-4.335,2H18V42a4.944,4.944,0,0,0-.5-2.146A6.409,6.409,0,0,1,21.915,45Zm3.044-14.173c.025-.273.042-.549.042-.829V25.184a2.982,2.982,0,0,1-.042,5.645ZM3,28a3,3,0,0,1,2-2.816V30c0,.28.017.555.042.829A3,3,0,0,1,3,28Zm2-6.781V23.1a4.928,4.928,0,0,0-1.45.567A9.562,9.562,0,0,1,3,20.5V18.444A7.444,7.444,0,0,1,14.573,12.25,4.452,4.452,0,0,0,17.05,13H19.5A7.508,7.508,0,0,1,27,20.5a9.552,9.552,0,0,1-.549,3.168A4.928,4.928,0,0,0,25,23.1V21H24a20.285,20.285,0,0,1-9.026-2.131L10.416,16.59l-.364,1.094A4.742,4.742,0,0,1,6.69,20.8ZM7,30V22.781l.176-.043a6.726,6.726,0,0,0,4.322-3.37l2.582,1.291A22.317,22.317,0,0,0,23,22.978V30a7.009,7.009,0,0,1-7,7H14a7.009,7.009,0,0,1-7-7Zm3,16V42a3,3,0,0,1,3-3h0v0h.017A3,3,0,0,1,16,42v3.7l-1.831,2.748,1.664,1.109L17.534,47H23a1,1,0,0,1,1,1v4a1,1,0,0,1-1,1H17a7.007,7.007,0,0,1-7-7ZM28.5,61h-1a3.5,3.5,0,0,1-2.8-5.6L26.5,53h3l1.8,2.4A3.5,3.5,0,0,1,28.5,61Z"/><path d="M57,41H55.816A2.966,2.966,0,0,0,56,40V38a2.984,2.984,0,0,0-.22-1.116A3,3,0,0,0,58,34V32a2.994,2.994,0,0,0-2.613-2.961A15,15,0,1,0,40.548,29H39a3,3,0,0,0-3,3v2a2.984,2.984,0,0,0,.22,1.116A3,3,0,0,0,34,38v2a3,3,0,0,0,3,3h1.184A2.966,2.966,0,0,0,38,44v2a2.966,2.966,0,0,0,.184,1H37a3,3,0,0,0-3,3v2a3,3,0,0,0,3,3h1.184A2.966,2.966,0,0,0,38,56v2a3,3,0,0,0,3,3H57a3,3,0,0,0,3-3V56a3,3,0,0,0-3-3H55.816A2.966,2.966,0,0,0,56,52V50a2.966,2.966,0,0,0-.184-1H57a3,3,0,0,0,3-3V44A3,3,0,0,0,57,41ZM39,16a9,9,0,1,1,9,9A9.01,9.01,0,0,1,39,16ZM49,26.949a10.954,10.954,0,0,0,6.034-2.5l1.414,1.414A12.929,12.929,0,0,1,49,28.95v-2Zm7.448-3.915A10.943,10.943,0,0,0,58.949,17h2a12.926,12.926,0,0,1-3.088,7.447ZM58.949,15a10.954,10.954,0,0,0-2.5-6.034l1.414-1.414A12.929,12.929,0,0,1,60.95,15h-2ZM55.034,7.552A10.946,10.946,0,0,0,49,5.051v-2a12.926,12.926,0,0,1,7.447,3.088ZM47,5.051a10.954,10.954,0,0,0-6.034,2.5L39.552,6.138A12.937,12.937,0,0,1,47,3.051ZM39.552,8.966A10.943,10.943,0,0,0,37.051,15h-2a12.926,12.926,0,0,1,3.088-7.447ZM37.051,17a10.954,10.954,0,0,0,2.5,6.034l-1.414,1.414A12.929,12.929,0,0,1,35.05,17h2Zm3.915,7.448A10.943,10.943,0,0,0,47,26.949v2a12.926,12.926,0,0,1-7.447-3.088ZM38,32a1,1,0,0,1,1-1h1v2h2V31h2v2h2V31h2v2h2V31h2v2h2V31h1a1,1,0,0,1,1,1v2a1,1,0,0,1-1,1H39a1,1,0,0,1-1-1Zm-2,8V38a1,1,0,0,1,1-1h1v2h2V37h2v2h2V37h2v2h2V37h2v2h2V37h1a1,1,0,0,1,1,1v2a1,1,0,0,1-1,1H37A1,1,0,0,1,36,40ZM58,56v2a1,1,0,0,1-1,1H41a1,1,0,0,1-1-1V56a1,1,0,0,1,1-1h1v2h2V55h2v2h2V55h2v2h2V55h2v2h2V55h1A1,1,0,0,1,58,56Zm-4-6v2a1,1,0,0,1-1,1H37a1,1,0,0,1-1-1V50a1,1,0,0,1,1-1h1v2h2V49h2v2h2V49h2v2h2V49h2v2h2V49h1A1,1,0,0,1,54,50Zm4-4a1,1,0,0,1-1,1H41a1,1,0,0,1-1-1V44a1,1,0,0,1,1-1h1v2h2V43h2v2h2V43h2v2h2V43h2v2h2V43h1a1,1,0,0,1,1,1Z"/></g></svg>