<svg xmlns="http://www.w3.org/2000/svg" width="59.915" height="55.834" viewBox="0 0 59.915 55.834"><g transform="translate(0 -8.678)"><path d="M233.594,179.141c.034.14.068.273.1.393A1.027,1.027,0,0,1,233,180.8h0a1.019,1.019,0,0,1-1.269-.685c-.069-.239-.126-.48-.175-.724a2.664,2.664,0,0,0-.965,3.044,4.922,4.922,0,0,1,.052,1.472.148.148,0,0,0,.216.156l.449-.241a.148.148,0,0,1,.219.137,3.323,3.323,0,0,0,.75,2.4,1.73,1.73,0,0,1,.58,1.259.15.15,0,0,0,.25.117c.7-.611,2.049-1.981,1.925-3.455a.146.146,0,0,1,.167-.161l.355.06a.148.148,0,0,0,.17-.114c.154-.72.7-4.053-2.129-4.932Z" transform="translate(-176.558 -130.58)" fill="#52565b"/><path d="M34.116,32.067a2.765,2.765,0,0,1-1.442-.348c-4.287-2.392-13.243,3.341-11.49,10.065a6.492,6.492,0,0,0,1.448,2.741c0-.007,0-.013.006-.02a4.164,4.164,0,0,1,7.3-.988.955.955,0,0,0,1.227.3,4.163,4.163,0,0,1,6.049,4.209c0,.007,0,.013,0,.02a6.494,6.494,0,0,0,2.539-1.779C44.378,41.08,39.021,31.893,34.116,32.067Z" transform="translate(-16.055 -17.226)" fill="#e3e4e5"/><path d="M91.34,108.917a2.665,2.665,0,0,1,.187-1.476c3.426-7.9,2.439-13.292,1.692-15.568a5.589,5.589,0,0,0-1.645-2.531c-2.944-2.51-7.882-1.32-17.606-.307a16.137,16.137,0,0,1-9.192-1.488,6.818,6.818,0,0,1-1.206,1.907,6.493,6.493,0,0,1-2.539,1.779A4.142,4.142,0,0,1,55.421,94.6a3.234,3.234,0,0,1-3.305,1.6c-.021-.005-.041-.013-.062-.018a57.609,57.609,0,0,0,.73,7.093c.954,4.962,5.369,6.463,6.891,6.837a.9.9,0,0,1,.66.671,37.641,37.641,0,0,1,.357,9.925.68.68,0,0,1-.374.546,3.585,3.585,0,0,0-1.9,2.494.5.5,0,0,0,.487.595h5.79a.494.494,0,0,0,.477-.355,3.178,3.178,0,0,0-.251-2.508.965.965,0,0,1-.13-.359c-.12-.851-.47-4.076.727-6.27a9.213,9.213,0,0,0,1.17-4.093.445.445,0,0,1,.536-.421,26.569,26.569,0,0,0,15.607-1.952.957.957,0,0,1,1.284.511,8.116,8.116,0,0,0,3.113,3.567.969.969,0,0,1,.427.965,26.838,26.838,0,0,1-1.954,6.4,1.455,1.455,0,0,1-.748.755,4.117,4.117,0,0,0-2.426,2.97.645.645,0,0,0,.626.792h6a.7.7,0,0,0,.653-.444,2.951,2.951,0,0,0-.017-2.173,1.479,1.479,0,0,1-.055-.925l2.032-7.723a2.67,2.67,0,0,0,.055-1.1Z" transform="translate(-39.875 -60.417)" fill="#e3e4e5"/><path d="M67.861,193.362a.477.477,0,0,1-.022-.115c0-.006,0-.011,0-.017a.472.472,0,0,1,.011-.113,3.585,3.585,0,0,1,1.9-2.494.679.679,0,0,0,.374-.546,37.641,37.641,0,0,0-.357-9.925.9.9,0,0,0-.66-.671,10.72,10.72,0,0,1-3.194-1.379,36.57,36.57,0,0,1,.738,11.975.68.68,0,0,1-.374.546,3.585,3.585,0,0,0-1.9,2.494.5.5,0,0,0,.487.595h3.473a.5.5,0,0,1-.474-.348Z" transform="translate(-49.305 -129.782)" fill="#e3e4e5"/><path d="M175.571,192.678c-.169-.109-.372-.249-.592-.416h0a5.227,5.227,0,0,1-2.667,2.513,28.015,28.015,0,0,1-1.742,5.267,1.455,1.455,0,0,1-.748.755,4.117,4.117,0,0,0-2.426,2.97.645.645,0,0,0,.626.792H171.5a.645.645,0,0,1-.626-.792,4.116,4.116,0,0,1,2.426-2.97,1.454,1.454,0,0,0,.748-.755,26.838,26.838,0,0,0,1.954-6.4.969.969,0,0,0-.427-.965Z" transform="translate(-128.219 -140.631)" fill="#e3e4e5"/><g transform="translate(4.903 16.916)"><path d="M189.523,231.09a2.951,2.951,0,0,0-.017-2.173,1.47,1.47,0,0,1-.083-.323,8.372,8.372,0,0,1-4.325-1.118,1.379,1.379,0,0,1-.433.3,4.117,4.117,0,0,0-2.426,2.97.645.645,0,0,0,.626.792h6A.7.7,0,0,0,189.523,231.09Z" transform="translate(-144.493 -184.523)" fill="#52565b"/><path d="M85.972,233.2a3.178,3.178,0,0,0-.251-2.508,1.037,1.037,0,0,1-.053-.11,8.32,8.32,0,0,1-4.226-.467.686.686,0,0,1-.324.352,3.585,3.585,0,0,0-1.9,2.494.5.5,0,0,0,.487.595h5.79A.494.494,0,0,0,85.972,233.2Z" transform="translate(-65.579 -186.541)" fill="#52565b"/><path d="M170.871,230.742a4.232,4.232,0,0,1,1.474-2.408,9.6,9.6,0,0,1-2.088-.859,1.379,1.379,0,0,1-.433.3,4.117,4.117,0,0,0-2.426,2.97.645.645,0,0,0,.626.792H171.5A.645.645,0,0,1,170.871,230.742Z" transform="translate(-133.123 -184.522)" fill="#52565b"/><path d="M67.848,232.958a3.606,3.606,0,0,1,1.53-2.277,9.291,9.291,0,0,1-2.779-.569.686.686,0,0,1-.324.352,3.585,3.585,0,0,0-1.9,2.494.5.5,0,0,0,.487.595h3.473A.494.494,0,0,1,67.848,232.958Z" transform="translate(-54.208 -186.541)" fill="#52565b"/><path d="M60.714,108.124a4.13,4.13,0,0,1-5.3,2.234,3.234,3.234,0,0,1-3.305,1.6c-.021-.005-.042-.013-.063-.018a57.665,57.665,0,0,0,.731,7.093c.042.216.092.423.146.627a4.54,4.54,0,0,0,.769.068,4.752,4.752,0,0,0,4.756-4.538,3.137,3.137,0,0,1,1.524-2.542c1.465-.887,2.316-2.534,1.617-3.743a1.9,1.9,0,0,0-.879-.784Z" transform="translate(-44.776 -93.094)" fill="#52565b"/><path d="M129.788,97.032a2.838,2.838,0,0,0,5.458-1.092,1.413,1.413,0,0,1,.963-1.325,3.932,3.932,0,0,0,2.616-3.936,3.854,3.854,0,0,0-.19-.99c-2.4.229-5.3.619-8.833.987a18.644,18.644,0,0,1-4.746-.08,4.5,4.5,0,0,0-.108.73,4.631,4.631,0,0,0,3.814,4.836A1.4,1.4,0,0,1,129.788,97.032Z" transform="translate(-100.612 -78.972)" fill="#52565b"/><path d="M205.244,114.214a2.89,2.89,0,0,0-2.83,1.521,1.134,1.134,0,0,1-.9.575,4.279,4.279,0,0,0-.868,8.332,1.121,1.121,0,0,1,.757.9,2.2,2.2,0,0,0,1.877,1.837C205.754,121.437,205.724,116.959,205.244,114.214Z" transform="translate(-156.328 -97.749)" fill="#52565b"/><path d="M124.421,137.561a2.846,2.846,0,0,1-1.956-1.375,2.547,2.547,0,0,0-4.591,2.123,1.34,1.34,0,0,1-.042,1.032,2.891,2.891,0,0,0,2.745,4.2,1.4,1.4,0,0,1,1,.318,3.589,3.589,0,1,0,2.846-6.294Z" transform="translate(-94.927 -113.664)" fill="#52565b"/><path d="M30.1,50.7c.735-3.045-.853-6.041-3.547-6.691a4.67,4.67,0,0,0-3.458.541,7.6,7.6,0,0,0-1.91,6.976,6.492,6.492,0,0,0,1.448,2.741c0-.007,0-.013.006-.02a4.159,4.159,0,0,1,6.68-1.678A6.32,6.32,0,0,0,30.1,50.7Z" transform="translate(-20.959 -43.885)" fill="#52565b"/></g><path d="M113.089,52.605a4.689,4.689,0,0,0-5.509-.556,5.934,5.934,0,0,1-2.857.715,10.337,10.337,0,0,1,.955,3.835c4.084,1.658,6.72-1.742,7.566-3.079A.7.7,0,0,0,113.089,52.605Z" transform="translate(-80.222 -32.726)" fill="#f98080"/><path d="M7.844,30.317l.03-.053q.107-.186.224-.366l.023-.035q.113-.173.233-.342l.022-.031q.128-.177.263-.348l.033-.041a10.9,10.9,0,0,1,1.758-1.739,5.935,5.935,0,0,1-2.217-1.939A4.689,4.689,0,0,0,3.058,23.4a.7.7,0,0,0-.556.742c.143,1.576.939,5.8,5.329,6.191l.012-.021Z" transform="translate(-1.915 -11.18)" fill="#f98080"/><path d="M99.312,38.976a5.934,5.934,0,0,0,2.857-.715,4.412,4.412,0,0,1,.926-.428c.035-.011.071-.02.106-.03a4.972,4.972,0,0,0,1.02-3.607.829.829,0,0,0-1.517-.428c-1.209,1.752-3.557,2.376-5.044,2.6A11.284,11.284,0,0,1,99.312,38.976Z" transform="translate(-74.81 -18.938)" fill="#f4dbce"/><path d="M24.206,16.16A5.935,5.935,0,0,0,26.423,18.1a11.281,11.281,0,0,1,2.657-1.566c-1.222-.876-3.03-2.5-3.307-4.616a.828.828,0,0,0-1.545-.311,4.976,4.976,0,0,0-.739,3.669,4.406,4.406,0,0,1,.717.886Z" transform="translate(-17.907 -1.919)" fill="#f4dbce"/><path d="M228.274,111.564c.548-3.286,4.055-12.611-4.557-13.5a5.878,5.878,0,0,1,1,1.865c.068.207.138.44.206.7,1.2.411,2.306,1.4,2.306,3.641,0,4.514-1.9,9.528-.685,13.743a1.019,1.019,0,0,0,1.269.685h0a1.027,1.027,0,0,0,.693-1.27A13.507,13.507,0,0,1,228.274,111.564Z" transform="translate(-171.375 -68.474)" fill="#e3e4e5"/><path d="M113.089,52.605a4.689,4.689,0,0,0-5.509-.556,5.934,5.934,0,0,1-2.857.715,11.03,11.03,0,0,1,.666,1.882,5.023,5.023,0,0,0,2.711-.8,6.03,6.03,0,0,1,5.244-.618A.7.7,0,0,0,113.089,52.605Z" transform="translate(-80.222 -32.726)" fill="#e3e4e5"/><path d="M10.59,27.361a5.935,5.935,0,0,1-2.217-1.939,4.689,4.689,0,0,0-5.156-2.017.7.7,0,0,0-.51.434,6.031,6.031,0,0,1,4.386,2.941,5.026,5.026,0,0,0,2.046,1.952A11.035,11.035,0,0,1,10.59,27.361Z" transform="translate(-2.074 -11.181)" fill="#e3e4e5"/><path d="M46.532,110.091a.948.948,0,0,0-1.219-.294,4.139,4.139,0,0,1-2.435.436,3.231,3.231,0,0,0,2.209,2.927,3.237,3.237,0,0,0,3.31-1.611A4.144,4.144,0,0,1,46.532,110.091Z" transform="translate(-32.846 -77.376)" fill="#e3e4e5"/><path d="M50.4,110.079a.948.948,0,0,0-1.219-.294,4.145,4.145,0,0,1-1.24.412,2.2,2.2,0,0,0,1.4,1.34,2.222,2.222,0,0,0,1.9-.583A4.124,4.124,0,0,1,50.4,110.079Z" transform="translate(-36.722 -77.366)" fill="#fd605b"/><path d="M167.574,179.989a7.767,7.767,0,0,1-2.521-3.151.957.957,0,0,0-1.284-.511,27.763,27.763,0,0,1-6.057,1.908,5.21,5.21,0,0,0,9.862,1.755Z" transform="translate(-120.813 -128.358)" fill="#fd605b"/><path d="M41.881,82.738a4.163,4.163,0,0,0-6.049-4.209.954.954,0,0,1-1.227-.3,4.167,4.167,0,1,0-1.472,6.116.948.948,0,0,1,1.219.294,4.164,4.164,0,0,0,7.528-1.905Z" transform="translate(-20.721 -51.941)" fill="#f98080"/><path d="M87.24,123.014h-6a1.23,1.23,0,0,1-1.2-1.506,4.719,4.719,0,0,1,2.767-3.379.869.869,0,0,0,.443-.455,26.474,26.474,0,0,0,1.911-6.251.382.382,0,0,0-.165-.383,8.676,8.676,0,0,1-3.338-3.839.372.372,0,0,0-.5-.2,27.208,27.208,0,0,1-15.807,2.023,9.914,9.914,0,0,1-1.234,4.19c-1.13,2.071-.749,5.286-.661,5.909a.382.382,0,0,0,.053.141,3.773,3.773,0,0,1,.311,2.966,1.081,1.081,0,0,1-1.04.783h-5.79a1.08,1.08,0,0,1-.844-.4,1.068,1.068,0,0,1-.214-.9,4.184,4.184,0,0,1,2.207-2.892.1.1,0,0,0,.056-.074A37.068,37.068,0,0,0,57.848,109a.31.31,0,0,0-.23-.234c-1.458-.359-6.3-1.945-7.326-7.295a44.953,44.953,0,0,1-.649-5.839c-.029-.448-.058-.887-.09-1.321a.585.585,0,0,1,.734-.609l.05.015a2.658,2.658,0,0,0,2.684-1.367.585.585,0,0,1,.69-.216,3.525,3.525,0,0,0,.43.137,3.583,3.583,0,0,0,4.394-3.029.584.584,0,0,1,.37-.469,5.948,5.948,0,0,0,2.313-1.622,6.251,6.251,0,0,0,1.1-1.744.585.585,0,0,1,.805-.295,15.654,15.654,0,0,0,8.865,1.428c1.707-.178,3.294-.365,4.7-.529,6.919-.813,10.731-1.262,13.351.973a6.178,6.178,0,0,1,1.821,2.794c.84,2.559,1.735,8.038-1.711,15.983A2.077,2.077,0,0,0,90,106.911l.484,3.064a3.235,3.235,0,0,1-.067,1.337l-2.032,7.723a.888.888,0,0,0,.033.56,3.559,3.559,0,0,1,.019,2.6A1.29,1.29,0,0,1,87.24,123.014ZM81.311,105.8a1.547,1.547,0,0,1,1.429.963,7.5,7.5,0,0,0,2.888,3.3,1.553,1.553,0,0,1,.688,1.547,27.175,27.175,0,0,1-2,6.546,2.034,2.034,0,0,1-1.053,1.055,3.519,3.519,0,0,0-2.085,2.561.064.064,0,0,0,.012.056.052.052,0,0,0,.044.021h6a.116.116,0,0,0,.107-.07,2.354,2.354,0,0,0-.015-1.745,2.053,2.053,0,0,1-.077-1.291l2.032-7.723a2.081,2.081,0,0,0,.043-.857l-.484-3.064a3.243,3.243,0,0,1,.228-1.8c3.292-7.59,2.461-12.751,1.673-15.153a5.011,5.011,0,0,0-1.469-2.268c-2.232-1.9-5.863-1.476-12.456-.7-1.4.165-3,.352-4.71.531a17.037,17.037,0,0,1-8.975-1.286,7.437,7.437,0,0,1-1.047,1.513,7.15,7.15,0,0,1-2.453,1.806,4.751,4.751,0,0,1-5.77,3.672c-.049-.012-.1-.025-.147-.039a3.88,3.88,0,0,1-2.95,1.569q.021.307.04.619a44.008,44.008,0,0,0,.631,5.693,8.28,8.28,0,0,0,6.456,6.38,1.475,1.475,0,0,1,1.09,1.109,38.241,38.241,0,0,1,.37,10.1,1.256,1.256,0,0,1-.692,1.019,2.969,2.969,0,0,0-1.567,1.982h5.611a2.579,2.579,0,0,0-.209-1.979,1.545,1.545,0,0,1-.207-.576c-.136-.966-.481-4.3.793-6.632a8.631,8.631,0,0,0,1.1-3.83,1.023,1.023,0,0,1,.385-.773,1.034,1.034,0,0,1,.85-.205,25.965,25.965,0,0,0,15.252-1.911,1.54,1.54,0,0,1,.638-.139Z" transform="translate(-37.959 -58.501)"/><path d="M160.979,181.575a5.775,5.775,0,0,1-5.764-5.2.585.585,0,0,1,.471-.634,27.351,27.351,0,0,0,5.927-1.866,1.542,1.542,0,0,1,2.067.824,7.2,7.2,0,0,0,2.334,2.906.585.585,0,0,1,.171.723A5.759,5.759,0,0,1,160.979,181.575Zm-4.518-4.8a4.626,4.626,0,0,0,8.448,1.442,8.13,8.13,0,0,1-2.314-3.079.372.372,0,0,0-.5-.2,28.026,28.026,0,0,1-5.634,1.836Z" transform="translate(-118.898 -126.44)"/><path d="M190.169,201.136a.585.585,0,0,1-.524-.323l-.347-.694a.585.585,0,1,1,1.046-.523l.347.694a.585.585,0,0,1-.523.846Z" transform="translate(-144.962 -146.001)"/><path d="M177.962,204.187a.585.585,0,0,1-.585-.573l-.016-.777a.585.585,0,0,1,1.17-.024l.016.777a.585.585,0,0,1-.573.6Z" transform="translate(-135.865 -148.275)"/><path d="M164.445,200.858a.585.585,0,0,1-.51-.872l.425-.757a.585.585,0,1,1,1.02.573l-.425.757A.584.584,0,0,1,164.445,200.858Z" transform="translate(-125.523 -145.74)"/><path d="M155.164,191.844a.585.585,0,0,1-.254-1.112l.718-.345a.585.585,0,1,1,.507,1.054l-.718.345A.582.582,0,0,1,155.164,191.844Z" transform="translate(-118.412 -139.15)"/><path d="M186.955,230.2h-6a1.23,1.23,0,0,1-1.2-1.506,4.719,4.719,0,0,1,2.767-3.379.8.8,0,0,0,.248-.171.586.586,0,0,1,.7-.1,7.828,7.828,0,0,0,4,1.043.587.587,0,0,1,.617.5.88.88,0,0,0,.048.194,3.559,3.559,0,0,1,.019,2.6A1.292,1.292,0,0,1,186.955,230.2Zm.653-1.029h0Zm-4.364-2.917a1.9,1.9,0,0,1-.264.138,3.52,3.52,0,0,0-2.085,2.562.064.064,0,0,0,.012.056.052.052,0,0,0,.044.021h6a.116.116,0,0,0,.107-.07,2.349,2.349,0,0,0,.007-1.688,8.958,8.958,0,0,1-3.826-1.018Z" transform="translate(-137.674 -165.691)"/><path d="M83.579,232.222h-5.79a1.08,1.08,0,0,1-.844-.4,1.068,1.068,0,0,1-.214-.9,4.184,4.184,0,0,1,2.207-2.892.1.1,0,0,0,.048-.053.585.585,0,0,1,.744-.326,7.758,7.758,0,0,0,3.911.441.585.585,0,0,1,.646.335l.025.057a3.768,3.768,0,0,1,.307,2.959,1.08,1.08,0,0,1-1.04.782Zm-5.679-1.17h5.611a2.688,2.688,0,0,0-.091-1.745,9.013,9.013,0,0,1-3.685-.42,1.258,1.258,0,0,1-.268.183A2.969,2.969,0,0,0,77.9,231.052Z" transform="translate(-58.76 -167.71)"/><path d="M66.419,192.379H62.946a1.079,1.079,0,0,1-.844-.4,1.068,1.068,0,0,1-.214-.9,4.184,4.184,0,0,1,2.207-2.892.1.1,0,0,0,.056-.074,33.365,33.365,0,0,0-.518-10.615,11.011,11.011,0,0,1-.221-1.263.585.585,0,0,1,.9-.538,10.156,10.156,0,0,0,3.016,1.3,1.475,1.475,0,0,1,1.09,1.109,38.241,38.241,0,0,1,.37,10.1,1.256,1.256,0,0,1-.692,1.019,2.97,2.97,0,0,0-1.569,1.992.585.585,0,0,1-.109,1.16Zm-3.361-1.17H65.34a1.109,1.109,0,0,1,.02-.134,4.183,4.183,0,0,1,2.207-2.891.1.1,0,0,0,.056-.074,37.069,37.069,0,0,0-.344-9.746.31.31,0,0,0-.23-.234,11.452,11.452,0,0,1-2.262-.827,34.47,34.47,0,0,1,.528,10.905,1.257,1.257,0,0,1-.692,1.019,2.969,2.969,0,0,0-1.567,1.982Z" transform="translate(-47.39 -127.866)"/><path d="M169.58,230.2h-3.473a1.23,1.23,0,0,1-1.2-1.506,4.719,4.719,0,0,1,2.767-3.379.8.8,0,0,0,.249-.172.585.585,0,0,1,.7-.1,9.022,9.022,0,0,0,1.956.8.585.585,0,0,1,.207,1.023,3.641,3.641,0,0,0-1.266,2.077.064.064,0,0,0,.012.056.052.052,0,0,0,.044.021.585.585,0,1,1,0,1.17Zm-1.179-3.947a1.887,1.887,0,0,1-.265.139,3.52,3.52,0,0,0-2.085,2.562.064.064,0,0,0,.012.056.052.052,0,0,0,.044.021h2.247a1.259,1.259,0,0,1,.03-.336,4.984,4.984,0,0,1,.96-2.023C168.964,226.528,168.642,226.378,168.4,226.256Zm.553,2.571h0Z" transform="translate(-126.303 -165.691)"/><path d="M66.419,232.221H62.946a1.079,1.079,0,0,1-.844-.4,1.068,1.068,0,0,1-.214-.9,4.184,4.184,0,0,1,2.207-2.892.1.1,0,0,0,.048-.053.585.585,0,0,1,.744-.325,8.664,8.664,0,0,0,2.6.533.585.585,0,0,1,.3,1.073,2.988,2.988,0,0,0-1.257,1.808.585.585,0,0,1-.109,1.16Zm.085-1.056h0S66.5,231.165,66.5,231.165Zm-3.446-.114H65.34a1.094,1.094,0,0,1,.02-.133,4.383,4.383,0,0,1,.786-1.716,10.3,10.3,0,0,1-1.254-.316,1.266,1.266,0,0,1-.268.183,2.969,2.969,0,0,0-1.567,1.982Zm2.875-.01h0Z" transform="translate(-47.39 -167.709)"/><path d="M169.58,203.228h-3.473a1.23,1.23,0,0,1-1.2-1.506,4.719,4.719,0,0,1,2.767-3.379.869.869,0,0,0,.443-.455,27.317,27.317,0,0,0,1.7-5.152.586.586,0,0,1,.345-.416,4.631,4.631,0,0,0,2.368-2.231.585.585,0,0,1,.879-.208c.185.14.376.275.554.39a1.553,1.553,0,0,1,.688,1.547,27.176,27.176,0,0,1-2,6.546,2.034,2.034,0,0,1-1.053,1.055,3.519,3.519,0,0,0-2.085,2.562.063.063,0,0,0,.012.056.052.052,0,0,0,.044.021.585.585,0,0,1,0,1.17Zm1.324-9.956a28.753,28.753,0,0,1-1.715,5.092,2.034,2.034,0,0,1-1.053,1.055,3.519,3.519,0,0,0-2.085,2.562.063.063,0,0,0,.012.056.052.052,0,0,0,.044.021h2.247a1.259,1.259,0,0,1,.03-.336,4.719,4.719,0,0,1,2.767-3.379.869.869,0,0,0,.443-.455,26.474,26.474,0,0,0,1.911-6.251.383.383,0,0,0-.165-.383l-.086-.056a5.805,5.805,0,0,1-2.349,2.074Z" transform="translate(-126.303 -138.715)"/><path d="M51.793,118.4H51.78a5.169,5.169,0,0,1-.867-.077.585.585,0,0,1-.465-.426c-.066-.249-.116-.461-.155-.667a44.98,44.98,0,0,1-.65-5.84c-.029-.447-.058-.887-.09-1.321a.585.585,0,0,1,.737-.608l.049.015a2.658,2.658,0,0,0,2.684-1.367.586.586,0,0,1,.69-.216,3.525,3.525,0,0,0,.43.137,3.572,3.572,0,0,0,4.121-2.056.585.585,0,0,1,.78-.3,2.475,2.475,0,0,1,1.142,1.023c.824,1.426.024,3.419-1.821,4.536a2.549,2.549,0,0,0-1.242,2.067A5.317,5.317,0,0,1,51.793,118.4Zm-.308-1.182c.1.008.207.015.308.012a4.15,4.15,0,0,0,4.16-3.979,3.717,3.717,0,0,1,1.805-3.017c1.274-.771,1.908-2.095,1.414-2.951a1.259,1.259,0,0,0-.161-.221,4.737,4.737,0,0,1-5.143,2.106c-.049-.012-.1-.025-.147-.039a3.881,3.881,0,0,1-2.95,1.569q.021.306.04.617a44.068,44.068,0,0,0,.631,5.694C51.454,117.079,51.469,117.147,51.484,117.219Z" transform="translate(-37.958 -74.263)"/><path d="M130.492,97.449a3.413,3.413,0,0,1-3.16-2.107.817.817,0,0,0-.587-.519,5.215,5.215,0,0,1-4.3-5.446,5.037,5.037,0,0,1,.121-.825.585.585,0,0,1,.658-.449,18.175,18.175,0,0,0,4.6.077c1.7-.178,3.291-.364,4.689-.528,1.557-.183,2.9-.341,4.149-.46a.586.586,0,0,1,.611.4,4.455,4.455,0,0,1,.218,1.14,4.545,4.545,0,0,1-3.006,4.521.826.826,0,0,0-.573.774A3.427,3.427,0,0,1,130.492,97.449Zm-6.866-8.113c0,.037-.006.073-.008.109a4.045,4.045,0,0,0,3.331,4.225,1.978,1.978,0,0,1,1.464,1.222,2.253,2.253,0,0,0,4.333-.867,2.007,2.007,0,0,1,1.354-1.877,3.327,3.327,0,0,0,2.227-3.352,3.189,3.189,0,0,0-.047-.392c-1.1.111-2.282.25-3.627.408-1.4.165-2.992.351-4.7.53A19.71,19.71,0,0,1,123.626,89.336Z" transform="translate(-93.794 -60.141)"/><path d="M201.368,126.046a.594.594,0,0,1-.079-.005,2.794,2.794,0,0,1-2.377-2.328.533.533,0,0,0-.357-.428,4.864,4.864,0,0,1,.988-9.471.556.556,0,0,0,.44-.268,3.478,3.478,0,0,1,3.4-1.828.585.585,0,0,1,.522.481c.489,2.79.539,7.394-2,13.486a.585.585,0,0,1-.54.36Zm1.462-13.162a2.306,2.306,0,0,0-1.814,1.212,1.714,1.714,0,0,1-1.356.883,3.694,3.694,0,0,0-.748,7.193,1.712,1.712,0,0,1,1.156,1.364,1.614,1.614,0,0,0,.952,1.227,23.185,23.185,0,0,0,1.809-11.879Z" transform="translate(-149.511 -78.92)"/><path d="M121.969,143.37a4.142,4.142,0,0,1-2.687-.984.828.828,0,0,0-.584-.181,3.478,3.478,0,0,1-3.68-3.472,3.433,3.433,0,0,1,.378-1.574.79.79,0,0,0,.007-.583,3.136,3.136,0,0,1,.447-2.81,3.13,3.13,0,0,1,5.2.2,2.267,2.267,0,0,0,1.546,1.1,4.175,4.175,0,0,1-.255,8.287c-.123.011-.246.016-.368.016Zm-3.212-2.336a1.971,1.971,0,0,1,1.279.459,3,3,0,1,0,2.381-5.269,3.43,3.43,0,0,1-2.366-1.646,1.963,1.963,0,0,0-3.538,1.633,1.917,1.917,0,0,1-.076,1.481,2.3,2.3,0,0,0,.477,2.724,2.3,2.3,0,0,0,1.711.623C118.67,141.035,118.714,141.034,118.758,141.034Z" transform="translate(-88.108 -94.833)"/><path d="M231.087,186.449a.743.743,0,0,1-.331-.078.727.727,0,0,1-.4-.7c.009-.125-.036-.4-.427-.823a3.588,3.588,0,0,1-.89-2.112.733.733,0,0,1-.888-.85,4.238,4.238,0,0,0-.053-1.254,3.231,3.231,0,0,1,1.21-3.634.585.585,0,0,1,.9.366c.05.246.1.468.165.679a.414.414,0,0,0,.2.248.443.443,0,0,0,.64-.514c-.036-.127-.072-.267-.108-.415a.585.585,0,0,1,.742-.7c1.689.525,3.241,2.275,2.528,5.613a.731.731,0,0,1-.686.579,5.769,5.769,0,0,1-2.121,3.411A.735.735,0,0,1,231.087,186.449Zm-1.629-5.141a.732.732,0,0,1,.732.773,2.771,2.771,0,0,0,.6,1.974,3.144,3.144,0,0,1,.559.812,3.532,3.532,0,0,0,1.183-2.447.732.732,0,0,1,.235-.6.72.72,0,0,1,.541-.19c.131-.9.177-2.513-.938-3.4a1.611,1.611,0,0,1-2.356,1.086,1.578,1.578,0,0,1-.652-.671,2.613,2.613,0,0,0-.117,1.753,6.616,6.616,0,0,1,.1.919A.724.724,0,0,1,229.458,181.308Zm4.273.386h0Z" transform="translate(-174.639 -128.663)"/><path d="M225.607,117.411a1.607,1.607,0,0,1-.776-.2,1.574,1.574,0,0,1-.762-.95c-.788-2.742-.324-5.781.124-8.72a35.416,35.416,0,0,0,.537-5.185,2.867,2.867,0,0,0-1.912-3.088.585.585,0,0,1-.375-.4c-.061-.23-.127-.455-.2-.666a5.272,5.272,0,0,0-.9-1.68.585.585,0,0,1,.515-.95,6.708,6.708,0,0,1,5.05,2.537c2.026,2.833,1.023,7.187.359,10.069-.142.617-.265,1.149-.335,1.57a13.011,13.011,0,0,0,.225,5.609,1.614,1.614,0,0,1-1.553,2.058ZM223.5,98.274a4,4,0,0,1,2.406,4.082,36.278,36.278,0,0,1-.551,5.362c-.43,2.814-.874,5.724-.157,8.22a.413.413,0,0,0,.2.248.443.443,0,0,0,.64-.514,14.027,14.027,0,0,1-.253-6.119c.076-.456.2-1.005.349-1.64.617-2.676,1.549-6.721-.171-9.125A4.864,4.864,0,0,0,223,96.943a6.767,6.767,0,0,1,.363.891C223.407,97.976,223.452,98.123,223.5,98.274Z" transform="translate(-169.46 -66.559)"/><path d="M35.837,85.062a4.737,4.737,0,0,1-3.866-2,.362.362,0,0,0-.472-.114,4.752,4.752,0,1,1,1.678-6.974.369.369,0,0,0,.481.116,4.748,4.748,0,0,1,6.9,4.8,4.753,4.753,0,0,1-4.72,4.167Zm-4.161-3.327a1.526,1.526,0,0,1,1.249.652A3.583,3.583,0,1,0,34.2,77.13a1.535,1.535,0,0,1-1.974-.476,3.581,3.581,0,0,0-6.067,3.777,3.575,3.575,0,0,0,4.8,1.481A1.552,1.552,0,0,1,31.676,81.735Z" transform="translate(-18.816 -50.024)"/><path d="M43.741,111.891a3.016,3.016,0,0,1-.708-.084,3.782,3.782,0,0,1-2.652-3.42.585.585,0,0,1,.653-.656,3.546,3.546,0,0,0,2.092-.374,1.526,1.526,0,0,1,1.967.474,3.553,3.553,0,0,0,1.6,1.252.585.585,0,0,1,.269.874A4.024,4.024,0,0,1,43.741,111.891Zm-2.051-2.966a2.154,2.154,0,0,0,3.878.9,4.709,4.709,0,0,1-1.429-1.321.362.362,0,0,0-.472-.114,4.707,4.707,0,0,1-1.977.531Z" transform="translate(-30.93 -75.455)"/><path d="M43.741,111.891a3.016,3.016,0,0,1-.708-.084,3.782,3.782,0,0,1-2.652-3.42.585.585,0,0,1,.653-.656,3.546,3.546,0,0,0,2.092-.374,1.526,1.526,0,0,1,1.967.474,3.553,3.553,0,0,0,1.6,1.252.585.585,0,0,1,.269.874A4.024,4.024,0,0,1,43.741,111.891Zm-2.051-2.966a2.154,2.154,0,0,0,3.878.9,4.709,4.709,0,0,1-1.429-1.321.362.362,0,0,0-.472-.114,4.707,4.707,0,0,1-1.977.531Z" transform="translate(-30.93 -75.455)"/><path d="M39.458,88.166a.584.584,0,0,1-.472-.238,1.569,1.569,0,1,1,2.789-.562.585.585,0,1,1-1.137-.274.4.4,0,1,0-.71.143.585.585,0,0,1-.47.931Z" transform="translate(-29.631 -58.793)"/><path d="M68.677,95.194a.585.585,0,0,1-.262-1.108.4.4,0,1,0-.566-.451.585.585,0,1,1-1.137-.274,1.569,1.569,0,1,1,2.226,1.772A.577.577,0,0,1,68.677,95.194Z" transform="translate(-51.091 -63.949)"/><path d="M35.3,46.7a.585.585,0,0,1-.58-.662c0-.008,0-.02,0-.031a3.579,3.579,0,0,0-5.2-3.6,1.535,1.535,0,0,1-1.973-.476,3.579,3.579,0,0,0-6.271.834l-.009.028a.585.585,0,0,1-.988.2A7.106,7.106,0,0,1,18.7,40.007c-.843-3.235.533-6.62,3.682-9.056,2.919-2.258,6.4-2.928,8.659-1.667a2.173,2.173,0,0,0,1.136.274c2.582-.095,5.378,2.091,6.946,5.432,1.691,3.6,1.373,7.245-.853,9.739a7.106,7.106,0,0,1-2.765,1.935.581.581,0,0,1-.209.039Zm-4.137-5.87A4.76,4.76,0,0,1,35.9,45.182a6.13,6.13,0,0,0,1.5-1.233c1.9-2.133,2.153-5.3.667-8.463-1.35-2.877-3.758-4.835-5.845-4.76a3.355,3.355,0,0,1-1.748-.422c-1.828-1.02-4.86-.374-7.373,1.57-2.766,2.14-3.988,5.07-3.266,7.836a6.136,6.136,0,0,0,.771,1.78A4.761,4.761,0,0,1,25.291,39.3,4.712,4.712,0,0,1,28.5,41.253a.37.37,0,0,0,.481.116,4.716,4.716,0,0,1,2.178-.536Z" transform="translate(-14.14 -15.301)"/><path d="M20.717,52.941a.584.584,0,0,1-.436-.195A7.106,7.106,0,0,1,18.7,49.763a8.132,8.132,0,0,1,2.036-7.508.585.585,0,0,1,.147-.122,5.271,5.271,0,0,1,3.889-.6c3,.725,4.788,4.043,3.979,7.4a6.9,6.9,0,0,1-.854,2.041.585.585,0,0,1-.886.126,3.574,3.574,0,0,0-5.735,1.428l-.009.028a.585.585,0,0,1-.552.391Zm.838-9.843a6.972,6.972,0,0,0-1.721,6.369,6.136,6.136,0,0,0,.771,1.78,4.746,4.746,0,0,1,6.612-1.466,5.779,5.779,0,0,0,.4-1.129c.658-2.727-.74-5.412-3.116-5.986A4.092,4.092,0,0,0,21.555,43.1Zm6.629,5.691h0Z" transform="translate(-14.141 -25.058)"/><path d="M105.917,55.691a6.275,6.275,0,0,1-2.374-.49.585.585,0,0,1-.365-.518,9.784,9.784,0,0,0-.9-3.616.585.585,0,0,1,.516-.828,5.412,5.412,0,0,0,2.568-.629,5.254,5.254,0,0,1,6.184.6,1.285,1.285,0,0,1,.281,1.68C111.182,52.906,109.124,55.691,105.917,55.691Zm-1.594-1.448c3.434,1.159,5.687-1.672,6.512-2.977a.113.113,0,0,0-.032-.148,4.114,4.114,0,0,0-4.834-.51,5.835,5.835,0,0,1-2.311.738,10.886,10.886,0,0,1,.664,2.9Z" transform="translate(-78.306 -30.787)"/><path d="M103.527,53.293h-.059a.585.585,0,0,1-.56-.441,10.467,10.467,0,0,0-.631-1.782.585.585,0,0,1,.516-.828,5.412,5.412,0,0,0,2.568-.629,5.254,5.254,0,0,1,6.184.6h0a1.287,1.287,0,0,1,.468,1.133.585.585,0,0,1-.773.492,5.427,5.427,0,0,0-4.748.564A5.653,5.653,0,0,1,103.527,53.293Zm.132-1.945q.141.376.255.755a4.675,4.675,0,0,0,1.966-.7,6.784,6.784,0,0,1,3.677-1.036,3.9,3.9,0,0,0-3.587.241A5.834,5.834,0,0,1,103.659,51.348Z" transform="translate(-78.307 -30.788)"/><path d="M5.917,29.008l-.051,0C.955,28.573.138,23.752,0,22.285A1.284,1.284,0,0,1,1.02,20.918,5.254,5.254,0,0,1,6.8,23.2a5.413,5.413,0,0,0,2,1.731.585.585,0,0,1,.081.972A10.292,10.292,0,0,0,7.214,27.55l-.015.018-.017.021c-.084.107-.167.216-.247.327l-.5-.311.476.34q-.113.158-.219.321l-.013.02c-.081.126-.151.24-.217.355l-.021.037-.009.017-.009.015a.584.584,0,0,1-.509.3Zm.012-.606-.01-.006.01.006-.01-.005ZM2.336,21.946a5.118,5.118,0,0,0-1.071.116.113.113,0,0,0-.1.117c.14,1.538.854,5.084,4.437,5.619l.084-.132.018-.027c.087-.133.169-.254.255-.374l.023-.033q.135-.187.279-.369l.024-.03a11.352,11.352,0,0,1,1.231-1.31A5.837,5.837,0,0,1,5.8,23.812a3.95,3.95,0,0,0-3.464-1.866Z" transform="translate(0 -9.266)"/><path d="M7.223,27.4a.583.583,0,0,1-.26-.061,5.628,5.628,0,0,1-2.284-2.17A5.428,5.428,0,0,0,.71,22.5a.585.585,0,0,1-.464-.79,1.285,1.285,0,0,1,.933-.795A5.254,5.254,0,0,1,6.956,23.2a5.413,5.413,0,0,0,2,1.731.585.585,0,0,1,.081.972,10.479,10.479,0,0,0-1.375,1.3.584.584,0,0,1-.439.2ZM2.875,21.962a6.746,6.746,0,0,1,2.8,2.6A4.674,4.674,0,0,0,7.107,26.08q.274-.285.571-.556a5.832,5.832,0,0,1-1.72-1.711,3.9,3.9,0,0,0-3.083-1.851Z" transform="translate(-0.158 -9.266)"/><path d="M97.4,37.643a.585.585,0,0,1-.532-.342A10.754,10.754,0,0,0,95.3,34.83a.585.585,0,0,1,.359-.958c1.26-.189,3.54-.746,4.65-2.353a1.413,1.413,0,0,1,2.582.733,5.44,5.44,0,0,1-1.168,4.024.585.585,0,0,1-.268.17l-.091.026a3.852,3.852,0,0,0-.8.371,6.552,6.552,0,0,1-3.146.8Zm-.6-2.8a11.893,11.893,0,0,1,.962,1.607,5.02,5.02,0,0,0,2.192-.61,5.009,5.009,0,0,1,1-.469,4.473,4.473,0,0,0,.769-3.069.232.232,0,0,0-.174-.228.239.239,0,0,0-.277.105A7.264,7.264,0,0,1,96.8,34.847Z" transform="translate(-72.896 -17.02)"/><path d="M24.5,16.765a.585.585,0,0,1-.281-.072,6.551,6.551,0,0,1-2.435-2.147,3.839,3.839,0,0,0-.623-.768A.585.585,0,0,1,21,13.5,5.443,5.443,0,0,1,21.8,9.4a1.414,1.414,0,0,1,2.632.525c.254,1.938,2.032,3.474,3.068,4.217a.585.585,0,0,1-.117,1.016,10.768,10.768,0,0,0-2.518,1.485A.58.58,0,0,1,24.5,16.765Zm-2.4-3.707a4.982,4.982,0,0,1,.685.878,5.015,5.015,0,0,0,1.673,1.542,11.911,11.911,0,0,1,1.586-.99,7.267,7.267,0,0,1-2.771-4.415.239.239,0,0,0-.2-.22.23.23,0,0,0-.258.124,4.472,4.472,0,0,0-.715,3.081Z" transform="translate(-15.987)"/><path d="M82.36,70.434a.592.592,0,0,1-.136-.016.585.585,0,0,1-.434-.7.662.662,0,0,0-1.288-.306.585.585,0,1,1-1.138-.271,1.831,1.831,0,1,1,3.563.848.584.584,0,0,1-.568.449Z" transform="translate(-60.784 -45.235)"/><path d="M39.365,60.061a.579.579,0,0,1-.138-.016.585.585,0,0,1-.431-.706.662.662,0,1,0-1.286-.31.585.585,0,0,1-1.137-.274,1.831,1.831,0,1,1,3.561.859.585.585,0,0,1-.568.448Z" transform="translate(-27.85 -37.285)"/><path d="M47.8,110.245a2.2,2.2,0,0,1-.516-.061,2.752,2.752,0,0,1-1.8-1.664.585.585,0,0,1,.436-.822,3.554,3.554,0,0,0,1.065-.353,1.527,1.527,0,0,1,1.967.474,3.546,3.546,0,0,0,.721.751.585.585,0,0,1,.008.918A3.039,3.039,0,0,1,47.8,110.245Zm-.867-1.6a1.227,1.227,0,0,0,.625.405,1.263,1.263,0,0,0,.8-.1A4.675,4.675,0,0,1,48,108.5a.362.362,0,0,0-.472-.114A4.694,4.694,0,0,1,46.937,108.641Z" transform="translate(-34.807 -75.446)"/></g></svg>