<svg xmlns="http://www.w3.org/2000/svg" width="129" height="129" viewBox="0 0 129 129"><g transform="translate(-725 2294)"><circle cx="64.5" cy="64.5" r="64.5" transform="translate(725 -2294)" fill="#a3314f"/><g transform="translate(749.854 -2265)"><g transform="translate(14.004 1.394)"><path d="M87.629,33.134c14.835,3.875,19.537,4.135,33.262,5.77l-.945-8.719c-.284-2.6-.15-3.418,1.15-4.694,2.052-2.02,5.147-3.572,5.521-9.625-6.675,1.705-8.05,2.769-13.811-.784C95.592,4.463,86.605,13.222,80.682,17.6c-5.427-1.977-10.243,1.9-11.023,7.156C68.9,29.826,68.9,31.5,68.9,38.9a22.879,22.879,0,0,1,11.279-6.514C83.293,31.511,84.6,32.342,87.629,33.134Z" transform="translate(-68.899 -10.034)" fill="#ffda8f" fill-rule="evenodd"/></g><g transform="translate(14.004 23.373)"><path d="M104.8,207.948c8.2-4.458,14.674-13.221,15.891-21.027a16.9,16.9,0,0,0,.2-2.568v-9.239c-13.725-1.634-18.427-1.894-33.262-5.77-3.024-.792-4.336-1.623-7.451-.744A22.879,22.879,0,0,0,68.9,175.115v9.239a16.9,16.9,0,0,0,.2,2.568c1.217,7.806,7.687,16.568,15.891,21.027,2.39-.374,4.237-1.272,4.237-3.6a4.523,4.523,0,0,1,.54-2.221h-.437a3.156,3.156,0,0,1-3.253-3.025c0-4.529,3.946-8.2,8.814-8.2s8.814,3.671,8.814,8.2a3.154,3.154,0,0,1-3.253,3.025h-.437a4.523,4.523,0,0,1,.54,2.221c0,2.331,1.847,3.229,4.237,3.6Z" transform="translate(-68.9 -168.224)" fill="#ffdcd5" fill-rule="evenodd"/></g><g transform="translate(31.186 46.048)"><path d="M201.378,340.151c2.257,0,4.218.843,5.124,2.493h.437a3.153,3.153,0,0,0,3.253-3.025c0-4.529-3.946-8.2-8.814-8.2s-8.814,3.671-8.814,8.2a3.156,3.156,0,0,0,3.253,3.025h.437C197.16,340.994,199.121,340.151,201.378,340.151Z" transform="translate(-192.564 -331.42)" fill="#ff9eb1" fill-rule="evenodd"/></g><g transform="translate(18.323 54.779)"><path d="M121.659,409.231H141a2.249,2.249,0,0,0,1.142-.3c1.678-.965,1.816-4.041-1.107-5.4-1.949-.9-6.218-.445-9.479-.961-2.39-.374-4.237-1.272-4.237-3.6a4.523,4.523,0,0,0-.54-2.221c-.906-1.65-2.867-2.493-5.124-2.493s-4.218.843-5.124,2.493a4.523,4.523,0,0,0-.54,2.221c0,2.331-1.847,3.229-4.237,3.6-3.261.516-7.53.059-9.479.961-2.922,1.355-2.784,4.431-1.107,5.4a2.259,2.259,0,0,0,1.142.3Z" transform="translate(-99.982 -394.261)" fill="#e0ef9b" fill-rule="evenodd"/></g><g transform="translate(6.535 30.263)"><path d="M20.57,229.621h2.249a16.9,16.9,0,0,1-.2-2.568v-9.239H19.231c-5.911,0-5.36,11.807,1.339,11.807Z" transform="translate(-15.145 -217.814)" fill="#ffdcd5" fill-rule="evenodd"/></g><g transform="translate(65.791 30.263)"><path d="M443.875,229.621c6.7,0,7.25-11.807,1.339-11.807h-3.383v9.239a16.9,16.9,0,0,1-.2,2.568Z" transform="translate(-441.626 -217.814)" fill="#ffdcd5" fill-rule="evenodd"/></g><g transform="translate(5.146 0)"><path d="M73.586,31.069a5.009,5.009,0,0,0-4.206-2.2H67.243l-.811-7.481c-.269-2.465-.1-2.726.743-3.554.313-.308.665-.615,1.037-.94a12.138,12.138,0,0,0,4.9-9.59,1.389,1.389,0,0,0-1.73-1.432c-.807.206-1.547.406-2.2.582-4.829,1.3-5.976,1.611-10.538-1.2C51.28.718,44.688-.859,38.487.437c-5.266,1.1-9.1,4.035-12.186,6.392q-.4.3-.772.588a9.079,9.079,0,0,0-7.226.9,10.653,10.653,0,0,0-4.913,7.59,69.694,69.694,0,0,0-.775,12.962H10.621a5.009,5.009,0,0,0-4.206,2.2A7.786,7.786,0,0,0,5.146,35.5c0,3.856,2.388,7.955,6.814,7.955h1.1a28.6,28.6,0,0,0,4.427,9.9,35.939,35.939,0,0,0,8.333,8.65l-.076,0c-2.213.069-4.3.134-5.706.783a4.815,4.815,0,0,0-3,5.357,3.678,3.678,0,0,0,3.623,2.984H33.762a1.389,1.389,0,0,0,0-2.779H20.656a.93.93,0,0,1-.91-.8A2.08,2.08,0,0,1,21.2,65.319a15.522,15.522,0,0,1,4.626-.527,24.294,24.294,0,0,0,6.157-.7c3.091-.958,3.74-3.031,3.74-4.6a3.245,3.245,0,0,1,.32-1.474,1.382,1.382,0,0,0,.095-.175c.913-1.53,3.076-1.676,3.859-1.676s2.946.146,3.859,1.676a1.392,1.392,0,0,0,.095.175,3.245,3.245,0,0,1,.32,1.474c0,1.57.649,3.642,3.74,4.6a24.288,24.288,0,0,0,6.157.7,15.533,15.533,0,0,1,4.625.527,2.082,2.082,0,0,1,1.459,2.238.929.929,0,0,1-.911.8H46.238a1.389,1.389,0,0,0,0,2.779H59.344a3.679,3.679,0,0,0,3.624-2.983A4.816,4.816,0,0,0,59.963,62.8c-1.4-.648-3.492-.713-5.705-.782l-.076,0a35.939,35.939,0,0,0,8.333-8.65,28.6,28.6,0,0,0,4.427-9.9h1.1c4.426,0,6.814-4.1,6.814-7.955a7.785,7.785,0,0,0-1.269-4.436ZM16.138,16.32a7.852,7.852,0,0,1,3.586-5.611,6.325,6.325,0,0,1,5.587-.443,1.39,1.39,0,0,0,1.3-.188c.444-.329.9-.675,1.376-1.041C33.922,4.5,42.047-1.712,57.182,7.623c5.584,3.443,7.673,2.88,12.72,1.52l.182-.049a9.433,9.433,0,0,1-3.7,5.712c-.387.337-.787.687-1.158,1.052-1.787,1.754-1.846,3.192-1.558,5.836l.757,6.985-2.774-.324A166.393,166.393,0,0,1,33.086,23.15c-.572-.15-1.077-.3-1.566-.445a12.74,12.74,0,0,0-3.791-.721,10.287,10.287,0,0,0-2.821.428A23.506,23.506,0,0,0,15.4,27.139a59.873,59.873,0,0,1,.742-10.819ZM11.96,40.681c-2.961,0-4.036-3.1-4.036-5.176a5.011,5.011,0,0,1,.766-2.842,2.216,2.216,0,0,1,1.93-1.01h1.994V39.5q0,.582.042,1.179h-.7ZM40,53.39a7.2,7.2,0,0,0-5.855,2.47,1.743,1.743,0,0,1-1.569-1.612c0-3.755,3.331-6.81,7.424-6.81s7.424,3.055,7.424,6.81a1.719,1.719,0,0,1-1.568,1.613A7.2,7.2,0,0,0,40,53.39Zm9.672,8.244c-1.763-.338-2.62-.956-2.62-2.141a6.586,6.586,0,0,0-.082-1.041A4.451,4.451,0,0,0,50.2,54.247c0-5.287-4.577-9.589-10.2-9.589s-10.2,4.3-10.2,9.589a4.452,4.452,0,0,0,3.232,4.205,6.586,6.586,0,0,0-.082,1.041c0,1.185-.857,1.8-2.62,2.141-8.409-4.773-14.935-14.4-14.935-22.132V30.854A21.2,21.2,0,0,1,25.66,25.086a7.539,7.539,0,0,1,5.068.281c.487.145,1.038.309,1.655.47a168.578,168.578,0,0,0,28.949,5.277c1.036.12,2.123.247,3.274.383v8c0,7.73-6.525,17.359-14.935,22.132ZM68.04,40.681h-.7q.041-.6.042-1.179v-7.85h1.994a2.216,2.216,0,0,1,1.93,1.01,5.01,5.01,0,0,1,.766,2.842C72.076,37.585,71,40.681,68.04,40.681Z" transform="translate(-5.146 0)"/><path d="M317.7,248.437a1.389,1.389,0,0,0-1.876-.585l-6.352,3.332a1.389,1.389,0,0,0,0,2.461l6.352,3.332a1.389,1.389,0,0,0,1.29-2.461l-4.007-2.1,4.007-2.1a1.389,1.389,0,0,0,.585-1.876Z" transform="translate(-266.547 -213.278)"/><path d="M145.941,251.184l-6.352-3.332a1.389,1.389,0,0,0-1.29,2.461l4.007,2.1-4.007,2.1a1.389,1.389,0,1,0,1.29,2.461l6.352-3.332a1.389,1.389,0,0,0,0-2.461Z" transform="translate(-119.157 -213.278)"/><path d="M247.39,492a1.389,1.389,0,1,0,0,2.779h.008A1.389,1.389,0,1,0,247.39,492Z" transform="translate(-212.536 -423.642)"/></g></g></g></svg>