<svg xmlns="http://www.w3.org/2000/svg" width="129" height="129" viewBox="0 0 129 129"><g transform="translate(-745.615 -8930)"><circle cx="64.5" cy="64.5" r="64.5" transform="translate(745.615 8930)" fill="#a3314f"/><g transform="translate(771.763 8907.09)"><g transform="translate(0 58.16)"><g transform="translate(1.494 1.505)"><g transform="translate(8.573 22.405)"><path d="M92.419,237.933a2.983,2.983,0,0,1-5.418,0L81.945,226.88H67.4c7.356,12.314,21.461,23.269,28.169,25.061,6.707-1.792,20.812-12.747,28.169-25.061H107.281a2.99,2.99,0,0,1-2.817-1.988l-3.04-6.645Z" transform="translate(-67.398 -218.247)" fill="#ff5d7d" fill-rule="evenodd"/></g><g transform="translate(0 12.274)"><path d="M18.573,169.181H33.12l5.056,11.052a2.983,2.983,0,0,0,5.418,0L52.6,160.548l3.04,6.645a2.99,2.99,0,0,0,2.817,1.988H83.483V163.2H60.363l-5.056-11.052a2.983,2.983,0,0,0-5.418,0l-9.005,19.685-3.148-6.882a2.979,2.979,0,0,0-2.709-1.741L10,163.2v5.978Z" transform="translate(-10 -150.417)" fill="#fff" fill-rule="evenodd"/></g><g transform="translate(3.885)"><path d="M63.011,101.928l9.005-19.685a2.983,2.983,0,0,1,5.418,0L82.49,93.295h17.5c2.773-7.194,2.587-14.425-3.229-20.222a16.727,16.727,0,0,0-23.533,0,6.083,6.083,0,0,1-8.716,0,16.727,16.727,0,0,0-23.533,0c-5.816,5.8-6,13.029-3.228,20.223h0l19.405.008a2.979,2.979,0,0,1,2.709,1.741Z" transform="translate(-36.012 -68.234)" fill="#ff5d7d" fill-rule="evenodd"/></g></g><g transform="translate(0 0)"><g transform="translate(3.882)"><path d="M60.345,117.257a1.493,1.493,0,0,1-.385-.051c-3.626-.969-9-4.278-14.379-8.852a71.008,71.008,0,0,1-14.623-16.78,1.494,1.494,0,1,1,2.561-1.538,67.955,67.955,0,0,0,14,16.043c4.783,4.069,9.643,7.143,12.829,8.13,3.186-.987,8.046-4.061,12.829-8.13a67.954,67.954,0,0,0,14-16.043,1.494,1.494,0,0,1,2.561,1.538,71,71,0,0,1-14.623,16.78c-5.378,4.575-10.753,7.884-14.379,8.852a1.49,1.49,0,0,1-.385.051ZM29.187,86.119a1.494,1.494,0,0,1-1.4-.962c-2.217-5.811-2.386-11.081-.5-15.666a1.494,1.494,0,1,1,2.763,1.136c-1.586,3.858-1.408,8.388.529,13.465a1.494,1.494,0,0,1-1.395,2.026Zm62.316,0a1.494,1.494,0,0,1-1.395-2.026c2.864-7.506,1.88-13.741-2.926-18.531a15.2,15.2,0,0,0-21.424,0,7.59,7.59,0,0,1-10.825,0,15.211,15.211,0,0,0-16.308-3.346,1.494,1.494,0,1,1-1.092-2.78,18.2,18.2,0,0,1,19.509,4.011,4.586,4.586,0,0,0,6.607,0,18.193,18.193,0,0,1,25.642,0c5.636,5.619,6.884,13.126,3.608,21.712a1.5,1.5,0,0,1-1.4.961Z" transform="translate(-25.992 -58.16)"/></g><g transform="translate(0 12.285)"><path d="M32.388,174.953h0a4.429,4.429,0,0,1-4.077-2.608l-4.656-10.178H1.494a1.494,1.494,0,1,1,0-2.987h23.12a1.494,1.494,0,0,1,1.358.872L31.027,171.1a1.472,1.472,0,0,0,1.361.862h0a1.43,1.43,0,0,0,1.34-.861l9.005-19.686a1.494,1.494,0,0,1,2.716,0l3.04,6.645c.018.04.035.08.049.121a1.5,1.5,0,0,0,1.41.995H74.977a1.494,1.494,0,1,1,0,2.987H49.949a4.492,4.492,0,0,1-4.2-2.914l-1.657-3.622-7.647,16.717a4.414,4.414,0,0,1-4.056,2.607Zm-.01-10.131a1.494,1.494,0,0,1-1.358-.872l-3.148-6.882a1.491,1.491,0,0,0-1.352-.869l-25.027-.01a1.494,1.494,0,0,1,0-2.987h0l25.027.01a4.485,4.485,0,0,1,4.067,2.614l1.79,3.913,7.647-16.716a4.428,4.428,0,0,1,4.076-2.607h0a4.414,4.414,0,0,1,4.057,2.607L52.816,153.2H74.977a1.494,1.494,0,1,1,0,2.987H51.857a1.494,1.494,0,0,1-1.358-.872l-5.056-11.052a1.43,1.43,0,0,0-1.34-.862,1.471,1.471,0,0,0-1.36.861L33.736,163.95a1.494,1.494,0,0,1-1.358.872Z" transform="translate(0 -140.415)"/></g><g transform="translate(8.85 4.849)"><path d="M60.747,93.617a1.494,1.494,0,0,1,0-2.987h0a1.494,1.494,0,0,1,0,2.987Z" transform="translate(-59.253 -90.63)"/></g></g></g></g></g></svg>