<svg xmlns="http://www.w3.org/2000/svg" width="129" height="129" viewBox="0 0 129 129"><g transform="translate(-368 2658)"><circle cx="64.5" cy="64.5" r="64.5" transform="translate(368 -2658)" fill="#a3314f"/><g transform="translate(396 -2630.997)"><g transform="translate(13.018 1.153)"><path d="M309.031,345.324c0-12-5.22-19.806-14.422-26.808,0,0-8,7.978-16.644,10.727a74.521,74.521,0,0,0-1.874,16.082v1.156h32.94Z" transform="translate(-249.205 -273.637)" fill="#96e0d7"/><path d="M241.25,381.969v-1.156c2.313-2.312,2.313-3.185,2.313-6.937V370.7a2.329,2.329,0,1,0-4.625,0v4.114l-2.312-5.559,1.471-5.885A2.708,2.708,0,0,0,235.469,360L232,369.25l2.313,11.563v1.156Z" transform="translate(-211.487 -309.125)" fill="#ffdfc5"/><path d="M354.385,363.772A28.362,28.362,0,0,1,337.657,385.2H361.7v-1.156C361.7,375.605,359.115,369.242,354.385,363.772Z" transform="translate(-301.873 -312.352)" fill="#97d0dd"/><path d="M190.419,173.625c-9.831-.813-12.374-9.707-14.037-15.56a2.884,2.884,0,0,0-4.145-1.9l-10.358,2.943a10.443,10.443,0,0,1-5.617.064l.031.106,2.212,7.786-2.294,5.675,4.247,1.2,1.422,5.005a4.047,4.047,0,0,0,5,2.787l8.342-2.37,1.58,5.561s-.662,1.97-1.389,5.19c8.641-2.748,16.644-10.727,16.644-10.727Z" transform="translate(-146.652 -134.506)" fill="#ffdfc5"/><path d="M99.68,32.669A10.439,10.439,0,0,0,105.3,32.6l10.358-2.943a2.884,2.884,0,0,1,4.145,1.9c1.664,5.855,4.206,14.748,14.037,15.561,8.929-21.819,1.57-38.719-6.967-36.626-7.1-8.659-23.3,7.827-31.926,10.277-3.234.919-4.874-.882-4.874-.882S92.3,30.578,99.68,32.669Z" transform="translate(-90.07 -8)" fill="#68676b"/><path d="M311.08,45.663A31.274,31.274,0,0,1,297.193,64.5c1.674,5.836,4.4,14.06,13.832,14.84C317.244,64.141,315.56,51.332,311.08,45.663Z" transform="translate(-267.257 -40.219)" fill="#58575b"/><path d="M365.609,390.708a6.938,6.938,0,1,0-13.875.058l.038,11.563,13.875-.058Z" transform="translate(-313.915 -329.485)" fill="#afefde"/><path d="M282.028,164.117c-1.58-5.561-7.141-3.981-5.877.468L272,166.259l3.469,5.781,3.69-1.1C282.23,170.07,282.9,167.188,282.028,164.117Z" transform="translate(-245.705 -138.509)" fill="#ffdfc5"/><ellipse cx="3.5" cy="3" rx="3.5" ry="3" transform="translate(28.982 2.793)" fill="#8a8a8c"/><ellipse cx="2" cy="1.5" rx="2" ry="1.5" transform="translate(24.982 10.793)" fill="#8a8a8c"/><circle cx="2.5" cy="2.5" r="2.5" transform="translate(40.982 57.793)" fill="#d5f7ed"/><circle cx="1" cy="1" r="1" transform="translate(45.982 62.793)" fill="#d5f7ed"/><path d="M246.848,447.364l.167.832v1.156h6.938V448.2c1.882-1.882,2.232-2.81,2.3-5.112a21.784,21.784,0,0,0-.1-4.316A15.655,15.655,0,0,1,246.848,447.364Z" transform="translate(-224.189 -376.509)" fill="#ffd5c7"/></g><g transform="translate(0 -0.003)"><path d="M282.144,45.348l-1.424-5.012a50.789,50.789,0,0,0,3.96-20.924c-.27-5.9-1.888-10.853-4.556-13.948-2.049-2.378-4.569-3.453-7.162-3.079-2.7-2.822-6.6-3.14-11.9-.974a1.156,1.156,0,0,0,.875,2.141c4.61-1.885,7.693-1.621,9.7.828a1.156,1.156,0,0,0,1.169.39c7.245-1.776,13.989,13.773,5.945,34.258-6.3-.875-6.751-4.914-8.376-3.3a1.156,1.156,0,0,0,0,1.635,13.81,13.81,0,0,0,8.229,3.973l1.233,4.341c-1.658,1.551-7.332,6.6-13.627,9.219a1.156,1.156,0,0,0,.889,2.135c6.477-2.7,12.142-7.638,14.118-9.476,18.045,14.2,10.6,26.44,14.343,26.44a1.156,1.156,0,0,0,1.156-1.156c0-12.116-5.163-20.244-14.571-27.493Z" transform="translate(-222.715 0.003)"/><path d="M293.838,152.65c-3.63,1.032-3.235,6.792-1,6.157a1.156,1.156,0,0,0,.8-1.428c-.859-3.023,2.514-3.843,3.653.164.69,2.429.348,4.709-2.073,5.4a1.156,1.156,0,0,0,.632,2.224C303.192,163.077,299.441,151.057,293.838,152.65Z" transform="translate(-249.054 -130.463)"/><path d="M110.972,81.106l1.264,4.449a1.156,1.156,0,0,0,2.224-.632l-1.58-5.561a1.156,1.156,0,0,0-1.428-.8c-7.908,2-8.773,3.1-10.539,2.114a2.872,2.872,0,0,1-1.373-1.734c-1.467-4.553-1.149-5.5-2.22-5.8L94.314,72.3c1.732-4.491,2.04-4.562,1.851-5.228l-1.734-6.106c3.515.306,5.555-.955,14.67-3.364a1.156,1.156,0,0,0-.632-2.224L98.121,58.314c-6.644,1.762-10.824-3-13.08-9.427,4.054.831,8.932-2.766,16.389-7.375a1.156,1.156,0,0,0-1.216-1.967c-7.236,4.473-13.464,9.036-16.166,6.381a1.151,1.151,0,0,0-1.981,1.021c1.083,5.2,4.486,11.579,9.8,13.462l1.963,6.909c-2.946,7.774-3.642,6.015,2.238,7.876,1.159,3.163.892,5.931,3.717,7.506,2.984,1.664,5.227-.236,11.186-1.593Z" transform="translate(-70.181 -33.667)"/><path d="M351.793,375.8a8.089,8.089,0,0,0-8.06,8.127l.038,10.406a1.156,1.156,0,0,0,1.156,1.152,1.175,1.175,0,0,0,1.156-1.161c.361-8.819-1.09-11.751,1.638-14.5a5.79,5.79,0,0,1,9.886,4.047l.038,10.406a1.156,1.156,0,0,0,1.156,1.152,1.175,1.175,0,0,0,1.156-1.161l-.038-10.406A8.1,8.1,0,0,0,351.793,375.8Z" transform="translate(-294.053 -321.484)"/><path d="M231.056,362.523l-.114-.274,1.378-5.514c.984-3.936-4.085-6.041-4.832-4.052-3.621,9.832-3.636,9.3-3.52,9.883l2.313,11.563a1.156,1.156,0,0,0,2.268-.454L226.3,362.437l3-8.008a1.552,1.552,0,0,1,.773,1.746c-1.431,6.037-1.675,5.99-1.416,6.609l2.313,5.559a1.157,1.157,0,0,0,2.224-.444v-4.114c0-1.066.6-1.445,1.156-1.445,1.8,0,.929,2.864,1.156,4.625,0,3.674,0,4.146-1.974,6.12a1.156,1.156,0,0,0,1.635,1.635c3.037-3.037,2.651-4.18,2.651-10.935A3.458,3.458,0,0,0,231.056,362.523Z" transform="translate(-191.571 -301.059)"/><path d="M201.209,250.313a1.156,1.156,0,0,0,0-2.312A1.156,1.156,0,0,0,201.209,250.313Z" transform="translate(-171.146 -212.156)"/><path d="M0,323a1.156,1.156,0,0,0,2.313,0C2.313,322.357,0,321.465,0,323Z" transform="translate(0 -275.589)"/><path d="M34.313,321.209a1.156,1.156,0,0,0-2.312,0A1.156,1.156,0,0,0,34.313,321.209Z" transform="translate(-27.375 -273.802)"/><path d="M67,322.313A1.156,1.156,0,0,0,67,320C66.357,320,65.465,322.313,67,322.313Z" transform="translate(-56.589 -273.75)"/><path d="M160,353.2a1.156,1.156,0,0,0,2.313,0A1.156,1.156,0,0,0,160,353.2Z" transform="translate(-136.875 -301.172)"/><path d="M232,249.2a1.156,1.156,0,0,0,2.313,0A1.156,1.156,0,0,0,232,249.2Z" transform="translate(-198.469 -212.204)"/><path d="M330.313,321.209a1.156,1.156,0,0,0-2.312,0A1.156,1.156,0,0,0,330.313,321.209Z" transform="translate(-280.594 -273.802)"/><path d="M312,297.2a1.156,1.156,0,0,0,2.313,0A1.156,1.156,0,0,0,312,297.2Z" transform="translate(-266.906 -253.266)"/><path d="M289.2,274.313a1.156,1.156,0,0,0,0-2.312A1.156,1.156,0,0,0,289.2,274.313Z" transform="translate(-246.423 -232.687)"/><path d="M265.2,258.313a1.156,1.156,0,0,0,0-2.312A1.156,1.156,0,0,0,265.2,258.313Z" transform="translate(-225.892 -219)"/><path d="M233.209,26.313a1.156,1.156,0,0,0,0-2.312A1.156,1.156,0,0,0,233.209,26.313Z" transform="translate(-198.521 -20.531)"/><path d="M36.625,249.25H47.031a1.156,1.156,0,0,0,0-2.312H36.625a2.313,2.313,0,1,1,2.313-2.312,1.156,1.156,0,0,0,1.156,1.156c2.429,0,.939-5.781-3.469-5.781a4.625,4.625,0,0,0,0,9.25Z" transform="translate(-27.375 -205.312)"/><path d="M47.031,352H36.625a4.625,4.625,0,0,0,0,9.25c4.41,0,5.9-5.781,3.469-5.781a1.156,1.156,0,0,0-1.156,1.156,2.313,2.313,0,1,1-2.312-2.312H47.031A1.156,1.156,0,0,0,47.031,352Z" transform="translate(-27.375 -301.125)"/><path d="M106.459,320h-9.25a1.156,1.156,0,0,0,0,2.313h9.25A1.156,1.156,0,0,0,106.459,320Z" transform="translate(-82.178 -273.75)"/></g></g></g></svg>