<svg xmlns="http://www.w3.org/2000/svg" width="62" height="61.783" viewBox="0 0 62 61.783"><g transform="translate(0 -0.896)"><g transform="translate(0.908 1.805)"><circle cx="19.199" cy="19.199" r="19.199" transform="translate(0 21.569)" fill="#e28086"/><path d="M31.593,224.285a19.2,19.2,0,1,1,0-37.138,19.2,19.2,0,0,0,0,37.138Z" transform="translate(-7.5 -164.948)" fill="#dd636e"/><g transform="translate(38.198 49.972)"><path d="M329.926,421.073h-2.407a4.574,4.574,0,1,0,0,9.147h2.407a4.574,4.574,0,1,0,0-9.147Z" transform="translate(-322.945 -421.073)" fill="#f9f6f6"/><path d="M334.5,447.773a4.574,4.574,0,0,1-4.574,4.574h-2.407a4.576,4.576,0,0,1-4.313-6.1,4.574,4.574,0,0,0,4.313,3.049h2.407a4.574,4.574,0,0,0,4.313-3.049A4.558,4.558,0,0,1,334.5,447.773Z" transform="translate(-322.947 -443.2)" fill="#dddaec"/></g><g transform="translate(13.565 3.37)"><path d="M126.5,36.23H124.1a4.574,4.574,0,0,0,0,9.147H126.5a4.574,4.574,0,1,0,0-9.147Z" transform="translate(-119.523 -36.23)" fill="#f9f6f6"/><path d="M131.079,62.929a4.574,4.574,0,0,1-4.574,4.574H124.1a4.576,4.576,0,0,1-4.313-6.1,4.574,4.574,0,0,0,4.313,3.049h2.407a4.574,4.574,0,0,0,4.313-3.049A4.559,4.559,0,0,1,131.079,62.929Z" transform="translate(-119.525 -58.356)" fill="#dddaec"/></g><path d="M222.977,48.032a1.722,1.722,0,0,0,2.333-.308l24.1-29.353a4.246,4.246,0,1,0-6.89-4.93L222.516,45.724A1.722,1.722,0,0,0,222.977,48.032Z" transform="translate(-196.252 -11.064)" fill="#9dc6fb"/><g transform="translate(22.633 33.791)"><path d="M201.387,287.451H198.98a4.574,4.574,0,1,0,0,9.147h2.407a4.574,4.574,0,1,0,0-9.147Z" transform="translate(-194.406 -287.451)" fill="#f9f6f6"/><path d="M205.962,314.15a4.574,4.574,0,0,1-4.574,4.574h-2.407a4.576,4.576,0,0,1-4.313-6.1,4.574,4.574,0,0,0,4.313,3.049h2.407a4.574,4.574,0,0,0,4.313-3.049A4.559,4.559,0,0,1,205.962,314.15Z" transform="translate(-194.408 -309.577)" fill="#dddaec"/></g><path d="M250.87,47.126a1.722,1.722,0,0,0,2.291-.536L274.253,15a4.245,4.245,0,1,0-7.342-4.227l-16.727,34.1a1.722,1.722,0,0,0,.687,2.251Z" transform="translate(-220.641 -8.4)" fill="#b1e4fa"/></g><g transform="translate(0 0.896)"><path d="M40.193,41.689a5.306,5.306,0,0,0,.855-.989c.434-.6.632-.829,1-.829s.568.227,1,.829a2.986,2.986,0,0,0,2.475,1.584.908.908,0,0,0,0-1.816c-.369,0-.568-.227-1-.829a2.986,2.986,0,0,0-2.475-1.584,2.624,2.624,0,0,0-2.121,1.113,19.838,19.838,0,0,0-1.538-4.97L49.444,17.646a.908.908,0,1,0-1.511-1.009L32.674,39.489a.814.814,0,0,1-1.408-.81l16.726-34.1A3.338,3.338,0,1,1,53.765,7.9L49.95,13.617a.908.908,0,1,0,1.511,1.009l3.814-5.713a5.153,5.153,0,1,0-8.889-5.178L32.25,26.547A20.107,20.107,0,0,0,0,42.574a19.925,19.925,0,0,0,1.867,8.471.908.908,0,0,0,1.647-.767,18.12,18.12,0,0,1-1.7-7.7A18.292,18.292,0,0,1,31.289,28.1l-4.138,6.677a5.481,5.481,0,0,0,.963,10.876h2.407a5.488,5.488,0,0,0,5.467-5.1l.109.149a3.059,3.059,0,0,0,2.3,1.576c0,.1,0,.2,0,.3A18.292,18.292,0,0,1,5.264,53.263a.908.908,0,0,0-1.473,1.063A20.108,20.108,0,0,0,40.214,42.574c0-.3-.008-.591-.021-.885Zm-9.672-7h-1.18L38.259,20.3,31.18,34.729a5.544,5.544,0,0,0-.659-.041Zm0,9.146H28.115a3.665,3.665,0,1,1,0-7.33h2.194l-.675,1.375a2.64,2.64,0,0,0,1.05,3.437,2.607,2.607,0,0,0,1.307.35,2.635,2.635,0,0,0,2.179-1.149A3.67,3.67,0,0,1,30.522,43.835Zm7.049-4.2a3.379,3.379,0,0,0-1.812-1.5l1.424-2.133A17.994,17.994,0,0,1,38.27,40.4,2.386,2.386,0,0,1,37.571,39.639Z" transform="translate(0 -0.896)"/><path d="M338.338,419.353c-.369,0-.568-.227-1-.829a2.726,2.726,0,0,0-4.951,0c-.434.6-.632.829-1,.829s-.568-.227-1-.829a3.249,3.249,0,0,0-1.973-1.536,5.489,5.489,0,0,0-5.076-3.415h-2.407a5.482,5.482,0,0,0,0,10.964h2.407a5.488,5.488,0,0,0,5.467-5.1l.108.148a2.726,2.726,0,0,0,4.951,0c.434-.6.632-.829,1-.829s.568.227,1,.829a2.986,2.986,0,0,0,2.475,1.584.908.908,0,0,0,0-1.816Zm-15,3.367h-2.407a3.665,3.665,0,1,1,0-7.331h2.407a3.665,3.665,0,0,1,0,7.331Z" transform="translate(-277.246 -363.6)"/><path d="M117.5,39.693h2.407a5.488,5.488,0,0,0,5.467-5.1l.108.148a2.726,2.726,0,0,0,4.951,0c.434-.6.632-.829,1-.829s.568.227,1,.829a2.986,2.986,0,0,0,2.475,1.584.908.908,0,1,0,0-1.816c-.369,0-.568-.227-1-.829a2.726,2.726,0,0,0-4.951,0c-.434.6-.632.829-1,.829s-.568-.227-1-.829a3.249,3.249,0,0,0-1.973-1.536,5.489,5.489,0,0,0-5.076-3.415H117.5a5.482,5.482,0,1,0,0,10.963Zm0-9.147h2.407a3.665,3.665,0,1,1,0,7.331H117.5a3.665,3.665,0,0,1,0-7.331Z" transform="translate(-98.456 -25.359)"/></g></g></svg>