<svg xmlns="http://www.w3.org/2000/svg" width="61.998" height="52.646" viewBox="0 0 61.998 52.646"><g transform="translate(0.001 -38.614)"><g transform="translate(2.883 39.522)"><g transform="translate(0 0)"><path d="M85.63,90.685a2.283,2.283,0,0,0,1.14-2.465c-.352-1.53-2.143-2.165-3.1-3.248a2.49,2.49,0,0,1-.624-1.462.524.524,0,0,0-.752-.413,4.357,4.357,0,0,0-1.314,1.126C78.162,87.615,82.1,92.478,85.63,90.685Z" transform="translate(-73.213 -78.571)" fill="#8c818f"/><path d="M63.3,207.415a.484.484,0,0,1-.463.628H56.109a1.245,1.245,0,0,1-1.23-1.056l-.96-6.236c-8.154,1.618-12.351-4.6-16.881-6.338-1.36,3.719-5.449,4.551-5.449,4.551l.711,3.928a.486.486,0,0,0,.243.338l2.922,1.614a.488.488,0,0,1,.22.259l.831,2.291a.484.484,0,0,1-.455.649H29.283a1.245,1.245,0,0,1-1.171-.823l-3.136-8.726a1.785,1.785,0,0,1,.113-1.46,15.626,15.626,0,0,0,1.362-3.014c.207-1.029-3.453-2.22-2.464-7.261,1.277-6.51,9.909-5.557,15.34-6.437,3.179-.516,15.244-5.611,18.86-7.8l8.909,14.923a21.171,21.171,0,0,1-7.2,11.8v4.308a.482.482,0,0,0,.275.436l2.239,1.075a.482.482,0,0,1,.253.293Z" transform="translate(-23.816 -157.212)" fill="#a29aa5"/><path d="M303.565,288.8a.482.482,0,0,0-.253-.293l-2.239-1.075A.482.482,0,0,1,300.8,287V282.69a21.171,21.171,0,0,0,7.2-11.8l-2.045-3.426c-1.772,7.219-5.028,13.212-8.042,15.508v4.354a.487.487,0,0,0,.275.441l2.239,1.087a.485.485,0,0,1,.253.3l.639,2.084a.491.491,0,0,1,.009.257h2.413a.484.484,0,0,0,.463-.628Z" transform="translate(-264.724 -240.662)" fill="#8c818f"/><path d="M149.881,339.074c-8.154,1.618-12.351-4.6-16.881-6.338a7.567,7.567,0,0,0,.431-2.837c4.346,1.792,8.467,7.351,16.02,6.384Z" transform="translate(-119.779 -295.535)" fill="#8c818f"/><g transform="translate(23.917)"><path d="M414.256,46.523A.706.706,0,0,0,413,46.463c-1.962,3.441,1.761,3.992,1.761,6.046,0,2.836-3.7,4.1-7.555,3.977l1.65,4.321c7.788-.762,10.131-4.357,10.131-6.209C418.99,49.968,415.828,50.015,414.256,46.523Z" transform="translate(-384.701 -46.11)" fill="#f0e9e6"/><path d="M226.062,46.523a.706.706,0,0,1,1.253-.059c1.962,3.441-1.761,3.992-1.761,6.046,0,2.836,3.7,4.1,7.555,3.977l-1.65,4.321c-7.788-.762-10.131-4.357-10.131-6.209C221.328,49.968,224.49,50.015,226.062,46.523Z" transform="translate(-221.328 -46.11)" fill="#f0e9e6"/><path d="M429.237,181.349l8.18,2.307a3.812,3.812,0,0,1-4.32,3.58c-4.108-.279-4.922-1.873-4.922-1.873Z" transform="translate(-403.128 -164.973)" fill="#8c818f"/><path d="M229.509,181.349l-8.18,2.307a3.812,3.812,0,0,0,4.32,3.58c4.108-.279,4.922-1.873,4.922-1.873Z" transform="translate(-221.329 -164.973)" fill="#8c818f"/><path d="M294.607,135.354c-.231-3.242-3.342-8.645-5.36-8.645s-3.28,1.208-5.417,1.208-3.4-1.208-5.417-1.208-5.129,5.4-5.36,8.645-.058,5.466,6.258,10.933h9.038C294.664,140.82,294.837,138.6,294.607,135.354Z" transform="translate(-266.739 -116.949)" fill="#b5adb7"/><ellipse cx="4.933" cy="4.049" rx="4.933" ry="4.049" transform="translate(12.157 26.597)" fill="#ffdcce"/><path d="M307.364,245.793c-2.031,0-4.4,2.2-6.027.88-2.109-1.714-2.065-6.805,0-7.787s3.555.06,6.027.06,3.961-1.042,6.027-.06,2.109,6.074,0,7.787C311.766,247.994,309.4,245.793,307.364,245.793Z" transform="translate(-290.273 -215.173)" fill="#ffeee8"/></g><path d="M77.27,325.155a.484.484,0,0,0-.221-.259l-2.922-1.614a.484.484,0,0,1-.242-.338l-.711-3.928s7.11-1.447,5.7-9.049a1.054,1.054,0,0,0-1.21-.842l-.02,0a1.062,1.062,0,0,0-.873,1.206c.664,4.639-3.17,6.646-4.931,7.316a1.094,1.094,0,0,0-.691,1.206l.8,4.693a.484.484,0,0,0,.242.338l2.922,1.614a.485.485,0,0,1,.221.259l.831,1.685a.484.484,0,0,1-.455.649h1.943a.484.484,0,0,0,.455-.649Z" transform="translate(-65.401 -277.265)" fill="#8c818f"/></g></g><g transform="translate(-0.001 38.614)"><path d="M42.591,119.858a1.391,1.391,0,0,0-.727-.842l-2-.96v-3.6a16.343,16.343,0,0,0,1.516-1.4.908.908,0,0,0-1.312-1.256,13.946,13.946,0,0,1-1.659,1.491.908.908,0,0,0-.361.725v4.308a1.4,1.4,0,0,0,.79,1.255l2.073,1,.414,1.337h-6.15a.335.335,0,0,1-.333-.286l-2.524-16.4a.908.908,0,1,0-1.8.277l1.428,9.275c-4.783.636-8-1.623-11.112-3.814a26.714,26.714,0,0,0-3.628-2.282A10.538,10.538,0,0,0,17,103.453a.908.908,0,0,0-1.755.467,7.608,7.608,0,0,1-.406,5.827,7.3,7.3,0,0,1-4.368,3.1.908.908,0,0,0-.713,1.052l.712,3.933a1.387,1.387,0,0,0,.7.966l2.782,1.537.571,1.574H8.35a.337.337,0,0,1-.316-.222L4.9,112.962a.878.878,0,0,1,.056-.719,14.469,14.469,0,0,0,1.455-3.269c.156-.776-.38-1.356-.9-1.917a5.333,5.333,0,0,1-1.564-5.348c.555-2.828,2.721-4.308,7.242-4.948a.908.908,0,0,0-.254-1.8C7.726,95.417,4,96.412,2.579,99.948a2.986,2.986,0,0,1-.638-2.779C2.55,95.3,5.276,93.777,8.57,93.461c4.366-.419,7.885-2.413,8.964-5.082a4.754,4.754,0,0,0-.617-4.6,3.17,3.17,0,0,0,.41-2.347A4.906,4.906,0,0,0,15.1,78.692c-1-.74-1.395-1.06-1.482-1.863A1.432,1.432,0,0,0,11.568,75.7a5.041,5.041,0,0,0-1.62,1.365,4.988,4.988,0,0,0,.01,6.414,4.845,4.845,0,0,0,3.764,1.919,4.359,4.359,0,0,0,1.82-.4c2.047,3.3-2.308,6.2-7.145,6.661-4.055.389-7.343,2.379-8.182,4.953-.767,2.352.673,4.336,1.832,5.475a7.054,7.054,0,0,0,2.129,6.21c.14.152.322.348.414.472a15.881,15.881,0,0,1-1.231,2.611,2.694,2.694,0,0,0-.17,2.2L6.325,122.3a2.159,2.159,0,0,0,2.025,1.424h6.777a1.393,1.393,0,0,0,1.309-1.867l-.831-2.291a1.4,1.4,0,0,0-.635-.744l-2.747-1.517-.529-2.924a8.678,8.678,0,0,0,4.807-3.876l.055-.1.01-.019a26.976,26.976,0,0,1,3.227,2.061c3.1,2.18,6.916,4.866,12.434,4.125l.82,5.327a2.141,2.141,0,0,0,2.128,1.826H41.9a1.393,1.393,0,0,0,1.33-1.806ZM11.377,82.34a3.174,3.174,0,0,1-.031-4.121,4.848,4.848,0,0,1,.574-.591,3.27,3.27,0,0,0,.737,1.363c1.019,1.148,2.644,1.743,2.9,2.848a1.385,1.385,0,0,1-.667,1.452A2.825,2.825,0,0,1,11.377,82.34Z" transform="translate(0.001 -71.08)"/><path d="M165.782,57.331l-6.236-1.758c-.113-.358-.243-.723-.39-1.091a12.543,12.543,0,0,0,5.357-2.724,5.406,5.406,0,0,0,1.932-3.748,6.894,6.894,0,0,0-2.692-5.735,8.235,8.235,0,0,1-2.121-2.712,1.614,1.614,0,0,0-2.87-.137c-1.553,2.722-.138,4.21.8,5.194.523.549.843.906.843,1.3,0,1.959-2.647,2.848-5.043,3.036a2.835,2.835,0,0,0-1.6-.584,8.215,8.215,0,0,0-2.937.645,5.751,5.751,0,0,1-4.961,0,8.215,8.215,0,0,0-2.937-.645,2.827,2.827,0,0,0-1.592.576c-2.352-.2-4.947-1.1-4.947-3.028,0-.4.32-.753.843-1.3.936-.984,2.351-2.472.8-5.193a1.614,1.614,0,0,0-2.871.136,8.235,8.235,0,0,1-2.121,2.712,6.894,6.894,0,0,0-2.692,5.735,5.394,5.394,0,0,0,1.909,3.728,12.439,12.439,0,0,0,5.282,2.719c-.156.388-.293.773-.411,1.15L131,57.331a.908.908,0,0,0-.66.924,4.737,4.737,0,0,0,.131.794,51,51,0,0,1-7.776,2.686c-.963.155-2.068.255-3.028.335a.908.908,0,0,0,.075,1.813c.026,0,.051,0,.077,0,.993-.084,2.139-.187,3.166-.352a55.288,55.288,0,0,0,8.2-2.809,4.371,4.371,0,0,0,.753.873,4.681,4.681,0,0,0,3.209,1.116,13.582,13.582,0,0,0,2.072-.208,13.483,13.483,0,0,0,2.635,3.836,6.457,6.457,0,0,0,1.883,5.391,2.692,2.692,0,0,0,1.332.589,5.874,5.874,0,0,0,4.558,2.771c-.2.345-.4.686-.611,1.02a.908.908,0,1,0,1.532.975c.434-.681.834-1.388,1.2-2.105a5.734,5.734,0,0,0,3.859-2.661,2.693,2.693,0,0,0,1.332-.59,6.458,6.458,0,0,0,1.883-5.392,13.452,13.452,0,0,0,2.643-3.854,14.653,14.653,0,0,0,1.69.209,4.88,4.88,0,0,0,3.689-1.1,5.217,5.217,0,0,0,1.6-3.338.908.908,0,0,0-.66-.924Zm-3.564-11.409a3.7,3.7,0,0,0-1.343-2.554c-.815-.856-1.332-1.4-.722-2.689a10.391,10.391,0,0,0,2.35,2.913c1.234,1.17,2.125,2.015,2.125,4.417,0,.939-1.146,3.551-6.247,4.8a15.492,15.492,0,0,0-1.406-2.224c3.277-.6,5.243-2.3,5.243-4.66Zm-16.978,4.8a7.489,7.489,0,0,0,6.2,0,6.586,6.586,0,0,1,2.32-.537c.373,0,1.4.724,2.572,2.667a12.991,12.991,0,0,1,1.881,5.133,7.307,7.307,0,0,1-1.894,6.159,3.343,3.343,0,0,0-1.56-1.734,6.3,6.3,0,0,0-4.192-.28,9.934,9.934,0,0,1-4.449,0,6.294,6.294,0,0,0-4.192.28,3.344,3.344,0,0,0-1.56,1.734,7.314,7.314,0,0,1-1.894-6.159c.234-3.3,3.311-7.8,4.453-7.8a6.588,6.588,0,0,1,2.32.537Zm-13.084-2.717c0-2.4.891-3.247,2.125-4.417a10.392,10.392,0,0,0,2.35-2.913c.611,1.288.093,1.832-.722,2.689a3.7,3.7,0,0,0-1.343,2.554c0,2.331,1.93,4.026,5.149,4.641a14.555,14.555,0,0,0-.922,1.356c-.17.282-.332.571-.486.862C133.284,51.526,132.155,48.938,132.155,48.009Zm3.351,12.87a2.826,2.826,0,0,1-2.834-1.2,3.427,3.427,0,0,1-.374-.823l4.38-1.235a12.718,12.718,0,0,0,.035,3.127q-.568.091-1.207.135Zm9.618,11.175c.374-.122.737-.266,1.079-.4a4.087,4.087,0,0,1,4.27,0c.34.135.7.278,1.072.4a4.525,4.525,0,0,1-3.207,1.257A4.465,4.465,0,0,1,145.123,72.054Zm8.668-1.736c-.538.437-1.36.158-2.649-.354a5.755,5.755,0,0,0-5.611,0c-1.289.512-2.11.791-2.649.353-1.7-1.381-1.517-5.628-.183-6.262a4.582,4.582,0,0,1,3.091-.133,11.676,11.676,0,0,0,5.09,0,4.583,4.583,0,0,1,3.092.133C155.261,64.668,155.556,68.884,153.791,70.318ZM164.11,59.674a2.826,2.826,0,0,1-2.834,1.2q-.7-.048-1.312-.153a12.24,12.24,0,0,0,.055-2.865c-.006-.09-.016-.183-.026-.276l4.49,1.266a3.428,3.428,0,0,1-.374.823Z" transform="translate(-104.445 -38.614)"/><path d="M379.939,260.779a2.021,2.021,0,0,0-1.109,1.058.908.908,0,1,0,1.671.711.424.424,0,0,1,.166-.1.908.908,0,1,0-.728-1.664Z" transform="translate(-332.895 -233.81)"/><path d="M327.2,260.779a.908.908,0,0,0-.728,1.664.511.511,0,0,1,.163.1h0a.908.908,0,0,0,1.674-.705A2.021,2.021,0,0,0,327.2,260.779Z" transform="translate(-286.463 -233.81)"/><path d="M312.031,193.425a.908.908,0,0,0,.908-.908v-.542a.908.908,0,0,0-1.816,0v.542A.908.908,0,0,0,312.031,193.425Z" transform="translate(-273.449 -172.607)"/><path d="M399.729,193.425a.908.908,0,0,0,.908-.908v-.542a.908.908,0,1,0-1.816,0v.542A.908.908,0,0,0,399.729,193.425Z" transform="translate(-350.528 -172.607)"/></g></g></svg>