<svg xmlns="http://www.w3.org/2000/svg" width="35.258" height="51.17" viewBox="0 0 35.258 51.17"><g transform="translate(-428.09 -7798.523)"><path d="M3.779-24.657l3.085-25.82h29.5v9.083h-20L15.219-31.366A13.78,13.78,0,0,1,18.5-32.655a14.948,14.948,0,0,1,3.969-.557q7.523,0,11.562,4.455t4.039,12.5A17.913,17.913,0,0,1,35.9-7.471a14.892,14.892,0,0,1-6.084,6.05A19.208,19.208,0,0,1,20.558.693a20.669,20.669,0,0,1-8.91-1.957A15.984,15.984,0,0,1,5.131-6.633,13.046,13.046,0,0,1,2.808-14.34H14.526a6.627,6.627,0,0,0,1.768,4.394A5.612,5.612,0,0,0,20.489-8.32q5.894,0,5.894-8.718,0-8.061-7.211-8.061a7.2,7.2,0,0,0-6.1,2.629Z" transform="translate(425.283 7849)" fill="#12263f"/></g></svg>