<svg xmlns="http://www.w3.org/2000/svg" width="36.263" height="51.205" viewBox="0 0 36.263 51.205"><path d="M38.308,0H3.085V-7.627L19.31-24.684q6-6.83,6-10.851a7.548,7.548,0,0,0-1.421-4.958,5.075,5.075,0,0,0-4.125-1.7,5.138,5.138,0,0,0-4.333,2.271,9.332,9.332,0,0,0-1.664,5.668H2.045a16.577,16.577,0,0,1,2.323-8.58,16.288,16.288,0,0,1,6.448-6.154A19.155,19.155,0,0,1,20.038-51.2q8.182,0,12.6,3.779t4.42,10.851a15.757,15.757,0,0,1-1.109,5.807A25.466,25.466,0,0,1,32.5-24.84a86.892,86.892,0,0,1-7.54,8.3L18.443-9.014H38.308Z" transform="translate(-2.045 51.205)" fill="#12263f"/></svg>