<svg xmlns="http://www.w3.org/2000/svg" width="548.443" height="246.273" viewBox="0 0 548.443 246.273"><g transform="translate(-1907.357 -1652.54)"><g transform="translate(1907.357 1827.922)"><path d="M1934.844,2062.933c-.3-.157-30.42-16.051-27.254-46.415l1.345.14c-3.07,29.435,26.232,44.92,26.529,45.073Z" transform="translate(-1907.357 -2016.518)" fill="#22365b"/></g><g transform="translate(1928.529 1652.54)"><path d="M2154.293,1723.077c-4.7-.2-13.956,16.927-15.085,34.811l19.059,1.292C2157.469,1747.1,2157.1,1731.54,2154.293,1723.077Z" transform="translate(-2048.664 -1689.088)" fill="#7fb8db"/><path d="M2160.556,1812.118c-1.331-2.552-1.944-8.431-2.411-15.5l-19.06-1.292c-.533,8.441.738,17.048,5.17,24.081,19.533,31,48.676,24.639,48.676,24.639S2164.161,1819.029,2160.556,1812.118Z" transform="translate(-2048.541 -1726.523)" fill="#ca5c47"/><path d="M2152.731,1739l-8.053,27.138h-5.47S2141.254,1743.37,2152.731,1739Z" transform="translate(-2048.664 -1697.34)" fill="#5aa5d1"/><path d="M2036.712,1984.655s-12.051-119.339-7.171-149.536l-33.007-5.408s0,1.295.047,3.627l-26.7-3.627s-38.881,137.269-4.161,154.944c0,0,17.887-90.305,31.458-134.046C1999.088,1889.73,2006.666,1971.3,2036.712,1984.655Z" transform="translate(-1951.297 -1744.342)" fill="#265173"/><path d="M2107.5,2134.374l3.726,10.252h16.421s1.833-10.181-7.483-6.86l-1.892-7.335Z" transform="translate(-2032.237 -1900.161)" fill="#22365b"/><path d="M1965.046,2135.547l.68,11.083h11.849s2.147-7.691-2.91-6.86l1.077-5.471Z" transform="translate(-1958.421 -1902.165)" fill="#22365b"/><path d="M2022.526,1702.231s33.194-16.225,53.025,7.211c.581,13.821-22.836,35.455-26.512,63.1,0,0-40.738,9.014-61.8-10.216C1987.24,1762.325,2000.149,1719.657,2022.526,1702.231Z" transform="translate(-1969.921 -1675.453)" fill="#7fb8db"/><path d="M2041.365,1728.31s-15.582,18.82-8.676,43.455l19,1.8s5.853-12.319,3.19-42.666Z" transform="translate(-1992.556 -1691.8)" fill="#5aa5d1"/><g transform="translate(82.058)"><path d="M2123.258,1677.845s11.168-5.836,28.4-18.376c2.742-1.658,11.029,8.73,10.331,11.332s-13.438,15.174-18.189,15.6l-2.086-1.759s-2.608,1.766-4.867,3.357c-2.343,7.887-9.28,13.617-12.709,11.326C2118.989,1695.886,2123.258,1677.845,2123.258,1677.845Z" transform="translate(-2121.596 -1656.038)" fill="#ca5c47"/><path d="M2155.848,1705.631l2.6-1.778s-3.78-4.422-4.329-7.486C2154.118,1696.368,2152.981,1702.027,2155.848,1705.631Z" transform="translate(-2138.332 -1675.249)" fill="#ab4b38"/><path d="M2152,1666.56a37.16,37.16,0,0,0,8.441-1.23c-.546-4.313,4-4.14,3.11-.285a10.17,10.17,0,0,0,2.854-.977s.7,9.779,8.113,3.418c-.9,8.578,6.76,5.9,5.334,1.239,3.079.375,3.028-3.87-1.615-4.057,2.453-6.257.513-5.77-3.268-4.056,0,0,1.916-7.549-3.38-3.155,1.69-2.592-2.592-9.127-5.634-.9-2.7-6.535-8.789-.15-7.887,3.981C2155.365,1658.96,2152.566,1665.095,2152,1666.56Z" transform="translate(-2137.349 -1652.54)" fill="#22365b"/></g></g><g transform="translate(1941.645 1747.336)"><path d="M2258.083,1864.128s22.039,14.271,24.207,27.64c0,0-3.071,7.587-7.045,7.046s-6.684-5.239-6.684-5.239l-16.62-1.445s-11.381-14.271-9.394-20.956S2258.083,1864.128,2258.083,1864.128Z" transform="translate(-2115.204 -1856.971)" fill="#b5d6ea"/><path d="M1986.945,1955.6c-.162,15.664,6.516,36.628,4.905,42.084-2.237,7.576-9.073,17.294-9.848,23.14-2.939,22.187,1.046,33.21,1.046,33.21h10.466s-9.822-15.05-6.065-32.715a8.282,8.282,0,0,1,3.7-4.923c6.577-4.212,22.222-15.2,23.811-25.375Z" transform="translate(-1979.763 -1904.369)" fill="#7fb8db"/><path d="M1986.529,1936.339s-6.78,9.617-8.012,20.434c0,0,8.4-14.572,10.5-14.948S1986.529,1936.339,1986.529,1936.339Z" transform="translate(-1978.517 -1894.387)" fill="#7fb8db"/><path d="M2080.2,1930.641s-81.206-11.921-86.117,0,9.982,43.79,10.483,51.367-2.824,17.294-1.486,23.14c5.078,22.187,13.045,33.21,13.045,33.21h10.466s-15.26-15.05-17.886-32.715a5.4,5.4,0,0,1,1.919-4.923c5.055-4.213,16.729-15.2,14.642-25.375,0,0,30.8,13.135,40.73,11.535S2080.2,1930.641,2080.2,1930.641Z" transform="translate(-1986.066 -1888.689)" fill="#b5d6ea"/><path d="M2166.247,2071.273s-1.5,28.845,5.709,41.766h10.517s-12.62-15.625-12.319-43.568Z" transform="translate(-2075.723 -1963.37)" fill="#7fb8db"/><path d="M2211.043,2071.273s-1.5,28.845,5.709,41.766h10.516s-12.62-15.625-12.319-43.568Z" transform="translate(-2098.934 -1963.37)" fill="#7fb8db"/><path d="M2073.911,1871.047c-.6-13.472,10.6-2.147,10.6-2.147.442-10.27,9.272-.692,9.272-.692-2.208-14.495,11.259-1.621,11.259-1.621-1.324-11.259,11.356-3.338,11.356-3.338-3.09-18.027,14.341-6.818,14.341-6.818,2.233-11.418,11.13-3.753,11.13-3.753.361-4.221,7.105-5.3,8.953,1.325s-5.324,5.3-5.324,5.3c4.03,8.831-7.561,3.643-7.561,3.643s6.623,0,1.987,7.616c0,0,8.941.586,5.629,8.406,0,0,9.934,3.515,2.318,8.482,0,0,9.6,10.554-1.324,11.4,0,0,8.61,12.439-4.967,14.095,0,0,15.233,7.616,0,11.259,0,0,5.629,14.239-5.3,9.6,0,0,2.649,12.252-6.623,6.291,0,0,.331,13.577-9.272,7.617,0,0,6.954,13.907-2.649,10.927,0,0,0,10.266-8.279,4.3,0,0-6.291,11.922-9.6.332,0,0-8.609,9.272-8.609-1.987,0,0-5.63,6.623-7.616-4.636,0,0-4.3,6.954-8.279-.331,0,0-6.954,13.245-14.239-1.656,0,0-3.974,11.921-10.266-1.324,0,0-1.462,23.6-8.085,14.33,0,0-14.245,4.052-8.256-9.744,0,0-14.386-.519-1.873-9.666-10.782-2.053-7.041-12.844-.386-13.321,0,0-11.439-15.324,4-11.718,0,0-5.831-18.028,7.959-9.465,0,0,.782-15.324,10.441-5.408,0,0,5.041.99,12.758-1.083l4.533-9.714a10.812,10.812,0,0,0-2.674-9.011s-14.88-.316-5.114-8.908C2064.144,1879.639,2059.183,1863.486,2073.911,1871.047Z" transform="translate(-2003.035 -1849.274)" fill="#e1f0fa"/><path d="M2279.138,1880.862c-2.032,1.084,3.251,6.5,4.606,4.336S2281.17,1879.778,2279.138,1880.862Z" transform="translate(-2134.047 -1865.53)" fill="#265173"/><path d="M2302.408,1921.49s5.069,5.417,7.774,5.238l-1.6,1.316A23.557,23.557,0,0,1,2302.408,1921.49Z" transform="translate(-2146.342 -1886.693)" fill="#5aa5d1"/><path d="M2314.25,1914.128s1.126,3.6,3.943,3.547C2318.193,1917.675,2315.039,1919.987,2314.25,1914.128Z" transform="translate(-2152.478 -1882.878)" fill="#265173"/><g transform="translate(40.347 17.372)"><path d="M2172.521,1921.822a4.224,4.224,0,0,1,.4-6.474,4.771,4.771,0,0,1,2.427-.819,4.719,4.719,0,0,1,2.494.6,3.981,3.981,0,0,1,1.66,1.95,3.9,3.9,0,0,1-.961,4.434,4.112,4.112,0,0,0,.006-3.987,3.3,3.3,0,0,0-3.136-1.647,3.407,3.407,0,0,0-3.017,1.915A4.449,4.449,0,0,0,2172.521,1921.822Z" transform="translate(-2118.701 -1900.457)" fill="#b5d6ea"/><path d="M2219.635,1943.738a6.216,6.216,0,0,1,3.608-2.29,13.822,13.822,0,0,1,2.126-.508,4.02,4.02,0,0,1,2.352.259,2.414,2.414,0,0,1,1.306,2.2,3.45,3.45,0,0,1-.977,2.309,7.1,7.1,0,0,1-4.293,1.645l.185-1.254a9.1,9.1,0,0,1,4.291,4.1,3.09,3.09,0,0,1-.142,3.289,4.927,4.927,0,0,1-2.672,1.64,10.771,10.771,0,0,1-5.732-.739,46.987,46.987,0,0,1-5.09-2.364c1.781.56,3.526,1.222,5.305,1.68a9.936,9.936,0,0,0,5.231.321,3.792,3.792,0,0,0,1.953-1.279,1.9,1.9,0,0,0-.044-1.99,8.424,8.424,0,0,0-3.644-3.461l-1.964-.984,2.149-.27a6.46,6.46,0,0,0,3.611-1.182c.83-.786,1.09-2.273.074-2.844-1.013-.587-2.528-.229-3.889-.01A6.414,6.414,0,0,0,2219.635,1943.738Z" transform="translate(-2141.19 -1914.11)" fill="#b5d6ea"/><path d="M2149.765,1966.156a3,3,0,0,1-.608-1.838,2.34,2.34,0,0,1,1-1.884,1.963,1.963,0,0,1,2.368,0,1.894,1.894,0,0,1,.509,2.488l-1.086-.748a5.748,5.748,0,0,1,1.931-1.843,3.545,3.545,0,0,1,2.785-.347,2.443,2.443,0,0,1,1.818,2.1,1.819,1.819,0,0,1-1.419,2,1.617,1.617,0,0,0-.681-3c-1.308-.264-2.49.674-3.36,1.85l-1.086-.748c.13-.133.082-.578-.189-.835a.939.939,0,0,0-1.088-.091,1.727,1.727,0,0,0-.92,1.137A3.512,3.512,0,0,0,2149.765,1966.156Z" transform="translate(-2107.281 -1924.973)" fill="#b5d6ea"/><path d="M2184.889,1993.656a10.831,10.831,0,0,0,3.708,7.629,4.15,4.15,0,0,0,1.7.981,1.124,1.124,0,0,0,1.27-.614c.6-1.033-.044-2.289-.839-3.509l1.163-.578a2.9,2.9,0,0,0,4.355,1.291,2.532,2.532,0,0,0,1.115-2.158,1.8,1.8,0,0,0-1.433-1.67l-4.614-.605,4.6-.552a2.978,2.978,0,0,0,2.128-1.629,5.372,5.372,0,0,0,.651-2.941,3.225,3.225,0,0,0-1.307-2.6,2.21,2.21,0,0,0-2.864.36,2.347,2.347,0,0,1,3.061-.731,3.617,3.617,0,0,1,1.849,2.9,6.228,6.228,0,0,1-.531,3.459,3.929,3.929,0,0,1-2.823,2.342l-.015-1.156a3.009,3.009,0,0,1,2.572,2.729,3.779,3.779,0,0,1-1.627,3.343,4.2,4.2,0,0,1-3.639.609,4.272,4.272,0,0,1-2.695-2.514l1.163-.578a8.436,8.436,0,0,1,1.037,2.16,3.3,3.3,0,0,1-.3,2.628,2.313,2.313,0,0,1-1.08.963,2.2,2.2,0,0,1-1.442.077,5.034,5.034,0,0,1-2.06-1.335,10.252,10.252,0,0,1-2.509-3.84A9.937,9.937,0,0,1,2184.889,1993.656Z" transform="translate(-2125.77 -1937.524)" fill="#b5d6ea"/><path d="M2125.347,2000.511c-2.2.963-3.067,3.5-2,5.1a3.661,3.661,0,0,0,2.338,1.68,2.521,2.521,0,0,0,1.478-.1,1.566,1.566,0,0,0,1.066-1.129,1.659,1.659,0,0,1-.731,1.7,2.945,2.945,0,0,1-1.923.575,4.206,4.206,0,0,1-3.384-2.029,3.953,3.953,0,0,1-.565-2,3.912,3.912,0,0,1,.556-1.955A3.572,3.572,0,0,1,2125.347,2000.511Z" transform="translate(-2093.015 -1945.006)" fill="#b5d6ea"/><path d="M2152.264,2033.364a3.339,3.339,0,0,0-.008,3.137,4.452,4.452,0,0,0,2.214,2.056,1.437,1.437,0,0,0,1.992-.972c.315-.844-.108-1.821-.174-3.149l-.156-3.146,1.416,2.857a9.718,9.718,0,0,0,2.47,3.121c1.013.817,2.284,1.336,3.079.493.862-.717.642-2.234.067-3.46a11.38,11.38,0,0,0-2.432-3.461,9.828,9.828,0,0,1,3.069,3.129,5.763,5.763,0,0,1,.82,2.166,2.933,2.933,0,0,1-.722,2.422,2.674,2.674,0,0,1-2.5.8,5.071,5.071,0,0,1-2.2-1.06,9.889,9.889,0,0,1-2.858-3.6l1.26-.289c-.009.911.525,2.225-.011,3.583a2.474,2.474,0,0,1-3.489,1.467,4.822,4.822,0,0,1-2.4-2.738A3.439,3.439,0,0,1,2152.264,2033.364Z" transform="translate(-2108.5 -1960.724)" fill="#b5d6ea"/><path d="M2080.787,2018.029a2.668,2.668,0,0,0-2.87.386,2.429,2.429,0,0,0-.731,2.428,3.283,3.283,0,0,0,1.6,2.215,5.835,5.835,0,0,0,3.091.723,4.25,4.25,0,0,1-3.54.232,3.921,3.921,0,0,1-2.47-2.9,3.815,3.815,0,0,1,.147-2.015,3.006,3.006,0,0,1,1.321-1.554A2.668,2.668,0,0,1,2080.787,2018.029Z" transform="translate(-2069.266 -1953.621)" fill="#b5d6ea"/><path d="M2107.526,2036.151a5.515,5.515,0,0,0-.546,2.816,2.665,2.665,0,0,0,1.228,2.028,1.8,1.8,0,0,0,2.1.063,2.016,2.016,0,0,0,.665-2.4,1.741,1.741,0,0,1,.716,1.484,2.607,2.607,0,0,1-.645,1.676,2.461,2.461,0,0,1-1.745.829,3.223,3.223,0,0,1-1.824-.512,3.623,3.623,0,0,1-1.23-1.381,3.435,3.435,0,0,1-.316-1.781A3.867,3.867,0,0,1,2107.526,2036.151Z" transform="translate(-2084.874 -1963.477)" fill="#b5d6ea"/><path d="M2064.9,2043.486a2.342,2.342,0,0,0-1.537,3.022,1.981,1.981,0,0,0,2.748.715l.421,1.211a1.181,1.181,0,0,0-.988.7,1.082,1.082,0,0,0,.244,1.224,1.258,1.258,0,0,0,1.4.349,1.725,1.725,0,0,0,1.083-1.412,1.841,1.841,0,0,1-.769,1.977,2.007,2.007,0,0,1-2.393-.134,2.166,2.166,0,0,1-.736-2.467,2.406,2.406,0,0,1,2.126-1.583l2.189-.118-1.768,1.329a2.985,2.985,0,0,1-2.656.4,2.894,2.894,0,0,1-1.9-1.81A2.631,2.631,0,0,1,2064.9,2043.486Z" transform="translate(-2062.25 -1967.271)" fill="#b5d6ea"/><path d="M2136.457,1915.692a3.335,3.335,0,0,1-2.805-1.34,3.2,3.2,0,0,1-.394-3.4,2.25,2.25,0,0,1,1.6-1.182,2.5,2.5,0,0,1,1.8.464,4,4,0,0,1,1.46,2.783,6.4,6.4,0,0,0-1.993-1.873c-.765-.317-1.4-.145-1.673.436a2.458,2.458,0,0,0,.081,2.2A4.4,4.4,0,0,0,2136.457,1915.692Z" transform="translate(-2098.877 -1897.981)" fill="#b5d6ea"/><path d="M2231.419,1891.127a9.9,9.9,0,0,1,1.178-3.743,4.186,4.186,0,0,1,3.618-2.056,3.085,3.085,0,0,1,2.112,1,3.858,3.858,0,0,1,.927,2.08,5.851,5.851,0,0,1-1.243,4.034l-.426-1.005a9.166,9.166,0,0,0,2.262-.152,3.36,3.36,0,0,1,1.432.207,1.979,1.979,0,0,1,1.161,1.06,1.691,1.691,0,0,1-.174,1.543,2.094,2.094,0,0,1-1.115.866,3.809,3.809,0,0,1-2.509-.235,4.088,4.088,0,0,0,2.3-.252c.606-.337.962-1.124.666-1.544-.235-.444-1-.6-1.653-.5a8.992,8.992,0,0,1-2.59.283l-1.017-.135.59-.87a4.945,4.945,0,0,0,.992-3.139,2.187,2.187,0,0,0-1.808-2.071,3.483,3.483,0,0,0-2.914,1.336A12.969,12.969,0,0,0,2231.419,1891.127Z" transform="translate(-2149.906 -1885.326)" fill="#b5d6ea"/><path d="M2245.6,1993.805a2.863,2.863,0,0,1,2.33-1.286,2.74,2.74,0,0,1,1.477.37,2.984,2.984,0,0,1,1.063,1.141,2.713,2.713,0,0,1,.265,1.577,2.092,2.092,0,0,1-.859,1.392,1.8,1.8,0,0,1-2.6-.344,1.654,1.654,0,0,0,1.918-.46,1.375,1.375,0,0,0,.074-1.552,1.99,1.99,0,0,0-1.41-1.076A4.119,4.119,0,0,0,2245.6,1993.805Z" transform="translate(-2157.254 -1940.867)" fill="#b5d6ea"/><path d="M2213.313,2040.729a3.139,3.139,0,0,1,3.452.015,4.17,4.17,0,0,1,2.107,3.076,3.218,3.218,0,0,1-.382,2.015,2.3,2.3,0,0,1-1.827,1.092,4.035,4.035,0,0,1-3.093-1.724,5.572,5.572,0,0,0,2.96.677,1.537,1.537,0,0,0,1-1.895,3.686,3.686,0,0,0-1.359-2.375A3.526,3.526,0,0,0,2213.313,2040.729Z" transform="translate(-2140.524 -1965.584)" fill="#b5d6ea"/><path d="M2188.625,2067.884a2.82,2.82,0,0,0-.782,2.178,2.171,2.171,0,0,0,2.932,1.741,2.828,2.828,0,0,0,1.541-1.726,2.459,2.459,0,0,1-1,2.631,2.706,2.706,0,0,1-1.542.525,3.2,3.2,0,0,1-1.579-.428,2.826,2.826,0,0,1-1.4-2.787A2.463,2.463,0,0,1,2188.625,2067.884Z" transform="translate(-2126.765 -1979.919)" fill="#b5d6ea"/></g></g><g transform="translate(1907.592 1785.477)"><path d="M1909.186,1971.025l-1.342-.16c1.551-13.033,7.117-23.279,16.543-30.456,21.385-16.281,55.906-11.26,56.254-11.208l-.2,1.336c-.341-.052-34.312-4.984-55.235,10.951C1916.082,1948.435,1910.692,1958.372,1909.186,1971.025Z" transform="translate(-1907.844 -1928.431)" fill="#22365b"/></g><g transform="translate(1968.651 1680.118)"><path d="M2053.524,1709.875c-6.093-1.587-13.919,15.757-16.737,36.2l18.5,3.363C2056.918,1726.481,2061.1,1711.848,2053.524,1709.875Z" transform="translate(-2035.715 -1709.775)" fill="#7fb8db"/><path d="M2054.131,1788.465l-18.5-3.363a112.457,112.457,0,0,0-1.066,13.983c-.254,22.064,7.854,47,26.441,53.934C2053.114,1827.971,2052.893,1805.837,2054.131,1788.465Z" transform="translate(-2034.563 -1748.806)" fill="#ca5c47"/><g transform="translate(10.585 97.582)"><path d="M2063.856,1929l-5.82-.479s-2.595,1.073-.974,3.263l5.576,1.466Z" transform="translate(-2056.53 -1920.7)" fill="#265173"/><path d="M2075.658,1912.291l-7.264,1.691,1.416,2.256s-5.043,5.893-3.433,9.785,9.418,4.912,10.186,4.662,4.476-5.028,4.185-7.482S2075.658,1912.291,2075.658,1912.291Z" transform="translate(-2061.467 -1912.291)" fill="#fff"/><path d="M2102.137,1947.724c2.3,4.97-4.25,4.332-4.25,4.332s3.85,4.681,6.846,6.228c0,0,4.191-4.166,4.533-9.714Z" transform="translate(-2077.959 -1930.651)" fill="#265173"/><path d="M2096.783,1933.091a2.492,2.492,0,0,0-.6-.95c-1.422-1.235-5.542-1.363-5.542-1.363s-2.768,1.582-1.018,4.863l2.784,1.244S2097.735,1937.237,2096.783,1933.091Z" transform="translate(-2073.378 -1921.87)" fill="#265173"/><path d="M2101.174,1941.431a20.218,20.218,0,0,0-.774-5.853c.952,4.146-4.373,3.794-4.373,3.794l.9,6.391S2103.475,1946.4,2101.174,1941.431Z" transform="translate(-2076.996 -1924.357)" fill="#5aa5d1"/></g></g><g transform="translate(1937.421 1846.328)"><path d="M2020.391,2081.458s-8.466-21.659-13.739-4.259c0,0-19.638-8.362-12.457,6.885,0,0-24.5-3.746-15.247,7.69,0,0-20.009,7.059-1,13.456,0,0,10.766,6.676,11.689-4.53,0,0,7.411,13.386,12.282,1.582,0,0,16.087,10.115,17.365-1.582,0,0,12.262,8.746,13.409,0,0,0,11.256,10.343,15.411,0,0,0,17.208,8.959,16.228-4.812s-12.073-5.532-12.073-5.532,15.8-13.157,3.612-12.666c0,0,.9-18.94-12.533-7.257,0,0,4.934-23.07-9.006-6.023,0,0-12.318-22.132-11.077.492C2023.253,2064.9,2010.086,2058.776,2020.391,2081.458Z" transform="translate(-1969.751 -2054.718)" fill="#e1f0fa"/><g transform="translate(13.973 15.802)"><path d="M2087.031,2091.827a3,3,0,0,1-.608-1.838,2.339,2.339,0,0,1,1-1.884,1.962,1.962,0,0,1,2.368,0,1.894,1.894,0,0,1,.51,2.488l-1.086-.748a5.747,5.747,0,0,1,1.931-1.842,3.548,3.548,0,0,1,2.785-.347,2.443,2.443,0,0,1,1.819,2.1,1.82,1.82,0,0,1-1.418,2,1.618,1.618,0,0,0-.681-3c-1.308-.264-2.49.674-3.36,1.85l-1.085-.748c.13-.133.082-.578-.189-.835a.939.939,0,0,0-1.089-.091,1.725,1.725,0,0,0-.919,1.136A3.51,3.51,0,0,0,2087.031,2091.827Z" transform="translate(-2044.178 -2087.512)" fill="#b5d6ea"/><path d="M2063.43,2108.292c-2.2.963-3.067,3.5-2,5.1a3.661,3.661,0,0,0,2.337,1.68,2.521,2.521,0,0,0,1.478-.1,1.563,1.563,0,0,0,1.066-1.129,1.657,1.657,0,0,1-.73,1.7,2.951,2.951,0,0,1-1.923.576,4.205,4.205,0,0,1-3.384-2.029,3.956,3.956,0,0,1-.565-2,3.913,3.913,0,0,1,.556-1.956A3.572,3.572,0,0,1,2063.43,2108.292Z" transform="translate(-2030.335 -2098.276)" fill="#b5d6ea"/><path d="M2089.6,2123.067a3.339,3.339,0,0,0,1.932,2.471,4.449,4.449,0,0,0,3.01.248,1.436,1.436,0,0,0,.966-1.995c-.273-.858-1.21-1.365-2.082-2.369l-2.067-2.377,2.879,1.371a9.716,9.716,0,0,0,3.871.928c1.3.016,2.622-.361,2.725-1.515.235-1.1-.876-2.154-2.085-2.762a11.371,11.371,0,0,0-4.052-1.219,9.834,9.834,0,0,1,4.347.563,5.777,5.777,0,0,1,1.983,1.2,2.937,2.937,0,0,1,.929,2.351,2.673,2.673,0,0,1-1.465,2.174,5.064,5.064,0,0,1-2.383.524,9.878,9.878,0,0,1-4.47-1.063l.812-1.006c.556.722,1.787,1.426,2.206,2.825a2.474,2.474,0,0,1-1.836,3.309,4.825,4.825,0,0,1-3.575-.673A3.439,3.439,0,0,1,2089.6,2123.067Z" transform="translate(-2045.822 -2102.168)" fill="#b5d6ea"/><path d="M2030.088,2116.956a2.669,2.669,0,0,0-2.87.385,2.429,2.429,0,0,0-.731,2.428,3.286,3.286,0,0,0,1.595,2.216,5.845,5.845,0,0,0,3.091.723,4.249,4.249,0,0,1-3.54.232,3.921,3.921,0,0,1-2.47-2.9,3.819,3.819,0,0,1,.147-2.015,3.008,3.008,0,0,1,1.321-1.554A2.668,2.668,0,0,1,2030.088,2116.956Z" transform="translate(-2012.399 -2102.303)" fill="#b5d6ea"/><path d="M2047.085,2137.7a5.514,5.514,0,0,0-.547,2.815,2.666,2.666,0,0,0,1.228,2.028,1.8,1.8,0,0,0,2.1.062,2.015,2.015,0,0,0,.665-2.4,1.741,1.741,0,0,1,.717,1.484,2.6,2.6,0,0,1-.645,1.676,2.461,2.461,0,0,1-1.745.829,3.231,3.231,0,0,1-1.824-.512,3.629,3.629,0,0,1-1.23-1.381,3.44,3.44,0,0,1-.317-1.78A3.865,3.865,0,0,1,2047.085,2137.7Z" transform="translate(-2022.959 -2113.515)" fill="#b5d6ea"/><path d="M2004.9,2133.684a3.332,3.332,0,0,1-2.047,2.34,3.2,3.2,0,0,1-3.38-.537,2.25,2.25,0,0,1-.706-1.864,2.5,2.5,0,0,1,.932-1.606,4,4,0,0,1,3.073-.656,6.407,6.407,0,0,0-2.341,1.415c-.511.651-.518,1.312-.031,1.729a2.461,2.461,0,0,0,2.142.515A4.395,4.395,0,0,0,2004.9,2133.684Z" transform="translate(-1998.75 -2110.207)" fill="#b5d6ea"/><path d="M2126.083,2131.409a3.138,3.138,0,0,1,3.452.014,4.174,4.174,0,0,1,2.107,3.077,3.218,3.218,0,0,1-.383,2.015,2.3,2.3,0,0,1-1.827,1.092,4.037,4.037,0,0,1-3.093-1.724,5.58,5.58,0,0,0,2.959.677,1.537,1.537,0,0,0,1-1.9,3.683,3.683,0,0,0-1.359-2.374A3.52,3.52,0,0,0,2126.083,2131.409Z" transform="translate(-2064.728 -2109.993)" fill="#b5d6ea"/><path d="M2128.442,2105.656a2.822,2.822,0,0,0,1.961-1.229,2.172,2.172,0,0,0-1.23-3.181,2.826,2.826,0,0,0-2.279.406,2.46,2.46,0,0,1,2.41-1.453,2.7,2.7,0,0,1,1.537.54,3.2,3.2,0,0,1,.977,1.312,2.827,2.827,0,0,1-.618,3.06A2.462,2.462,0,0,1,2128.442,2105.656Z" transform="translate(-2065.149 -2094.085)" fill="#b5d6ea"/></g></g><g transform="translate(2147.718 1747.336)"><g transform="translate(0)"><path d="M2430.4,1864.128s-22.039,14.271-24.207,27.64c0,0,3.071,7.587,7.046,7.046s6.684-5.239,6.684-5.239l16.62-1.445s11.381-14.271,9.394-20.956S2430.4,1864.128,2430.4,1864.128Z" transform="translate(-2406.19 -1856.971)" fill="#b5d6ea"/><path d="M2707.922,1955.6c.162,15.664-6.516,36.628-4.905,42.084,2.236,7.576,9.073,17.294,9.847,23.14,2.939,22.187-1.045,33.21-1.045,33.21h-10.466s9.822-15.05,6.065-32.715a8.28,8.28,0,0,0-3.7-4.923c-6.577-4.212-22.222-15.2-23.811-25.375Z" transform="translate(-2548.018 -1904.369)" fill="#7fb8db"/><path d="M2733.063,1936.339s6.78,9.617,8.012,20.434c0,0-8.405-14.572-10.5-14.948S2733.063,1936.339,2733.063,1936.339Z" transform="translate(-2573.989 -1894.387)" fill="#7fb8db"/><path d="M2557.6,1930.641s81.207-11.921,86.117,0-9.982,43.79-10.483,51.367,2.824,17.294,1.486,23.14c-5.077,22.187-13.045,33.21-13.045,33.21h-10.466s15.259-15.05,17.885-32.715a5.4,5.4,0,0,0-1.918-4.923c-5.055-4.213-16.729-15.2-14.642-25.375,0,0-30.8,13.135-40.731,11.535S2557.6,1930.641,2557.6,1930.641Z" transform="translate(-2484.644 -1888.689)" fill="#b5d6ea"/><path d="M2547.633,2071.273s1.5,28.845-5.709,41.766h-10.517s12.62-15.625,12.32-43.568Z" transform="translate(-2471.072 -1963.37)" fill="#7fb8db"/><path d="M2502.837,2071.273s1.5,28.845-5.709,41.766h-10.516s12.62-15.625,12.32-43.568Z" transform="translate(-2447.861 -1963.37)" fill="#7fb8db"/><path d="M2522.137,1871.047c.6-13.472-10.6-2.147-10.6-2.147-.442-10.27-9.272-.692-9.272-.692,2.207-14.495-11.259-1.621-11.259-1.621,1.324-11.259-11.356-3.338-11.356-3.338,3.091-18.027-14.341-6.818-14.341-6.818-2.233-11.418-11.129-3.753-11.129-3.753-.361-4.221-7.105-5.3-8.953,1.325s5.324,5.3,5.324,5.3c-4.029,8.831,7.562,3.643,7.562,3.643s-6.622,0-1.987,7.616c0,0-8.941.586-5.629,8.406,0,0-9.934,3.515-2.318,8.482,0,0-9.6,10.554,1.324,11.4,0,0-8.61,12.439,4.968,14.095,0,0-15.233,7.616,0,11.259,0,0-5.63,14.239,5.3,9.6,0,0-2.649,12.252,6.623,6.291,0,0-.331,13.577,9.272,7.617,0,0-6.954,13.907,2.649,10.927,0,0,0,10.266,8.279,4.3,0,0,6.292,11.922,9.6.332,0,0,8.61,9.272,8.61-1.987,0,0,5.629,6.623,7.616-4.636,0,0,4.3,6.954,8.279-.331,0,0,6.954,13.245,14.239-1.656,0,0,3.974,11.921,10.265-1.324,0,0,1.463,23.6,8.085,14.33,0,0,14.245,4.052,8.256-9.744,0,0,14.386-.519,1.873-9.666,10.782-2.053,7.041-12.844.386-13.321,0,0,11.439-15.324-4-11.718,0,0,5.831-18.028-7.959-9.465,0,0-.782-15.324-10.441-5.408,0,0-5.041.99-12.758-1.083l-4.533-9.714a10.813,10.813,0,0,1,2.675-9.011s14.88-.316,5.114-8.908C2531.9,1879.639,2536.865,1863.486,2522.137,1871.047Z" transform="translate(-2425.927 -1849.274)" fill="#e1f0fa"/><path d="M2446.583,1880.862c2.032,1.084-3.252,6.5-4.607,4.336S2444.551,1879.778,2446.583,1880.862Z" transform="translate(-2424.589 -1865.53)" fill="#265173"/><path d="M2420.7,1921.49s-5.069,5.417-7.773,5.238l1.6,1.316A23.555,23.555,0,0,0,2420.7,1921.49Z" transform="translate(-2409.681 -1886.693)" fill="#5aa5d1"/><path d="M2412.978,1914.128s-1.127,3.6-3.944,3.547C2409.034,1917.675,2412.188,1919.987,2412.978,1914.128Z" transform="translate(-2407.664 -1882.878)" fill="#265173"/><g transform="translate(33.231 17.372)"><path d="M2549.685,1921.822a4.223,4.223,0,0,0-.4-6.474,4.625,4.625,0,0,0-4.921-.219,3.983,3.983,0,0,0-1.66,1.95,3.9,3.9,0,0,0,.961,4.434,4.111,4.111,0,0,1-.005-3.987,3.3,3.3,0,0,1,3.136-1.647,3.406,3.406,0,0,1,3.016,1.915A4.447,4.447,0,0,1,2549.685,1921.822Z" transform="translate(-2509.997 -1900.457)" fill="#b5d6ea"/><path d="M2496.314,1943.738a6.212,6.212,0,0,0-3.607-2.29,13.835,13.835,0,0,0-2.126-.508,4.02,4.02,0,0,0-2.352.259,2.414,2.414,0,0,0-1.306,2.2,3.451,3.451,0,0,0,.977,2.309,7.1,7.1,0,0,0,4.293,1.645l-.185-1.254a9.1,9.1,0,0,0-4.291,4.1,3.091,3.091,0,0,0,.142,3.289,4.928,4.928,0,0,0,2.672,1.64,10.77,10.77,0,0,0,5.732-.739,46.915,46.915,0,0,0,5.089-2.364c-1.78.56-3.526,1.222-5.3,1.68a9.935,9.935,0,0,1-5.231.321,3.791,3.791,0,0,1-1.953-1.279,1.9,1.9,0,0,1,.044-1.99,8.425,8.425,0,0,1,3.644-3.461l1.964-.984-2.149-.27a6.459,6.459,0,0,1-3.611-1.182c-.83-.786-1.09-2.273-.074-2.844,1.014-.587,2.528-.229,3.889-.01A6.41,6.41,0,0,1,2496.314,1943.738Z" transform="translate(-2481.252 -1914.11)" fill="#b5d6ea"/><path d="M2571.67,1966.156a2.99,2.99,0,0,0,.607-1.838,2.336,2.336,0,0,0-1-1.884,1.963,1.963,0,0,0-2.368,0,1.894,1.894,0,0,0-.509,2.488l1.085-.748a5.745,5.745,0,0,0-1.931-1.843,3.546,3.546,0,0,0-2.785-.347,2.442,2.442,0,0,0-1.818,2.1,1.82,1.82,0,0,0,1.419,2,1.617,1.617,0,0,1,.681-3c1.308-.264,2.49.674,3.36,1.85l1.085-.748c-.13-.133-.082-.578.189-.835a.938.938,0,0,1,1.088-.091,1.729,1.729,0,0,1,.92,1.137A3.517,3.517,0,0,1,2571.67,1966.156Z" transform="translate(-2520.646 -1924.973)" fill="#b5d6ea"/><path d="M2530.827,1993.656a10.831,10.831,0,0,1-3.709,7.629,4.144,4.144,0,0,1-1.7.981,1.124,1.124,0,0,1-1.27-.614c-.6-1.033.044-2.289.839-3.509l-1.163-.578a2.9,2.9,0,0,1-4.355,1.291,2.532,2.532,0,0,1-1.115-2.158,1.8,1.8,0,0,1,1.433-1.67l4.614-.605-4.6-.552a2.978,2.978,0,0,1-2.128-1.629,5.369,5.369,0,0,1-.651-2.941,3.224,3.224,0,0,1,1.307-2.6,2.21,2.21,0,0,1,2.864.36,2.347,2.347,0,0,0-3.061-.731,3.618,3.618,0,0,0-1.85,2.9,6.228,6.228,0,0,0,.531,3.459,3.929,3.929,0,0,0,2.823,2.342l.015-1.156a3.009,3.009,0,0,0-2.572,2.729,3.779,3.779,0,0,0,1.627,3.343,4.2,4.2,0,0,0,3.639.609,4.272,4.272,0,0,0,2.695-2.514l-1.163-.578a8.427,8.427,0,0,0-1.036,2.16,3.3,3.3,0,0,0,.3,2.628,2.307,2.307,0,0,0,1.08.963,2.2,2.2,0,0,0,1.441.077,5.035,5.035,0,0,0,2.061-1.335,10.248,10.248,0,0,0,2.509-3.84A9.93,9.93,0,0,0,2530.827,1993.656Z" transform="translate(-2496.438 -1937.524)" fill="#b5d6ea"/><path d="M2598.965,2000.511c2.2.963,3.067,3.5,2,5.1a3.66,3.66,0,0,1-2.337,1.68,2.522,2.522,0,0,1-1.478-.1,1.565,1.565,0,0,1-1.066-1.129,1.658,1.658,0,0,0,.731,1.7,2.945,2.945,0,0,0,1.922.575,4.206,4.206,0,0,0,3.383-2.029,3.953,3.953,0,0,0,.565-2,3.912,3.912,0,0,0-.556-1.955A3.574,3.574,0,0,0,2598.965,2000.511Z" transform="translate(-2537.79 -1945.006)" fill="#b5d6ea"/><path d="M2565.066,2033.364a3.338,3.338,0,0,1,.008,3.137,4.452,4.452,0,0,1-2.213,2.056,1.438,1.438,0,0,1-1.993-.972c-.315-.844.109-1.821.175-3.149l.156-3.146-1.417,2.857a9.709,9.709,0,0,1-2.469,3.121c-1.013.817-2.285,1.336-3.079.493-.862-.717-.642-2.234-.067-3.46a11.38,11.38,0,0,1,2.432-3.461,9.828,9.828,0,0,0-3.069,3.129,5.768,5.768,0,0,0-.821,2.166,2.934,2.934,0,0,0,.722,2.422,2.673,2.673,0,0,0,2.5.8,5.072,5.072,0,0,0,2.2-1.06,9.885,9.885,0,0,0,2.858-3.6l-1.26-.289c.009.911-.525,2.225.01,3.583a2.475,2.475,0,0,0,3.489,1.467,4.825,4.825,0,0,0,2.4-2.738A3.44,3.44,0,0,0,2565.066,2033.364Z" transform="translate(-2515.323 -1960.724)" fill="#b5d6ea"/><path d="M2644.142,2018.029a2.668,2.668,0,0,1,2.87.386,2.429,2.429,0,0,1,.731,2.428,3.284,3.284,0,0,1-1.595,2.215,5.837,5.837,0,0,1-3.091.723,4.25,4.25,0,0,0,3.54.232,3.921,3.921,0,0,0,2.47-2.9,3.81,3.81,0,0,0-.147-2.015,3.006,3.006,0,0,0-1.321-1.554A2.668,2.668,0,0,0,2644.142,2018.029Z" transform="translate(-2562.154 -1953.621)" fill="#b5d6ea"/><path d="M2617.729,2036.151a5.517,5.517,0,0,1,.546,2.816,2.667,2.667,0,0,1-1.228,2.028,1.8,1.8,0,0,1-2.1.063,2.015,2.015,0,0,1-.665-2.4,1.742,1.742,0,0,0-.717,1.484,2.612,2.612,0,0,0,.646,1.676,2.46,2.46,0,0,0,1.745.829,3.225,3.225,0,0,0,1.824-.512,3.631,3.631,0,0,0,1.23-1.381,3.435,3.435,0,0,0,.316-1.781A3.866,3.866,0,0,0,2617.729,2036.151Z" transform="translate(-2546.873 -1963.477)" fill="#b5d6ea"/><path d="M2589.439,1915.692a3.335,3.335,0,0,0,2.805-1.34,3.2,3.2,0,0,0,.394-3.4,2.25,2.25,0,0,0-1.6-1.182,2.5,2.5,0,0,0-1.8.464,4,4,0,0,0-1.46,2.783,6.4,6.4,0,0,1,1.993-1.873c.765-.317,1.4-.145,1.672.436a2.459,2.459,0,0,1-.081,2.2A4.4,4.4,0,0,1,2589.439,1915.692Z" transform="translate(-2533.51 -1897.981)" fill="#b5d6ea"/><path d="M2488.075,1891.127a9.908,9.908,0,0,0-1.178-3.743,4.186,4.186,0,0,0-3.618-2.056,3.086,3.086,0,0,0-2.112,1,3.863,3.863,0,0,0-.927,2.08,5.851,5.851,0,0,0,1.243,4.034l.427-1.005a9.167,9.167,0,0,1-2.262-.152,3.36,3.36,0,0,0-1.432.207,1.979,1.979,0,0,0-1.162,1.06,1.693,1.693,0,0,0,.174,1.543,2.094,2.094,0,0,0,1.115.866,3.811,3.811,0,0,0,2.51-.235,4.09,4.09,0,0,1-2.3-.252c-.606-.337-.961-1.124-.665-1.544.235-.444,1-.6,1.653-.5a8.994,8.994,0,0,0,2.591.283l1.017-.135-.59-.87a4.943,4.943,0,0,1-.993-3.139,2.188,2.188,0,0,1,1.808-2.071,3.483,3.483,0,0,1,2.914,1.336A12.969,12.969,0,0,1,2488.075,1891.127Z" transform="translate(-2476.081 -1885.326)" fill="#b5d6ea"/><path d="M2480.317,1993.805a2.863,2.863,0,0,0-2.33-1.286,2.739,2.739,0,0,0-1.476.37,2.984,2.984,0,0,0-1.062,1.141,2.714,2.714,0,0,0-.266,1.577,2.094,2.094,0,0,0,.859,1.392,1.8,1.8,0,0,0,2.6-.344,1.654,1.654,0,0,1-1.918-.46,1.375,1.375,0,0,1-.073-1.552,1.989,1.989,0,0,1,1.41-1.076A4.12,4.12,0,0,1,2480.317,1993.805Z" transform="translate(-2475.156 -1940.867)" fill="#b5d6ea"/><path d="M2512.153,2040.729a3.139,3.139,0,0,0-3.452.015,4.171,4.171,0,0,0-2.106,3.076,3.215,3.215,0,0,0,.383,2.015,2.3,2.3,0,0,0,1.827,1.092,4.035,4.035,0,0,0,3.093-1.724,5.573,5.573,0,0,1-2.96.677,1.537,1.537,0,0,1-1-1.895,3.684,3.684,0,0,1,1.359-2.375A3.524,3.524,0,0,1,2512.153,2040.729Z" transform="translate(-2491.434 -1965.584)" fill="#b5d6ea"/><path d="M2536.77,2067.884a2.818,2.818,0,0,1,.782,2.178,2.171,2.171,0,0,1-2.931,1.741,2.828,2.828,0,0,1-1.541-1.726,2.459,2.459,0,0,0,1,2.631,2.709,2.709,0,0,0,1.542.525,3.2,3.2,0,0,0,1.579-.428,2.827,2.827,0,0,0,1.4-2.787A2.463,2.463,0,0,0,2536.77,2067.884Z" transform="translate(-2505.122 -1979.919)" fill="#b5d6ea"/></g></g><path d="M2615.068,1909.133s11.582-11.678,14.305,2c0,0,11.365-13.677,15.686,0,0,0,15.758-13.22,11.946,3.405,0,0,13.2-12.252,10.412,4.7,0,0,18.406,3.033,5.522,8.116,0,0,7.735,17.427-4.989,4.774,0,0,15.741,14.711,1.508,8.146,0,0,5.628,5.365-3.54,1.688,0,0,12.223,9.033-2.56,16.638,0,0,18.675,13.087-1.465,15.829,0,0,9.6,15.868-1.585,8.8,0,0-1.017,11.719-8.387,1.815,0,0,3.685,8.791-10.448,1.506l-19.11-41.654-23.832-9.4,2.124-18.362,11.174-8.873S2614.3,1903.624,2615.068,1909.133Z" transform="translate(-2505.852 -1877.883)" fill="#e1f0fa"/><path d="M2647.161,1947.451a6.21,6.21,0,0,0-3.608-2.29,13.861,13.861,0,0,0-2.126-.508,4.023,4.023,0,0,0-2.352.259,2.414,2.414,0,0,0-1.306,2.2,3.45,3.45,0,0,0,.977,2.309,7.1,7.1,0,0,0,4.293,1.645l-.185-1.254a9.1,9.1,0,0,0-4.292,4.1,3.09,3.09,0,0,0,.142,3.289,4.926,4.926,0,0,0,2.672,1.64,10.766,10.766,0,0,0,5.733-.739,46.978,46.978,0,0,0,5.089-2.364c-1.781.56-3.526,1.222-5.3,1.68a9.936,9.936,0,0,1-5.231.321,3.788,3.788,0,0,1-1.953-1.279,1.894,1.894,0,0,1,.044-1.99,8.425,8.425,0,0,1,3.644-3.461l1.964-.983-2.149-.27a6.464,6.464,0,0,1-3.611-1.182c-.83-.786-1.09-2.273-.074-2.843,1.013-.587,2.528-.229,3.889-.011A6.408,6.408,0,0,1,2647.161,1947.451Z" transform="translate(-2526.182 -1898.662)" fill="#b5d6ea"/><path d="M2709.937,1969.87a3,3,0,0,0,.608-1.838,2.339,2.339,0,0,0-1-1.884,1.964,1.964,0,0,0-2.368,0,1.894,1.894,0,0,0-.509,2.488l1.086-.748a5.743,5.743,0,0,0-1.931-1.843,3.547,3.547,0,0,0-2.786-.347,2.442,2.442,0,0,0-1.818,2.1,1.819,1.819,0,0,0,1.419,2,1.618,1.618,0,0,1,.681-3c1.308-.264,2.49.674,3.36,1.85l1.086-.748c-.13-.132-.082-.578.189-.835a.939.939,0,0,1,1.088-.091,1.728,1.728,0,0,1,.919,1.137A3.509,3.509,0,0,1,2709.937,1969.87Z" transform="translate(-2559.058 -1909.525)" fill="#b5d6ea"/><path d="M2704.774,1997.368a10.83,10.83,0,0,1-3.708,7.629,4.152,4.152,0,0,1-1.7.982,1.126,1.126,0,0,1-1.271-.614c-.6-1.033.044-2.289.84-3.509l-1.163-.578a2.9,2.9,0,0,1-4.355,1.292,2.53,2.53,0,0,1-1.115-2.158,1.8,1.8,0,0,1,1.432-1.67l4.614-.605-4.6-.552a2.978,2.978,0,0,1-2.128-1.629,5.373,5.373,0,0,1-.651-2.941,3.223,3.223,0,0,1,1.307-2.6,2.21,2.21,0,0,1,2.864.36,2.347,2.347,0,0,0-3.061-.732,3.616,3.616,0,0,0-1.849,2.9,6.222,6.222,0,0,0,.53,3.459,3.928,3.928,0,0,0,2.823,2.342l.015-1.156a3.008,3.008,0,0,0-2.572,2.729,3.779,3.779,0,0,0,1.626,3.343,4.2,4.2,0,0,0,3.639.608,4.272,4.272,0,0,0,2.7-2.514l-1.163-.578a8.425,8.425,0,0,0-1.037,2.16,3.3,3.3,0,0,0,.3,2.628,2.31,2.31,0,0,0,1.08.963,2.2,2.2,0,0,0,1.442.077,5.035,5.035,0,0,0,2.061-1.335,10.246,10.246,0,0,0,2.509-3.84A9.927,9.927,0,0,0,2704.774,1997.368Z" transform="translate(-2553.338 -1922.076)" fill="#b5d6ea"/><path d="M2669.328,2047.2a2.342,2.342,0,0,1,1.537,3.022,1.981,1.981,0,0,1-2.748.715l-.421,1.211a1.181,1.181,0,0,1,.988.7,1.081,1.081,0,0,1-.244,1.225,1.259,1.259,0,0,1-1.4.348,1.725,1.725,0,0,1-1.084-1.412,1.842,1.842,0,0,0,.769,1.977,2.007,2.007,0,0,0,2.393-.134,2.166,2.166,0,0,0,.736-2.467,2.406,2.406,0,0,0-2.126-1.583l-2.189-.118,1.768,1.329a2.985,2.985,0,0,0,2.656.4,2.894,2.894,0,0,0,1.9-1.81A2.63,2.63,0,0,0,2669.328,2047.2Z" transform="translate(-2540.575 -1951.823)" fill="#b5d6ea"/><path d="M2711.6,1939.82a3.335,3.335,0,0,0,2.806-1.34,3.2,3.2,0,0,0,.394-3.4,2.25,2.25,0,0,0-1.6-1.182,2.5,2.5,0,0,0-1.8.464,4,4,0,0,0-1.46,2.783,6.4,6.4,0,0,1,1.993-1.873c.765-.317,1.4-.145,1.673.436a2.46,2.46,0,0,1-.081,2.2A4.4,4.4,0,0,1,2711.6,1939.82Z" transform="translate(-2563.579 -1893.111)" fill="#b5d6ea"/></g><g transform="translate(2337.499 1793.404)"><g transform="translate(0 0)"><path d="M2816.735,1955.12s-15.188,9.835-16.682,19.048c0,0,2.116,5.229,4.855,4.855s4.606-3.611,4.606-3.611l11.454-1s7.844-9.835,6.474-14.441S2816.735,1955.12,2816.735,1955.12Z" transform="translate(-2800.052 -1950.187)" fill="#b5d6ea"/><path d="M3007.99,2018.16c.112,10.794-4.49,25.241-3.381,29,1.542,5.222,6.253,11.919,6.787,15.947,2.026,15.29-.72,22.887-.72,22.887h-7.213s6.769-10.371,4.18-22.545a5.706,5.706,0,0,0-2.548-3.393c-4.532-2.9-15.315-10.478-16.409-17.487Z" transform="translate(-2897.793 -1982.852)" fill="#7fb8db"/><path d="M3025.315,2004.884s4.672,6.627,5.522,14.082c0,0-5.792-10.042-7.234-10.3S3025.315,2004.884,3025.315,2004.884Z" transform="translate(-2915.69 -1975.973)" fill="#7fb8db"/><path d="M2904.4,2000.958s55.963-8.216,59.348,0-6.88,30.177-7.225,35.4,1.946,11.918,1.024,15.947c-3.5,15.29-8.99,22.887-8.99,22.887h-7.213s10.516-10.371,12.326-22.545a3.721,3.721,0,0,0-1.322-3.393c-3.484-2.9-11.529-10.478-10.091-17.487,0,0-21.223,9.052-28.07,7.949S2904.4,2000.958,2904.4,2000.958Z" transform="translate(-2854.118 -1972.046)" fill="#b5d6ea"/><path d="M2897.527,2097.874s1.036,19.878-3.934,28.782h-7.247s8.7-10.767,8.49-30.025Z" transform="translate(-2844.765 -2023.512)" fill="#7fb8db"/><path d="M2866.656,2097.874s1.035,19.878-3.934,28.782h-7.248s8.7-10.767,8.49-30.025Z" transform="translate(-2828.77 -2023.512)" fill="#7fb8db"/><path d="M2879.957,1959.887c.411-9.283-7.3-1.479-7.3-1.479-.3-7.078-6.39-.478-6.39-.478,1.521-9.989-7.759-1.117-7.759-1.117.913-7.759-7.826-2.3-7.826-2.3,2.13-12.423-9.883-4.7-9.883-4.7-1.539-7.869-7.67-2.586-7.67-2.586-.249-2.909-4.9-3.651-6.17.913s3.669,3.651,3.669,3.651c-2.776,6.085,5.211,2.51,5.211,2.51s-4.564,0-1.369,5.249c0,0-6.161.4-3.879,5.793,0,0-6.846,2.423-1.6,5.846,0,0-6.618,7.273.913,7.859,0,0-5.933,8.573,3.423,9.713,0,0-10.5,5.249,0,7.759,0,0-3.88,9.813,3.651,6.617,0,0-1.826,8.444,4.564,4.336,0,0-.228,9.356,6.39,5.249,0,0-4.792,9.584,1.826,7.531,0,0,0,7.074,5.705,2.967,0,0,4.336,8.215,6.618.228,0,0,5.934,6.39,5.934-1.37,0,0,3.879,4.565,5.249-3.194,0,0,2.967,4.792,5.705-.229,0,0,4.792,9.129,9.813-1.141,0,0,2.738,8.215,7.074-.913,0,0,1.008,16.265,5.572,9.876,0,0,9.817,2.792,5.689-6.715,0,0,9.915-.357,1.291-6.661,7.43-1.415,4.852-8.851.266-9.18,0,0,7.884-10.561-2.757-8.076,0,0,4.019-12.424-5.485-6.522,0,0-.539-10.561-7.2-3.728a21.281,21.281,0,0,1-8.792-.746l-3.124-6.695a7.451,7.451,0,0,1,1.843-6.21s10.254-.217,3.524-6.139C2886.688,1965.809,2890.106,1954.677,2879.957,1959.887Z" transform="translate(-2813.654 -1944.883)" fill="#e1f0fa"/><path d="M2827.889,1966.651c1.4.747-2.241,4.482-3.175,2.988S2826.488,1965.9,2827.889,1966.651Z" transform="translate(-2812.731 -1956.085)" fill="#265173"/><path d="M2810.052,1994.651s-3.493,3.733-5.357,3.609l1.1.907A16.227,16.227,0,0,0,2810.052,1994.651Z" transform="translate(-2802.458 -1970.67)" fill="#5aa5d1"/><path d="M2804.73,1989.577s-.777,2.482-2.718,2.445C2802.012,1992.022,2804.186,1993.615,2804.73,1989.577Z" transform="translate(-2801.068 -1968.041)" fill="#265173"/><g transform="translate(22.901 11.972)"><path d="M2898.941,1994.879a2.911,2.911,0,0,0-.279-4.462,3.284,3.284,0,0,0-1.672-.564,3.246,3.246,0,0,0-1.719.413,2.742,2.742,0,0,0-1.144,1.344,2.691,2.691,0,0,0,.663,3.055,2.835,2.835,0,0,1,0-2.748,2.274,2.274,0,0,1,2.162-1.135,2.348,2.348,0,0,1,2.079,1.32A3.066,3.066,0,0,1,2898.941,1994.879Z" transform="translate(-2871.59 -1980.155)" fill="#b5d6ea"/><path d="M2862.161,2009.982a4.287,4.287,0,0,0-2.486-1.578,9.631,9.631,0,0,0-1.466-.35,2.769,2.769,0,0,0-1.62.179,1.662,1.662,0,0,0-.9,1.516,2.375,2.375,0,0,0,.673,1.591,4.892,4.892,0,0,0,2.958,1.133l-.128-.864a6.273,6.273,0,0,0-2.957,2.828,2.13,2.13,0,0,0,.1,2.267,3.4,3.4,0,0,0,1.842,1.13,7.414,7.414,0,0,0,3.95-.51,32.2,32.2,0,0,0,3.508-1.629c-1.227.386-2.43.843-3.656,1.158a6.842,6.842,0,0,1-3.6.221,2.609,2.609,0,0,1-1.346-.881,1.306,1.306,0,0,1,.03-1.371,5.8,5.8,0,0,1,2.511-2.385l1.353-.678-1.481-.186a4.453,4.453,0,0,1-2.489-.815c-.572-.542-.751-1.567-.051-1.96a6.4,6.4,0,0,1,5.262,1.183Z" transform="translate(-2851.781 -1989.565)" fill="#b5d6ea"/><path d="M2914.092,2025.433a2.065,2.065,0,0,0,.418-1.267,1.61,1.61,0,0,0-.687-1.3,1.353,1.353,0,0,0-1.632,0,1.305,1.305,0,0,0-.351,1.714l.748-.516a3.962,3.962,0,0,0-1.331-1.27,2.446,2.446,0,0,0-1.92-.239,1.683,1.683,0,0,0-1.252,1.448,1.253,1.253,0,0,0,.977,1.376,1.115,1.115,0,0,1,.469-2.065,2.478,2.478,0,0,1,2.315,1.274l.748-.516c-.089-.091-.057-.4.13-.575a.646.646,0,0,1,.75-.063,1.19,1.19,0,0,1,.634.783A2.428,2.428,0,0,1,2914.092,2025.433Z" transform="translate(-2878.929 -1997.051)" fill="#b5d6ea"/><path d="M2885.945,2044.383a7.465,7.465,0,0,1-2.556,5.257,2.857,2.857,0,0,1-1.172.676.774.774,0,0,1-.875-.423c-.416-.712.031-1.577.579-2.418l-.8-.4a1.995,1.995,0,0,1-3,.89,1.743,1.743,0,0,1-.768-1.487,1.24,1.24,0,0,1,.987-1.151l3.18-.417-3.169-.38a2.052,2.052,0,0,1-1.467-1.123,3.7,3.7,0,0,1-.449-2.027,2.22,2.22,0,0,1,.9-1.791,1.523,1.523,0,0,1,1.974.248,1.618,1.618,0,0,0-2.109-.5,2.492,2.492,0,0,0-1.274,1.995,4.286,4.286,0,0,0,.365,2.384,2.708,2.708,0,0,0,1.945,1.614l.011-.8a2.072,2.072,0,0,0-1.772,1.881,2.6,2.6,0,0,0,1.121,2.3,2.9,2.9,0,0,0,2.508.419,2.945,2.945,0,0,0,1.857-1.732l-.8-.4a5.836,5.836,0,0,0-.714,1.489,2.272,2.272,0,0,0,.206,1.811,1.591,1.591,0,0,0,.744.664,1.515,1.515,0,0,0,.993.053,3.467,3.467,0,0,0,1.42-.92,7.069,7.069,0,0,0,1.729-2.646A6.836,6.836,0,0,0,2885.945,2044.383Z" transform="translate(-2862.246 -2005.7)" fill="#b5d6ea"/><path d="M2932.9,2049.108a2.414,2.414,0,0,1-.231,4.674,1.74,1.74,0,0,1-1.019-.069,1.076,1.076,0,0,1-.734-.778,1.142,1.142,0,0,0,.5,1.173,2.03,2.03,0,0,0,1.325.4,2.9,2.9,0,0,0,2.332-1.4,2.728,2.728,0,0,0,.389-1.38,2.691,2.691,0,0,0-.383-1.348A2.461,2.461,0,0,0,2932.9,2049.108Z" transform="translate(-2890.744 -2010.857)" fill="#b5d6ea"/><path d="M2909.541,2071.748a2.3,2.3,0,0,1,.005,2.162,3.064,3.064,0,0,1-1.525,1.416.99.99,0,0,1-1.373-.67c-.217-.581.075-1.255.12-2.17l.107-2.168-.976,1.969a6.7,6.7,0,0,1-1.7,2.151c-.7.563-1.574.92-2.122.339-.594-.494-.442-1.54-.046-2.384a7.841,7.841,0,0,1,1.676-2.385,6.774,6.774,0,0,0-2.115,2.156,3.983,3.983,0,0,0-.566,1.493,2.026,2.026,0,0,0,.5,1.669,1.841,1.841,0,0,0,1.719.553,3.487,3.487,0,0,0,1.515-.731,6.823,6.823,0,0,0,1.97-2.48l-.869-.2a5.636,5.636,0,0,0,.008,2.469,1.706,1.706,0,0,0,2.4,1.011,3.322,3.322,0,0,0,1.65-1.887A2.37,2.37,0,0,0,2909.541,2071.748Z" transform="translate(-2875.261 -2021.688)" fill="#b5d6ea"/><path d="M2964.036,2061.18a1.839,1.839,0,0,1,1.978.266,1.673,1.673,0,0,1,.5,1.673,2.263,2.263,0,0,1-1.1,1.527,4.022,4.022,0,0,1-2.13.5,2.93,2.93,0,0,0,2.44.16,2.7,2.7,0,0,0,1.7-2,2.638,2.638,0,0,0-.1-1.389,2.073,2.073,0,0,0-.91-1.071A1.84,1.84,0,0,0,2964.036,2061.18Z" transform="translate(-2907.534 -2016.794)" fill="#b5d6ea"/><path d="M2945.834,2073.669a3.8,3.8,0,0,1,.376,1.94,1.836,1.836,0,0,1-.846,1.4,1.239,1.239,0,0,1-1.448.043,1.389,1.389,0,0,1-.459-1.657,1.2,1.2,0,0,0-.494,1.022,1.8,1.8,0,0,0,.445,1.155,1.7,1.7,0,0,0,1.2.572,2.224,2.224,0,0,0,1.257-.354,2.5,2.5,0,0,0,.847-.951,2.366,2.366,0,0,0,.219-1.227A2.666,2.666,0,0,0,2945.834,2073.669Z" transform="translate(-2897.003 -2023.585)" fill="#b5d6ea"/><path d="M2926.338,1990.655a2.3,2.3,0,0,0,1.933-.924,2.2,2.2,0,0,0,.271-2.343,1.549,1.549,0,0,0-1.106-.815,1.724,1.724,0,0,0-1.239.319,2.755,2.755,0,0,0-1.006,1.918,4.414,4.414,0,0,1,1.373-1.291c.528-.218.967-.1,1.153.3a1.694,1.694,0,0,1-.056,1.517A3.032,3.032,0,0,1,2926.338,1990.655Z" transform="translate(-2887.795 -1978.45)" fill="#b5d6ea"/><path d="M2856.483,1973.726a6.833,6.833,0,0,0-.812-2.579,2.885,2.885,0,0,0-2.494-1.417,2.128,2.128,0,0,0-1.456.686,2.661,2.661,0,0,0-.638,1.433,4.035,4.035,0,0,0,.856,2.78l.294-.692a6.308,6.308,0,0,1-1.559-.1,2.311,2.311,0,0,0-.986.143,1.364,1.364,0,0,0-.8.73,1.167,1.167,0,0,0,.12,1.063,1.444,1.444,0,0,0,.769.6,2.626,2.626,0,0,0,1.729-.162,2.817,2.817,0,0,1-1.588-.173c-.417-.232-.663-.775-.459-1.064a1.132,1.132,0,0,1,1.14-.342,6.2,6.2,0,0,0,1.785.195l.7-.093-.407-.6a3.4,3.4,0,0,1-.684-2.164,1.507,1.507,0,0,1,1.245-1.427,2.4,2.4,0,0,1,2.008.92A8.95,8.95,0,0,1,2856.483,1973.726Z" transform="translate(-2848.217 -1969.728)" fill="#b5d6ea"/><path d="M2851.136,2044.486a1.973,1.973,0,0,0-1.606-.887,1.882,1.882,0,0,0-1.017.255,2.054,2.054,0,0,0-.732.786,1.875,1.875,0,0,0-.183,1.087,1.444,1.444,0,0,0,.593.959,1.24,1.24,0,0,0,1.793-.237,1.139,1.139,0,0,1-1.322-.317.946.946,0,0,1-.051-1.07,1.369,1.369,0,0,1,.971-.741A2.833,2.833,0,0,1,2851.136,2044.486Z" transform="translate(-2847.579 -2008.004)" fill="#b5d6ea"/><path d="M2873.076,2076.824a2.163,2.163,0,0,0-2.379.011,2.872,2.872,0,0,0-1.451,2.119,2.209,2.209,0,0,0,.263,1.389,1.583,1.583,0,0,0,1.259.753,2.782,2.782,0,0,0,2.131-1.188,3.844,3.844,0,0,1-2.04.467,1.059,1.059,0,0,1-.69-1.306,2.542,2.542,0,0,1,.937-1.636A2.432,2.432,0,0,1,2873.076,2076.824Z" transform="translate(-2858.797 -2025.038)" fill="#b5d6ea"/><path d="M2890.041,2095.538a1.943,1.943,0,0,1,.539,1.5,1.5,1.5,0,0,1-2.02,1.2,1.949,1.949,0,0,1-1.062-1.19,1.7,1.7,0,0,0,.688,1.813,1.869,1.869,0,0,0,1.063.362,2.207,2.207,0,0,0,1.088-.295,1.948,1.948,0,0,0,.968-1.921A1.7,1.7,0,0,0,2890.041,2095.538Z" transform="translate(-2868.23 -2034.917)" fill="#b5d6ea"/></g></g><path d="M2944,1986.135s7.982-8.048,9.859,1.377c0,0,7.832-9.425,10.81,0,0,0,10.859-9.11,8.232,2.347,0,0,9.1-8.444,7.175,3.236,0,0,12.685,2.09,3.806,5.593,0,0,5.331,12.009-3.438,3.29,0,0,10.848,10.138,1.04,5.614,0,0,3.878,3.7-2.44,1.163,0,0,8.423,6.225-1.763,11.466,0,0,12.869,9.018-1.009,10.908,0,0,6.614,10.935-1.093,6.063,0,0-.7,8.076-5.78,1.251,0,0,2.539,6.058-7.2,1.038l-13.17-28.706-16.424-6.481,1.464-12.654,7.7-6.115S2943.474,1982.338,2944,1986.135Z" transform="translate(-2868.734 -1964.599)" fill="#e1f0fa"/><path d="M2966.117,2012.541a4.282,4.282,0,0,0-2.486-1.578,9.564,9.564,0,0,0-1.466-.35,2.77,2.77,0,0,0-1.62.179,1.664,1.664,0,0,0-.9,1.516,2.378,2.378,0,0,0,.673,1.591,4.893,4.893,0,0,0,2.958,1.133l-.128-.864a6.269,6.269,0,0,0-2.957,2.828,2.129,2.129,0,0,0,.1,2.266,3.4,3.4,0,0,0,1.842,1.13,7.418,7.418,0,0,0,3.95-.509,32.336,32.336,0,0,0,3.508-1.629c-1.227.386-2.43.843-3.656,1.158a6.842,6.842,0,0,1-3.6.221,2.609,2.609,0,0,1-1.346-.881,1.306,1.306,0,0,1,.03-1.371,5.8,5.8,0,0,1,2.511-2.385l1.353-.678-1.481-.186a4.45,4.45,0,0,1-2.489-.814c-.572-.542-.751-1.566-.051-1.959a6.4,6.4,0,0,1,5.262,1.183Z" transform="translate(-2882.745 -1978.919)" fill="#b5d6ea"/><path d="M3009.378,2027.991a2.057,2.057,0,0,0,.419-1.267,1.61,1.61,0,0,0-.687-1.3,1.353,1.353,0,0,0-1.632,0,1.3,1.3,0,0,0-.351,1.714l.748-.516a3.961,3.961,0,0,0-1.331-1.27,2.445,2.445,0,0,0-1.92-.239,1.683,1.683,0,0,0-1.253,1.448,1.254,1.254,0,0,0,.978,1.376,1.115,1.115,0,0,1,.469-2.065,2.479,2.479,0,0,1,2.315,1.275l.748-.516c-.09-.091-.057-.4.13-.575a.646.646,0,0,1,.75-.063,1.189,1.189,0,0,1,.634.783A2.415,2.415,0,0,1,3009.378,2027.991Z" transform="translate(-2905.401 -1986.405)" fill="#b5d6ea"/><path d="M3005.821,2046.942a7.464,7.464,0,0,1-2.556,5.257,2.858,2.858,0,0,1-1.172.676.776.776,0,0,1-.876-.423c-.416-.712.031-1.578.579-2.418l-.8-.4a2,2,0,0,1-3,.89,1.745,1.745,0,0,1-.768-1.488,1.242,1.242,0,0,1,.987-1.151l3.18-.417-3.169-.38a2.054,2.054,0,0,1-1.466-1.123,3.7,3.7,0,0,1-.448-2.027,2.224,2.224,0,0,1,.9-1.792,1.524,1.524,0,0,1,1.974.249,1.617,1.617,0,0,0-2.109-.5,2.492,2.492,0,0,0-1.274,1.995,4.292,4.292,0,0,0,.365,2.384,2.706,2.706,0,0,0,1.945,1.614l.011-.8a2.073,2.073,0,0,0-1.772,1.881,2.6,2.6,0,0,0,1.121,2.3,2.894,2.894,0,0,0,2.508.419,2.944,2.944,0,0,0,1.857-1.732l-.8-.4a5.807,5.807,0,0,0-.714,1.489,2.271,2.271,0,0,0,.206,1.812,1.59,1.59,0,0,0,.744.663,1.519,1.519,0,0,0,.993.053,3.476,3.476,0,0,0,1.42-.92,7.055,7.055,0,0,0,1.729-2.646A6.842,6.842,0,0,0,3005.821,2046.942Z" transform="translate(-2901.459 -1995.054)" fill="#b5d6ea"/><path d="M2981.393,2081.282a1.614,1.614,0,0,1,1.059,2.083,1.366,1.366,0,0,1-1.893.493l-.29.834a.813.813,0,0,1,.68.483.745.745,0,0,1-.167.844.867.867,0,0,1-.962.24,1.188,1.188,0,0,1-.747-.973,1.268,1.268,0,0,0,.53,1.362,1.383,1.383,0,0,0,1.648-.092,1.492,1.492,0,0,0,.507-1.7,1.658,1.658,0,0,0-1.465-1.091l-1.509-.082,1.219.916a2.057,2.057,0,0,0,1.831.273,2,2,0,0,0,1.309-1.247A1.813,1.813,0,0,0,2981.393,2081.282Z" transform="translate(-2892.663 -2015.554)" fill="#b5d6ea"/><path d="M3010.526,2007.282a2.3,2.3,0,0,0,1.933-.923,2.206,2.206,0,0,0,.272-2.343,1.55,1.55,0,0,0-1.106-.815,1.724,1.724,0,0,0-1.239.319,2.757,2.757,0,0,0-1.007,1.918,4.415,4.415,0,0,1,1.374-1.29c.528-.219.967-.1,1.153.3a1.7,1.7,0,0,1-.056,1.517A3.031,3.031,0,0,1,3010.526,2007.282Z" transform="translate(-2908.516 -1975.093)" fill="#b5d6ea"/></g></g></svg>