<svg xmlns="http://www.w3.org/2000/svg" width="122" height="122" viewBox="0 0 122 122"><g transform="translate(-284.615 -1277)"><circle cx="61" cy="61" r="61" transform="translate(284.615 1277)" fill="#fff" opacity="0.5"/><g transform="translate(290.616 1272.807)"><g transform="translate(24.064 79.507)"><g transform="translate(0 5.9)"><path d="M179.68,362.953a18.781,18.781,0,0,0,4.509,12.368H116.226a2.15,2.15,0,0,1-1.755-.9,21.894,21.894,0,0,1,0-22.941,2.15,2.15,0,0,1,1.755-.9h67.962A18.783,18.783,0,0,0,179.68,362.953Z" transform="translate(-111.226 -350.585)" fill="#fb3a82"/><path d="M131.964,350.587,112.8,371.346a21.717,21.717,0,0,1-1.569-8.39,19.629,19.629,0,0,1,3.245-11.471,2.147,2.147,0,0,1,1.755-.9Z" transform="translate(-111.229 -350.587)" fill="#fb1466"/><path d="M214.245,362.953a18.781,18.781,0,0,0,4.509,12.368h-69s-3.966-4.016-3.966-12.368,3.966-12.368,3.966-12.368h69A18.783,18.783,0,0,0,214.245,362.953Z" transform="translate(-138.313 -350.585)" fill="#e0d3ce"/><g transform="translate(7.478 0)"><path d="M159.046,350.587l-13.185,14.282c-.045-.61-.071-1.248-.071-1.913,0-8.354,3.966-12.369,3.966-12.369Z" transform="translate(-145.79 -350.587)" fill="#cdbfbb"/><path d="M432.575,362.96a18.779,18.779,0,0,0,4.509,12.368h-8.175a19.217,19.217,0,0,1,0-24.736h8.175A18.774,18.774,0,0,0,432.575,362.96Z" transform="translate(-364.12 -350.591)" fill="#cdbfbb"/></g></g><g transform="translate(9.31)"><g transform="translate(0.001)"><path d="M230.035,326.909a3.59,3.59,0,0,1-3.589,3.589h-68.6a3.59,3.59,0,0,1,0-7.181h68.6a3.591,3.591,0,0,1,3.589,3.592Z" transform="translate(-154.26 -323.317)" fill="#fb3a82"/><path d="M171.129,323.317,164.5,330.5h-6.653a3.59,3.59,0,0,1,0-7.181Z" transform="translate(-154.26 -323.317)" fill="#fb1466"/><path d="M466.268,326.91a3.594,3.594,0,0,1-3.592,3.592h-6.963a3.591,3.591,0,0,0,0-7.181h6.963A3.591,3.591,0,0,1,466.268,326.91Z" transform="translate(-390.491 -323.32)" fill="#fb1466"/></g><g transform="translate(0 29.355)"><path d="M226.443,466.176h-68.6a3.59,3.59,0,0,1,0-7.18h68.6a3.59,3.59,0,0,1,0,7.18Z" transform="translate(-154.257 -458.996)" fill="#fb3a82"/><path d="M466.268,462.589a3.588,3.588,0,0,1-3.592,3.589h-6.963a3.589,3.589,0,1,0,0-7.178h6.963A3.591,3.591,0,0,1,466.268,462.589Z" transform="translate(-390.491 -458.999)" fill="#fb1466"/></g></g></g><g transform="translate(-0.001 12.193)"><g transform="translate(1.623 42.88)"><g transform="translate(0 13.733)"><path d="M54.762,279.653l-5.8-5.8L9.51,310.28a6.248,6.248,0,1,0,8.829,8.829Z" transform="translate(-7.5 -273.857)" fill="#873f30"/><path d="M19.275,325.747a6.25,6.25,0,0,1-8.834,0,6.187,6.187,0,0,1-1.524-2.49,6.238,6.238,0,0,0,6.34-1.518c.06-.06.12-.124.178-.185L51.86,282.1l4.013,4.013L19.45,325.566C19.392,325.628,19.333,325.689,19.275,325.747Z" transform="translate(-8.611 -280.313)" fill="#6c3328"/></g><path d="M203.982,210.382,190.636,226.3l5.452,5.452,15.92-13.346Z" transform="translate(-151.013 -210.382)" fill="#873f30"/><path d="M211.761,210.382l-4.313,5.144,1.294,1.294a2.439,2.439,0,0,1,0,3.449l-8.18,8.18,3.3,3.3,15.92-13.346Z" transform="translate(-158.792 -210.382)" fill="#6c3328"/><g transform="translate(35.206 12.661)"><path d="M176.662,280.88l-5.293-5.293a3.918,3.918,0,0,1,5.541-5.541l5.293,5.293a3.918,3.918,0,0,1-5.541,5.541Z" transform="translate(-170.222 -268.899)" fill="#ba5d4f"/><path d="M190.993,289.675a3.918,3.918,0,0,1-5.541,0l-4.011-4.011a3.918,3.918,0,1,0,5.541-5.541l4.011,4.011A3.916,3.916,0,0,1,190.993,289.675Z" transform="translate(-179.014 -277.695)" fill="#a34f41"/></g></g><g transform="translate(43.058 6.492)"><path d="M0,0H16.622V26.1H0Z" transform="translate(18.449 0) rotate(45)" fill="#ba5d4f"/><path d="M0,0H16.622V26.1H0Z" transform="translate(37.493 55.958) rotate(-135)" fill="#a34f41"/></g><g transform="translate(0 0)"><path d="M178.049,47.063l-.408-.408a3.964,3.964,0,0,1,0-5.606l20.194-20.194a3.964,3.964,0,0,1,5.606,0l.408.408a3.964,3.964,0,0,1,0,5.606L183.655,47.063a3.964,3.964,0,0,1-5.606,0Z" transform="translate(-138.297 -18.071)" fill="#873f30"/><path d="M349.4,218.417l.408.408a3.964,3.964,0,0,0,5.606,0l20.194-20.194a3.964,3.964,0,0,0,0-5.606l-.408-.408a3.964,3.964,0,0,0-5.606,0L349.4,212.812A3.964,3.964,0,0,0,349.4,218.417Z" transform="translate(-272.898 -152.672)" fill="#6c3328"/><path d="M0,0H18.666V39.412H0Z" transform="translate(78.359 13.927) rotate(45)" fill="#fcc16d"/><path d="M0,0H39.412V9.447H0Z" transform="translate(57.004 48.324) rotate(-45)" fill="#fca62f"/><path d="M253.686,68.409l-3.233-1.322a2.973,2.973,0,0,0-3.227.65l-22.7,22.7a2.973,2.973,0,0,0-.65,3.227l1.322,3.233a1.982,1.982,0,0,0,3.236.651l25.907-25.907A1.982,1.982,0,0,0,253.686,68.409Z" transform="translate(-175.263 -55.037)" fill="#873f30"/><path d="M318.144,132.868l1.322,3.233a2.973,2.973,0,0,1-.65,3.227l-22.7,22.7a2.973,2.973,0,0,1-3.227.65l-3.233-1.322a1.982,1.982,0,0,1-.651-3.236l25.907-25.907A1.982,1.982,0,0,1,318.144,132.868Z" transform="translate(-226.018 -105.793)" fill="#6c3328"/><path d="M105.56,107.239h-1.207a16.782,16.782,0,0,1-1.4-2.664,1.623,1.623,0,0,0-3,1.241c.2.485.425.957.661,1.423H36.964a5.192,5.192,0,0,0-1.414.2,18.863,18.863,0,0,1-2.385-9.661c0-.707.031-1.405.092-2.088H64.347a1.623,1.623,0,0,0,0-3.245H34.624l3.813-4.13h62.172a20.256,20.256,0,0,0-1.562,4.13H77.718a1.623,1.623,0,0,0,0,3.245H98.479c-.064.659-.1,1.325-.1,2a1.623,1.623,0,0,0,1.616,1.63H100a1.623,1.623,0,0,0,1.622-1.616,17.363,17.363,0,0,1,2.729-9.386h1.21a5.213,5.213,0,0,0,0-10.426H85.276L103.861,59.3a5.586,5.586,0,0,0,0-7.9l-.408-.409a5.584,5.584,0,0,0-7.613-.266l-2.872-2.872.978-.978a4.585,4.585,0,0,0,1-4.989l-1.322-3.233a3.6,3.6,0,0,0-2.611-2.166L88.76,34.23a1.623,1.623,0,0,0-2.295,2.295l1.11,1.11L62,63.209l-7.521-7.521L80.055,30.115l1,1a1.623,1.623,0,1,0,2.295-2.295L81.2,26.673a3.6,3.6,0,0,0-2.166-2.611h0L75.8,22.741a4.586,4.586,0,0,0-4.989,1l-.978.978-2.873-2.872a5.584,5.584,0,0,0-.266-7.613l-.408-.409a5.586,5.586,0,0,0-7.9,0L38.2,34.023a5.586,5.586,0,0,0,0,7.9l.408.408a5.584,5.584,0,0,0,7.613.266L49.09,45.47l-.978.978a4.585,4.585,0,0,0-1,4.989l1.322,3.233A3.6,3.6,0,0,0,51,56.828l-8.136,9.706a5.544,5.544,0,0,0-7.323,7.029l-3.69,3.406a1.623,1.623,0,0,0,2.2,2.385l3.41-3.148,4.02,4.02L11.269,112.957a4.625,4.625,0,1,1-6.536-6.536l23.7-21.88a1.623,1.623,0,0,0-2.2-2.384l-23.7,21.88A7.87,7.87,0,0,0,7.864,117.69l.163,0a7.8,7.8,0,0,0,5.626-2.53l9.725-10.535a18.7,18.7,0,0,0,2.609,5.563,3.779,3.779,0,0,0,3.077,1.58H31.8a5.2,5.2,0,0,0,5.166,5.9h68.6a5.213,5.213,0,0,0,0-10.426ZM107.528,83.1a1.97,1.97,0,0,1-1.968,1.968H41.433l2.7-2.922a5.546,5.546,0,0,0,5.535-1.013H105.56A1.97,1.97,0,0,1,107.528,83.1ZM58.574,64.371l-9.4,7.877-3.736-3.736,7.877-9.4ZM51.5,77.885a5.572,5.572,0,0,0-.338-3.061l9.705-8.136a3.6,3.6,0,0,0,2.158,2.574l3.233,1.322a4.586,4.586,0,0,0,4.989-1l.978-.978,2.873,2.873a5.6,5.6,0,0,0-.646,6.412H51.5ZM99.5,52.6a2.326,2.326,0,0,1,1.655.685l.408.409a2.341,2.341,0,0,1,0,3.31L81.372,77.2a2.341,2.341,0,0,1-3.31,0l-.408-.408a2.344,2.344,0,0,1,0-3.311L97.847,53.286A2.324,2.324,0,0,1,99.5,52.6Zm-5.969.409L77.376,69.167l-2.862-2.862L90.672,50.148ZM64.13,65.67,90.037,39.764a.341.341,0,0,1,.248-.106.4.4,0,0,1,.077.008.345.345,0,0,1,.262.216l1.322,3.233a1.346,1.346,0,0,1-.3,1.465l-22.7,22.7a1.347,1.347,0,0,1-1.465.295l-3.233-1.322a.359.359,0,0,1-.118-.587ZM42.554,40.723a2.325,2.325,0,0,1-1.655-.686l-.408-.408a2.341,2.341,0,0,1,0-3.31L60.685,16.125a2.341,2.341,0,0,1,3.31,0l.408.409a2.341,2.341,0,0,1,0,3.311L44.21,40.038a2.328,2.328,0,0,1-1.655.685Zm5.968-.409L64.68,24.156l2.862,2.862L51.385,43.176Zm1.884,8.429,22.7-22.7a1.347,1.347,0,0,1,1.466-.295l3.233,1.322a.359.359,0,0,1,.118.586L52.02,53.56a.359.359,0,0,1-.586-.118l-1.322-3.233a1.347,1.347,0,0,1,.3-1.465ZM38.451,71.651a2.3,2.3,0,0,1,3.918-1.623l5.292,5.292a2.3,2.3,0,1,1-3.246,3.246l-5.292-5.292a2.28,2.28,0,0,1-.672-1.623Zm-9.819,36.654a16.371,16.371,0,0,1-2.6-6.558l3.89-4.213c0,.08,0,.16,0,.241a22.514,22.514,0,0,0,2.517,10.746H29.065A.528.528,0,0,1,28.632,108.305Zm76.928,6.114h-68.6a1.968,1.968,0,1,1,0-3.935h68.6a1.968,1.968,0,0,1,0,3.935Z" transform="translate(0.001 -12.193)"/><path d="M203.95,417.166a1.623,1.623,0,1,0,0,3.245h37.8a1.623,1.623,0,1,0,0-3.245Z" transform="translate(-158.552 -329.547)"/></g></g></g></g></svg>