<svg xmlns="http://www.w3.org/2000/svg" xmlns:xlink="http://www.w3.org/1999/xlink" width="461" height="264" viewBox="0 0 461 264"><defs><filter id="a" x="168" y="6" width="126" height="61" filterUnits="userSpaceOnUse"><feOffset dy="3" input="SourceAlpha"/><feGaussianBlur stdDeviation="3" result="b"/><feFlood flood-opacity="0.161"/><feComposite operator="in" in2="b"/><feComposite in="SourceGraphic"/></filter><filter id="c" x="335" y="157" width="126" height="61" filterUnits="userSpaceOnUse"><feOffset dy="3" input="SourceAlpha"/><feGaussianBlur stdDeviation="3" result="d"/><feFlood flood-opacity="0.161"/><feComposite operator="in" in2="d"/><feComposite in="SourceGraphic"/></filter><filter id="e" x="0" y="157" width="126" height="61" filterUnits="userSpaceOnUse"><feOffset dy="3" input="SourceAlpha"/><feGaussianBlur stdDeviation="3" result="f"/><feFlood flood-opacity="0.161"/><feComposite operator="in" in2="f"/><feComposite in="SourceGraphic"/></filter></defs><g transform="translate(-252.615 -709)"><g transform="translate(-1 -57)"><g transform="matrix(1, 0, 0, 1, 253.62, 766)" filter="url(#a)"><rect width="108" height="43" rx="20" transform="translate(177 12)" fill="#fff"/></g><path d="M-26.539-11.375l2.922,8.25,2.906-8.25h3.078V0h-2.352V-3.109l.234-5.367L-22.82,0H-24.43l-3.062-8.469.234,5.359V0H-29.6V-11.375ZM-11.844.156A4.15,4.15,0,0,1-14.871-.984a4.054,4.054,0,0,1-1.168-3.039v-.219a5.106,5.106,0,0,1,.492-2.277,3.612,3.612,0,0,1,1.395-1.547,3.914,3.914,0,0,1,2.059-.543,3.508,3.508,0,0,1,2.73,1.094,4.444,4.444,0,0,1,1,3.1v.922H-13.75a2.1,2.1,0,0,0,.66,1.328,2,2,0,0,0,1.395.5,2.437,2.437,0,0,0,2.039-.945l1.109,1.242A3.389,3.389,0,0,1-9.922-.246,4.511,4.511,0,0,1-11.844.156ZM-12.1-6.789a1.411,1.411,0,0,0-1.09.455,2.357,2.357,0,0,0-.535,1.3h3.141v-.181a1.681,1.681,0,0,0-.406-1.165A1.456,1.456,0,0,0-12.1-6.789Zm7.094-1.664.07.977a2.951,2.951,0,0,1,2.43-1.133,2.453,2.453,0,0,1,2,.789A3.682,3.682,0,0,1,.164-5.461V0H-2.094V-5.406a1.465,1.465,0,0,0-.312-1.043,1.4,1.4,0,0,0-1.039-.324,1.553,1.553,0,0,0-1.43.813V0H-7.133V-8.453ZM6.453-2.336a.727.727,0,0,0-.41-.652,4.659,4.659,0,0,0-1.316-.426Q1.711-4.047,1.711-5.977a2.323,2.323,0,0,1,.934-1.879,3.766,3.766,0,0,1,2.441-.754,4.053,4.053,0,0,1,2.574.758,2.388,2.388,0,0,1,.965,1.969H6.367a1.092,1.092,0,0,0-.312-.8A1.322,1.322,0,0,0,5.078-7a1.351,1.351,0,0,0-.883.258.814.814,0,0,0-.312.656.7.7,0,0,0,.355.605,3.657,3.657,0,0,0,1.2.4A9.8,9.8,0,0,1,6.859-4.7,2.336,2.336,0,0,1,8.648-2.43,2.2,2.2,0,0,1,7.656-.559,4.28,4.28,0,0,1,5.094.156,4.47,4.47,0,0,1,3.207-.223,3.166,3.166,0,0,1,1.914-1.262a2.414,2.414,0,0,1-.469-1.426H3.586a1.179,1.179,0,0,0,.445.922,1.766,1.766,0,0,0,1.109.32,1.635,1.635,0,0,0,.98-.246A.766.766,0,0,0,6.453-2.336ZM15,0a2.507,2.507,0,0,1-.227-.758,2.732,2.732,0,0,1-2.133.914,3,3,0,0,1-2.059-.719,2.312,2.312,0,0,1-.816-1.812,2.389,2.389,0,0,1,1-2.062,4.915,4.915,0,0,1,2.879-.727H14.68v-.484a1.393,1.393,0,0,0-.3-.937,1.183,1.183,0,0,0-.949-.352,1.345,1.345,0,0,0-.895.273.929.929,0,0,0-.324.75H9.953a2.268,2.268,0,0,1,.453-1.359,3,3,0,0,1,1.281-.98,4.669,4.669,0,0,1,1.859-.355,3.689,3.689,0,0,1,2.48.785,2.747,2.747,0,0,1,.918,2.207v3.664a4.041,4.041,0,0,0,.336,1.82V0ZM13.133-1.57a1.945,1.945,0,0,0,.922-.223,1.462,1.462,0,0,0,.625-.6V-3.844h-.844q-1.7,0-1.8,1.172l-.008.133a.9.9,0,0,0,.3.7A1.153,1.153,0,0,0,13.133-1.57ZM21.07-8.453V.461a3.024,3.024,0,0,1-.742,2.176,2.821,2.821,0,0,1-2.141.777,4.591,4.591,0,0,1-1.117-.133V1.492a4.238,4.238,0,0,0,.711.07Q18.8,1.563,18.8.477v-8.93Zm-2.445-2.187a1.112,1.112,0,0,1,.34-.836,1.277,1.277,0,0,1,.926-.328,1.277,1.277,0,0,1,.926.328,1.112,1.112,0,0,1,.34.836,1.108,1.108,0,0,1-.348.844,1.283,1.283,0,0,1-.918.328,1.283,1.283,0,0,1-.918-.328A1.108,1.108,0,0,1,18.625-10.641Zm8.1,10.8A4.15,4.15,0,0,1,23.7-.984a4.054,4.054,0,0,1-1.168-3.039v-.219a5.106,5.106,0,0,1,.492-2.277,3.612,3.612,0,0,1,1.395-1.547,3.914,3.914,0,0,1,2.059-.543,3.508,3.508,0,0,1,2.73,1.094,4.444,4.444,0,0,1,1,3.1v.922H24.82a2.1,2.1,0,0,0,.66,1.328,2,2,0,0,0,1.395.5,2.437,2.437,0,0,0,2.039-.945l1.109,1.242A3.389,3.389,0,0,1,28.648-.246,4.511,4.511,0,0,1,26.727.156Zm-.258-6.945a1.411,1.411,0,0,0-1.09.455,2.357,2.357,0,0,0-.535,1.3h3.141v-.181a1.681,1.681,0,0,0-.406-1.165A1.456,1.456,0,0,0,26.469-6.789Z" transform="translate(484.615 806)" fill="#12263f"/></g><g transform="translate(305 709)"><path d="M563.138,517.014c-.02.309-.046.62-.072.933a66.123,66.123,0,0,1-1.039,7.194c0,.008,0,.015-.005.023-.011.062-.025.122-.037.184,0,0,0,.01,0,.016l-90.965-.161-236.05-.416s-31.314-21.638-41.521-55.752c-.009-.029-.017-.057-.025-.085a73.287,73.287,0,0,1-2.994-25.963c.006-.091.012-.183.02-.275a77.436,77.436,0,0,1,5.965-24.51,97.309,97.309,0,0,1,6.484-12.718q.889-1.473,1.865-2.88c21.094-30.468,71.275-37.539,86.812-31.007,21.114,8.878,49.119-15.1,109.649-31.568,27.68-7.529,76.639-1.138,103.184,22.5.029.026.059.052.087.08,17,15.186,24.753,37.474,11.732,67.739-.014.031-.027.063-.042.094s-.015.035-.022.052c-12.678,29.341,12.962,35.588,31.141,50.694.09.074.179.148.269.224a56.964,56.964,0,0,1,5.268,4.984q.528.571,1.036,1.159a38.968,38.968,0,0,1,5.592,8.378q.324.663.625,1.349a36.6,36.6,0,0,1,2.2,6.749,41.81,41.81,0,0,1,.953,7.8,50.052,50.052,0,0,1-.107,5.177" transform="translate(-190.27 -261.362)" fill="#ffb500" opacity="0.38"/><circle cx="25.5" cy="25.5" r="25.5" transform="translate(56.385)" fill="#ffb500" opacity="0.3"/><circle cx="6" cy="6" r="6" transform="translate(352.385 161)" fill="#ffb500"/><circle cx="16" cy="16" r="16" transform="translate(305.385 36)" fill="#ffb500" opacity="0.3"/></g><g transform="translate(-24 94)"><g transform="matrix(1, 0, 0, 1, 276.62, 615)" filter="url(#c)"><rect width="108" height="43" rx="20" transform="translate(344 163)" fill="#fff"/></g><path d="M-27.23-4.164H-29.1V0h-2.344V-11.375h4.227a4.778,4.778,0,0,1,3.109.9,3.1,3.1,0,0,1,1.094,2.539A3.5,3.5,0,0,1-23.516-6a3.437,3.437,0,0,1-1.527,1.238l2.461,4.648V0H-25.1Zm-1.867-1.9h1.891a1.936,1.936,0,0,0,1.367-.449,1.606,1.606,0,0,0,.484-1.238,1.719,1.719,0,0,0-.457-1.266,1.9,1.9,0,0,0-1.4-.461H-29.1ZM-17.488.156A4.15,4.15,0,0,1-20.516-.984a4.054,4.054,0,0,1-1.168-3.039v-.219a5.106,5.106,0,0,1,.492-2.277A3.612,3.612,0,0,1-19.8-8.066a3.914,3.914,0,0,1,2.059-.543,3.508,3.508,0,0,1,2.73,1.094,4.444,4.444,0,0,1,1,3.1v.922h-5.383a2.1,2.1,0,0,0,.66,1.328,2,2,0,0,0,1.395.5A2.437,2.437,0,0,0-15.3-2.609l1.109,1.242A3.389,3.389,0,0,1-15.566-.246,4.511,4.511,0,0,1-17.488.156Zm-.258-6.945a1.411,1.411,0,0,0-1.09.455,2.357,2.357,0,0,0-.535,1.3h3.141v-.181a1.681,1.681,0,0,0-.406-1.165A1.456,1.456,0,0,0-17.746-6.789Zm8.531,5.125A1.481,1.481,0,0,0-8.2-2.008a1.2,1.2,0,0,0,.406-.914h2.117a2.9,2.9,0,0,1-.469,1.574A3.093,3.093,0,0,1-7.406-.238a3.949,3.949,0,0,1-1.77.395A3.67,3.67,0,0,1-12.035-1,4.56,4.56,0,0,1-13.082-4.18v-.148a4.508,4.508,0,0,1,1.039-3.117A3.627,3.627,0,0,1-9.191-8.609a3.555,3.555,0,0,1,2.543.9,3.2,3.2,0,0,1,.973,2.4H-7.793A1.551,1.551,0,0,0-8.2-6.377,1.354,1.354,0,0,0-9.23-6.789a1.36,1.36,0,0,0-1.191.575,3.333,3.333,0,0,0-.4,1.866v.235a3.375,3.375,0,0,0,.4,1.878A1.377,1.377,0,0,0-9.215-1.664ZM-.5.156A4.15,4.15,0,0,1-3.523-.984,4.054,4.054,0,0,1-4.691-4.023v-.219A5.106,5.106,0,0,1-4.2-6.52,3.612,3.612,0,0,1-2.8-8.066,3.914,3.914,0,0,1-.746-8.609a3.508,3.508,0,0,1,2.73,1.094,4.444,4.444,0,0,1,1,3.1v.922H-2.4a2.1,2.1,0,0,0,.66,1.328,2,2,0,0,0,1.395.5,2.437,2.437,0,0,0,2.039-.945L2.8-1.367A3.389,3.389,0,0,1,1.426-.246,4.511,4.511,0,0,1-.5.156ZM-.754-6.789a1.411,1.411,0,0,0-1.09.455,2.357,2.357,0,0,0-.535,1.3H.762v-.181A1.681,1.681,0,0,0,.355-6.377,1.456,1.456,0,0,0-.754-6.789ZM11.871-4.148a5.07,5.07,0,0,1-.887,3.129A2.843,2.843,0,0,1,8.59.156,2.633,2.633,0,0,1,6.52-.734V3.25H4.262v-11.7H6.355l.078.828a2.654,2.654,0,0,1,2.141-.984A2.862,2.862,0,0,1,11-7.453a5.207,5.207,0,0,1,.867,3.188ZM9.613-4.312A3.327,3.327,0,0,0,9.2-6.133,1.361,1.361,0,0,0,7.98-6.773a1.478,1.478,0,0,0-1.461.813V-2.5A1.5,1.5,0,0,0,8-1.664Q9.613-1.664,9.613-4.312Zm6.359-6.219v2.078h1.445V-6.8H15.973v4.219a1.007,1.007,0,0,0,.18.672.9.9,0,0,0,.688.2,3.6,3.6,0,0,0,.664-.055V-.047a4.648,4.648,0,0,1-1.367.2,2.156,2.156,0,0,1-2.422-2.4V-6.8H12.48V-8.453h1.234v-2.078ZM18.09-4.3a5.013,5.013,0,0,1,.484-2.242A3.546,3.546,0,0,1,19.969-8.07a4.069,4.069,0,0,1,2.113-.539,3.849,3.849,0,0,1,2.793,1.047,4.2,4.2,0,0,1,1.207,2.844l.016.578A4.418,4.418,0,0,1,25.012-1.02,3.775,3.775,0,0,1,22.1.156,3.793,3.793,0,0,1,19.18-1.016,4.5,4.5,0,0,1,18.09-4.2Zm2.258.16A3.16,3.16,0,0,0,20.8-2.3a1.5,1.5,0,0,0,1.3.638,1.5,1.5,0,0,0,1.281-.63,3.457,3.457,0,0,0,.461-2.015,3.128,3.128,0,0,0-.461-1.831,1.5,1.5,0,0,0-1.3-.649,1.474,1.474,0,0,0-1.281.646A3.516,3.516,0,0,0,20.348-4.144ZM32.238-6.336a6.134,6.134,0,0,0-.812-.062,1.654,1.654,0,0,0-1.68.867V0H27.488V-8.453h2.133l.063,1.008a2.092,2.092,0,0,1,1.883-1.164,2.366,2.366,0,0,1,.7.1Z" transform="translate(674.615 806)" fill="#12263f"/></g><g transform="translate(21 94)"><g transform="matrix(1, 0, 0, 1, 231.62, 615)" filter="url(#e)"><rect width="108" height="43" rx="20" transform="translate(9 163)" fill="#fff"/></g><path d="M-17.242-4.93h-4.5v3.047h5.281V0h-7.625V-11.375h7.609v1.9h-5.266v2.711h4.5Zm4.125-3.523.07.945a2.971,2.971,0,0,1,2.43-1.1A2.255,2.255,0,0,1-8.375-7.32,2.9,2.9,0,0,1-5.836-8.609a2.521,2.521,0,0,1,2.047.8A3.681,3.681,0,0,1-3.117-5.4V0H-5.383V-5.391a1.61,1.61,0,0,0-.281-1.051,1.246,1.246,0,0,0-.992-.332A1.409,1.409,0,0,0-8.062-5.8L-8.055,0h-2.258V-5.383A1.59,1.59,0,0,0-10.6-6.445a1.259,1.259,0,0,0-.984-.328,1.463,1.463,0,0,0-1.391.8V0h-2.258V-8.453ZM1,0H-1.266V-8.453H1ZM-1.4-10.641a1.112,1.112,0,0,1,.34-.836A1.277,1.277,0,0,1-.133-11.8a1.28,1.28,0,0,1,.922.328,1.105,1.105,0,0,1,.344.836A1.108,1.108,0,0,1,.785-9.8a1.283,1.283,0,0,1-.918.328A1.283,1.283,0,0,1-1.051-9.8,1.108,1.108,0,0,1-1.4-10.641Zm8.836,8.3a.727.727,0,0,0-.41-.652,4.659,4.659,0,0,0-1.316-.426Q2.7-4.047,2.7-5.977a2.323,2.323,0,0,1,.934-1.879A3.766,3.766,0,0,1,6.07-8.609a4.053,4.053,0,0,1,2.574.758,2.388,2.388,0,0,1,.965,1.969H7.352a1.092,1.092,0,0,0-.312-.8A1.322,1.322,0,0,0,6.063-7a1.351,1.351,0,0,0-.883.258.814.814,0,0,0-.312.656.7.7,0,0,0,.355.605,3.657,3.657,0,0,0,1.2.4A9.8,9.8,0,0,1,7.844-4.7,2.336,2.336,0,0,1,9.633-2.43,2.2,2.2,0,0,1,8.641-.559,4.28,4.28,0,0,1,6.078.156,4.47,4.47,0,0,1,4.191-.223,3.166,3.166,0,0,1,2.9-1.262,2.414,2.414,0,0,1,2.43-2.687H4.57a1.179,1.179,0,0,0,.445.922,1.766,1.766,0,0,0,1.109.32,1.635,1.635,0,0,0,.98-.246A.766.766,0,0,0,7.438-2.336Zm3.3-1.969a5.013,5.013,0,0,1,.484-2.242A3.546,3.546,0,0,1,12.613-8.07a4.069,4.069,0,0,1,2.113-.539A3.849,3.849,0,0,1,17.52-7.562a4.2,4.2,0,0,1,1.207,2.844l.016.578A4.418,4.418,0,0,1,17.656-1.02,3.775,3.775,0,0,1,14.742.156a3.793,3.793,0,0,1-2.918-1.172A4.5,4.5,0,0,1,10.734-4.2Zm2.258.16A3.16,3.16,0,0,0,13.445-2.3a1.5,1.5,0,0,0,1.3.638,1.5,1.5,0,0,0,1.281-.63,3.457,3.457,0,0,0,.461-2.015,3.128,3.128,0,0,0-.461-1.831,1.5,1.5,0,0,0-1.3-.649,1.474,1.474,0,0,0-1.281.646A3.516,3.516,0,0,0,12.992-4.144ZM24.883-6.336A6.134,6.134,0,0,0,24.07-6.4a1.654,1.654,0,0,0-1.68.867V0H20.133V-8.453h2.133l.063,1.008a2.092,2.092,0,0,1,1.883-1.164,2.366,2.366,0,0,1,.7.1Z" transform="translate(294.615 806)" fill="#12263f"/></g><g transform="translate(390 778.385)"><g transform="translate(3.02 3.02)"><g transform="translate(66.437)"><path d="M71.318,7.04v6.04H23V7.04A6.057,6.057,0,0,1,29.04,1H65.278A6.057,6.057,0,0,1,71.318,7.04Z" transform="translate(-23 -1)" fill="#969faa"/></g><g transform="translate(66.437 60.397)"><path d="M71.318,21v6.04a6.057,6.057,0,0,1-6.04,6.04H29.04A6.057,6.057,0,0,1,23,27.04V21H71.318Z" transform="translate(-23 -21)" fill="#969faa"/></g><g transform="translate(66.437 12.079)"><path d="M23,5H71.318V53.318H23Z" transform="translate(-23 -5)" fill="#69d6f4"/></g><g transform="translate(78.516 42.278)"><path d="M51.159,27.079v6.04H27v-6.04a12.079,12.079,0,1,1,24.159,0Z" transform="translate(-27 -15)" fill="#fcd770"/></g><g transform="translate(126.834 15.099)"><path d="M71.417,7.782l19.9,19.357L71.417,46.5A6.022,6.022,0,1,1,62.9,37.98l4.771-4.8H43V21.1H67.672L62.9,16.3a5.979,5.979,0,0,1,0-8.516,5.979,5.979,0,0,1,8.516,0Z" transform="translate(-43 -6)" fill="#ef7385"/></g><g transform="translate(6.04 15.099)"><path d="M22.9,7.782A6.04,6.04,0,0,1,33.2,12.04,5.937,5.937,0,0,1,31.417,16.3l-4.771,4.8H51.318V33.179H26.645l4.771,4.8A6.022,6.022,0,1,1,22.9,46.5L3,27.139Z" transform="translate(-3 -6)" fill="#ef7385"/></g><g transform="translate(81.639 24.539)"><circle cx="9" cy="9" r="9" transform="translate(-0.043 0.056)" fill="#f0d0b4"/></g><g transform="translate(33.218 138.913)"><path d="M45.218,67.565v3.594A12.076,12.076,0,0,1,33.139,83.238H21.06V62.1a3.029,3.029,0,0,0-3.02-3.02H12V56.06L18.04,47l12.985,2.9A18.09,18.09,0,0,1,45.218,67.565Z" transform="translate(-12 -47)" fill="#fcd770"/></g><g transform="translate(0 138.913)"><path d="M25.159,62.1V68.29a8.257,8.257,0,0,0-1.51-.151h-4.53v15.1h-6.04A12.076,12.076,0,0,1,1,71.159V67.565A18.09,18.09,0,0,1,15.193,49.9L28.179,47l6.04,9.06v3.02h-6.04a3.029,3.029,0,0,0-3.02,3.02Z" transform="translate(-1 -47)" fill="#fcd770"/></g><g transform="translate(147.972 141.178)"><path d="M59.06,66.624v-6.04a3.029,3.029,0,0,0-3.02-3.02H50A18.166,18.166,0,0,0,66.126,47.75l2.9.634A18.037,18.037,0,0,1,83.218,66.05v3.594A12.076,12.076,0,0,1,71.139,81.723H59.06Z" transform="translate(-50 -47.75)" fill="#b4dd7f"/></g><g transform="translate(114.754 141.178)"><path d="M63.159,60.584v6.191a8.257,8.257,0,0,0-1.51-.151h-4.53v15.1h-6.04A12.076,12.076,0,0,1,39,69.644V66.05A18.037,18.037,0,0,1,53.193,48.384l2.9-.634a18.166,18.166,0,0,0,16.126,9.814h-6.04a3.029,3.029,0,0,0-3.02,3.02Z" transform="translate(-39 -47.75)" fill="#b4dd7f"/></g><g transform="translate(114.754 69.456)"><path d="M81.972,85.937A18.109,18.109,0,0,0,93.357,69.117V60.238a6.057,6.057,0,0,0-6.04-6.04H73.456A4.253,4.253,0,0,1,69.2,49.94V49.4a4.271,4.271,0,0,0-7.278-3.02l-1.782,1.782-1.782-1.782a4.271,4.271,0,0,0-7.278,3.02v19.72A18.109,18.109,0,0,0,62.464,85.937l1.812.725a3.019,3.019,0,0,1,1.9,2.808v3.986L56.092,95.691v.03l-2.9.634a17.958,17.958,0,0,0-6.4,2.778A24,24,0,0,1,39,81.377V57.218a33.218,33.218,0,1,1,66.437,0V81.377a24,24,0,0,1-7.791,17.757,17.957,17.957,0,0,0-6.4-2.778l-2.9-.634v-.03L78.258,93.456V89.47a3.019,3.019,0,0,1,1.9-2.808Z" transform="translate(-39 -24)" fill="#656d78"/></g><g transform="translate(3.02 69.456)"><path d="M62.4,47.132a14.153,14.153,0,0,1-2.6,8.154A5.977,5.977,0,0,0,56.357,54.2H49.8a20.641,20.641,0,0,1-14.586-6.04,10.312,10.312,0,0,0-7.278-3.02,4.272,4.272,0,0,0-3.02,1.238l-1.782,1.782-1.782-1.782a4.271,4.271,0,0,0-7.278,3.02v4.8H8.04a6.04,6.04,0,0,0-2.929.755A19.434,19.434,0,0,1,2,44.354,20.363,20.363,0,0,1,22.354,24h15.4a13.067,13.067,0,0,1,7.731,2.506,13.254,13.254,0,0,1,4.832,6.553l1.359.332A14.113,14.113,0,0,1,62.4,47.132Z" transform="translate(-2 -24)" fill="#b27946"/></g><g transform="translate(138.913 150.992)"><path d="M50.835,72.954A7.562,7.562,0,0,0,47,60.211V54.02A3.029,3.029,0,0,1,50.02,51H62.1a3.029,3.029,0,0,1,3.02,3.02V78.179A3.029,3.029,0,0,1,62.1,81.2H50.02A3.029,3.029,0,0,1,47,78.179V75.008A7.557,7.557,0,0,0,50.835,72.954Z" transform="translate(-47 -51)" fill="#969faa"/></g><g transform="translate(24.159 150.992)"><path d="M9,75.008a7.552,7.552,0,0,0,0-14.8V54.02A3.029,3.029,0,0,1,12.02,51H24.1a3.029,3.029,0,0,1,3.02,3.02V78.179A3.029,3.029,0,0,1,24.1,81.2H12.02A3.029,3.029,0,0,1,9,78.179Z" transform="translate(-9 -51)" fill="#969faa"/></g><g transform="translate(132.873 160.052)"><path d="M51.04,54.151a7.548,7.548,0,0,1,0,14.8,8.256,8.256,0,0,1-1.51.151H45V54h4.53A8.256,8.256,0,0,1,51.04,54.151Z" transform="translate(-45 -54)" fill="#f0d0b4"/></g><g transform="translate(126.834 90.595)"><path d="M56.861,31a4.253,4.253,0,0,1,4.258,4.258V35.8a4.253,4.253,0,0,0,4.258,4.258H79.238a6.057,6.057,0,0,1,6.04,6.04v8.878A18.109,18.109,0,0,1,73.893,71.8l-1.812.725a3.019,3.019,0,0,0-1.9,2.808v3.986l10.086,2.235v.03a18.155,18.155,0,0,1-32.252,0v-.03L58.1,79.318V75.331a3.019,3.019,0,0,0-1.9-2.808L54.385,71.8A18.109,18.109,0,0,1,43,54.978V35.258a4.271,4.271,0,0,1,7.278-3.02L52.06,34.02l1.782-1.782A4.272,4.272,0,0,1,56.861,31Z" transform="translate(-43 -31)" fill="#f0d0b4"/></g><g transform="translate(18.119 160.052)"><path d="M13.04,54.151a7.548,7.548,0,0,1,0,14.8,8.256,8.256,0,0,1-1.51.151H7V54h4.53A8.256,8.256,0,0,1,13.04,54.151Z" transform="translate(-7 -54)" fill="#f0d0b4"/></g><g transform="translate(51.337 99.655)"><path d="M27.482,35.087a6.01,6.01,0,0,1,2.6,4.953,6.084,6.084,0,0,1-6.04,6.04H18V34h6.04A5.977,5.977,0,0,1,27.482,35.087Z" transform="translate(-18 -34)" fill="#f0d0b4"/></g><g transform="translate(15.099 90.595)"><path d="M42.238,40.06V55.612A18.75,18.75,0,0,1,31.82,72.432a3.029,3.029,0,0,0-1.661,2.718v4.167l-6.04,9.06-6.04-9.06V75.15a3.029,3.029,0,0,0-1.661-2.718A18.717,18.717,0,0,1,6,55.612V35.258a4.271,4.271,0,0,1,7.278-3.02L15.06,34.02l1.782-1.782A4.272,4.272,0,0,1,19.861,31a10.312,10.312,0,0,1,7.278,3.02,20.641,20.641,0,0,0,14.586,6.04Z" transform="translate(-6 -31)" fill="#f0d0b4"/></g><g transform="translate(3.02 99.655)"><path d="M14.079,34V46.079H8.04A6.057,6.057,0,0,1,2,40.04a5.9,5.9,0,0,1,1.782-4.258A6.254,6.254,0,0,1,5.11,34.755,6.04,6.04,0,0,1,8.04,34Z" transform="translate(-2 -34)" fill="#f0d0b4"/></g></g><g transform="translate(0)"><path d="M76.357,69.456V9.06A9.071,9.071,0,0,0,67.3,0H31.06A9.071,9.071,0,0,0,22,9.06v60.4a9.071,9.071,0,0,0,9.06,9.06H67.3A9.071,9.071,0,0,0,76.357,69.456ZM31.06,6.04H67.3a3.025,3.025,0,0,1,3.02,3.02v3.02H28.04V9.06A3.025,3.025,0,0,1,31.06,6.04ZM49.179,48.318a9.071,9.071,0,0,1,9.06,9.06V60.4H40.119v-3.02A9.071,9.071,0,0,1,49.179,48.318Zm-6.04-12.079a6.04,6.04,0,1,1,6.04,6.04A6.046,6.046,0,0,1,43.139,36.238ZM57.613,44.86a12.079,12.079,0,1,0-16.869,0,15.091,15.091,0,0,0-6.665,12.517V60.4H28.04V18.119H70.318V60.4h-6.04v-3.02A15.091,15.091,0,0,0,57.613,44.86ZM67.3,72.476H31.06a3.025,3.025,0,0,1-3.02-3.02v-3.02H70.318v3.02A3.025,3.025,0,0,1,67.3,72.476Z" transform="translate(44.437)"/><path d="M60.119,44.2a9.058,9.058,0,0,0,15.437,6.432L97.665,29.1,75.569,7.581a9.276,9.276,0,0,0-12.8.015,9.057,9.057,0,0,0-.347,12.445H42V38.16H62.426a8.995,8.995,0,0,0-2.307,6.04ZM48.04,32.12V26.08H76.988l-9.944-9.944a3.018,3.018,0,0,1,0-4.27,3.061,3.061,0,0,1,4.27,0L89.01,29.1l-17.7,17.234a3.061,3.061,0,0,1-4.27,0,3.018,3.018,0,0,1,0-4.27l9.944-9.944Z" transform="translate(84.834 10.158)"/><path d="M30.053,53.259a9.059,9.059,0,0,0,6.752-15.1H57.232V20.041H36.806A9.057,9.057,0,0,0,36.458,7.6a9.276,9.276,0,0,0-12.8-.015L1.567,29.1,23.648,50.6a8.993,8.993,0,0,0,6.405,2.654ZM27.891,11.893l.027-.027a3.061,3.061,0,0,1,4.27,0,3.018,3.018,0,0,1,0,4.27L22.244,26.08H51.192v6.04H22.244l9.944,9.944a3.018,3.018,0,0,1,0,4.27,3.044,3.044,0,0,1-4.3-.027L10.222,29.1Z" transform="translate(3.165 10.158)"/><path d="M110.476,59.238a36.238,36.238,0,1,0-72.476,0V83.4A27.257,27.257,0,0,0,44.423,100.9,21,21,0,0,0,38,116.051v3.585a15.116,15.116,0,0,0,15.1,15.1h9.06a6.046,6.046,0,0,0,6.04,6.04H80.278a6.046,6.046,0,0,0,6.04-6.04h9.06a15.116,15.116,0,0,0,15.1-15.1v-3.585a21,21,0,0,0-6.423-15.148A27.257,27.257,0,0,0,110.476,83.4Zm-66.437,60.4v-3.585a15.008,15.008,0,0,1,11.823-14.74l.8-.178a21.081,21.081,0,0,0,6.42,6.263,6,6,0,0,0-.924,3.18v3.02H50.079v6.04h6.04v9.06H53.1a9.071,9.071,0,0,1-9.06-9.06ZM67.422,85.873l-1.812-.725A15.026,15.026,0,0,1,56.119,71.13v-19.7a1.3,1.3,0,0,1,2.135-.885l3.9,3.9,3.9-3.9a1.3,1.3,0,0,1,2.135.885v.519a7.3,7.3,0,0,0,7.29,7.29H89.337a3.025,3.025,0,0,1,3.02,3.02V71.13a15.026,15.026,0,0,1-9.491,14.018l-1.815.725a6.008,6.008,0,0,0-3.793,5.608V97.9l8.066,1.791a15.1,15.1,0,0,1-22.172,0L71.218,97.9V91.481a6.006,6.006,0,0,0-3.8-5.608Zm-3.754,42.821h-1.51v-9.06h1.51a4.53,4.53,0,1,1,0,9.06Zm16.609,6.04H68.2v-1.06a10.506,10.506,0,0,0,0-19.019v-4.08H80.278Zm24.159-15.1a9.071,9.071,0,0,1-9.06,9.06h-9.06v-9.06H98.4V113.6H86.318v-3.02a5.974,5.974,0,0,0-.927-3.18,21.048,21.048,0,0,0,6.42-6.263l.8.178a15.007,15.007,0,0,1,11.826,14.74Zm0-36.238a21.2,21.2,0,0,1-5.3,13.991,21.266,21.266,0,0,0-5.215-1.972L83.3,93.054V91.481l1.815-.725A21.039,21.039,0,0,0,98.4,71.127V62.258a9,9,0,0,0-2.355-6.04,8.987,8.987,0,0,0,2.355-6.04v-6.04H92.36v6.04a3.025,3.025,0,0,1-3.02,3.02H85.765a9.031,9.031,0,0,0,.553-3.02v-6.04h-6.04v6.04a3.025,3.025,0,0,1-3.02,3.02h-1.77a1.253,1.253,0,0,1-1.25-1.25v-.519a7.29,7.29,0,0,0-12.079-5.5,7.222,7.222,0,0,0-4.789-1.794,7.3,7.3,0,0,0-7.29,7.29v19.7A21.042,21.042,0,0,0,63.367,90.759l1.812.725v1.573L54.552,95.419a21.341,21.341,0,0,0-5.215,1.972A21.212,21.212,0,0,1,44.04,83.4V59.238a30.2,30.2,0,1,1,60.4,0Z" transform="translate(76.754 46.456)"/><path d="M55.925,95.416,45.3,93.054V91.3A21.73,21.73,0,0,0,57.377,71.758v-.441H60.4a9.071,9.071,0,0,0,9.06-9.06,8.974,8.974,0,0,0-1.833-5.406A17.155,17.155,0,0,0,56.595,32.528,16.248,16.248,0,0,0,41.789,23h-15.4A23.392,23.392,0,0,0,3.02,46.365a22.652,22.652,0,0,0,2.31,9.911,8.977,8.977,0,0,0-2.31,5.982,9.071,9.071,0,0,0,9.06,9.06H15.1v.441A21.73,21.73,0,0,0,27.179,91.3v1.752L16.552,95.416A21.012,21.012,0,0,0,0,116.051v3.585a15.116,15.116,0,0,0,15.1,15.1h9.06a6.046,6.046,0,0,0,6.04,6.04H42.278a6.046,6.046,0,0,0,6.04-6.04h9.06a15.116,15.116,0,0,0,15.1-15.1v-3.585A21.012,21.012,0,0,0,55.925,95.416ZM60.4,65.278h-3.02v-6.04H60.4a3.02,3.02,0,1,1,0,6.04ZM26.384,29.04h15.4a10.217,10.217,0,0,1,9.7,6.994l.525,1.573,2.972.743a11.057,11.057,0,0,1,7.522,15.123A8.892,8.892,0,0,0,60.4,53.2H53.841a17.488,17.488,0,0,1-12.448-5.155,13.234,13.234,0,0,0-9.425-3.9,7.222,7.222,0,0,0-4.789,1.794,7.222,7.222,0,0,0-4.789-1.794,7.3,7.3,0,0,0-7.29,7.293V53.2h-3.02a8.908,8.908,0,0,0-1.483.151A16.683,16.683,0,0,1,9.06,46.365,17.346,17.346,0,0,1,26.384,29.04ZM12.079,65.278a3.02,3.02,0,1,1,0-6.04H15.1v6.04Zm9.06,6.481V51.432a1.3,1.3,0,0,1,2.135-.885l3.9,3.9,3.9-3.9a1.26,1.26,0,0,1,.885-.365,7.346,7.346,0,0,1,5.155,2.135,23.453,23.453,0,0,0,14.214,6.795v12.65A15.721,15.721,0,0,1,42.595,85.9a6.009,6.009,0,0,0-3.337,5.4v3.258l-3.02,4.53-3.02-4.53V91.3a6.009,6.009,0,0,0-3.337-5.4,15.721,15.721,0,0,1-8.742-14.142ZM6.04,119.635v-3.585a15.008,15.008,0,0,1,11.823-14.74l10.971-2.437,3.775,5.662H30.2a6.046,6.046,0,0,0-6.04,6.04v3.02H12.079v6.04h6.04v9.06H15.1a9.071,9.071,0,0,1-9.06-9.06Zm19.629,9.06h-1.51v-9.06h1.51a4.53,4.53,0,1,1,0,9.06Zm16.609,6.04H30.2v-1.06a10.506,10.506,0,0,0,0-19.019v-4.08H42.278Zm24.159-15.1a9.071,9.071,0,0,1-9.06,9.06h-9.06v-9.06H60.4V113.6H48.318v-3.02a6.046,6.046,0,0,0-6.04-6.04h-2.41l3.775-5.662,10.971,2.437a15.008,15.008,0,0,1,11.823,14.74Z" transform="translate(0 46.456)"/></g></g></g></svg>