<svg xmlns="http://www.w3.org/2000/svg" xmlns:xlink="http://www.w3.org/1999/xlink" width="723" height="384.633" viewBox="0 0 723 384.633"><defs><clipPath id="a"><rect width="8.749" height="3.369" fill="none"/></clipPath><clipPath id="b"><rect width="4.172" height="1.79" fill="none"/></clipPath><clipPath id="c"><rect width="20.713" height="16.649" fill="none"/></clipPath><clipPath id="d"><rect width="84.938" height="84.938" transform="translate(0 0.001)" fill="#ffb500"/></clipPath></defs><g transform="translate(-697 -1718)"><rect width="715" height="382" transform="translate(705 1718)" fill="#ced371"/><path d="M683.633,357.175H28.018c-39.81-15.157-49.673-155.726,55.391-163.206C188.337,186.5,44.879,22.708,194.86,1.2c150-21.517,208.97,254.4,349.345,197.49,38.609-15.649,74.3-13.795,100.636,18.282,39.191,47.759,38.792,140.209,38.792,140.209" transform="translate(736.367 1744.953)" fill="#eaeea6"/><circle cx="21.5" cy="21.5" r="21.5" transform="translate(779 1872)" fill="#e6e9af"/><circle cx="10" cy="10" r="10" transform="translate(779 1846)" fill="#e6e9af"/><circle cx="10" cy="10" r="10" transform="translate(697 2052)" fill="#e6e9af"/><circle cx="10" cy="10" r="10" transform="translate(1385 1903)" fill="#e6e9af"/><path d="M757.685,610.918c-.03.47-.07.943-.109,1.42A100.656,100.656,0,0,1,756,623.285c0,.012-.006.023-.008.035-.017.094-.038.186-.057.279,0,.007,0,.016,0,.024L617.5,623.378l-359.21-.633S210.637,589.817,195.1,537.9c-.013-.044-.027-.087-.037-.13a111.527,111.527,0,0,1-4.556-39.509c.009-.139.019-.279.03-.418a117.843,117.843,0,0,1,9.077-37.3,148.042,148.042,0,0,1,9.866-19.353q1.353-2.241,2.838-4.382c32.1-46.365,108.464-57.125,132.107-47.185,32.13,13.509,74.747-22.985,166.859-48.039,42.122-11.457,116.625-1.732,157.021,34.244.045.04.09.08.133.121,25.869,23.11,37.669,57.026,17.853,103.083-.021.047-.041.1-.064.144-.009.026-.023.054-.034.08-19.293,44.651,19.725,54.156,47.388,77.144.137.113.273.225.41.341a86.691,86.691,0,0,1,8.017,7.584q.8.868,1.577,1.763a59.3,59.3,0,0,1,8.509,12.75q.494,1.009.951,2.052a55.7,55.7,0,0,1,3.347,10.271,63.628,63.628,0,0,1,1.451,11.871,76.206,76.206,0,0,1-.163,7.879" transform="translate(662.114 1478.525)" fill="#eaeea6"/><path d="M580.14,597.618l-.277.033L194.038,643.677a87.607,87.607,0,0,1-3.578-31.035c.007-.109.014-.219.023-.328l375.406-95.751.058-.015c20.488,18.157,29.858,44.828,14.194,81.07" transform="translate(773.177 1349.874)" fill="#fbfcda"/><path d="M471.929,585.269,233.411,640.037a116.179,116.179,0,0,1,7.751-15.2q1.062-1.762,2.229-3.443Z" transform="translate(737.379 1292.851)" fill="#fbfcda"/><rect width="134.896" height="184.082" transform="translate(1142.837 1915.092)" fill="#fff3e9"/><path d="M1926.18,835.343l93.96,61.476h90.716L2063.8,835.342Z" transform="translate(-735.714 1026.664)" fill="#ed9f4a"/><path d="M2272.222,836.116l47.295,61.252h-2.7v119.391l-91.134,29.515V890.954Z" transform="translate(-947.953 1026.116)" fill="#f9ddbf"/><path d="M2355.029,940.842h1.9a11.719,11.719,0,0,1,11.72,11.719v29.781h-24.963V952.181a11.338,11.338,0,0,1,11.338-11.339" transform="translate(-1031.575 951.902)" fill="#efcdaf"/><path d="M2062.771,1180.176h1.9a11.718,11.718,0,0,1,11.719,11.719v29.781h-24.962v-30.161a11.338,11.338,0,0,1,11.338-11.339" transform="translate(-824.473 782.301)" fill="#f9ddbf"/><path d="M1882.771,1180.176h1.905a11.719,11.719,0,0,1,11.719,11.719v29.781h-24.963v-30.161a11.338,11.338,0,0,1,11.338-11.339" transform="translate(-696.917 782.301)" fill="#f9ddbf"/><path d="M1728.862,900.229h146.444l48.67-64.888-27.4.006-117.627.009Z" transform="translate(-595.887 1026.663)" fill="#ed9f4a"/><path d="M1728.862,900.244h79.188l88.527-64.882-117.627.009Z" transform="translate(-595.887 1026.649)" fill="#e58638"/><path d="M2419.341,1225.268l21.259,43.768h64.584l-33.671-43.608Z" transform="translate(-1085.184 750.347)" fill="#ed9f4a"/><path d="M2513.4,1225.817l33.671,43.608h0v78.309c-5.9,4.321-12.107-2.389-18.029-.357-12.908,4.427-23.953-31.256-23.953-31.256s-.364.072-1.08.177h-21.381v-46.872h-.141Z" transform="translate(-1129.929 749.96)" fill="#f9ddbf"/><path d="M2298.852,1375.482v38.1q5.847,1.7,11.3,3.043a233.576,233.576,0,0,0,32.577,5.728h10.694v-46.873Z" transform="translate(-999.802 643.902)" fill="#fff3e9"/><path d="M2278.271,1272.01h58.624l34.652-46.2-17.463,0-40.153.008Z" transform="translate(-985.215 749.962)" fill="#ed9f4a"/><path d="M2537.344,1429.5v52.679h3.189c1.015-.15,1.531-.251,1.531-.251a115.587,115.587,0,0,0,33.772-6.277v-45.515a19.566,19.566,0,0,0-19.563-19.564,18.933,18.933,0,0,0-18.929,18.929" transform="translate(-1168.804 619.038)" fill="#efcdaf"/><path d="M2577.884,1298.752a8.435,8.435,0,1,1-8.435,8.435,8.436,8.436,0,0,1,8.435-8.435" transform="translate(-1191.556 698.275)" fill="#efcdaf"/><path d="M2278.271,1272.017H2289.4l64.687-46.194-40.153.009Z" transform="translate(-985.215 749.954)" fill="#e58638"/><path d="M691.02,1476.188c-43.217-8.1-95.606-15.548-138.641-9.031s-59.571,15.31-106.832-4.92c-10.341-4.426-18.76-4.741-26.346-4.82l-2.868.047c-25.445,1.07-42.668,17.974-96.1,6.447a71.55,71.55,0,0,0-24.665-.571c-5.024-7.018-19.943-26.105-32.28-24.119s18.2,18.512,29.787,24.495q-2.068.338-4.08.754c-7.014-3.27-20.169-8.557-27.684-6.235-7.346,2.269,11.069,5.515,23.056,7.292a127.1,127.1,0,0,0-27.9,10.642Z" transform="translate(722.199 625.537)" fill="#a8d29f"/><path d="M487.624,1621.866l-4.108-.175c-.814-.038-1.625-.078-2.43-.124l-1.439-.086c-1.9-.122-3.746-.276-5.491-.484-13.665-1.632-32.968,5.955-32.968,5.955h67.3c-.476-4.211-10.318-4.653-20.866-5.085" transform="translate(568.923 474.773)" fill="#82b378"/><path d="M2260.385,1430.471c.019-4.573,6.939-9.373,6.939-9.373-1.2-.095-4.25,1.448-4.25,1.448.818-.724,4.628-1.921,4.628-1.921,1.228-.787,5.069-1.259,5.289-1.322s-3.936-.567-3.936-.567l4.99.334s4.486-.554,7.76-.885,12.247,1.023,12.247,1.023a21.81,21.81,0,0,0-3.715-1.023c4.2.425,10.371,1.574,10.379,1.575,3.582.239,5.961.447,5.961.447l2.172,39.015s-36.078-.189-41.178,0-7.745-7.178-8.878-15.867a27.888,27.888,0,0,1,1.592-12.884" transform="translate(-939.135 642.914)" fill="#edbd77"/><path d="M2448.59,1428.863s11.616-.883,18.983,8.466a12.326,12.326,0,0,1,.762,1.086,8.97,8.97,0,0,0-1-2.672c1.511,1.259,2.038,4.69,2.038,4.69h0a19.157,19.157,0,0,1,1.305,5.067c.918,1.122,1.694,2.017,1.694,2.017l-1.635-1.5a29.114,29.114,0,0,1-.846,10.113,3.159,3.159,0,0,1,2.009.168,3.272,3.272,0,0,0-2.1.158,28.084,28.084,0,0,1-1,3.007,39.755,39.755,0,0,1-1.286,4.7,21.641,21.641,0,0,0,.516-2.964c-2.067,4.207-5.123,7.179-8.679,7.209-9.633.083-21.5-1.4-24.066-13.974s2.816-25.259,13.3-25.576" transform="translate(-1085.223 634.029)" fill="#ffcf83"/><path d="M2626.963,1636.378a8.2,8.2,0,0,1-.308.924c-.025.06.1-.3.308-.924" transform="translate(-1232.091 459.021)" fill="#ffcf83"/><path d="M2473.189,1490.007a16.609,16.609,0,0,0,8.63-2.133,12.861,12.861,0,0,0,5.76-8.7c1.456-6.738.74-12.266-2.126-16.431-2.68-3.894-7.205-6.429-13.087-7.333a10.306,10.306,0,0,0-9.938,3.71c-3.66,4.388-4.711,11.8-2.557,18.027,1.521,4.4,5.586,7.116,10.873,7.269q.226.006.451.006c5.324,0,10.125-2.722,11.773-6.722,1.68-4.078,1.593-8.068-.245-11.233-1.867-3.214-5.392-5.305-9.926-5.887-4.1-.529-6.319,1.383-7.453,3.079-2.188,3.272-2.183,8.586-.717,11.152,1.414,2.472,5.325,4.38,8.722,4.261a5.735,5.735,0,0,0,5.269-3.194,7.133,7.133,0,0,0-.219-7.187,5.345,5.345,0,0,0-4.493-2.544,3.026,3.026,0,0,0-2.8,2.986c-.1,1.157.293,2.444,1.243,2.666,1.767.412,2.395-.552,2.42-.594,0,0,.954-1.576-.233-1.8-1.36-.26-1,.8-1,.8-.02.029.336,1.456-1.075,1.126-.581-.136-.963-1.08-.869-2.151a2.531,2.531,0,0,1,2.339-2.543,4.842,4.842,0,0,1,4.063,2.329,6.66,6.66,0,0,1,.185,6.706,5.262,5.262,0,0,1-4.848,2.919c-3.233.111-6.949-1.686-8.282-4.017-1.235-2.16-1.567-7.254.7-10.641,1.517-2.268,3.933-3.26,6.987-2.867,4.381.563,7.779,2.569,9.568,5.65,1.761,3.032,1.837,6.868.216,10.8s-6.459,6.569-11.761,6.416c-5.076-.147-8.975-2.742-10.428-6.942-2.1-6.073-1.085-13.293,2.471-17.557a9.848,9.848,0,0,1,9.492-3.541c5.746.882,10.158,3.347,12.76,7.128,2.788,4.05,3.478,9.451,2.051,16.053a12.4,12.4,0,0,1-5.538,8.39c-5.757,3.523-14.837,1.391-14.917,1.37l1.028.555a24.146,24.146,0,0,0,5.512.623" transform="translate(-1105.225 612.108)" fill="#edbd77"/><path d="M2066.412,1485.225h0c.022-5.495,8.337-11.262,8.337-11.262-1.437-.114-5.106,1.74-5.106,1.74.984-.87,5.56-2.307,5.56-2.307,1.475-.946,6.09-1.513,6.355-1.589s-4.729-.681-4.729-.681l6,.4s5.39-.667,9.324-1.064,14.714,1.23,14.714,1.23c-.492-.416-4.463-1.23-4.463-1.23,5.046.51,12.459,1.891,12.471,1.893,4.3.286,7.161.537,7.161.537l2.608,46.875s-43.348-.227-49.475,0-9.306-8.624-10.667-19.063a33.512,33.512,0,0,1,1.914-15.48" transform="translate(-800.975 581.926)" fill="#edbd77"/><path d="M2219.229,1478.833s13.957-1.061,22.808,10.173a14.649,14.649,0,0,1,.917,1.312,10.773,10.773,0,0,0-1.2-3.217c1.815,1.513,2.448,5.635,2.448,5.635l0,0a23.013,23.013,0,0,1,1.57,6.086c1.1,1.348,2.036,2.423,2.036,2.423l-1.966-1.8a34.985,34.985,0,0,1-1.017,12.152,3.8,3.8,0,0,1,2.416.2,3.93,3.93,0,0,0-2.519.19,33.635,33.635,0,0,1-1.2,3.608,47.821,47.821,0,0,1-1.551,5.667,25.852,25.852,0,0,0,.625-3.58c-2.484,5.056-6.154,8.63-10.429,8.667-11.574.1-25.83-1.679-28.914-16.789s3.383-30.349,15.979-30.729" transform="translate(-903.188 575.709)" fill="#ffcf83"/><path d="M2353.46,1641.8a6.53,6.53,0,0,1-.237.71c-.019.047.076-.227.237-.71" transform="translate(-1038.328 455.181)" fill="#ffcf83"/><path d="M2238.475,1540.641a19.641,19.641,0,0,0,10.206-2.522c3.509-2.147,5.8-5.609,6.812-10.291,1.722-7.968.876-14.506-2.514-19.431-3.169-4.605-8.521-7.6-15.476-8.672a12.188,12.188,0,0,0-11.754,4.387c-4.327,5.189-5.57,13.956-3.023,21.319,1.8,5.2,6.606,8.416,12.858,8.6q.267.008.534.008c6.3,0,11.974-3.219,13.922-7.95,1.987-4.823,1.884-9.541-.29-13.284-2.208-3.8-6.376-6.274-11.739-6.962-4.854-.625-7.473,1.636-8.814,3.641-2.588,3.869-2.582,10.154-.847,13.188,1.671,2.923,6.3,5.18,10.314,5.039a6.781,6.781,0,0,0,6.23-3.777,8.434,8.434,0,0,0-.259-8.5,6.32,6.32,0,0,0-5.313-3.009,3.579,3.579,0,0,0-3.308,3.531c-.12,1.368.347,2.891,1.471,3.153,2.09.488,2.832-.653,2.862-.7,0,0,1.128-1.863-.276-2.131-1.608-.307-1.185.941-1.185.941-.023.035.4,1.722-1.271,1.332-.687-.161-1.139-1.277-1.028-2.543a2.992,2.992,0,0,1,2.766-3.007,5.726,5.726,0,0,1,4.805,2.754,7.876,7.876,0,0,1,.219,7.931,6.222,6.222,0,0,1-5.733,3.452c-3.824.131-8.219-1.994-9.795-4.75-1.461-2.556-1.854-8.579.826-12.584,1.794-2.682,4.651-3.855,8.264-3.39,5.181.665,9.2,3.038,11.315,6.681,2.083,3.585,2.173,8.123.256,12.776s-7.639,7.769-13.909,7.587c-6-.173-10.613-3.242-12.332-8.209-2.485-7.182-1.284-15.72,2.922-20.762a11.646,11.646,0,0,1,11.225-4.187c6.795,1.044,12.013,3.958,15.09,8.43,3.3,4.79,4.113,11.177,2.426,18.985-.977,4.521-3.181,7.859-6.55,9.921-6.808,4.167-17.546,1.645-17.641,1.62l1.215.657a28.53,28.53,0,0,0,6.519.736" transform="translate(-920.024 561.545)" fill="#edbd77"/><path d="M1686.045,1212.765s13.295,51.3,12.1,55.351-7.869,17.831-7.869,17.831h6.424a4.843,4.843,0,0,0,2.491-4.451c-.106-3.179,8.9-15.58,8.9-15.58s-3.534-19.693,0-27.45c15.219-33.406-10.272-33.089-22.051-25.7" transform="translate(-464.038 816.686)" fill="#cca283"/><path d="M1278.156,1336.784s3.816,27.557,4.028,29.253,2.014,3.815,1.908,6.571-1.06,12.083-4.028,14.414a8.44,8.44,0,0,0-3.286,5.193h8.055s1.378-2.756,1.166-4.663,2.226-3.921,2.332-7.843,0-11.235,1.06-13.778.742-20.031,4.239-23.953-15.474-5.194-15.474-5.194" transform="translate(-124.436 710.417)" fill="#cca283"/><path d="M1093,1139.488a31.9,31.9,0,0,0,1.355-9.5c0-1.183-.044-2.366-.131-3.636,0,0,10.514-19.1,3.022-26.416,0,0-.044-.92-2.453-1.665-2.19-.7-6.351-1.183-14.193-.745-.22,0-.438.044-.657.044-2.935.176-6.44.219-10.295.088-18.75-.525-45.3-3.943-49.678-3.286-.789.132-1.621.263-2.541.437a59.542,59.542,0,0,1-7.184.877c-2.147.132-7.316-2.322-11.653-.964a75.911,75.911,0,0,0-13.975,8.761,104.514,104.514,0,0,0-17.085,17,113.832,113.832,0,0,0-10.558,15.421l0,0h-.013c-1.177.124-2.558,1.1-3.964,1.283-1.909.248-2.273,1.188-2.273,1.188a3.226,3.226,0,0,0,1.257,1.5,1.909,1.909,0,0,1-.2.033c-1.909.248-2.274,1.188-2.274,1.188.783,1.858,2.733,2.2,4.139,2.2h.005s0,.006,0,.01c-.438,1.841-.92,4.556-.087,5.827,1.314,1.972-.263,9.287-.131,11.74.175,2.453-.876,4.293-.833,4.907.044.569,1.665,2.934,3.636,2.847,1.971-.132,4.337-.351,5.519-2.8,1.227-2.5,1.927-4.031,3.11-4.249,1.139-.219,7.71-6.615,9.112-9.419.744-1.4,2.935-4.381,10.82-6a61.207,61.207,0,0,1,9.506-1.051c1.221,2.519,2.8,4.574,4.661,5.092.952,6.9,1.9,13.8,2.005,14.624.212,1.7,2.014,3.815,1.908,6.571s-1.06,12.083-4.028,14.415a8.443,8.443,0,0,0-3.286,5.193h8.055s1.378-2.756,1.166-4.663,2.225-3.921,2.331-7.843,0-11.235,1.06-13.778c.682-1.637.794-9.463,1.719-15.88,4.266-.87,8.485-1.627,10.737-.707,4.293,1.752,24.97,7.141,39.734,1.27a6.326,6.326,0,0,1,3.2.7,27.755,27.755,0,0,0,8.765,1.792c2.326,9.76,4.354,19.392,3.8,21.278-1.192,4.054-7.869,17.831-7.869,17.831h6.425a4.844,4.844,0,0,0,2.491-4.451c-.106-3.179,8.9-15.58,8.9-15.58s.567-17.486,4.337-26.194a17.915,17.915,0,0,0,1.7-2.975,4.076,4.076,0,0,0,.891-2.309" transform="translate(147.128 911.635)" fill="#efcdaf"/><path d="M1830.235,1477.391s8-8.612,3.028-10.558-3.028,3.892-3.028,6.163Z" transform="translate(-667.458 579.443)" fill="#2b478b"/><path d="M1131.216,1098.273c-5.432,2.672-11.433,5.126-14.982,5.214-7.754.131-26.591-4.337-34.257-4.819s-38.726,6.7-46.042,4.381a1.2,1.2,0,0,0-.57-.088c-1.621-.131-4.074,1.008-7.1,2.848-1.709,1.1-3.592,2.408-5.564,3.9-12.748,9.637-29.307,26.2-29.307,26.2a113.838,113.838,0,0,1,10.557-15.421,104.5,104.5,0,0,1,17.085-17,75.9,75.9,0,0,1,13.974-8.761c4.337-1.358,9.506,1.1,11.653.964a59.49,59.49,0,0,0,7.184-.877c.92-.174,1.752-.306,2.541-.437,4.381-.658,30.928,2.76,49.677,3.285,3.855.132,7.36.088,10.3-.088.219,0,.438-.044.657-.044,7.842-.438,12,.044,14.193.745" transform="translate(110.709 911.633)" fill="#ffe7d7"/><path d="M1330.854,1160.354c-1.137-4.738-12.507-1.137-23.31,3.221s-15.54.569-24.2,3.033-8.513,14.454-8.79,15.16c-3.044,7.77,19.91,3.411,28.322,7.139s28.921,1.578,27.973-4.485,1.137-19.33,0-24.067" transform="translate(-122.364 858.674)" fill="#2b478b"/><path d="M1358.6,1103.115c9.286-.38,11.939-5.306,23.12-3.222,9.191,1.714,15.7.61,19.085-2.155-18.729-.536-45.3-3.927-49.653-3.267-.792.12-1.649.265-2.551.415.252,1.637,1.806,8.562,10,8.229" transform="translate(-184.034 911.555)" fill="#2b478b"/><path d="M984.522,1148.315a104.507,104.507,0,0,0-17.085,17,113.834,113.834,0,0,0-10.558,15.421c-1.183.131-2.585,1.095-3.986,1.27-1.884.263-2.279,1.183-2.279,1.183a3.435,3.435,0,0,0,1.271,1.533h-.219c-1.883.263-2.278,1.227-2.278,1.227.789,1.841,2.76,2.19,4.162,2.19-.438,1.841-.92,4.557-.087,5.827,1.314,1.972-.263,9.287-.131,11.74.175,2.453-.876,4.293-.832,4.907.044.569,1.665,2.934,3.636,2.847,1.971-.131,4.337-.351,5.519-2.8,1.227-2.5,1.927-4.031,3.111-4.249,1.139-.219,7.71-6.615,9.112-9.419.745-1.4,2.935-4.381,10.82-6-1.139-7.273-5.827-16.735-.876-24.62a21.783,21.783,0,0,0,1.446-2.847,19.766,19.766,0,0,0,.745-2.629,19.428,19.428,0,0,0,.175-6.352,26.2,26.2,0,0,0-1.665-6.221" transform="translate(147.228 866.806)" fill="#2b478b"/><path d="M1674.011,1128.2a21.74,21.74,0,0,0-6.554-13.313s-.155-3.4-16.654-2.425a9.525,9.525,0,0,0-3.161,7.97c.974,8.147-12.314,9.544-10.855,19.43,1.268,8.583,18.139,12.183,27.759,5.049.008-1.152-.026-2.361-.109-3.633a60.07,60.07,0,0,0,3.432-7.78l2.273,40.577,2.163.12s2.653-37.467,1.706-46" transform="translate(-423.072 896.702)" fill="#2b478b"/><path d="M810.01,1544.025H756.675l-3.4-24.29h57.5a2.3,2.3,0,0,1,2.28,2.622Z" transform="translate(309.961 558.607)" fill="#e29952"/><path d="M770.691,1544.025H717.356l-3.037-21.667a2.3,2.3,0,0,1,2.28-2.622h54.848a2.3,2.3,0,0,1,2.28,2.622Z" transform="translate(342.302 558.607)" fill="#c18e4c"/><path d="M2067.7,1408.7l-.119-49.727a2.339,2.339,0,0,0-2.343-2.322l-6.005.036a2.339,2.339,0,0,0-2.322,2.343l.119,49.67Z" transform="translate(-771.774 693.93)" fill="#c18e4c"/><path d="M587.7,1408.7l-.119-49.727a2.34,2.34,0,0,0-2.343-2.322l-6.005.036a2.339,2.339,0,0,0-2.322,2.343l.119,49.67Z" transform="translate(456.303 693.93)" fill="#c18e4c"/><path d="M556.971,1412.391l265.608-.452a2.34,2.34,0,0,0,2.323-2.343l-.036-6a2.341,2.341,0,0,0-2.342-2.323l-265.61.452a2.34,2.34,0,0,0-2.322,2.343l.036,6.005a2.339,2.339,0,0,0,2.343,2.322" transform="translate(474.822 656.91)" fill="#ffcf83"/><path d="M556.971,1552.39l265.608-.452a2.34,2.34,0,0,0,2.323-2.343l-.036-6a2.341,2.341,0,0,0-2.342-2.323l-265.61.452a2.339,2.339,0,0,0-2.322,2.343l.036,6.005a2.339,2.339,0,0,0,2.343,2.322" transform="translate(474.822 540.74)" fill="#ffcf83"/><path d="M604.206,1412.87a1.135,1.135,0,1,1-1.135-1.135,1.135,1.135,0,0,1,1.135,1.135" transform="translate(435.537 648.225)" fill="#c18e4c"/><path d="M604.206,1442.87a1.135,1.135,0,1,1-1.135-1.135,1.135,1.135,0,0,1,1.135,1.135" transform="translate(435.537 623.331)" fill="#c18e4c"/><path d="M604.206,1551.87a1.135,1.135,0,1,1-1.135-1.135,1.135,1.135,0,0,1,1.135,1.135" transform="translate(435.537 532.885)" fill="#c18e4c"/><path d="M604.206,1581.87a1.135,1.135,0,1,1-1.135-1.135,1.135,1.135,0,0,1,1.135,1.135" transform="translate(435.537 507.991)" fill="#c18e4c"/><path d="M2083.206,1412.87a1.135,1.135,0,1,1-1.135-1.135,1.135,1.135,0,0,1,1.135,1.135" transform="translate(-791.711 648.225)" fill="#c18e4c"/><path d="M2083.206,1442.87a1.135,1.135,0,1,1-1.135-1.135,1.135,1.135,0,0,1,1.135,1.135" transform="translate(-791.711 623.331)" fill="#c18e4c"/><path d="M2083.206,1551.87a1.135,1.135,0,1,1-1.135-1.135,1.135,1.135,0,0,1,1.135,1.135" transform="translate(-791.711 532.885)" fill="#c18e4c"/><path d="M2083.206,1581.87a1.135,1.135,0,1,1-1.135-1.135,1.135,1.135,0,0,1,1.135,1.135" transform="translate(-791.711 507.991)" fill="#c18e4c"/><path d="M377.41,1592.194s-2.168,2.01-1.745,3.438,2.38,2.38,2.645,4.125,1.322,2.7,2.274,2.7h4.539s.7-1.228-.992-1.6-2.331-2.421-2.225-4.325a34.082,34.082,0,0,0-.159-4.442l-3.6-.846Z" transform="translate(623.338 499.272)" fill="#2c3a64"/><path d="M542.181,1624.241a6.725,6.725,0,0,0,1.675.218H554.5c-.042-.33-.307-1.378-1.948-1.645-1.958-.318-5.4-1.482-5.977-4.072s-4.813.793-4.813.793-.528,4.23.424,4.706" transform="translate(485.594 477.265)" fill="#2c3a64"/><path d="M515.376,1243.181s-.643,8.017-1.4,17.655c-1.027,13.091-2.261,29.172-2.383,32.218-.211,5.29-1.058,13.751-1.058,13.751s-2.009,2.01-6.029,1.163a138.443,138.443,0,0,1-4.606-24.86c-.016-.209-.032-.421-.048-.632-.952-13.01-2.432-40.407-2.432-40.407Z" transform="translate(522.262 789.01)" fill="#35488b"/><path d="M515.376,1243.181s-.643,8.017-1.4,17.655L499.9,1283.109c-.016-.209-.032-.421-.048-.632-.952-13.01-2.432-40.407-2.432-40.407Z" transform="translate(522.262 789.01)" fill="#2c3a64"/><path d="M420.14,1228.663s-11.582,29.036-19.2,42.681-10,17.453-10,17.453-4.363-1.745-4.76-2.935c0,0,2.912-26.342,8.013-32.764,2.882-3.629,6.267-14.518,6.426-18.326s1.031-11.345,1.031-11.345Z" transform="translate(614.562 804.479)" fill="#35488b"/><path d="M707.505,1230.58a48.871,48.871,0,0,1,4.637,2.465,10.649,10.649,0,0,1,1.8,3.162c-.1.186-.308.244-.678-.012s-1.41-1.327-1.448-1.128,2.775,3.509,2.277,4.209-3.318.494-4.928-.652-3.217-5.355-3.46-5.585c-2.053-1.949,1.8-2.459,1.8-2.459" transform="translate(349.928 798.544)" fill="#ffb27d"/><path d="M600.1,1053.317c1.135-.987,1.165-1.237,1.165-1.237s-7.248-12.533-7.876-13.738-4.513-20.027-4.513-20.027l-13.429-3.893s9.459,24.459,11.11,27.481c2.73,4.995,11.641,12.347,11.641,12.347a4.191,4.191,0,0,0,1.9-.932" transform="translate(457.513 977.908)" fill="#e58638"/><path d="M615.637,955.087s4.726,8.315,9.345,9.4a12.623,12.623,0,0,0-1.317-4.7c.461-.543.865-1.042,1.215-1.489a27.952,27.952,0,0,0,1.716-2.4l-1.568-4.215-1.063-2.86a13.759,13.759,0,0,1-1.662,2.4,11.307,11.307,0,0,1-6.665,3.873" transform="translate(424.168 1032.345)" fill="#ffb27d"/><path d="M654.6,962.884a8.771,8.771,0,0,0,2.578,7.081,27.863,27.863,0,0,0,1.716-2.4l-1.568-4.215a8.956,8.956,0,0,0-2.726-.464" transform="translate(391.867 1020.674)" fill="#ed975d"/><path d="M660.194,927.6s-7.061-2.753-5.279-7.124,2.071-7.67,6.655-6.1,4.774,3.6,4.534,5.2-4.027,8.625-5.909,8.022" transform="translate(391.815 1061.254)" fill="#ffb27d"/><path d="M470.256,1022.662c2.847,4.094,24.146,9.566,23.891,6.733a30.879,30.879,0,0,1,0-5.591q.081-.912.226-1.931a44.586,44.586,0,0,1,4.694-14.059q.323-.623.67-1.258a42.977,42.977,0,0,0,2.952-6.633c1.476-4.264,2.073-8.344,1.326-11.011a.142.142,0,0,0-.011-.037c-4.451-2.059-6.176-10.041-6.176-10.041s-15.187,2.726-23.7,22.969c0,0-.817,2.223-1.75,5.24a59.474,59.474,0,0,0-2.666,11.924,6.231,6.231,0,0,0,.537,3.7" transform="translate(545.277 1007.438)" fill="#ee9849"/><path d="M645.67,896.4c-.049-.1-.193-.2-.543-.309a1.468,1.468,0,0,1,.711-.026,1.868,1.868,0,0,1,1.584-1.314,1.113,1.113,0,0,0-.709.654c1.239-.785,3.534-1.013,9.266.9,7.553,2.516,3.779,6.9,2.635,7.252s-3.252-1.9-5.148-2.212-2.921,2.332-3.644,2.551-.312-.382-1.068-.983-1.191.814-1.175,1.808S646.1,906.7,646.1,906.7a14.057,14.057,0,0,0-.85-1.639c-.866-1.588-.63-7.35.2-8.387l.22-.278" transform="translate(400.047 1077.211)" fill="#2b478b"/><path d="M644.662,878.122s.875-7.025,5.957-6.635,7.238,3.014,7.569,6.914Z" transform="translate(400.083 1096.525)" fill="#edbd77"/><path d="M619.49,902.655c.187-.039.379-.079.574-.116.074-.014.147-.028.221-.04a30.8,30.8,0,0,1,6.241-.4,32.479,32.479,0,0,1,4.586.461c.24.043.475.085.7.133.317.065.625.133.922.206,3.577.874,5.949,2.341,5.9,3.933-.051,1.682-2.412,3.051-6.362,3.65a5.477,5.477,0,0,0,.243-.891,4.145,4.145,0,0,0,1.468-2.2c.02-.563-.438-1.1-1.236-1.563a14.838,14.838,0,0,0-6.478-1.453,13.924,13.924,0,0,0-6.857,1.2s-.062,2.652-.028,3.255c.028.362.068.707.119,1.021-3.283-.885-5.421-2.288-5.372-3.8.048-1.473,2.163-2.711,5.358-3.4" transform="translate(425.417 1071.127)" fill="#ffcf83"/><path d="M469.895,1081.147c18.326-5.528,21.241-27.377,21.241-27.377s-10.434,7.974-18.575,15.453a59.459,59.459,0,0,0-2.666,11.924" transform="translate(545.102 945.257)" fill="#e58638"/><path d="M346.254,1271.315l1.84-17.147,2.651.285a8.289,8.289,0,0,1,16.45,1.766l2.651.285-1.841,17.146a3.464,3.464,0,0,1-3.8,3.065l-14.885-1.6a3.463,3.463,0,0,1-3.065-3.8m13.475-23.04a7.641,7.641,0,0,0-8.326,6.248l15.136,1.625a7.641,7.641,0,0,0-6.81-7.873" transform="translate(647.713 784.443)" fill="#c65447"/><path d="M418.225,1213.632a37.645,37.645,0,0,1,.313,4.033,7.226,7.226,0,0,1-.924,2.258c-.164.009-.662.03-.649-.317s.238-.671.093-.613-.187,1.366-.847,1.332-2.607-.767-2.527-2.287,2.152-4.3,2.2-4.556c.419-2.14,2.34.151,2.34.151" transform="translate(591.747 813.49)" fill="#ffb27d"/><path d="M425.159,1041.558c1.454.666,1.994-.013,1.994-.013s8.469-14.142,9.361-15.28,16.526-7.846,16.526-7.846,6.363-2.432,6.614-6.292a6.954,6.954,0,0,0-3.771-6.657,7.039,7.039,0,0,0-7.914.511c-5.128,3.983-15.295,11.994-16.931,14.167-3.641,4.835-7.678,19.991-7.678,19.991a5.035,5.035,0,0,0,1.8,1.418" transform="translate(583.715 986.149)" fill="#ee9849"/><path d="M749.52,1334.368s7.447-3.424,14.6-1.84c0,0-8.681-3.863-14.6,1.84" transform="translate(313.074 715.01)" fill="#82b378"/><path d="M744.622,1357.626s8.142.943,13.428,6.011c0,0-5.411-7.81-13.428-6.011" transform="translate(317.139 693.347)" fill="#82b378"/><path d="M741.926,1306.985s8.142.943,13.428,6.011c0,0-5.411-7.81-13.428-6.011" transform="translate(319.375 735.367)" fill="#82b378"/><path d="M813.039,1355.076a13.686,13.686,0,0,1,6.867-3.428s-4.94-.4-6.867,3.428" transform="translate(260.368 698.093)" fill="#82b378"/><path d="M800.64,1485.786a13.685,13.685,0,0,1,6.867-3.428s-4.941-.4-6.867,3.428" transform="translate(270.656 589.633)" fill="#82b378"/><path d="M702.039,1276.2a13.686,13.686,0,0,1,6.867-3.428s-4.94-.4-6.867,3.428" transform="translate(352.473 763.541)" fill="#82b378"/><path d="M719.906,1376.359a13.687,13.687,0,0,1,7.1,2.91s-2.952-3.982-7.1-2.91" transform="translate(337.647 677.73)" fill="#82b378"/><path d="M720.374,1320.624a7.381,7.381,0,0,1,3.83,1.569s-1.592-2.148-3.83-1.569" transform="translate(337.259 723.908)" fill="#82b378"/><path d="M778.363,1290.622a7.38,7.38,0,0,1,3.83,1.569s-1.592-2.148-3.83-1.569" transform="translate(289.141 748.804)" fill="#82b378"/><path d="M785.488,1385.737a7.38,7.38,0,0,1,3.346-2.437s-2.663.228-3.346,2.437" transform="translate(283.229 671.819)" fill="#82b378"/><path d="M861.488,1497.608a7.383,7.383,0,0,1,3.539,2.146s-1.238-2.369-3.539-2.146" transform="translate(220.165 576.98)" fill="#82b378"/><path d="M845.112,1387.919a7.382,7.382,0,0,1,3.539,2.146s-1.238-2.369-3.539-2.146" transform="translate(233.754 667.999)" fill="#82b378"/><path d="M780.888,1478.351a13.688,13.688,0,0,1,7.1,2.91s-2.952-3.982-7.1-2.91" transform="translate(287.045 593.1)" fill="#82b378"/><path d="M846.47,1487.729a7.381,7.381,0,0,1,3.346-2.437s-2.663.228-3.346,2.437" transform="translate(232.627 587.188)" fill="#82b378"/><path d="M1865.731,458.8a9.731,9.731,0,1,1-9.731-9.731,9.731,9.731,0,0,1,9.731,9.731" transform="translate(-525.038 1334.868)" fill="#fbfcda"/><path d="M1413.728,922.121c-7.023,16.213-2.883,34.119,1.112,50.523a.109.109,0,0,0,.21-.054c-3.987-16.374-8.123-34.227-1.114-50.408.055-.128-.153-.188-.208-.062" transform="translate(-481.826 1108.859)" fill="#a8ccfc"/><path d="M1556.924,882.792c-.774,6.623-1.993,13.18-2.86,19.789-.787,6-.641,12.26,1.941,17.837.059.127.248.02.189-.106-2.686-5.8-2.683-12.307-1.8-18.522.9-6.335,2.008-12.638,2.751-18.994.016-.138-.2-.142-.217,0" transform="translate(-600.747 1141.432)" fill="#a8ccfc"/><path d="M971.135,997.408c7.3,13.613,5,29.515,2.711,44.1a.1.1,0,0,1-.187-.032c2.281-14.555,4.584-30.41-2.7-44-.058-.108.12-.175.177-.069" transform="translate(-118.563 1046.547)" fill="#b3d6f9"/><path d="M724.828,1199c-8.489,7.464-19.894,11.291-30.824,13.4q-4.647.9-9.365,1.345a.1.1,0,0,1-.019-.189c11.224-1.067,22.722-3.87,32.6-9.444a44.273,44.273,0,0,0,7.5-5.269c.092-.081.2.073.112.153" transform="translate(118.443 879.826)" fill="#b3d6f9"/><path d="M574.278,918.7c8.012,6.866,13.44,16.495,16.426,26.529.035.116-.142.186-.177.069-2.977-10-8.381-19.6-16.369-26.451-.093-.08.027-.227.12-.147" transform="translate(209.81 1111.652)" fill="#b3d6f9"/><path d="M608.852,900.988a68.244,68.244,0,0,1,11.7,15.122c2.937,5.167,5.494,10.757,5.355,16.828,0,.12-.191.141-.189.019.14-6.148-2.492-11.82-5.491-17.035a68.085,68.085,0,0,0-11.494-14.787c-.087-.085.032-.233.12-.147" transform="translate(181.197 1126.312)" fill="#b3d6f9"/><path d="M523.747,1126.74a76,76,0,0,1-43.942,15.581,71.114,71.114,0,0,1-13.238-.816.1.1,0,0,1,.032-.187,75.823,75.823,0,0,0,45.747-7.558,70.874,70.874,0,0,0,11.288-7.173c.1-.075.208.078.112.153" transform="translate(298.877 939.622)" fill="#b3d6f9"/><path d="M502.35,1111.065c-12.188,8.372-27.174,12.271-41.863,12.425a82.823,82.823,0,0,1-12.309-.789.1.1,0,0,1,.032-.187,81.072,81.072,0,0,0,43.2-5.617,64.816,64.816,0,0,0,10.825-5.985c.1-.069.212.084.112.153" transform="translate(314.095 952.592)" fill="#b3d6f9"/><path d="M461.451,962.2a23.37,23.37,0,0,1,6.9,12.135c.028.118-.161.136-.189.019a23.146,23.146,0,0,0-6.832-12.007c-.092-.08.027-.227.12-.147" transform="translate(303.175 1075.655)" fill="#b3d6f9"/><path d="M845.666,973.4c1.157,5.713,2.7,11.337,3.933,17.032,1.123,5.171,1.451,10.634-.392,15.681-.042.115-.214.036-.173-.079,1.917-5.249,1.441-10.917.223-16.268-1.241-5.454-2.67-10.864-3.78-16.347-.024-.12.165-.138.189-.019" transform="translate(-14.732 1066.438)" fill="#b3d6f9"/><path d="M999.284,1302.269c-.081.044-.163.087-.243.13-2.86,1.536-5.8,2.981-8.794,4.3h-.554l.486-.211q4.441-1.935,8.714-4.229.161-.083.322-.171c.107-.058.175.118.069.177" transform="translate(-134.074 794.384)" fill="#b3d6f9"/><path d="M1029.683,280.778H894.675a5.218,5.218,0,0,1-5.218-5.219V95.122a5.218,5.218,0,0,1,5.218-5.218h135.008a5.219,5.219,0,0,1,5.219,5.218V275.559a5.218,5.218,0,0,1-5.219,5.219" transform="translate(-51.129 1797.466)" fill="#a3314f"/><path d="M978.813,173.56V333.822H833.369V142.95H952.5Z" transform="translate(-4.716 1753.57)" fill="#fff"/><path d="M977.839,332.847H831.881V141.462H951.388l.077.089,26.374,30.683Zm-145.445-.513H977.326V172.424l-26.174-30.449H832.394Z" transform="translate(-3.484 1754.802)" fill="#bedeff"/><path d="M1550.323,173.56h-26.312V142.95Z" transform="translate(-576.226 1753.57)" fill="#bedeff"/><path d="M1369.316,737.224h-35.228a5.26,5.26,0,0,1-5.26-5.26V700.5a5.26,5.26,0,0,1,5.26-5.26h35.228a5.26,5.26,0,0,1,5.26,5.26v31.46a5.26,5.26,0,0,1-5.26,5.26" transform="translate(-414.711 1296.545)" fill="#ff6576"/><path d="M1378.214,765.55,1361.663,749.6l4.855-5.037,10.807,10.416,11.934-16.164,5.628,4.156Z" transform="translate(-441.882 1260.491)" fill="#fb4b63"/><path d="M1391.009,761.656,1374.457,745.7l4.855-5.037,10.807,10.416,11.934-16.164,5.628,4.156Z" transform="translate(-452.469 1263.714)" fill="#fff"/><path d="M1000.417,56.513a4.9,4.9,0,0,1-4.056-2.129L981.83,33.15a8.16,8.16,0,0,1,2.178-11.378,7.08,7.08,0,0,1,9.827,1.92l18.876,28.041a1.282,1.282,0,1,1-2.126,1.431L991.708,25.124A4.516,4.516,0,0,0,985.44,23.9a5.6,5.6,0,0,0-1.494,7.8l14.53,21.234a2.337,2.337,0,0,0,3.873-2.617L992.218,35.131a1.282,1.282,0,1,1,2.133-1.422L1004.482,48.9a4.894,4.894,0,0,1-4.065,7.615" transform="translate(-126.387 1854.846)" fill="#ff6576"/><path d="M1107.723,142.949h-9.388l11.54,16.8,4.126-4.066Z" transform="translate(-223.977 1753.57)" fill="#fff"/><path d="M1069.217,89.9h5.98l5.262,9.15h-6.219Z" transform="translate(-199.881 1797.466)" fill="#6e2034"/><path d="M1820.4,710.359c-.121.861.163,1.712.02,2.585a5,5,0,0,1-1.1,2.394c-.042.05.034.118.077.067a5.122,5.122,0,0,0,1.077-2.2,4.949,4.949,0,0,0,.107-1.229,8.813,8.813,0,0,1-.082-1.6c.009-.065-.09-.086-.1-.021" transform="translate(-820.59 1284.069)" fill="#4b83db"/><path d="M661.269,1321.317v.747h-3.557l-.409-1.445Z" transform="translate(140.98 779.043)" fill="#29274f"/><path d="M661.5,1276.618s1.327,3.97,3.343,5.15c1.626.952,4.734,1.094,5.563,2.985a.638.638,0,0,1-.561.9H661.5a15.305,15.305,0,0,0-4.469-.667c-1.433.215-1.365-3.4-.955-4.742a10.616,10.616,0,0,0,.068-3.627Z" transform="translate(142.207 815.454)" fill="#383463"/><path d="M502.276,1321.317v.747h3.557l.409-1.445Z" transform="translate(269.266 779.043)" fill="#29274f"/><path d="M450.832,1276.618s-1.327,3.97-3.343,5.15c-1.626.952-4.734,1.094-5.563,2.985a.638.638,0,0,0,.561.9h8.345a15.307,15.307,0,0,1,4.47-.667c1.433.215,1.365-3.4.955-4.742a10.616,10.616,0,0,1-.068-3.627Z" transform="translate(319.251 815.454)" fill="#383463"/><path d="M517.869,878.413s2.7,9.8,2.975,16.758c.238,5.961-.326,18.811-.243,28.764.119,14.32.9,24.251.528,24.7-.647.8-1.278.052-3.941.68-2.89.681-4.18-.729-4.18-.729s-.8-5.437-2.165-14.624c-.49-3.3-1.022-6.866-1.562-10.476-1.8-11.994-2.616-22.968-3.223-24.242,0,0-2.583,9.628-6.217,23.66-4.21,16.256-7.341,25.905-7.7,27.171,0,0-1.3.644-3.741-.406-.945-.407-3.227-.308-3.96-1.054-.964-.98,3.574-20.068,5.245-40.465,1.512-18.455,4.331-26.072,5.7-29.379Z" transform="translate(284.132 1144.971)" fill="#51497a"/><path d="M608.328,977.112a8.428,8.428,0,0,0-1.113,2.585c-.285,1.01-.546,2.028-.817,3.042a.128.128,0,1,1-.247-.071c.28-1.047.547-2.1.845-3.14a8.451,8.451,0,0,1,1.111-2.552c.1-.138.319,0,.221.135" transform="translate(183.313 1063.457)" fill="#383463"/><path d="M642.033,964.285a7.387,7.387,0,0,0-2.553,1.959l-.124-.224a22.671,22.671,0,0,1,3.568-.6c.164-.015.163.254,0,.268a22.23,22.23,0,0,0-3.5.594.135.135,0,0,1-.124-.224,7.56,7.56,0,0,1,2.6-2c.149-.069.28.162.129.232" transform="translate(155.906 1074.113)" fill="#383463"/><path d="M535.9,969.974l-.206.858c-.04.167-.287.1-.247-.071l.206-.858c.04-.167.287-.1.247.071" transform="translate(241.821 1069.342)" fill="#383463"/><path d="M530.112,987.427l-.22,1.285c-.029.17-.276.1-.247-.071l.22-1.285c.029-.17.276-.1.247.071" transform="translate(246.619 1054.9)" fill="#383463"/><path d="M525.446,1013.583l-.21.857a.128.128,0,1,1-.247-.071l.21-.857a.128.128,0,1,1,.247.071" transform="translate(250.474 1033.255)" fill="#383463"/><path d="M521.7,1038.418l-.229,1.5c-.026.17-.273.1-.247-.071l.229-1.5c.026-.17.273-.1.247.071" transform="translate(253.586 1012.705)" fill="#383463"/><path d="M519.155,1075.706v1.717a.128.128,0,1,1-.256,0v-1.717a.128.128,0,1,1,.256,0" transform="translate(255.51 981.816)" fill="#383463"/><path d="M518.026,1110.562a.821.821,0,0,0-.158.73.128.128,0,1,1-.247.071,1.113,1.113,0,0,1,.224-.991c.108-.131.288.06.181.19" transform="translate(256.596 953.06)" fill="#383463"/><path d="M506.071,1144a8.768,8.768,0,0,0,3.764,2.884c.153.06.087.32-.068.259a9.006,9.006,0,0,1-3.877-2.953c-.1-.134.079-.325.181-.19" transform="translate(266.299 925.233)" fill="#383463"/><path d="M506.684,1148.394l1.34,2.355c.085.149-.137.284-.221.135l-1.34-2.355c-.085-.149.137-.284.221-.135" transform="translate(265.816 921.614)" fill="#383463"/><path d="M634.1,1151.9l2.284,2.273c.12.119-.062.309-.181.19l-2.284-2.273c-.12-.119.061-.309.181-.19" transform="translate(160.359 918.688)" fill="#383463"/><path d="M641.331,1165.855a14.425,14.425,0,0,1,1.84,3.422c.06.161-.187.23-.247.071a14.181,14.181,0,0,0-1.814-3.358c-.1-.137.122-.271.221-.135" transform="translate(154.4 907.157)" fill="#383463"/><path d="M506.044,1182.738v.483a.128.128,0,1,1-.256,0v-.483a.128.128,0,1,1,.256,0" transform="translate(266.359 893.247)" fill="#383463"/><path d="M503.374,1204.2v1.448a.128.128,0,1,1-.256,0V1204.2a.128.128,0,1,1,.256,0" transform="translate(268.568 875.49)" fill="#383463"/><path d="M499.9,1226.62a1.509,1.509,0,0,0-.134.863c.024.169-.223.242-.247.072a1.838,1.838,0,0,1,.16-1.069c.073-.155.294-.019.221.135" transform="translate(271.566 856.997)" fill="#383463"/><path d="M497.185,1265.8a.92.92,0,0,0-.121.705c.038.168-.209.239-.247.071a1.2,1.2,0,0,1,.147-.912.13.13,0,0,1,.221.135" transform="translate(273.81 824.567)" fill="#383463"/><path d="M536.6,928.972l-.932,2.829q-.243.736-.485,1.471a1.167,1.167,0,0,1-.53.775,6.637,6.637,0,0,1-2.369.6,8.546,8.546,0,0,1-2.6-.143c-.161-.033-.093-.292.068-.259a8.3,8.3,0,0,0,2.372.148,6.77,6.77,0,0,0,2.371-.567c.4-.2.474-.733.607-1.135l.41-1.245.839-2.546a.128.128,0,1,1,.247.071" transform="translate(246.66 1103.268)" fill="#383463"/><path d="M675.329,936.314l.842,3.186c.067.254.122.517.2.766.1.32.335.4.617.522l1.425.6c.151.064.085.323-.068.259-.543-.229-1.087-.454-1.629-.687-.449-.192-.55-.462-.675-.934l-.962-3.641a.128.128,0,1,1,.247-.071" transform="translate(126.271 1097.136)" fill="#383463"/><path d="M515.5,666.222c.105.976.662,4.1,1.336,7.776.111.608.226,1.232.342,1.864h0c1.131,6.145,2.421,13.058,2.489,14.15.2,3.273-1.484,11.533-1.555,13.666-.017.533,1.531.218,3.255.064A35.547,35.547,0,0,1,532,704.865a23.9,23.9,0,0,0,12.738-.16c1.085-.32,2.721-1.532,2.321-2.591-.162-.429-.386-1.007-.642-1.686-.183-.482-.382-1.014-.588-1.578h0c-1.023-2.8-2.209-6.387-2.316-8.507-.079-1.557,3.154-24.161,3.154-24.161l-2.461-6.747c-11.413-2.844-23.942-.013-23.942-.013a5.887,5.887,0,0,0-4.764,6.8" transform="translate(258.364 1327.227)" fill="#ffb500"/><path d="M758.379,659.814l-2.014,8.261,5.516.883s-.331-3.255.69-4.082-4.192-5.062-4.192-5.062" transform="translate(59.006 1325.862)" fill="#fabba5"/><path d="M764.862,661.182s1.037-2.939,2.763-3.515,2.666-.29,3.356.4.911,2.906.221,4.287a3.479,3.479,0,0,1-3.691,2.151c-1.456-.312-2.649-3.323-2.649-3.323" transform="translate(51.975 1327.895)" fill="#fabba5"/><path d="M652.4,695.243l10.45.493a39.963,39.963,0,0,0,2.942,9.393c3.951,7.668,4.843,12.789-.271,14.163-3.289.884-5.489-.694-9.8-8.5-5.863-10.621-3.325-15.552-3.325-15.552" transform="translate(145.486 1296.545)" fill="#ffb500"/><path d="M607.263,636.518s.18.355.5.962c.174.328.391.731.644,1.191.6,1.1,1.414,2.53,2.347,4.059,2.728,4.472,6.5,9.795,9.231,10.252.53.088,7.588,1.162,5.964-5.841-1.12-4.831-4.366-8.529-8.556-9.245-1.19-.2-2.475-.4-3.716-.573-2.319-.326-4.488-.585-5.613-.713-.509-.059-.8-.091-.8-.091" transform="translate(182.389 1345.14)" fill="#ffb500"/><path d="M437.383,660.583s12.86,2.886,11.279,1.274c-1.122-1.145,7.412-10.941,9.136-11.21,2.748-.429,5.595-5.885,7.521-10.451.57-1.352,1.059-2.624,1.441-3.666.164-.447.308-.852.43-1.2s.222-.643.3-.871c.115-.345.177-.54.177-.54s-2.268.556-5.167,1.149c-1.123.23-2.341.466-3.559.677-4.189.726-8.881,2.593-10.9,7.122-2.592,5.817-9.469,11.448-10.66,17.717" transform="translate(322.965 1347.292)" fill="#ffb500"/><path d="M583.9,596.009a1.759,1.759,0,0,0,1.35-1.441c.252-1.461.563-3.415.769-5.243a12.212,12.212,0,0,0-.452-2.381c.056.016,7.667,2.231,6.738,4.569-.041.1-.08.214-.114.329a9.537,9.537,0,0,0-.3,2.634,14.665,14.665,0,0,0,.093,1.6c.523.069,1.066.143,1.618.221a5.712,5.712,0,0,1,.131,1.619,4.208,4.208,0,0,1-3.053,3.789,8.487,8.487,0,0,1-1.146.34,4.275,4.275,0,0,1-3.716-.722,7.738,7.738,0,0,1-2.317-3.481,14.712,14.712,0,0,1-.5-1.649q.462-.094.9-.187" transform="translate(202.471 1386.162)" fill="#fabba5"/><path d="M599.269,599.359c.047.347-.1,1.64-.1,2.039,1.717,3.5,6.038,3.322,6.1,3.345a9.533,9.533,0,0,1,.3-2.634c-1.711-.855-5.335-2.9-6.306-2.75" transform="translate(189.083 1375.896)" fill="#ed938b"/><path d="M587.828,642.379a6.263,6.263,0,0,1-3.893,6.949c-2.682,1.046-6.419.511-8.083-2.14a10.259,10.259,0,0,1-1.309-4.742c-.006-.086.122-.086.128,0a10.994,10.994,0,0,0,.977,4.111,5.282,5.282,0,0,0,3.286,2.768,6.919,6.919,0,0,0,7.781-2.336,5.94,5.94,0,0,0,.99-4.574c-.018-.084.105-.12.123-.036" transform="translate(209.464 1340.33)" fill="#ffa468"/><path d="M549.986,827.869c-1.546-.19-3.787,2.909-5.135,3.407l-2.3-.7-1.628,4.282,3.123.823a6.336,6.336,0,0,0,1.194.358c2.639.314,3.367-1.472,4.263-1.558.26-.025,1.872.175,1.992-.242.067-.234-1.49-.735-2.245-1.056a.107.107,0,0,1,.006-.2c1.076-.3,3.264.039,3.414-.584a8,8,0,0,0-1.947-.812,4.923,4.923,0,0,0-1.8-.043.045.045,0,0,1-.025-.085,5.487,5.487,0,0,1,1.6-.458c.7-.068,2.553-.029,2.935-.72.159-.288-2.179-.42-3.112-.584a1.649,1.649,0,0,0-.555.025.036.036,0,0,1-.023-.068,3.786,3.786,0,0,1,.732-.3c1.175-.183,2.709-.224,2.972-1.014.069-.206-3.131-.429-3.47-.47" transform="translate(237.282 1186.803)" fill="#fabba5"/><path d="M455.979,794.821a73.159,73.159,0,0,1-12.647-6.252,12.814,12.814,0,0,1-5.969-9.256,1.066,1.066,0,0,1,.707-1.1c1.684-.593,6.071-1.785,8.854.683,3.5,3.107,4.484,5,7.268,7.22,1.677,1.337,4.407,2.062,4.565,2.792s-1.089,1.666-1.04,2.579-1.123,3.533-1.739,3.336" transform="translate(322.985 1228.563)" fill="#ffb500"/><path d="M721.018,700.629a57.027,57.027,0,0,1-3.632,13.633c-3.5,7.824-6.123,8.166-7.7,8.374-.484.064-1.17-.751-1.42-1.171-.914-1.534-2.949-5.6-1.079-8.815,2.354-4.048,4.016-5.383,5.642-8.551.98-1.908,1.151-4.727,1.836-5.027s1.848.739,2.733.51,3.685.4,3.614,1.046" transform="translate(100.329 1293.421)" fill="#ffb500"/><path d="M480.845,788.45a6.955,6.955,0,0,0-4.571-1.1,7.337,7.337,0,0,1,4.722-.077s-.446.711-.152,1.175" transform="translate(290.782 1220.699)" fill="#ffa468"/><path d="M525.165,745.066s1.391-2.476,2.751-2.838-1.117,1.132-1.376,2.838a8.117,8.117,0,0,1-.848,2.88c-.023-.141-.528-2.88-.528-2.88" transform="translate(250.325 1257.71)" fill="#ffa468"/><path d="M712.6,744.14s-3.418,3.414-3.473,6.669c0,0-1.763-4.03,3.063-7.614Z" transform="translate(98.355 1256.864)" fill="#ffa468"/><path d="M847.765,789.093a.8.8,0,0,0,.021.341.024.024,0,0,0,.046-.013.736.736,0,0,1-.021-.316c0-.03-.042-.043-.047-.013" transform="translate(-16.621 1218.898)" fill="#dc826f"/><path d="M779.273,654.129c1.4-.389,1.966-.259,2.158.433s-.094.9-1.5,1.287-2.958.692-3.15,0,1.086-1.332,2.488-1.721" transform="translate(42.123 1330.746)" fill="#ffccbc"/><path d="M777.9,663.414c1.716-.475,2.391-.376,2.582.316s-.166.919-1.882,1.394-3.613.874-3.805.182,1.389-1.416,3.1-1.892" transform="translate(43.769 1323.126)" fill="#ffccbc"/><path d="M779.911,672.054c1.628-.451,2.272-.344,2.464.348s-.146.913-1.774,1.364-3.431.823-3.622.132,1.3-1.393,2.932-1.844" transform="translate(41.962 1315.958)" fill="#ffccbc"/><path d="M786.509,680.554c1.17-.324,1.643-.211,1.806.379s-.075.765-1.245,1.089-2.47.575-2.633-.014.9-1.13,2.072-1.454" transform="translate(35.789 1308.848)" fill="#ffccbc"/><path d="M783.993,663.917l2.861-.658c.09-.021.052-.159-.038-.139l-2.861.658c-.09.021-.052.159.038.139" transform="translate(36.218 1323.129)" fill="#eea490"/><path d="M781.538,672.723a27.743,27.743,0,0,0,4.013-1.011c.087-.029.05-.168-.038-.139a27.734,27.734,0,0,1-4.013,1.011c-.091.016-.052.154.038.139" transform="translate(38.25 1316.135)" fill="#eea490"/><path d="M785.679,681.573a20.044,20.044,0,0,0,3.241-.867c.086-.031.049-.17-.038-.139a20.056,20.056,0,0,1-3.241.867c-.091.016-.052.155.038.139" transform="translate(34.822 1308.692)" fill="#eea490"/><path d="M610.877,506.239a3.052,3.052,0,0,0-2.858-4.93c-1.967.3-3.989,2.5-6.039,1.244-.069-.042-.006-.151.063-.109,1.384.848,2.93-.026,4.208-.646a4.226,4.226,0,0,1,3.205-.5,3.211,3.211,0,0,1,1.529,5c-.048.064-.158,0-.109-.064" transform="translate(186.784 1457.155)" fill="#6d2f3b"/><path d="M602.3,533.188a2.343,2.343,0,0,0-1.848-.057,2.5,2.5,0,0,1,1.353.383c.638.42.5-.326.5-.326" transform="translate(188.028 1430.835)" fill="#2d2b4e"/><path d="M587.933,586.759c.117.03.714.185,1.521.439-.039-.426-1.34-.416-1.521-.439" transform="translate(198.384 1386.316)" fill="#fabba5"/><path d="M590.864,542.983c.339.967,3.866,1.672,5.274,1.789.927.077,2.35.256,3.127-.306.658-.476,2.444-4.465,1.955-6.487a12.477,12.477,0,0,1-.108-3.16c.235-1.857-1.136-4.882-1.136-4.882-5.436-3.647-9.98,1.789-10.323,3.852a19.452,19.452,0,0,0,1.21,9.193" transform="translate(197.083 1434.353)" fill="#fabba5"/><path d="M568.517,516.9a7.35,7.35,0,0,0,3.695,3.93c-.306-1.641-.517-5.048-.117-5.051s1.517,1.2,1.4.595a3.066,3.066,0,0,1,.021-2.8,3.55,3.55,0,0,0,.043-2.909l.018.006.011,0a3.28,3.28,0,0,0,.484.148h.005a8.359,8.359,0,0,0,1.666.184,16.669,16.669,0,0,0,1.688-.05c.608-.049,1.2-.124,1.74-.218a9.984,9.984,0,0,0,1.314-.312,4,4,0,0,1,.58-.147,2.392,2.392,0,0,1,.366-.036c.768-.013.872.449.872.449a3.609,3.609,0,0,0,.568-3.646,3.413,3.413,0,0,0-4.421-2.448c-2.266.653-1.85.726-4.071.588-5.148-.32-4.98,3.176-4.98,3.176-2.473,1.5-1.687,5.913-.881,8.539" transform="translate(215.104 1454.446)" fill="#6d2f3b"/><path d="M586.066,570.618s-1.276-1.861-2.41-.977.086,2.438.545,3.034c.491.639.767.637,1.6.408s.263-2.465.263-2.465" transform="translate(202.311 1400.678)" fill="#fabba5"/><path d="M585.869,572.9a.9.9,0,0,1-1.315.18,2.494,2.494,0,0,1-.605-.7,6.185,6.185,0,0,1-.541-.969,1.515,1.515,0,0,1,.18-1.795,1.278,1.278,0,0,1,1.718.207c.059.06-.031.155-.09.095a1.14,1.14,0,0,0-1.6-.153c-.478.456-.267,1.228-.02,1.747a4.818,4.818,0,0,0,.841,1.291c.337.342,1.029.562,1.317.03a.066.066,0,0,1,.115.063" transform="translate(202.297 1400.702)" fill="#ef9f8a"/><path d="M590.092,572.828a.972.972,0,0,1,.505.363.671.671,0,0,1,.032.608c-.112.424.317.5.535.761a.438.438,0,0,1,.067.506.066.066,0,0,1-.115-.063c.223-.4-.566-.613-.645-.977-.033-.151.047-.257.081-.4.08-.338-.215-.567-.493-.672-.078-.029-.047-.157.032-.127" transform="translate(196.661 1397.848)" fill="#ef9f8a"/><path d="M631.347,504.969a3.857,3.857,0,0,1,3.466.69,2.661,2.661,0,0,1,.745,3.06c-.032.074-.14.01-.109-.063a2.556,2.556,0,0,0-.9-3.045,3.781,3.781,0,0,0-3.169-.52c-.079.018-.112-.1-.034-.121" transform="translate(162.496 1454.107)" fill="#6d2f3b"/><path d="M576.124,517.25a3,3,0,0,0,.456,2.149c.044.068-.065.131-.109.064a3.13,3.13,0,0,1-.469-2.246c.013-.08.134-.046.121.034" transform="translate(208.292 1443.9)" fill="#6d2f3b"/><path d="M570.8,526.288a6.041,6.041,0,0,0-1.69.84c-.066.047-.129-.062-.063-.109a6.162,6.162,0,0,1,1.72-.852c.078-.024.111.1.034.121" transform="translate(214.038 1436.459)" fill="#6d2f3b"/><path d="M623.893,519.316c1.167-.271,1.3-1.9,1.088-2.866-.26-1.2-1.415-1.468-2.481-1.5-.081,0-.081-.129,0-.126,1.216.039,2.421.409,2.633,1.765.157,1.007-.01,2.573-1.206,2.851-.079.018-.112-.1-.033-.121" transform="translate(169.83 1445.845)" fill="#7a3a49"/><path d="M622.069,523.977a2.816,2.816,0,0,1,1.451,1.276,2.195,2.195,0,0,1,.059,1.669c-.027.076-.149.043-.121-.033a2.077,2.077,0,0,0-.111-1.7,2.832,2.832,0,0,0-1.342-1.1c-.073-.036-.009-.145.064-.109" transform="translate(170.215 1438.275)" fill="#7a3a49"/><path d="M588.79,531.516a11.065,11.065,0,0,1-2.537-1.706c-.06-.054.029-.143.089-.089a10.944,10.944,0,0,0,2.512,1.686c.073.035.009.144-.063.109" transform="translate(199.791 1433.529)" fill="#7a3a49"/><path d="M771.531,406.163l-5.9.543-5.783.531,2.094-13.578.19-1.232,1.376-8.91,3.429,9.683Z" transform="translate(56.121 1554.498)" fill="#fff"/><path d="M765.633,449.448l-5.783.531,2.094-13.578.19-1.232h2.178s-.041.362-.087.988c-.176,2.366-.4,8.51,1.408,13.29" transform="translate(56.121 1511.757)" fill="#cfe6ff"/><path d="M784.634,654.169l-11.68,1.075-13.106-139.37,11.68-1.075Z" transform="translate(56.123 1445.863)" fill="#ff6576"/><path d="M796.157,655.788l-5.611.516L777.44,516.934l5.611-.516Z" transform="translate(41.565 1444.524)" fill="#fb4b63"/><path d="M776.985,403.075l-4.994.459,1.232-7.982,1.062-.1Z" transform="translate(46.075 1544.624)" fill="#51497a"/><path d="M757.929,658.91s-.841-3.139-.407-4.028,1.712-2.583,2.676-2.736c1.348-.214,3.425-.669,3.272-.073a2.873,2.873,0,0,1-2.293,1.737c-.417-.023-.353,1.135-.588,1.448a7.823,7.823,0,0,0-1.366,3.39Z" transform="translate(58.15 1332.513)" fill="#fabba5"/><g transform="translate(796.035 2026.076)"><g clip-path="url(#a)"><path d="M644.273,897.3a16.012,16.012,0,0,0,8.749-1.7c-.183-.482-.382-1.014-.588-1.578-1.012,1.908-8.162,3.277-8.162,3.277" transform="translate(-644.273 -894.022)" fill="#ffa468"/></g></g><path d="M597.914,890.522s-5.515,1.127-8.437-1.538a11.711,11.711,0,0,0,5.062,1.334c2.22-.159,3.684-.207,3.375.2" transform="translate(197.106 1136.223)" fill="#ffa468"/><g transform="translate(790.17 2023.921)"><g clip-path="url(#b)"><path d="M614.157,882.368s-2.626,1.183-3.884.911c0,0,2.581-.555,3.355-1.428s1.1.281.529.516" transform="translate(-610.273 -881.53)" fill="#ffa468"/></g></g><path d="M537.621,829.664a7.576,7.576,0,0,0,2.127,1.343c.308.136.623.258.935.385.439.178.81.356.782.924-.009.176-.246.453-.323.609a7.744,7.744,0,0,0-.7,2.267,4.68,4.68,0,0,1-.39,1.488c-.381.707-1.28,1.239-1.982.591-.1-.093-.253.058-.151.151a1.361,1.361,0,0,0,1.876-.038c.924-.835.764-2.273,1.115-3.361.192-.6.706-1.2.836-1.8a.593.593,0,0,0-.191-.651,6.044,6.044,0,0,0-1.7-.751,7.371,7.371,0,0,1-2.083-1.309c-.1-.093-.253.058-.151.151" transform="translate(240.045 1185.46)" fill="#ffa468"/><path d="M526.97,740.074c1.362-1.4,2.574-2.949,4.647-3.187.135-.016.137-.23,0-.214-2.151.247-3.375,1.781-4.8,3.25-.1.1.055.25.151.151" transform="translate(248.981 1262.262)" fill="#ffa468"/><path d="M682.831,723.879a86.935,86.935,0,0,1-1.389,14.243c-.024.135.182.192.206.057a87.3,87.3,0,0,0,1.4-14.3.107.107,0,0,0-.214,0" transform="translate(121.007 1272.934)" fill="#ffa468"/><path d="M713.076,748.347a10.9,10.9,0,0,0-3.486,9.962c.025.135.231.078.206-.057a10.688,10.688,0,0,1,3.431-9.754c.1-.094-.051-.246-.151-.151" transform="translate(97.854 1252.626)" fill="#ffa468"/><path d="M477.324,789.533a7.815,7.815,0,0,0-5.2-.916c-.136.022-.078.229.057.206a7.576,7.576,0,0,1,5.032.895.107.107,0,0,0,.108-.185" transform="translate(294.277 1219.369)" fill="#ffa468"/><path d="M688.858,729.221a19.489,19.489,0,0,0,1.224-2.41c.053-.125-.131-.234-.185-.108a19.473,19.473,0,0,1-1.224,2.41.107.107,0,0,0,.185.108" transform="translate(115.034 1270.558)" fill="#ffa468"/><path d="M1130.238,339.237h-64.5a1.356,1.356,0,1,1,0-2.713h64.5a1.356,1.356,0,1,1,0,2.713" transform="translate(-195.881 1593.387)" fill="#75acf2"/><path d="M1111.342,377.854h-74.452a1.356,1.356,0,1,1,0-2.713h74.452a1.356,1.356,0,1,1,0,2.713" transform="translate(-172.008 1561.431)" fill="#75acf2"/><path d="M989.126,510.661H927.05a1.36,1.36,0,0,1,0-2.719h62.077a1.36,1.36,0,0,1,0,2.719" transform="translate(-81.112 1451.537)" fill="#cfe6ff"/><path d="M1373.025,510.661h-43.069a1.36,1.36,0,0,1,0-2.719h43.069a1.36,1.36,0,1,1,0,2.719" transform="translate(-414.52 1451.537)" fill="#cfe6ff"/><path d="M970.726,454.992H927.05a1.36,1.36,0,0,1,0-2.719h43.676a1.36,1.36,0,0,1,0,2.719" transform="translate(-81.112 1497.604)" fill="#cfe6ff"/><path d="M1258.992,454.992h-33.769a1.36,1.36,0,1,1,0-2.719h33.769a1.36,1.36,0,1,1,0,2.719" transform="translate(-327.852 1497.604)" fill="#cfe6ff"/><path d="M1480.012,454.992h-20.767a1.36,1.36,0,1,1,0-2.719h20.767a1.36,1.36,0,1,1,0,2.719" transform="translate(-521.506 1497.604)" fill="#cfe6ff"/><path d="M970.726,566.329H927.05a1.36,1.36,0,0,1,0-2.719h43.676a1.36,1.36,0,0,1,0,2.719" transform="translate(-81.112 1405.472)" fill="#cfe6ff"/><path d="M1258.992,566.329h-33.769a1.36,1.36,0,0,1,0-2.719h33.769a1.36,1.36,0,1,1,0,2.719" transform="translate(-327.852 1405.472)" fill="#cfe6ff"/><path d="M1480.012,566.329h-20.767a1.36,1.36,0,0,1,0-2.719h20.767a1.36,1.36,0,0,1,0,2.719" transform="translate(-521.506 1405.472)" fill="#cfe6ff"/><path d="M976.429,679.3h-49.4a1.34,1.34,0,0,1-1.336-1.336v-.047a1.34,1.34,0,0,1,1.336-1.336h49.4a1.34,1.34,0,0,1,1.336,1.336v.047a1.34,1.34,0,0,1-1.336,1.336" transform="translate(-81.112 1311.99)" fill="#cfe6ff"/><path d="M970.726,623.63H927.05a1.36,1.36,0,0,1,0-2.719h43.676a1.36,1.36,0,0,1,0,2.719" transform="translate(-81.112 1358.055)" fill="#cfe6ff"/><path d="M1258.992,623.63h-33.769a1.36,1.36,0,1,1,0-2.719h33.769a1.36,1.36,0,1,1,0,2.719" transform="translate(-327.852 1358.055)" fill="#cfe6ff"/><path d="M1480.012,623.63h-20.767a1.36,1.36,0,1,1,0-2.719h20.767a1.36,1.36,0,1,1,0,2.719" transform="translate(-521.506 1358.055)" fill="#cfe6ff"/><path d="M929.367,797.144h35.054a1.054,1.054,0,0,0,0-2.107H929.367a1.054,1.054,0,0,0,0,2.107" transform="translate(-83.283 1213.965)" fill="#cfe6ff"/><path d="M929.367,883.653h35.054a1.053,1.053,0,0,0,0-2.107H929.367a1.053,1.053,0,0,0,0,2.107" transform="translate(-83.283 1142.378)" fill="#cfe6ff"/><path d="M929.367,754.008h16.954a1.053,1.053,0,1,0,0-2.107H929.367a1.053,1.053,0,0,0,0,2.107" transform="translate(-83.283 1249.66)" fill="#cfe6ff"/><path d="M929.367,840.279h16.954a1.056,1.056,0,0,0,1.053-1.053h0a1.056,1.056,0,0,0-1.053-1.053H929.367a1.054,1.054,0,0,0,0,2.107" transform="translate(-83.283 1178.271)" fill="#cfe6ff"/><path d="M929.367,926.112h16.954a1.053,1.053,0,1,0,0-2.107H929.367a1.057,1.057,0,0,0-1.053,1.053h0a1.057,1.057,0,0,0,1.053,1.053" transform="translate(-83.283 1107.243)" fill="#cfe6ff"/><rect width="45.801" height="21.243" transform="translate(875.471 2056.928)" fill="#cfe6ff"/><path d="M1049.107,869.369c-2.217,4.409-4.315,8.881-6.531,13.693-1.724,3.741-3.3,7.648-5.2,12.083-5.965,13.962-11.081,22.955-11.49,23.775-.05.091-.95,1.73-1.159,2.09a1.559,1.559,0,0,1,.326.012c3.515.475,7.327,12.47,1.865,17.1a.007.007,0,0,0,0,0c-.237.2-.873.624-1.78,1.2-21.642-.029-26.578-.036-50.534-.064,1.863-8.087,4.377-25.006,6.2-30.835,4.447-14.208,5.075-22.672,9.818-24.237,2.215-.732,4.383-1.285,6.475,1.338.531.664,2.531-2.412,6.127-2.044,6.3.642,5.015,4.564,5.948,6.02a.383.383,0,0,0,.219.183h0c.958.242,2.956-4.992,6.755-5.111,7.712-.24,6.344,6.477,7.01,7.616,1.227,2.134,13.234-22.222,20.637-31.791,3.864-5,10.72-1.8,5.31,8.97" transform="translate(-121.59 1161.783)" fill="#fdbaa0"/><path d="M1379.848,864.712s-.94,4.338-2.624,5.088-4.469-.982-4.5-1.827,2.486-4.9,3.01-5.107,3.534.817,4.114,1.847" transform="translate(-451.035 1157.859)" fill="#ffc6b2"/><path d="M1246.024,1216.334a52.587,52.587,0,0,0-4.583,8.253c-.071.159-.3.021-.234-.137a52.557,52.557,0,0,1,4.583-8.253c.1-.144.333-.008.234.137" transform="translate(-342.193 865.503)" fill="#f18e7b"/><path d="M1185.712,1109.4a48.039,48.039,0,0,0-4.693,5.669,15.958,15.958,0,0,0-2.514,4.976c-1.016,4.359-2,6.28-7.2,12.852-1.913,2.42-6.1,9.155-8.04,10.945-.207.191-.412.376-.616.553-3.563,0,.64,0-24.9-.032a11.892,11.892,0,0,1,4.928-10.506c6.552-5.089,13.868-7.759,17.885-9.525h0l.338-.151c2.538-1.135,2.53-1.459,2.806-1.915a39.161,39.161,0,0,1,6.342-7.646,33.646,33.646,0,0,1,4.271-5.176,12.194,12.194,0,0,1,5.126-3.275c4.649-1.109,7.711,1.663,6.262,3.231" transform="translate(-256.556 956.714)" fill="#fdbaa0"/><path d="M1253.382,1191.785a99.564,99.564,0,0,0-5.662,13.111c-.051.146-.284.083-.232-.064a99.994,99.994,0,0,1,5.687-13.169c.072-.138.28-.016.208.122" transform="translate(-347.395 885.805)" fill="#f18e7b"/><path d="M1325.975,1155.473a5.628,5.628,0,0,1,2.059.464c.142.061.02.269-.122.208a5.308,5.308,0,0,0-1.937-.431c-.155-.005-.156-.246,0-.241" transform="translate(-412.254 915.702)" fill="#f18e7b"/><path d="M1327.124,1156.343a4.921,4.921,0,0,1,.773.77c.1.12-.073.292-.171.171a4.906,4.906,0,0,0-.773-.771c-.121-.1.05-.266.17-.17" transform="translate(-413.125 915.006)" fill="#f18e7b"/><path d="M1281.37,1204.972a2.892,2.892,0,0,1,1.412-.51c.154-.014.153.227,0,.241a2.645,2.645,0,0,0-1.29.477c-.128.089-.248-.12-.122-.208" transform="translate(-375.395 875.164)" fill="#f18e7b"/><path d="M1250.954,1050.67l-2.457,2.559c-.108.112-.278-.059-.17-.17l2.457-2.559c.108-.112.278.058.171.17" transform="translate(-348.066 1002.599)" fill="#f18e7b"/><path d="M1171.428,1038.635a4.214,4.214,0,0,1-1.965.85c-.152.023-.217-.209-.064-.233a3.983,3.983,0,0,0,1.859-.788c.121-.094.293.076.17.17" transform="translate(-282.709 1012.55)" fill="#f18e7b"/><path d="M1098.772,1013.953a4.559,4.559,0,0,1-2.336,1.378c-.151.036-.215-.2-.064-.233a4.338,4.338,0,0,0,2.229-1.316c.1-.115.275.056.17.17" transform="translate(-222.28 1032.983)" fill="#f18e7b"/><path d="M1382.065,1125.162a2.34,2.34,0,0,0,1.161,1.827c3.149-2.863,4.8-5.416,4.689-5.663l0,0s-.839-1.561-1.933-.789-3.858,3.279-3.922,4.629" transform="translate(-458.764 944.794)" fill="#ffc6b2"/><path d="M1329.179,989.352a7.985,7.985,0,0,0-3.614-1.568c-.153-.025-.088-.257.064-.233a8.12,8.12,0,0,1,3.672,1.592c.121.093,0,.3-.122.208" transform="translate(-411.938 1054.66)" fill="#f18e7b"/><path d="M1331.225,997.663l-1.151-.4c-.146-.051-.083-.284.064-.232l1.151.4c.145.051.083.284-.064.233" transform="translate(-415.674 1046.824)" fill="#f18e7b"/><g transform="translate(906.999 2062.627)"><g clip-path="url(#c)"><path d="M1287.559,1122.539c1.866.516,9.033-6.728,11.76-11.12s8.954-4.959,8.954-4.959a7.534,7.534,0,0,0-4.818-.289c-4.633,1.108-9.4,8.45-9.4,8.45a38.564,38.564,0,0,0-6.5,7.918" transform="translate(-1287.559 -1105.915)" fill="#f07b7e"/></g></g><g transform="translate(1160.983 1754.219)"><g clip-path="url(#d)"><path d="M42.469,66A23.536,23.536,0,1,0,18.932,42.468,23.581,23.581,0,0,0,42.469,66" fill="#ffb500" fill-rule="evenodd"/><path d="M44.867,13.429a2.406,2.406,0,0,1-4.8,0l-1.16-9.216a3.659,3.659,0,0,1-.051-.6,3.609,3.609,0,0,1,7.218,0,3.659,3.659,0,0,1-.051.6Z" fill="#ffb500" fill-rule="evenodd"/><path d="M44.867,71.51a2.406,2.406,0,0,0-4.8,0l-1.16,9.215a3.656,3.656,0,0,0-.051.6,3.609,3.609,0,1,0,7.218,0,3.656,3.656,0,0,0-.051-.6Z" fill="#ffb500" fill-rule="evenodd"/><path d="M59.065,18.519a2.405,2.405,0,0,1-4.152-2.4l3.6-8.562h0a3.609,3.609,0,1,1,6.509,3.06,3.72,3.72,0,0,1-.347.5Z" fill="#ffb500" fill-rule="evenodd"/><path d="M30.025,68.817a2.406,2.406,0,0,0-4.153-2.4l-5.613,7.4a3.665,3.665,0,0,0-.346.5,3.609,3.609,0,1,0,6.509,3.061Z" fill="#ffb500" fill-rule="evenodd"/><path d="M68.817,30.025a2.405,2.405,0,0,1-2.4-4.152l7.4-5.614a3.978,3.978,0,0,1,.5-.346,3.609,3.609,0,0,1,3.609,6.252,3.785,3.785,0,0,1-.548.258Z" fill="#ffb500" fill-rule="evenodd"/><path d="M18.518,59.065a2.405,2.405,0,0,0-2.4-4.152l-8.563,3.6a3.835,3.835,0,0,0-.548.258,3.61,3.61,0,0,0,3.61,6.252,3.831,3.831,0,0,0,.5-.347Z" fill="#ffb500" fill-rule="evenodd"/><path d="M71.509,44.866a2.406,2.406,0,0,1,0-4.8l9.217-1.161h0a3.608,3.608,0,1,1,.6,7.166,3.736,3.736,0,0,1-.6-.05Z" fill="#ffb500" fill-rule="evenodd"/><path d="M13.429,44.866a2.406,2.406,0,0,0,0-4.8L4.212,38.91h0a3.647,3.647,0,0,0-.6-.051,3.608,3.608,0,0,0,0,7.217,3.758,3.758,0,0,0,.6-.05Z" fill="#ffb500" fill-rule="evenodd"/><path d="M66.42,59.065a2.405,2.405,0,0,1,2.4-4.152l8.562,3.6a3.747,3.747,0,0,1,.549.258,3.609,3.609,0,0,1-3.609,6.252,3.785,3.785,0,0,1-.5-.347Z" fill="#ffb500" fill-rule="evenodd"/><path d="M16.121,30.025a2.406,2.406,0,0,0,2.4-4.153l-7.4-5.613h0a3.786,3.786,0,0,0-.5-.346,3.609,3.609,0,1,0-3.608,6.252,3.678,3.678,0,0,0,.547.258Z" fill="#ffb500" fill-rule="evenodd"/><path d="M54.913,68.817a2.405,2.405,0,0,1,4.152-2.4l5.614,7.4a3.757,3.757,0,0,1,.346.5,3.609,3.609,0,1,1-6.509,3.061Z" fill="#ffb500" fill-rule="evenodd"/><path d="M25.873,18.519a2.405,2.405,0,0,0,4.152-2.4l-3.6-8.562a3.8,3.8,0,0,0-.259-.549,3.609,3.609,0,0,0-6.25,3.609,3.714,3.714,0,0,0,.346.5Z" fill="#ffb500" fill-rule="evenodd"/></g></g></g></svg>