<svg xmlns="http://www.w3.org/2000/svg" width="73.367" height="83.998" viewBox="0 0 73.367 83.998"><g transform="translate(-32.4)"><g transform="translate(33.638 1.223)"><path d="M425.053,136.5h-.011l-.488.287v8.449h7.4l.4-.345v-1.082A7.33,7.33,0,0,0,425.053,136.5Z" transform="translate(-361.456 -115.331)" fill="#ffa90f"/><path d="M168.666,8.633l-.523-1.176H132.269a2.71,2.71,0,0,0-2.71,2.71v4.679l1.127.923h30.074l9.874,9.6V37.589h7.027l.782-.57V17.758l-1.219-.539Z" transform="translate(-114.857 -7.457)" fill="#62ddfc"/><g transform="translate(14.702 0)"><path d="M137.966,10.167a2.71,2.71,0,0,1,2.71-2.71h-8.407a2.71,2.71,0,0,0-2.71,2.71v4.679l1.127.923h8.407l-1.127-.923V10.167Z" transform="translate(-129.559 -7.457)" fill="#00d2fc"/></g><path d="M47.265,136.5h-.15a7.191,7.191,0,0,0-7.17,7.17v1.221l.708.2h7.164v-8.126Z" transform="translate(-39.945 -115.331)" fill="#ffa90f"/><path d="M364.741,7.457v7.59a2.71,2.71,0,0,0,2.71,2.71h7.59Z" transform="translate(-311.456 -7.457)" fill="#00d2fc"/><path d="M123.779,54.05l-.632-1.552H87.274a2.71,2.71,0,0,0-2.71,2.71V74.671l1.063,1.063h44.9l2.919-1.063V62.8l-1.521-.709Z" transform="translate(-77.244 -45.109)" fill="#dbedff"/><path d="M92.971,55.207a2.71,2.71,0,0,1,2.71-2.71H87.275a2.71,2.71,0,0,0-2.71,2.71V74.67l1.063,1.063h8.407L92.971,74.67Z" transform="translate(-77.245 -45.108)" fill="#b5dcff"/><path d="M319.746,52.5v7.59a2.71,2.71,0,0,0,2.71,2.71h7.59Z" transform="translate(-273.842 -45.109)" fill="#b5dcff"/><path d="M369.171,15.047V11.887l-4.43-4.43v7.59a2.71,2.71,0,0,0,2.71,2.71h4.43A2.71,2.71,0,0,1,369.171,15.047Z" transform="translate(-311.456 -7.457)" fill="#00c2fb"/><path d="M324.176,60.088V56.928l-4.43-4.43v7.59a2.71,2.71,0,0,0,2.71,2.71h4.43A2.711,2.711,0,0,1,324.176,60.088Z" transform="translate(-273.842 -45.109)" fill="#8bcaff"/><path d="M110.851,187.649H39.945v49.8a2.179,2.179,0,0,0,2.179,2.179h66.548a2.179,2.179,0,0,0,2.179-2.179Z" transform="translate(-39.945 -158.087)" fill="#ffd086"/><path d="M50.4,237.445v-49.8H39.945v49.8a2.179,2.179,0,0,0,2.179,2.179h10.45A2.179,2.179,0,0,1,50.4,237.445Z" transform="translate(-39.945 -158.087)" fill="#ffc365"/><path d="M283.552,320H257.44a1.4,1.4,0,0,0-1.395,1.394V341.95a1.4,1.4,0,0,0,1.395,1.395h26.111a1.4,1.4,0,0,0,1.395-1.395V321.4A1.394,1.394,0,0,0,283.552,320Z" transform="translate(-220.593 -268.727)" fill="#dbedff"/><path d="M262.6,341.95V321.4A1.4,1.4,0,0,1,263.993,320H257.44a1.4,1.4,0,0,0-1.395,1.394V341.95a1.4,1.4,0,0,0,1.395,1.395h6.553A1.394,1.394,0,0,1,262.6,341.95Z" transform="translate(-220.593 -268.727)" fill="#b5dcff"/></g><g transform="translate(32.4 0)"><path d="M39.72,21.243a8.412,8.412,0,0,0-7.32,8.329V80.589A3.413,3.413,0,0,0,35.809,84h66.548a3.413,3.413,0,0,0,3.409-3.409V58.318a1.23,1.23,0,1,0-2.461,0V80.589a.95.95,0,0,1-.949.949H35.809a.95.95,0,0,1-.948-.949V32.023h68.445V52.576a1.23,1.23,0,0,0,2.461,0V29.71a8.551,8.551,0,0,0-7.32-8.451V11.531a1.236,1.236,0,0,0-.36-.87L87.786.36a1.242,1.242,0,0,0-.87-.36H51.043A3.945,3.945,0,0,0,47.1,3.941V7.389H43.661A3.945,3.945,0,0,0,39.72,11.33Zm0,8.319H34.861A5.95,5.95,0,0,1,39.72,23.73Zm58.727-5.807a6.089,6.089,0,0,1,4.858,5.807H98.447ZM88.146,4.2l6.1,6.1h-4.62a1.482,1.482,0,0,1-1.48-1.48Zm-38.583-.26a1.482,1.482,0,0,1,1.48-1.48H85.685v6.36a3.945,3.945,0,0,0,3.941,3.941h6.36v16.8H91.065V18.92a1.236,1.236,0,0,0-.36-.87L80.4,7.75a1.245,1.245,0,0,0-.87-.36H49.563Zm37.3,13.749h-4.62a1.482,1.482,0,0,1-1.48-1.48V11.59ZM42.181,11.33a1.482,1.482,0,0,1,1.48-1.48H78.3v6.36a3.945,3.945,0,0,0,3.941,3.941H88.6v9.411H42.181Z" transform="translate(-32.4 0)"/><path d="M302.2,425.126h-17.39a1.23,1.23,0,1,0,0,2.461H302.2a1.23,1.23,0,0,0,0-2.461Z" transform="translate(-242.373 -355.381)"/><path d="M302.2,397.5h-17.39a1.23,1.23,0,1,0,0,2.461H302.2a1.23,1.23,0,0,0,0-2.461Z" transform="translate(-242.373 -332.286)"/><path d="M302.2,369.873h-17.39a1.23,1.23,0,1,0,0,2.461H302.2a1.23,1.23,0,0,0,0-2.461Z" transform="translate(-242.373 -309.192)"/><path d="M302.2,342.246h-17.39a1.23,1.23,0,1,0,0,2.461H302.2a1.23,1.23,0,0,0,0-2.461Z" transform="translate(-242.373 -286.098)"/><path d="M153.669,149.617H119.82a1.23,1.23,0,0,0,0,2.461h33.848a1.23,1.23,0,0,0,0-2.461Z" transform="translate(-104.45 -125.071)"/><path d="M119.819,124.452h28.489a1.23,1.23,0,1,0,0-2.461H119.819a1.23,1.23,0,0,0,0,2.461Z" transform="translate(-104.449 -101.977)"/><path d="M261.31,312.545H251.125a2.628,2.628,0,0,0-2.625,2.625v20.553a2.628,2.628,0,0,0,2.625,2.625h26.111a2.628,2.628,0,0,0,2.625-2.625V315.17a2.628,2.628,0,0,0-2.625-2.625H267.052a1.23,1.23,0,1,0,0,2.461h10.185a.164.164,0,0,1,.164.164v20.553a.164.164,0,0,1-.164.164H251.125a.164.164,0,0,1-.164-.164V315.17a.164.164,0,0,1,.164-.164H261.31a1.23,1.23,0,0,0,0-2.461Z" transform="translate(-213.047 -261.27)"/></g></g></svg>