<svg xmlns="http://www.w3.org/2000/svg" width="122" height="122" viewBox="0 0 122 122"><g transform="translate(-444 10466)"><circle cx="61" cy="61" r="61" transform="translate(444 -10466)" fill="#fff" opacity="0.5"/><g transform="translate(441.783 -10459.816)"><g transform="translate(36.756 1.606)"><path d="M185.575,7.5h-68.19a1.071,1.071,0,0,0-1.071,1.071V38.255h7.022a5.247,5.247,0,0,1,.366,10.482v6.51h0a2.14,2.14,0,0,1,1.816,2.114V70.652a2.14,2.14,0,0,1-1.816,2.114h0v6.51a5.247,5.247,0,0,1-.366,10.482h-7.022v8.787h14.777a2.141,2.141,0,0,1,2.141,2.141v4.261s0,0,0,.006h1.631a2.141,2.141,0,0,1,2.141,2.141v6.829h49.64V8.571A1.071,1.071,0,0,0,185.575,7.5Z" transform="translate(-116.315 -7.5)" fill="#fff3de"/></g><g transform="translate(36.756 1.606)"><path d="M123.337,38.255c.064,0,.127,0,.191,0V8.571A1.071,1.071,0,0,1,124.6,7.5h-7.213a1.071,1.071,0,0,0-1.071,1.071V38.255Z" transform="translate(-116.315 -7.5)" fill="#ffe5c2"/><path d="M123.337,391.632h-7.022v8.787h7.213v-8.792C123.464,391.629,123.4,391.632,123.337,391.632Z" transform="translate(-116.315 -309.374)" fill="#ffe5c2"/></g><g transform="translate(16.684 32.361)"><g transform="translate(29.275 22.09)"><path d="M159.3,254.29h9.912v7.323H159.3Z" transform="translate(-159.296 -254.29)" fill="#883f2e"/><path d="M237.5,254.29h14.157v7.323H237.5Z" transform="translate(-220.756 -254.29)" fill="#883f2e"/></g><g transform="translate(29.275 25.882)"><path d="M159.3,272h9.912v3.53H159.3Z" transform="translate(-159.296 -272)" fill="#6d3326"/><path d="M237.5,272h14.157v3.53H237.5Z" transform="translate(-220.756 -272)" fill="#6d3326"/></g><g transform="translate(60.178 20.381)"><path d="M343.4,251.68a5.37,5.37,0,0,1-5.37,5.37h-33.2a1.221,1.221,0,0,1-1.221-1.221v-8.3a1.221,1.221,0,0,1,1.221-1.221h33.2A5.37,5.37,0,0,1,343.4,251.68Z" transform="translate(-303.616 -246.31)" fill="#ca6e59"/></g><g transform="translate(60.178 20.381)"><path d="M310.914,252.453a1.22,1.22,0,0,1-1.22-1.221V246.31h-4.857a1.221,1.221,0,0,0-1.221,1.221v8.3a1.221,1.221,0,0,0,1.221,1.221h33.2a5.37,5.37,0,0,0,5.314-4.6Z" transform="translate(-303.616 -246.31)" fill="#bb5d4c"/></g><g transform="translate(39.187 20.381)"><path d="M212.419,247.382v8.6a1.071,1.071,0,0,1-1.071,1.071h-4.693a1.071,1.071,0,0,1-1.071-1.071v-8.6a1.071,1.071,0,0,1,1.071-1.071h4.693A1.07,1.07,0,0,1,212.419,247.382Z" transform="translate(-205.585 -246.311)" fill="#ca6e59"/></g><g transform="translate(39.187 20.381)"><path d="M208.689,255.98v-8.6a1.071,1.071,0,0,1,1.071-1.071h-3.1a1.071,1.071,0,0,0-1.071,1.071v8.6a1.071,1.071,0,0,0,1.071,1.071h3.1A1.071,1.071,0,0,1,208.689,255.98Z" transform="translate(-205.585 -246.311)" fill="#bb5d4c"/></g><g transform="translate(13.303 10.482)"><path d="M98.534,312.324H85.029a2.153,2.153,0,0,1-.326-.027v6.51c.121-.008.243-.014.366-.014H98.494c.123,0,.245.006.366.014V312.3A2.126,2.126,0,0,1,98.534,312.324Z" transform="translate(-84.703 -288.268)" fill="#883f2e"/><path d="M85.029,312.324a2.153,2.153,0,0,1-.326-.027v6.51c.121-.008.243-.014.366-.014H90.1v-6.468H85.029Z" transform="translate(-84.703 -288.268)" fill="#6d3326"/><path d="M85.029,206.561H98.534a2.151,2.151,0,0,1,.326.027v-6.51c-.121.008-.243.014-.366.014H85.069c-.123,0-.245-.006-.366-.014v6.51a2.151,2.151,0,0,1,.326-.027Z" transform="translate(-84.703 -200.079)" fill="#883f2e"/><path d="M85.029,206.561H90.1v-6.468H85.069c-.123,0-.245-.006-.366-.014v6.51A2.181,2.181,0,0,1,85.029,206.561Z" transform="translate(-84.703 -200.078)" fill="#6d3326"/></g><g transform="translate(11.487 16.964)"><path d="M94.013,232.493v13.292a2.141,2.141,0,0,1-2.141,2.141H78.366a2.141,2.141,0,0,1-2.141-2.141V232.493a2.141,2.141,0,0,1,2.141-2.141H91.872a2.141,2.141,0,0,1,2.141,2.141Z" transform="translate(-76.225 -230.352)" fill="#ca6e59"/></g><g transform="translate(11.487 16.964)"><path d="M83.457,245.785V232.493a2.141,2.141,0,0,1,2.141-2.141H78.366a2.141,2.141,0,0,0-2.141,2.141v13.292a2.141,2.141,0,0,0,2.141,2.141H85.6A2.141,2.141,0,0,1,83.457,245.785Z" transform="translate(-76.225 -230.352)" fill="#bb5d4c"/></g><g transform="translate(0 60.289)"><path d="M73.4,439.306a2.191,2.191,0,0,0,.011-.22v-4.26a2.141,2.141,0,0,0-2.141-2.141H42.336a2.141,2.141,0,0,0-2.141,2.141v4.26a2.19,2.19,0,0,0,.011.22Z" transform="translate(-36.423 -432.685)" fill="#ca6e59"/><path d="M47.445,439.306a2.191,2.191,0,0,1-.011-.22v-4.26a2.141,2.141,0,0,1,2.141-2.141H42.336a2.141,2.141,0,0,0-2.141,2.141v4.26a2.19,2.19,0,0,0,.011.22Z" transform="translate(-36.423 -432.685)" fill="#bb5d4c"/><g transform="translate(0 6.407)"><path d="M63.341,471.578H23.649a1.071,1.071,0,0,1-1.071-1.071v-5.758a2.141,2.141,0,0,1,2.141-2.141H61.2a2.141,2.141,0,0,1,2.141,2.141Z" transform="translate(-22.578 -462.608)" fill="#883f2e"/></g><g transform="translate(0 6.407)"><path d="M29.735,470.508v-5.758a2.141,2.141,0,0,1,2.141-2.141H24.719a2.141,2.141,0,0,0-2.141,2.141v5.758a1.071,1.071,0,0,0,1.071,1.071h7.157A1.071,1.071,0,0,1,29.735,470.508Z" transform="translate(-22.578 -462.608)" fill="#6d3326"/></g></g><g transform="translate(8.421)"><g transform="translate(0 41.007)"><path d="M85.826,347.881a5.248,5.248,0,0,1-5.248,5.248H67.153a5.248,5.248,0,0,1,0-10.5H80.578A5.248,5.248,0,0,1,85.826,347.881Z" transform="translate(-61.905 -342.633)" fill="#ca6e59"/></g><g transform="translate(0 41.007)"><path d="M69.053,347.881a5.248,5.248,0,0,1,5.248-5.248H67.153a5.248,5.248,0,1,0,0,10.5H74.3A5.248,5.248,0,0,1,69.053,347.881Z" transform="translate(-61.905 -342.633)" fill="#bb5d4c"/></g><g transform="translate(0)"><path d="M85.826,156.376a5.248,5.248,0,0,1-5.248,5.248H67.153a5.248,5.248,0,0,1,0-10.5H80.578A5.248,5.248,0,0,1,85.826,156.376Z" transform="translate(-61.905 -151.128)" fill="#ca6e59"/></g><path d="M69.053,156.376a5.248,5.248,0,0,1,5.248-5.248H67.153a5.248,5.248,0,1,0,0,10.5H74.3A5.248,5.248,0,0,1,69.053,156.376Z" transform="translate(-61.905 -151.128)" fill="#bb5d4c"/></g></g><g transform="translate(56.896 11.586)"><circle cx="15.025" cy="15.025" r="15.025" fill="#4fc123"/><g transform="translate(0)"><path d="M217.573,69.132A15.029,15.029,0,0,1,229,54.544a15.025,15.025,0,1,0,0,29.176A15.029,15.029,0,0,1,217.573,69.132Z" transform="translate(-210.372 -54.107)" fill="#47a920"/></g></g><g transform="translate(15.078 0)"><path d="M111.279,51.136h-2.586V23.34a1.606,1.606,0,0,0-1.655-1.605,1.651,1.651,0,0,0-1.557,1.673V51.136H94.717a1.606,1.606,0,0,0,0,3.212h16.562a3.764,3.764,0,1,1,0,7.528H78.468V54.348h8.754a1.606,1.606,0,0,0,0-3.212h-9.14a2.83,2.83,0,0,0-2.595,1.709H64.127a2.679,2.679,0,0,0-2.493-1.709H56.942a2.679,2.679,0,0,0-2.493,1.709H47.565V51.466a3.745,3.745,0,0,0-1.816-3.2V44.172a6.854,6.854,0,0,0-1.972-13.417H38.361V3.212h67.119V15.846a1.606,1.606,0,0,0,1.655,1.605,1.651,1.651,0,0,0,1.557-1.673V2.677A2.676,2.676,0,0,0,106.016,0H37.826A2.676,2.676,0,0,0,35.15,2.677V30.755h-4.8a6.853,6.853,0,0,0-1.972,13.417v4.089a3.745,3.745,0,0,0-1.816,3.2V64.758a3.745,3.745,0,0,0,1.816,3.2v4.089a6.854,6.854,0,0,0,1.972,13.417h4.8v5.575H22.6a3.752,3.752,0,0,0-3.747,3.747v2.66h-.025a3.752,3.752,0,0,0-3.747,3.747v5.758a2.68,2.68,0,0,0,2.677,2.677h88.261a2.676,2.676,0,0,0,2.677-2.677V65.088h2.586a6.976,6.976,0,0,0,0-13.952Zm-46.967,4.92H75.256v4.111H64.311Zm-6.834-1.709H61.1v7.528H57.477Zm-9.912,1.709h6.7v4.111h-6.7ZM26.711,37.609a3.646,3.646,0,0,1,3.642-3.642H43.778a3.642,3.642,0,1,1,0,7.284H30.353a3.646,3.646,0,0,1-3.642-3.642Zm3.6,27.684a.536.536,0,0,1-.535-.535V51.466a.536.536,0,0,1,.535-.535H43.818a.536.536,0,0,1,.535.535V64.758a.536.536,0,0,1-.535.535Zm12.225,3.212v3.256H31.593V68.505ZM31.593,47.719V44.463H42.538v3.256Zm-1.24,34.538a3.642,3.642,0,0,1,0-7.284H43.778a3.642,3.642,0,0,1,0,7.284Zm25.488,24.165H18.29V101.2a.536.536,0,0,1,.535-.535h9.94a1.606,1.606,0,1,0,0-3.212h-6.7v-2.66a.536.536,0,0,1,.535-.535H51.533a.536.536,0,0,1,.535.535v2.66H36.26a1.606,1.606,0,1,0,0,3.212H55.305a.536.536,0,0,1,.535.535Zm49.64,0H59.053V101.2a3.752,3.752,0,0,0-3.747-3.747H55.28v-2.66a3.752,3.752,0,0,0-3.747-3.747H38.361V85.469h5.416A6.854,6.854,0,0,0,45.75,72.052V67.963a3.745,3.745,0,0,0,1.816-3.2V63.379h6.884a2.679,2.679,0,0,0,2.493,1.709h4.693a2.679,2.679,0,0,0,2.493-1.709H75.488a2.83,2.83,0,0,0,2.595,1.709h27.4v41.334Z" transform="translate(-15.078 0)"/><path d="M202.872,63.238A16.631,16.631,0,1,0,219.5,46.607a16.65,16.65,0,0,0-16.631,16.631Zm30.05,0A13.419,13.419,0,1,1,219.5,49.819a13.434,13.434,0,0,1,13.419,13.419Z" transform="translate(-162.66 -36.627)"/><path d="M249.085,104.347a1.606,1.606,0,0,0-2.271,2.271l4.94,4.94a1.606,1.606,0,0,0,2.271,0l7.657-7.657a1.606,1.606,0,0,0-2.271-2.271l-6.521,6.521Z" transform="translate(-196.823 -79.498)"/><path d="M243.681,328.675a1.606,1.606,0,0,0,1.606,1.606h29.535a1.606,1.606,0,0,0,0-3.212H245.287A1.606,1.606,0,0,0,243.681,328.675Z" transform="translate(-194.731 -257.034)"/><path d="M327.333,363.546H312.106a1.606,1.606,0,0,0,0,3.212h15.227a1.606,1.606,0,0,0,0-3.212Z" transform="translate(-247.242 -285.7)"/><path d="M245.287,366.758h8.741a1.606,1.606,0,1,0,0-3.212h-8.741a1.606,1.606,0,1,0,0,3.212Z" transform="translate(-194.731 -285.7)"/><path d="M274.821,400.023H245.286a1.606,1.606,0,1,0,0,3.212h29.535a1.606,1.606,0,1,0,0-3.212Z" transform="translate(-194.73 -314.367)"/><path d="M354.838,436.5h-7.732a1.606,1.606,0,1,0,0,3.212h7.732a1.606,1.606,0,0,0,0-3.212Z" transform="translate(-274.747 -343.033)"/><path d="M262.164,436.5H245.287a1.606,1.606,0,1,0,0,3.212h16.877a1.606,1.606,0,1,0,0-3.212Z" transform="translate(-194.731 -343.033)"/></g></g></g></svg>