<svg xmlns="http://www.w3.org/2000/svg" width="122" height="122" viewBox="0 0 122 122"><g transform="translate(-444 9553)"><circle cx="61" cy="61" r="61" transform="translate(444 -9553)" fill="#fff" opacity="0.5"/><g transform="translate(448.327 -9551)"><g transform="translate(2.301 2.298)"><path d="M103.313,109.285,103.138,17.4A9.2,9.2,0,0,0,94.12,10H16.9A6.894,6.894,0,0,0,10,16.895V28.386h13.79V116.18a6.894,6.894,0,0,0,6.895,6.895h79.52a6.894,6.894,0,0,0,6.895-6.895v-6.895Z" transform="translate(-10.003 -10)" fill="#eefaff"/><path d="M296.714,43.687c-6-1.729-16.7-2.681-26.046-1.02a42.674,42.674,0,0,0-18.025,7.5c-22.66,16.751-16.354,58.137-16.449,58.493a132.5,132.5,0,0,0,22.22-14.713l-4.445-8.887H268.16a117.791,117.791,0,0,0,8.791-10.241,195.084,195.084,0,0,0,19.765-31.128Z" transform="translate(-183.641 -34.494)" fill="#ffda8f"/><ellipse cx="11.5" cy="11" rx="11.5" ry="11" transform="translate(24.04 14.035)" fill="#ff7b79"/></g><g transform="translate(0.003 0)"><path d="M2.3,22.983H13.793v85.5a9.2,9.2,0,0,0,9.193,9.193h37a2.3,2.3,0,1,0,0-4.6H30.942a9.134,9.134,0,0,0,1.237-4.6v-4.6H107.1v4.6a4.6,4.6,0,0,1-4.6,4.6H80.672a2.3,2.3,0,1,0,0,4.6h21.834a9.2,9.2,0,0,0,9.193-9.193v-6.895a2.3,2.3,0,0,0-2.3-2.3H97.909V43.405a195.3,195.3,0,0,0,19.536-30.913,2.3,2.3,0,0,0-1.492-3.225l-.018,0a67.472,67.472,0,0,0-18.8-1.919A11.526,11.526,0,0,0,86.418,0H9.2A9.2,9.2,0,0,0,0,9.193V20.684a2.3,2.3,0,0,0,2.3,2.3Zm86.964,23.79c-1.081,1.268-2.23,2.539-3.423,3.79H72.628a2.3,2.3,0,0,0-2.056,3.326l3.615,7.229A138.2,138.2,0,0,1,57.6,72.349a66.94,66.94,0,0,1,12.842-30.98H86.677a2.3,2.3,0,1,0,0-4.6H74.188a71.4,71.4,0,0,1,9.884-9.193H96.33a2.3,2.3,0,0,0,0-4.6H90.816A71.607,71.607,0,0,1,111.109,14.7,193.286,193.286,0,0,1,89.266,46.772ZM56.633,57.265C57.321,46.066,60.04,32.4,68.3,23.659L66.487,38.8c-.008.067-.011.134-.013.2a72.594,72.594,0,0,0-9.841,18.267ZM71.874,32.487l1.589-13.24a38.926,38.926,0,0,1,11.766-5.479L80.258,24.3a2.293,2.293,0,0,0-.182.571,76,76,0,0,0-8.2,7.616Zm27.7-20.594c1.444,0,2.827.05,4.13.134a76.461,76.461,0,0,0-16.14,7.558l3.323-7.04a56.256,56.256,0,0,1,8.686-.651ZM86.418,4.6a6.915,6.915,0,0,1,5.776,3.13C82.5,8.88,73.552,12.408,66.466,19c-9.5,8.846-13.211,22.866-14.283,35.867a110.312,110.312,0,0,0,.361,21.663L52.1,82.738H25.284a2.3,2.3,0,1,0,0,4.6H63.435a2.3,2.3,0,1,0,0-4.6H56.71l.344-4.828A137.979,137.979,0,0,0,78.525,63.529a2.3,2.3,0,0,0,.6-2.81l-2.781-5.561H86.82a2.3,2.3,0,0,0,1.647-.695c1.5-1.544,2.949-3.128,4.3-4.709.183-.215.366-.435.549-.652V99.285H29.88a2.3,2.3,0,0,0-2.3,2.3v6.895a4.6,4.6,0,1,1-9.193,0V9.193a9.134,9.134,0,0,0-1.237-4.6ZM4.6,9.193a4.6,4.6,0,0,1,9.193,0v9.193H4.6Z" transform="translate(-0.003 0)"/><path d="M102.3,324.6h19.765a2.3,2.3,0,1,0,0-4.6H102.3a2.3,2.3,0,1,0,0,4.6Z" transform="translate(-77.02 -246.455)"/><path d="M116.793,87.579A13.79,13.79,0,1,0,103,73.79,13.805,13.805,0,0,0,116.793,87.579Zm0-22.983A9.193,9.193,0,1,1,107.6,73.79,9.2,9.2,0,0,1,116.793,64.6Z" transform="translate(-79.331 -46.21)"/><circle cx="2" cy="2" r="2" transform="translate(68.338 113.333)"/></g></g></g></svg>