<svg xmlns="http://www.w3.org/2000/svg" width="145.12" height="71.84" viewBox="0 0 145.12 71.84"><g transform="translate(0 26.609)"><g transform="translate(0.587 12.928)"><path d="M759.185,480.846,686.615,464.9,626.174,476.08l93.356,21.127Z" transform="translate(-626.174 -464.904)" fill="#bcbec0"/></g><g transform="translate(0 9.107)"><path d="M758.88,478.855l-72.57-15.943-60.441,11.178,93.356,21.127Z" transform="translate(-625.869 -462.913)" fill="#e6e7e8"/></g><g transform="translate(1.186 3.998)"><path d="M759.5,476.194l-72.57-15.945-60.441,11.178,93.356,21.127Z" transform="translate(-626.487 -460.25)" fill="#bcbec0"/></g><g transform="translate(4.928)"><path d="M761.448,474.11l-72.571-15.944-60.441,11.178,93.356,21.127Z" transform="translate(-628.437 -458.166)" fill="#e6e7e8"/></g></g><g transform="translate(2.449 6.455)"><g transform="translate(0 17.097)"><path d="M760.156,472.516l-72.57-15.945L627.145,467.75,720.5,488.877Z" transform="translate(-627.145 -456.572)" fill="#bcbec0"/></g><g transform="translate(3.79 12.819)"><path d="M762.132,470.285l-72.57-15.943L629.121,465.52l93.356,21.127Z" transform="translate(-629.121 -454.342)" fill="#e6e7e8"/></g><g transform="translate(4.976 7.712)"><path d="M762.75,467.623,690.18,451.68l-60.441,11.176,93.356,21.127Z" transform="translate(-629.739 -451.68)" fill="#bcbec0"/></g><g transform="translate(8.718 3.713)"><path d="M764.7,465.539,692.13,449.6l-60.441,11.176L725.045,481.9Z" transform="translate(-631.689 -449.596)" fill="#e6e7e8"/></g><g transform="translate(9.66)"><path d="M765.191,463.6l-72.57-15.943L632.18,458.839l93.356,21.127Z" transform="translate(-632.18 -447.661)" fill="#bcbec0"/><g transform="translate(19.068 2.636)"><path d="M717.756,468.529l-70.037-15.72-5.6,1.113,71.615,16.119Z" transform="translate(-642.119 -445.568)" fill="#a7a9ac"/><path d="M719.983,466.732l-67.128-14.989-5.119,1.017,68.576,15.352Z" transform="translate(-636.958 -446.547)" fill="#a7a9ac"/><path d="M722.026,465.087l-64.45-14.322-4.7.933,65.786,14.653Z" transform="translate(-632.237 -447.445)" fill="#a7a9ac"/><path d="M723.9,463.579l-61.979-13.713-4.326.86,63.212,14.017Z" transform="translate(-627.9 -448.271)" fill="#a7a9ac"/><path d="M725.635,462.188l-59.689-13.153-4,.794,60.83,13.432Z" transform="translate(-623.902 -449.035)" fill="#a7a9ac"/></g></g></g><g transform="translate(2.818 2.05)"><path d="M627.337,455.057l58.335,13.2L671,446.982Z" transform="translate(-627.337 -443.88)" fill="#e2e4e8"/><path d="M678.357,446.932c-6.562,4.23-15.314,3.453-22.282-.526l-5.978,1.105,14.671,21.277,35.022,7.926,39.655-16.363Z" transform="translate(-606.432 -444.409)" fill="#d2d3d7"/><path d="M675.494,447.888l-11.484-2.523-10.8,2C660.18,451.341,668.933,452.118,675.494,447.888Z" transform="translate(-603.57 -445.365)" fill="#e2e4e8"/><g transform="translate(19.068 2.636)"><path d="M692.8,464.736l4.023-1.512-42.036-9.436,1.952,2.831Z" transform="translate(-621.188 -440.263)" fill="#bdbec3"/><path d="M670.877,456.8l-28-6.284-5.6,1.111,35.554,8Z" transform="translate(-637.276 -443.272)" fill="#cdcfd4"/><path d="M705.923,462.925,652.93,451.091l1.771,2.569,47.55,10.644Z" transform="translate(-622.896 -442.741)" fill="#bdbec3"/><path d="M648.013,449.447l-5.119,1.017,21.026,4.706-1.771-2.569Z" transform="translate(-632.115 -444.251)" fill="#cdcfd4"/><path d="M652.733,448.469l-4.7.933,7.761,1.729-1.613-2.34Z" transform="translate(-627.394 -445.149)" fill="#cdcfd4"/><path d="M714.24,462.637l-63-14,1.613,2.34L710.876,463.9Z" transform="translate(-624.451 -444.995)" fill="#bdbec3"/><path d="M657.081,447.57l-4.326.858,63.212,14.016,3.093-1.162Z" transform="translate(-623.057 -445.975)" fill="#bdbec3"/><path d="M661.1,446.739l-4,.794,60.832,13.432,2.854-1.073Z" transform="translate(-619.06 -446.739)" fill="#bdbec3"/></g></g><g transform="translate(39.818)"><path d="M687.994,450.5l-.255,2a1.419,1.419,0,0,1-1.6,1.2l-2.009-.259.434-3.379Z" transform="translate(-612.171 -439.001)" fill="#9ba6b1"/><path d="M686.743,448.763a1.418,1.418,0,0,1,1.249,1.565l-.205,1.6-3.432-.441.382-2.983Z" transform="translate(-611.963 -440.43)" fill="#bcbec0"/><path d="M651.521,447.7l-.285-.037.011-.1Z" transform="translate(-642.385 -441.297)" fill="#ea5f21"/><path d="M651.95,444.332l-.3.058.011-.094Z" transform="translate(-642.001 -444.296)" fill="#f9773d"/><path d="M706.77,452.905l4.99.639-.431,3.378-3.566-.457-56.379-7.215.433-3.38Z" transform="translate(-642.249 -442.851)" fill="#ea5f21"/><path d="M708.369,451.532l3.566.455-.382,2.985-4.99-.639L651.61,447.3l.38-2.983Z" transform="translate(-642.041 -444.279)" fill="#f9773d"/><path d="M685.506,448.6l.609.079-.382,2.983-.609-.077-2.271-.29.382-2.985Z" transform="translate(-613.342 -440.606)" fill="#20b7ea"/><path d="M685.33,450.16l.609.077-.433,3.378-.609-.077-2.269-.29.431-3.378Z" transform="translate(-613.549 -439.177)" fill="#07a6db"/><path d="M652.762,445.979l-.287,2.237-5.853-2.822.616-.122Z" transform="translate(-646.622 -443.399)" fill="#42454c"/><path d="M652.467,446.522l-5.523-.706,5.76-1.133Z" transform="translate(-646.327 -443.942)" fill="#58595b"/><path d="M653.1,446.044l.285.036-.433,3.38-.273-.133-3.009-1.448.287-2.237Z" transform="translate(-643.82 -443.061)" fill="#e8cb37"/><path d="M653.336,444.373l.3-.058-.38,2.983-.285-.036-3.144-.4.236-1.84Z" transform="translate(-643.683 -444.279)" fill="#f7dc54"/></g><g transform="translate(54.484 9.387)"><path d="M656.033,453.363c1.188.322,3.039.825,6.329,1.711q.245-2.2.491-4.407c-3.4.138-5.32.217-6.55.271Z" transform="translate(-652.645 -447.831)" fill="#20b7ea"/><path d="M690.076,452.974l6.73.755-4.274,7.738-4.86-.543Z" transform="translate(-623.582 -445.712)" fill="#20b7ea"/><path d="M678.685,460.252l.954-8.511c-.85-.071-1.684-.136-2.519-.2l-.934,8.352C677.012,460.014,677.843,460.133,678.685,460.252Z" transform="translate(-634.134 -447.029)" fill="#414042"/><path d="M689.653,452.23c-8.76-.61-17.34-.948-29.924-1.688q-.273,2.415-.541,4.831c12.434,2.061,20.88,3.632,29.556,4.973Z" transform="translate(-649.747 -447.946)" fill="#58595b"/><path d="M703.366,457.08a2.783,2.783,0,0,0-.977-2.774c-1.573-1.521-4.746-2.446-9.428-2.753-9.366-.769-21.006-2.348-21.121-2.364,0,0,1.464,3.977,6.456,2.813,3.294.374,17.309,2.465,17.448,2.486a3.413,3.413,0,0,1,1.554.689c.274.269.574.729-.027,1.658-.495.766-.328,1.188-.1,1.406.906.875,4.818-.507,6-.95l.151-.058Z" transform="translate(-638.125 -449.189)" fill="#58595b"/><path d="M677.647,460l.934-8.352c-1.034-.079-2.057-.154-3.079-.226l-.909,8.116C675.608,459.695,676.621,459.848,677.647,460Z" transform="translate(-635.596 -447.138)" fill="#20b7ea"/><path d="M699.047,462.59q.481-4.274.959-8.551c-8.612-1.147-15.341-1.871-21.565-2.394l-.954,8.511C683.673,461.023,690.394,461.806,699.047,462.59Z" transform="translate(-632.937 -446.933)" fill="#58595b"/><path d="M657.926,450.808a8.071,8.071,0,0,0-1.533.129,8.342,8.342,0,0,0-2.126.689,10.394,10.394,0,0,0,1.725,1,10.279,10.279,0,0,0,1.663.6Z" transform="translate(-654.267 -447.702)" fill="#414042"/></g></svg>