<svg xmlns="http://www.w3.org/2000/svg" width="306" height="302.988" viewBox="0 0 306 302.988"><g transform="translate(-169 -7908.989)"><g transform="translate(112.508 7839.565)"><g transform="translate(206.071 69.424)"><path d="M0,148.979a2,2,0,0,1-2-2V0A2,2,0,0,1,0-2,2,2,0,0,1,2,0V146.979A2,2,0,0,1,0,148.979Z" transform="translate(78.211 131.374)" fill="#521d12"/><rect width="42.503" height="9.436" transform="translate(56.958 279.532)" fill="#9d9d9d"/><path d="M0-2H42.5a2,2,0,0,1,2,2V9.436a2,2,0,0,1-2,2H0a2,2,0,0,1-2-2V0A2,2,0,0,1,0-2ZM40.5,2H2V7.436H40.5Z" transform="translate(56.958 279.532)" fill="#521d12"/><rect width="63.746" height="9.447" transform="translate(46.334 288.968)" fill="#9d9d9d"/><path d="M0-2H63.746a2,2,0,0,1,2,2V9.447a2,2,0,0,1-2,2H0a2,2,0,0,1-2-2V0A2,2,0,0,1,0-2ZM61.746,2H2V7.447H61.746Z" transform="translate(46.334 288.968)" fill="#521d12"/><path d="M250.42,204.025a1.955,1.955,0,0,1-1.7-.979L211.579,138.7a1.954,1.954,0,0,1,0-1.958L248.724,72.4a1.957,1.957,0,0,1,1.7-.979h74.3a1.956,1.956,0,0,1,1.7.979l37.15,64.344a1.954,1.954,0,0,1,0,1.958l-37.15,64.342a1.954,1.954,0,0,1-1.7.979Z" transform="translate(-209.359 -69.466)" fill="#db0050"/><path d="M324.672,73.339l37.15,64.344-37.15,64.342h-74.3l-37.145-64.342,37.145-64.344h74.3m0-3.915h-74.3a3.915,3.915,0,0,0-3.39,1.958l-37.146,64.344a3.918,3.918,0,0,0,0,3.915l37.146,64.342a3.915,3.915,0,0,0,3.39,1.958h74.3a3.914,3.914,0,0,0,3.39-1.958l37.15-64.342a3.913,3.913,0,0,0,0-3.915l-37.15-64.344a3.914,3.914,0,0,0-3.39-1.958Z" transform="translate(-209.317 -69.424)" fill="#521d12"/><path d="M325.331,73.424H312.852a68.711,68.711,0,0,1,15.876,43.708c0,37.766-31.519,69.272-69.264,69.272a67.644,67.644,0,0,1-19.1-2.759l10.67,18.465h74.3l37.15-64.342Z" transform="translate(-209.976 -69.509)" fill="#a0003c"/><g transform="translate(11.862 10.283)"><path d="M256.608,193.969a1.954,1.954,0,0,1-1.7-.979L223.7,138.927a1.959,1.959,0,0,1,0-1.958l31.215-54.061a1.956,1.956,0,0,1,1.7-.979h62.434a1.959,1.959,0,0,1,1.7.979l31.215,54.061a1.954,1.954,0,0,1,0,1.958L320.738,192.99a1.957,1.957,0,0,1-1.7.979Z" transform="translate(-221.478 -79.972)" fill="#db0050"/><path d="M319,83.845l31.215,54.061L319,191.969H256.566l-31.215-54.063,31.215-54.061H319m0-3.915H256.566a3.912,3.912,0,0,0-3.39,1.958l-31.215,54.061a3.913,3.913,0,0,0,0,3.915l31.215,54.063a3.912,3.912,0,0,0,3.39,1.958H319a3.915,3.915,0,0,0,3.39-1.958l31.215-54.063a3.913,3.913,0,0,0,0-3.915L322.391,81.888A3.915,3.915,0,0,0,319,79.93Z" transform="translate(-221.436 -79.93)" fill="#521d12"/></g><g transform="translate(43.41 20.405)"><path d="M322.97,90.272a67.712,67.712,0,0,1,5.736,27.217c0,37.766-31.506,69.272-69.253,69.272-1.951,0-3.873-.1-5.785-.266l3.3,5.693H319.38l31.228-54.063Z" transform="translate(-253.668 -90.272)" fill="#a0003c"/></g><g transform="translate(39.247 34.254)"><path d="M249.415,136.629,262.8,104.967h8.039v31.662h3.473v6.689h-3.473v8.508h-7.372v-8.508H249.415Zm14.054,0V119.286l-7.292,17.343Z" transform="translate(-249.415 -104.433)" fill="#fff"/><path d="M277.663,116.2c0-7.5,3.953-11.775,11.175-11.775,7.24,0,11.186,4.279,11.186,11.775v24.366c0,7.5-3.946,11.784-11.186,11.784-7.222,0-11.175-4.281-11.175-11.784Zm7.364,24.838c0,3.349,1.476,4.623,3.811,4.623s3.814-1.273,3.814-4.623v-25.3c0-3.357-1.472-4.628-3.814-4.628s-3.811,1.27-3.811,4.628Z" transform="translate(-250.015 -104.421)" fill="#fff"/><path d="M303.582,136.629l13.383-31.662H325v31.662h3.48v6.689H325v8.508h-7.363v-8.508H303.582Zm14.059,0V119.286l-7.3,17.343Z" transform="translate(-250.565 -104.433)" fill="#fff"/><g transform="translate(12.08 52.585)"><path d="M264.848,166.68H269.1v2.814h-4.248v5.762H270.2v2.816h-8.44V158.381h8.44V161.2h-5.349Z" transform="translate(-261.757 -158.152)" fill="#fff"/><path d="M278.812,178.072a6.149,6.149,0,0,1-.28-2.417v-3.1c0-1.822-.618-2.5-2.028-2.5h-1.063v8.014h-3.1V158.381h4.677c3.21,0,4.585,1.487,4.585,4.529v1.544c0,2.028-.655,3.348-2.028,4,1.548.654,2.054,2.143,2.054,4.184v3.042a5.87,5.87,0,0,0,.341,2.394Zm-3.371-16.87v6.044h1.2c1.164,0,1.86-.511,1.86-2.088v-1.941c0-1.408-.485-2.015-1.577-2.015Z" transform="translate(-261.982 -158.152)" fill="#fff"/><path d="M290.369,178.072a6.167,6.167,0,0,1-.275-2.417v-3.1c0-1.822-.628-2.5-2.028-2.5H287v8.014h-3.091V158.381h4.66c3.215,0,4.588,1.487,4.588,4.529v1.544c0,2.028-.644,3.348-2.023,4,1.547.654,2.062,2.143,2.062,4.184v3.042a6.018,6.018,0,0,0,.324,2.394ZM287,161.2v6.044H288.2c1.157,0,1.862-.511,1.862-2.088v-1.941c0-1.408-.486-2.015-1.583-2.015Z" transform="translate(-262.227 -158.152)" fill="#fff"/><path d="M295.2,163.1c0-3.15,1.661-4.955,4.7-4.955s4.708,1.806,4.708,4.955v10.237c0,3.152-1.666,4.953-4.708,4.953s-4.7-1.8-4.7-4.953Zm3.1,10.439c0,1.409.612,1.936,1.593,1.936s1.607-.527,1.607-1.936V162.9c0-1.409-.62-1.937-1.607-1.937s-1.593.528-1.593,1.937Z" transform="translate(-262.467 -158.147)" fill="#fff"/><path d="M313.316,178.072a6.249,6.249,0,0,1-.275-2.417v-3.1c0-1.822-.612-2.5-2.024-2.5h-1.076v8.014h-3.092V158.381h4.677c3.207,0,4.586,1.487,4.586,4.529v1.544c0,2.028-.655,3.348-2.034,4,1.557.654,2.054,2.143,2.054,4.184v3.042a5.692,5.692,0,0,0,.346,2.394Zm-3.375-16.87v6.044h1.219c1.147,0,1.848-.511,1.848-2.088v-1.941c0-1.408-.478-2.015-1.561-2.015Z" transform="translate(-262.715 -158.152)" fill="#fff"/></g></g></g><g transform="translate(56.492 263.681)"><g transform="translate(17.943)"><path d="M78.783,361.47a1.957,1.957,0,0,1-1.7-2.936l50.605-87.659a1.957,1.957,0,0,1,3.39,0l50.611,87.659a1.957,1.957,0,0,1-1.7,2.936Z" transform="translate(-74.867 -267.938)" fill="#e54718"/><path d="M129.345,271.811l25.309,43.83,25.3,43.829H78.74l25.3-43.829,25.3-43.83m0-3.915h0a3.916,3.916,0,0,0-3.39,1.957l-25.3,43.83-25.3,43.829a3.916,3.916,0,0,0,3.391,5.873H179.956a3.915,3.915,0,0,0,3.39-5.873l-25.3-43.829-25.31-43.83a3.914,3.914,0,0,0-3.39-1.957Z" transform="translate(-74.825 -267.896)" fill="#521d12"/></g><path d="M154.739,316.47l-5.521-9.562c-1.258,20.911-19.051,37.957-40.235,37.957a39.553,39.553,0,0,1-18.566-4.648L78.825,360.3H180.041Z" transform="translate(-56.966 -268.724)" fill="#a03016"/><g transform="translate(0 80.467)"><rect width="141.016" height="23.691" rx="2" transform="translate(1.957 1.958)" fill="#e54718"/><path d="M197.507,354.024V373.8H60.407V354.024h137.1m0-3.915H60.407a3.915,3.915,0,0,0-3.915,3.915V373.8a3.915,3.915,0,0,0,3.915,3.915h137.1a3.915,3.915,0,0,0,3.915-3.915V354.024a3.915,3.915,0,0,0-3.915-3.915Z" transform="translate(-56.492 -350.109)" fill="#521d12"/></g><g transform="translate(18.205 65.407)"><path d="M79.049,362.438a1.958,1.958,0,0,1-1.7-2.936l12.586-21.8a1.956,1.956,0,0,1,1.7-.979h75.522a1.957,1.957,0,0,1,1.7.979l12.586,21.8a1.958,1.958,0,0,1-1.7,2.936Z" transform="translate(-75.134 -334.764)" fill="#fff"/><path d="M167.114,338.637l12.586,21.8H79.006l12.586-21.8h75.522m0-3.915H91.592a3.915,3.915,0,0,0-3.391,1.957l-12.585,21.8a3.915,3.915,0,0,0,3.39,5.873H179.7a3.916,3.916,0,0,0,3.391-5.873l-12.587-21.8a3.915,3.915,0,0,0-3.39-1.957Z" transform="translate(-75.092 -334.722)" fill="#521d12"/></g><g transform="translate(22.119 69.322)"><path d="M80.41,358.231l-1.319,2.292H179.785l-2.29-3.972-10.3-17.829H131.174a39.449,39.449,0,0,1-40.746,2.17Z" transform="translate(-79.091 -338.722)" fill="#bababa"/></g><g transform="translate(43.38 21.804)"><path d="M104.771,317.884a1.958,1.958,0,0,1-1.7-2.936l12.582-21.8a1.958,1.958,0,0,1,1.7-.979h25.181a1.959,1.959,0,0,1,1.7.979l12.586,21.8a1.958,1.958,0,0,1-1.7,2.936Z" transform="translate(-100.855 -290.215)" fill="#fff"/><path d="M142.491,294.088l12.586,21.8H104.728l12.582-21.8h25.181m0-3.915H117.31a3.915,3.915,0,0,0-3.39,1.958l-12.582,21.8a3.915,3.915,0,0,0,3.39,5.873h50.349a3.914,3.914,0,0,0,3.39-5.873l-12.586-21.8a3.913,3.913,0,0,0-3.39-1.958Z" transform="translate(-100.813 -290.173)" fill="#521d12"/></g><g transform="translate(90.541 38.183)"><path d="M156.1,316.24l-2.957-5.115-2.435-4.217A39.323,39.323,0,0,1,149,316.24Z" transform="translate(-148.997 -306.907)" fill="#bababa"/></g></g><g transform="translate(166.992 79.254)"><g transform="translate(22.643 102.407)"><path d="M282.253,215.463c.679,1.251-.316,3.056-2.354,4.754,5.217,1.182,8.943,4.467,8.781,8.19-.2,4.49-5.91,7.2-12.786,6.88s-12.246-4.907-12.042-9.373c.208-4.5,2.476-7.493,7.31-9.621S281.2,213.481,282.253,215.463Z" transform="translate(-194.038 -184.738)" fill="#f7a67b"/><path d="M279.159,212.115c3.1,0,4.433,1.26,5,2.321a4.448,4.448,0,0,1-.136,4.222q-.135.265-.3.53a14.512,14.512,0,0,1,4.047,2.575,8.677,8.677,0,0,1,3.074,6.739c-.124,2.786-1.765,5.213-4.62,6.836a19.05,19.05,0,0,1-9.239,2.142c-.393,0-.794-.009-1.192-.028a16.7,16.7,0,0,1-11.443-5.016,9.308,9.308,0,0,1-2.663-6.621,11.95,11.95,0,0,1,2.359-6.911,15.274,15.274,0,0,1,6.239-4.593A23.332,23.332,0,0,1,279.159,212.115Zm1.07,4.443a4.37,4.37,0,0,0-1.07-.109,19.544,19.544,0,0,0-7.117,1.825l-.006,0c-4.1,1.807-5.848,4.049-6.019,7.738a5.057,5.057,0,0,0,1.533,3.5,12.3,12.3,0,0,0,8.44,3.61c.335.016.668.023.995.023a14.715,14.715,0,0,0,7.1-1.576,4.224,4.224,0,0,0,2.432-3.259c.109-2.508-2.875-5.024-7.1-5.981l-4.278-.97,3.37-2.808A5.992,5.992,0,0,0,280.229,216.558Z" transform="translate(-194.038 -184.738)" fill="#45140d"/><path d="M216.224,231.26l-22.292-33.9a8.559,8.559,0,0,1,14.3-9.409l20.391,30.978,37.844-2.817.085,16.8-41.763,3.52A8.553,8.553,0,0,1,216.224,231.26Z" transform="translate(-192.524 -184.097)" fill="#ffbd00"/><path d="M224.058,238.628a10.717,10.717,0,0,1-9.742-6.327l-22.194-33.754a10.726,10.726,0,0,1,17.922-11.789l19.689,29.913,38.889-2.895.107,21.126-43.758,3.688C224.67,238.615,224.361,238.628,224.058,238.628Zm-22.981-52.364a6.392,6.392,0,0,0-5.335,9.9l22.4,34.062.075.173a6.389,6.389,0,0,0,5.845,3.894c.181,0,.365-.008.547-.023l39.771-3.352-.063-12.477-36.8,2.739-21.091-32.042A6.374,6.374,0,0,0,201.077,186.264Z" transform="translate(-192.524 -184.097)" fill="#45140d"/></g><path d="M180.333,258.492V184.465a14.554,14.554,0,0,1,14.561-14.547h16.2a14.56,14.56,0,0,1,14.555,14.547v74.027Z" transform="translate(-169.622 -81.389)" fill="#ffbd00"/><path d="M227.82,260.659H178.166V184.465a16.712,16.712,0,0,1,16.728-16.714h16.2a16.737,16.737,0,0,1,16.722,16.714Zm-45.32-4.334h40.986v-71.86A12.4,12.4,0,0,0,211.1,172.085h-16.2A12.4,12.4,0,0,0,182.5,184.465Z" transform="translate(-169.622 -81.389)" fill="#45140d"/><g transform="translate(8.214 89.388)"><path d="M208.235,376.526c0-.983.017-7.068.017-7.731,0-1.03-.478-3.655,2.961-3.655h12.02a9.435,9.435,0,0,1,9.421,9.442,8.828,8.828,0,0,1-.2,1.944Z" transform="translate(-178.428 -174.922)" fill="#4c4c4b"/><path d="M234.184,378.693H206.068v-2.167c0-.542.005-2.642.01-4.495,0-1.512.007-2.94.007-3.236,0-.058,0-.156-.008-.26a5.388,5.388,0,0,1,1.232-4.132,5.184,5.184,0,0,1,3.9-1.43h12.02a11.611,11.611,0,0,1,11.587,11.609,10.992,10.992,0,0,1-.253,2.424Zm-23.778-4.334h20.077a7.273,7.273,0,0,0-7.25-7.052h-12.02a2.16,2.16,0,0,0-.767.1,3.936,3.936,0,0,0-.038.955c.006.141.011.287.011.431,0,.3,0,1.667-.007,3.247C210.409,372.815,210.407,373.631,210.406,374.359Z" transform="translate(-178.428 -174.922)" fill="#45140d"/><path d="M189.793,170.869v18.226h26.181V170.8a14.554,14.554,0,0,1,9.679,13.689l-.038,176.652H208.587V273.731H197.439v87.406H180.411l-.078-176.652A14.558,14.558,0,0,1,189.793,170.869Z" transform="translate(-177.835 -170.795)" fill="#006dbc"/><path d="M213.807,167.722l2.894,1.032a16.712,16.712,0,0,1,7.984,6.008,16.543,16.543,0,0,1,3.134,9.722L227.781,363.3H206.42V275.9h-6.814V363.3h-21.36l-.079-178.818a16.55,16.55,0,0,1,3.059-9.621,16.778,16.778,0,0,1,7.8-6.022l2.931-1.1v19.19h21.847Zm9.641,191.247.038-174.486a12.39,12.39,0,0,0-5.345-10.163v16.941H187.626V174.48a12.44,12.44,0,0,0-5.126,10l.077,174.485h12.695V271.564h15.482v87.406Z" transform="translate(-177.835 -170.795)" fill="#45140d"/><path d="M177.782,376.526c0-.983.022-7.068.022-7.731,0-1.03-.477-3.655,2.953-3.655h12.015a9.44,9.44,0,0,1,9.437,9.442,10.269,10.269,0,0,1-.2,1.944Z" transform="translate(-177.781 -174.922)" fill="#4c4c4b"/><path d="M203.8,378.693H175.615v-2.167c0-.543.007-2.643.012-4.5,0-1.511.009-2.939.009-3.235,0-.058,0-.156-.008-.26a5.392,5.392,0,0,1,1.232-4.134,5.173,5.173,0,0,1,3.9-1.428h12.015a11.607,11.607,0,0,1,11.6,11.609,12.41,12.41,0,0,1-.239,2.357Zm-23.842-4.334h20.085a7.282,7.282,0,0,0-7.267-7.052H180.756a2.153,2.153,0,0,0-.759.1,3.95,3.95,0,0,0-.038.957c.006.141.011.287.011.431,0,.3,0,1.668-.009,3.248C179.959,372.816,179.956,373.632,179.954,374.359Z" transform="translate(-177.781 -174.922)" fill="#45140d"/><rect width="22.99" height="16.393" transform="translate(14.723 27.676)" fill="#00abea"/><path d="M-2.167-2.167H25.156V18.56H-2.167Zm22.99,4.334H2.167v12.06H20.823Z" transform="translate(14.723 27.676)" fill="#45140d"/></g><g transform="translate(6.851)"><g transform="translate(18.391 64.416)"><path d="M195.179,171.683a8.688,8.688,0,0,0,8.7,8.681h0a8.667,8.667,0,0,0,8.666-8.681V153.974a8.679,8.679,0,0,0-8.666-8.693h0a8.7,8.7,0,0,0-8.7,8.693Z" transform="translate(-195.179 -145.281)" fill="#f59b6e"/><path d="M203.877,182.531a10.855,10.855,0,0,1-10.865-10.848V153.974a10.875,10.875,0,0,1,10.865-10.86,10.846,10.846,0,0,1,10.833,10.86v17.709a10.834,10.834,0,0,1-10.833,10.848Zm0-35.083a6.536,6.536,0,0,0-6.531,6.527v17.709a6.515,6.515,0,0,0,13.031,0V153.974A6.52,6.52,0,0,0,203.877,147.448Z" transform="translate(-195.179 -145.281)" fill="#45140d"/></g><path d="M176.99,124.78a33.854,33.854,0,0,0,26.978,39.589h0A33.867,33.867,0,0,0,243.555,137.4l3.158-16.651a33.889,33.889,0,0,0-26.968-39.6h0a33.887,33.887,0,0,0-39.6,26.986Z" transform="translate(-176.389 -79.491)" fill="#f7a67b"/><path d="M210.32,167.135h0a36.368,36.368,0,0,1-6.753-.637,35.995,35.995,0,0,1-28.7-42.122l3.157-16.649a36.052,36.052,0,0,1,35.39-29.344,36.42,36.42,0,0,1,6.737.633,36.023,36.023,0,0,1,28.695,42.138l-3.157,16.651a36.029,36.029,0,0,1-35.363,29.33Zm3.088-84.418a31.735,31.735,0,0,0-31.133,25.818l-3.157,16.649a31.687,31.687,0,0,0,25.252,37.056,32.022,32.022,0,0,0,5.946.561h0A31.711,31.711,0,0,0,241.426,137l3.157-16.65a31.718,31.718,0,0,0-31.174-37.629Z" transform="translate(-176.389 -79.491)" fill="#45140d"/><path d="M236.356,112.305s-13.016,13.149-41.172,7.8c-7.7-1.446-9.956,4.586-11.578,13.131-.286,1.518-1.358,3.842-3.977,3.34l-2.861-.536a33.335,33.335,0,0,1,.221-11.259l3.157-16.649a33.875,33.875,0,1,1,66.565,12.619l-1.378,7.282S233.777,125.9,236.356,112.305Z" transform="translate(-176.389 -79.491)" fill="#70060e"/><path d="M180.332,138.812a5.916,5.916,0,0,1-1.108-.108l-2.855-.535a2.167,2.167,0,0,1-1.744-1.811,35.506,35.506,0,0,1,.236-11.984l3.157-16.646a36.053,36.053,0,0,1,35.39-29.344,36.418,36.418,0,0,1,6.737.633,36.023,36.023,0,0,1,28.695,42.138l-1.378,7.281a2.167,2.167,0,0,1-2.521,1.728,14.677,14.677,0,0,1-8.723-5.764,14.12,14.12,0,0,1-2.389-7.5,37.46,37.46,0,0,1-3.417,1.89,45.043,45.043,0,0,1-9.233,3.281,55.771,55.771,0,0,1-13.006,1.479h0a72.057,72.057,0,0,1-13.391-1.318,9.554,9.554,0,0,0-1.746-.176,4.867,4.867,0,0,0-4.555,2.737c-1.371,2.285-2.156,5.754-2.743,8.846a7.607,7.607,0,0,1-1.352,3.135A5.025,5.025,0,0,1,180.332,138.812Zm-1.61-4.611,1.307.245.009,0a1.583,1.583,0,0,0,.294.031c.812,0,1.113-1.475,1.145-1.643.659-3.47,1.563-7.4,3.285-10.271a9.183,9.183,0,0,1,8.271-4.84,13.9,13.9,0,0,1,2.551.252,67.745,67.745,0,0,0,12.587,1.242h0A46.321,46.321,0,0,0,228.307,115a26.084,26.084,0,0,0,6.513-4.219,2.163,2.163,0,0,1,3.665,1.932c-.9,4.758,0,8.4,2.7,10.819a10.385,10.385,0,0,0,2.491,1.642l.912-4.821a31.708,31.708,0,1,0-62.307-11.812l-3.157,16.649v.007A31,31,0,0,0,178.723,134.2Z" transform="translate(-176.389 -79.491)" fill="#45140d"/><g transform="translate(22.856 49.844)"><path d="M228.856,138.867a3.641,3.641,0,1,0,4.257-2.9A3.655,3.655,0,0,0,228.856,138.867Z" transform="translate(-200.358 -130.51)" fill="#45140d"/><path d="M199.809,133.35a3.643,3.643,0,1,0,4.263-2.894A3.637,3.637,0,0,0,199.809,133.35Z" transform="translate(-199.741 -130.393)" fill="#45140d"/><g transform="translate(13.16 6.902)"><path d="M213.94,146.191l4.364.838a.9.9,0,0,0,.792-.2.884.884,0,0,0,.3-.753l-.488-7.769a.912.912,0,0,0-.974-.859.94.94,0,0,0-.869.974l.443,6.587-3.226-.6a.907.907,0,1,0-.34,1.782Z" transform="translate(-213.186 -137.445)" fill="#45140d"/></g><g transform="translate(7.514 20.039)"><path d="M214.455,157.331a10.657,10.657,0,0,0,7.982-1.654,1.277,1.277,0,0,0-1.443-2.107,8.1,8.1,0,0,1-11.242-2.136,1.257,1.257,0,0,0-1.774-.336,1.285,1.285,0,0,0-.341,1.782A10.671,10.671,0,0,0,214.455,157.331Z" transform="translate(-207.418 -150.867)" fill="#45140d"/></g></g><g transform="translate(0.074)"><g transform="translate(0 0.102)"><path d="M177.273,114.778l1.213-6.314a35.467,35.467,0,1,1,69.692,13.216l-1.2,6.31Z" transform="translate(-176.482 -79.572)" fill="#ffbd00"/><path d="M248.7,130.523,174.735,116.5l1.622-8.445A37.638,37.638,0,0,1,213.31,77.405a38.039,38.039,0,0,1,7.025.659,37.648,37.648,0,0,1,29.972,44.019Zm-68.891-17.469,65.443,12.4.8-4.183a33.3,33.3,0,1,0-65.434-12.409v.006Z" transform="translate(-176.482 -79.572)" fill="#45140d"/><path d="M176.464,119.74l77.5,14.7.765-4.08-77.49-14.7Z" transform="translate(-176.464 -80.339)" fill="#ffbd00"/><path d="M175.515,113.131l81.742,15.5-1.563,8.34-81.764-15.509Z" transform="translate(-176.464 -80.339)" fill="#45140d"/></g><g transform="translate(23.591)"><g transform="translate(22.81 2.851)"><path d="M2.129,8.107l-4.259-.8L-.676-.4,3.583.4Z" transform="translate(13.655 7.114)" fill="#45140d"/><path d="M2.129,17.939l-4.257-.81L1.207-.4,5.464.4Z" transform="translate(6.331 3.409)" fill="#45140d"/><path d="M2.129,22.28l-4.257-.809L2.028-.4,6.286.4Z" fill="#45140d"/></g><path d="M2.129,8.082l-4.258-.8L-.679-.4,3.579.4Z" transform="translate(0 3.055)" fill="#45140d"/><path d="M2.129,19.543l-4.258-.808L1.5-.4,5.762.4Z" transform="translate(4.57)" fill="#45140d"/><path d="M2.129,22.3l-4.258-.807L2.019-.4,6.277.4Z" transform="translate(10.117 0.439)" fill="#45140d"/><path d="M2.129,29.482l-4.258-.807L3.384-.4,7.642.4Z" transform="translate(15.121 1.515)" fill="#45140d"/></g></g></g><path d="M217.859,242.932l37.711-.1,52.818-38.873-37.7.1Z" transform="translate(-170.418 -82.111)" fill="#00abea"/><path d="M217.859,245.1a2.167,2.167,0,0,1-1.284-3.912L269.4,202.318a2.167,2.167,0,0,1,1.278-.422l37.7-.1h.006a2.167,2.167,0,0,1,1.284,3.912l-52.818,38.873a2.167,2.167,0,0,1-1.279.422l-37.711.1Zm53.539-38.87-46.915,34.52,30.373-.078,46.908-34.524Z" transform="translate(-170.418 -82.111)" fill="#45140d"/><g transform="translate(0 96.351)"><path d="M261.8,205.433c.745,1.23-.161,3.073-2.137,4.856,5.268.944,9.136,4.058,9.136,7.8,0,4.485-5.578,7.434-12.463,7.434s-12.442-4.332-12.442-8.825,2.138-7.591,6.869-9.932C255.494,204.408,260.655,203.505,261.8,205.433Z" transform="translate(-170.971 -178.471)" fill="#f7a67b"/><path d="M259.054,202.219c2.766,0,4.029,1.141,4.6,2.1a4.451,4.451,0,0,1,.065,4.23q-.123.27-.275.541a14.466,14.466,0,0,1,4.15,2.388,8.679,8.679,0,0,1,3.366,6.608c0,2.935-1.682,5.519-4.736,7.277a20.194,20.194,0,0,1-9.894,2.324,17.158,17.158,0,0,1-10.077-3.145c-2.88-2.1-4.532-4.964-4.532-7.847a11.908,11.908,0,0,1,2.045-7.011,15.292,15.292,0,0,1,6.028-4.862A22.662,22.662,0,0,1,259.054,202.219Zm.78,4.4a3.678,3.678,0,0,0-.78-.069,18.58,18.58,0,0,0-7.329,2.152l0,0c-4.022,1.99-5.663,4.305-5.663,7.99,0,1.484,1,3.069,2.754,4.347a12.98,12.98,0,0,0,7.521,2.31,15.856,15.856,0,0,0,7.732-1.746c1.169-.673,2.564-1.83,2.564-3.521,0-2.52-3.091-4.9-7.351-5.666l-4.352-.78,3.283-2.962A5.841,5.841,0,0,0,259.834,206.622Z" transform="translate(-170.971 -178.471)" fill="#45140d"/><path d="M194.806,224.349,171.013,191.49a8.561,8.561,0,0,1,13.866-10.045L206.618,211.5l37.689-4.518.843,16.78-41.561,5.378A8.525,8.525,0,0,1,194.806,224.349Z" transform="translate(-169.389 -177.909)" fill="#ffbd00"/><path d="M202.485,231.375a10.614,10.614,0,0,1-5.728-1.677,10.757,10.757,0,0,1-3.813-4.226l-23.685-32.71a10.736,10.736,0,0,1,8.687-17.019,10.717,10.717,0,0,1,8.687,4.43l20.994,29.021,38.729-4.643,1.06,21.1-43.548,5.635A10.834,10.834,0,0,1,202.485,231.375Zm-24.539-51.3a6.328,6.328,0,0,0-3.741,1.219,6.405,6.405,0,0,0-1.436,8.926l23.906,33.015.084.175a6.4,6.4,0,0,0,5.726,3.63,6.486,6.486,0,0,0,.827-.053l39.574-5.121-.626-12.46L205.61,213.8l-22.487-31.084A6.42,6.42,0,0,0,177.945,180.076Z" transform="translate(-169.389 -177.909)" fill="#45140d"/></g></g></g></g></svg>