<svg xmlns="http://www.w3.org/2000/svg" width="202" height="202" viewBox="0 0 202 202"><g transform="translate(-219.615 -3429)"><circle cx="101" cy="101" r="101" transform="translate(219.615 3429)" fill="#fff" opacity="0.57"/><g transform="translate(236.615 3442)"><g transform="translate(3.806 3.806)"><g transform="translate(112.258 112.258)"><path d="M95.323,42H42V95.323a2.815,2.815,0,0,0,2.806,2.806H95.323a2.815,2.815,0,0,0,2.806-2.806V44.806A2.815,2.815,0,0,0,95.323,42Z" transform="translate(-42 -42)" fill="#d3a06c"/></g><g transform="translate(106.645 0)"><path d="M93.323,2H42.806A2.815,2.815,0,0,0,40,4.806V58.129H93.323a2.815,2.815,0,0,0,2.806-2.806V4.806A2.815,2.815,0,0,0,93.323,2Z" transform="translate(-40 -2)" fill="#d3a06c"/></g><g transform="translate(95.391 56.129)"><path d="M38.825,22a2.815,2.815,0,0,0-2.806,2.806V53.292l-.028.028a24.971,24.971,0,0,1,5.641,15.856v8.953H92.147V22Z" transform="translate(-35.99 -22)" fill="#d3a06c"/></g><g transform="translate(123.484 0)"><path d="M46,2H68.452V18.839H46Z" transform="translate(-46 -2)" fill="#b27946"/></g><g transform="translate(112.258 56.129)"><path d="M42,22H64.452V38.839H42Z" transform="translate(-42 -22)" fill="#b27946"/></g><g transform="translate(129.097 112.258)"><path d="M48,42H70.452V58.839H48Z" transform="translate(-48 -42)" fill="#b27946"/></g><g transform="translate(16.839)"><path d="M52.9,24.452H30.452A11.223,11.223,0,0,0,19.226,35.677H16.419a8.441,8.441,0,0,0-5.781,2.3l-1.4-4.21A24.146,24.146,0,0,1,32.135,2H51.219a24.146,24.146,0,0,1,22.9,31.769l-1.4,4.21a8.441,8.441,0,0,0-5.781-2.3H64.129V32.871H55.71A9.583,9.583,0,0,1,52.9,26.107Z" transform="translate(-8 -2)" fill="#656d78"/></g><g transform="translate(28.065 106.645)"><path d="M56.9,84.9v16.839H12V84.9h5.613a5.629,5.629,0,0,0,5.613-5.613h8.419a8.419,8.419,0,0,0,0-16.839H12V42.806A2.815,2.815,0,0,1,14.806,40h8.419v8.419a2.815,2.815,0,0,0,2.806,2.806H42.871a2.815,2.815,0,0,0,2.806-2.806V40H54.1A2.815,2.815,0,0,1,56.9,42.806V84.9Z" transform="translate(-12 -40)" fill="#e6e9ed"/></g><g transform="translate(72.968 151.548)"><path d="M28,56H39.226V72.839H28Z" transform="translate(-28 -56)" fill="#fcd770"/></g><g transform="translate(16.839 151.548)"><path d="M8,56H19.226V72.839H8Z" transform="translate(-8 -56)" fill="#fcd770"/></g><g transform="translate(0 76.925)"><path d="M2,87.195v-31.4A25.241,25.241,0,0,1,23.694,30.785l9.57-1.375L38.484,45.1l14.032-5.613L66.548,45.1l5.22-15.688,9.57,1.375a25.364,25.364,0,0,1,21.694,25.005v31.4a16.852,16.852,0,0,1-16.839,16.839H74.968v-42.1a2.815,2.815,0,0,0-2.806-2.806H32.871a2.815,2.815,0,0,0-2.806,2.806V81.582H41.29V98.421a5.629,5.629,0,0,1-5.613,5.613H18.839A16.852,16.852,0,0,1,2,87.195Z" transform="translate(-2 -29.41)" fill="#fcd770"/></g><g transform="translate(50.516 75.774)"><path d="M39.252,30.151l-5.22,15.688L20,40.226,31.226,29Z" transform="translate(-20 -29)" fill="#ffc729"/></g><g transform="translate(31.264 75.774)"><path d="M32.392,40.226,18.36,45.839,13.14,30.151,21.166,29Z" transform="translate(-13.14 -29)" fill="#ffc729"/></g><g transform="translate(39.29 106.645)"><path d="M38.452,40v8.419a2.815,2.815,0,0,1-2.806,2.806H18.806A2.815,2.815,0,0,1,16,48.419V40Z" transform="translate(-16 -40)" fill="#b4dd7f"/></g><g transform="translate(39.29 129.097)"><path d="M24.419,48a8.419,8.419,0,0,1,0,16.839H16V48Z" transform="translate(-16 -48)" fill="#f0d0b4"/></g><g transform="translate(39.29 65.615)"><path d="M35.9,25.38l2.554,10.159L27.226,46.765,16,35.539,18.554,25.38a22.48,22.48,0,0,0,17.344,0Z" transform="translate(-16 -25.38)" fill="#f0d0b4"/></g><g transform="translate(72.266 33.677)"><path d="M37.039,16.3a8.422,8.422,0,0,1-5.781,14.537H27.75a23.121,23.121,0,0,0,.7-5.613V14h2.806a8.441,8.441,0,0,1,5.781,2.3Z" transform="translate(-27.75 -14)" fill="#f0d0b4"/></g><g transform="translate(16.839 33.677)"><path d="M19.927,30.839H16.419a8.419,8.419,0,0,1,0-16.839h2.806V25.226A23.121,23.121,0,0,0,19.927,30.839Z" transform="translate(-8 -14)" fill="#f0d0b4"/></g><g transform="translate(28.065 22.452)"><path d="M48.484,18.419H56.9V32.452a23.121,23.121,0,0,1-.7,5.613,22.469,22.469,0,0,1-30.422,15.1,22.156,22.156,0,0,1-7.213-4.827A22.793,22.793,0,0,1,12.7,38.065a23.121,23.121,0,0,1-.7-5.613V21.226A11.223,11.223,0,0,1,23.226,10H45.677v1.656a9.583,9.583,0,0,0,2.806,6.764Z" transform="translate(-12 -10)" fill="#f0d0b4"/></g></g><g transform="translate(1 1)"><circle cx="3" cy="3" r="3" transform="translate(39 39)"/><ellipse cx="2.5" cy="3" rx="2.5" ry="3" transform="translate(62 39)"/><path d="M37.668,22.656l.295-.592-5.021-2.512-.295.595a6.276,6.276,0,0,1-11.226,0l-.295-.592-5.021,2.512.295.592a11.889,11.889,0,0,0,21.267,0Z" transform="translate(26.288 32.513)"/><path d="M26.6,18.242a6.734,6.734,0,0,1-1.984-4.791V9H19v4.451a12.3,12.3,0,0,0,3.629,8.759Z" transform="translate(31.516 13.452)"/><path d="M30.6,18.242a6.734,6.734,0,0,1-1.984-4.791V9H23v4.451a12.3,12.3,0,0,0,3.629,8.759Z" transform="translate(38.742 13.452)"/><path d="M169.387,113.258H158.161V62.742h5.613a5.619,5.619,0,0,0,5.613-5.613V6.613A5.619,5.619,0,0,0,163.774,1H113.258a5.619,5.619,0,0,0-5.613,5.613V57.129h-5.613a5.619,5.619,0,0,0-5.613,5.613v21.98a27.792,27.792,0,0,0-12.87-5.405L67.813,77.069l-1.53-6.121A25.377,25.377,0,0,0,78.11,57.129h1.471A11.237,11.237,0,0,0,90.806,45.9a11.118,11.118,0,0,0-2.284-6.716l.9-2.714A26.957,26.957,0,0,0,63.853,1H44.789a26.959,26.959,0,0,0-25.57,35.476l.9,2.714A11.1,11.1,0,0,0,17.839,45.9,11.237,11.237,0,0,0,29.065,57.129h1.473A25.366,25.366,0,0,0,42.364,70.948l-1.53,6.121L25.1,79.317A28.2,28.2,0,0,0,1,107.1v31.415a19.661,19.661,0,0,0,16.839,19.421V175H90.806V157.937a19.661,19.661,0,0,0,16.839-19.421V118.871h5.613v50.516A5.619,5.619,0,0,0,118.871,175h50.516A5.619,5.619,0,0,0,175,169.387V118.871A5.619,5.619,0,0,0,169.387,113.258ZM130.1,6.613h5.613V17.839H130.1Zm11.226,0h5.613V17.839h-5.613Zm-28.065,0h11.226V23.452h28.065V6.613h11.226V57.129H113.258Zm5.613,56.129h5.613V73.968h-5.613Zm11.226,0h5.613V73.968H130.1ZM69.859,83.033l-3.225,9.677-7.316-2.927,7.224-7.224Zm9.722-31.516h-.166a25.074,25.074,0,0,0,.166-2.806V40.29a5.613,5.613,0,1,1,0,11.226Zm-50.516,0a5.613,5.613,0,1,1,0-11.226V48.71a25.075,25.075,0,0,0,.166,2.806Zm5.613-2.806V37.484A8.43,8.43,0,0,1,43.1,29.065H45.9V23.452H43.1A14.059,14.059,0,0,0,29.348,34.677h-.283a11.187,11.187,0,0,0-4.243.845l-.272-.819A21.336,21.336,0,0,1,44.792,6.613H63.856A21.333,21.333,0,0,1,84.1,34.7l-.275.822a11.162,11.162,0,0,0-4.241-.845V31.871H73.968V48.71a19.645,19.645,0,0,1-39.29,0ZM54.323,73.968a25.154,25.154,0,0,0,6.7-.929l1.42,5.68-8.119,8.119L46.2,78.719l1.42-5.68a25.154,25.154,0,0,0,6.7.929ZM42.1,82.555l7.224,7.224-7.316,2.927L38.786,83.03ZM23.452,158.161h5.613v11.226H23.452ZM51.516,135.71a5.613,5.613,0,1,1,0,11.226H45.9V135.71Zm-6.129,16.839h6.129a11.226,11.226,0,1,0,0-22.452H34.677V113.258H40.29v5.613a5.619,5.619,0,0,0,5.613,5.613H62.742a5.619,5.619,0,0,0,5.613-5.613v-5.613h5.613v56.129H34.677V158.161h2.806A8.408,8.408,0,0,0,45.387,152.548Zm.516-39.29H62.742v5.613H45.9Zm33.677,56.129V158.161h5.613v11.226Zm22.452-30.871A14.048,14.048,0,0,1,88,152.548H79.581V135.71H96.419V130.1H90.806V107.645H85.194V130.1H79.581V113.258a5.619,5.619,0,0,0-5.613-5.613H34.677a5.619,5.619,0,0,0-5.613,5.613V130.1H23.452V107.645H17.839V130.1H12.226v5.613H40.29v14.032a2.807,2.807,0,0,1-2.806,2.806H20.645A14.048,14.048,0,0,1,6.613,138.516V107.1A22.559,22.559,0,0,1,25.89,84.876l7.249-1.036,5.428,16.291,15.755-6.3,15.753,6.3L75.5,83.838l7.249,1.036a22.561,22.561,0,0,1,19.28,22.227Zm5.613-25.258V107.1a27.934,27.934,0,0,0-5.613-16.743V62.742h11.226V79.581h28.065V62.742h11.226v50.516Zm28.065,5.613h5.613V130.1H135.71Zm11.226,0h5.613V130.1h-5.613Zm22.452,50.516H118.871V118.871H130.1V135.71h28.065V118.871h11.226Z" transform="translate(-1 -1)"/></g></g></g></svg>